<?xml version="1.0" standalone="no"?>
<!DOCTYPE svg PUBLIC "-//W3C//DTD SVG 1.1//EN" "http://www.w3.org/Graphics/SVG/1.1/DTD/svg11.dtd" >
<svg xmlns="http://www.w3.org/2000/svg" xmlns:xlink="http://www.w3.org/1999/xlink" version="1.1">
<metadata>
Created by FontForge 20170731 at Thu Aug  6 08:49:42 2020
 By Aleksey,,,
Copyright (c) 2012 by Fontsmith Ltd. All rights reserved.
</metadata>
<defs>
<font id="FSElliotPro-Bold" horiz-adv-x="1230" >
  <font-face 
    font-family="FS Elliot Pro"
    font-weight="700"
    font-stretch="normal"
    units-per-em="2048"
    panose-1="2 0 8 3 5 0 0 2 0 4"
    ascent="1536"
    descent="-512"
    x-height="1004"
    cap-height="1376"
    bbox="-387 -618 2564.72 2064"
    underline-thickness="102"
    underline-position="-307"
    unicode-range="U+000D-FB04"
  />
<missing-glyph horiz-adv-x="1024" 
d="M25 0v1376h974v-1376h-974zM180 1278l332 -500l332 500h-664zM123 1188v-1000l332 500zM901 1188l-332 -500l332 -500v1000zM844 98l-332 500l-332 -500h664z" />
    <glyph glyph-name="f_b" unicode="fb" horiz-adv-x="1968" 
d="M231 0v805h-186v199h186v92q0 164 121 267t312 103q190 0 471 -49v-526q112 137 301 137q201 0 330.5 -147.5t129.5 -378.5t-129.5 -379t-330.5 -148q-99 0 -182.5 40t-139.5 114l-33 -129h-209v1243q-108 19 -188 19q-86 0 -138 -49t-52 -128v-81h245v-199h-245v-805
h-263zM1628 502q0 141 -72.5 230t-187.5 89q-105 0 -171.5 -70.5t-66.5 -181.5v-135q0 -110 66.5 -181t171.5 -71q115 0 187.5 90t72.5 230z" />
    <glyph glyph-name="f_f_b" unicode="ffb" horiz-adv-x="2641" 
d="M231 0v805h-186v199h186v139q0 146 94 234.5t246 88.5q108 0 228 -30l-35 -197q-70 18 -129 18q-63 0 -102 -38.5t-39 -102.5v-112h411v92q0 164 119.5 267t310.5 103q192 0 473 -49v-526q98 109 244 127q74 9 139 -2q154 -26 255 -149t116 -304q7 -86 -4 -155
q-25 -193 -148 -313t-301 -120q-205 0 -321 154l-33 -129h-209v1243q-108 19 -190 19q-84 0 -136.5 -49.5t-52.5 -127.5v-81h244v-199h-244v-805h-262v805h-411v-805h-263zM2302 502q0 141 -73 230t-187 89q-106 0 -173 -71t-67 -181v-135q0 -109 67.5 -180.5t172.5 -71.5
q114 0 187 90t73 230z" />
    <glyph glyph-name="f_h" unicode="fh" horiz-adv-x="1968" 
d="M231 0v805h-186v199h186v92q0 164 121 267t312 103q190 0 471 -49v-543q54 74 138.5 114t186.5 40q172 0 281.5 -107t109.5 -276v-645h-262v604q0 92 -59.5 150.5t-151.5 58.5q-106 0 -174.5 -72.5t-68.5 -187.5v-553h-263v1243q-108 19 -188 19q-86 0 -138 -49t-52 -128
v-81h245v-199h-245v-805h-263z" />
    <glyph glyph-name="f_f_h" unicode="ffh" horiz-adv-x="2641" 
d="M231 0v805h-186v199h186v139q0 146 94 234.5t246 88.5q108 0 228 -30l-35 -197q-70 18 -129 18q-63 0 -102 -38.5t-39 -102.5v-112h411v92q0 164 119.5 267t310.5 103q192 0 473 -49v-543q54 74 138.5 114t185.5 40q173 0 283 -107t110 -276v-645h-262v604
q0 92 -59.5 150.5t-151.5 58.5q-106 0 -175 -72.5t-69 -187.5v-553h-262v1243q-108 19 -190 19q-84 0 -136.5 -49.5t-52.5 -127.5v-81h244v-199h-244v-805h-262v805h-411v-805h-263z" />
    <glyph glyph-name="f_j" unicode="fj" horiz-adv-x="1269" 
d="M231 0v805h-186v199h186v92q0 163 118 266.5t304 103.5q158 0 344 -55l-45 -199q-161 50 -258 50q-89 0 -144.5 -49.5t-55.5 -127.5v-81h641v-1131q0 -145 -94 -234.5t-246 -89.5q-102 0 -226 31l35 197q74 -19 129 -19q63 0 101 39.5t38 102.5v905h-378v-805h-263z" />
    <glyph glyph-name="f_f_j" unicode="ffj" horiz-adv-x="1941" 
d="M231 0v805h-186v199h186v139q0 144 94.5 233.5t245.5 89.5q108 0 228 -30l-35 -197q-70 18 -129 18q-63 0 -102 -39t-39 -102v-112h411v92q0 163 117.5 266.5t302.5 103.5q160 0 346 -55l-47 -199q-158 50 -256 50q-90 0 -145.5 -49.5t-55.5 -127.5v-81h641v-1131
q0 -145 -94 -234.5t-246 -89.5q-100 0 -227 31l35 197q74 -19 129 -19q64 0 102.5 39.5t38.5 102.5v905h-379v-805h-262v805h-411v-805h-263z" />
    <glyph glyph-name="f_k" unicode="fk" horiz-adv-x="1826" 
d="M231 0v805h-186v199h186v92q0 164 121 267t312 103q205 0 460 -49v-842l383 429h297l-432 -469l449 -535h-303l-314 381l-80 -84v-297h-252v1243q-108 19 -188 19q-86 0 -138 -49t-52 -128v-81h245v-199h-245v-805h-263z" />
    <glyph glyph-name="f_f_k" unicode="ffk" horiz-adv-x="2498" 
d="M231 0v805h-186v199h186v139q0 144 94.5 233.5t245.5 89.5q108 0 228 -30l-35 -197q-70 18 -129 18q-63 0 -102 -39t-39 -102v-112h411v92q0 164 119.5 267t310.5 103q208 0 463 -49v-842l381 429h299l-432 -469l448 -535h-303l-315 381l-78 -84v-297h-252v1243
q-108 19 -190 19q-84 0 -136.5 -49.5t-52.5 -127.5v-81h244v-199h-244v-805h-262v805h-411v-805h-263z" />
    <glyph glyph-name="f_f" unicode="ff" horiz-adv-x="1456" 
d="M231 0v805h-186v199h186v139q0 144 94.5 233.5t245.5 89.5q108 0 228 -30l-35 -197q-70 18 -129 18q-63 0 -102 -39t-39 -102v-112h411v139q0 145 94 234t246 89q105 0 225 -30l-32 -197q-71 18 -131 18q-63 0 -101.5 -39t-38.5 -102v-112h244v-199h-244v-805h-262v805
h-411v-805h-263z" />
    <glyph glyph-name="fi" unicode="fi" horiz-adv-x="1269" 
d="M231 0v805h-186v199h186v92q0 163 118 266.5t304 103.5q158 0 344 -55l-45 -199q-161 50 -258 50q-89 0 -144.5 -49.5t-55.5 -127.5v-81h641v-1004h-263v805h-378v-805h-263z" />
    <glyph glyph-name="fl" unicode="fl" horiz-adv-x="1368" 
d="M231 0v805h-186v199h186v92q0 164 121 267t312 103q190 0 471 -49v-1130q0 -47 27 -75t73 -28q21 0 92 13l29 -199q-108 -23 -182 -23q-135 0 -218.5 79.5t-83.5 205.5v983q-111 19 -188 19q-86 0 -138 -49t-52 -128v-81h245v-199h-245v-805h-263z" />
    <glyph glyph-name="f_f_i" unicode="ffi" horiz-adv-x="1941" 
d="M231 0v805h-186v199h186v139q0 144 94.5 233.5t245.5 89.5q108 0 228 -30l-35 -197q-70 18 -129 18q-63 0 -102 -39t-39 -102v-112h411v92q0 163 117.5 266.5t302.5 103.5q160 0 346 -55l-47 -199q-158 50 -256 50q-90 0 -145.5 -49.5t-55.5 -127.5v-81h641v-1004h-262
v805h-379v-805h-262v805h-411v-805h-263z" />
    <glyph glyph-name="f_f_l" unicode="ffl" horiz-adv-x="2039" 
d="M231 0v805h-186v199h186v139q0 144 94.5 233.5t245.5 89.5q108 0 228 -30l-35 -197q-70 18 -129 18q-63 0 -102 -39t-39 -102v-112h411v92q0 164 119.5 267t310.5 103q192 0 473 -49v-1130q0 -47 27.5 -75t73.5 -28q23 0 90 13l29 -199q-104 -23 -183 -23
q-133 0 -216 79.5t-83 205.5v983q-111 19 -190 19q-84 0 -136.5 -49.5t-52.5 -127.5v-81h244v-199h-244v-805h-262v805h-411v-805h-263z" />
    <glyph glyph-name=".notdef" horiz-adv-x="1024" 
d="M25 0v1376h974v-1376h-974zM180 1278l332 -500l332 500h-664zM123 1188v-1000l332 500zM901 1188l-332 -500l332 -500v1000zM844 98l-332 500l-332 -500h664z" />
    <glyph glyph-name=".null" horiz-adv-x="0" 
 />
    <glyph glyph-name=".null" horiz-adv-x="0" 
 />
    <glyph glyph-name="nonmarkingreturn" horiz-adv-x="682" 
 />
    <glyph glyph-name="CR" unicode="&#xd;" horiz-adv-x="491" 
 />
    <glyph glyph-name="space" unicode=" " horiz-adv-x="491" 
 />
    <glyph glyph-name="exclam" unicode="!" horiz-adv-x="575" 
d="M178 457l-22 919h264l-23 -919h-219zM131 135q0 69 44 113.5t112 44.5q69 0 113 -44.5t44 -113.5t-44 -113.5t-113 -44.5q-71 0 -113.5 44t-42.5 114z" />
    <glyph glyph-name="quotedbl" unicode="&#x22;" horiz-adv-x="909" 
d="M139 879l-22 497h243l-22 -497h-199zM571 879l-22 497h244l-23 -497h-199z" />
    <glyph glyph-name="numbersign" unicode="#" horiz-adv-x="1351" 
d="M33 322v200h243l64 332h-205v201h244l65 338l197 -27l-59 -311h329l66 338l197 -27l-60 -311h205v-201h-244l-63 -332h207v-200h-244l-66 -338l-196 26l57 312h-330l-65 -338l-197 26l60 312h-205zM543 854l-64 -332h330l63 332h-329z" />
    <glyph glyph-name="dollar" unicode="$" horiz-adv-x="1179" 
d="M479 -262v342q-165 15 -348 86l64 205q213 -88 374 -88q100 0 155.5 39t55.5 108q0 40 -27.5 69t-72.5 45t-102.5 33t-118 31.5t-118 42.5t-102.5 63.5t-72.5 97.5t-27.5 142q0 132 92.5 222.5t247.5 113.5v348h221v-344q139 -14 308 -80l-64 -202q-195 82 -334 82
q-94 0 -148 -38t-54 -102q0 -44 35.5 -73.5t92 -46.5t124.5 -33t136.5 -41.5t125 -62.5t92 -105t35.5 -162q0 -136 -95 -228t-254 -116v-348h-221z" />
    <glyph glyph-name="percent" unicode="%" horiz-adv-x="1769" 
d="M969 344q0 161 102 265t262 104q158 0 260.5 -104t102.5 -265t-102.5 -265t-260.5 -104q-160 0 -262 104t-102 265zM1163 344q0 -96 47.5 -155.5t122.5 -59.5t121.5 59t46.5 156t-46.5 156t-121.5 59t-122.5 -59.5t-47.5 -155.5zM74 1032q0 162 101.5 265.5t260.5 103.5
t262 -104t103 -265t-103 -264.5t-262 -103.5t-260.5 103t-101.5 265zM268 1032q0 -97 46.5 -156t121.5 -59t122.5 59.5t47.5 155.5t-47.5 155.5t-122.5 59.5t-121.5 -59t-46.5 -156zM301 51l1032 1376l135 -102l-1032 -1376z" />
    <glyph glyph-name="ampersand" unicode="&#x26;" horiz-adv-x="1341" 
d="M1073 0l-131 141q-181 -166 -391 -166q-214 0 -351 114t-137 292q0 119 76.5 219t222.5 172q-151 158 -151 295q0 147 110.5 240.5t282.5 93.5q168 0 275.5 -87t107.5 -224q0 -110 -69.5 -199.5t-221.5 -167.5l265 -287q54 99 57 240h221q-6 -234 -129 -404l250 -272
h-287zM309 401q0 -98 77 -162.5t185 -64.5q134 0 238 113l-328 354q-172 -104 -172 -240zM604 1202q-70 0 -114 -40t-44 -105q0 -80 125 -195q97 52 141 101t44 104q0 59 -43 97t-109 38z" />
    <glyph glyph-name="quotesingle" unicode="'" horiz-adv-x="477" 
d="M139 879l-22 497h243l-22 -497h-199z" />
    <glyph glyph-name="parenleft" unicode="(" horiz-adv-x="718" 
d="M133 590q0 261 93 500.5t270 431.5l186 -123q-153 -171 -230 -377.5t-77 -431.5t77 -431.5t230 -377.5l-186 -123q-177 190 -270 429.5t-93 502.5z" />
    <glyph glyph-name="parenright" unicode=")" horiz-adv-x="718" 
d="M584 590q0 -262 -92.5 -501.5t-270.5 -430.5l-186 123q154 170 230.5 376.5t76.5 432.5t-76.5 432.5t-230.5 376.5l186 123q178 -190 270.5 -429t92.5 -503z" />
    <glyph glyph-name="asterisk" unicode="*" horiz-adv-x="1024" 
d="M602 1376v-311l295 96l57 -170l-299 -98l185 -252l-144 -106l-184 260l-184 -260l-144 106l185 252l-297 98l55 170l297 -96v311h178z" />
    <glyph glyph-name="plus" unicode="+" horiz-adv-x="1179" 
d="M90 479v221h389v390h221v-390h390v-221h-390v-389h-221v389h-389z" />
    <glyph glyph-name="comma" unicode="," horiz-adv-x="542" 
d="M106 141q0 71 46 117.5t118 46.5q75 0 122.5 -56t47.5 -145q0 -128 -69 -242t-193 -190l-80 103q124 102 150 215q-62 6 -102 48t-40 103z" />
    <glyph glyph-name="hyphen" unicode="-" horiz-adv-x="655" 
d="M45 414v200h565v-200h-565z" />
    <glyph glyph-name="period" unicode="." horiz-adv-x="542" 
d="M106 141q0 72 46.5 118t117.5 46q72 0 118 -46t46 -118q0 -71 -46 -117.5t-118 -46.5q-70 0 -117 46.5t-47 117.5z" />
    <glyph glyph-name="slash" unicode="/" horiz-adv-x="786" 
d="M-18 -240l614 1725l209 -66l-615 -1724z" />
    <glyph glyph-name="zero" unicode="0" horiz-adv-x="1179" 
d="M63 688q0 333 139 523t388 190t387.5 -190t138.5 -523t-138.5 -523t-387.5 -190t-388 190t-139 523zM309 688q0 -232 75 -365t206 -133q130 0 205 133t75 365t-75 365t-205 133q-131 0 -206 -133t-75 -365z" />
    <glyph glyph-name="one" unicode="1" horiz-adv-x="1179" 
d="M563 0v1122l-315 -180l-90 176l448 258h219v-1376h-262z" />
    <glyph glyph-name="two" unicode="2" horiz-adv-x="1179" 
d="M100 0v166l490 489q155 155 155 293q0 103 -66.5 167.5t-172.5 64.5q-77 0 -148.5 -28t-167.5 -85l-100 193q242 141 467 141q196 0 320 -116.5t124 -299.5q0 -222 -198 -420l-354 -356h569v-209h-918z" />
    <glyph glyph-name="three" unicode="3" horiz-adv-x="1179" 
d="M375 610v189h96q117 0 190.5 56.5t73.5 145.5q0 85 -57.5 138t-151.5 53q-150 0 -336 -86l-84 194q224 101 461 101q189 0 309.5 -104.5t120.5 -268.5q0 -113 -59.5 -196.5t-163.5 -120.5q115 -37 185.5 -130.5t70.5 -215.5q0 -171 -130 -280.5t-333 -109.5
q-255 0 -493 109l84 195q201 -95 362 -95q106 0 174 58t68 149q0 97 -81 158t-210 61h-96z" />
    <glyph glyph-name="four" unicode="4" horiz-adv-x="1179" 
d="M692 0v297h-641v178l633 901h250v-878h182v-201h-182v-297h-242zM295 498h397v565z" />
    <glyph glyph-name="five" unicode="5" horiz-adv-x="1179" 
d="M991 1376v-209h-567v-331q61 10 143 10q217 0 345 -116.5t128 -313.5q0 -193 -140.5 -317t-362.5 -124q-229 0 -437 125l101 193q170 -103 315 -103q123 0 195.5 63t72.5 169q0 113 -79.5 177.5t-221.5 64.5q-127 0 -288 -37v749h796z" />
    <glyph glyph-name="six" unicode="6" horiz-adv-x="1179" 
d="M90 621q0 370 158 575t440 205q199 0 369 -90l-90 -189q-145 74 -269 74q-165 0 -260.5 -117t-99.5 -334q52 71 138 112.5t188 41.5q198 0 323 -124t125 -320q0 -209 -138.5 -344.5t-350.5 -135.5q-249 0 -391 170t-142 476zM354 465q0 -126 72 -205.5t186 -79.5
q111 0 184.5 75t73.5 189t-70 184t-184 70q-113 0 -187.5 -66t-74.5 -167z" />
    <glyph glyph-name="seven" unicode="7" horiz-adv-x="1179" 
d="M240 0l503 1167h-630v209h917v-166l-516 -1210h-274z" />
    <glyph glyph-name="eight" unicode="8" horiz-adv-x="1179" 
d="M590 799q231 50 231 211q0 83 -65.5 137.5t-165.5 54.5t-166 -54.5t-66 -137.5q0 -161 232 -211zM74 367q0 119 72 208t202 130q-110 39 -176 124t-66 197q0 166 134.5 270.5t349.5 104.5t349 -104.5t134 -270.5q0 -112 -66 -197t-176 -124q131 -43 203 -131.5t72 -206.5
q0 -175 -143 -283.5t-373 -108.5t-373 108.5t-143 283.5zM590 610q-120 -26 -187 -83t-67 -144q0 -93 70.5 -151t183.5 -58t183.5 58t70.5 151q0 87 -67 144t-187 83z" />
    <glyph glyph-name="nine" unicode="9" horiz-adv-x="1179" 
d="M1090 756q0 -370 -158 -575.5t-440 -205.5q-197 0 -369 91l90 188q145 -74 268 -74q165 0 261 117t100 334q-52 -71 -138 -112.5t-188 -41.5q-198 0 -323 124t-125 321q0 209 138 344t351 135q249 0 391 -169.5t142 -475.5zM825 911q0 126 -72 205.5t-186 79.5
q-111 0 -184.5 -75t-73.5 -189t70 -184t184 -70q113 0 187.5 66t74.5 167z" />
    <glyph glyph-name="colon" unicode=":" horiz-adv-x="575" 
d="M123 141q0 72 46.5 118t117.5 46q72 0 118 -46t46 -118q0 -71 -46 -117.5t-118 -46.5q-71 0 -117.5 46.5t-46.5 117.5zM123 860q0 72 46.5 118t117.5 46q72 0 118 -46t46 -118q0 -71 -46 -117.5t-118 -46.5q-71 0 -117.5 47t-46.5 117z" />
    <glyph glyph-name="semicolon" unicode=";" horiz-adv-x="575" 
d="M123 141q0 71 46 117.5t118 46.5q75 0 122.5 -56t47.5 -145q0 -128 -69 -242t-193 -190l-80 103q123 101 149 215q-62 6 -101.5 48t-39.5 103zM123 860q0 72 46.5 118t117.5 46q72 0 118 -46t46 -118q0 -71 -46 -117.5t-118 -46.5q-71 0 -117.5 47t-46.5 117z" />
    <glyph glyph-name="less" unicode="&#x3c;" horiz-adv-x="1179" 
d="M90 479v221l934 426l88 -208l-725 -328l725 -328l-88 -209z" />
    <glyph glyph-name="equal" unicode="=" horiz-adv-x="1179" 
d="M90 719v219h1000v-219h-1000zM90 242v219h1000v-219h-1000z" />
    <glyph glyph-name="greater" unicode="&#x3e;" horiz-adv-x="1179" 
d="M1090 700v-221l-934 -426l-88 209l725 328l-725 328l88 208z" />
    <glyph glyph-name="question" unicode="?" horiz-adv-x="958" 
d="M557 457h-219v37q0 67 28.5 126t69 102t81 83t69 88t28.5 98q0 84 -57 136.5t-145 52.5q-107 0 -260 -95l-101 187q192 129 402 129q186 0 305 -105t119 -268q0 -60 -16.5 -114t-43 -95t-59 -78.5t-66 -70t-61.5 -63t-48 -65.5t-24 -69zM289 141q0 67 44 109.5t113 42.5
t113.5 -42.5t44.5 -109.5q0 -70 -45 -117t-113 -47t-112.5 47t-44.5 117z" />
    <glyph glyph-name="at" unicode="@" horiz-adv-x="2007" 
d="M80 502q0 199 70.5 370.5t195 292t301 188.5t381.5 68q195 0 363 -60.5t286 -166.5t185 -257t67 -327q0 -246 -122 -400.5t-316 -154.5q-88 0 -155.5 38.5t-98.5 105.5q-122 -144 -309 -144q-173 0 -285.5 126.5t-112.5 320.5t112.5 320t285.5 126q165 0 258 -117l26 97
h213v-572q0 -51 26.5 -81.5t70.5 -30.5q83 0 134.5 95.5t51.5 250.5q0 186 -86.5 331.5t-241.5 225.5t-352 80q-211 0 -377 -92t-259 -257.5t-93 -375.5t93 -375.5t259 -257.5t377 -92q228 0 496 149l100 -172q-319 -172 -596 -172q-206 0 -382.5 68t-301 188.5t-194.5 292
t-70 371.5zM793 502q0 -107 56 -175.5t142 -68.5q80 0 129 55t49 138v102q0 84 -48.5 138t-129.5 54q-87 0 -142.5 -68t-55.5 -175z" />
    <glyph glyph-name="A" unicode="A" horiz-adv-x="1394" 
d="M8 0l563 1376h252l563 -1376h-274l-127 328h-575l-127 -328h-275zM698 1077l-215 -551h430z" />
    <glyph glyph-name="B" unicode="B" horiz-adv-x="1351" 
d="M172 0v1376h600q192 0 314 -101.5t122 -262.5q0 -101 -51.5 -178.5t-138.5 -116.5q111 -38 175 -128t64 -208q0 -168 -127.5 -274.5t-324.5 -106.5h-633zM434 614v-415h328q101 0 164 58.5t63 150.5t-63 149t-164 57h-328zM434 1178v-383h301q93 0 152 53t59 137
q0 85 -59.5 139t-151.5 54h-301z" />
    <glyph glyph-name="C" unicode="C" horiz-adv-x="1331" 
d="M80 688q0 208 89 370.5t250 252.5t367 90q255 0 494 -156l-111 -182q-175 121 -348 121q-206 0 -335.5 -138t-129.5 -358t129.5 -357.5t335.5 -137.5q174 0 348 120l111 -182q-239 -156 -494 -156q-155 0 -286.5 53t-223.5 146.5t-144 226t-52 287.5z" />
    <glyph glyph-name="D" unicode="D" horiz-adv-x="1492" 
d="M172 0v1376h535q209 0 370 -86t249.5 -242.5t88.5 -359.5q0 -201 -88.5 -357.5t-250 -243.5t-369.5 -87h-535zM1137 688q0 211 -129.5 345t-333.5 134h-230v-958h230q204 0 333.5 134t129.5 345z" />
    <glyph glyph-name="E" unicode="E" horiz-adv-x="1232" 
d="M172 0v1376h940v-205h-668v-366h603v-201h-603v-399h701v-205h-973z" />
    <glyph glyph-name="F" unicode="F" horiz-adv-x="1200" 
d="M172 0v1376h940v-209h-668v-411h603v-211h-603v-545h-272z" />
    <glyph glyph-name="G" unicode="G" horiz-adv-x="1460" 
d="M1339 760v-668q-272 -117 -520 -117q-161 0 -299 53t-234.5 146.5t-151 226t-54.5 287.5q0 207 91.5 369.5t256.5 253t375 90.5q249 0 510 -141l-101 -183q-216 115 -378 115q-216 0 -352 -141t-136 -363q0 -224 137.5 -364t356.5 -140q127 0 247 52v323h-309v201h561z
" />
    <glyph glyph-name="H" unicode="H" horiz-adv-x="1591" 
d="M172 0v1376h272v-567h703v567h272v-1376h-272v600h-703v-600h-272z" />
    <glyph glyph-name="I" unicode="I" horiz-adv-x="618" 
d="M172 0v1376h272v-1376h-272z" />
    <glyph glyph-name="J" unicode="J" horiz-adv-x="925" 
d="M754 1376v-987q0 -184 -119.5 -299t-310.5 -115q-142 0 -289 39l35 209q110 -26 192 -26q96 0 157.5 60.5t61.5 158.5v960h273z" />
    <glyph glyph-name="K" unicode="K" horiz-adv-x="1394" 
d="M172 0v1376h262v-653l608 653h314l-606 -643l634 -733h-319l-498 573l-133 -139v-434h-262z" />
    <glyph glyph-name="L" unicode="L" horiz-adv-x="1101" 
d="M172 0v1376h272v-1167h613v-209h-885z" />
    <glyph glyph-name="M" unicode="M" horiz-adv-x="1771" 
d="M172 0v1376h264l451 -618l448 618h264v-1376h-251v1004l-385 -531h-152l-387 531v-1004h-252z" />
    <glyph glyph-name="N" unicode="N" horiz-adv-x="1591" 
d="M172 0v1376h264l731 -1003v1003h252v-1376h-264l-731 1004v-1004h-252z" />
    <glyph glyph-name="O" unicode="O" horiz-adv-x="1591" 
d="M80 688q0 155 53 287.5t147 226t227.5 146.5t289.5 53q207 0 370.5 -90.5t254.5 -253t91 -369.5t-91 -369.5t-254.5 -253t-370.5 -90.5q-156 0 -289.5 53t-227.5 146.5t-147 226t-53 287.5zM356 688q0 -218 124 -358t317 -140t315.5 139.5t122.5 358.5t-122.5 358.5
t-315.5 139.5t-317 -140t-124 -358z" />
    <glyph glyph-name="P" unicode="P" horiz-adv-x="1286" 
d="M172 0v1376h563q215 0 352.5 -127t137.5 -325q0 -200 -137.5 -327.5t-352.5 -127.5h-301v-469h-262zM434 1167v-487h260q117 0 189.5 68t72.5 176q0 106 -73 174.5t-189 68.5h-260z" />
    <glyph glyph-name="Q" unicode="Q" horiz-adv-x="1591" 
d="M80 688q0 155 53 287.5t147 226t227.5 146.5t289.5 53q207 0 370.5 -90.5t254.5 -253t91 -369.5q0 -190 -77.5 -342t-214.5 -244l305 -219l-133 -166l-392 287q-101 -29 -204 -29q-156 0 -289.5 53t-227.5 146.5t-147 226t-53 287.5zM356 688q0 -218 124 -358t317 -140
t315.5 139.5t122.5 358.5t-122.5 358.5t-315.5 139.5t-317 -140t-124 -358z" />
    <glyph glyph-name="R" unicode="R" horiz-adv-x="1351" 
d="M172 0v1376h573q207 0 340.5 -121t133.5 -311q0 -153 -86.5 -261.5t-231.5 -139.5l377 -543h-297l-334 502h-213v-502h-262zM434 1167v-454h271q108 0 176.5 62.5t68.5 164.5q0 100 -69 163.5t-176 63.5h-271z" />
    <glyph glyph-name="S" unicode="S" horiz-adv-x="1204" 
d="M92 1008q0 175 142 284t368 109q216 0 469 -96l-61 -203q-212 84 -387 84q-120 0 -191.5 -48t-71.5 -130q0 -47 26 -81.5t70 -56.5t101 -39t120 -34t126 -36.5t120 -51t101 -73.5t70 -108t26 -151q0 -180 -143.5 -291t-374.5 -111q-249 0 -518 113l61 203
q265 -101 437 -101q126 0 199 50.5t73 136.5q0 48 -26 84t-70 58.5t-101.5 40.5t-120.5 35t-126 37t-120.5 51t-101.5 72t-70 105.5t-26 147.5z" />
    <glyph glyph-name="T" unicode="T" horiz-adv-x="1232" 
d="M481 0v1167h-436v209h1143v-209h-434v-1167h-273z" />
    <glyph glyph-name="U" unicode="U" horiz-adv-x="1591" 
d="M1436 1376v-837q0 -165 -82 -293.5t-227.5 -199.5t-329.5 -71t-330 71t-228.5 200t-82.5 293v837h272v-827q0 -158 103.5 -258.5t265.5 -100.5q160 0 263 100.5t103 258.5v827h273z" />
    <glyph glyph-name="V" unicode="V" horiz-adv-x="1394" 
d="M1386 1376l-563 -1376h-252l-563 1376h285l405 -1046l404 1046h284z" />
    <glyph glyph-name="W" unicode="W" horiz-adv-x="2082" 
d="M2050 1376l-438 -1376h-266l-304 1047l-305 -1047h-266l-438 1376h274l303 -1046l305 1046h254l304 -1046l305 1046h272z" />
    <glyph glyph-name="X" unicode="X" horiz-adv-x="1411" 
d="M20 0l512 705l-487 671h301l361 -499l358 499h301l-485 -671l510 -705h-308l-376 532l-379 -532h-308z" />
    <glyph glyph-name="Y" unicode="Y" horiz-adv-x="1263" 
d="M496 0v559l-504 817h297l342 -575l344 575h295l-502 -817v-559h-272z" />
    <glyph glyph-name="Z" unicode="Z" horiz-adv-x="1302" 
d="M84 0v156l760 1011h-735v209h1085v-155l-760 -1012h785v-209h-1135z" />
    <glyph glyph-name="bracketleft" unicode="[" horiz-adv-x="718" 
d="M178 -283v1745h484v-209h-242v-1327h242v-209h-484z" />
    <glyph glyph-name="backslash" unicode="\" horiz-adv-x="786" 
d="M596 -305l-614 1724l208 66l615 -1725z" />
    <glyph glyph-name="bracketright" unicode="]" horiz-adv-x="718" 
d="M539 1462v-1745h-482v209h240v1327h-240v209h482z" />
    <glyph glyph-name="asciicircum" unicode="^" horiz-adv-x="1179" 
d="M479 1376h221l426 -956l-208 -78l-328 737l-328 -737l-209 78z" />
    <glyph glyph-name="underscore" unicode="_" horiz-adv-x="983" 
d="M0 -362v200h983v-200h-983z" />
    <glyph glyph-name="grave" unicode="`" horiz-adv-x="491" 
d="M53 1503l379 -264l-100 -143l-395 239z" />
    <glyph glyph-name="a" unicode="a" horiz-adv-x="1128" 
d="M74 291q0 158 122 246t341 88q95 0 194 -21v53q0 77 -57 127t-150 50q-150 0 -329 -72l-66 182q221 84 426 84q190 0 306 -103.5t116 -271.5v-407q0 -32 19 -52t51 -20q27 0 51 6l18 -190q-81 -15 -139 -15q-76 0 -132 36t-83 100q-65 -65 -151.5 -100.5t-178.5 -35.5
q-157 0 -257.5 89t-100.5 227zM326 305q0 -61 50 -103t124 -42q104 0 167.5 65t63.5 168v60q-76 20 -164 20q-112 0 -176.5 -45t-64.5 -123z" />
    <glyph glyph-name="b" unicode="b" 
d="M133 0v1442h262v-551q112 137 301 137q203 0 332 -147t129 -379t-129 -379.5t-332 -147.5q-99 0 -182 40t-139 114l-33 -129h-209zM891 502q0 141 -73 230t-189 89q-104 0 -171 -71t-67 -181v-135q0 -109 67 -180.5t171 -71.5q115 0 188.5 90t73.5 230z" />
    <glyph glyph-name="c" unicode="c" horiz-adv-x="1024" 
d="M74 502q0 232 148.5 379t381.5 147q203 0 385 -117l-106 -176q-124 84 -242 84q-132 0 -216.5 -89t-84.5 -228t84.5 -228.5t216.5 -89.5q115 0 242 86l106 -178q-182 -117 -385 -117q-233 0 -381.5 148t-148.5 379z" />
    <glyph glyph-name="d" unicode="d" 
d="M1096 1442v-1442h-209l-33 129q-56 -74 -139 -114t-183 -40q-201 0 -329.5 147.5t-128.5 379.5t128.5 379t329.5 147q190 0 302 -137v551h262zM340 502q0 -140 73 -230t187 -90q105 0 172.5 71.5t67.5 180.5v135q0 110 -67 181t-173 71q-114 0 -187 -89t-73 -230z" />
    <glyph glyph-name="e" unicode="e" horiz-adv-x="1128" 
d="M74 502q0 232 143.5 379t370.5 147q214 0 348.5 -141t134.5 -367q0 -30 -4 -84h-731q13 -120 100.5 -193t216.5 -73q136 0 289 84l80 -178q-203 -101 -401 -101q-242 0 -394.5 147.5t-152.5 379.5zM588 834q-101 0 -170.5 -66.5t-81.5 -173.5h483q-6 108 -69.5 174
t-161.5 66z" />
    <glyph glyph-name="f" unicode="f" horiz-adv-x="784" 
d="M231 0v805h-186v199h186v139q0 144 94.5 233.5t245.5 89.5q108 0 228 -30l-35 -197q-70 18 -129 18q-63 0 -102 -39t-39 -102v-112h245v-199h-245v-805h-263z" />
    <glyph glyph-name="g" unicode="g" 
d="M1096 1004v-986q0 -204 -153 -336.5t-388 -132.5q-202 0 -426 93l72 194q183 -82 334 -82q132 0 215.5 71t83.5 183v107q-112 -140 -302 -140q-201 0 -329.5 147.5t-128.5 379.5t128.5 379t329.5 147q100 0 183 -40t139 -114l33 130h209zM340 502q0 -140 73 -230t187 -90
q105 0 172.5 71.5t67.5 180.5v135q0 110 -67 181t-173 71q-114 0 -187 -89t-73 -230z" />
    <glyph glyph-name="h" unicode="h" 
d="M133 0v1442h262v-568q54 73 139.5 113.5t186.5 40.5q172 0 281.5 -107t109.5 -276v-645h-262v604q0 92 -59 150.5t-150 58.5q-107 0 -176.5 -72.5t-69.5 -187.5v-553h-262z" />
    <glyph glyph-name="i" unicode="i" horiz-adv-x="530" 
d="M133 0v1004h262v-1004h-262zM109 1290q0 69 43.5 113.5t111.5 44.5q69 0 113.5 -44.5t44.5 -113.5t-44.5 -113t-113.5 -44q-68 0 -111.5 44t-43.5 113z" />
    <glyph glyph-name="j" unicode="j" horiz-adv-x="546" 
d="M412 1004v-1131q0 -145 -93.5 -234.5t-244.5 -89.5q-104 0 -228 31l35 197q74 -19 129 -19q63 0 101.5 39.5t38.5 102.5v1104h262zM125 1290q0 69 44 113.5t112 44.5q69 0 113 -44.5t44 -113.5t-44 -113t-113 -44q-68 0 -112 44t-44 113z" />
    <glyph glyph-name="k" unicode="k" horiz-adv-x="1087" 
d="M133 0v1442h252v-867l383 429h299l-432 -469l448 -535h-303l-315 381l-80 -82v-299h-252z" />
    <glyph glyph-name="l" unicode="l" horiz-adv-x="628" 
d="M395 1442v-1155q0 -47 28.5 -75t74.5 -28q18 0 90 13l28 -199q-108 -23 -182 -23q-138 0 -219.5 77t-81.5 208v1182h262z" />
    <glyph glyph-name="m" unicode="m" horiz-adv-x="1882" 
d="M133 0v1004h209l33 -138q60 78 145 120t185 42q109 0 193.5 -49t127.5 -135q142 184 363 184q164 0 269 -102.5t105 -263.5v-662h-262v621q0 85 -54 138.5t-140 53.5q-100 0 -164 -68.5t-64 -175.5v-569h-262v621q0 85 -53.5 138.5t-138.5 53.5q-101 0 -165.5 -68.5
t-64.5 -175.5v-569h-262z" />
    <glyph glyph-name="n" unicode="n" 
d="M133 0v1004h209l33 -146q57 82 147 126t199 44q172 0 281.5 -107t109.5 -276v-645h-262v604q0 92 -59 150.5t-150 58.5q-107 0 -176.5 -72.5t-69.5 -187.5v-553h-262z" />
    <glyph glyph-name="o" unicode="o" 
d="M74 502q0 232 151 379t389 147q239 0 391 -147t152 -379t-152 -379.5t-391 -147.5q-238 0 -389 147.5t-151 379.5zM340 502q0 -141 77 -231.5t197 -90.5q121 0 199 90.5t78 231.5q0 142 -77.5 231.5t-199.5 89.5q-120 0 -197 -89.5t-77 -231.5z" />
    <glyph glyph-name="p" unicode="p" 
d="M133 -426v1430h209l33 -130q56 74 139 114t182 40q203 0 332 -147t129 -379t-129 -379.5t-332 -147.5q-189 0 -301 140v-541h-262zM891 502q0 141 -73 230t-189 89q-104 0 -171 -71t-67 -181v-135q0 -109 67 -180.5t171 -71.5q115 0 188.5 90t73.5 230z" />
    <glyph glyph-name="q" unicode="q" 
d="M1096 1004v-1430h-262v541q-112 -140 -302 -140q-201 0 -329.5 147.5t-128.5 379.5t128.5 379t329.5 147q100 0 183 -40t139 -114l33 130h209zM340 502q0 -140 73 -230t187 -90q105 0 172.5 71.5t67.5 180.5v135q0 110 -67 181t-173 71q-114 0 -187 -89t-73 -230z" />
    <glyph glyph-name="r" unicode="r" horiz-adv-x="821" 
d="M133 0v1004h209l33 -156q43 82 121 127t176 45q64 0 121 -14l-25 -209q-61 14 -117 14q-116 0 -186 -81.5t-70 -211.5v-518h-262z" />
    <glyph glyph-name="s" unicode="s" horiz-adv-x="948" 
d="M82 725q0 133 109 218t282 85q171 0 369 -70l-58 -188q-164 64 -290 64q-71 0 -113.5 -30t-42.5 -79q0 -36 29.5 -60.5t77 -38.5t104.5 -27t114 -34t104.5 -52.5t77 -89t29.5 -136.5q0 -137 -111.5 -224.5t-289.5 -87.5q-186 0 -399 80l55 187q179 -72 324 -72
q75 0 119 32t44 85q0 38 -29.5 63.5t-76.5 40t-104 28t-114 34.5t-104 51.5t-76.5 87t-29.5 133.5z" />
    <glyph glyph-name="t" unicode="t" horiz-adv-x="849" 
d="M494 1298v-294h278v-199h-278v-479q0 -63 39 -102.5t102 -39.5q55 0 129 19l35 -197q-124 -31 -228 -31q-151 0 -245.5 90t-94.5 234v506h-186v199h186v294h263z" />
    <glyph glyph-name="u" unicode="u" 
d="M1096 1004v-1004h-209l-33 145q-55 -82 -145 -126t-199 -44q-172 0 -282.5 107.5t-110.5 275.5v646h262v-603q0 -93 59 -152t152 -59q106 0 175 73t69 188v553h262z" />
    <glyph glyph-name="v" unicode="v" horiz-adv-x="1099" 
d="M1079 1004l-409 -1004h-242l-410 1004h275l256 -707l258 707h272z" />
    <glyph glyph-name="w" unicode="w" horiz-adv-x="1624" 
d="M1587 1004l-325 -1004h-254l-197 705l-195 -705h-254l-327 1004h264l195 -705l196 705h244l194 -705l197 705h262z" />
    <glyph glyph-name="x" unicode="x" horiz-adv-x="1099" 
d="M14 0l367 514l-350 490h291l227 -326l227 326h291l-348 -490l364 -514h-295l-239 350l-238 -350h-297z" />
    <glyph glyph-name="y" unicode="y" horiz-adv-x="1099" 
d="M1079 1004l-446 -1117q-68 -171 -166.5 -254.5t-235.5 -83.5q-65 0 -155 19l35 205q66 -15 96 -15q67 0 110.5 38.5t79.5 127.5l35 88l-414 992h275l260 -707l254 707h272z" />
    <glyph glyph-name="z" unicode="z" horiz-adv-x="1013" 
d="M74 0v145l510 660h-494v199h834v-144l-510 -661h526v-199h-866z" />
    <glyph glyph-name="braceleft" unicode="{" horiz-adv-x="718" 
d="M35 485v209h33q67 0 111 42t44 104q0 47 -11 140.5t-11 141.5q0 149 102.5 244.5t261.5 95.5h97v-209h-33q-78 0 -129 -51.5t-51 -130.5q0 -41 8 -125.5t8 -126.5q0 -83 -41 -144t-117 -85q75 -24 116.5 -85.5t41.5 -144.5q0 -42 -8 -126t-8 -125q0 -79 51 -131t129 -52
h33v-209h-97q-159 0 -261.5 95.5t-102.5 244.5q0 48 11 141.5t11 141.5q0 62 -44 103.5t-111 41.5h-33z" />
    <glyph glyph-name="bar" unicode="|" horiz-adv-x="491" 
d="M135 -459v1966h221v-1966h-221z" />
    <glyph glyph-name="braceright" unicode="}" horiz-adv-x="718" 
d="M682 694v-209h-33q-66 0 -110.5 -41.5t-44.5 -103.5q0 -47 11 -141t11 -142q0 -149 -102.5 -244.5t-261.5 -95.5h-95v209h33q78 0 129 52t51 131q0 41 -8 125t-8 126q0 83 41.5 144.5t116.5 85.5q-76 24 -117 85t-41 144q0 42 8 126.5t8 125.5q0 79 -51 130.5t-129 51.5
h-33v209h95q159 0 261.5 -95.5t102.5 -244.5q0 -48 -11 -141t-11 -141q0 -62 44 -104t111 -42h33z" />
    <glyph glyph-name="asciitilde" unicode="~" horiz-adv-x="1179" 
d="M166 442l-119 187q154 121 326 121q62 0 123 -15.5t103 -34t98.5 -34t109.5 -15.5q108 0 207 86l119 -186q-154 -121 -326 -121q-78 0 -153 24.5t-145 49t-136 24.5q-108 0 -207 -86z" />
    <glyph glyph-name="nbspace" unicode="&#xa0;" horiz-adv-x="491" 
 />
    <glyph glyph-name="exclamdown" unicode="&#xa1;" horiz-adv-x="575" 
d="M397 549l23 -922h-264l22 922h219zM444 868q0 -69 -44 -113t-113 -44q-68 0 -112 44t-44 113t44 113.5t112 44.5q72 0 114.5 -44t42.5 -114z" />
    <glyph glyph-name="cent" unicode="&#xa2;" horiz-adv-x="1179" 
d="M150 688q0 196 108 333.5t287 174.5v311h221v-301q160 -15 301 -108l-106 -178q-133 86 -242 86q-133 0 -217 -89t-84 -229t84 -228.5t217 -88.5q114 0 242 86l106 -178q-141 -93 -301 -111v-299h-221v309q-179 38 -287 176.5t-108 333.5z" />
    <glyph glyph-name="sterling" unicode="&#xa3;" horiz-adv-x="1179" 
d="M123 0v205h186v399h-153v201h153v186q0 181 125.5 295.5t319.5 114.5q145 0 336 -68l-68 -194q-112 47 -217 47q-98 0 -160.5 -60t-62.5 -155v-166h354v-201h-354v-399h508v-205h-967z" />
    <glyph glyph-name="currency" unicode="&#xa4;" horiz-adv-x="1179" 
d="M221 164l-155 155l159 160q-53 95 -53 209q0 115 53 207l-159 162l155 155l160 -161q90 55 209 55q117 0 207 -55l161 161l156 -155l-162 -162q56 -91 56 -207q0 -115 -56 -209l162 -160l-156 -155l-161 160q-90 -52 -207 -52q-116 0 -209 52zM373 688q0 -95 61 -156
t156 -61t156 61t61 156t-61 156t-156 61t-156 -61t-61 -156z" />
    <glyph glyph-name="yen" unicode="&#xa5;" horiz-adv-x="1179" 
d="M453 0v262h-297v178h297v138h-297v178h231l-387 620h287l303 -530l303 530h287l-387 -620h231v-178h-297v-138h297v-178h-297v-262h-274z" />
    <glyph glyph-name="brokenbar" unicode="&#xa6;" horiz-adv-x="491" 
d="M135 1409h221v-786h-221v786zM356 -360h-221v786h221v-786z" />
    <glyph glyph-name="section" unicode="&#xa7;" horiz-adv-x="1112" 
d="M121 1047q0 157 125.5 255.5t324.5 98.5q193 0 420 -88l-61 -203q-188 76 -338 76q-96 0 -150.5 -37.5t-54.5 -101.5q0 -44 35.5 -74.5t92.5 -49t126 -36t137.5 -44.5t125.5 -65t92.5 -106t35.5 -160q0 -79 -37.5 -145.5t-105.5 -112.5q110 -88 110 -244
q0 -165 -127 -263.5t-333 -98.5q-218 0 -459 92l61 205q220 -82 377 -82q101 0 157 38.5t56 108.5q0 36 -22 63.5t-59 45.5t-85.5 33t-101.5 30.5t-106.5 33.5t-102 46t-85.5 64.5t-59 92.5t-22 126q0 80 39 146.5t111 109.5q-117 89 -117 246zM354 557q0 -32 14 -57.5
t32.5 -41.5t54 -32t61.5 -24.5t72.5 -22t70.5 -21.5q48 20 76.5 58.5t28.5 83.5q0 27 -8 49.5t-26.5 39.5t-36 29.5t-49.5 24t-53 18.5t-60.5 18t-59.5 17q-54 -17 -85.5 -54.5t-31.5 -84.5z" />
    <glyph glyph-name="dieresis" unicode="&#xa8;" horiz-adv-x="491" 
d="M-123 1290q0 63 39 102.5t102 39.5t102.5 -39.5t39.5 -102.5t-39.5 -102t-102.5 -39t-102 39t-39 102zM332 1290q0 63 39 102.5t102 39.5t102 -39.5t39 -102.5t-39 -102t-102 -39t-102 39t-39 102z" />
    <glyph glyph-name="copyright" unicode="&#xa9;" horiz-adv-x="1703" 
d="M98 688q0 218 96 390t268 268t390 96t390 -96t268 -268t96 -390t-96 -390t-268 -268t-390 -96t-390 96t-268 268t-96 390zM236 688q0 -179 78 -319.5t218.5 -218.5t319.5 -78t319.5 78t218.5 218.5t78 319.5q0 272 -172.5 444.5t-443.5 172.5t-443.5 -172.5
t-172.5 -444.5zM434 688q0 194 123 318t320 124q169 0 315 -98l-82 -135q-101 70 -207 70q-119 0 -193.5 -77.5t-74.5 -201.5t74.5 -201t193.5 -77q107 0 207 69l82 -135q-146 -98 -315 -98q-197 0 -320 124t-123 318z" />
    <glyph glyph-name="ordfeminine" unicode="&#xaa;" horiz-adv-x="802" 
d="M45 444v138h715v-138h-715zM63 913q0 102 84 161t230 59q46 0 123 -15v25q0 56 -36 88.5t-97 32.5q-101 0 -222 -50l-45 132q149 57 285 57q133 0 213 -71.5t80 -192.5v-246q0 -20 11 -31.5t30 -11.5q15 0 31 4l14 -139q-48 -10 -98 -10t-88.5 23t-57.5 63
q-83 -86 -215 -86q-105 0 -173.5 59t-68.5 149zM246 924q0 -38 31 -63t77 -25q63 0 104.5 38.5t41.5 98.5v41q-58 10 -105 10q-70 0 -109.5 -26.5t-39.5 -73.5z" />
    <glyph glyph-name="guillemotleft" unicode="&#xab;" horiz-adv-x="1191" 
d="M55 457v114l408 455l153 -123l-309 -389l309 -389l-153 -121zM573 457v114l408 455l154 -123l-310 -389l310 -389l-154 -121z" />
    <glyph glyph-name="logicalnot" unicode="&#xac;" horiz-adv-x="1179" 
d="M90 479v221h1000v-610h-220v389h-780z" />
    <glyph glyph-name="uni00AD" unicode="&#xad;" horiz-adv-x="655" 
d="M70 414v200h565v-200h-565z" />
    <glyph glyph-name="registered" unicode="&#xae;" horiz-adv-x="1703" 
d="M98 688q0 218 96 390t268 268t390 96t390 -96t268 -268t96 -390t-96 -390t-268 -268t-390 -96t-390 96t-268 268t-96 390zM236 688q0 -179 78 -319.5t218.5 -218.5t319.5 -78t319.5 78t218.5 218.5t78 319.5q0 272 -172.5 444.5t-443.5 172.5t-443.5 -172.5
t-172.5 -444.5zM532 262v852h371q131 0 215 -75.5t84 -196.5q0 -95 -50 -162.5t-134 -87.5l213 -330h-209l-182 301h-123v-301h-185zM717 965v-256h162q62 0 99.5 34.5t37.5 92.5t-37.5 93.5t-99.5 35.5h-162z" />
    <glyph glyph-name="macron" unicode="&#xaf;" horiz-adv-x="491" 
d="M-74 1200v178h639v-178h-639z" />
    <glyph glyph-name="degree" unicode="&#xb0;" horiz-adv-x="696" 
d="M78 1128q0 117 76 194t194 77t194 -77t76 -194q0 -118 -76 -194t-194 -76t-194 76t-76 194zM221 1128q0 -57 35.5 -93t91.5 -36q57 0 93 36t36 93q0 56 -36 91.5t-93 35.5t-92 -35.5t-35 -91.5z" />
    <glyph glyph-name="plusminus" unicode="&#xb1;" horiz-adv-x="1179" 
d="M90 0v221h1000v-221h-1000zM90 723v221h389v391h221v-391h390v-221h-390v-389h-221v389h-389z" />
    <glyph glyph-name="twosuperior" unicode="&#xb2;" horiz-adv-x="704" 
d="M45 786v121l289 291q90 87 90 164q0 59 -35.5 94t-95.5 35q-75 0 -187 -66l-73 142q157 88 299 88q125 0 203.5 -73.5t78.5 -188.5q0 -139 -120 -256l-197 -197h328v-154h-580z" />
    <glyph glyph-name="threesuperior" unicode="&#xb3;" horiz-adv-x="704" 
d="M207 1157v131h72q63 0 103 31.5t40 79.5t-31.5 77t-85.5 29q-90 0 -201 -51l-59 135q147 66 295 66q121 0 196.5 -66.5t75.5 -169.5q0 -68 -32.5 -118.5t-92.5 -73.5q65 -24 105.5 -81t40.5 -130q0 -109 -82 -177.5t-211 -68.5q-162 0 -313 70l61 137q117 -57 213 -57
q60 0 97.5 31.5t37.5 82.5q0 54 -43.5 88.5t-113.5 34.5h-72z" />
    <glyph glyph-name="acute" unicode="&#xb4;" horiz-adv-x="491" 
d="M575 1335l-395 -239l-100 143l379 264z" />
    <glyph glyph-name="uni00B5" unicode="&#xb5;" horiz-adv-x="1280" 
d="M133 -426v1430h262v-603q0 -93 59 -152t152 -59q106 0 175 73t69 188v553h262v-748q0 -32 20 -52t52 -20q19 0 47 4l20 -198q-81 -15 -139 -15q-84 0 -145 40.5t-84 111.5q-54 -71 -129 -108t-156 -37q-136 0 -203 67v-475h-262z" />
    <glyph glyph-name="paragraph" unicode="&#xb6;" 
d="M629 485h-78q-215 0 -351.5 125t-136.5 322q0 195 136.5 319.5t351.5 124.5h506v-1704h-219v1483h-209v-670z" />
    <glyph glyph-name="periodcentered" unicode="&#xb7;" horiz-adv-x="542" 
d="M106 514q0 72 46.5 118t117.5 46q72 0 118 -46t46 -118q0 -71 -46 -117.5t-118 -46.5q-70 0 -117 47t-47 117z" />
    <glyph glyph-name="cedilla" unicode="&#xb8;" horiz-adv-x="491" 
d="M352 0l-16 -90q66 -15 106.5 -65t40.5 -119q0 -89 -76 -144t-198 -55q-111 0 -207 37l45 147q74 -26 135 -26q40 0 65 18.5t25 48.5t-28.5 49t-77.5 19h-27l33 180h180z" />
    <glyph glyph-name="onesuperior" unicode="&#xb9;" horiz-adv-x="573" 
d="M446 1638v-852h-192v666l-180 -102l-68 127l281 161h159z" />
    <glyph glyph-name="ordmasculine" unicode="&#xba;" horiz-adv-x="862" 
d="M78 444v138h706v-138h-706zM63 1055q0 154 103 251t264 97q163 0 266 -97t103 -251q0 -155 -103 -252.5t-266 -97.5q-162 0 -264.5 97.5t-102.5 252.5zM262 1055q0 -87 47 -142t121 -55q75 0 122.5 54.5t47.5 142.5q0 86 -47.5 141t-122.5 55q-74 0 -121 -55t-47 -141z
" />
    <glyph glyph-name="guillemotright" unicode="&#xbb;" horiz-adv-x="1191" 
d="M618 571v-114l-407 -453l-154 121l308 389l-308 389l154 123zM1137 571v-114l-408 -453l-154 121l308 389l-308 389l154 123z" />
    <glyph glyph-name="onequarter" unicode="&#xbc;" horiz-adv-x="1966" 
d="M553 1376v-852h-193v666l-180 -103l-67 127l280 162h160zM399 51l1033 1376l135 -102l-1032 -1376zM1632 0v176h-399v133l387 543h182v-537h105v-139h-105v-176h-170zM1401 315h231v326z" />
    <glyph glyph-name="onehalf" unicode="&#xbd;" horiz-adv-x="1966" 
d="M553 1376v-852h-193v666l-180 -103l-67 127l280 162h160zM399 51l1033 1376l135 -102l-1032 -1376zM1266 0v121l288 291q91 88 91 163q0 59 -36 94.5t-96 35.5q-74 0 -186 -66l-74 141q157 88 299 88q125 0 204 -73.5t79 -188.5q0 -138 -121 -256l-196 -196h327v-154
h-579z" />
    <glyph glyph-name="threequarters" unicode="&#xbe;" horiz-adv-x="1966" 
d="M248 895v131h71q63 0 103.5 31.5t40.5 79.5t-31.5 77t-85.5 29q-90 0 -201 -51l-59 135q147 66 295 66q121 0 196.5 -66.5t75.5 -169.5q0 -68 -32.5 -118.5t-92.5 -73.5q65 -24 105.5 -81t40.5 -130q0 -109 -82 -177.5t-211 -68.5q-162 0 -313 70l61 137q119 -58 213 -58
q60 0 97.5 32t37.5 83q0 54 -44 88.5t-114 34.5h-71zM399 51l1033 1376l135 -102l-1032 -1376zM1632 0v176h-399v133l387 543h182v-537h105v-139h-105v-176h-170zM1401 315h231v326z" />
    <glyph glyph-name="questiondown" unicode="&#xbf;" horiz-adv-x="827" 
d="M387 549h219v-39q0 -66 -28.5 -125t-69 -102t-81 -84t-69 -89t-28.5 -98q0 -84 56 -136t146 -52q106 0 261 94l100 -186q-195 -129 -404 -129q-185 0 -303 105t-118 267q0 82 30.5 153t75 121.5t89.5 95t80 92.5t40 95zM653 868q0 -69 -44 -113t-113 -44t-113.5 44
t-44.5 113t44.5 113.5t113.5 44.5t113 -44.5t44 -113.5z" />
    <glyph glyph-name="Agrave" unicode="&#xc0;" horiz-adv-x="1394" 
d="M8 0l563 1376h252l563 -1376h-274l-127 328h-575l-127 -328h-275zM698 1077l-215 -551h430zM506 1876l379 -264l-101 -144l-395 240z" />
    <glyph glyph-name="Aacute" unicode="&#xc1;" horiz-adv-x="1394" 
d="M8 0l563 1376h252l563 -1376h-274l-127 328h-575l-127 -328h-275zM698 1077l-215 -551h430zM1028 1708l-395 -240l-101 144l379 264z" />
    <glyph glyph-name="Acircumflex" unicode="&#xc2;" horiz-adv-x="1394" 
d="M8 0l563 1376h252l563 -1376h-274l-127 328h-575l-127 -328h-275zM698 1077l-215 -551h430zM362 1591l256 244h160l256 -244l-112 -123l-224 189l-223 -189z" />
    <glyph glyph-name="Atilde" unicode="&#xc3;" horiz-adv-x="1394" 
d="M8 0l563 1376h252l563 -1376h-274l-127 328h-575l-127 -328h-275zM698 1077l-215 -551h430zM567 1788q56 0 137 -36t105 -36q52 0 78 72l157 -47q-15 -92 -73.5 -147.5t-141.5 -55.5q-56 0 -136.5 36t-104.5 36q-28 0 -48.5 -19t-29.5 -53l-158 45q15 93 73.5 149
t141.5 56z" />
    <glyph glyph-name="Adieresis" unicode="&#xc4;" horiz-adv-x="1394" 
d="M8 0l563 1376h252l563 -1376h-274l-127 328h-575l-127 -328h-275zM698 1077l-215 -551h430zM338 1663q0 63 39 102t102 39t102.5 -39t39.5 -102t-39.5 -102t-102.5 -39t-102 39t-39 102zM793 1663q0 63 39 102t102 39t102 -39t39 -102t-39 -102t-102 -39t-102 39t-39 102
z" />
    <glyph glyph-name="Aring" unicode="&#xc5;" horiz-adv-x="1394" 
d="M8 0l563 1376h252l563 -1376h-274l-127 328h-575l-127 -328h-275zM698 1077l-215 -551h430zM477 1663q0 94 61.5 152.5t159.5 58.5t160 -58.5t62 -152.5t-61 -152.5t-159 -58.5t-160.5 58.5t-62.5 152.5zM602 1663q0 -43 27.5 -69.5t70.5 -26.5q42 0 68.5 26.5t26.5 69.5
q0 42 -27.5 68t-69.5 26q-43 0 -69.5 -25.5t-26.5 -68.5z" />
    <glyph glyph-name="AE" unicode="&#xc6;" horiz-adv-x="2007" 
d="M958 0v328h-495l-207 -328h-307l887 1376h1050v-205h-665v-366h600v-201h-600v-399h698v-205h-961zM958 1135l-380 -609h380v609z" />
    <glyph glyph-name="Ccedilla" unicode="&#xc7;" horiz-adv-x="1331" 
d="M80 688q0 208 89 370.5t250 252.5t367 90q255 0 494 -156l-111 -182q-175 121 -348 121q-206 0 -335.5 -138t-129.5 -358t129.5 -357.5t335.5 -137.5q174 0 348 120l111 -182q-199 -130 -414 -149l-12 -72q66 -15 106.5 -65t40.5 -119q0 -89 -76 -144t-198 -55
q-109 0 -205 37l43 147q74 -26 135 -26q40 0 65.5 18.5t25.5 48.5t-29 49t-76 19h-29l31 164q-274 29 -441 221.5t-167 482.5z" />
    <glyph glyph-name="Egrave" unicode="&#xc8;" horiz-adv-x="1232" 
d="M172 0v1376h940v-205h-668v-366h603v-201h-603v-399h701v-205h-973zM440 1876l379 -264l-100 -144l-395 240z" />
    <glyph glyph-name="Eacute" unicode="&#xc9;" horiz-adv-x="1232" 
d="M172 0v1376h940v-205h-668v-366h603v-201h-603v-399h701v-205h-973zM963 1708l-396 -240l-100 144l379 264z" />
    <glyph glyph-name="Ecircumflex" unicode="&#xca;" horiz-adv-x="1232" 
d="M172 0v1376h940v-205h-668v-366h603v-201h-603v-399h701v-205h-973zM297 1591l256 244h160l256 -244l-113 -123l-223 189l-223 -189z" />
    <glyph glyph-name="Edieresis" unicode="&#xcb;" horiz-adv-x="1232" 
d="M172 0v1376h940v-205h-668v-366h603v-201h-603v-399h701v-205h-973zM264 1663q0 63 39.5 102t102.5 39t102 -39t39 -102t-39 -102t-102 -39t-102.5 39t-39.5 102zM719 1663q0 63 39 102t102 39t102 -39t39 -102t-39 -102t-102 -39t-102 39t-39 102z" />
    <glyph glyph-name="Igrave" unicode="&#xcc;" horiz-adv-x="618" 
d="M172 0v1376h272v-1376h-272zM117 1876l379 -264l-101 -144l-395 240z" />
    <glyph glyph-name="Iacute" unicode="&#xcd;" horiz-adv-x="618" 
d="M172 0v1376h272v-1376h-272zM639 1708l-395 -240l-101 144l379 264z" />
    <glyph glyph-name="Icircumflex" unicode="&#xce;" horiz-adv-x="618" 
d="M172 0v1376h272v-1376h-272zM-27 1591l256 244h160l256 -244l-113 -123l-223 189l-223 -189z" />
    <glyph glyph-name="Idieresis" unicode="&#xcf;" horiz-adv-x="618" 
d="M172 0v1376h272v-1376h-272zM-59 1663q0 63 39 102t102 39t102 -39t39 -102t-39 -102t-102 -39t-102 39t-39 102zM395 1663q0 63 39.5 102t102.5 39t102 -39t39 -102t-39 -102t-102 -39t-102.5 39t-39.5 102z" />
    <glyph glyph-name="Eth" unicode="&#xd0;" horiz-adv-x="1525" 
d="M205 0v604h-160v201h160v571h534q317 0 513 -190.5t196 -497.5q0 -201 -88.5 -357.5t-250.5 -243.5t-370 -87h-534zM1180 688q0 211 -129 345t-332 134h-252v-362h317v-201h-317v-395h252q203 0 332 134t129 345z" />
    <glyph glyph-name="Ntilde" unicode="&#xd1;" horiz-adv-x="1591" 
d="M172 0v1376h264l731 -1003v1003h252v-1376h-264l-731 1004v-1004h-252zM666 1788q56 0 136.5 -36t104.5 -36q52 0 78 72l158 -47q-15 -92 -73.5 -147.5t-141.5 -55.5q-56 0 -137 36t-105 36q-28 0 -48.5 -19t-29.5 -53l-157 45q15 93 73.5 149t141.5 56z" />
    <glyph glyph-name="Ograve" unicode="&#xd2;" horiz-adv-x="1591" 
d="M80 688q0 155 53 287.5t147 226t227.5 146.5t289.5 53q207 0 370.5 -90.5t254.5 -253t91 -369.5t-91 -369.5t-254.5 -253t-370.5 -90.5q-156 0 -289.5 53t-227.5 146.5t-147 226t-53 287.5zM356 688q0 -218 124 -358t317 -140t315.5 139.5t122.5 358.5t-122.5 358.5
t-315.5 139.5t-317 -140t-124 -358zM604 1876l379 -264l-100 -144l-396 240z" />
    <glyph glyph-name="Oacute" unicode="&#xd3;" horiz-adv-x="1591" 
d="M80 688q0 155 53 287.5t147 226t227.5 146.5t289.5 53q207 0 370.5 -90.5t254.5 -253t91 -369.5t-91 -369.5t-254.5 -253t-370.5 -90.5q-156 0 -289.5 53t-227.5 146.5t-147 226t-53 287.5zM356 688q0 -218 124 -358t317 -140t315.5 139.5t122.5 358.5t-122.5 358.5
t-315.5 139.5t-317 -140t-124 -358zM1126 1708l-395 -240l-100 144l379 264z" />
    <glyph glyph-name="Ocircumflex" unicode="&#xd4;" horiz-adv-x="1591" 
d="M80 688q0 155 53 287.5t147 226t227.5 146.5t289.5 53q207 0 370.5 -90.5t254.5 -253t91 -369.5t-91 -369.5t-254.5 -253t-370.5 -90.5q-156 0 -289.5 53t-227.5 146.5t-147 226t-53 287.5zM356 688q0 -218 124 -358t317 -140t315.5 139.5t122.5 358.5t-122.5 358.5
t-315.5 139.5t-317 -140t-124 -358zM461 1591l256 244h160l256 -244l-113 -123l-223 189l-224 -189z" />
    <glyph glyph-name="Otilde" unicode="&#xd5;" horiz-adv-x="1591" 
d="M80 688q0 155 53 287.5t147 226t227.5 146.5t289.5 53q207 0 370.5 -90.5t254.5 -253t91 -369.5t-91 -369.5t-254.5 -253t-370.5 -90.5q-156 0 -289.5 53t-227.5 146.5t-147 226t-53 287.5zM356 688q0 -218 124 -358t317 -140t315.5 139.5t122.5 358.5t-122.5 358.5
t-315.5 139.5t-317 -140t-124 -358zM666 1788q56 0 136.5 -36t104.5 -36q52 0 78 72l158 -47q-15 -92 -73.5 -147.5t-141.5 -55.5q-56 0 -137 36t-105 36q-28 0 -48.5 -19t-29.5 -53l-157 45q15 93 73.5 149t141.5 56z" />
    <glyph glyph-name="Odieresis" unicode="&#xd6;" horiz-adv-x="1591" 
d="M80 688q0 155 53 287.5t147 226t227.5 146.5t289.5 53q207 0 370.5 -90.5t254.5 -253t91 -369.5t-91 -369.5t-254.5 -253t-370.5 -90.5q-156 0 -289.5 53t-227.5 146.5t-147 226t-53 287.5zM356 688q0 -218 124 -358t317 -140t315.5 139.5t122.5 358.5t-122.5 358.5
t-315.5 139.5t-317 -140t-124 -358zM428 1663q0 63 39 102t102 39t102.5 -39t39.5 -102t-39.5 -102t-102.5 -39t-102 39t-39 102zM883 1663q0 63 39 102t102 39t102 -39t39 -102t-39 -102t-102 -39t-102 39t-39 102z" />
    <glyph glyph-name="multiply" unicode="&#xd7;" horiz-adv-x="1179" 
d="M266 113l-153 153l321 324l-321 323l153 154l324 -322l323 322l154 -154l-322 -323l322 -324l-154 -153l-323 321z" />
    <glyph glyph-name="Oslash" unicode="&#xd8;" horiz-adv-x="1591" 
d="M80 688q0 155 53 287.5t147 226t227.5 146.5t289.5 53q199 0 362 -94l109 143l127 -96l-103 -135q105 -95 163 -232t58 -299q0 -207 -90.5 -369.5t-254 -253t-371.5 -90.5q-200 0 -367 95l-106 -144l-127 97l100 133q-104 96 -160.5 233t-56.5 299zM336 688
q0 -206 108 -336l584 776q-104 68 -231 68q-204 0 -332.5 -142t-128.5 -366zM1255 688q0 199 -108 336l-582 -778q101 -66 232 -66q202 0 330 142t128 366z" />
    <glyph glyph-name="Ugrave" unicode="&#xd9;" horiz-adv-x="1591" 
d="M1436 1376v-837q0 -165 -82 -293.5t-227.5 -199.5t-329.5 -71t-330 71t-228.5 200t-82.5 293v837h272v-827q0 -158 103.5 -258.5t265.5 -100.5q160 0 263 100.5t103 258.5v827h273zM604 1876l379 -264l-100 -144l-396 240z" />
    <glyph glyph-name="Uacute" unicode="&#xda;" horiz-adv-x="1591" 
d="M1436 1376v-837q0 -165 -82 -293.5t-227.5 -199.5t-329.5 -71t-330 71t-228.5 200t-82.5 293v837h272v-827q0 -158 103.5 -258.5t265.5 -100.5q160 0 263 100.5t103 258.5v827h273zM1126 1708l-395 -240l-100 144l379 264z" />
    <glyph glyph-name="Ucircumflex" unicode="&#xdb;" horiz-adv-x="1591" 
d="M1436 1376v-837q0 -165 -82 -293.5t-227.5 -199.5t-329.5 -71t-330 71t-228.5 200t-82.5 293v837h272v-827q0 -158 103.5 -258.5t265.5 -100.5q160 0 263 100.5t103 258.5v827h273zM461 1591l256 244h160l256 -244l-113 -123l-223 189l-224 -189z" />
    <glyph glyph-name="Udieresis" unicode="&#xdc;" horiz-adv-x="1591" 
d="M1436 1376v-837q0 -165 -82 -293.5t-227.5 -199.5t-329.5 -71t-330 71t-228.5 200t-82.5 293v837h272v-827q0 -158 103.5 -258.5t265.5 -100.5q160 0 263 100.5t103 258.5v827h273zM428 1663q0 63 39 102t102 39t102.5 -39t39.5 -102t-39.5 -102t-102.5 -39t-102 39
t-39 102zM883 1663q0 63 39 102t102 39t102 -39t39 -102t-39 -102t-102 -39t-102 39t-39 102z" />
    <glyph glyph-name="Yacute" unicode="&#xdd;" horiz-adv-x="1263" 
d="M496 0v559l-504 817h297l342 -575l344 575h295l-502 -817v-559h-272zM961 1708l-396 -240l-100 144l379 264z" />
    <glyph glyph-name="Thorn" unicode="&#xde;" horiz-adv-x="1286" 
d="M172 0v1376h262v-219h301q215 0 352.5 -126.5t137.5 -325.5t-137.5 -326t-352.5 -127h-301v-252h-262zM434 948v-487h260q117 0 189.5 68t72.5 176q0 106 -73 174.5t-189 68.5h-260z" />
    <glyph glyph-name="germandbls" unicode="&#xdf;" horiz-adv-x="1296" 
d="M614 727q0 59 24 113t53 89t53 82.5t24 94.5q0 70 -49.5 116t-130.5 46q-90 0 -146.5 -58t-56.5 -153v-1057h-252v1067q0 179 128.5 289t336.5 110q188 0 310 -99.5t122 -250.5q0 -53 -16 -99t-38 -79t-44.5 -63t-38.5 -62.5t-16 -64.5q0 -37 20 -66t52 -49.5t70.5 -41
t77 -46.5t70.5 -58.5t52 -83.5t20 -116q0 -140 -107.5 -226t-277.5 -86q-155 0 -324 72l68 186q133 -59 236 -59q70 0 111.5 30.5t41.5 82.5q0 33 -20.5 59.5t-53.5 46.5t-73 39.5t-79.5 45t-72.5 57t-53.5 81t-20.5 111.5z" />
    <glyph glyph-name="agrave" unicode="&#xe0;" horiz-adv-x="1144" 
d="M74 291q0 158 122 246t341 88q95 0 194 -21v53q0 77 -57 127t-150 50q-150 0 -329 -72l-66 182q221 84 426 84q190 0 306 -103.5t116 -271.5v-407q0 -32 19 -52t51 -20q27 0 51 6l18 -190q-81 -15 -139 -15q-76 0 -132 36t-83 100q-65 -65 -151.5 -100.5t-178.5 -35.5
q-157 0 -257.5 89t-100.5 227zM326 305q0 -61 50 -103t124 -42q104 0 167.5 65t63.5 168v60q-76 20 -164 20q-112 0 -176.5 -45t-64.5 -123zM362 1503l379 -264l-100 -143l-395 239z" />
    <glyph glyph-name="aacute" unicode="&#xe1;" horiz-adv-x="1144" 
d="M74 291q0 158 122 246t341 88q95 0 194 -21v53q0 77 -57 127t-150 50q-150 0 -329 -72l-66 182q221 84 426 84q190 0 306 -103.5t116 -271.5v-407q0 -32 19 -52t51 -20q27 0 51 6l18 -190q-81 -15 -139 -15q-76 0 -132 36t-83 100q-65 -65 -151.5 -100.5t-178.5 -35.5
q-157 0 -257.5 89t-100.5 227zM326 305q0 -61 50 -103t124 -42q104 0 167.5 65t63.5 168v60q-76 20 -164 20q-112 0 -176.5 -45t-64.5 -123zM885 1335l-396 -239l-100 143l379 264z" />
    <glyph glyph-name="acircumflex" unicode="&#xe2;" horiz-adv-x="1144" 
d="M74 291q0 158 122 246t341 88q95 0 194 -21v53q0 77 -57 127t-150 50q-150 0 -329 -72l-66 182q221 84 426 84q190 0 306 -103.5t116 -271.5v-407q0 -32 19 -52t51 -20q27 0 51 6l18 -190q-81 -15 -139 -15q-76 0 -132 36t-83 100q-65 -65 -151.5 -100.5t-178.5 -35.5
q-157 0 -257.5 89t-100.5 227zM326 305q0 -61 50 -103t124 -42q104 0 167.5 65t63.5 168v60q-76 20 -164 20q-112 0 -176.5 -45t-64.5 -123zM219 1219l256 243h160l256 -243l-113 -123l-223 188l-223 -188z" />
    <glyph glyph-name="atilde" unicode="&#xe3;" horiz-adv-x="1144" 
d="M74 291q0 158 122 246t341 88q95 0 194 -21v53q0 77 -57 127t-150 50q-150 0 -329 -72l-66 182q221 84 426 84q190 0 306 -103.5t116 -271.5v-407q0 -32 19 -52t51 -20q27 0 51 6l18 -190q-81 -15 -139 -15q-76 0 -132 36t-83 100q-65 -65 -151.5 -100.5t-178.5 -35.5
q-157 0 -257.5 89t-100.5 227zM326 305q0 -61 50 -103t124 -42q104 0 167.5 65t63.5 168v60q-76 20 -164 20q-112 0 -176.5 -45t-64.5 -123zM424 1415q56 0 137 -36t105 -36q51 0 77 72l158 -47q-15 -92 -73.5 -147.5t-141.5 -55.5q-56 0 -137 36t-105 36q-28 0 -48 -19
t-29 -53l-158 45q15 93 73.5 149t141.5 56z" />
    <glyph glyph-name="adieresis" unicode="&#xe4;" horiz-adv-x="1144" 
d="M74 291q0 158 122 246t341 88q95 0 194 -21v53q0 77 -57 127t-150 50q-150 0 -329 -72l-66 182q221 84 426 84q190 0 306 -103.5t116 -271.5v-407q0 -32 19 -52t51 -20q27 0 51 6l18 -190q-81 -15 -139 -15q-76 0 -132 36t-83 100q-65 -65 -151.5 -100.5t-178.5 -35.5
q-157 0 -257.5 89t-100.5 227zM326 305q0 -61 50 -103t124 -42q104 0 167.5 65t63.5 168v60q-76 20 -164 20q-112 0 -176.5 -45t-64.5 -123zM186 1290q0 63 39.5 102.5t102.5 39.5t102 -39.5t39 -102.5t-39 -102t-102 -39t-102.5 39t-39.5 102zM641 1290q0 63 39 102.5
t102 39.5t102.5 -39.5t39.5 -102.5t-39.5 -102t-102.5 -39t-102 39t-39 102z" />
    <glyph glyph-name="aring" unicode="&#xe5;" horiz-adv-x="1144" 
d="M74 291q0 158 122 246t341 88q95 0 194 -21v53q0 77 -57 127t-150 50q-150 0 -329 -72l-66 182q221 84 426 84q190 0 306 -103.5t116 -271.5v-407q0 -32 19 -52t51 -20q27 0 51 6l18 -190q-81 -15 -139 -15q-76 0 -132 36t-83 100q-65 -65 -151.5 -100.5t-178.5 -35.5
q-157 0 -257.5 89t-100.5 227zM326 305q0 -61 50 -103t124 -42q104 0 167.5 65t63.5 168v60q-76 20 -164 20q-112 0 -176.5 -45t-64.5 -123zM334 1290q0 94 61.5 152.5t159.5 58.5t159.5 -58.5t61.5 -152.5t-60.5 -152.5t-158.5 -58.5t-160.5 58.5t-62.5 152.5zM459 1290
q0 -43 27.5 -69.5t70.5 -26.5q41 0 67.5 26.5t26.5 69.5q0 42 -27 68t-69 26q-43 0 -69.5 -25.5t-26.5 -68.5z" />
    <glyph glyph-name="ae" unicode="&#xe6;" horiz-adv-x="1769" 
d="M74 285q0 161 122 250.5t341 89.5q95 0 194 -21v53q0 77 -57 127t-150 50q-150 0 -329 -72l-66 182q221 84 426 84q111 0 197 -41.5t120 -109.5q64 73 157.5 112t201.5 39q214 0 347.5 -141t133.5 -367q0 -57 -4 -84h-731q15 -120 101.5 -193t215.5 -73q138 0 291 84
l78 -178q-195 -101 -395 -101q-128 0 -240.5 52.5t-187.5 148.5q-64 -95 -165 -148t-222 -53q-166 0 -272.5 87.5t-106.5 222.5zM1231 834q-102 0 -171 -66t-83 -174h485q-8 108 -71 174t-160 66zM326 305q0 -61 50 -103t124 -42q104 0 167.5 65t63.5 168v60q-76 20 -164 20
q-112 0 -176.5 -45t-64.5 -123z" />
    <glyph glyph-name="ccedilla" unicode="&#xe7;" horiz-adv-x="1024" 
d="M74 502q0 232 148.5 379t381.5 147q203 0 385 -117l-106 -176q-130 84 -242 84q-132 0 -216.5 -89t-84.5 -228t84.5 -228.5t216.5 -89.5q109 0 242 86l106 -178q-147 -95 -309 -110l-12 -72q66 -15 106.5 -65t40.5 -119q0 -89 -76 -144t-198 -55q-109 0 -205 37l43 147
q74 -26 135 -26q39 0 64.5 18t25.5 49q0 30 -28.5 49t-75.5 19h-27l29 166q-193 28 -310.5 169t-117.5 347z" />
    <glyph glyph-name="egrave" unicode="&#xe8;" horiz-adv-x="1128" 
d="M74 502q0 232 143.5 379t370.5 147q214 0 348.5 -141t134.5 -367q0 -30 -4 -84h-731q13 -120 100.5 -193t216.5 -73q136 0 289 84l80 -178q-203 -101 -401 -101q-242 0 -394.5 147.5t-152.5 379.5zM588 834q-101 0 -170.5 -66.5t-81.5 -173.5h483q-6 108 -69.5 174
t-161.5 66zM395 1503l379 -264l-100 -143l-395 239z" />
    <glyph glyph-name="eacute" unicode="&#xe9;" horiz-adv-x="1128" 
d="M74 502q0 232 143.5 379t370.5 147q214 0 348.5 -141t134.5 -367q0 -30 -4 -84h-731q13 -120 100.5 -193t216.5 -73q136 0 289 84l80 -178q-203 -101 -401 -101q-242 0 -394.5 147.5t-152.5 379.5zM588 834q-101 0 -170.5 -66.5t-81.5 -173.5h483q-6 108 -69.5 174
t-161.5 66zM918 1335l-396 -239l-100 143l379 264z" />
    <glyph glyph-name="ecircumflex" unicode="&#xea;" horiz-adv-x="1128" 
d="M74 502q0 232 143.5 379t370.5 147q214 0 348.5 -141t134.5 -367q0 -30 -4 -84h-731q13 -120 100.5 -193t216.5 -73q136 0 289 84l80 -178q-203 -101 -401 -101q-242 0 -394.5 147.5t-152.5 379.5zM588 834q-101 0 -170.5 -66.5t-81.5 -173.5h483q-6 108 -69.5 174
t-161.5 66zM252 1219l256 243h160l256 -243l-113 -123l-223 188l-223 -188z" />
    <glyph glyph-name="edieresis" unicode="&#xeb;" horiz-adv-x="1128" 
d="M74 502q0 232 143.5 379t370.5 147q214 0 348.5 -141t134.5 -367q0 -30 -4 -84h-731q13 -120 100.5 -193t216.5 -73q136 0 289 84l80 -178q-203 -101 -401 -101q-242 0 -394.5 147.5t-152.5 379.5zM588 834q-101 0 -170.5 -66.5t-81.5 -173.5h483q-6 108 -69.5 174
t-161.5 66zM219 1290q0 63 39 102.5t102 39.5t102.5 -39.5t39.5 -102.5t-39.5 -102t-102.5 -39t-102 39t-39 102zM674 1290q0 63 39 102.5t102 39.5t102 -39.5t39 -102.5t-39 -102t-102 -39t-102 39t-39 102z" />
    <glyph glyph-name="igrave" unicode="&#xec;" horiz-adv-x="530" 
d="M133 0v1004h262v-1004h-262zM72 1503l379 -264l-101 -143l-395 239z" />
    <glyph glyph-name="iacute" unicode="&#xed;" horiz-adv-x="530" 
d="M133 0v1004h262v-1004h-262zM594 1335l-395 -239l-101 143l379 264z" />
    <glyph glyph-name="icircumflex" unicode="&#xee;" horiz-adv-x="530" 
d="M133 0v1004h262v-1004h-262zM-72 1219l256 243h160l256 -243l-113 -123l-223 188l-223 -188z" />
    <glyph glyph-name="idieresis" unicode="&#xef;" horiz-adv-x="530" 
d="M133 0v1004h262v-1004h-262zM-104 1290q0 63 39 102.5t102 39.5t102 -39.5t39 -102.5t-39 -102t-102 -39t-102 39t-39 102zM350 1290q0 63 39.5 102.5t102.5 39.5t102 -39.5t39 -102.5t-39 -102t-102 -39t-102.5 39t-39.5 102z" />
    <glyph glyph-name="eth" unicode="&#xf0;" 
d="M74 498q0 223 135 361t348 138q144 0 250 -86q-59 162 -207 267l-258 -129l-68 135l154 76q-57 29 -121 53l58 176q169 -42 297 -113l227 113l67 -135l-147 -74q152 -121 237.5 -287.5t92.5 -361.5q3 -67 -6 -131q-25 -235 -174.5 -380t-370.5 -145q-226 0 -370 146.5
t-144 376.5zM330 485q0 -139 74.5 -227t193.5 -88q122 0 199 91t77 237q0 135 -77 220t-199 85q-119 0 -193.5 -88.5t-74.5 -229.5z" />
    <glyph glyph-name="ntilde" unicode="&#xf1;" 
d="M133 0v1004h209l33 -146q57 82 147 126t199 44q172 0 281.5 -107t109.5 -276v-645h-262v604q0 92 -59 150.5t-150 58.5q-107 0 -176.5 -72.5t-69.5 -187.5v-553h-262zM483 1415q56 0 137 -36t105 -36q52 0 78 72l158 -47q-15 -92 -74 -147.5t-142 -55.5q-56 0 -136.5 36
t-104.5 36q-28 0 -48.5 -19t-29.5 -53l-158 45q15 93 73.5 149t141.5 56z" />
    <glyph glyph-name="ograve" unicode="&#xf2;" 
d="M74 502q0 232 151 379t389 147q239 0 391 -147t152 -379t-152 -379.5t-391 -147.5q-238 0 -389 147.5t-151 379.5zM340 502q0 -141 77 -231.5t197 -90.5q121 0 199 90.5t78 231.5q0 142 -77.5 231.5t-199.5 89.5q-120 0 -197 -89.5t-77 -231.5zM422 1503l379 -264
l-101 -143l-395 239z" />
    <glyph glyph-name="oacute" unicode="&#xf3;" 
d="M74 502q0 232 151 379t389 147q239 0 391 -147t152 -379t-152 -379.5t-391 -147.5q-238 0 -389 147.5t-151 379.5zM340 502q0 -141 77 -231.5t197 -90.5q121 0 199 90.5t78 231.5q0 142 -77.5 231.5t-199.5 89.5q-120 0 -197 -89.5t-77 -231.5zM944 1335l-395 -239
l-100 143l378 264z" />
    <glyph glyph-name="ocircumflex" unicode="&#xf4;" 
d="M74 502q0 232 151 379t389 147q239 0 391 -147t152 -379t-152 -379.5t-391 -147.5q-238 0 -389 147.5t-151 379.5zM340 502q0 -141 77 -231.5t197 -90.5q121 0 199 90.5t78 231.5q0 142 -77.5 231.5t-199.5 89.5q-120 0 -197 -89.5t-77 -231.5zM279 1219l256 243h159
l256 -243l-112 -123l-224 188l-223 -188z" />
    <glyph glyph-name="otilde" unicode="&#xf5;" 
d="M74 502q0 232 151 379t389 147q239 0 391 -147t152 -379t-152 -379.5t-391 -147.5q-238 0 -389 147.5t-151 379.5zM340 502q0 -141 77 -231.5t197 -90.5q121 0 199 90.5t78 231.5q0 142 -77.5 231.5t-199.5 89.5q-120 0 -197 -89.5t-77 -231.5zM483 1415q56 0 137 -36
t105 -36q52 0 78 72l158 -47q-15 -92 -74 -147.5t-142 -55.5q-56 0 -136.5 36t-104.5 36q-28 0 -48.5 -19t-29.5 -53l-158 45q15 93 73.5 149t141.5 56z" />
    <glyph glyph-name="odieresis" unicode="&#xf6;" 
d="M74 502q0 232 151 379t389 147q239 0 391 -147t152 -379t-152 -379.5t-391 -147.5q-238 0 -389 147.5t-151 379.5zM340 502q0 -141 77 -231.5t197 -90.5q121 0 199 90.5t78 231.5q0 142 -77.5 231.5t-199.5 89.5q-120 0 -197 -89.5t-77 -231.5zM246 1290q0 63 39 102.5
t102 39.5t102 -39.5t39 -102.5t-39 -102t-102 -39t-102 39t-39 102zM700 1290q0 63 39.5 102.5t102.5 39.5t102 -39.5t39 -102.5t-39 -102t-102 -39t-102.5 39t-39.5 102z" />
    <glyph glyph-name="divide" unicode="&#xf7;" horiz-adv-x="1179" 
d="M90 489v201h1000v-201h-1000zM451 983q0 61 38.5 100t100.5 39q63 0 101 -37t38 -102q0 -61 -38.5 -100t-100.5 -39t-100.5 39t-38.5 100zM451 197q0 61 38.5 100t100.5 39t100.5 -39t38.5 -100q0 -62 -39 -101t-100 -39t-100 39t-39 101z" />
    <glyph glyph-name="oslash" unicode="&#xf8;" 
d="M74 502q0 232 151 379t389 147q146 0 260 -63l82 106l111 -82l-74 -98q164 -151 164 -389q0 -232 -152 -379.5t-391 -147.5q-144 0 -260 64l-80 -107l-110 84l72 95q-162 149 -162 391zM319 502q0 -115 60 -201l369 494q-58 39 -134 39q-130 0 -212.5 -92.5t-82.5 -239.5
zM911 502q0 118 -61 198l-369 -491q58 -39 133 -39q131 0 214 92.5t83 239.5z" />
    <glyph glyph-name="ugrave" unicode="&#xf9;" 
d="M1096 1004v-1004h-209l-33 145q-55 -82 -145 -126t-199 -44q-172 0 -282.5 107.5t-110.5 275.5v646h262v-603q0 -93 59 -152t152 -59q106 0 175 73t69 188v553h262zM422 1503l379 -264l-101 -143l-395 239z" />
    <glyph glyph-name="uacute" unicode="&#xfa;" 
d="M1096 1004v-1004h-209l-33 145q-55 -82 -145 -126t-199 -44q-172 0 -282.5 107.5t-110.5 275.5v646h262v-603q0 -93 59 -152t152 -59q106 0 175 73t69 188v553h262zM944 1335l-395 -239l-100 143l378 264z" />
    <glyph glyph-name="ucircumflex" unicode="&#xfb;" 
d="M1096 1004v-1004h-209l-33 145q-55 -82 -145 -126t-199 -44q-172 0 -282.5 107.5t-110.5 275.5v646h262v-603q0 -93 59 -152t152 -59q106 0 175 73t69 188v553h262zM279 1219l256 243h159l256 -243l-112 -123l-224 188l-223 -188z" />
    <glyph glyph-name="udieresis" unicode="&#xfc;" 
d="M1096 1004v-1004h-209l-33 145q-55 -82 -145 -126t-199 -44q-172 0 -282.5 107.5t-110.5 275.5v646h262v-603q0 -93 59 -152t152 -59q106 0 175 73t69 188v553h262zM246 1290q0 63 39 102.5t102 39.5t102 -39.5t39 -102.5t-39 -102t-102 -39t-102 39t-39 102zM700 1290
q0 63 39.5 102.5t102.5 39.5t102 -39.5t39 -102.5t-39 -102t-102 -39t-102.5 39t-39.5 102z" />
    <glyph glyph-name="yacute" unicode="&#xfd;" horiz-adv-x="1099" 
d="M1079 1004l-446 -1117q-68 -171 -166.5 -254.5t-235.5 -83.5q-65 0 -155 19l35 205q66 -15 96 -15q67 0 110.5 38.5t79.5 127.5l35 88l-414 992h275l260 -707l254 707h272zM879 1335l-396 -239l-100 143l379 264z" />
    <glyph glyph-name="thorn" unicode="&#xfe;" 
d="M133 -426v1868h262v-551q112 137 301 137q203 0 332 -147t129 -379t-129 -379.5t-332 -147.5q-189 0 -301 140v-541h-262zM891 502q0 141 -73 230t-189 89q-104 0 -171 -71t-67 -181v-135q0 -109 67 -180.5t171 -71.5q115 0 188.5 90t73.5 230z" />
    <glyph glyph-name="ydieresis" unicode="&#xff;" horiz-adv-x="1099" 
d="M1079 1004l-446 -1117q-68 -171 -166.5 -254.5t-235.5 -83.5q-65 0 -155 19l35 205q66 -15 96 -15q67 0 110.5 38.5t79.5 127.5l35 88l-414 992h275l260 -707l254 707h272zM180 1290q0 63 39.5 102.5t102.5 39.5t102 -39.5t39 -102.5t-39 -102t-102 -39t-102.5 39
t-39.5 102zM635 1290q0 63 39 102.5t102 39.5t102.5 -39.5t39.5 -102.5t-39.5 -102t-102.5 -39t-102 39t-39 102z" />
    <glyph glyph-name="Amacron" unicode="&#x100;" horiz-adv-x="1394" 
d="M8 0l563 1376h252l563 -1376h-274l-127 328h-575l-127 -328h-275zM698 1077l-215 -551h430zM379 1573v178h639v-178h-639z" />
    <glyph glyph-name="amacron" unicode="&#x101;" horiz-adv-x="1144" 
d="M74 291q0 158 122 246t341 88q95 0 194 -21v53q0 77 -57 127t-150 50q-150 0 -329 -72l-66 182q221 84 426 84q190 0 306 -103.5t116 -271.5v-407q0 -32 19 -52t51 -20q27 0 51 6l18 -190q-81 -15 -139 -15q-76 0 -132 36t-83 100q-65 -65 -151.5 -100.5t-178.5 -35.5
q-157 0 -257.5 89t-100.5 227zM326 305q0 -61 50 -103t124 -42q104 0 167.5 65t63.5 168v60q-76 20 -164 20q-112 0 -176.5 -45t-64.5 -123zM236 1200v178h638v-178h-638z" />
    <glyph glyph-name="Abreve" unicode="&#x102;" horiz-adv-x="1394" 
d="M8 0l563 1376h252l563 -1376h-274l-127 328h-575l-127 -328h-275zM698 1077l-215 -551h430zM362 1802h170q3 -67 49.5 -108t116.5 -41t116.5 41t49.5 108h170q-6 -151 -100 -240t-236 -89t-236 89t-100 240z" />
    <glyph glyph-name="abreve" unicode="&#x103;" horiz-adv-x="1144" 
d="M74 291q0 158 122 246t341 88q95 0 194 -21v53q0 77 -57 127t-150 50q-150 0 -329 -72l-66 182q221 84 426 84q190 0 306 -103.5t116 -271.5v-407q0 -32 19 -52t51 -20q27 0 51 6l18 -190q-81 -15 -139 -15q-76 0 -132 36t-83 100q-65 -65 -151.5 -100.5t-178.5 -35.5
q-157 0 -257.5 89t-100.5 227zM326 305q0 -61 50 -103t124 -42q104 0 167.5 65t63.5 168v60q-76 20 -164 20q-112 0 -176.5 -45t-64.5 -123zM219 1430h170q3 -67 49.5 -108.5t116.5 -41.5t116.5 41.5t49.5 108.5h170q-6 -151 -100 -240.5t-236 -89.5t-236 89.5t-100 240.5z
" />
    <glyph glyph-name="Aogonek" unicode="&#x104;" horiz-adv-x="1400" 
d="M8 0l563 1376h252l563 -1376q-165 -130 -165 -231q0 -39 26 -61.5t64 -22.5q33 0 71 12l31 -143q-79 -27 -166 -27q-98 0 -159.5 52.5t-61.5 141.5q0 145 176 279h-90l-127 328h-575l-127 -328h-275zM698 1077l-215 -551h430z" />
    <glyph glyph-name="aogonek" unicode="&#x105;" horiz-adv-x="1144" 
d="M74 291q0 158 122 246t341 88q95 0 194 -21v53q0 77 -57 127t-150 50q-150 0 -329 -72l-66 182q221 84 426 84q190 0 306 -103.5t116 -271.5v-407q0 -32 19 -52t51 -20q27 0 51 6l18 -190q-166 -124 -166 -221q0 -39 25.5 -61.5t64.5 -22.5q34 0 72 12l31 -143
q-79 -27 -166 -27q-98 0 -159.5 52.5t-61.5 141.5q0 136 159 261q-112 25 -153 129q-65 -65 -151.5 -100.5t-178.5 -35.5q-157 0 -257.5 89t-100.5 227zM324 305q0 -62 50.5 -103.5t125.5 -41.5q104 0 167.5 65t63.5 168v60q-76 20 -164 20q-113 0 -178 -45t-65 -123z" />
    <glyph glyph-name="Cacute" unicode="&#x106;" horiz-adv-x="1331" 
d="M80 688q0 208 89 370.5t250 252.5t367 90q255 0 494 -156l-111 -182q-175 121 -348 121q-206 0 -335.5 -138t-129.5 -358t129.5 -357.5t335.5 -137.5q174 0 348 120l111 -182q-239 -156 -494 -156q-155 0 -286.5 53t-223.5 146.5t-144 226t-52 287.5zM1094 1708
l-396 -240l-100 144l379 264z" />
    <glyph glyph-name="cacute" unicode="&#x107;" horiz-adv-x="1024" 
d="M74 502q0 232 148.5 379t381.5 147q203 0 385 -117l-106 -176q-124 84 -242 84q-132 0 -216.5 -89t-84.5 -228t84.5 -228.5t216.5 -89.5q115 0 242 86l106 -178q-182 -117 -385 -117q-233 0 -381.5 148t-148.5 379zM907 1335l-395 -239l-100 143l379 264z" />
    <glyph glyph-name="Ccircumflex" unicode="&#x108;" horiz-adv-x="1331" 
d="M80 688q0 208 89 370.5t250 252.5t367 90q255 0 494 -156l-111 -182q-175 121 -348 121q-206 0 -335.5 -138t-129.5 -358t129.5 -357.5t335.5 -137.5q174 0 348 120l111 -182q-239 -156 -494 -156q-155 0 -286.5 53t-223.5 146.5t-144 226t-52 287.5zM428 1591l256 244
h160l256 -244l-113 -123l-223 189l-223 -189z" />
    <glyph glyph-name="ccircumflex" unicode="&#x109;" horiz-adv-x="1024" 
d="M74 502q0 232 148.5 379t381.5 147q203 0 385 -117l-106 -176q-124 84 -242 84q-132 0 -216.5 -89t-84.5 -228t84.5 -228.5t216.5 -89.5q115 0 242 86l106 -178q-182 -117 -385 -117q-233 0 -381.5 148t-148.5 379zM242 1219l256 243h159l256 -243l-112 -123l-223 188
l-224 -188z" />
    <glyph glyph-name="Cdotaccent" unicode="&#x10a;" horiz-adv-x="1331" 
d="M80 688q0 208 89 370.5t250 252.5t367 90q255 0 494 -156l-111 -182q-175 121 -348 121q-206 0 -335.5 -138t-129.5 -358t129.5 -357.5t335.5 -137.5q174 0 348 120l111 -182q-239 -156 -494 -156q-155 0 -286.5 53t-223.5 146.5t-144 226t-52 287.5zM612 1663
q0 66 42.5 109t109.5 43t109 -43t42 -109q0 -68 -42 -110t-109 -42q-68 0 -110 42.5t-42 109.5z" />
    <glyph glyph-name="cdotaccent" unicode="&#x10b;" horiz-adv-x="1024" 
d="M74 502q0 232 148.5 379t381.5 147q203 0 385 -117l-106 -176q-124 84 -242 84q-132 0 -216.5 -89t-84.5 -228t84.5 -228.5t216.5 -89.5q115 0 242 86l106 -178q-182 -117 -385 -117q-233 0 -381.5 148t-148.5 379zM426 1290q0 66 42.5 109t109.5 43t109 -43t42 -109
q0 -68 -41.5 -109.5t-109.5 -41.5t-110 42t-42 109z" />
    <glyph glyph-name="Ccaron" unicode="&#x10c;" horiz-adv-x="1331" 
d="M80 688q0 208 89 370.5t250 252.5t367 90q255 0 494 -156l-111 -182q-175 121 -348 121q-206 0 -335.5 -138t-129.5 -358t129.5 -357.5t335.5 -137.5q174 0 348 120l111 -182q-239 -156 -494 -156q-155 0 -286.5 53t-223.5 146.5t-144 226t-52 287.5zM1100 1735
l-256 -246h-160l-256 246l113 120l223 -186l223 186z" />
    <glyph glyph-name="ccaron" unicode="&#x10d;" horiz-adv-x="1024" 
d="M74 502q0 232 148.5 379t381.5 147q203 0 385 -117l-106 -176q-124 84 -242 84q-132 0 -216.5 -89t-84.5 -228t84.5 -228.5t216.5 -89.5q115 0 242 86l106 -178q-182 -117 -385 -117q-233 0 -381.5 148t-148.5 379zM913 1362l-256 -246h-159l-256 246l112 121l224 -187
l223 187z" />
    <glyph glyph-name="Dcaron" unicode="&#x10e;" horiz-adv-x="1492" 
d="M172 0v1376h535q209 0 370 -86t249.5 -242.5t88.5 -359.5q0 -201 -88.5 -357.5t-250 -243.5t-369.5 -87h-535zM1137 688q0 211 -129.5 345t-333.5 134h-230v-958h230q204 0 333.5 134t129.5 345zM1051 1735l-256 -246h-160l-256 246l113 120l223 -186l223 186z" />
    <glyph glyph-name="dcaron" unicode="&#x10f;" horiz-adv-x="1423" 
d="M1096 1442v-1442h-209l-33 129q-56 -74 -139 -114t-183 -40q-201 0 -329.5 147.5t-128.5 379.5t128.5 379t329.5 147q190 0 302 -137v551h262zM340 502q0 -140 73 -230t187 -90q105 0 172.5 71.5t67.5 180.5v135q0 110 -67 181t-173 71q-114 0 -187 -89t-73 -230z
M1493 1456l-150 -364l-172 59l132 371z" />
    <glyph glyph-name="Dcroat" unicode="&#x110;" horiz-adv-x="1525" 
d="M205 0v604h-160v201h160v571h534q317 0 513 -190.5t196 -497.5q0 -201 -88.5 -357.5t-250.5 -243.5t-370 -87h-534zM1180 688q0 211 -129 345t-332 134h-252v-362h317v-201h-317v-395h252q203 0 332 134t129 345z" />
    <glyph glyph-name="dcroat" unicode="&#x111;" 
d="M1096 1442v-133h123v-181h-123v-1128h-209l-33 129q-56 -74 -139 -114t-183 -40q-201 0 -329.5 147.5t-128.5 379.5t128.5 379t329.5 147q190 0 302 -137v237h-330v181h330v133h262zM340 502q0 -140 73 -230t187 -90q105 0 172.5 71.5t67.5 180.5v135q0 110 -67 181
t-173 71q-114 0 -187 -89t-73 -230z" />
    <glyph glyph-name="Emacron" unicode="&#x112;" horiz-adv-x="1232" 
d="M172 0v1376h940v-205h-668v-366h603v-201h-603v-399h701v-205h-973zM313 1573v178h639v-178h-639z" />
    <glyph glyph-name="emacron" unicode="&#x113;" horiz-adv-x="1128" 
d="M74 502q0 232 143.5 379t370.5 147q214 0 348.5 -141t134.5 -367q0 -30 -4 -84h-731q13 -120 100.5 -193t216.5 -73q136 0 289 84l80 -178q-203 -101 -401 -101q-242 0 -394.5 147.5t-152.5 379.5zM588 834q-101 0 -170.5 -66.5t-81.5 -173.5h483q-6 108 -69.5 174
t-161.5 66zM268 1200v178h639v-178h-639z" />
    <glyph glyph-name="Ebreve" unicode="&#x114;" horiz-adv-x="1232" 
d="M172 0v1376h940v-205h-668v-366h603v-201h-603v-399h701v-205h-973zM293 1802h170q3 -67 49.5 -108t116.5 -41t116.5 41t49.5 108h170q-6 -151 -100 -240t-236 -89t-236 89t-100 240z" />
    <glyph glyph-name="ebreve" unicode="&#x115;" horiz-adv-x="1128" 
d="M74 502q0 232 143.5 379t370.5 147q214 0 348.5 -141t134.5 -367q0 -30 -4 -84h-731q13 -120 100.5 -193t216.5 -73q136 0 289 84l80 -178q-203 -101 -401 -101q-242 0 -394.5 147.5t-152.5 379.5zM588 834q-101 0 -170.5 -66.5t-81.5 -173.5h483q-6 108 -69.5 174
t-161.5 66zM248 1430h170q3 -67 49.5 -108.5t116.5 -41.5t116.5 41.5t49.5 108.5h170q-6 -151 -100 -240.5t-236 -89.5t-236 89.5t-100 240.5z" />
    <glyph glyph-name="Edotaccent" unicode="&#x116;" horiz-adv-x="1232" 
d="M172 0v1376h940v-205h-668v-366h603v-201h-603v-399h701v-205h-973zM481 1663q0 66 42.5 109t109.5 43t109 -43t42 -109q0 -68 -42 -110t-109 -42t-109.5 42.5t-42.5 109.5z" />
    <glyph glyph-name="edotaccent" unicode="&#x117;" horiz-adv-x="1128" 
d="M74 502q0 232 143.5 379t370.5 147q214 0 348.5 -141t134.5 -367q0 -30 -4 -84h-731q13 -120 100.5 -193t216.5 -73q136 0 289 84l80 -178q-203 -101 -401 -101q-242 0 -394.5 147.5t-152.5 379.5zM588 834q-101 0 -170.5 -66.5t-81.5 -173.5h483q-6 108 -69.5 174
t-161.5 66zM436 1290q0 66 42.5 109t109.5 43t109 -43t42 -109q0 -68 -41.5 -109.5t-109.5 -41.5t-110 42t-42 109z" />
    <glyph glyph-name="Eogonek" unicode="&#x118;" horiz-adv-x="1232" 
d="M172 0v1376h940v-205h-668v-366h603v-201h-603v-399h701v-205q-166 -131 -166 -231q0 -39 26 -61.5t64 -22.5q35 0 72 12l30 -143q-80 -27 -165 -27q-98 0 -160 52.5t-62 141.5q0 144 177 279h-789z" />
    <glyph glyph-name="eogonek" unicode="&#x119;" horiz-adv-x="1128" 
d="M74 502q0 232 143.5 379t370.5 147q214 0 348.5 -141t134.5 -367q0 -30 -4 -84h-731q13 -120 100.5 -193t216.5 -73q136 0 289 84l80 -178q-193 -162 -193 -291q0 -46 26.5 -73t64.5 -27q35 0 65 12l37 -141q-80 -29 -164 -29q-100 0 -161.5 55.5t-61.5 149.5
q0 139 131 258q-96 -15 -145 -15q-242 0 -394.5 147.5t-152.5 379.5zM588 834q-101 0 -170.5 -66.5t-81.5 -173.5h483q-6 108 -69.5 174t-161.5 66z" />
    <glyph glyph-name="Ecaron" unicode="&#x11a;" horiz-adv-x="1232" 
d="M172 0v1376h940v-205h-668v-366h603v-201h-603v-399h701v-205h-973zM969 1735l-256 -246h-160l-256 246l113 120l223 -186l223 186z" />
    <glyph glyph-name="ecaron" unicode="&#x11b;" horiz-adv-x="1128" 
d="M74 502q0 232 143.5 379t370.5 147q214 0 348.5 -141t134.5 -367q0 -30 -4 -84h-731q13 -120 100.5 -193t216.5 -73q136 0 289 84l80 -178q-203 -101 -401 -101q-242 0 -394.5 147.5t-152.5 379.5zM588 834q-101 0 -170.5 -66.5t-81.5 -173.5h483q-6 108 -69.5 174
t-161.5 66zM924 1362l-256 -246h-160l-256 246l113 121l223 -187l223 187z" />
    <glyph glyph-name="Gcircumflex" unicode="&#x11c;" horiz-adv-x="1460" 
d="M1339 760v-668q-272 -117 -520 -117q-161 0 -299 53t-234.5 146.5t-151 226t-54.5 287.5q0 207 91.5 369.5t256.5 253t375 90.5q249 0 510 -141l-101 -183q-216 115 -378 115q-216 0 -352 -141t-136 -363q0 -224 137.5 -364t356.5 -140q127 0 247 52v323h-309v201h561z
M455 1591l256 244h159l256 -244l-112 -123l-223 189l-224 -189z" />
    <glyph glyph-name="gcircumflex" unicode="&#x11d;" 
d="M1096 1004v-986q0 -204 -153 -336.5t-388 -132.5q-202 0 -426 93l72 194q183 -82 334 -82q132 0 215.5 71t83.5 183v107q-112 -140 -302 -140q-201 0 -329.5 147.5t-128.5 379.5t128.5 379t329.5 147q100 0 183 -40t139 -114l33 130h209zM340 502q0 -140 73 -230t187 -90
q105 0 172.5 71.5t67.5 180.5v135q0 110 -67 181t-173 71q-114 0 -187 -89t-73 -230zM279 1219l256 243h159l256 -243l-112 -123l-224 188l-223 -188z" />
    <glyph glyph-name="Gbreve" unicode="&#x11e;" horiz-adv-x="1460" 
d="M1339 760v-668q-272 -117 -520 -117q-161 0 -299 53t-234.5 146.5t-151 226t-54.5 287.5q0 207 91.5 369.5t256.5 253t375 90.5q249 0 510 -141l-101 -183q-216 115 -378 115q-216 0 -352 -141t-136 -363q0 -224 137.5 -364t356.5 -140q127 0 247 52v323h-309v201h561z
M451 1802h170q3 -67 49 -108t116 -41t116.5 41t49.5 108h170q-6 -151 -100 -240t-236 -89t-235.5 89t-99.5 240z" />
    <glyph glyph-name="gbreve" unicode="&#x11f;" 
d="M1096 1004v-986q0 -204 -153 -336.5t-388 -132.5q-202 0 -426 93l72 194q183 -82 334 -82q132 0 215.5 71t83.5 183v107q-112 -140 -302 -140q-201 0 -329.5 147.5t-128.5 379.5t128.5 379t329.5 147q100 0 183 -40t139 -114l33 130h209zM340 502q0 -140 73 -230t187 -90
q105 0 172.5 71.5t67.5 180.5v135q0 110 -67 181t-173 71q-114 0 -187 -89t-73 -230zM274 1430h170q3 -67 49.5 -108.5t116.5 -41.5t116.5 41.5t49.5 108.5h170q-6 -151 -100 -240.5t-236 -89.5t-236 89.5t-100 240.5z" />
    <glyph glyph-name="Gdotaccent" unicode="&#x120;" horiz-adv-x="1460" 
d="M1339 760v-668q-272 -117 -520 -117q-161 0 -299 53t-234.5 146.5t-151 226t-54.5 287.5q0 207 91.5 369.5t256.5 253t375 90.5q249 0 510 -141l-101 -183q-216 115 -378 115q-216 0 -352 -141t-136 -363q0 -224 137.5 -364t356.5 -140q127 0 247 52v323h-309v201h561z
M639 1663q0 66 42.5 109t109.5 43t109 -43t42 -109q0 -68 -42 -110t-109 -42t-109.5 42.5t-42.5 109.5z" />
    <glyph glyph-name="gdotaccent" unicode="&#x121;" 
d="M1096 1004v-986q0 -204 -153 -336.5t-388 -132.5q-202 0 -426 93l72 194q183 -82 334 -82q132 0 215.5 71t83.5 183v107q-112 -140 -302 -140q-201 0 -329.5 147.5t-128.5 379.5t128.5 379t329.5 147q100 0 183 -40t139 -114l33 130h209zM340 502q0 -140 73 -230t187 -90
q105 0 172.5 71.5t67.5 180.5v135q0 110 -67 181t-173 71q-114 0 -187 -89t-73 -230zM463 1290q0 66 42 109t109 43t109.5 -43t42.5 -109q0 -67 -42 -109t-110 -42t-109.5 41.5t-41.5 109.5z" />
    <glyph glyph-name="Gcommaaccent" unicode="&#x122;" horiz-adv-x="1460" 
d="M1339 760v-668q-272 -117 -520 -117q-161 0 -299 53t-234.5 146.5t-151 226t-54.5 287.5q0 207 91.5 369.5t256.5 253t375 90.5q249 0 510 -141l-101 -183q-216 115 -378 115q-216 0 -352 -141t-136 -363q0 -224 137.5 -364t356.5 -140q127 0 247 52v323h-309v201h561z
M649 -231q0 63 39.5 102t102.5 39q64 0 104.5 -47.5t40.5 -120.5q0 -108 -58 -202t-165 -158l-68 92q100 85 121 174q-50 -1 -83.5 34t-33.5 87z" />
    <glyph glyph-name="gcommaaccent" unicode="&#x123;" 
d="M1096 1004v-986q0 -204 -153 -336.5t-388 -132.5q-202 0 -426 93l72 194q183 -82 334 -82q132 0 215.5 71t83.5 183v107q-112 -140 -302 -140q-201 0 -329.5 147.5t-128.5 379.5t128.5 379t329.5 147q100 0 183 -40t139 -114l33 130h209zM340 502q0 -140 73 -230t187 -90
q105 0 172.5 71.5t67.5 180.5v135q0 110 -67 181t-173 71q-114 0 -187 -89t-73 -230zM756 1237q0 -63 -39.5 -102t-102.5 -39q-64 0 -104.5 47t-40.5 119q0 109 58 202t165 158l68 -92q-100 -84 -121 -172q50 -3 83.5 -38t33.5 -83z" />
    <glyph glyph-name="Hcircumflex" unicode="&#x124;" horiz-adv-x="1591" 
d="M172 0v1376h272v-567h703v567h272v-1376h-272v600h-703v-600h-272zM461 1591l256 244h160l256 -244l-113 -123l-223 189l-224 -189z" />
    <glyph glyph-name="hcircumflex" unicode="&#x125;" 
d="M133 0v1442h262v-568q54 73 139.5 113.5t186.5 40.5q172 0 281.5 -107t109.5 -276v-645h-262v604q0 92 -59 150.5t-150 58.5q-107 0 -176.5 -72.5t-69.5 -187.5v-553h-262zM-72 1657l256 244h160l256 -244l-113 -123l-223 188l-223 -188z" />
    <glyph glyph-name="Hbar" unicode="&#x126;" horiz-adv-x="1591" 
d="M172 0v1030h-127v180h127v166h272v-166h703v166h272v-166h129v-180h-129v-1030h-272v600h-703v-600h-272zM444 809h703v221h-703v-221z" />
    <glyph glyph-name="hbar" unicode="&#x127;" 
d="M133 0v1128h-121v181h121v133h262v-133h332v-181h-332v-254q54 73 139.5 113.5t186.5 40.5q172 0 281.5 -107t109.5 -276v-645h-262v604q0 92 -59 150.5t-150 58.5q-107 0 -176.5 -72.5t-69.5 -187.5v-553h-262z" />
    <glyph glyph-name="Itilde" unicode="&#x128;" horiz-adv-x="618" 
d="M172 0v1376h272v-1376h-272zM178 1788q56 0 137 -36t105 -36q52 0 78 72l157 -47q-15 -92 -73.5 -147.5t-141.5 -55.5q-56 0 -136.5 36t-104.5 36q-28 0 -48.5 -19t-29.5 -53l-158 45q15 93 73.5 149t141.5 56z" />
    <glyph glyph-name="itilde" unicode="&#x129;" horiz-adv-x="530" 
d="M133 0v1004h262v-1004h-262zM133 1415q56 0 137 -36t105 -36q52 0 78 72l157 -47q-15 -92 -73.5 -147.5t-141.5 -55.5q-56 0 -136.5 36t-104.5 36q-28 0 -48.5 -19t-29.5 -53l-158 45q15 93 73.5 149t141.5 56z" />
    <glyph glyph-name="Imacron" unicode="&#x12a;" horiz-adv-x="618" 
d="M172 0v1376h272v-1376h-272zM-10 1573v178h639v-178h-639z" />
    <glyph glyph-name="imacron" unicode="&#x12b;" horiz-adv-x="530" 
d="M133 0v1004h262v-1004h-262zM-55 1200v178h639v-178h-639z" />
    <glyph glyph-name="Ibreve" unicode="&#x12c;" horiz-adv-x="618" 
d="M172 0v1376h272v-1376h-272zM-31 1802h170q3 -67 49.5 -108t116.5 -41t116.5 41t49.5 108h170q-6 -151 -100 -240t-236 -89t-236 89t-100 240z" />
    <glyph glyph-name="ibreve" unicode="&#x12d;" horiz-adv-x="530" 
d="M133 0v1004h262v-1004h-262zM-76 1430h170q3 -67 49.5 -108.5t116.5 -41.5t116.5 41.5t49.5 108.5h170q-6 -151 -100 -240.5t-236 -89.5t-236 89.5t-100 240.5z" />
    <glyph glyph-name="Iogonek" unicode="&#x12e;" horiz-adv-x="618" 
d="M444 1376v-1376q-165 -130 -165 -231q0 -39 26 -61.5t64 -22.5q33 0 71 12l31 -143q-79 -27 -166 -27q-98 0 -159.5 52.5t-61.5 141.5q0 145 176 279h-88v1376h272z" />
    <glyph glyph-name="iogonek" unicode="&#x12f;" horiz-adv-x="530" 
d="M395 1004v-1004q-166 -131 -166 -231q0 -39 26 -61.5t64 -22.5q35 0 72 12l31 -143q-80 -27 -166 -27q-98 0 -159.5 52.5t-61.5 141.5q0 145 176 279h-78v1004h262zM109 1290q0 69 43.5 113.5t111.5 44.5q69 0 113.5 -44.5t44.5 -113.5t-44.5 -113t-113.5 -44
q-68 0 -111.5 44t-43.5 113z" />
    <glyph glyph-name="Idotaccent" unicode="&#x130;" horiz-adv-x="618" 
d="M172 0v1376h272v-1376h-272zM158 1663q0 66 42 109t109 43t109.5 -43t42.5 -109q0 -67 -42.5 -109.5t-109.5 -42.5t-109 42t-42 110z" />
    <glyph glyph-name="dotlessi" unicode="&#x131;" horiz-adv-x="530" 
d="M133 0v1004h262v-1004h-262z" />
    <glyph glyph-name="IJ" unicode="&#x132;" horiz-adv-x="1544" 
d="M172 0v1376h272v-1376h-272zM1372 1376v-987q0 -184 -119.5 -299t-310.5 -115q-142 0 -289 39l35 209q110 -26 193 -26q96 0 157.5 60.5t61.5 158.5v960h272z" />
    <glyph glyph-name="ij" unicode="&#x133;" horiz-adv-x="1077" 
d="M133 0v1004h262v-1004h-262zM109 1290q0 69 43.5 113.5t111.5 44.5q69 0 113.5 -44.5t44.5 -113.5t-44.5 -113t-113.5 -44q-68 0 -111.5 44t-43.5 113zM942 1004v-1131q0 -145 -93.5 -234.5t-244.5 -89.5q-103 0 -227 31l35 197q74 -19 129 -19q63 0 101 39.5t38 102.5
v1104h262zM655 1290q0 69 44 113.5t112 44.5q69 0 113.5 -44.5t44.5 -113.5t-44.5 -113t-113.5 -44q-68 0 -112 44t-44 113z" />
    <glyph glyph-name="Jcircumflex" unicode="&#x134;" horiz-adv-x="925" 
d="M754 1376v-987q0 -184 -119.5 -299t-310.5 -115q-142 0 -289 39l35 209q110 -26 192 -26q96 0 157.5 60.5t61.5 158.5v960h273zM281 1591l256 244h159l256 -244l-112 -123l-224 189l-223 -189z" />
    <glyph glyph-name="jcircumflex" unicode="&#x135;" horiz-adv-x="546" 
d="M412 1004v-1131q0 -145 -93.5 -234.5t-244.5 -89.5q-104 0 -228 31l35 197q74 -19 129 -19q63 0 101.5 39.5t38.5 102.5v1104h262zM-55 1219l256 243h159l256 -243l-112 -123l-223 188l-224 -188z" />
    <glyph glyph-name="Kcommaaccent" unicode="&#x136;" horiz-adv-x="1394" 
d="M172 0v1376h262v-653l608 653h314l-606 -643l634 -733h-319l-498 573l-133 -139v-434h-262zM571 -231q0 63 39.5 102t102.5 39q64 0 104.5 -47.5t40.5 -120.5q0 -108 -58 -202t-165 -158l-68 92q100 85 121 174q-50 -1 -83.5 34t-33.5 87z" />
    <glyph glyph-name="kcommaaccent" unicode="&#x137;" horiz-adv-x="1087" 
d="M133 0v1442h252v-867l383 429h299l-432 -469l448 -535h-303l-315 381l-80 -82v-299h-252zM401 -231q0 63 39.5 102t102.5 39q64 0 104.5 -47.5t40.5 -120.5q0 -108 -58 -202t-165 -158l-68 92q100 85 121 174q-50 -1 -83.5 34t-33.5 87z" />
    <glyph glyph-name="kgreenlandic" unicode="&#x138;" horiz-adv-x="1087" 
d="M133 0v1004h252v-429l383 429h299l-432 -469l448 -535h-303l-315 381l-80 -82v-299h-252z" />
    <glyph glyph-name="Lacute" unicode="&#x139;" horiz-adv-x="1101" 
d="M172 0v1376h272v-1167h613v-209h-885zM639 1708l-395 -240l-101 144l379 264z" />
    <glyph glyph-name="lacute" unicode="&#x13a;" horiz-adv-x="628" 
d="M395 1442v-1155q0 -47 28.5 -75t74.5 -28q18 0 90 13l28 -199q-108 -23 -182 -23q-138 0 -219.5 77t-81.5 208v1182h262zM594 1774l-395 -240l-101 143l379 265z" />
    <glyph glyph-name="Lcommaaccent" unicode="&#x13b;" horiz-adv-x="1101" 
d="M172 0v1376h272v-1167h613v-209h-885zM475 -231q0 63 39 102t102 39q64 0 105 -47.5t41 -120.5q0 -108 -58 -202t-165 -158l-68 92q100 85 121 174q-50 -1 -83.5 34t-33.5 87z" />
    <glyph glyph-name="lcommaaccent" unicode="&#x13c;" horiz-adv-x="628" 
d="M395 1442v-1155q0 -47 28.5 -75t74.5 -28q18 0 90 13l28 -199q-108 -23 -182 -23q-138 0 -219.5 77t-81.5 208v1182h262zM217 -231q0 63 39 102t102 39q64 0 105 -47.5t41 -120.5q0 -108 -58 -202t-165 -158l-68 92q100 85 121 174q-50 -1 -83.5 34t-33.5 87z" />
    <glyph glyph-name="Lcaron" unicode="&#x13d;" horiz-adv-x="1101" 
d="M172 0v1376h272v-1167h613v-209h-885zM891 1391l-150 -365l-172 59l131 371z" />
    <glyph glyph-name="lcaron" unicode="&#x13e;" horiz-adv-x="608" 
d="M395 1442v-1155q0 -47 28.5 -75t74.5 -28q18 0 90 13l28 -199q-108 -23 -182 -23q-138 0 -219.5 77t-81.5 208v1182h262zM809 1456l-150 -364l-172 59l131 371z" />
    <glyph glyph-name="Ldot" unicode="&#x13f;" horiz-adv-x="1134" 
d="M172 0v1376h272v-1167h613v-209h-885zM725 731q0 66 42.5 109t109.5 43t109 -43t42 -109q0 -67 -42 -109t-109 -42q-68 0 -110 42t-42 109z" />
    <glyph glyph-name="ldot" unicode="&#x140;" horiz-adv-x="798" 
d="M395 1442v-1155q0 -47 28.5 -75t74.5 -28q18 0 90 13l28 -199q-108 -23 -182 -23q-138 0 -219.5 77t-81.5 208v1182h262zM512 705q0 66 42.5 108.5t109.5 42.5t109 -42.5t42 -108.5q0 -68 -42 -110t-109 -42q-68 0 -110 42.5t-42 109.5z" />
    <glyph glyph-name="Lslash" unicode="&#x141;" horiz-adv-x="1134" 
d="M205 0v522l-113 -55l-84 158l197 100v651h272v-516l230 115l86 -158l-316 -158v-450h613v-209h-885z" />
    <glyph glyph-name="lslash" unicode="&#x142;" horiz-adv-x="694" 
d="M-63 657l213 107v678h262v-547l163 82l84 -160l-247 -123v-407q0 -47 28 -75t74 -28q18 0 90 13l29 -199q-108 -23 -182 -23q-135 0 -218 79.5t-83 205.5v303l-130 -65z" />
    <glyph glyph-name="Nacute" unicode="&#x143;" horiz-adv-x="1624" 
d="M172 0v1376h264l731 -1003v1003h252v-1376h-264l-731 1004v-1004h-252zM1126 1708l-395 -240l-100 144l379 264z" />
    <glyph glyph-name="nacute" unicode="&#x144;" 
d="M133 0v1004h209l33 -146q57 82 147 126t199 44q172 0 281.5 -107t109.5 -276v-645h-262v604q0 92 -59 150.5t-150 58.5q-107 0 -176.5 -72.5t-69.5 -187.5v-553h-262zM952 1335l-395 -239l-100 143l379 264z" />
    <glyph glyph-name="Ncommaaccent" unicode="&#x145;" horiz-adv-x="1591" 
d="M172 0v1376h264l731 -1003v1003h252v-1376h-264l-731 1004v-1004h-252zM655 -231q0 63 39.5 102t102.5 39q64 0 104.5 -47.5t40.5 -120.5q0 -108 -58 -202t-165 -158l-68 92q100 85 121 174q-50 -1 -83.5 34t-33.5 87z" />
    <glyph glyph-name="ncommaaccent" unicode="&#x146;" 
d="M133 0v1004h209l33 -146q57 82 147 126t199 44q172 0 281.5 -107t109.5 -276v-645h-262v604q0 92 -59 150.5t-150 58.5q-107 0 -176.5 -72.5t-69.5 -187.5v-553h-262zM481 -231q0 63 39.5 102t102.5 39q64 0 104.5 -47.5t40.5 -120.5q0 -108 -58 -202t-165 -158l-68 92
q100 85 121 174q-50 -1 -83.5 34t-33.5 87z" />
    <glyph glyph-name="Ncaron" unicode="&#x147;" horiz-adv-x="1591" 
d="M172 0v1376h264l731 -1003v1003h252v-1376h-264l-731 1004v-1004h-252zM1133 1735l-256 -246h-160l-256 246l112 120l224 -186l223 186z" />
    <glyph glyph-name="ncaron" unicode="&#x148;" 
d="M133 0v1004h209l33 -146q57 82 147 126t199 44q172 0 281.5 -107t109.5 -276v-645h-262v604q0 92 -59 150.5t-150 58.5q-107 0 -176.5 -72.5t-69.5 -187.5v-553h-262zM958 1362l-256 -246h-159l-256 246l112 121l224 -187l223 187z" />
    <glyph glyph-name="napostrophe" unicode="&#x149;" horiz-adv-x="1574" 
d="M479 0v1004h209l33 -146q57 82 147 126t199 44q172 0 281.5 -107t109.5 -276v-645h-262v604q0 92 -59 150.5t-150 58.5q-107 0 -176.5 -72.5t-69.5 -187.5v-553h-262zM72 1270q0 63 39 102t102 39q64 0 104.5 -47.5t40.5 -120.5q0 -108 -58 -202t-165 -158l-67 92
q99 83 120 174q-50 -1 -83 34t-33 87z" />
    <glyph glyph-name="Eng" unicode="&#x14a;" horiz-adv-x="1591" 
d="M172 0v1376h264l731 -1003v1003h252v-1413q0 -184 -119.5 -299t-310.5 -115q-142 0 -289 39l35 209q120 -26 207 -26q93 0 154 52t61 130v45l-733 1006v-1004h-252z" />
    <glyph glyph-name="eng" unicode="&#x14b;" 
d="M133 0v1004h209l33 -146q57 82 146.5 126t199.5 44q173 0 282 -107.5t109 -279.5v-768q0 -145 -94 -234.5t-246 -89.5q-101 0 -225 31l35 197q74 -19 129 -19q63 0 101 39.5t38 102.5v700q0 94 -58.5 153.5t-150.5 59.5q-107 0 -176.5 -71t-69.5 -181v-561h-262z" />
    <glyph glyph-name="Omacron" unicode="&#x14c;" horiz-adv-x="1591" 
d="M80 688q0 155 53 287.5t147 226t227.5 146.5t289.5 53q207 0 370.5 -90.5t254.5 -253t91 -369.5t-91 -369.5t-254.5 -253t-370.5 -90.5q-156 0 -289.5 53t-227.5 146.5t-147 226t-53 287.5zM356 688q0 -218 124 -358t317 -140t315.5 139.5t122.5 358.5t-122.5 358.5
t-315.5 139.5t-317 -140t-124 -358zM477 1573v178h639v-178h-639z" />
    <glyph glyph-name="omacron" unicode="&#x14d;" 
d="M74 502q0 232 151 379t389 147q239 0 391 -147t152 -379t-152 -379.5t-391 -147.5q-238 0 -389 147.5t-151 379.5zM340 502q0 -141 77 -231.5t197 -90.5q121 0 199 90.5t78 231.5q0 142 -77.5 231.5t-199.5 89.5q-120 0 -197 -89.5t-77 -231.5zM295 1200v178h639v-178
h-639z" />
    <glyph glyph-name="Obreve" unicode="&#x14e;" horiz-adv-x="1591" 
d="M80 688q0 155 53 287.5t147 226t227.5 146.5t289.5 53q207 0 370.5 -90.5t254.5 -253t91 -369.5t-91 -369.5t-254.5 -253t-370.5 -90.5q-156 0 -289.5 53t-227.5 146.5t-147 226t-53 287.5zM356 688q0 -218 124 -358t317 -140t315.5 139.5t122.5 358.5t-122.5 358.5
t-315.5 139.5t-317 -140t-124 -358zM457 1802h170q3 -67 49.5 -108t116.5 -41t116 41t49 108h170q-6 -151 -99.5 -240t-235.5 -89t-236 89t-100 240z" />
    <glyph glyph-name="obreve" unicode="&#x14f;" 
d="M74 502q0 232 151 379t389 147q239 0 391 -147t152 -379t-152 -379.5t-391 -147.5q-238 0 -389 147.5t-151 379.5zM340 502q0 -141 77 -231.5t197 -90.5q121 0 199 90.5t78 231.5q0 142 -77.5 231.5t-199.5 89.5q-120 0 -197 -89.5t-77 -231.5zM274 1430h170
q3 -67 49.5 -108.5t116.5 -41.5t116.5 41.5t49.5 108.5h170q-6 -151 -100 -240.5t-236 -89.5t-236 89.5t-100 240.5z" />
    <glyph glyph-name="Ohungarumlaut" unicode="&#x150;" horiz-adv-x="1591" 
d="M80 688q0 155 53 287.5t147 226t227.5 146.5t289.5 53q207 0 370.5 -90.5t254.5 -253t91 -369.5t-91 -369.5t-254.5 -253t-370.5 -90.5q-156 0 -289.5 53t-227.5 146.5t-147 226t-53 287.5zM356 688q0 -218 124 -358t317 -140t315.5 139.5t122.5 358.5t-122.5 358.5
t-315.5 139.5t-317 -140t-124 -358zM1331 1776l-330 -314l-131 133l312 330zM879 1776l-330 -314l-131 133l311 330z" />
    <glyph glyph-name="ohungarumlaut" unicode="&#x151;" 
d="M74 502q0 232 151 379t389 147q239 0 391 -147t152 -379t-152 -379.5t-391 -147.5q-238 0 -389 147.5t-151 379.5zM340 502q0 -141 77 -231.5t197 -90.5q121 0 199 90.5t78 231.5q0 142 -77.5 231.5t-199.5 89.5q-120 0 -197 -89.5t-77 -231.5zM1149 1403l-330 -313
l-131 133l311 329zM696 1403l-329 -313l-131 133l311 329z" />
    <glyph glyph-name="OE" unicode="&#x152;" horiz-adv-x="2064" 
d="M80 688q0 306 193 497t505 191h1164v-205h-666v-366h600v-201h-600v-399h698v-205h-1196q-313 0 -505.5 190t-192.5 498zM356 688q0 -210 127.5 -344.5t325.5 -134.5h195v958h-195q-198 0 -325.5 -134.5t-127.5 -344.5z" />
    <glyph glyph-name="oe" unicode="&#x153;" horiz-adv-x="1949" 
d="M74 502q0 232 151 379t389 147q130 0 238 -56t172 -153q66 98 166.5 153.5t220.5 55.5q213 0 347 -141.5t134 -366.5q0 -57 -4 -84h-731q15 -120 102 -193t216 -73q138 0 288 84l80 -178q-203 -101 -399 -101q-133 0 -242.5 56.5t-175.5 158.5q-66 -100 -173.5 -157.5
t-238.5 -57.5q-238 0 -389 147.5t-151 379.5zM340 502q0 -141 77 -231.5t197 -90.5q121 0 199 90.5t78 231.5q0 142 -77.5 231.5t-199.5 89.5q-120 0 -197 -89.5t-77 -231.5zM1411 834q-102 0 -171 -66t-83 -174h485q-8 108 -71 174t-160 66z" />
    <glyph glyph-name="Racute" unicode="&#x154;" horiz-adv-x="1351" 
d="M172 0v1376h573q207 0 340.5 -121t133.5 -311q0 -153 -86.5 -261.5t-231.5 -139.5l377 -543h-297l-334 502h-213v-502h-262zM434 1167v-454h271q108 0 176.5 62.5t68.5 164.5q0 100 -69 163.5t-176 63.5h-271zM1022 1708l-395 -240l-101 144l379 264z" />
    <glyph glyph-name="racute" unicode="&#x155;" horiz-adv-x="821" 
d="M133 0v1004h209l33 -156q43 82 121 127t176 45q64 0 121 -14l-25 -209q-61 14 -117 14q-116 0 -186 -81.5t-70 -211.5v-518h-262zM770 1335l-395 -239l-101 143l379 264z" />
    <glyph glyph-name="Rcommaaccent" unicode="&#x156;" horiz-adv-x="1351" 
d="M172 0v1376h573q207 0 340.5 -121t133.5 -311q0 -153 -86.5 -261.5t-231.5 -139.5l377 -543h-297l-334 502h-213v-502h-262zM434 1167v-454h271q108 0 176.5 62.5t68.5 164.5q0 100 -69 163.5t-176 63.5h-271zM551 -231q0 63 39 102t102 39q64 0 105 -47.5t41 -120.5
q0 -107 -58.5 -201.5t-165.5 -158.5l-67 92q100 85 121 174q-50 -1 -83.5 34t-33.5 87z" />
    <glyph glyph-name="rcommaaccent" unicode="&#x157;" horiz-adv-x="821" 
d="M133 0v1004h209l33 -156q43 82 121 127t176 45q64 0 121 -14l-25 -209q-61 14 -117 14q-116 0 -186 -81.5t-70 -211.5v-518h-262zM123 -231q0 63 39 102t102 39q64 0 105 -47.5t41 -120.5q0 -107 -58.5 -201.5t-165.5 -158.5l-67 92q100 85 121 174q-50 -1 -83.5 34
t-33.5 87z" />
    <glyph glyph-name="Rcaron" unicode="&#x158;" horiz-adv-x="1351" 
d="M172 0v1376h573q207 0 340.5 -121t133.5 -311q0 -153 -86.5 -261.5t-231.5 -139.5l377 -543h-297l-334 502h-213v-502h-262zM434 1167v-454h271q108 0 176.5 62.5t68.5 164.5q0 100 -69 163.5t-176 63.5h-271zM1028 1735l-256 -246h-160l-256 246l113 120l223 -186
l223 186z" />
    <glyph glyph-name="rcaron" unicode="&#x159;" horiz-adv-x="821" 
d="M133 0v1004h209l33 -156q43 82 121 127t176 45q64 0 121 -14l-25 -209q-61 14 -117 14q-116 0 -186 -81.5t-70 -211.5v-518h-262zM776 1362l-256 -246h-160l-256 246l113 121l223 -187l224 187z" />
    <glyph glyph-name="Sacute" unicode="&#x15a;" horiz-adv-x="1204" 
d="M92 1008q0 175 142 284t368 109q216 0 469 -96l-61 -203q-212 84 -387 84q-120 0 -191.5 -48t-71.5 -130q0 -47 26 -81.5t70 -56.5t101 -39t120 -34t126 -36.5t120 -51t101 -73.5t70 -108t26 -151q0 -180 -143.5 -291t-374.5 -111q-249 0 -518 113l61 203
q265 -101 437 -101q126 0 199 50.5t73 136.5q0 48 -26 84t-70 58.5t-101.5 40.5t-120.5 35t-126 37t-120.5 51t-101.5 72t-70 105.5t-26 147.5zM932 1708l-395 -240l-101 144l379 264z" />
    <glyph glyph-name="sacute" unicode="&#x15b;" horiz-adv-x="948" 
d="M82 725q0 133 109 218t282 85q171 0 369 -70l-58 -188q-164 64 -290 64q-71 0 -113.5 -30t-42.5 -79q0 -36 29.5 -60.5t77 -38.5t104.5 -27t114 -34t104.5 -52.5t77 -89t29.5 -136.5q0 -137 -111.5 -224.5t-289.5 -87.5q-186 0 -399 80l55 187q179 -72 324 -72
q75 0 119 32t44 85q0 38 -29.5 63.5t-76.5 40t-104 28t-114 34.5t-104 51.5t-76.5 87t-29.5 133.5zM803 1335l-395 -239l-101 143l379 264z" />
    <glyph glyph-name="Scircumflex" unicode="&#x15c;" horiz-adv-x="1204" 
d="M92 1008q0 175 142 284t368 109q216 0 469 -96l-61 -203q-212 84 -387 84q-120 0 -191.5 -48t-71.5 -130q0 -47 26 -81.5t70 -56.5t101 -39t120 -34t126 -36.5t120 -51t101 -73.5t70 -108t26 -151q0 -180 -143.5 -291t-374.5 -111q-249 0 -518 113l61 203
q265 -101 437 -101q126 0 199 50.5t73 136.5q0 48 -26 84t-70 58.5t-101.5 40.5t-120.5 35t-126 37t-120.5 51t-101.5 72t-70 105.5t-26 147.5zM266 1591l256 244h160l256 -244l-113 -123l-223 189l-223 -189z" />
    <glyph glyph-name="scircumflex" unicode="&#x15d;" horiz-adv-x="948" 
d="M82 725q0 133 109 218t282 85q171 0 369 -70l-58 -188q-164 64 -290 64q-71 0 -113.5 -30t-42.5 -79q0 -36 29.5 -60.5t77 -38.5t104.5 -27t114 -34t104.5 -52.5t77 -89t29.5 -136.5q0 -137 -111.5 -224.5t-289.5 -87.5q-186 0 -399 80l55 187q179 -72 324 -72
q75 0 119 32t44 85q0 38 -29.5 63.5t-76.5 40t-104 28t-114 34.5t-104 51.5t-76.5 87t-29.5 133.5zM137 1219l256 243h160l256 -243l-113 -123l-223 188l-223 -188z" />
    <glyph glyph-name="Scedilla" unicode="&#x15e;" horiz-adv-x="1204" 
d="M92 1008q0 175 142 284t368 109q216 0 469 -96l-61 -203q-212 84 -387 84q-120 0 -191.5 -48t-71.5 -130q0 -47 26 -81.5t70 -56.5t101 -39t120 -34t126 -36.5t120 -51t101 -73.5t70 -108t26 -151q0 -158 -112.5 -264t-302.5 -129l-13 -74q66 -15 107 -65t41 -119
q0 -89 -76.5 -144t-198.5 -55q-109 0 -205 37l43 147q74 -26 136 -26q40 0 65 18.5t25 48.5t-29 49t-76 19h-26l28 160q-222 13 -442 108l61 203q265 -101 437 -101q126 0 199 50.5t73 136.5q0 48 -26 84t-70 58.5t-101.5 40.5t-120.5 35t-126 37t-120.5 51t-101.5 72
t-70 105.5t-26 147.5z" />
    <glyph glyph-name="scedilla" unicode="&#x15f;" horiz-adv-x="948" 
d="M82 725q0 133 109 218t282 85q171 0 369 -70l-58 -188q-164 64 -290 64q-71 0 -113.5 -30t-42.5 -79q0 -36 29.5 -60.5t77 -38.5t104.5 -27t114 -34t104.5 -52.5t77 -89t29.5 -136.5q0 -115 -81 -196.5t-215 -104.5l-15 -76q66 -15 107 -65t41 -119q0 -89 -76.5 -144
t-198.5 -55q-109 0 -205 37l43 147q74 -26 136 -26q40 0 65 18.5t25 48.5t-29 49t-76 19h-26l28 160q-168 13 -323 75l55 187q179 -72 324 -72q75 0 119 32t44 85q0 38 -29.5 63.5t-76.5 40t-104 28t-114 34.5t-104 51.5t-76.5 87t-29.5 133.5z" />
    <glyph glyph-name="Scaron" unicode="&#x160;" horiz-adv-x="1204" 
d="M92 1008q0 175 142 284t368 109q216 0 469 -96l-61 -203q-212 84 -387 84q-120 0 -191.5 -48t-71.5 -130q0 -47 26 -81.5t70 -56.5t101 -39t120 -34t126 -36.5t120 -51t101 -73.5t70 -108t26 -151q0 -180 -143.5 -291t-374.5 -111q-249 0 -518 113l61 203
q265 -101 437 -101q126 0 199 50.5t73 136.5q0 48 -26 84t-70 58.5t-101.5 40.5t-120.5 35t-126 37t-120.5 51t-101.5 72t-70 105.5t-26 147.5zM938 1735l-256 -246h-160l-256 246l113 120l223 -186l223 186z" />
    <glyph glyph-name="scaron" unicode="&#x161;" horiz-adv-x="948" 
d="M82 725q0 133 109 218t282 85q171 0 369 -70l-58 -188q-164 64 -290 64q-71 0 -113.5 -30t-42.5 -79q0 -36 29.5 -60.5t77 -38.5t104.5 -27t114 -34t104.5 -52.5t77 -89t29.5 -136.5q0 -137 -111.5 -224.5t-289.5 -87.5q-186 0 -399 80l55 187q179 -72 324 -72
q75 0 119 32t44 85q0 38 -29.5 63.5t-76.5 40t-104 28t-114 34.5t-104 51.5t-76.5 87t-29.5 133.5zM809 1362l-256 -246h-160l-256 246l113 121l223 -187l223 187z" />
    <glyph glyph-name="Tcommaaccent" unicode="&#x162;" horiz-adv-x="1232" 
d="M481 0v1167h-436v209h1143v-209h-434v-1167h-273zM475 -231q0 63 39 102t102 39q64 0 105 -47.5t41 -120.5q0 -108 -58 -202t-165 -158l-68 92q100 85 121 174q-50 -1 -83.5 34t-33.5 87z" />
    <glyph glyph-name="tcommaaccent" unicode="&#x163;" horiz-adv-x="849" 
d="M494 1298v-294h278v-199h-278v-479q0 -63 39 -102.5t102 -39.5q55 0 129 19l35 -197q-124 -31 -228 -31q-151 0 -245.5 90t-94.5 234v506h-186v199h186v294h263zM354 -231q0 63 39.5 102t102.5 39q64 0 104.5 -47.5t40.5 -120.5q0 -108 -58 -202t-165 -158l-68 92
q100 85 121 174q-50 -1 -83.5 34t-33.5 87z" />
    <glyph glyph-name="Tcaron" unicode="&#x164;" horiz-adv-x="1232" 
d="M481 0v1167h-436v209h1143v-209h-434v-1167h-273zM958 1735l-256 -246h-159l-256 246l112 120l224 -186l223 186z" />
    <glyph glyph-name="tcaron" unicode="&#x165;" horiz-adv-x="849" 
d="M494 1298v-294h278v-199h-278v-479q0 -63 39 -102.5t102 -39.5q55 0 129 19l35 -197q-124 -31 -228 -31q-151 0 -245.5 90t-94.5 234v506h-186v199h186v294h263zM891 1456l-150 -364l-172 59l131 371z" />
    <glyph glyph-name="Tbar" unicode="&#x166;" horiz-adv-x="1232" 
d="M481 0v551h-260v199h260v417h-436v209h1143v-209h-434v-417h260v-199h-260v-551h-273z" />
    <glyph glyph-name="tbar" unicode="&#x167;" horiz-adv-x="849" 
d="M494 1298v-294h278v-199h-278v-207h245v-178h-245v-101q0 -60 39 -97.5t102 -37.5q55 0 129 19l35 -197q-124 -31 -228 -31q-151 0 -245.5 89t-94.5 235v121h-170v178h170v207h-186v199h186v294h263z" />
    <glyph glyph-name="Utilde" unicode="&#x168;" horiz-adv-x="1591" 
d="M1436 1376v-837q0 -165 -82 -293.5t-227.5 -199.5t-329.5 -71t-330 71t-228.5 200t-82.5 293v837h272v-827q0 -158 103.5 -258.5t265.5 -100.5q160 0 263 100.5t103 258.5v827h273zM666 1788q56 0 136.5 -36t104.5 -36q52 0 78 72l158 -47q-15 -92 -73.5 -147.5
t-141.5 -55.5q-56 0 -137 36t-105 36q-28 0 -48.5 -19t-29.5 -53l-157 45q15 93 73.5 149t141.5 56z" />
    <glyph glyph-name="utilde" unicode="&#x169;" 
d="M1096 1004v-1004h-209l-33 145q-55 -82 -145 -126t-199 -44q-172 0 -282.5 107.5t-110.5 275.5v646h262v-603q0 -93 59 -152t152 -59q106 0 175 73t69 188v553h262zM475 1415q56 0 137 -36t105 -36q52 0 78 72l157 -47q-15 -92 -73.5 -147.5t-141.5 -55.5
q-56 0 -136.5 36t-104.5 36q-28 0 -48.5 -19t-29.5 -53l-158 45q15 93 73.5 149t141.5 56z" />
    <glyph glyph-name="Umacron" unicode="&#x16a;" horiz-adv-x="1591" 
d="M1436 1376v-837q0 -165 -82 -293.5t-227.5 -199.5t-329.5 -71t-330 71t-228.5 200t-82.5 293v837h272v-827q0 -158 103.5 -258.5t265.5 -100.5q160 0 263 100.5t103 258.5v827h273zM477 1573v178h639v-178h-639z" />
    <glyph glyph-name="umacron" unicode="&#x16b;" 
d="M1096 1004v-1004h-209l-33 145q-55 -82 -145 -126t-199 -44q-172 0 -282.5 107.5t-110.5 275.5v646h262v-603q0 -93 59 -152t152 -59q106 0 175 73t69 188v553h262zM287 1200v178h639v-178h-639z" />
    <glyph glyph-name="Ubreve" unicode="&#x16c;" horiz-adv-x="1591" 
d="M1436 1376v-837q0 -165 -82 -293.5t-227.5 -199.5t-329.5 -71t-330 71t-228.5 200t-82.5 293v837h272v-827q0 -158 103.5 -258.5t265.5 -100.5q160 0 263 100.5t103 258.5v827h273zM457 1802h170q3 -67 49.5 -108t116.5 -41t116 41t49 108h170q-6 -151 -99.5 -240
t-235.5 -89t-236 89t-100 240z" />
    <glyph glyph-name="ubreve" unicode="&#x16d;" 
d="M1096 1004v-1004h-209l-33 145q-55 -82 -145 -126t-199 -44q-172 0 -282.5 107.5t-110.5 275.5v646h262v-603q0 -93 59 -152t152 -59q106 0 175 73t69 188v553h262zM266 1430h170q3 -67 49.5 -108.5t116.5 -41.5t116.5 41.5t49.5 108.5h170q-6 -151 -100 -240.5
t-236 -89.5t-236 89.5t-100 240.5z" />
    <glyph glyph-name="Uring" unicode="&#x16e;" horiz-adv-x="1591" 
d="M1436 1376v-837q0 -165 -82 -293.5t-227.5 -199.5t-329.5 -71t-330 71t-228.5 200t-82.5 293v837h272v-827q0 -158 103.5 -258.5t265.5 -100.5q160 0 263 100.5t103 258.5v827h273zM575 1663q0 94 62 152.5t160 58.5t159.5 -58.5t61.5 -152.5t-60.5 -152.5t-158.5 -58.5
q-99 0 -161.5 59t-62.5 152zM700 1663q0 -42 28 -69t71 -27q41 0 67.5 26.5t26.5 69.5q0 42 -27 68t-69 26q-43 0 -70 -26t-27 -68z" />
    <glyph glyph-name="uring" unicode="&#x16f;" 
d="M1096 1004v-1004h-209l-33 145q-55 -82 -145 -126t-199 -44q-172 0 -282.5 107.5t-110.5 275.5v646h262v-603q0 -93 59 -152t152 -59q106 0 175 73t69 188v553h262zM385 1290q0 94 61.5 152.5t159.5 58.5t159.5 -58.5t61.5 -152.5t-60.5 -152.5t-158.5 -58.5t-160.5 58.5
t-62.5 152.5zM510 1290q0 -43 27.5 -69.5t70.5 -26.5q41 0 67.5 26.5t26.5 69.5q0 42 -27 68t-69 26q-43 0 -69.5 -25.5t-26.5 -68.5z" />
    <glyph glyph-name="Uhungarumlaut" unicode="&#x170;" horiz-adv-x="1591" 
d="M1436 1376v-837q0 -165 -82 -293.5t-227.5 -199.5t-329.5 -71t-330 71t-228.5 200t-82.5 293v837h272v-827q0 -158 103.5 -258.5t265.5 -100.5q160 0 263 100.5t103 258.5v827h273zM1331 1776l-330 -314l-131 133l312 330zM879 1776l-330 -314l-131 133l311 330z" />
    <glyph glyph-name="uhungarumlaut" unicode="&#x171;" 
d="M1096 1004v-1004h-209l-33 145q-55 -82 -145 -126t-199 -44q-172 0 -282.5 107.5t-110.5 275.5v646h262v-603q0 -93 59 -152t152 -59q106 0 175 73t69 188v553h262zM1141 1403l-330 -313l-131 133l311 329zM688 1403l-330 -313l-131 133l312 329z" />
    <glyph glyph-name="Uogonek" unicode="&#x172;" horiz-adv-x="1591" 
d="M1436 1376v-817q0 -179 -92 -309.5t-277 -235.5q-242 -138 -242 -245q0 -39 25.5 -61.5t64.5 -22.5q36 0 66 12l37 -141q-80 -29 -166 -29q-99 0 -160 51.5t-61 142.5q0 139 170 256q-41 -2 -105 5q-146 14 -268.5 87t-197 197t-74.5 273v837h272v-827
q0 -158 104.5 -258.5t264.5 -100.5q159 0 262.5 101.5t103.5 257.5v827h273z" />
    <glyph glyph-name="uogonek" unicode="&#x173;" 
d="M1096 1004v-1004q-166 -131 -166 -231q0 -39 26 -61.5t64 -22.5q34 0 72 12l30 -143q-80 -27 -166 -27q-98 0 -159.5 52.5t-61.5 141.5q0 145 176 279h-24l-33 145q-55 -82 -145 -126t-199 -44q-172 0 -282.5 107.5t-110.5 275.5v646h262v-603q0 -93 59 -152t152 -59
q106 0 175 73t69 188v553h262z" />
    <glyph glyph-name="Wcircumflex" unicode="&#x174;" horiz-adv-x="2082" 
d="M2050 1376l-438 -1376h-266l-304 1047l-305 -1047h-266l-438 1376h274l303 -1046l305 1046h254l304 -1046l305 1046h272zM707 1591l256 244h159l256 -244l-112 -123l-224 189l-223 -189z" />
    <glyph glyph-name="wcircumflex" unicode="&#x175;" horiz-adv-x="1624" 
d="M1587 1004l-325 -1004h-254l-197 705l-195 -705h-254l-327 1004h264l195 -705l196 705h244l194 -705l197 705h262zM475 1219l256 243h160l256 -243l-113 -123l-223 188l-223 -188z" />
    <glyph glyph-name="Ycircumflex" unicode="&#x176;" horiz-adv-x="1263" 
d="M496 0v559l-504 817h297l342 -575l344 575h295l-502 -817v-559h-272zM295 1591l256 244h160l256 -244l-113 -123l-223 189l-223 -189z" />
    <glyph glyph-name="ycircumflex" unicode="&#x177;" horiz-adv-x="1099" 
d="M1079 1004l-446 -1117q-68 -171 -166.5 -254.5t-235.5 -83.5q-65 0 -155 19l35 205q66 -15 96 -15q67 0 110.5 38.5t79.5 127.5l35 88l-414 992h275l260 -707l254 707h272zM213 1219l256 243h160l256 -243l-113 -123l-223 188l-223 -188z" />
    <glyph glyph-name="Ydieresis" unicode="&#x178;" horiz-adv-x="1263" 
d="M496 0v559l-504 817h297l342 -575l344 575h295l-502 -817v-559h-272zM262 1663q0 63 39 102t102 39t102.5 -39t39.5 -102t-39.5 -102t-102.5 -39t-102 39t-39 102zM717 1663q0 63 39 102t102 39t102 -39t39 -102t-39 -102t-102 -39t-102 39t-39 102z" />
    <glyph glyph-name="Zacute" unicode="&#x179;" horiz-adv-x="1302" 
d="M84 0v156l760 1011h-735v209h1085v-155l-760 -1012h785v-209h-1135zM981 1708l-395 -240l-101 144l379 264z" />
    <glyph glyph-name="zacute" unicode="&#x17a;" horiz-adv-x="1013" 
d="M74 0v145l510 660h-494v199h834v-144l-510 -661h526v-199h-866zM836 1335l-396 -239l-100 143l379 264z" />
    <glyph glyph-name="Zdotaccent" unicode="&#x17b;" horiz-adv-x="1302" 
d="M84 0v156l760 1011h-735v209h1085v-155l-760 -1012h785v-209h-1135zM500 1663q0 66 42 109t109 43t109.5 -43t42.5 -109q0 -67 -42.5 -109.5t-109.5 -42.5t-109 42t-42 110z" />
    <glyph glyph-name="zdotaccent" unicode="&#x17c;" horiz-adv-x="1013" 
d="M74 0v145l510 660h-494v199h834v-144l-510 -661h526v-199h-866zM354 1290q0 66 42.5 109t109.5 43t109 -43t42 -109q0 -68 -41.5 -109.5t-109.5 -41.5t-110 42t-42 109z" />
    <glyph glyph-name="Zcaron" unicode="&#x17d;" horiz-adv-x="1302" 
d="M84 0v156l760 1011h-735v209h1085v-155l-760 -1012h785v-209h-1135zM987 1735l-256 -246h-160l-256 246l113 120l223 -186l223 186z" />
    <glyph glyph-name="zcaron" unicode="&#x17e;" horiz-adv-x="1013" 
d="M74 0v145l510 660h-494v199h834v-144l-510 -661h526v-199h-866zM842 1362l-256 -246h-160l-256 246l113 121l223 -187l223 187z" />
    <glyph glyph-name="florin" unicode="&#x192;" horiz-adv-x="1179" 
d="M264 694v199h178v199q0 136 92 222.5t234 86.5q99 0 213 -27l-35 -205q-70 17 -110 17q-53 0 -87 -32t-34 -83v-178h211v-199h-211v-409q0 -136 -91.5 -223t-232.5 -87q-102 0 -213 27l33 205q77 -17 117 -17q51 0 82.5 32t31.5 83v389h-178z" />
    <glyph glyph-name="Acaron" unicode="&#x1cd;" horiz-adv-x="1394" 
d="M8 0l563 1376h252l563 -1376h-274l-127 328h-575l-127 -328h-275zM698 1077l-215 -551h430zM1032 1735l-256 -246h-160l-256 246l113 120l223 -186l224 186z" />
    <glyph glyph-name="acaron" unicode="&#x1ce;" horiz-adv-x="1128" 
d="M74 291q0 158 122 246t341 88q95 0 194 -21v53q0 77 -57 127t-150 50q-150 0 -329 -72l-66 182q221 84 426 84q190 0 306 -103.5t116 -271.5v-407q0 -32 19 -52t51 -20q27 0 51 6l18 -190q-81 -15 -139 -15q-76 0 -132 36t-83 100q-65 -65 -151.5 -100.5t-178.5 -35.5
q-157 0 -257.5 89t-100.5 227zM326 305q0 -61 50 -103t124 -42q104 0 167.5 65t63.5 168v60q-76 20 -164 20q-112 0 -176.5 -45t-64.5 -123zM899 1362l-256 -246h-160l-256 246l113 121l223 -187l223 187z" />
    <glyph glyph-name="Aringacute" unicode="&#x1fa;" horiz-adv-x="1433" 
d="M8 0l563 1376h252l563 -1376h-274l-127 328h-575l-127 -328h-275zM698 1077l-215 -551h430zM616 1657q0 -44 29.5 -72.5t73.5 -28.5q43 0 70.5 28.5t27.5 72.5t-28 72t-72 28t-72.5 -28t-28.5 -72zM1047 1909l-179 -101q70 -60 70 -151q0 -89 -60.5 -145t-158.5 -56
t-160.5 56t-62.5 145q0 108 98 174l346 233z" />
    <glyph glyph-name="aringacute" unicode="&#x1fb;" horiz-adv-x="1144" 
d="M74 291q0 158 122 246t341 88q95 0 194 -21v53q0 77 -57 127t-150 50q-150 0 -329 -72l-66 182q221 84 426 84q190 0 306 -103.5t116 -271.5v-407q0 -32 19 -52t51 -20q27 0 51 6l18 -190q-81 -15 -139 -15q-76 0 -132 36t-83 100q-65 -65 -151.5 -100.5t-178.5 -35.5
q-157 0 -257.5 89t-100.5 227zM326 305q0 -61 50 -103t124 -42q104 0 167.5 65t63.5 168v60q-76 20 -164 20q-112 0 -176.5 -45t-64.5 -123zM455 1284q0 -44 29 -72t73 -28q43 0 70.5 28t27.5 72t-28 72t-72 28t-72 -28t-28 -72zM885 1536l-178 -100q69 -59 69 -152
q0 -89 -60.5 -145t-158.5 -56t-160.5 56t-62.5 145q0 108 98 174l346 234z" />
    <glyph glyph-name="AEacute" unicode="&#x1fc;" horiz-adv-x="2007" 
d="M958 0v328h-495l-207 -328h-307l887 1376h1050v-205h-665v-366h600v-201h-600v-399h698v-205h-961zM958 1135l-380 -609h380v609zM1513 1708l-395 -240l-100 144l379 264z" />
    <glyph glyph-name="aeacute" unicode="&#x1fd;" horiz-adv-x="1769" 
d="M1214 1335l-395 -239l-100 143l379 264zM74 285q0 161 122 250.5t341 89.5q95 0 194 -21v53q0 77 -57 127t-150 50q-150 0 -329 -72l-66 182q221 84 426 84q111 0 197 -41.5t120 -109.5q64 73 157.5 112t201.5 39q214 0 347.5 -141t133.5 -367q0 -57 -4 -84h-731
q15 -120 101.5 -193t215.5 -73q138 0 291 84l78 -178q-195 -101 -395 -101q-128 0 -240.5 52.5t-187.5 148.5q-64 -95 -165 -148t-222 -53q-166 0 -272.5 87.5t-106.5 222.5zM1231 834q-102 0 -171 -66t-83 -174h485q-8 108 -71 174t-160 66zM326 305q0 -61 50 -103t124 -42
q104 0 167.5 65t63.5 168v60q-76 20 -164 20q-112 0 -176.5 -45t-64.5 -123z" />
    <glyph glyph-name="Oslashacute" unicode="&#x1fe;" horiz-adv-x="1591" 
d="M80 688q0 155 53 287.5t147 226t227.5 146.5t289.5 53q199 0 362 -94l109 143l127 -96l-103 -135q105 -95 163 -232t58 -299q0 -207 -90.5 -369.5t-254 -253t-371.5 -90.5q-200 0 -367 95l-106 -144l-127 97l100 133q-104 96 -160.5 233t-56.5 299zM336 688
q0 -206 108 -336l584 776q-104 68 -231 68q-204 0 -332.5 -142t-128.5 -366zM1255 688q0 199 -108 336l-582 -778q101 -66 232 -66q202 0 330 142t128 366zM1126 1708l-395 -240l-100 144l379 264z" />
    <glyph glyph-name="oslashacute" unicode="&#x1ff;" 
d="M74 502q0 232 151 379t389 147q146 0 260 -63l82 106l111 -82l-74 -98q164 -151 164 -389q0 -232 -152 -379.5t-391 -147.5q-144 0 -260 64l-80 -107l-110 84l72 95q-162 149 -162 391zM319 502q0 -115 60 -201l369 494q-58 39 -134 39q-130 0 -212.5 -92.5t-82.5 -239.5
zM911 502q0 118 -61 198l-369 -491q58 -39 133 -39q131 0 214 92.5t83 239.5zM944 1335l-395 -239l-100 143l378 264z" />
    <glyph glyph-name="Scommaaccent" unicode="&#x218;" horiz-adv-x="1204" 
d="M92 1008q0 175 142 284t368 109q216 0 469 -96l-61 -203q-212 84 -387 84q-120 0 -191.5 -48t-71.5 -130q0 -47 26 -81.5t70 -56.5t101 -39t120 -34t126 -36.5t120 -51t101 -73.5t70 -108t26 -151q0 -180 -143.5 -291t-374.5 -111q-249 0 -518 113l61 203
q265 -101 437 -101q126 0 199 50.5t73 136.5q0 48 -26 84t-70 58.5t-101.5 40.5t-120.5 35t-126 37t-120.5 51t-101.5 72t-70 105.5t-26 147.5zM461 -231q0 63 39 102t102 39q64 0 105 -47.5t41 -120.5q0 -107 -58.5 -201.5t-165.5 -158.5l-67 92q100 85 121 174
q-50 -1 -83.5 34t-33.5 87z" />
    <glyph glyph-name="scommaaccent" unicode="&#x219;" horiz-adv-x="948" 
d="M82 725q0 133 109 218t282 85q171 0 369 -70l-58 -188q-164 64 -290 64q-71 0 -113.5 -30t-42.5 -79q0 -36 29.5 -60.5t77 -38.5t104.5 -27t114 -34t104.5 -52.5t77 -89t29.5 -136.5q0 -137 -111.5 -224.5t-289.5 -87.5q-186 0 -399 80l55 187q179 -72 324 -72
q75 0 119 32t44 85q0 38 -29.5 63.5t-76.5 40t-104 28t-114 34.5t-104 51.5t-76.5 87t-29.5 133.5zM332 -231q0 63 39 102t102 39q64 0 104.5 -47.5t40.5 -120.5q0 -108 -58 -202t-165 -158l-67 92q100 85 121 174q-50 -1 -83.5 34t-33.5 87z" />
    <glyph glyph-name="uni021A" unicode="&#x21a;" horiz-adv-x="1232" 
d="M481 0v1167h-436v209h1143v-209h-434v-1167h-273zM475 -231q0 63 39 102t102 39q64 0 105 -47.5t41 -120.5q0 -108 -58 -202t-165 -158l-68 92q100 85 121 174q-50 -1 -83.5 34t-33.5 87z" />
    <glyph glyph-name="uni021B" unicode="&#x21b;" horiz-adv-x="849" 
d="M494 1298v-294h278v-199h-278v-479q0 -63 39 -102.5t102 -39.5q55 0 129 19l35 -197q-124 -31 -228 -31q-151 0 -245.5 90t-94.5 234v506h-186v199h186v294h263zM354 -231q0 63 39.5 102t102.5 39q64 0 104.5 -47.5t40.5 -120.5q0 -108 -58 -202t-165 -158l-68 92
q100 85 121 174q-50 -1 -83.5 34t-33.5 87z" />
    <glyph glyph-name="circumflex" unicode="&#x2c6;" horiz-adv-x="491" 
d="M-90 1219l256 243h160l256 -243l-113 -123l-223 188l-223 -188z" />
    <glyph glyph-name="caron" unicode="&#x2c7;" horiz-adv-x="491" 
d="M582 1362l-256 -246h-160l-256 246l113 121l223 -187l223 187z" />
    <glyph glyph-name="breve" unicode="&#x2d8;" horiz-adv-x="491" 
d="M-90 1430h170q3 -67 49.5 -108.5t116.5 -41.5t116.5 41.5t49.5 108.5h170q-6 -151 -100 -240.5t-236 -89.5t-236 89.5t-100 240.5z" />
    <glyph glyph-name="dotaccent" unicode="&#x2d9;" horiz-adv-x="491" 
d="M94 1290q0 66 42.5 109t109.5 43t109 -43t42 -109q0 -68 -41.5 -109.5t-109.5 -41.5t-110 42t-42 109z" />
    <glyph glyph-name="ring" unicode="&#x2da;" horiz-adv-x="491" 
d="M25 1290q0 94 61.5 152.5t159.5 58.5t159.5 -58.5t61.5 -152.5t-60.5 -152.5t-158.5 -58.5t-160.5 58.5t-62.5 152.5zM150 1290q0 -43 27.5 -69.5t70.5 -26.5q41 0 67.5 26.5t26.5 69.5q0 42 -27 68t-69 26q-43 0 -69.5 -25.5t-26.5 -68.5z" />
    <glyph glyph-name="ogonek" unicode="&#x2db;" horiz-adv-x="491" 
d="M236 31l141 -31q-166 -131 -166 -231q0 -39 26 -61.5t64 -22.5q35 0 72 12l30 -143q-80 -27 -165 -27q-98 0 -160 52.5t-62 141.5q0 78 57.5 158t162.5 152z" />
    <glyph glyph-name="tilde" unicode="&#x2dc;" horiz-adv-x="491" 
d="M115 1415q56 0 136.5 -36t104.5 -36q52 0 78 72l158 -47q-15 -92 -73.5 -147.5t-141.5 -55.5q-56 0 -137 36t-105 36q-28 0 -48.5 -19t-29.5 -53l-157 45q15 93 73.5 149t141.5 56z" />
    <glyph glyph-name="hungarumlaut" unicode="&#x2dd;" horiz-adv-x="491" 
d="M780 1403l-329 -313l-132 133l312 329zM328 1403l-330 -313l-131 133l311 329z" />
    <glyph glyph-name="commaaccent" unicode="&#x326;" horiz-adv-x="491" 
d="M104 -231q0 63 39.5 102t102.5 39q64 0 104.5 -47.5t40.5 -120.5q0 -108 -58 -202t-165 -158l-68 92q100 85 121 174q-50 -1 -83.5 34t-33.5 87z" />
    <glyph glyph-name="uni0374" unicode="&#x374;" horiz-adv-x="491" 
d="M492 1325l-220 -494l-186 68l174 510z" />
    <glyph glyph-name="uni0375" unicode="&#x375;" horiz-adv-x="491" 
d="M-33 -244l219 494l187 -68l-174 -508z" />
    <glyph glyph-name="uni037E" unicode="&#x37e;" horiz-adv-x="575" 
d="M123 141q0 71 46 117.5t118 46.5q75 0 122.5 -56t47.5 -145q0 -128 -69 -242t-193 -190l-80 103q123 101 149 215q-62 6 -101.5 48t-39.5 103zM123 860q0 72 46.5 118t117.5 46q72 0 118 -46t46 -118q0 -71 -46 -117.5t-118 -46.5q-71 0 -117.5 47t-46.5 117z" />
    <glyph glyph-name="tonos" unicode="&#x384;" horiz-adv-x="491" 
d="M471 1501l-162 -411l-180 61l139 418z" />
    <glyph glyph-name="dieresistonos" unicode="&#x385;" horiz-adv-x="491" 
d="M408 1524l-158 -428l-121 34l129 435zM-172 1290q0 58 36 94.5t95 36.5q57 0 94 -36.5t37 -94.5t-37 -94.5t-94 -36.5q-59 0 -95 36.5t-36 94.5zM401 1290q0 58 37 94.5t94 36.5q59 0 95.5 -36.5t36.5 -94.5t-36.5 -94.5t-95.5 -36.5q-57 0 -94 36.5t-37 94.5z" />
    <glyph glyph-name="Alphatonos" unicode="&#x386;" horiz-adv-x="1449" 
d="M61 0l564 1376h252l563 -1376h-275l-127 328h-575l-127 -328h-275zM752 1077l-215 -551h430zM373 1382l-162 -411l-180 61l139 418z" />
    <glyph glyph-name="anoteleia" unicode="&#x387;" horiz-adv-x="542" 
d="M106 502q0 72 46.5 118t117.5 46q72 0 118 -46t46 -118q0 -71 -46 -117.5t-118 -46.5q-70 0 -117 47t-47 117z" />
    <glyph glyph-name="Epsilontonos" unicode="&#x388;" horiz-adv-x="1538" 
d="M475 0v1376h940v-205h-667v-366h602v-201h-602v-399h700v-205h-973zM340 1382l-162 -411l-180 61l139 418z" />
    <glyph glyph-name="Etatonos" unicode="&#x389;" horiz-adv-x="1896" 
d="M475 0v1376h273v-567h702v567h272v-1376h-272v600h-702v-600h-273zM340 1382l-162 -411l-180 61l139 418z" />
    <glyph glyph-name="Iotatonos" unicode="&#x38a;" horiz-adv-x="921" 
d="M475 0v1376h273v-1376h-273zM340 1382l-162 -411l-180 61l139 418z" />
    <glyph glyph-name="Omicrontonos" unicode="&#x38c;" horiz-adv-x="1810" 
d="M297 688q0 155 53 287.5t147 226t227.5 146.5t289.5 53q155 0 288.5 -53t227.5 -146.5t147.5 -226t53.5 -287.5t-53.5 -287.5t-147.5 -226t-227.5 -146.5t-288.5 -53q-156 0 -289.5 53t-227.5 146.5t-147 226t-53 287.5zM573 688q0 -218 124 -358t317 -140t315.5 139.5
t122.5 358.5t-122.5 358.5t-315.5 139.5t-317 -140t-124 -358zM340 1382l-162 -411l-180 61l139 418z" />
    <glyph glyph-name="Upsilontonos" unicode="&#x38e;" horiz-adv-x="1652" 
d="M887 0v559l-504 817h297l342 -575l344 575h295l-502 -817v-559h-272zM340 1382l-162 -411l-180 61l139 418z" />
    <glyph glyph-name="Omegatonos" unicode="&#x38f;" horiz-adv-x="1832" 
d="M287 0v209h307q-130 104 -197 242t-67 297q0 189 86.5 338t242.5 232t355 83q302 0 494 -183t192 -470q0 -160 -67.5 -297.5t-196.5 -241.5h307v-209h-623v178q307 220 307 549q0 204 -113.5 331.5t-299.5 127.5q-185 0 -298.5 -127.5t-113.5 -331.5q0 -331 307 -549
v-178h-622zM340 1382l-162 -411l-180 61l139 418z" />
    <glyph glyph-name="iotadieresistonos" unicode="&#x390;" horiz-adv-x="628" 
d="M395 1004v-717q0 -47 28.5 -75t74.5 -28q18 0 90 13l28 -199q-108 -23 -182 -23q-138 0 -219.5 77t-81.5 208v744h262zM426 1524l-158 -428l-121 34l129 435zM-154 1290q0 58 36 94.5t95 36.5q57 0 94.5 -36.5t37.5 -94.5t-37.5 -94.5t-94.5 -36.5q-59 0 -95 36.5
t-36 94.5zM420 1290q0 58 37 94.5t94 36.5q59 0 95 -36.5t36 -94.5t-36 -94.5t-95 -36.5q-57 0 -94 36.5t-37 94.5z" />
    <glyph glyph-name="Alpha" unicode="&#x391;" horiz-adv-x="1394" 
d="M8 0l563 1376h252l563 -1376h-274l-127 328h-575l-127 -328h-275zM698 1077l-215 -551h430z" />
    <glyph glyph-name="Beta" unicode="&#x392;" horiz-adv-x="1351" 
d="M172 0v1376h600q192 0 314 -101.5t122 -262.5q0 -101 -51.5 -178.5t-138.5 -116.5q111 -38 175 -128t64 -208q0 -168 -127.5 -274.5t-324.5 -106.5h-633zM434 614v-415h328q101 0 164 58.5t63 150.5t-63 149t-164 57h-328zM434 1178v-383h301q93 0 152 53t59 137
q0 85 -59.5 139t-151.5 54h-301z" />
    <glyph glyph-name="Gamma" unicode="&#x393;" horiz-adv-x="1101" 
d="M172 0v1376h885v-209h-613v-1167h-272z" />
    <glyph glyph-name="Delta" unicode="&#x394;" horiz-adv-x="1394" 
d="M53 0v154l518 1222h252l518 -1222v-154h-1288zM698 1077l-358 -868h717z" />
    <glyph glyph-name="Epsilon" unicode="&#x395;" horiz-adv-x="1232" 
d="M172 0v1376h940v-205h-668v-366h603v-201h-603v-399h701v-205h-973z" />
    <glyph glyph-name="Zeta" unicode="&#x396;" horiz-adv-x="1302" 
d="M84 0v156l760 1011h-735v209h1085v-155l-760 -1012h785v-209h-1135z" />
    <glyph glyph-name="Eta" unicode="&#x397;" horiz-adv-x="1591" 
d="M172 0v1376h272v-567h703v567h272v-1376h-272v600h-703v-600h-272z" />
    <glyph glyph-name="Theta" unicode="&#x398;" horiz-adv-x="1591" 
d="M80 688q0 155 53 287.5t147 226t227.5 146.5t289.5 53q208 0 371.5 -90.5t254 -253t90.5 -369.5t-90.5 -369.5t-254 -253t-371.5 -90.5q-156 0 -289.5 53t-227.5 146.5t-147 226t-53 287.5zM346 688q0 -221 126.5 -362.5t324.5 -141.5q197 0 322.5 141.5t125.5 362.5
t-125.5 362.5t-322.5 141.5q-198 0 -324.5 -141.5t-126.5 -362.5zM489 596v201h615v-201h-615z" />
    <glyph glyph-name="Iota" unicode="&#x399;" horiz-adv-x="618" 
d="M172 0v1376h272v-1376h-272z" />
    <glyph glyph-name="Kappa" unicode="&#x39a;" horiz-adv-x="1394" 
d="M172 0v1376h262v-653l608 653h314l-606 -643l634 -733h-319l-498 573l-133 -139v-434h-262z" />
    <glyph glyph-name="Lambda" unicode="&#x39b;" horiz-adv-x="1394" 
d="M8 0l563 1376h252l563 -1376h-284l-404 1047l-405 -1047h-285z" />
    <glyph glyph-name="Mu" unicode="&#x39c;" horiz-adv-x="1771" 
d="M172 0v1376h264l451 -618l448 618h264v-1376h-251v1004l-385 -531h-152l-387 531v-1004h-252z" />
    <glyph glyph-name="Nu" unicode="&#x39d;" horiz-adv-x="1591" 
d="M172 0v1376h264l731 -1003v1003h252v-1376h-264l-731 1004v-1004h-252z" />
    <glyph glyph-name="Xi" unicode="&#x39e;" horiz-adv-x="1318" 
d="M90 0v221h1141v-221h-1141zM188 588v217h945v-217h-945zM123 1155v221h1075v-221h-1075z" />
    <glyph glyph-name="Omicron" unicode="&#x39f;" horiz-adv-x="1591" 
d="M80 688q0 155 53 287.5t147 226t227.5 146.5t289.5 53q207 0 370.5 -90.5t254.5 -253t91 -369.5t-91 -369.5t-254.5 -253t-370.5 -90.5q-156 0 -289.5 53t-227.5 146.5t-147 226t-53 287.5zM356 688q0 -218 124 -358t317 -140t315.5 139.5t122.5 358.5t-122.5 358.5
t-315.5 139.5t-317 -140t-124 -358z" />
    <glyph glyph-name="Pi" unicode="&#x3a0;" horiz-adv-x="1591" 
d="M172 0v1376h1247v-1376h-272v1167h-703v-1167h-272z" />
    <glyph glyph-name="Rho" unicode="&#x3a1;" horiz-adv-x="1286" 
d="M172 0v1376h563q215 0 352.5 -127t137.5 -325q0 -200 -137.5 -327.5t-352.5 -127.5h-301v-469h-262zM434 1167v-487h260q117 0 189.5 68t72.5 176q0 106 -73 174.5t-189 68.5h-260z" />
    <glyph glyph-name="Sigma" unicode="&#x3a3;" horiz-adv-x="1253" 
d="M90 0v166l471 539l-446 505v166h1052v-209h-696l350 -395v-135l-375 -428h746v-209h-1102z" />
    <glyph glyph-name="Tau" unicode="&#x3a4;" horiz-adv-x="1232" 
d="M481 0v1167h-436v209h1143v-209h-434v-1167h-273z" />
    <glyph glyph-name="Upsilon" unicode="&#x3a5;" horiz-adv-x="1263" 
d="M496 0v559l-504 817h297l342 -575l344 575h295l-502 -817v-559h-272z" />
    <glyph glyph-name="Phi" unicode="&#x3a6;" horiz-adv-x="1624" 
d="M686 -66v189q-277 15 -450 175t-173 407q0 246 173 406t450 175v156h252v-156q181 -10 322.5 -85t221 -204t79.5 -292q0 -247 -173.5 -407t-449.5 -175v-189h-252zM319 705q0 -152 101.5 -255t265.5 -118v745q-164 -15 -265.5 -117.5t-101.5 -254.5zM1305 705
q0 152 -102 254.5t-265 117.5v-745q163 15 265 118t102 255z" />
    <glyph glyph-name="Chi" unicode="&#x3a7;" horiz-adv-x="1411" 
d="M20 0l512 705l-487 671h301l361 -499l358 499h301l-485 -671l510 -705h-308l-376 532l-379 -532h-308z" />
    <glyph glyph-name="Psi" unicode="&#x3a8;" horiz-adv-x="1669" 
d="M709 0v367q-272 15 -440.5 178t-168.5 416v415h252v-395q0 -173 99.5 -281.5t257.5 -113.5v790h252v-790q157 4 255.5 118t98.5 289v383h252v-403q0 -254 -167.5 -422.5t-438.5 -183.5v-367h-252z" />
    <glyph glyph-name="Omega" unicode="&#x3a9;" horiz-adv-x="1636" 
d="M90 0v209h307q-130 104 -197 242t-67 297q0 189 86.5 338t242.5 232t355 83q302 0 494 -183t192 -470q0 -160 -67.5 -297.5t-196.5 -241.5h307v-209h-622v178q307 220 307 549q0 204 -114 331.5t-300 127.5q-185 0 -298 -127.5t-113 -331.5q0 -331 307 -549v-178h-623z
" />
    <glyph glyph-name="Iotadieresis" unicode="&#x3aa;" horiz-adv-x="618" 
d="M172 0v1376h272v-1376h-272zM-59 1663q0 63 39 102t102 39t102 -39t39 -102t-39 -102t-102 -39t-102 39t-39 102zM395 1663q0 63 39.5 102t102.5 39t102 -39t39 -102t-39 -102t-102 -39t-102.5 39t-39.5 102z" />
    <glyph glyph-name="Upsilondieresis" unicode="&#x3ab;" horiz-adv-x="1263" 
d="M496 0v559l-504 817h297l342 -575l344 575h295l-502 -817v-559h-272zM262 1663q0 63 39 102t102 39t102.5 -39t39.5 -102t-39.5 -102t-102.5 -39t-102 39t-39 102zM717 1663q0 63 39 102t102 39t102 -39t39 -102t-39 -102t-102 -39t-102 39t-39 102z" />
    <glyph glyph-name="alphatonos" unicode="&#x3ac;" horiz-adv-x="1341" 
d="M90 502q0 230 123.5 378t321.5 148q266 0 380 -256l93 232h247l-208 -492q59 -193 99.5 -260.5t98.5 -67.5q7 0 55 6l29 -202q-89 -13 -125 -13q-94 0 -158.5 64t-119.5 213q-123 -277 -391 -277q-198 0 -321.5 148t-123.5 379zM346 502q0 -142 57.5 -227t161.5 -85
q88 0 149 77.5t103 234.5q-42 157 -103 234t-149 77q-103 0 -161 -84.5t-58 -226.5zM911 1501l-161 -411l-181 61l140 418z" />
    <glyph glyph-name="epsilontonos" unicode="&#x3ad;" horiz-adv-x="915" 
d="M631 594v-158h-105q-88 0 -142 -38t-54 -99q0 -55 48.5 -90t123.5 -35q141 0 305 76l74 -182q-224 -93 -414 -93q-173 0 -283 83t-110 212q0 86 50 154t132 96q-72 25 -115 87.5t-43 140.5q0 125 102 202.5t267 77.5q181 0 389 -84l-74 -182q-160 67 -284 67
q-68 0 -108 -32t-40 -84q0 -53 48.5 -86t127.5 -33h105zM715 1501l-162 -411l-180 61l139 418z" />
    <glyph glyph-name="etatonos" unicode="&#x3ae;" horiz-adv-x="1263" 
d="M166 0v748q0 32 -20 51.5t-52 19.5q-19 0 -47 -4l-20 199q75 14 139 14q84 0 145 -40t84 -111q132 151 359 151q172 0 281.5 -107t109.5 -276v-1071h-262v1030q0 92 -59 150.5t-150 58.5q-107 0 -176.5 -72.5t-69.5 -187.5v-553h-262zM856 1501l-162 -411l-180 61
l139 418z" />
    <glyph glyph-name="iotatonos" unicode="&#x3af;" horiz-adv-x="628" 
d="M395 1004v-717q0 -47 28.5 -75t74.5 -28q18 0 90 13l28 -199q-108 -23 -182 -23q-138 0 -219.5 77t-81.5 208v744h262zM489 1501l-161 -411l-181 61l140 418z" />
    <glyph glyph-name="upsilondieresistonos" unicode="&#x3b0;" 
d="M801 1004h262q72 -248 72 -492q0 -234 -152 -385.5t-389 -151.5q-208 0 -342.5 128.5t-134.5 330.5q0 48 8 140t8 137q0 161 -33 293h262q33 -121 33 -283q0 -47 -8 -139t-8 -138q0 -112 65.5 -183t165.5 -71q115 0 188.5 96t73.5 246q0 215 -71 472zM760 1524l-158 -428
l-121 34l129 435zM180 1290q0 58 36 94.5t95 36.5q57 0 94 -36.5t37 -94.5t-37 -94.5t-94 -36.5q-59 0 -95 36.5t-36 94.5zM754 1290q0 58 37 94.5t94 36.5q59 0 95 -36.5t36 -94.5t-36 -94.5t-95 -36.5q-57 0 -94 36.5t-37 94.5z" />
    <glyph glyph-name="alpha" unicode="&#x3b1;" horiz-adv-x="1341" 
d="M90 502q0 230 123.5 378t321.5 148q266 0 380 -256l93 232h247l-208 -492q59 -193 99.5 -260.5t98.5 -67.5q7 0 55 6l29 -202q-89 -13 -125 -13q-94 0 -158.5 64t-119.5 213q-123 -277 -391 -277q-198 0 -321.5 148t-123.5 379zM346 502q0 -142 57.5 -227t161.5 -85
q88 0 149 77.5t103 234.5q-42 157 -103 234t-149 77q-103 0 -161 -84.5t-58 -226.5z" />
    <glyph glyph-name="beta" unicode="&#x3b2;" horiz-adv-x="1198" 
d="M133 -426v1423q0 208 141 338.5t363 130.5q201 0 328 -109.5t127 -281.5q0 -108 -50 -190.5t-137 -124.5q115 -41 175.5 -136t60.5 -225q0 -184 -124 -304t-315 -120q-97 0 -180.5 39t-136.5 111v-551h-252zM543 653v201h78q94 0 156.5 58.5t62.5 148.5q0 89 -58.5 145
t-154.5 56q-108 0 -175 -69.5t-67 -184.5v-549q0 -122 72 -198.5t188 -76.5q105 0 172.5 65t67.5 167q0 107 -70 172t-184 65h-88z" />
    <glyph glyph-name="gamma" unicode="&#x3b3;" horiz-adv-x="1099" 
d="M774 1004h262q-26 -276 -114.5 -510.5t-247.5 -450.5v-469h-262v426l-377 1004h274l246 -709q197 351 219 709z" />
    <glyph glyph-name="delta" unicode="&#x3b4;" horiz-adv-x="1132" 
d="M57 426q0 143 76.5 259.5t212.5 199.5q-158 112 -158 254q0 145 109 236t281 91q186 0 385 -80l-68 -192q-171 74 -287 74q-75 0 -121.5 -35.5t-46.5 -93.5q0 -32 21.5 -60.5t58.5 -52t84.5 -47.5t100.5 -51.5t105.5 -59t100 -74t84.5 -92t58.5 -119t21.5 -149.5
q0 -200 -143 -329.5t-367 -129.5q-227 0 -367.5 125.5t-140.5 325.5zM313 440q0 -114 71 -187t181 -73q112 0 183 74t71 190q0 109 -63.5 185t-200.5 143q-120 -65 -181 -150t-61 -182z" />
    <glyph glyph-name="epsilon" unicode="&#x3b5;" horiz-adv-x="915" 
d="M631 594v-158h-105q-88 0 -142 -38t-54 -99q0 -55 48.5 -90t123.5 -35q141 0 305 76l74 -182q-224 -93 -414 -93q-173 0 -283 83t-110 212q0 86 50 154t132 96q-72 25 -115 87.5t-43 140.5q0 125 102 202.5t267 77.5q181 0 389 -84l-74 -182q-160 67 -284 67
q-68 0 -108 -32t-40 -84q0 -53 48.5 -86t127.5 -33h105z" />
    <glyph glyph-name="zeta" unicode="&#x3b6;" horiz-adv-x="948" 
d="M920 1442v-156q-309 -312 -444.5 -490.5t-135.5 -306.5q0 -117 78.5 -186.5t255.5 -107.5q132 -31 197 -93t65 -159q0 -124 -82 -305l-205 55q45 112 45 186q0 101 -129 127q-252 54 -371.5 160.5t-119.5 279.5q0 81 31.5 165t103.5 185t160 201t229 246h-492v199h814z
" />
    <glyph glyph-name="eta" unicode="&#x3b7;" horiz-adv-x="1263" 
d="M166 0v748q0 32 -20 51.5t-52 19.5q-19 0 -47 -4l-20 199q75 14 139 14q84 0 145 -40t84 -111q132 151 359 151q172 0 281.5 -107t109.5 -276v-1071h-262v1030q0 92 -59 150.5t-150 58.5q-107 0 -176.5 -72.5t-69.5 -187.5v-553h-262z" />
    <glyph glyph-name="theta" unicode="&#x3b8;" 
d="M90 721q0 344 139.5 544.5t384.5 200.5q246 0 386.5 -200.5t140.5 -544.5q0 -345 -140.5 -545.5t-386.5 -200.5q-245 0 -384.5 200.5t-139.5 545.5zM614 180q123 0 198 122.5t79 334.5h-553q4 -212 78.5 -334.5t197.5 -122.5zM614 1262q-121 0 -193.5 -113.5
t-80.5 -310.5h549q-8 197 -81 310.5t-194 113.5z" />
    <glyph glyph-name="iota" unicode="&#x3b9;" horiz-adv-x="628" 
d="M395 1004v-717q0 -47 28.5 -75t74.5 -28q18 0 90 13l28 -199q-108 -23 -182 -23q-138 0 -219.5 77t-81.5 208v744h262z" />
    <glyph glyph-name="kappa" unicode="&#x3ba;" horiz-adv-x="1120" 
d="M133 0v1004h252v-422l143 153q209 222 424 305l88 -209q-204 -85 -346 -239l-63 -68l459 -524h-299l-334 379l-72 -78v-301h-252z" />
    <glyph glyph-name="lambda" unicode="&#x3bb;" horiz-adv-x="1099" 
d="M18 0l414 991l-41 101q-34 88 -78.5 126.5t-111.5 38.5q-36 0 -97 -14l-32 205q83 18 155 18q268 0 402 -338l450 -1128h-272l-254 696l-260 -696h-275z" />
    <glyph glyph-name="mu" unicode="&#x3bc;" horiz-adv-x="1280" 
d="M133 -426v1430h262v-603q0 -93 59 -152t152 -59q106 0 175 73t69 188v553h262v-748q0 -32 20 -52t52 -20q19 0 47 4l20 -198q-81 -15 -139 -15q-84 0 -145 40.5t-84 111.5q-54 -71 -129 -108t-156 -37q-136 0 -203 67v-475h-262z" />
    <glyph glyph-name="nu" unicode="&#x3bd;" horiz-adv-x="1099" 
d="M774 1004h262q-45 -538 -395 -1004h-229l-377 1004h274l246 -709q197 351 219 709z" />
    <glyph glyph-name="xi" unicode="&#x3be;" horiz-adv-x="948" 
d="M903 1442v-189h-215q-129 0 -211 -57.5t-82 -148.5q0 -82 62 -132.5t157 -50.5h158v-188h-125q-141 0 -224 -63.5t-83 -172.5q0 -91 80.5 -149.5t253.5 -95.5q132 -31 197 -93t65 -159q0 -124 -82 -305l-205 55q45 112 45 186q0 101 -129 127q-254 56 -372.5 156
t-118.5 258q0 118 64.5 208t178.5 138q-82 34 -130 102t-48 150q0 76 42.5 142t117.5 104h-193v178h797z" />
    <glyph glyph-name="omicron" unicode="&#x3bf;" 
d="M74 502q0 232 151 379t389 147q239 0 391 -147t152 -379t-152 -379.5t-391 -147.5q-238 0 -389 147.5t-151 379.5zM340 502q0 -141 77 -231.5t197 -90.5q121 0 199 90.5t78 231.5q0 142 -77.5 231.5t-199.5 89.5q-120 0 -197 -89.5t-77 -231.5z" />
    <glyph glyph-name="pi" unicode="&#x3c0;" horiz-adv-x="1361" 
d="M1284 1004v-199h-188v-541q0 -35 20.5 -57.5t52.5 -22.5q19 0 60 9l28 -203q-96 -15 -145 -15q-120 0 -194 72.5t-74 190.5v567h-361v-805h-252v805h-186v199h1239z" />
    <glyph glyph-name="rho" unicode="&#x3c1;" 
d="M117 -426v936q0 234 144.5 376t387.5 142q226 0 367 -145t141 -375q0 -231 -136.5 -382t-344.5 -151q-187 0 -297 138v-539h-262zM891 504q0 142 -71.5 230.5t-190.5 88.5q-113 0 -183.5 -77.5t-70.5 -194.5v-117q0 -109 69 -179.5t181 -70.5q118 0 192 90t74 230z" />
    <glyph glyph-name="sigma1" unicode="&#x3c2;" horiz-adv-x="991" 
d="M74 514q0 224 145 369t369 145q192 0 368 -96l-100 -184q-118 71 -225 71q-126 0 -208.5 -86t-82.5 -219q0 -254 301 -319q132 -31 197 -93t65 -159q0 -124 -82 -305l-205 55q46 114 46 186q0 100 -130 127q-229 50 -343.5 182t-114.5 326z" />
    <glyph glyph-name="sigma" unicode="&#x3c3;" horiz-adv-x="1296" 
d="M74 492q0 235 150 373.5t407 138.5h620v-199h-202q86 -160 86 -320q0 -227 -150.5 -368.5t-386.5 -141.5q-229 0 -376.5 144t-147.5 373zM340 492q0 -137 76.5 -224.5t191.5 -87.5q119 0 191.5 89t72.5 227q0 159 -100 309h-131q-138 0 -219.5 -85t-81.5 -228z" />
    <glyph glyph-name="tau" unicode="&#x3c4;" horiz-adv-x="974" 
d="M915 1004v-199h-321v-518q0 -47 27 -75t73 -28q20 0 92 13l29 -199q-108 -23 -182 -23q-139 0 -220 77t-81 208v545h-287v199h870z" />
    <glyph glyph-name="upsilon" unicode="&#x3c5;" 
d="M801 1004h262q72 -248 72 -492q0 -234 -152 -385.5t-389 -151.5q-208 0 -342.5 128.5t-134.5 330.5q0 48 8 140t8 137q0 161 -33 293h262q33 -121 33 -283q0 -47 -8 -139t-8 -138q0 -112 65.5 -183t165.5 -71q115 0 188.5 96t73.5 246q0 215 -71 472z" />
    <glyph glyph-name="phi" unicode="&#x3c6;" horiz-adv-x="1447" 
d="M608 -426v412q-243 25 -388.5 165t-145.5 351q0 210 146 351.5t388 164.5v424h232v-424q242 -23 388 -164.5t146 -351.5q0 -211 -145.5 -351t-388.5 -165v-412h-232zM309 502q0 -126 81.5 -211.5t217.5 -100.5v623q-136 -15 -217.5 -100.5t-81.5 -210.5zM1139 502
q0 125 -81.5 210.5t-217.5 100.5v-623q136 15 217.5 100.5t81.5 211.5z" />
    <glyph glyph-name="chi" unicode="&#x3c7;" horiz-adv-x="1112" 
d="M696 293l125 -264q69 -149 115 -210t104 -61q36 0 70 9l35 -203q-73 -15 -135 -15q-122 0 -199 68t-152 227l-106 230l-281 -500h-264l434 743l-120 258q-63 138 -105 191t-102 53q-37 0 -68 -8l-35 205q56 12 133 12q123 0 199 -65t145 -213l99 -213l260 467h260z" />
    <glyph glyph-name="psi" unicode="&#x3c8;" horiz-adv-x="1505" 
d="M637 -426v403q-232 11 -376 147.5t-144 350.5q0 44 8 126.5t8 125.5q0 145 -33 277h238q33 -132 33 -267q0 -44 -8.5 -126.5t-8.5 -125.5q0 -127 77.5 -206.5t205.5 -85.5v1105h231v-1101q139 17 222.5 121t83.5 260q0 196 -68 426h231q72 -250 72 -447q0 -238 -151 -398
t-390 -177v-408h-231z" />
    <glyph glyph-name="omega" unicode="&#x3c9;" horiz-adv-x="1636" 
d="M938 762v-240q0 -157 48.5 -244.5t133.5 -87.5q77 0 122.5 77.5t45.5 209.5q0 253 -131 527h258q131 -274 131 -547q0 -213 -109 -347.5t-282 -134.5q-121 0 -212.5 69t-125.5 187q-32 -118 -124 -187t-214 -69q-172 0 -280.5 135t-108.5 347q0 273 131 547h258
q-133 -272 -133 -527q0 -131 46.5 -209t123.5 -78q85 0 132.5 87t47.5 245v240h242z" />
    <glyph glyph-name="iotadieresis" unicode="&#x3ca;" horiz-adv-x="628" 
d="M395 1004v-717q0 -47 28.5 -75t74.5 -28q18 0 90 13l28 -199q-108 -23 -182 -23q-138 0 -219.5 77t-81.5 208v744h262zM-104 1290q0 63 39 102.5t102 39.5t102 -39.5t39 -102.5t-39 -102t-102 -39t-102 39t-39 102zM350 1290q0 63 39.5 102.5t102.5 39.5t102 -39.5
t39 -102.5t-39 -102t-102 -39t-102.5 39t-39.5 102z" />
    <glyph glyph-name="upsilondieresis" unicode="&#x3cb;" 
d="M801 1004h262q72 -248 72 -492q0 -234 -152 -385.5t-389 -151.5q-208 0 -342.5 128.5t-134.5 330.5q0 48 8 140t8 137q0 161 -33 293h262q33 -121 33 -283q0 -47 -8 -139t-8 -138q0 -112 65.5 -183t165.5 -71q115 0 188.5 96t73.5 246q0 215 -71 472zM229 1290
q0 63 39.5 102.5t102.5 39.5t102 -39.5t39 -102.5t-39 -102t-102 -39t-102.5 39t-39.5 102zM684 1290q0 63 39 102.5t102 39.5t102.5 -39.5t39.5 -102.5t-39.5 -102t-102.5 -39t-102 39t-39 102z" />
    <glyph glyph-name="omicrontonos" unicode="&#x3cc;" 
d="M74 502q0 232 151 379t389 147q239 0 391 -147t152 -379t-152 -379.5t-391 -147.5q-238 0 -389 147.5t-151 379.5zM340 502q0 -141 77 -231.5t197 -90.5q121 0 199 90.5t78 231.5q0 142 -77.5 231.5t-199.5 89.5q-120 0 -197 -89.5t-77 -231.5zM840 1501l-162 -411
l-180 61l139 418z" />
    <glyph glyph-name="upsilontonos" unicode="&#x3cd;" 
d="M801 1004h262q72 -248 72 -492q0 -234 -152 -385.5t-389 -151.5q-208 0 -342.5 128.5t-134.5 330.5q0 48 8 140t8 137q0 161 -33 293h262q33 -121 33 -283q0 -47 -8 -139t-8 -138q0 -112 65.5 -183t165.5 -71q115 0 188.5 96t73.5 246q0 215 -71 472zM823 1501l-161 -411
l-181 61l140 418z" />
    <glyph glyph-name="omegatonos" unicode="&#x3ce;" horiz-adv-x="1636" 
d="M938 762v-240q0 -157 48.5 -244.5t133.5 -87.5q77 0 122.5 77.5t45.5 209.5q0 253 -131 527h258q131 -274 131 -547q0 -213 -109 -347.5t-282 -134.5q-121 0 -212.5 69t-125.5 187q-32 -118 -124 -187t-214 -69q-172 0 -280.5 135t-108.5 347q0 273 131 547h258
q-133 -272 -133 -527q0 -131 46.5 -209t123.5 -78q85 0 132.5 87t47.5 245v240h242zM1042 1501l-161 -411l-181 61l140 418z" />
    <glyph glyph-name="uni03D0" unicode="&#x3d0;" horiz-adv-x="1132" 
d="M90 698q0 344 153 556t410 212q163 0 268 -97.5t105 -252.5q0 -158 -123 -272q172 -147 172 -377q0 -137 -58 -248.5t-167.5 -177.5t-251.5 -66q-238 0 -373 192.5t-135 530.5zM780 1106q0 71 -45 116.5t-112 45.5q-123 0 -202 -129.5t-81 -319.5h18q184 0 303 82
t119 205zM823 446q0 169 -116 265q-140 -80 -338 -80h-29q2 -212 70.5 -334.5t187.5 -122.5q99 0 162 77t63 195z" />
    <glyph glyph-name="theta1" unicode="&#x3d1;" horiz-adv-x="1361" 
d="M1350 838v-201h-176q-8 -298 -136.5 -480t-341.5 -182q-102 0 -177.5 27t-118 70t-72.5 95.5t-50.5 105t-42 95.5t-57 70t-86.5 27q-34 0 -67 -8l-35 194q74 19 133 19q74 0 131 -21t90.5 -55.5t60.5 -78.5t43 -90t36.5 -90t42.5 -78.5t60 -55.5t89 -21
q115 0 181.5 124.5t66.5 332.5h-39q-177 0 -323 61t-230 168.5t-84 239.5q0 159 112 259.5t287 100.5q143 0 260 -76t188.5 -220t78.5 -332h176zM496 1102q0 -118 116 -191t293 -73h19q0 186 -78 305t-189 119q-71 0 -116 -45t-45 -115z" />
    <glyph glyph-name="phi1" unicode="&#x3d5;" horiz-adv-x="1480" 
d="M313 530q0 -137 79.5 -230t211.5 -110v435q0 178 106 290.5t275 112.5q187 0 304.5 -128t117.5 -327q0 -238 -155 -399.5t-408 -187.5v-412h-240v412q-240 26 -385 173t-145 365q0 140 67.5 268.5t200.5 227.5l133 -176q-77 -62 -119.5 -143t-42.5 -171zM1165 573
q0 109 -48 177.5t-124 68.5q-67 0 -108 -53t-41 -141v-435q147 20 234 124.5t87 258.5z" />
    <glyph glyph-name="uni0400" unicode="&#x400;" horiz-adv-x="1232" 
d="M172 0v1376h940v-205h-668v-366h603v-201h-603v-399h701v-205h-973zM440 1876l379 -264l-100 -144l-395 240z" />
    <glyph glyph-name="afii10023" unicode="&#x401;" horiz-adv-x="1232" 
d="M172 0v1376h940v-205h-668v-366h603v-201h-603v-399h701v-205h-973zM264 1663q0 63 39.5 102t102.5 39t102 -39t39 -102t-39 -102t-102 -39t-102.5 39t-39.5 102zM719 1663q0 63 39 102t102 39t102 -39t39 -102t-39 -102t-102 -39t-102 39t-39 102z" />
    <glyph glyph-name="afii10051" unicode="&#x402;" horiz-adv-x="1724" 
d="M449 0v1167h-404v209h1143v-209h-467v-385q248 45 440 45q228 0 365 -117.5t137 -308.5q0 -190 -136.5 -308t-355.5 -118q-150 0 -292 39l53 209q110 -26 209 -26q113 0 178 53.5t65 146.5q0 97 -72 156t-204 59q-176 0 -387 -41v-571h-272z" />
    <glyph glyph-name="afii10052" unicode="&#x403;" horiz-adv-x="1101" 
d="M172 0v1376h885v-209h-613v-1167h-272zM946 1708l-395 -240l-100 144l378 264z" />
    <glyph glyph-name="afii10053" unicode="&#x404;" horiz-adv-x="1347" 
d="M1051 805v-201h-697q22 -189 149 -304.5t318 -115.5q171 0 348 119l111 -176q-232 -152 -494 -152q-155 0 -286.5 53t-223.5 146.5t-144 226t-52 287.5q0 208 89 370.5t250 252.5t367 90q262 0 494 -152l-111 -176q-177 119 -348 119q-183 0 -308 -106.5t-151 -280.5h689
z" />
    <glyph glyph-name="afii10054" unicode="&#x405;" horiz-adv-x="1204" 
d="M92 1008q0 175 142 284t368 109q216 0 469 -96l-61 -203q-212 84 -387 84q-120 0 -191.5 -48t-71.5 -130q0 -47 26 -81.5t70 -56.5t101 -39t120 -34t126 -36.5t120 -51t101 -73.5t70 -108t26 -151q0 -180 -143.5 -291t-374.5 -111q-249 0 -518 113l61 203
q265 -101 437 -101q126 0 199 50.5t73 136.5q0 48 -26 84t-70 58.5t-101.5 40.5t-120.5 35t-126 37t-120.5 51t-101.5 72t-70 105.5t-26 147.5z" />
    <glyph glyph-name="afii10055" unicode="&#x406;" horiz-adv-x="618" 
d="M172 0v1376h272v-1376h-272z" />
    <glyph glyph-name="afii10056" unicode="&#x407;" horiz-adv-x="618" 
d="M172 0v1376h272v-1376h-272zM-59 1663q0 63 39 102t102 39t102 -39t39 -102t-39 -102t-102 -39t-102 39t-39 102zM395 1663q0 63 39.5 102t102.5 39t102 -39t39 -102t-39 -102t-102 -39t-102.5 39t-39.5 102z" />
    <glyph glyph-name="afii10057" unicode="&#x408;" horiz-adv-x="925" 
d="M754 1376v-987q0 -184 -119.5 -299t-310.5 -115q-142 0 -289 39l35 209q110 -26 192 -26q96 0 157.5 60.5t61.5 158.5v960h273z" />
    <glyph glyph-name="afii10058" unicode="&#x409;" horiz-adv-x="2314" 
d="M1184 0v1167h-574v-723q0 -217 -116 -343t-316 -126q-74 0 -166 15l23 215q74 -8 102 -8q100 0 155.5 70.5t55.5 197.5v911h1088v-522h354q202 0 332.5 -120t130.5 -308q0 -187 -130.5 -306.5t-332.5 -119.5h-606zM1436 643v-434h323q104 0 170 61t66 156t-66 156
t-170 61h-323z" />
    <glyph glyph-name="afii10059" unicode="&#x40a;" horiz-adv-x="2265" 
d="M1135 0v616h-701v-616h-262v1376h262v-555h701v555h251v-555h361q201 0 329 -114t128 -297q0 -182 -128 -296t-329 -114h-612zM1386 621v-422h330q103 0 166.5 58.5t63.5 152.5q0 93 -64 152t-166 59h-330z" />
    <glyph glyph-name="afii10060" unicode="&#x40b;" horiz-adv-x="1724" 
d="M449 0v1167h-404v209h1143v-209h-467v-385q205 45 401 45q220 0 359 -128t139 -330v-369h-272v348q0 116 -81 190t-206 74q-153 0 -340 -41v-571h-272z" />
    <glyph glyph-name="afii10061" unicode="&#x40c;" horiz-adv-x="1394" 
d="M172 0v1376h262v-567h146l454 567h303l-532 -659l567 -717h-307l-475 600h-156v-600h-262zM1042 1708l-395 -240l-100 144l379 264z" />
    <glyph glyph-name="uni040D" unicode="&#x40d;" horiz-adv-x="1591" 
d="M604 1876l379 -264l-100 -144l-396 240zM172 0v1376h252v-1003l731 1003h264v-1376h-252v1004l-731 -1004h-264z" />
    <glyph glyph-name="afii10062" unicode="&#x40e;" horiz-adv-x="1318" 
d="M1311 1376l-523 -1116q-136 -285 -417 -285q-96 0 -211 31l39 209q80 -18 139 -18q127 0 192 133l15 28l-504 1018h285l354 -784l346 784h285zM340 1802h170q3 -67 49.5 -108t116.5 -41t116.5 41t49.5 108h170q-6 -151 -100 -240t-236 -89t-236 89t-100 240z" />
    <glyph glyph-name="afii10145" unicode="&#x40f;" horiz-adv-x="1591" 
d="M172 0v1376h272v-1167h703v1167h272v-1376h-497v-360h-252v360h-498z" />
    <glyph glyph-name="afii10017" unicode="&#x410;" horiz-adv-x="1394" 
d="M8 0l563 1376h252l563 -1376h-274l-127 328h-575l-127 -328h-275zM698 1077l-215 -551h430z" />
    <glyph glyph-name="afii10018" unicode="&#x411;" horiz-adv-x="1329" 
d="M172 0v1376h967v-198h-705v-361h369q199 0 326.5 -114t127.5 -295q0 -180 -127.5 -294t-326.5 -114h-631zM434 616v-417h328q101 0 164 57.5t63 151.5t-62 151t-165 57h-328z" />
    <glyph glyph-name="afii10019" unicode="&#x412;" horiz-adv-x="1351" 
d="M172 0v1376h600q192 0 314 -101.5t122 -262.5q0 -101 -51.5 -178.5t-138.5 -116.5q111 -38 175 -128t64 -208q0 -168 -127.5 -274.5t-324.5 -106.5h-633zM434 614v-415h328q101 0 164 58.5t63 150.5t-63 149t-164 57h-328zM434 1178v-383h301q93 0 152 53t59 137
q0 85 -59.5 139t-151.5 54h-301z" />
    <glyph glyph-name="afii10020" unicode="&#x413;" horiz-adv-x="1101" 
d="M172 0v1376h885v-209h-613v-1167h-272z" />
    <glyph glyph-name="afii10021" unicode="&#x414;" horiz-adv-x="1607" 
d="M41 -360v569h98q158 279 158 629v538h1053v-1167h196v-569h-252v360h-1003v-360h-250zM1087 209v958h-528v-350q0 -344 -129 -608h657z" />
    <glyph glyph-name="afii10022" unicode="&#x415;" horiz-adv-x="1232" 
d="M172 0v1376h940v-205h-668v-366h603v-201h-603v-399h701v-205h-973z" />
    <glyph glyph-name="afii10024" unicode="&#x416;" horiz-adv-x="2080" 
d="M909 0v600h-155l-432 -600h-297l520 715l-486 661h287l416 -567h147v567h262v-567h148l416 567h286l-485 -661l520 -715h-297l-432 600h-156v-600h-262z" />
    <glyph glyph-name="afii10025" unicode="&#x417;" horiz-adv-x="1122" 
d="M340 610v189h129q132 0 206.5 54t74.5 144q0 85 -64 137t-172 52q-160 0 -379 -84l-78 198q254 101 492 101q204 0 333.5 -104.5t129.5 -268.5q0 -113 -64 -199t-172 -118q122 -35 195 -129t73 -217q0 -172 -138.5 -281t-356.5 -109q-269 0 -524 109l77 199
q215 -93 406 -93q121 0 194.5 57t73.5 148q0 98 -82 156.5t-225 58.5h-129z" />
    <glyph glyph-name="afii10026" unicode="&#x418;" horiz-adv-x="1591" 
d="M172 0v1376h252v-1003l731 1003h264v-1376h-252v1004l-731 -1004h-264z" />
    <glyph glyph-name="afii10027" unicode="&#x419;" horiz-adv-x="1591" 
d="M457 1802h170q3 -67 49.5 -108t116.5 -41t116 41t49 108h170q-6 -151 -99.5 -240t-235.5 -89t-236 89t-100 240zM172 0v1376h252v-1003l731 1003h264v-1376h-252v1004l-731 -1004h-264z" />
    <glyph glyph-name="afii10028" unicode="&#x41a;" horiz-adv-x="1394" 
d="M172 0v1376h262v-567h146l454 567h303l-532 -659l567 -717h-307l-475 600h-156v-600h-262z" />
    <glyph glyph-name="afii10029" unicode="&#x41b;" horiz-adv-x="1640" 
d="M1468 1376v-1376h-262v1167h-596v-723q0 -217 -116 -343t-316 -126q-74 0 -166 15l23 215q74 -8 102 -8q100 0 155.5 70.5t55.5 197.5v911h1120z" />
    <glyph glyph-name="afii10030" unicode="&#x41c;" horiz-adv-x="1771" 
d="M172 0v1376h264l451 -618l448 618h264v-1376h-251v1004l-385 -531h-152l-387 531v-1004h-252z" />
    <glyph glyph-name="afii10031" unicode="&#x41d;" horiz-adv-x="1591" 
d="M172 0v1376h272v-567h703v567h272v-1376h-272v600h-703v-600h-272z" />
    <glyph glyph-name="afii10032" unicode="&#x41e;" horiz-adv-x="1591" 
d="M80 688q0 155 53 287.5t147 226t227.5 146.5t289.5 53q207 0 370.5 -90.5t254.5 -253t91 -369.5t-91 -369.5t-254.5 -253t-370.5 -90.5q-156 0 -289.5 53t-227.5 146.5t-147 226t-53 287.5zM356 688q0 -218 124 -358t317 -140t315.5 139.5t122.5 358.5t-122.5 358.5
t-315.5 139.5t-317 -140t-124 -358z" />
    <glyph glyph-name="afii10033" unicode="&#x41f;" horiz-adv-x="1591" 
d="M172 0v1376h1247v-1376h-272v1167h-703v-1167h-272z" />
    <glyph glyph-name="afii10034" unicode="&#x420;" horiz-adv-x="1286" 
d="M172 0v1376h563q215 0 352.5 -127t137.5 -325q0 -200 -137.5 -327.5t-352.5 -127.5h-301v-469h-262zM434 1167v-487h260q117 0 189.5 68t72.5 176q0 106 -73 174.5t-189 68.5h-260z" />
    <glyph glyph-name="afii10035" unicode="&#x421;" horiz-adv-x="1331" 
d="M80 688q0 208 89 370.5t250 252.5t367 90q255 0 494 -156l-111 -182q-175 121 -348 121q-206 0 -335.5 -138t-129.5 -358t129.5 -357.5t335.5 -137.5q174 0 348 120l111 -182q-239 -156 -494 -156q-155 0 -286.5 53t-223.5 146.5t-144 226t-52 287.5z" />
    <glyph glyph-name="afii10036" unicode="&#x422;" horiz-adv-x="1232" 
d="M481 0v1167h-436v209h1143v-209h-434v-1167h-273z" />
    <glyph glyph-name="afii10037" unicode="&#x423;" horiz-adv-x="1318" 
d="M1311 1376l-523 -1116q-136 -285 -417 -285q-96 0 -211 31l39 209q80 -18 139 -18q127 0 192 133l15 28l-504 1018h285l354 -784l346 784h285z" />
    <glyph glyph-name="afii10038" unicode="&#x424;" horiz-adv-x="1624" 
d="M686 -66v189q-277 15 -450 175t-173 407q0 246 173 406t450 175v156h252v-156q181 -10 322.5 -85t221 -204t79.5 -292q0 -247 -173.5 -407t-449.5 -175v-189h-252zM319 705q0 -152 101.5 -255t265.5 -118v745q-164 -15 -265.5 -117.5t-101.5 -254.5zM1305 705
q0 152 -102 254.5t-265 117.5v-745q163 15 265 118t102 255z" />
    <glyph glyph-name="afii10039" unicode="&#x425;" horiz-adv-x="1411" 
d="M20 0l512 705l-487 671h301l361 -499l358 499h301l-485 -671l510 -705h-308l-376 532l-379 -532h-308z" />
    <glyph glyph-name="afii10040" unicode="&#x426;" horiz-adv-x="1679" 
d="M172 0v1376h272v-1167h703v1167h272v-1167h197v-569h-252v360h-1192z" />
    <glyph glyph-name="afii10041" unicode="&#x427;" horiz-adv-x="1456" 
d="M1010 0v561q-238 -45 -408 -45q-219 0 -357.5 133.5t-138.5 341.5v385h273v-364q0 -125 79 -203t206 -78q162 0 346 41v604h272v-1376h-272z" />
    <glyph glyph-name="afii10042" unicode="&#x428;" horiz-adv-x="2248" 
d="M172 0v1376h272v-1167h545v1167h273v-1167h542v1167h273v-1376h-1905z" />
    <glyph glyph-name="afii10043" unicode="&#x429;" horiz-adv-x="2334" 
d="M172 0v1376h272v-1167h545v1167h273v-1167h542v1167h273v-1167h196v-569h-262v360h-1839z" />
    <glyph glyph-name="afii10044" unicode="&#x42a;" horiz-adv-x="1581" 
d="M434 1167h-389v209h651v-522h361q203 0 333 -119.5t130 -308.5q0 -187 -130 -306.5t-333 -119.5h-623v1167zM696 643v-434h320q105 0 170 60.5t65 156.5t-65 156.5t-170 60.5h-320z" />
    <glyph glyph-name="afii10045" unicode="&#x42b;" horiz-adv-x="1937" 
d="M172 0v1376h262v-522h361q203 0 332.5 -119.5t129.5 -308.5q0 -187 -129.5 -306.5t-332.5 -119.5h-623zM434 643v-434h320q105 0 170 60.5t65 156.5t-65 156.5t-170 60.5h-320zM1491 0v1376h272v-1376h-272z" />
    <glyph glyph-name="afii10046" unicode="&#x42c;" horiz-adv-x="1318" 
d="M172 0v1376h262v-522h361q203 0 332.5 -119.5t129.5 -308.5q0 -187 -129.5 -306.5t-332.5 -119.5h-623zM434 643v-434h320q105 0 170 60.5t65 156.5t-65 156.5t-170 60.5h-320z" />
    <glyph glyph-name="afii10047" unicode="&#x42d;" horiz-adv-x="1347" 
d="M1270 688q0 -207 -89 -369.5t-250.5 -253t-367.5 -90.5q-260 0 -495 152l112 176q177 -119 346 -119q191 0 318 115.5t149 304.5h-696v201h690q-28 175 -153 281t-308 106q-169 0 -346 -119l-112 176q235 152 495 152q313 0 510 -199t197 -514z" />
    <glyph glyph-name="afii10048" unicode="&#x42e;" horiz-adv-x="2193" 
d="M172 0v1376h272v-561h267q39 261 229.5 423.5t466.5 162.5q205 0 366.5 -90.5t252 -253.5t90.5 -369t-90.5 -369t-252 -253.5t-366.5 -90.5q-287 0 -480 171t-222 448h-261v-594h-272zM969 688q0 -218 123 -358t315 -140q191 0 313.5 140t122.5 358t-122.5 358
t-313.5 140q-192 0 -315 -140t-123 -358z" />
    <glyph glyph-name="afii10049" unicode="&#x42f;" horiz-adv-x="1351" 
d="M918 0v502h-211l-336 -502h-297l377 543q-145 31 -231.5 139.5t-86.5 261.5q0 190 133 311t340 121h574v-1376h-262zM918 713v454h-271q-107 0 -176.5 -63.5t-69.5 -163.5q0 -102 69 -164.5t177 -62.5h271z" />
    <glyph glyph-name="afii10065" unicode="&#x430;" horiz-adv-x="1144" 
d="M74 291q0 158 122 246t341 88q95 0 194 -21v53q0 77 -57 127t-150 50q-150 0 -329 -72l-66 182q221 84 426 84q190 0 306 -103.5t116 -271.5v-407q0 -32 19 -52t51 -20q27 0 51 6l18 -190q-81 -15 -139 -15q-76 0 -132 36t-83 100q-65 -65 -151.5 -100.5t-178.5 -35.5
q-157 0 -257.5 89t-100.5 227zM326 305q0 -61 50 -103t124 -42q104 0 167.5 65t63.5 168v60q-76 20 -164 20q-112 0 -176.5 -45t-64.5 -123z" />
    <glyph glyph-name="afii10066" unicode="&#x431;" 
d="M1157 528q0 -245 -145 -399t-373 -154q-250 0 -399.5 175.5t-149.5 470.5q0 323 142 524.5t421 265.5l322 78l47 -199l-326 -78q-282 -70 -336 -329q124 145 334 145q198 0 330.5 -142.5t132.5 -357.5zM905 514q0 135 -76.5 220t-197.5 85q-123 0 -201 -84t-78 -217
q0 -143 79.5 -238.5t197.5 -95.5q122 0 199 92t77 238z" />
    <glyph glyph-name="afii10067" unicode="&#x432;" horiz-adv-x="1046" 
d="M133 0v1004h467q149 0 243.5 -75t94.5 -200q0 -70 -34 -122.5t-93 -82.5q76 -31 119 -94.5t43 -146.5q0 -125 -99.5 -204t-252.5 -79h-488zM375 438v-260h209q64 0 103.5 36t39.5 95q0 58 -39 93.5t-104 35.5h-209zM375 825v-239h192q59 0 94 32.5t35 86.5t-35.5 87
t-93.5 33h-192z" />
    <glyph glyph-name="afii10068" unicode="&#x433;" horiz-adv-x="899" 
d="M133 0v1004h705v-199h-443v-805h-262z" />
    <glyph glyph-name="afii10069" unicode="&#x434;" 
d="M41 -328v527h65q105 172 105 422v383h831v-805h132v-527h-242v328h-651v-328h-240zM811 199v606h-371v-207q0 -233 -75 -399h446z" />
    <glyph glyph-name="afii10070" unicode="&#x435;" horiz-adv-x="1128" 
d="M74 502q0 232 143.5 379t370.5 147q214 0 348.5 -141t134.5 -367q0 -30 -4 -84h-731q13 -120 100.5 -193t216.5 -73q136 0 289 84l80 -178q-203 -101 -401 -101q-242 0 -394.5 147.5t-152.5 379.5zM588 834q-101 0 -170.5 -66.5t-81.5 -173.5h483q-6 108 -69.5 174
t-161.5 66z" />
    <glyph glyph-name="afii10072" unicode="&#x436;" horiz-adv-x="1599" 
d="M680 0v414h-98l-285 -414h-270l354 522l-328 482h266l269 -390h92v390h240v-390h94l266 390h266l-327 -482l354 -522h-270l-285 414h-98v-414h-240z" />
    <glyph glyph-name="afii10073" unicode="&#x437;" horiz-adv-x="915" 
d="M285 436v158h102q81 0 129.5 33t48.5 86q0 52 -39.5 84t-107.5 32q-124 0 -287 -67l-72 182q205 84 390 84q164 0 266 -77.5t102 -202.5q0 -78 -44 -140.5t-116 -87.5q83 -28 134 -96.5t51 -153.5q0 -129 -110 -212t-283 -83q-190 0 -414 93l71 182q169 -76 306 -76
q76 0 124 34.5t48 90.5q0 60 -54 98.5t-143 38.5h-102z" />
    <glyph glyph-name="afii10074" unicode="&#x438;" 
d="M133 0v1004h242v-654l473 654h248v-1004h-242v653l-471 -653h-250z" />
    <glyph glyph-name="afii10075" unicode="&#x439;" 
d="M133 0v1004h242v-654l473 654h248v-1004h-242v653l-471 -653h-250zM274 1430h170q3 -67 49.5 -108.5t116.5 -41.5t116.5 41.5t49.5 108.5h170q-6 -151 -100 -240.5t-236 -89.5t-236 89.5t-100 240.5z" />
    <glyph glyph-name="afii10076" unicode="&#x43a;" horiz-adv-x="1087" 
d="M133 0v1004h252v-390h82l301 390h276l-366 -482l395 -522h-289l-311 414h-88v-414h-252z" />
    <glyph glyph-name="afii10077" unicode="&#x43b;" horiz-adv-x="1263" 
d="M1128 1004v-1004h-251v805h-371v-469q0 -164 -93.5 -262.5t-250.5 -98.5q-68 0 -133 11l22 207q41 -9 70 -9q63 0 98 44.5t35 127.5v648h874z" />
    <glyph glyph-name="afii10078" unicode="&#x43c;" horiz-adv-x="1361" 
d="M133 0v1004h248l299 -410l301 410h246v-1004h-242v653l-240 -325h-133l-237 325v-653h-242z" />
    <glyph glyph-name="afii10079" unicode="&#x43d;" 
d="M133 0v1004h262v-396h439v396h262v-1004h-262v410h-439v-410h-262z" />
    <glyph glyph-name="afii10080" unicode="&#x43e;" 
d="M74 502q0 232 151 379t389 147q239 0 391 -147t152 -379t-152 -379.5t-391 -147.5q-238 0 -389 147.5t-151 379.5zM340 502q0 -141 77 -231.5t197 -90.5q121 0 199 90.5t78 231.5q0 142 -77.5 231.5t-199.5 89.5q-120 0 -197 -89.5t-77 -231.5z" />
    <glyph glyph-name="afii10081" unicode="&#x43f;" 
d="M1096 0h-262v805h-439v-805h-262v1004h963v-1004z" />
    <glyph glyph-name="afii10082" unicode="&#x440;" 
d="M133 -426v1430h209l33 -130q56 74 139 114t182 40q203 0 332 -147t129 -379t-129 -379.5t-332 -147.5q-189 0 -301 140v-541h-262zM891 502q0 141 -73 230t-189 89q-104 0 -171 -71t-67 -181v-135q0 -109 67 -180.5t171 -71.5q115 0 188.5 90t73.5 230z" />
    <glyph glyph-name="afii10083" unicode="&#x441;" horiz-adv-x="1024" 
d="M74 502q0 232 148.5 379t381.5 147q203 0 385 -117l-106 -176q-124 84 -242 84q-132 0 -216.5 -89t-84.5 -228t84.5 -228.5t216.5 -89.5q115 0 242 86l106 -178q-182 -117 -385 -117q-233 0 -381.5 148t-148.5 379z" />
    <glyph glyph-name="afii10084" unicode="&#x442;" horiz-adv-x="958" 
d="M915 1004v-199h-305v-805h-262v805h-303v199h870z" />
    <glyph glyph-name="afii10085" unicode="&#x443;" horiz-adv-x="1099" 
d="M1079 1004l-446 -1117q-68 -171 -166.5 -254.5t-235.5 -83.5q-65 0 -155 19l35 205q66 -15 96 -15q67 0 110.5 38.5t79.5 127.5l35 88l-414 992h275l260 -707l254 707h272z" />
    <glyph glyph-name="afii10086" unicode="&#x444;" horiz-adv-x="1447" 
d="M604 -426v412q-243 26 -386.5 167.5t-143.5 348.5t143.5 348.5t386.5 167.5v424h240v-424q242 -26 386 -167.5t144 -348.5t-144 -348.5t-386 -167.5v-412h-240zM313 502q0 -125 79 -210t212 -102v623q-133 -17 -212 -102t-79 -209zM1133 502q0 123 -78.5 205.5
t-210.5 101.5v-612q133 17 211 99t78 206z" />
    <glyph glyph-name="afii10087" unicode="&#x445;" horiz-adv-x="1099" 
d="M14 0l367 514l-350 490h291l227 -326l227 326h291l-348 -490l364 -514h-295l-239 350l-238 -350h-297z" />
    <glyph glyph-name="afii10088" unicode="&#x446;" horiz-adv-x="1284" 
d="M133 0v1004h262v-805h439v805h262v-805h131v-527h-242v328h-852z" />
    <glyph glyph-name="afii10089" unicode="&#x447;" horiz-adv-x="1132" 
d="M735 0v385q-147 -25 -278 -25q-162 0 -264.5 99.5t-102.5 257.5v287h262v-267q0 -77 48 -124.5t124 -47.5q103 0 211 21v418h262v-1004h-262z" />
    <glyph glyph-name="afii10090" unicode="&#x448;" horiz-adv-x="1767" 
d="M133 0v1004h262v-805h357v805h262v-805h356v805h262v-1004h-1499z" />
    <glyph glyph-name="afii10091" unicode="&#x449;" horiz-adv-x="1820" 
d="M133 0v1004h262v-805h357v805h262v-805h356v805h262v-805h131v-527h-241v328h-1389z" />
    <glyph glyph-name="afii10092" unicode="&#x44a;" 
d="M319 0v805h-274v199h514v-353h262q154 0 253.5 -91.5t99.5 -233.5q0 -144 -98.5 -235t-254.5 -91h-502zM559 459v-266h223q65 0 105.5 36.5t40.5 96.5q0 59 -41 96t-105 37h-223z" />
    <glyph glyph-name="afii10093" unicode="&#x44b;" horiz-adv-x="1564" 
d="M133 0v1004h242v-353h262q154 0 253 -91.5t99 -233.5q0 -144 -99 -235t-253 -91h-504zM1180 0v1004h252v-1004h-252zM375 459v-266h223q64 0 104.5 37t40.5 96q0 60 -41 96.5t-106 36.5h-221z" />
    <glyph glyph-name="afii10094" unicode="&#x44c;" horiz-adv-x="1046" 
d="M133 0v1004h242v-353h262q154 0 253 -91.5t99 -233.5q0 -144 -99 -235t-253 -91h-504zM375 459v-266h223q64 0 104.5 37t40.5 96q0 60 -41 96.5t-106 36.5h-221z" />
    <glyph glyph-name="afii10095" unicode="&#x44d;" horiz-adv-x="1050" 
d="M979 502q0 -230 -150 -378.5t-383 -148.5q-202 0 -383 117l101 162q125 -84 246 -84q119 0 200.5 70t100.5 188h-469v168h465q-24 108 -103.5 173t-193.5 65q-119 0 -246 -82l-101 159q181 117 383 117q233 0 383 -148t150 -378z" />
    <glyph glyph-name="afii10096" unicode="&#x44e;" horiz-adv-x="1728" 
d="M133 0v1004h262v-396h221q32 189 172 304.5t340 115.5q231 0 379 -147.5t148 -378.5t-148 -379t-379 -148q-203 0 -343 119.5t-171 315.5h-219v-410h-262zM864 502q0 -141 74 -231.5t190 -90.5q117 0 191 90.5t74 231.5q0 142 -74 231.5t-191 89.5q-116 0 -190 -89.5
t-74 -231.5z" />
    <glyph glyph-name="afii10097" unicode="&#x44f;" horiz-adv-x="1087" 
d="M952 1004v-1004h-239v338h-156l-225 -338h-271l263 379q-96 30 -154.5 109.5t-58.5 185.5q0 146 99.5 238t258.5 92h483zM713 526v289h-199q-70 0 -114 -40t-44 -105q0 -64 43.5 -104t114.5 -40h199z" />
    <glyph glyph-name="uni0450" unicode="&#x450;" horiz-adv-x="1128" 
d="M74 502q0 232 143.5 379t370.5 147q214 0 348.5 -141t134.5 -367q0 -30 -4 -84h-731q13 -120 100.5 -193t216.5 -73q136 0 289 84l80 -178q-203 -101 -401 -101q-242 0 -394.5 147.5t-152.5 379.5zM588 834q-101 0 -170.5 -66.5t-81.5 -173.5h483q-6 108 -69.5 174
t-161.5 66zM395 1503l379 -264l-100 -143l-395 239z" />
    <glyph glyph-name="afii10071" unicode="&#x451;" horiz-adv-x="1128" 
d="M74 502q0 232 143.5 379t370.5 147q214 0 348.5 -141t134.5 -367q0 -30 -4 -84h-731q13 -120 100.5 -193t216.5 -73q136 0 289 84l80 -178q-203 -101 -401 -101q-242 0 -394.5 147.5t-152.5 379.5zM588 834q-101 0 -170.5 -66.5t-81.5 -173.5h483q-6 108 -69.5 174
t-161.5 66zM219 1290q0 63 39 102.5t102 39.5t102.5 -39.5t39.5 -102.5t-39.5 -102t-102.5 -39t-102 39t-39 102zM674 1290q0 63 39 102.5t102 39.5t102 -39.5t39 -102.5t-39 -102t-102 -39t-102 39t-39 102z" />
    <glyph glyph-name="afii10099" unicode="&#x452;" 
d="M133 0v1128h-121v181h121v133h262v-133h332v-181h-332v-251q54 72 139 111.5t187 39.5q173 0 282 -107.5t109 -279.5v-768q0 -145 -94 -234.5t-246 -89.5q-98 0 -225 31l35 197q74 -19 129 -19q63 0 101 39.5t38 102.5v700q0 94 -58.5 153.5t-150.5 59.5
q-107 0 -176.5 -70.5t-69.5 -177.5v-565h-262z" />
    <glyph glyph-name="afii10100" unicode="&#x453;" horiz-adv-x="899" 
d="M133 0v1004h705v-199h-443v-805h-262zM793 1335l-396 -239l-100 143l379 264z" />
    <glyph glyph-name="afii10101" unicode="&#x454;" horiz-adv-x="1050" 
d="M74 502q0 230 149 378t381 148q203 0 385 -117l-100 -159q-127 82 -248 82q-113 0 -193 -65t-102 -173h465v-168h-471q19 -118 100.5 -188t200.5 -70q123 0 248 84l100 -162q-182 -117 -385 -117q-232 0 -381 148.5t-149 378.5z" />
    <glyph glyph-name="afii10102" unicode="&#x455;" horiz-adv-x="948" 
d="M82 725q0 133 109 218t282 85q171 0 369 -70l-58 -188q-164 64 -290 64q-71 0 -113.5 -30t-42.5 -79q0 -36 29.5 -60.5t77 -38.5t104.5 -27t114 -34t104.5 -52.5t77 -89t29.5 -136.5q0 -137 -111.5 -224.5t-289.5 -87.5q-186 0 -399 80l55 187q179 -72 324 -72
q75 0 119 32t44 85q0 38 -29.5 63.5t-76.5 40t-104 28t-114 34.5t-104 51.5t-76.5 87t-29.5 133.5z" />
    <glyph glyph-name="afii10103" unicode="&#x456;" horiz-adv-x="530" 
d="M133 0v1004h262v-1004h-262zM109 1290q0 69 43.5 113.5t111.5 44.5q69 0 113.5 -44.5t44.5 -113.5t-44.5 -113t-113.5 -44q-68 0 -111.5 44t-43.5 113z" />
    <glyph glyph-name="afii10104" unicode="&#x457;" horiz-adv-x="530" 
d="M133 0v1004h262v-1004h-262zM-104 1290q0 63 39 102.5t102 39.5t102 -39.5t39 -102.5t-39 -102t-102 -39t-102 39t-39 102zM350 1290q0 63 39.5 102.5t102.5 39.5t102 -39.5t39 -102.5t-39 -102t-102 -39t-102.5 39t-39.5 102z" />
    <glyph glyph-name="afii10105" unicode="&#x458;" horiz-adv-x="546" 
d="M412 1004v-1131q0 -145 -93.5 -234.5t-244.5 -89.5q-104 0 -228 31l35 197q74 -19 129 -19q63 0 101.5 39.5t38.5 102.5v1104h262zM125 1290q0 69 44 113.5t112 44.5q69 0 113 -44.5t44 -113.5t-44 -113t-113 -44q-68 0 -112 44t-44 113z" />
    <glyph glyph-name="afii10106" unicode="&#x459;" horiz-adv-x="1755" 
d="M860 0v805h-354v-469q0 -164 -93.5 -262.5t-250.5 -98.5q-68 0 -133 11l22 207q41 -9 70 -9q63 0 98 44.5t35 127.5v648h848v-353h246q154 0 253 -91.5t99 -233.5q0 -144 -99 -235t-253 -91h-488zM1102 459v-266h207q63 0 103 36.5t40 96.5t-40 96.5t-105 36.5h-205z" />
    <glyph glyph-name="afii10107" unicode="&#x45a;" horiz-adv-x="1722" 
d="M133 0v1004h252v-379h442v379h242v-379h258q149 0 244.5 -88t95.5 -226q0 -136 -95 -223.5t-243 -87.5h-502v434h-442v-434h-252zM1069 442v-260h209q64 0 102.5 35t38.5 94q0 60 -38 95.5t-103 35.5h-209z" />
    <glyph glyph-name="afii10108" unicode="&#x45b;" 
d="M133 0v1128h-121v181h121v133h262v-133h332v-181h-332v-254q54 73 139.5 113.5t186.5 40.5q172 0 281.5 -107t109.5 -276v-645h-262v604q0 92 -59 150.5t-150 58.5q-107 0 -176.5 -72.5t-69.5 -187.5v-553h-262z" />
    <glyph glyph-name="afii10109" unicode="&#x45c;" horiz-adv-x="1087" 
d="M133 0v1004h252v-390h82l301 390h276l-366 -482l395 -522h-289l-311 414h-88v-414h-252zM872 1335l-395 -239l-100 143l379 264z" />
    <glyph glyph-name="uni045D" unicode="&#x45d;" 
d="M133 0v1004h242v-654l473 654h248v-1004h-242v653l-471 -653h-250zM422 1503l379 -264l-101 -143l-395 239z" />
    <glyph glyph-name="afii10110" unicode="&#x45e;" horiz-adv-x="1099" 
d="M1079 1004l-446 -1117q-68 -171 -166.5 -254.5t-235.5 -83.5q-65 0 -155 19l35 205q66 -15 96 -15q67 0 110.5 38.5t79.5 127.5l35 88l-414 992h275l260 -707l254 707h272zM213 1430h170q3 -67 49.5 -108.5t116.5 -41.5t116.5 41.5t49.5 108.5h170q-6 -151 -100 -240.5
t-236 -89.5t-236 89.5t-100 240.5z" />
    <glyph glyph-name="afii10193" unicode="&#x45f;" 
d="M133 0v1004h262v-805h439v805h262v-1004h-361v-328h-241v328h-361z" />
    <glyph glyph-name="afii10050" unicode="&#x490;" horiz-adv-x="1101" 
d="M172 0v1376h635v328h250v-537h-613v-1167h-272z" />
    <glyph glyph-name="afii10098" unicode="&#x491;" horiz-adv-x="899" 
d="M133 0v1004h465v327h240v-526h-443v-805h-262z" />
    <glyph glyph-name="uni0492" unicode="&#x492;" horiz-adv-x="1134" 
d="M205 0v551h-160v199h160v626h885v-209h-613v-417h361v-199h-361v-551h-272z" />
    <glyph glyph-name="uni0493" unicode="&#x493;" horiz-adv-x="915" 
d="M150 0v377h-127v190h127v437h704v-199h-442v-238h239v-190h-239v-377h-262z" />
    <glyph glyph-name="uni049A" unicode="&#x49a;" horiz-adv-x="1486" 
d="M172 0v1376h262v-567h146l460 567h297l-532 -659l414 -508h227v-569h-252v360h-129l-475 600h-156v-600h-262z" />
    <glyph glyph-name="uni049B" unicode="&#x49b;" horiz-adv-x="1163" 
d="M133 0v1004h252v-390h82l301 390h276l-362 -478l256 -327h184v-527h-239v328h-99l-309 414h-90v-414h-252z" />
    <glyph glyph-name="uni04A2" unicode="&#x4a2;" horiz-adv-x="1679" 
d="M1364 0h-217v600h-703v-600h-272v1376h272v-567h703v567h272v-1167h197v-569h-252v360z" />
    <glyph glyph-name="uni04A3" unicode="&#x4a3;" horiz-adv-x="1284" 
d="M133 0v1004h262v-396h439v396h262v-805h131v-527h-242v328h-151v410h-439v-410h-262z" />
    <glyph glyph-name="uni04AE" unicode="&#x4ae;" horiz-adv-x="1263" 
d="M496 0v559l-504 817h297l342 -575l344 575h295l-502 -817v-559h-272z" />
    <glyph glyph-name="uni04AF" unicode="&#x4af;" horiz-adv-x="1099" 
d="M418 -426v453l-400 977h275l256 -697l258 697h272l-399 -977v-453h-262z" />
    <glyph glyph-name="uni04B0" unicode="&#x4b0;" horiz-adv-x="1263" 
d="M496 0v471h-287v209h215l-432 696h297l342 -575l344 575h295l-432 -696h217v-209h-287v-471h-272z" />
    <glyph glyph-name="uni04B1" unicode="&#x4b1;" horiz-adv-x="1099" 
d="M418 -426v381h-258v178h217l-359 871h275l256 -697l258 697h272l-356 -871h217v-178h-260v-381h-262z" />
    <glyph glyph-name="uni04BA" unicode="&#x4ba;" horiz-adv-x="1456" 
d="M444 1376v-561q235 45 410 45q218 0 357 -133t139 -342v-385h-273v365q0 125 -79.5 202.5t-206.5 77.5q-163 0 -347 -41v-604h-272v1376h272z" />
    <glyph glyph-name="uni04BB" unicode="&#x4bb;" 
d="M133 0v1442h262v-568q54 73 139.5 113.5t186.5 40.5q172 0 281.5 -107t109.5 -276v-645h-262v604q0 92 -59 150.5t-150 58.5q-107 0 -176.5 -72.5t-69.5 -187.5v-553h-262z" />
    <glyph glyph-name="uni04D8" unicode="&#x4d8;" horiz-adv-x="1466" 
d="M1389 688q0 -315 -192.5 -514t-496.5 -199q-187 0 -333.5 86t-229 243t-82.5 358q0 34 4 100h1051q-15 195 -148 312.5t-337 117.5q-195 0 -408 -113l-88 189q266 133 528 133q158 0 294 -52.5t232 -145.5t151 -226t55 -289zM700 184q170 0 280.5 108t129.5 290h-788
q9 -177 113.5 -287.5t264.5 -110.5z" />
    <glyph glyph-name="afii10846" unicode="&#x4d9;" horiz-adv-x="1128" 
d="M1055 502q0 -232 -144.5 -379.5t-371.5 -147.5q-214 0 -348 142t-134 366q0 57 4 86h732q-15 119 -102 192t-216 73q-136 0 -291 -82l-78 176q201 100 400 100q243 0 396 -147t153 -379zM539 170q102 0 171 66.5t83 175.5h-486q8 -108 72 -175t160 -67z" />
    <glyph glyph-name="uni04E8" unicode="&#x4e8;" horiz-adv-x="1591" 
d="M80 688q0 155 53 287.5t147 226t227.5 146.5t289.5 53q208 0 371.5 -90.5t254 -253t90.5 -369.5t-90.5 -369.5t-254 -253t-371.5 -90.5q-156 0 -289.5 53t-227.5 146.5t-147 226t-53 287.5zM797 180q182 0 306 118.5t144 311.5h-903q22 -193 145.5 -311.5t307.5 -118.5z
M797 1196q-175 0 -296 -109t-149 -288h889q-30 179 -150.5 288t-293.5 109z" />
    <glyph glyph-name="uni04E9" unicode="&#x4e9;" 
d="M74 502q0 232 151 379t389 147q239 0 391 -147t152 -379t-152 -379.5t-391 -147.5q-238 0 -389 147.5t-151 379.5zM614 160q118 0 198 74t97 198h-590q17 -123 97.5 -197.5t197.5 -74.5zM614 844q-112 0 -190 -69.5t-100 -184.5h581q-22 115 -100 184.5t-191 69.5z" />
    <glyph glyph-name="Wgrave" unicode="&#x1e80;" horiz-adv-x="2082" 
d="M2050 1376l-438 -1376h-266l-304 1047l-305 -1047h-266l-438 1376h274l303 -1046l305 1046h254l304 -1046l305 1046h272zM850 1876l379 -264l-101 -144l-395 240z" />
    <glyph glyph-name="wgrave" unicode="&#x1e81;" horiz-adv-x="1624" 
d="M1587 1004l-325 -1004h-254l-197 705l-195 -705h-254l-327 1004h264l195 -705l196 705h244l194 -705l197 705h262zM618 1503l379 -264l-100 -143l-395 239z" />
    <glyph glyph-name="Wacute" unicode="&#x1e82;" horiz-adv-x="2082" 
d="M2050 1376l-438 -1376h-266l-304 1047l-305 -1047h-266l-438 1376h274l303 -1046l305 1046h254l304 -1046l305 1046h272zM1372 1708l-395 -240l-100 144l378 264z" />
    <glyph glyph-name="wacute" unicode="&#x1e83;" horiz-adv-x="1624" 
d="M1587 1004l-325 -1004h-254l-197 705l-195 -705h-254l-327 1004h264l195 -705l196 705h244l194 -705l197 705h262zM1141 1335l-396 -239l-100 143l379 264z" />
    <glyph glyph-name="Wdieresis" unicode="&#x1e84;" horiz-adv-x="2082" 
d="M2050 1376l-438 -1376h-266l-304 1047l-305 -1047h-266l-438 1376h274l303 -1046l305 1046h254l304 -1046l305 1046h272zM674 1663q0 63 39 102t102 39t102 -39t39 -102t-39 -102t-102 -39t-102 39t-39 102zM1128 1663q0 63 39.5 102t102.5 39t102 -39t39 -102t-39 -102
t-102 -39t-102.5 39t-39.5 102z" />
    <glyph glyph-name="wdieresis" unicode="&#x1e85;" horiz-adv-x="1624" 
d="M1587 1004l-325 -1004h-254l-197 705l-195 -705h-254l-327 1004h264l195 -705l196 705h244l194 -705l197 705h262zM442 1290q0 63 39.5 102.5t102.5 39.5t102 -39.5t39 -102.5t-39 -102t-102 -39t-102.5 39t-39.5 102zM897 1290q0 63 39 102.5t102 39.5t102.5 -39.5
t39.5 -102.5t-39.5 -102t-102.5 -39t-102 39t-39 102z" />
    <glyph glyph-name="uni1E9E" unicode="&#x1e9e;" horiz-adv-x="1591" 
d="M172 0v1376h1276v-155l-287 -387q155 -40 245.5 -151.5t90.5 -264.5q0 -194 -140.5 -318.5t-359.5 -124.5q-210 0 -407 117l94 199q172 -101 293 -101q112 0 182 64t70 164q0 107 -79.5 174t-205.5 67h-45l-41 125l281 383h-705v-1167h-262z" />
    <glyph glyph-name="Ygrave" unicode="&#x1ef2;" horiz-adv-x="1263" 
d="M496 0v559l-504 817h297l342 -575l344 575h295l-502 -817v-559h-272zM438 1876l379 -264l-100 -144l-395 240z" />
    <glyph glyph-name="ygrave" unicode="&#x1ef3;" horiz-adv-x="1099" 
d="M1079 1004l-446 -1117q-68 -171 -166.5 -254.5t-235.5 -83.5q-65 0 -155 19l35 205q66 -15 96 -15q67 0 110.5 38.5t79.5 127.5l35 88l-414 992h275l260 -707l254 707h272zM356 1503l379 -264l-100 -143l-395 239z" />
    <glyph glyph-name="uni2010" unicode="&#x2010;" horiz-adv-x="655" 
d="M45 414v200h565v-200h-565z" />
    <glyph glyph-name="uni2011" unicode="&#x2011;" horiz-adv-x="655" 
d="M45 414v200h565v-200h-565z" />
    <glyph glyph-name="figuredash" unicode="&#x2012;" horiz-adv-x="1179" 
d="M78 604v168h1024v-168h-1024z" />
    <glyph glyph-name="endash" unicode="&#x2013;" horiz-adv-x="983" 
d="M45 414v200h893v-200h-893z" />
    <glyph glyph-name="emdash" unicode="&#x2014;" horiz-adv-x="1966" 
d="M45 414v200h1876v-200h-1876z" />
    <glyph glyph-name="afii00208" unicode="&#x2015;" horiz-adv-x="1966" 
d="M45 414v200h1876v-200h-1876z" />
    <glyph glyph-name="quoteleft" unicode="&#x2018;" horiz-adv-x="542" 
d="M434 944q0 -71 -46 -117.5t-118 -46.5q-75 0 -121.5 56t-46.5 147q0 127 69 240t194 190l79 -102q-122 -98 -149 -215q62 -6 100.5 -48.5t38.5 -103.5z" />
    <glyph glyph-name="quoteright" unicode="&#x2019;" horiz-adv-x="542" 
d="M106 1239q0 71 46 117.5t118 46.5q75 0 122.5 -56t47.5 -145q0 -128 -69 -242t-193 -190l-80 102q124 102 150 215q-62 6 -102 48.5t-40 103.5z" />
    <glyph glyph-name="quotesinglbase" unicode="&#x201a;" horiz-adv-x="477" 
d="M106 141q0 71 46 117.5t118 46.5q75 0 122.5 -56t47.5 -145q0 -128 -69 -242t-193 -190l-80 103q124 102 150 215q-62 6 -102 48t-40 103z" />
    <glyph glyph-name="quotedblleft" unicode="&#x201c;" horiz-adv-x="995" 
d="M434 944q0 -71 -46 -117.5t-118 -46.5q-75 0 -121.5 56t-46.5 147q0 127 69 240t194 190l79 -102q-122 -98 -149 -215q62 -6 100.5 -48.5t38.5 -103.5zM889 944q0 -71 -46 -117.5t-118 -46.5q-75 0 -121.5 56t-46.5 147q0 128 69 241t193 189l80 -102q-122 -98 -149 -215
q62 -6 100.5 -48.5t38.5 -103.5z" />
    <glyph glyph-name="quotedblright" unicode="&#x201d;" horiz-adv-x="995" 
d="M106 1239q0 71 46 117.5t118 46.5q75 0 122.5 -56t47.5 -145q0 -128 -69 -242t-193 -190l-80 102q124 102 150 215q-62 6 -102 48.5t-40 103.5zM559 1239q0 71 46 117.5t118 46.5q75 0 122.5 -56t47.5 -145q0 -128 -69 -242t-193 -190l-80 102q123 101 149 215
q-62 6 -101.5 48.5t-39.5 103.5z" />
    <glyph glyph-name="quotedblbase" unicode="&#x201e;" horiz-adv-x="995" 
d="M106 141q0 71 46 117.5t118 46.5q75 0 122.5 -56t47.5 -145q0 -128 -69 -242t-193 -190l-80 103q124 102 150 215q-62 6 -102 48t-40 103zM559 141q0 71 46 117.5t118 46.5q75 0 122.5 -56t47.5 -145q0 -128 -69 -242t-193 -190l-80 103q123 101 149 215q-62 6 -101.5 48
t-39.5 103z" />
    <glyph glyph-name="dagger" unicode="&#x2020;" horiz-adv-x="1024" 
d="M412 0v842h-334v198h334v336h200v-336h336v-198h-336v-842h-200z" />
    <glyph glyph-name="daggerdbl" unicode="&#x2021;" horiz-adv-x="1024" 
d="M412 0v336h-334v199h334v307h-334v198h334v336h200v-336h336v-198h-336v-307h336v-199h-336v-336h-200z" />
    <glyph glyph-name="bullet" unicode="&#x2022;" horiz-adv-x="983" 
d="M197 590q0 123 86 209t209 86t208.5 -86t85.5 -209t-85.5 -209t-208.5 -86t-209 86t-86 209z" />
    <glyph glyph-name="ellipsis" unicode="&#x2026;" horiz-adv-x="1966" 
d="M164 141q0 72 46.5 118t117.5 46q72 0 118 -46t46 -118q0 -71 -46 -117.5t-118 -46.5q-70 0 -117 46.5t-47 117.5zM819 141q0 72 46.5 118t117.5 46q72 0 118 -46t46 -118q0 -71 -46 -117.5t-118 -46.5q-71 0 -117.5 46.5t-46.5 117.5zM1475 141q0 72 46 118t117 46
q72 0 118 -46t46 -118q0 -71 -46 -117.5t-118 -46.5q-70 0 -116.5 46.5t-46.5 117.5z" />
    <glyph glyph-name="perthousand" unicode="&#x2030;" horiz-adv-x="2586" 
d="M1786 344q0 161 102 265t260 104q159 0 262 -104t103 -265t-103 -265t-262 -104q-158 0 -260 104t-102 265zM1980 344q0 -96 47 -155.5t121 -59.5q75 0 122.5 59.5t47.5 155.5t-47.5 155.5t-122.5 59.5q-74 0 -121 -59.5t-47 -155.5zM969 344q0 161 102 265t262 104
q158 0 260.5 -104t102.5 -265t-102.5 -265t-260.5 -104q-160 0 -262 104t-102 265zM1163 344q0 -96 47.5 -155.5t122.5 -59.5t121.5 59t46.5 156t-46.5 156t-121.5 59t-122.5 -59.5t-47.5 -155.5zM74 1032q0 162 101.5 265.5t260.5 103.5t262 -104t103 -265t-103 -264.5
t-262 -103.5t-260.5 103t-101.5 265zM268 1032q0 -97 46.5 -156t121.5 -59t122.5 59.5t47.5 155.5t-47.5 155.5t-122.5 59.5t-121.5 -59t-46.5 -156zM301 51l1032 1376l135 -102l-1032 -1376z" />
    <glyph glyph-name="guilsinglleft" unicode="&#x2039;" horiz-adv-x="673" 
d="M55 457v114l408 455l153 -123l-309 -389l309 -389l-153 -121z" />
    <glyph glyph-name="guilsinglright" unicode="&#x203a;" horiz-adv-x="673" 
d="M618 571v-114l-407 -453l-154 121l308 389l-308 389l154 123z" />
    <glyph glyph-name="fraction" unicode="&#x2044;" horiz-adv-x="393" 
d="M-387 51l1032 1376l135 -102l-1032 -1376z" />
    <glyph glyph-name="zero.sup" unicode="&#x2070;" horiz-adv-x="888" 
d="M84 1212q0 203 97.5 322t262.5 119q164 0 262.5 -119t98.5 -322t-98.5 -321.5t-262.5 -118.5q-165 0 -262.5 118.5t-97.5 321.5zM279 1212q0 -140 43 -215t122 -75q80 0 123 75.5t43 214.5t-43 215t-123 76q-79 0 -122 -75.5t-43 -215.5z" />
    <glyph glyph-name="four.sup" unicode="&#x2074;" horiz-adv-x="782" 
d="M451 786v177h-400v133l387 542h183v-536h104v-139h-104v-177h-170zM219 1102h232v325z" />
    <glyph glyph-name="five.sup" unicode="&#x2075;" horiz-adv-x="704" 
d="M608 1638v-147h-340v-178q43 6 82 6q128 0 208.5 -74t80.5 -196q0 -121 -91 -200t-231 -79q-141 0 -276 82l72 133q99 -61 188 -61q66 0 107 35.5t41 93.5q0 63 -43.5 98t-120.5 35q-85 0 -187 -21v473h510z" />
    <glyph glyph-name="six.sup" unicode="&#x2076;" horiz-adv-x="802" 
d="M84 1176q0 221 102 350t277 129q110 0 235 -58l-63 -135q-82 45 -162 45q-95 0 -149 -62t-62 -175q77 80 191 80q122 0 201 -77.5t79 -201.5q0 -131 -90 -216t-225 -85q-156 0 -245 107.5t-89 298.5zM268 1071q0 -66 41 -109.5t107 -43.5q61 0 103 41t42 104
q0 65 -40.5 105t-104.5 40q-63 0 -105.5 -38.5t-42.5 -98.5z" />
    <glyph glyph-name="seven.sup" unicode="&#x2077;" horiz-adv-x="661" 
d="M100 786l303 699h-374v153h581v-120l-311 -732h-199z" />
    <glyph glyph-name="eight.sup" unicode="&#x2078;" horiz-adv-x="802" 
d="M401 1282q60 12 97 44.5t37 78.5q0 49 -37.5 80t-96.5 31t-97 -31t-38 -80q0 -46 37 -78.5t98 -44.5zM72 1020q0 72 42 124.5t119 78.5q-66 25 -103.5 75t-37.5 119q0 106 86 172t223 66q138 0 224 -66t86 -172q0 -70 -37 -121t-101 -73q75 -25 116.5 -78t41.5 -125
q0 -112 -92 -181t-240 -69q-146 0 -236.5 69t-90.5 181zM401 1163q-68 -12 -108.5 -46.5t-40.5 -84.5q0 -56 42 -90.5t107 -34.5q67 0 108.5 34t41.5 91q0 50 -41 84.5t-109 46.5z" />
    <glyph glyph-name="nine.sup" unicode="&#x2079;" horiz-adv-x="802" 
d="M719 1249q0 -221 -102 -350t-277 -129q-113 0 -236 57l64 136q82 -45 162 -45q95 0 149 62t62 175q-77 -80 -191 -80q-122 0 -201 77.5t-79 201.5q0 131 90 216t225 85q156 0 245 -107.5t89 -298.5zM535 1354q0 66 -41 109.5t-107 43.5q-61 0 -103 -41t-42 -104
q0 -64 40 -104.5t105 -40.5q63 0 105.5 38.5t42.5 98.5z" />
    <glyph glyph-name="plus.sup" unicode="&#x207a;" horiz-adv-x="770" 
d="M72 1133v159h233v234h160v-234h233v-159h-233v-234h-160v234h-233z" />
    <glyph glyph-name="minus.sup" unicode="&#x207b;" horiz-adv-x="770" 
d="M72 1133v159h626v-159h-626z" />
    <glyph glyph-name="equal.sup" unicode="&#x207c;" horiz-adv-x="770" 
d="M72 1296v158h626v-158h-626zM72 971v157h626v-157h-626z" />
    <glyph glyph-name="parenleft.sup" unicode="&#x207d;" horiz-adv-x="491" 
d="M324 1796l133 -88q-183 -206 -183 -496t183 -493l-133 -90q-226 241 -226 583q0 166 57.5 315.5t168.5 268.5z" />
    <glyph glyph-name="parenright.sup" unicode="&#x207e;" horiz-adv-x="491" 
d="M170 629l-135 90q184 204 184 493t-184 496l135 88q110 -120 167.5 -269.5t57.5 -314.5t-57.5 -314t-167.5 -269z" />
    <glyph glyph-name="zero.sub" unicode="&#x2080;" horiz-adv-x="888" 
d="M84 164q0 203 97.5 321.5t262.5 118.5q164 0 262.5 -118.5t98.5 -321.5t-98.5 -321.5t-262.5 -118.5q-165 0 -262.5 118.5t-97.5 321.5zM279 164q0 -140 43 -215.5t122 -75.5q80 0 123 76t43 215t-43 215t-123 76q-79 0 -122 -75.5t-43 -215.5z" />
    <glyph glyph-name="one.sub" unicode="&#x2081;" horiz-adv-x="573" 
d="M446 590v-852h-192v665l-180 -102l-68 127l281 162h159z" />
    <glyph glyph-name="two.sub" unicode="&#x2082;" horiz-adv-x="704" 
d="M45 -262v121l289 291q90 87 90 163q0 59 -35.5 94t-95.5 35q-77 0 -187 -65l-73 141q157 88 299 88q125 0 203.5 -73.5t78.5 -188.5q0 -139 -120 -256l-197 -197h328v-153h-580z" />
    <glyph glyph-name="three.sub" unicode="&#x2083;" horiz-adv-x="704" 
d="M207 109v131h72q63 0 103 31t40 79t-32 77.5t-85 29.5q-90 0 -201 -51l-59 135q144 65 295 65q121 0 196.5 -66t75.5 -169q0 -68 -32.5 -119t-92.5 -74q65 -24 105.5 -81t40.5 -130q0 -109 -82 -177.5t-211 -68.5q-162 0 -313 70l61 137q117 -57 213 -57q60 0 97.5 32
t37.5 83q0 54 -43.5 88.5t-113.5 34.5h-72z" />
    <glyph glyph-name="four.sub" unicode="&#x2084;" horiz-adv-x="782" 
d="M451 -262v176h-400v133l387 543h183v-537h104v-139h-104v-176h-170zM219 53h232v326z" />
    <glyph glyph-name="five.sub" unicode="&#x2085;" horiz-adv-x="704" 
d="M608 590v-148h-340v-178q43 6 82 6q128 0 208.5 -74t80.5 -196q0 -121 -91 -200t-231 -79q-141 0 -276 82l72 134q100 -62 188 -62q66 0 107 35.5t41 93.5q0 63 -43.5 98t-120.5 35q-90 0 -187 -20v473h510z" />
    <glyph glyph-name="six.sub" unicode="&#x2086;" horiz-adv-x="802" 
d="M84 127q0 221 102 350t277 129q112 0 235 -57l-63 -135q-82 45 -162 45q-95 0 -149 -62.5t-62 -175.5q77 80 191 80q122 0 201 -77t79 -201q0 -131 -90.5 -216.5t-224.5 -85.5q-156 0 -245 107.5t-89 298.5zM268 23q0 -66 41 -110t107 -44q61 0 103 41t42 104
q0 65 -40.5 105.5t-104.5 40.5q-63 0 -105.5 -38.5t-42.5 -98.5z" />
    <glyph glyph-name="seven.sub" unicode="&#x2087;" horiz-adv-x="661" 
d="M100 -262l303 698h-374v154h581v-121l-311 -731h-199z" />
    <glyph glyph-name="eight.sub" unicode="&#x2088;" horiz-adv-x="802" 
d="M401 233q60 12 97 44.5t37 78.5q0 49 -37.5 80t-96.5 31t-97 -31t-38 -80q0 -46 37 -78.5t98 -44.5zM72 -29q0 72 42 124.5t119 78.5q-66 25 -103.5 75.5t-37.5 119.5q0 106 86 171.5t223 65.5q138 0 224 -65.5t86 -171.5q0 -70 -37 -121.5t-101 -73.5q75 -25 116.5 -78
t41.5 -125q0 -112 -92 -181t-240 -69q-146 0 -236.5 69t-90.5 181zM401 115q-68 -12 -108.5 -46.5t-40.5 -84.5q0 -56 42 -90.5t107 -34.5q67 0 108.5 34t41.5 91q0 50 -41 84.5t-109 46.5z" />
    <glyph glyph-name="nine.sub" unicode="&#x2089;" horiz-adv-x="802" 
d="M719 201q0 -221 -102 -350.5t-277 -129.5q-111 0 -236 58l64 135q82 -45 162 -45q95 0 149 62t62 175q-76 -79 -191 -79q-122 0 -201 77t-79 201q0 131 90 216t225 85q156 0 245 -107t89 -298zM535 305q0 66 -41 110t-107 44q-61 0 -103 -41t-42 -105q0 -65 40 -105
t105 -40q63 0 105.5 38.5t42.5 98.5z" />
    <glyph glyph-name="plus.sub" unicode="&#x208a;" horiz-adv-x="770" 
d="M72 84v160h233v233h160v-233h233v-160h-233v-234h-160v234h-233z" />
    <glyph glyph-name="minus.sub" unicode="&#x208b;" horiz-adv-x="770" 
d="M72 84v160h626v-160h-626z" />
    <glyph glyph-name="equal.sub" unicode="&#x208c;" horiz-adv-x="770" 
d="M72 248v158h626v-158h-626zM72 -78v158h626v-158h-626z" />
    <glyph glyph-name="parenleft.sub" unicode="&#x208d;" horiz-adv-x="491" 
d="M324 748l133 -89q-183 -206 -183 -495q0 -291 183 -494l-133 -90q-111 119 -168.5 268.5t-57.5 315.5t57.5 315.5t168.5 268.5z" />
    <glyph glyph-name="parenright.sub" unicode="&#x208e;" horiz-adv-x="491" 
d="M170 -420l-135 90q184 204 184 494q0 288 -184 495l135 89q110 -120 167.5 -269.5t57.5 -314.5t-57.5 -314.5t-167.5 -269.5z" />
    <glyph glyph-name="Euro" unicode="&#x20ac;" horiz-adv-x="1179" 
d="M61 477v160h125q-4 32 -4 51q0 30 4 84h-125v160h156q60 218 211.5 343.5t357.5 125.5q203 0 379 -101l-94 -178q-126 74 -254 74q-118 0 -208 -72.5t-126 -191.5h449v-160h-494q-4 -54 -4 -84q0 -9 1 -26t1 -25h496v-160h-461q34 -136 126.5 -216.5t219.5 -80.5
q128 0 254 74l94 -178q-176 -101 -379 -101q-213 0 -367.5 134.5t-211.5 367.5h-146z" />
    <glyph glyph-name="afii61248" unicode="&#x2105;" horiz-adv-x="1744" 
d="M287 51l1032 1376l133 -102l-1032 -1376zM946 334q0 153 103.5 250.5t265.5 97.5t265 -97.5t103 -250.5q0 -155 -103 -252.5t-265 -97.5t-265.5 97.5t-103.5 252.5zM1147 334q0 -87 47 -142t121 -55t121 55t47 142q0 86 -47 141t-121 55t-121 -55t-47 -141zM63 1042
q0 153 102 252t259 99q123 0 258 -80l-80 -131q-77 55 -153 55q-83 0 -136 -54.5t-53 -140.5t52.5 -139t136.5 -53q74 0 153 53l80 -129q-135 -80 -258 -80q-157 0 -259 98t-102 250z" />
    <glyph glyph-name="litre" unicode="&#x2113;" horiz-adv-x="825" 
d="M780 1133q0 -169 -104.5 -332t-300.5 -295v-187q0 -59 39 -97t102 -38q53 0 139 21l35 -199q-118 -31 -217 -31q-148 0 -244 91t-96 233v817q0 157 93.5 253.5t240.5 96.5q136 0 224.5 -94t88.5 -239zM582 1100q0 68 -29 110.5t-76 42.5q-46 0 -74 -41.5t-28 -107.5v-367
q207 173 207 363z" />
    <glyph glyph-name="numero" unicode="&#x2116;" horiz-adv-x="2453" 
d="M172 0v1376h264l731 -1003v1003h252v-1376h-264l-731 1004v-1004h-252zM1669 444v138h707v-138h-707zM1655 1055q0 153 103 250.5t265 97.5q161 0 264 -97t103 -251q0 -155 -102.5 -252.5t-264.5 -97.5t-265 97.5t-103 252.5zM1855 1055q0 -88 46.5 -142.5t121.5 -54.5
q74 0 121 55t47 142q0 86 -47 141t-121 55q-75 0 -121.5 -54.5t-46.5 -141.5z" />
    <glyph glyph-name="uni2117" unicode="&#x2117;" horiz-adv-x="1703" 
d="M98 688q0 218 96 390t268 268t390 96t390 -96t268 -268t96 -390t-96 -390t-268 -268t-390 -96t-390 96t-268 268t-96 390zM236 688q0 -179 78 -319.5t218.5 -218.5t319.5 -78t319.5 78t218.5 218.5t78 319.5q0 272 -172.5 444.5t-443.5 172.5t-443.5 -172.5
t-172.5 -444.5zM559 262v852h363q136 0 222.5 -80.5t86.5 -208.5q0 -126 -86.5 -206t-222.5 -80h-179v-277h-184zM743 963v-275h154q66 0 106.5 37.5t40.5 99.5q0 63 -40.5 100.5t-106.5 37.5h-154z" />
    <glyph glyph-name="uni2120" unicode="&#x2120;" horiz-adv-x="1933" 
d="M909 524v852h193l260 -358l260 358h193v-852h-183v584l-213 -299h-114l-218 299v-584h-178zM76 1141q0 113 87.5 182.5t231.5 69.5q143 0 303 -62l-49 -145q-133 49 -239 49q-64 0 -102 -26t-38 -68q0 -31 25 -52t65 -33t88.5 -23.5t96.5 -30t88 -45t65 -75.5t25 -116
q0 -116 -89.5 -187t-238.5 -71q-166 0 -327 70l49 145q150 -59 264 -59q68 0 107.5 28t39.5 74q0 37 -33.5 62t-83.5 36.5t-109 30.5t-109 43t-83.5 76t-33.5 127z" />
    <glyph glyph-name="trademark" unicode="&#x2122;" horiz-adv-x="1949" 
d="M303 524v699h-258v153h719v-153h-260v-699h-201zM926 524v852h194l258 -358l260 358h193v-852h-180v584l-215 -299h-113l-219 299v-584h-178z" />
    <glyph glyph-name="uni2126" unicode="&#x2126;" horiz-adv-x="1636" 
d="M90 0v209h307q-130 104 -197 242t-67 297q0 189 86.5 338t242.5 232t355 83q302 0 494 -183t192 -470q0 -160 -67.5 -297.5t-196.5 -241.5h307v-209h-622v178q307 220 307 549q0 204 -114 331.5t-300 127.5q-185 0 -298 -127.5t-113 -331.5q0 -331 307 -549v-178h-623z
" />
    <glyph glyph-name="estimated" unicode="&#x212e;" horiz-adv-x="1966" 
d="M983 33q147 0 276.5 60.5t221.5 168.5h135q-110 -136 -276 -215.5t-357 -79.5q-160 0 -305.5 57.5t-250.5 154t-167.5 230t-62.5 279.5t62.5 279.5t167.5 230t250.5 154t305.5 57.5t305.5 -57.5t250.5 -154t167.5 -230t62.5 -279.5q0 -23 -2 -33h-1275v-401
q91 -104 218 -162.5t273 -58.5zM492 1122v-401h983v401q-93 103 -221 162t-271 59q-145 0 -272.5 -59t-218.5 -162z" />
    <glyph glyph-name="onethird" unicode="&#x2153;" horiz-adv-x="1966" 
d="M553 1376v-852h-193v666l-180 -103l-67 127l280 162h160zM399 51l1033 1376l135 -102l-1032 -1376zM1427 371v131h72q63 0 103 31t40 79t-31.5 77.5t-84.5 29.5q-90 0 -201 -51l-59 135q144 65 295 65q121 0 196.5 -66t75.5 -169q0 -68 -32.5 -119t-92.5 -74
q65 -23 105 -80.5t40 -130.5q0 -109 -81.5 -177t-210.5 -68q-165 0 -314 69l62 137q117 -57 213 -57q60 0 97.5 32t37.5 83q0 54 -44 88.5t-114 34.5h-72z" />
    <glyph glyph-name="twothirds" unicode="&#x2154;" horiz-adv-x="1966" 
d="M86 524v121l289 291q90 87 90 164q0 59 -35.5 94t-95.5 35q-75 0 -187 -66l-73 142q157 88 299 88q125 0 203.5 -74t78.5 -189q0 -139 -120 -256l-197 -196h328v-154h-580zM399 51l1033 1376l135 -102l-1032 -1376zM1427 371v131h72q63 0 103 31t40 79t-31.5 77.5
t-84.5 29.5q-90 0 -201 -51l-59 135q144 65 295 65q121 0 196.5 -66t75.5 -169q0 -68 -32.5 -119t-92.5 -74q65 -23 105 -80.5t40 -130.5q0 -109 -81.5 -177t-210.5 -68q-165 0 -314 69l62 137q117 -57 213 -57q60 0 97.5 32t37.5 83q0 54 -44 88.5t-114 34.5h-72z" />
    <glyph glyph-name="uni2155" unicode="&#x2155;" horiz-adv-x="1966" 
d="M553 1376v-852h-193v666l-180 -103l-67 127l280 162h160zM399 51l1033 1376l135 -102l-1032 -1376zM1829 852v-147h-340v-179q43 6 82 6q128 0 208.5 -74t80.5 -196q0 -120 -90.5 -199t-231.5 -79t-276 82l71 133q100 -62 189 -62q66 0 106.5 35.5t40.5 93.5
q0 63 -43.5 98t-120.5 35q-89 0 -186 -20v473h510z" />
    <glyph glyph-name="uni2156" unicode="&#x2156;" horiz-adv-x="1966" 
d="M86 524v121l289 291q90 87 90 164q0 59 -35.5 94t-95.5 35q-75 0 -187 -66l-73 142q157 88 299 88q125 0 203.5 -74t78.5 -189q0 -139 -120 -256l-197 -196h328v-154h-580zM399 51l1033 1376l135 -102l-1032 -1376zM1829 852v-147h-340v-179q43 6 82 6q128 0 208.5 -74
t80.5 -196q0 -120 -90.5 -199t-231.5 -79t-276 82l71 133q100 -62 189 -62q66 0 106.5 35.5t40.5 93.5q0 63 -43.5 98t-120.5 35q-89 0 -186 -20v473h510z" />
    <glyph glyph-name="uni2157" unicode="&#x2157;" horiz-adv-x="1966" 
d="M248 895v131h71q63 0 103.5 31.5t40.5 79.5t-31.5 77t-85.5 29q-90 0 -201 -51l-59 135q147 66 295 66q121 0 196.5 -66.5t75.5 -169.5q0 -68 -32.5 -118.5t-92.5 -73.5q65 -24 105.5 -81t40.5 -130q0 -109 -82 -177.5t-211 -68.5q-162 0 -313 70l61 137q119 -58 213 -58
q60 0 97.5 32t37.5 83q0 54 -44 88.5t-114 34.5h-71zM399 51l1033 1376l135 -102l-1032 -1376zM1829 852v-147h-340v-179q43 6 82 6q128 0 208.5 -74t80.5 -196q0 -120 -90.5 -199t-231.5 -79t-276 82l71 133q100 -62 189 -62q66 0 106.5 35.5t40.5 93.5q0 63 -43.5 98
t-120.5 35q-89 0 -186 -20v473h510z" />
    <glyph glyph-name="uni2158" unicode="&#x2158;" horiz-adv-x="1966" 
d="M453 524v176h-400v134l387 542h183v-536h104v-140h-104v-176h-170zM221 840h232v325zM399 51l1033 1376l135 -102l-1032 -1376zM1829 852v-147h-340v-179q43 6 82 6q128 0 208.5 -74t80.5 -196q0 -120 -90.5 -199t-231.5 -79t-276 82l71 133q100 -62 189 -62
q66 0 106.5 35.5t40.5 93.5q0 63 -43.5 98t-120.5 35q-89 0 -186 -20v473h510z" />
    <glyph glyph-name="uni2159" unicode="&#x2159;" horiz-adv-x="1966" 
d="M553 1376v-852h-193v666l-180 -103l-67 127l280 162h160zM399 51l1033 1376l135 -102l-1032 -1376zM1255 389q0 221 102 350t277 129q113 0 236 -57l-64 -135q-82 45 -161 45q-95 0 -149 -62.5t-62 -175.5q77 80 190 80q123 0 202 -77.5t79 -200.5q0 -131 -90.5 -216
t-225.5 -85q-156 0 -245 107t-89 298zM1440 285q0 -66 40.5 -110t106.5 -44q61 0 103.5 41t42.5 104q0 64 -40.5 105t-105.5 41q-63 0 -105 -38.5t-42 -98.5z" />
    <glyph glyph-name="uni215A" unicode="&#x215a;" horiz-adv-x="1966" 
d="M649 1376v-147h-340v-178q44 6 82 6q128 0 208.5 -74.5t80.5 -196.5q0 -120 -90.5 -199t-231.5 -79t-276 82l72 133q99 -61 188 -61q66 0 106.5 35.5t40.5 93.5q0 63 -43 98t-120 35q-85 0 -187 -21v473h510zM399 51l1033 1376l135 -102l-1032 -1376zM1255 389
q0 221 102 350t277 129q113 0 236 -57l-64 -135q-82 45 -161 45q-95 0 -149 -62.5t-62 -175.5q77 80 190 80q123 0 202 -77.5t79 -200.5q0 -131 -90.5 -216t-225.5 -85q-156 0 -245 107t-89 298zM1440 285q0 -66 40.5 -110t106.5 -44q61 0 103.5 41t42.5 104q0 64 -40.5 105
t-105.5 41q-63 0 -105 -38.5t-42 -98.5z" />
    <glyph glyph-name="oneeighth" unicode="&#x215b;" horiz-adv-x="1966" 
d="M553 1376v-852h-193v666l-180 -103l-67 127l280 162h160zM399 51l1033 1376l135 -102l-1032 -1376zM1573 496q60 12 96.5 44t36.5 78q0 49 -37 80t-96 31t-97 -31t-38 -80q0 -46 37 -78t98 -44zM1243 233q0 71 42.5 124t119.5 79q-66 25 -103.5 75.5t-37.5 119.5
q0 106 86 171.5t223 65.5q138 0 223.5 -65.5t85.5 -171.5q0 -70 -36.5 -121.5t-100.5 -73.5q75 -25 116.5 -78t41.5 -125q0 -112 -92 -180.5t-240 -68.5q-147 0 -237.5 68.5t-90.5 180.5zM1573 377q-68 -12 -109 -46.5t-41 -84.5q0 -56 42.5 -90.5t107.5 -34.5
q66 0 107.5 34t41.5 91q0 50 -40.5 84.5t-108.5 46.5z" />
    <glyph glyph-name="threeeighths" unicode="&#x215c;" horiz-adv-x="1966" 
d="M248 895v131h71q63 0 103.5 31.5t40.5 79.5t-31.5 77t-85.5 29q-90 0 -201 -51l-59 135q147 66 295 66q121 0 196.5 -66.5t75.5 -169.5q0 -68 -32.5 -118.5t-92.5 -73.5q65 -24 105.5 -81t40.5 -130q0 -109 -82 -177.5t-211 -68.5q-162 0 -313 70l61 137q119 -58 213 -58
q60 0 97.5 32t37.5 83q0 54 -44 88.5t-114 34.5h-71zM399 51l1033 1376l135 -102l-1032 -1376zM1573 496q60 12 96.5 44t36.5 78q0 49 -37 80t-96 31t-97 -31t-38 -80q0 -46 37 -78t98 -44zM1243 233q0 71 42.5 124t119.5 79q-66 25 -103.5 75.5t-37.5 119.5q0 106 86 171.5
t223 65.5q138 0 223.5 -65.5t85.5 -171.5q0 -70 -36.5 -121.5t-100.5 -73.5q75 -25 116.5 -78t41.5 -125q0 -112 -92 -180.5t-240 -68.5q-147 0 -237.5 68.5t-90.5 180.5zM1573 377q-68 -12 -109 -46.5t-41 -84.5q0 -56 42.5 -90.5t107.5 -34.5q66 0 107.5 34t41.5 91
q0 50 -40.5 84.5t-108.5 46.5z" />
    <glyph glyph-name="fiveeighths" unicode="&#x215d;" horiz-adv-x="1966" 
d="M649 1376v-147h-340v-178q44 6 82 6q128 0 208.5 -74.5t80.5 -196.5q0 -120 -90.5 -199t-231.5 -79t-276 82l72 133q99 -61 188 -61q66 0 106.5 35.5t40.5 93.5q0 63 -43 98t-120 35q-85 0 -187 -21v473h510zM399 51l1033 1376l135 -102l-1032 -1376zM1573 496
q60 12 96.5 44t36.5 78q0 49 -37 80t-96 31t-97 -31t-38 -80q0 -46 37 -78t98 -44zM1243 233q0 71 42.5 124t119.5 79q-66 25 -103.5 75.5t-37.5 119.5q0 106 86 171.5t223 65.5q138 0 223.5 -65.5t85.5 -171.5q0 -70 -36.5 -121.5t-100.5 -73.5q75 -25 116.5 -78t41.5 -125
q0 -112 -92 -180.5t-240 -68.5q-147 0 -237.5 68.5t-90.5 180.5zM1573 377q-68 -12 -109 -46.5t-41 -84.5q0 -56 42.5 -90.5t107.5 -34.5q66 0 107.5 34t41.5 91q0 50 -40.5 84.5t-108.5 46.5z" />
    <glyph glyph-name="seveneighths" unicode="&#x215e;" horiz-adv-x="1966" 
d="M162 524l303 699h-375v153h582v-121l-312 -731h-198zM399 51l1033 1376l135 -102l-1032 -1376zM1573 496q60 12 96.5 44t36.5 78q0 49 -37 80t-96 31t-97 -31t-38 -80q0 -46 37 -78t98 -44zM1243 233q0 71 42.5 124t119.5 79q-66 25 -103.5 75.5t-37.5 119.5
q0 106 86 171.5t223 65.5q138 0 223.5 -65.5t85.5 -171.5q0 -70 -36.5 -121.5t-100.5 -73.5q75 -25 116.5 -78t41.5 -125q0 -112 -92 -180.5t-240 -68.5q-147 0 -237.5 68.5t-90.5 180.5zM1573 377q-68 -12 -109 -46.5t-41 -84.5q0 -56 42.5 -90.5t107.5 -34.5
q66 0 107.5 34t41.5 91q0 50 -40.5 84.5t-108.5 46.5z" />
    <glyph glyph-name="uni215F" unicode="&#x215f;" horiz-adv-x="1179" 
d="M553 1376v-852h-193v666l-180 -103l-67 127l280 162h160zM399 51l1033 1376l135 -102l-1032 -1376z" />
    <glyph glyph-name="arrowleft" unicode="&#x2190;" horiz-adv-x="1966" 
d="M1901 469h-1387l412 -399l-174 -166l-686 686l686 686l174 -166l-412 -399h1387v-242z" />
    <glyph glyph-name="arrowup" unicode="&#x2191;" horiz-adv-x="1966" 
d="M862 -328v1387l-399 -412l-166 174l686 686l686 -686l-166 -174l-399 412v-1387h-242z" />
    <glyph glyph-name="arrowright" unicode="&#x2192;" horiz-adv-x="1966" 
d="M66 711h1386l-412 399l174 166l687 -686l-687 -686l-174 166l412 399h-1386v242z" />
    <glyph glyph-name="arrowdown" unicode="&#x2193;" horiz-adv-x="1966" 
d="M1104 1507v-1386l399 411l166 -174l-686 -686l-686 686l166 174l399 -411v1386h242z" />
    <glyph glyph-name="uni2196" unicode="&#x2196;" horiz-adv-x="1966" 
d="M1546 -143l-979 981l8 -576l-241 8v969h969l8 -242l-576 9l981 -979z" />
    <glyph glyph-name="uni2197" unicode="&#x2197;" horiz-adv-x="1966" 
d="M250 27l981 981l-576 -11l9 242h968v-969l-241 -8l10 576l-981 -981z" />
    <glyph glyph-name="uni2198" unicode="&#x2198;" horiz-adv-x="1966" 
d="M420 1323l981 -981l-10 576l241 -9v-968h-968l-9 241l576 -10l-981 981z" />
    <glyph glyph-name="uni2199" unicode="&#x2199;" horiz-adv-x="1966" 
d="M1716 1153l-981 -981l576 10l-8 -241h-969v968l241 9l-10 -576l981 981z" />
    <glyph glyph-name="partialdiff" unicode="&#x2202;" 
d="M74 528q0 215 132.5 357.5t332.5 142.5q206 0 333 -145q-13 183 -100 281t-227 98q-126 0 -275 -76l-88 188q185 92 383 92q274 0 425 -201t151 -585q0 -327 -149.5 -516t-399.5 -189q-229 0 -373.5 153.5t-144.5 399.5zM324 514q0 -144 78 -234t200 -90q119 0 198 98.5
t79 248.5q0 120 -78 198t-199 78q-122 0 -200 -83.5t-78 -215.5z" />
    <glyph glyph-name="uni2206" unicode="&#x2206;" horiz-adv-x="1394" 
d="M53 0v154l518 1222h252l518 -1222v-154h-1288zM698 1077l-358 -868h717z" />
    <glyph glyph-name="product" unicode="&#x220f;" horiz-adv-x="1636" 
d="M172 -426v1868h1290v-1868h-272v1659h-746v-1659h-272z" />
    <glyph glyph-name="summation" unicode="&#x2211;" horiz-adv-x="1298" 
d="M63 -426v162l627 788l-594 756v162h1135v-209h-780l501 -647v-123l-534 -680h846v-209h-1201z" />
    <glyph glyph-name="minus" unicode="&#x2212;" horiz-adv-x="1179" 
d="M90 479v221h1000v-221h-1000z" />
    <glyph glyph-name="uni2215" unicode="&#x2215;" horiz-adv-x="393" 
d="M-387 51l1032 1376l135 -102l-1032 -1376z" />
    <glyph glyph-name="radical" unicode="&#x221a;" horiz-adv-x="1394" 
d="M1370 1419l-514 -1845h-268l-217 627l-308 -101l-67 207l518 170l199 -594l442 1592z" />
    <glyph glyph-name="infinity" unicode="&#x221e;" horiz-adv-x="1636" 
d="M57 590q0 184 106.5 301t276.5 117q119 0 206 -56t171 -184q84 128 171.5 184t205.5 56q171 0 278 -117t107 -301q0 -183 -107 -300.5t-278 -117.5q-118 0 -205.5 56t-171.5 184q-84 -128 -171 -184t-206 -56q-170 0 -276.5 117t-106.5 301zM297 590q0 -94 50.5 -153.5
t129.5 -59.5q70 0 123 51t107 162q-54 111 -107 162t-123 51q-79 0 -129.5 -60t-50.5 -153zM1337 590q0 94 -49.5 153.5t-130.5 59.5q-70 0 -122 -51t-105 -162q53 -111 105 -162t122 -51q81 0 130.5 60t49.5 153z" />
    <glyph glyph-name="integral" unicode="&#x222b;" horiz-adv-x="849" 
d="M414 1075q0 -79 29.5 -191t72 -227t85 -233t72 -242t29.5 -221q0 -182 -103 -297t-267 -115q-88 0 -193 31l47 203q55 -19 105 -19q63 0 104 50t41 127q0 79 -30 191t-72.5 227t-85.5 233t-73 242t-30 221q0 181 104 296t267 115q94 0 193 -30l-47 -203q-53 18 -103 18
q-64 0 -104.5 -49.5t-40.5 -126.5z" />
    <glyph glyph-name="approxequal" unicode="&#x2248;" horiz-adv-x="1179" 
d="M166 205l-119 186q156 119 326 119q77 0 152 -24.5t145.5 -49t136.5 -24.5q106 0 207 88l119 -187q-153 -120 -326 -120q-78 0 -153 24.5t-145 49t-136 24.5q-105 0 -207 -86zM166 680l-119 186q154 121 326 121q77 0 152 -24.5t145.5 -49t136.5 -24.5q105 0 207 86
l119 -187q-154 -118 -326 -118q-78 0 -153 24.5t-145 49t-136 24.5q-106 0 -207 -88z" />
    <glyph glyph-name="notequal" unicode="&#x2260;" horiz-adv-x="1179" 
d="M90 707v221h545l139 278l199 -96l-92 -182h209v-221h-320l-117 -234h437v-221h-547l-137 -275l-199 97l90 178h-207v221h318l116 234h-434z" />
    <glyph glyph-name="lessequal" unicode="&#x2264;" horiz-adv-x="1179" 
d="M90 0v221h1000v-221h-1000zM90 723v221l934 426l88 -209l-725 -327l725 -326l-88 -211z" />
    <glyph glyph-name="greaterequal" unicode="&#x2265;" horiz-adv-x="1179" 
d="M1090 944v-221l-934 -426l-88 211l725 326l-725 327l88 209zM90 0v221h1000v-221h-1000z" />
    <glyph glyph-name="uni22C5" unicode="&#x22c5;" horiz-adv-x="542" 
d="M106 514q0 72 46.5 118t117.5 46q72 0 118 -46t46 -118q0 -71 -46 -117.5t-118 -46.5q-70 0 -117 47t-47 117z" />
    <glyph glyph-name="lozenge" unicode="&#x25ca;" horiz-adv-x="1179" 
d="M479 0l-432 688l432 688h221l433 -688l-433 -688h-221zM590 1135l-279 -447l279 -448l278 448z" />
    <glyph glyph-name="zero.lprop" unicode="&#xe010;" horiz-adv-x="1351" 
d="M113 688q0 326 153 519.5t410 193.5t411 -193.5t154 -519.5t-154 -519.5t-411 -193.5t-410 193.5t-153 519.5zM379 688q0 -239 78.5 -373.5t218.5 -134.5t218.5 134.5t78.5 373.5t-78.5 373.5t-218.5 134.5t-218.5 -134.5t-78.5 -373.5z" />
    <glyph glyph-name="one.lprop" unicode="&#xe011;" horiz-adv-x="849" 
d="M397 0v1122l-315 -180l-90 176l448 258h219v-1376h-262z" />
    <glyph glyph-name="two.lprop" unicode="&#xe012;" horiz-adv-x="1069" 
d="M45 0v166l490 489q155 155 155 293q0 103 -66.5 167.5t-172.5 64.5q-77 0 -148.5 -28t-167.5 -85l-100 193q242 141 467 141q196 0 320 -116.5t124 -299.5q0 -222 -198 -420l-355 -356h570v-209h-918z" />
    <glyph glyph-name="three.lprop" unicode="&#xe013;" horiz-adv-x="1069" 
d="M319 610v189h97q117 0 190.5 56.5t73.5 145.5q0 85 -57.5 138t-151.5 53q-150 0 -336 -86l-84 194q224 101 461 101q189 0 309.5 -104.5t120.5 -268.5q0 -113 -59.5 -196.5t-163.5 -120.5q115 -37 185.5 -130.5t70.5 -215.5q0 -171 -130 -280.5t-333 -109.5
q-256 0 -494 109l84 195q201 -95 363 -95q106 0 174 58t68 149q0 97 -81 158t-210 61h-97z" />
    <glyph glyph-name="four.lprop" unicode="&#xe014;" horiz-adv-x="1187" 
d="M696 0v297h-641v178l633 901h250v-878h182v-201h-182v-297h-242zM299 498h397v565z" />
    <glyph glyph-name="five.lprop" unicode="&#xe015;" horiz-adv-x="1069" 
d="M936 1376v-209h-567v-331q61 10 143 10q217 0 345 -116.5t128 -313.5q0 -193 -141 -317t-363 -124q-228 0 -436 125l100 193q170 -103 316 -103q123 0 195.5 63t72.5 169q0 113 -79.5 177.5t-221.5 64.5q-128 0 -289 -37v749h797z" />
    <glyph glyph-name="six.lprop" unicode="&#xe016;" horiz-adv-x="1220" 
d="M111 621q0 370 158 575t440 205q198 0 368 -90l-90 -189q-145 74 -268 74q-165 0 -261 -117t-100 -334q52 71 138 112.5t188 41.5q198 0 323.5 -124t125.5 -320q0 -209 -138.5 -344.5t-351.5 -135.5q-249 0 -390.5 170t-141.5 476zM375 465q0 -126 72 -205.5t186 -79.5
q111 0 184.5 75t73.5 189t-70 184t-184 70q-113 0 -187.5 -66t-74.5 -167z" />
    <glyph glyph-name="seven.lprop" unicode="&#xe017;" horiz-adv-x="991" 
d="M145 0l504 1167h-631v209h918v-166l-516 -1210h-275z" />
    <glyph glyph-name="eight.lprop" unicode="&#xe018;" horiz-adv-x="1220" 
d="M610 799q232 50 232 211q0 83 -66 137.5t-166 54.5t-165.5 -54.5t-65.5 -137.5q0 -161 231 -211zM94 367q0 119 72.5 208t202.5 130q-110 39 -176 124t-66 197q0 166 134 270.5t349 104.5t349.5 -104.5t134.5 -270.5q0 -112 -66 -197t-176 -124q131 -43 202.5 -131.5
t71.5 -206.5q0 -175 -143 -283.5t-373 -108.5t-373 108.5t-143 283.5zM610 610q-120 -26 -187 -83t-67 -144q0 -93 70.5 -151t183.5 -58t183.5 58t70.5 151q0 87 -67 144t-187 83z" />
    <glyph glyph-name="nine.lprop" unicode="&#xe019;" horiz-adv-x="1220" 
d="M1110 756q0 -370 -158 -575.5t-440 -205.5q-197 0 -369 91l90 188q145 -74 269 -74q165 0 260.5 117t99.5 334q-52 -71 -137.5 -112.5t-187.5 -41.5q-198 0 -323.5 124.5t-125.5 320.5q0 209 138.5 344t351.5 135q249 0 390.5 -169.5t141.5 -475.5zM846 911
q0 126 -72 205.5t-186 79.5q-111 0 -184.5 -75t-73.5 -189t70 -184t184 -70q113 0 187.5 66t74.5 167z" />
    <glyph glyph-name="dollar.lprop" unicode="&#xe01a;" horiz-adv-x="1067" 
d="M424 -262v342q-165 15 -348 86l63 205q213 -88 375 -88q100 0 155.5 39t55.5 108q0 40 -27.5 69t-72.5 45t-102.5 33t-118 31.5t-118 42.5t-102.5 63.5t-72.5 97.5t-27.5 142q0 132 92.5 222.5t247.5 113.5v348h221v-344q137 -14 307 -80l-63 -202q-195 82 -334 82
q-94 0 -148.5 -38t-54.5 -102q0 -44 35.5 -73.5t92 -46.5t124.5 -33t136.5 -41.5t125 -62.5t92 -105t35.5 -162q0 -136 -94.5 -228t-253.5 -116v-348h-221z" />
    <glyph glyph-name="cent.lprop" unicode="&#xe01b;" horiz-adv-x="1122" 
d="M121 688q0 196 108 333.5t287 174.5v311h221v-301q160 -15 301 -108l-106 -178q-133 86 -242 86q-133 0 -217 -89t-84 -229t84 -228.5t217 -88.5q114 0 242 86l106 -178q-141 -93 -301 -111v-299h-221v309q-179 38 -287 176.5t-108 333.5z" />
    <glyph glyph-name="Euro.lprop" unicode="&#xe01c;" horiz-adv-x="1167" 
d="M55 477v160h125q-4 32 -4 51q0 30 4 84h-125v160h156q60 218 211.5 343.5t357.5 125.5q203 0 379 -101l-94 -178q-126 74 -254 74q-118 0 -208 -72.5t-126 -191.5h449v-160h-494q-4 -54 -4 -84q0 -9 1 -26t1 -25h496v-160h-461q34 -136 126.5 -216.5t219.5 -80.5
q128 0 254 74l94 -178q-176 -101 -379 -101q-213 0 -367.5 134.5t-211.5 367.5h-146z" />
    <glyph glyph-name="sterling.lprop" unicode="&#xe01d;" horiz-adv-x="1167" 
d="M117 0v205h186v399h-153v201h153v186q0 181 125.5 295.5t319.5 114.5q144 0 335 -68l-67 -194q-112 47 -217 47q-98 0 -161 -60t-63 -155v-166h355v-201h-355v-399h508v-205h-966z" />
    <glyph glyph-name="yen.lprop" unicode="&#xe01e;" 
d="M477 0v262h-297v178h297v138h-297v178h232l-387 620h286l303 -530l304 530h286l-387 -620h232v-178h-297v-138h297v-178h-297v-262h-275z" />
    <glyph glyph-name="zero.otab" unicode="&#xe020;" horiz-adv-x="1179" 
d="M68 535q0 245 146 402t376 157t376 -157t146 -402t-146 -402.5t-376 -157.5t-376 157.5t-146 402.5zM309 535q0 -154 78.5 -252.5t202.5 -98.5t202 98.5t78 252.5t-78 252t-202 98t-202.5 -98t-78.5 -252z" />
    <glyph glyph-name="one.otab" unicode="&#xe021;" horiz-adv-x="1179" 
d="M809 1069v-1069h-262v815l-240 -137l-100 176l383 215h219z" />
    <glyph glyph-name="two.otab" unicode="&#xe022;" horiz-adv-x="1179" 
d="M166 0v166l416 330q66 54 96.5 104t30.5 107q0 74 -53 123t-134 49q-101 0 -266 -91l-100 189q212 117 417 117q175 0 285.5 -100t110.5 -261q0 -192 -174 -327l-254 -207h444v-199h-819z" />
    <glyph glyph-name="three.otab" unicode="&#xe023;" horiz-adv-x="1179" 
d="M358 309v189h97q117 0 190.5 56t73.5 144q0 82 -58 134.5t-151 52.5q-147 0 -336 -84l-84 192q224 101 461 101q189 0 309.5 -103.5t120.5 -267.5q0 -110 -60 -193t-163 -120q115 -37 185.5 -129.5t70.5 -212.5q0 -171 -130 -279t-333 -108q-259 0 -494 108l84 195
q201 -95 363 -95q106 0 173.5 57t67.5 146q0 97 -80.5 157t-209.5 60h-97z" />
    <glyph glyph-name="four.otab" unicode="&#xe024;" horiz-adv-x="1179" 
d="M692 -295v295h-641v166l633 903h250v-870h182v-199h-182v-295h-242zM295 199h397v577z" />
    <glyph glyph-name="five.otab" unicode="&#xe025;" horiz-adv-x="1179" 
d="M1008 1069v-209h-568v-325q73 12 144 12q216 0 344.5 -117t128.5 -311q0 -191 -141 -314.5t-363 -123.5q-230 0 -436 124l100 193q168 -102 315 -102q123 0 196 61.5t73 165.5q0 113 -79.5 176t-221.5 63q-132 0 -289 -36v743h797z" />
    <glyph glyph-name="six.otab" unicode="&#xe026;" horiz-adv-x="1179" 
d="M90 618q0 365 158 568t440 203q195 0 369 -89l-90 -188q-141 72 -269 72q-165 0 -260.5 -114.5t-99.5 -328.5q51 71 137.5 111.5t188.5 40.5q198 0 323 -123t125 -319q0 -206 -138.5 -341t-350.5 -135q-249 0 -391 169.5t-142 473.5zM354 461q0 -123 72 -202t186 -79
q111 0 184.5 74t73.5 186q0 114 -70 184t-184 70q-113 0 -187.5 -66t-74.5 -167z" />
    <glyph glyph-name="seven.otab" unicode="&#xe027;" horiz-adv-x="1179" 
d="M246 -295l497 1155h-614v209h901v-166l-512 -1198h-272z" />
    <glyph glyph-name="eight.otab" unicode="&#xe028;" horiz-adv-x="1179" 
d="M590 793q231 50 231 208q0 82 -65.5 135.5t-165.5 53.5t-166 -53.5t-66 -135.5q0 -158 232 -208zM74 365q0 117 72 204.5t202 128.5q-110 39 -176 123.5t-66 194.5q0 166 134.5 269.5t349.5 103.5t349 -103.5t134 -269.5q0 -110 -66 -194.5t-176 -123.5
q131 -41 203 -128.5t72 -204.5q0 -175 -143 -282.5t-373 -107.5t-373 107.5t-143 282.5zM590 604q-119 -24 -186.5 -81t-67.5 -144q0 -91 71 -148t183 -57t183 57t71 148q0 87 -67.5 144t-186.5 81z" />
    <glyph glyph-name="nine.otab" unicode="&#xe029;" horiz-adv-x="1179" 
d="M1090 451q0 -364 -158 -567t-440 -203q-199 0 -369 90l90 188q145 -74 268 -74q165 0 261 114.5t100 328.5q-51 -71 -137.5 -111.5t-188.5 -40.5q-198 0 -323 123t-125 319q0 206 138.5 341t350.5 135q249 0 391 -169t142 -474zM825 608q0 124 -72 202.5t-186 78.5
q-111 0 -184.5 -74t-73.5 -186q0 -113 70 -182.5t184 -69.5q113 0 187.5 65t74.5 166z" />
    <glyph glyph-name="dollar.otab" unicode="&#xe02a;" horiz-adv-x="1179" 
d="M479 -328v312q-155 13 -307 75l57 195q198 -80 340 -80q82 0 131.5 34.5t49.5 94.5q0 37 -24.5 63.5t-64.5 40.5t-91.5 29.5t-104.5 28t-104.5 37t-91.5 56t-64.5 86.5t-24.5 126q0 118 81 201.5t218 109.5v316h221v-312q129 -15 269 -69l-58 -195q-168 74 -299 74
q-80 0 -127 -35t-47 -90q0 -35 24.5 -60.5t64.5 -38.5t91.5 -27.5t104.5 -27t104.5 -37.5t91.5 -57.5t64.5 -88.5t24.5 -130q0 -124 -83.5 -207.5t-224.5 -107.5v-316h-221z" />
    <glyph glyph-name="cent.otab" unicode="&#xe02b;" horiz-adv-x="1179" 
d="M150 535q0 196 108 333t287 174v312h221v-301q158 -15 301 -109l-106 -178q-133 86 -242 86q-133 0 -217 -88.5t-84 -228.5t84 -229t217 -89q114 0 242 86l106 -178q-141 -93 -301 -111v-299h-221v310q-179 38 -287 176.5t-108 333.5z" />
    <glyph glyph-name="Euro.otab" unicode="&#xe02c;" horiz-adv-x="1179" 
d="M127 350v135h106q0 8 -1 25t-1 25q0 7 5 65h-109v137h139q52 163 182.5 260t305.5 97q182 0 336 -86l-89 -152q-105 59 -210 59q-88 0 -155.5 -48.5t-100.5 -129.5h364v-137h-422q-4 -46 -4 -65q0 -34 2 -50h424v-135h-377q34 -91 104.5 -143.5t164.5 -52.5q105 0 210 59
l89 -150q-157 -88 -336 -88q-180 0 -312 101.5t-182 273.5h-133z" />
    <glyph glyph-name="sterling.otab" unicode="&#xe02d;" horiz-adv-x="1179" 
d="M180 0v188h162v269h-137v180h137v131q0 148 108 243t277 95q135 0 295 -55l-57 -177q-122 37 -187 37q-76 0 -125 -47t-49 -119v-108h299v-180h-299v-269h420v-188h-844z" />
    <glyph glyph-name="yen.otab" unicode="&#xe02e;" horiz-adv-x="1179" 
d="M459 0v158h-264v157h264v113h-264v160h196l-325 481h286l238 -393l237 393h287l-326 -481h197v-160h-264v-113h264v-157h-264v-158h-262z" />
    <glyph glyph-name="zero.oprop" unicode="&#xe030;" horiz-adv-x="1275" 
d="M96 535q0 246 150.5 402.5t390.5 156.5q241 0 392 -157t151 -402q0 -246 -151.5 -403t-391.5 -157t-390.5 157t-150.5 403zM352 535q0 -154 79.5 -252.5t205.5 -98.5q127 0 207 98.5t80 252.5t-80 252t-207 98q-126 0 -205.5 -98t-79.5 -252z" />
    <glyph glyph-name="one.oprop" unicode="&#xe031;" horiz-adv-x="837" 
d="M637 1069v-1069h-262v815l-240 -137l-100 176l383 215h219z" />
    <glyph glyph-name="two.oprop" unicode="&#xe032;" horiz-adv-x="1003" 
d="M78 0v166l416 330q66 54 96.5 104t30.5 107q0 74 -53 123t-134 49q-101 0 -266 -91l-100 189q212 117 417 117q175 0 285.5 -100t110.5 -261q0 -192 -174 -327l-254 -207h444v-199h-819z" />
    <glyph glyph-name="three.oprop" unicode="&#xe033;" horiz-adv-x="1036" 
d="M287 309v189h96q117 0 190.5 56t73.5 144q0 82 -58 134.5t-151 52.5q-147 0 -336 -84l-84 192q224 101 461 101q189 0 309.5 -103.5t120.5 -267.5q0 -110 -60 -193t-163 -120q115 -37 185.5 -129.5t70.5 -212.5q0 -171 -130 -279t-333 -108q-258 0 -493 108l84 195
q201 -95 362 -95q106 0 174 57t68 146q0 97 -81 157t-210 60h-96z" />
    <glyph glyph-name="four.oprop" unicode="&#xe034;" horiz-adv-x="1155" 
d="M680 -295v295h-641v166l633 903h250v-870h182v-199h-182v-295h-242zM283 199h397v577z" />
    <glyph glyph-name="five.oprop" unicode="&#xe035;" horiz-adv-x="1069" 
d="M952 1069v-209h-567v-325q73 12 143 12q216 0 344.5 -117t128.5 -311q0 -191 -140.5 -314.5t-362.5 -123.5q-231 0 -437 124l101 193q168 -102 315 -102q123 0 195.5 61.5t72.5 165.5q0 113 -79.5 176t-221.5 63q-131 0 -288 -36v743h796z" />
    <glyph glyph-name="six.oprop" unicode="&#xe036;" horiz-adv-x="1220" 
d="M111 618q0 365 158 568t440 203q194 0 368 -89l-90 -188q-141 72 -268 72q-165 0 -261 -114.5t-100 -328.5q51 71 137.5 111.5t188.5 40.5q198 0 323.5 -123t125.5 -319q0 -206 -139 -341t-351 -135q-249 0 -390.5 169.5t-141.5 473.5zM375 461q0 -123 72 -202t186 -79
q111 0 184.5 74t73.5 186q0 114 -70 184t-184 70q-113 0 -187.5 -66t-74.5 -167z" />
    <glyph glyph-name="seven.oprop" unicode="&#xe037;" horiz-adv-x="991" 
d="M152 -295l497 1155h-614v209h901v-166l-512 -1198h-272z" />
    <glyph glyph-name="eight.oprop" unicode="&#xe038;" horiz-adv-x="1220" 
d="M610 793q232 50 232 208q0 82 -66 135.5t-166 53.5t-165.5 -53.5t-65.5 -135.5q0 -158 231 -208zM94 365q0 117 72 204.5t203 128.5q-110 39 -176 123.5t-66 194.5q0 166 134 269.5t349 103.5t349.5 -103.5t134.5 -269.5q0 -110 -66 -194.5t-176 -123.5
q130 -41 202 -128.5t72 -204.5q0 -175 -143 -282.5t-373 -107.5t-373 107.5t-143 282.5zM610 604q-119 -24 -186.5 -81t-67.5 -144q0 -91 71 -148t183 -57t183 57t71 148q0 87 -67.5 144t-186.5 81z" />
    <glyph glyph-name="nine.oprop" unicode="&#xe039;" horiz-adv-x="1220" 
d="M1110 451q0 -364 -158 -567t-440 -203q-199 0 -369 90l90 188q145 -74 269 -74q165 0 260.5 114.5t99.5 328.5q-51 -71 -137 -111.5t-188 -40.5q-198 0 -323.5 123t-125.5 319q0 206 139 341t351 135q249 0 390.5 -169t141.5 -474zM846 608q0 124 -72 202.5t-186 78.5
q-111 0 -184.5 -74t-73.5 -186q0 -113 70 -182.5t184 -69.5q113 0 187.5 65t74.5 166z" />
    <glyph glyph-name="dollar.oprop" unicode="&#xe03a;" horiz-adv-x="1017" 
d="M399 -328v312q-155 13 -307 75l58 195q198 -80 339 -80q82 0 131.5 34.5t49.5 94.5q0 37 -24.5 63.5t-64.5 40.5t-91.5 29.5t-104.5 28t-104.5 37t-91.5 56t-64.5 86.5t-24.5 126q0 118 81 201.5t218 109.5v316h222v-312q128 -15 268 -69l-58 -195q-168 74 -299 74
q-80 0 -127 -35t-47 -90q0 -35 24.5 -60.5t64.5 -38.5t91.5 -27.5t104.5 -27t104.5 -37.5t91.5 -57.5t64.5 -88.5t24.5 -130q0 -125 -83 -208t-224 -107v-316h-222z" />
    <glyph glyph-name="cent.oprop" unicode="&#xe03b;" horiz-adv-x="1056" 
d="M88 535q0 196 108 333t287 174v312h222v-301q158 -15 301 -109l-107 -178q-133 86 -242 86q-133 0 -217 -88.5t-84 -228.5t84 -229t217 -89q114 0 242 86l107 -178q-141 -93 -301 -111v-299h-222v310q-179 38 -287 176.5t-108 333.5z" />
    <glyph glyph-name="Euro.oprop" unicode="&#xe03c;" horiz-adv-x="1069" 
d="M72 350v135h106q0 8 -1 25t-1 25q0 19 4 65h-108v137h139q52 163 182 260t305 97q182 0 336 -86l-88 -152q-105 59 -211 59q-88 0 -155.5 -48.5t-100.5 -129.5h365v-137h-422q-4 -46 -4 -65q0 -34 2 -50h424v-135h-377q34 -91 104 -143.5t164 -52.5q106 0 211 59l88 -150
q-157 -88 -336 -88q-180 0 -311.5 101.5t-181.5 273.5h-133z" />
    <glyph glyph-name="sterling.oprop" unicode="&#xe03d;" horiz-adv-x="991" 
d="M86 0v188h162v269h-137v180h137v131q0 148 108 243t277 95q135 0 295 -55l-58 -177q-122 37 -186 37q-76 0 -125 -47t-49 -119v-108h299v-180h-299v-269h420v-188h-844z" />
    <glyph glyph-name="yen.oprop" unicode="&#xe03e;" horiz-adv-x="1046" 
d="M391 0v158h-264v157h264v113h-264v160h197l-326 481h287l237 -393l238 393h287l-326 -481h197v-160h-265v-113h265v-157h-265v-158h-262z" />
    <glyph glyph-name="zero.num" unicode="&#xe040;" horiz-adv-x="888" 
d="M84 950q0 203 97.5 322t262.5 119q164 0 262.5 -119t98.5 -322t-98.5 -321.5t-262.5 -118.5q-165 0 -262.5 118.5t-97.5 321.5zM279 950q0 -140 43 -215.5t122 -75.5q80 0 123 76t43 215t-43 215t-123 76q-79 0 -122 -75.5t-43 -215.5z" />
    <glyph glyph-name="one.num" unicode="&#xe041;" horiz-adv-x="573" 
d="M446 1376v-852h-192v666l-180 -103l-68 127l281 162h159z" />
    <glyph glyph-name="two.num" unicode="&#xe042;" horiz-adv-x="704" 
d="M45 524v121l289 291q90 87 90 164q0 59 -35.5 94t-95.5 35q-75 0 -187 -66l-73 142q157 88 299 88q125 0 203.5 -74t78.5 -189q0 -139 -120 -256l-197 -196h328v-154h-580z" />
    <glyph glyph-name="three.num" unicode="&#xe043;" horiz-adv-x="704" 
d="M207 895v131h72q63 0 103 31.5t40 79.5t-31.5 77t-85.5 29q-90 0 -201 -51l-59 135q147 66 295 66q121 0 196.5 -66.5t75.5 -169.5q0 -68 -32.5 -118.5t-92.5 -73.5q65 -24 105.5 -81t40.5 -130q0 -109 -82 -177.5t-211 -68.5q-162 0 -313 70l61 137q119 -58 213 -58
q60 0 97.5 32t37.5 83q0 54 -43.5 88.5t-113.5 34.5h-72z" />
    <glyph glyph-name="four.num" unicode="&#xe044;" horiz-adv-x="782" 
d="M451 524v176h-400v134l387 542h183v-536h104v-140h-104v-176h-170zM219 840h232v325z" />
    <glyph glyph-name="five.num" unicode="&#xe045;" horiz-adv-x="704" 
d="M608 1376v-147h-340v-178q43 6 82 6q128 0 208.5 -74.5t80.5 -196.5q0 -120 -90.5 -199t-231.5 -79t-276 82l72 133q99 -61 188 -61q66 0 107 35.5t41 93.5q0 63 -43.5 98t-120.5 35q-85 0 -187 -21v473h510z" />
    </font>
</defs>
</svg>
