<?xml version="1.0" standalone="no"?>
<!DOCTYPE svg PUBLIC "-//W3C//DTD SVG 1.1//EN" "http://www.w3.org/Graphics/SVG/1.1/DTD/svg11.dtd" >
<svg xmlns="http://www.w3.org/2000/svg" xmlns:xlink="http://www.w3.org/1999/xlink" version="1.1">
<metadata>
Created by FontForge 20170731 at Thu Aug  6 08:49:52 2020
 By Aleksey,,,
Copyright (c) 2012 by Fontsmith Ltd. All rights reserved.
</metadata>
<defs>
<font id="FSElliotPro-ThinItalic" horiz-adv-x="1179" >
  <font-face 
    font-family="FS Elliot Pro Thin"
    font-weight="250"
    font-style="italic"
    font-stretch="normal"
    units-per-em="2048"
    panose-1="2 0 5 3 3 0 0 9 0 4"
    ascent="1536"
    descent="-512"
    x-height="985"
    cap-height="1376"
    bbox="-420 -563 2398 2064"
    underline-thickness="102"
    underline-position="-307"
    slope="-12"
    unicode-range="U+000D-FB04"
  />
<missing-glyph horiz-adv-x="1024" 
d="M57 0v1376h975v-1376h-975zM213 1278l332 -500l332 500h-664zM156 1188v-1000l331 500zM934 1188l-332 -500l332 -500v1000zM877 98l-332 500l-332 -500h664z" />
    <glyph glyph-name="f_b" unicode="fb" horiz-adv-x="1781" 
d="M205 0l164 940h-228l9 45h227l39 221q23 122 108 191t213 69q135 0 326 -67l-107 -596q66 99 161.5 153t205.5 54q158 0 256 -107t98 -280q0 -181 -64.5 -329t-179.5 -233.5t-257 -85.5q-121 0 -208 67.5t-112 180.5l-47 -223h-41l242 1368q-173 53 -273 53
q-107 0 -180 -58t-92 -159l-39 -219h322l-9 -45h-321l-164 -940h-49zM1628 621q0 154 -85.5 248t-225.5 94q-143 0 -255 -97t-138 -245l-35 -209q-10 -48 -10 -88q0 -133 83 -218.5t212 -85.5t233 79.5t162.5 217t58.5 304.5z" />
    <glyph glyph-name="f_f_b" unicode="ffb" horiz-adv-x="2377" 
d="M205 0l164 940h-228l9 45h227l45 254q19 103 89 165t171 62q83 0 192 -45l-16 -43q-100 43 -174 43q-83 0 -140.5 -49.5t-72.5 -134.5l-45 -252h547l39 221q23 122 108 191t213 69q135 0 326 -67l-107 -596q66 99 161.5 153t205.5 54q158 0 256 -107t98 -280
q0 -181 -64.5 -329t-179.5 -233.5t-257 -85.5q-120 0 -208 67t-114 181l-45 -223h-41l242 1368q-173 53 -273 53q-107 0 -180 -58t-92 -159l-39 -219h321l-8 -45h-321l-164 -940h-49l164 940h-547l-164 -940h-49zM2224 621q0 154 -85.5 248t-225.5 94q-144 0 -255.5 -97
t-137.5 -245l-35 -209q-10 -48 -10 -88q0 -133 82.5 -218.5t211.5 -85.5q128 0 232.5 79.5t163.5 217t59 304.5z" />
    <glyph glyph-name="f_h" unicode="fh" horiz-adv-x="1781" 
d="M205 0l164 940h-228l9 45h227l39 221q23 122 108 191t213 69q135 0 326 -67l-111 -621q60 106 163 169t218 63q135 0 220 -80t85 -209q0 -47 -10 -109l-108 -612h-50l109 612q10 58 10 105q0 112 -72.5 179t-191.5 67q-148 0 -262 -105.5t-143 -269.5l-103 -588h-49
l242 1368q-173 53 -273 53q-107 0 -180 -58t-92 -159l-39 -219h322l-9 -45h-321l-164 -940h-49z" />
    <glyph glyph-name="f_f_h" unicode="ffh" horiz-adv-x="2377" 
d="M205 0l164 940h-228l9 45h227l45 254q19 103 89 165t171 62q83 0 192 -45l-16 -43q-100 43 -174 43q-83 0 -140.5 -49.5t-72.5 -134.5l-45 -252h547l39 221q23 122 108 191t213 69q135 0 326 -67l-111 -621q60 106 163 169t218 63q135 0 220 -80t85 -209q0 -47 -10 -109
l-108 -612h-50l109 612q8 47 8 105q0 112 -71.5 179t-190.5 67q-149 0 -262.5 -105t-142.5 -270l-105 -588h-47l242 1368q-173 53 -273 53q-107 0 -180 -58t-92 -159l-39 -219h321l-8 -45h-321l-164 -940h-49l164 940h-547l-164 -940h-49z" />
    <glyph glyph-name="f_j" unicode="fj" horiz-adv-x="1093" 
d="M205 0l164 940h-228l9 45h227l39 221q23 121 108.5 190.5t212.5 69.5q133 0 289 -75l-22 -41q-152 71 -267 71q-105 0 -179 -59t-93 -158l-39 -219h563l-213 -1208q-17 -103 -88 -165.5t-172 -62.5q-74 0 -192 41l16 43q112 -39 174 -39q85 0 142 50t71 135l205 1161
h-514l-164 -940h-49z" />
    <glyph glyph-name="f_f_j" unicode="ffj" horiz-adv-x="1689" 
d="M205 0l164 940h-228l9 45h227l45 254q19 103 89 165t171 62q83 0 192 -45l-16 -43q-100 43 -174 43q-83 0 -140.5 -49.5t-72.5 -134.5l-45 -252h547l39 221q23 121 108.5 190.5t212.5 69.5q133 0 289 -75l-23 -41q-152 71 -266 71q-105 0 -179 -59t-93 -158l-39 -219h563
l-213 -1208q-17 -103 -88 -165.5t-172 -62.5q-74 0 -192 41l16 43q112 -39 174 -39q83 0 140.5 50t72.5 135l205 1161h-514l-164 -940h-49l164 940h-547l-164 -940h-49z" />
    <glyph glyph-name="f_k" unicode="fk" horiz-adv-x="1634" 
d="M205 0l164 940h-228l9 45h227l39 221q23 122 108 191t213 69q135 0 326 -67l-172 -969l653 555h70l-545 -461l389 -524h-59l-365 494l-153 -129l-66 -365h-47l242 1368q-173 53 -273 53q-107 0 -180 -58t-92 -159l-39 -219h322l-9 -45h-321l-164 -940h-49z" />
    <glyph glyph-name="f_f_k" unicode="ffk" horiz-adv-x="2230" 
d="M205 0l164 940h-228l9 45h227l45 254q19 103 89 165t171 62q83 0 192 -45l-16 -43q-100 43 -174 43q-83 0 -140.5 -49.5t-72.5 -134.5l-45 -252h547l39 221q23 122 108 191t213 69q135 0 326 -67l-172 -969l651 555h72l-545 -461l389 -524h-59l-365 494l-153 -129
l-66 -365h-47l242 1368q-173 53 -273 53q-107 0 -180 -58t-92 -159l-39 -219h321l-8 -45h-321l-164 -940h-49l164 940h-547l-164 -940h-49z" />
    <glyph glyph-name="f_f" unicode="ff" horiz-adv-x="1320" 
d="M205 0l164 940h-228l9 45h227l45 254q19 103 89 165t171 62q83 0 192 -45l-16 -43q-100 43 -174 43q-83 0 -140.5 -49.5t-72.5 -134.5l-45 -252h547l45 254q19 103 89 165t171 62q80 0 192 -45l-16 -43q-105 43 -174 43q-83 0 -140.5 -49.5t-72.5 -134.5l-45 -252h321
l-8 -45h-321l-164 -940h-49l164 940h-547l-164 -940h-49z" />
    <glyph glyph-name="fi" unicode="fi" horiz-adv-x="1093" 
d="M205 0l164 940h-228l9 45h227l39 221q23 121 108.5 190.5t212.5 69.5q133 0 289 -75l-22 -41q-152 71 -267 71q-105 0 -179 -59t-93 -158l-39 -219h563l-172 -985h-49l164 940h-514l-164 -940h-49z" />
    <glyph glyph-name="fl" unicode="fl" horiz-adv-x="1191" 
d="M205 0l164 940h-228l9 45h227l39 221q23 122 108 191t213 69q135 0 326 -67l-215 -1206q-6 -34 -6 -60q0 -52 34.5 -82.5t90.5 -30.5q15 0 30 2t32 6t24 5l8 -45q-71 -13 -100 -13q-74 0 -121 42t-47 112q0 27 6 64l211 1175q-173 53 -273 53q-107 0 -180 -58t-92 -159
l-39 -219h322l-9 -45h-321l-164 -940h-49z" />
    <glyph glyph-name="f_f_i" unicode="ffi" horiz-adv-x="1689" 
d="M205 0l164 940h-228l9 45h227l45 254q19 103 89 165t171 62q83 0 192 -45l-16 -43q-100 43 -174 43q-83 0 -140.5 -49.5t-72.5 -134.5l-45 -252h547l39 221q23 121 108.5 190.5t212.5 69.5q133 0 289 -75l-23 -41q-152 71 -266 71q-105 0 -179 -59t-93 -158l-39 -219h563
l-174 -985h-47l164 940h-514l-164 -940h-49l164 940h-547l-164 -940h-49z" />
    <glyph glyph-name="f_f_l" unicode="ffl" horiz-adv-x="1787" 
d="M205 0l164 940h-228l9 45h227l45 254q19 103 89 165t171 62q83 0 192 -45l-16 -43q-100 43 -174 43q-83 0 -140.5 -49.5t-72.5 -134.5l-45 -252h547l39 221q23 122 108 191t213 69q135 0 326 -67l-215 -1206q-6 -35 -6 -60q0 -52 34.5 -82.5t90.5 -30.5q14 0 29 2t32.5 6
t24.5 5l8 -45q-76 -13 -101 -13q-75 0 -121 42t-46 112q0 27 6 64l211 1175q-173 53 -273 53q-107 0 -180 -58t-92 -159l-39 -219h321l-8 -45h-321l-164 -940h-49l164 940h-547l-164 -940h-49z" />
    <glyph glyph-name=".notdef" horiz-adv-x="1024" 
d="M57 0v1376h975v-1376h-975zM213 1278l332 -500l332 500h-664zM156 1188v-1000l331 500zM934 1188l-332 -500l332 -500v1000zM877 98l-332 500l-332 -500h664z" />
    <glyph glyph-name=".null" horiz-adv-x="0" 
 />
    <glyph glyph-name=".null" horiz-adv-x="0" 
 />
    <glyph glyph-name="nonmarkingreturn" horiz-adv-x="682" 
 />
    <glyph glyph-name="CR" unicode="&#xd;" horiz-adv-x="491" 
 />
    <glyph glyph-name="space" unicode=" " horiz-adv-x="491" 
 />
    <glyph glyph-name="exclam" unicode="!" horiz-adv-x="497" 
d="M205 397l166 979h53l-176 -979h-43zM111 33q0 28 18.5 46.5t46.5 18.5q22 0 35.5 -14.5t13.5 -36.5q0 -26 -18.5 -44.5t-46.5 -18.5q-22 0 -35.5 13.5t-13.5 35.5z" />
    <glyph glyph-name="quotedbl" unicode="&#x22;" horiz-adv-x="733" 
d="M264 975l66 401h51l-76 -401h-41zM600 975l66 401h51l-76 -401h-41z" />
    <glyph glyph-name="numbersign" unicode="#" horiz-adv-x="1312" 
d="M18 418l9 45h311l164 450h-301l8 45h309l156 424l45 -8l-154 -416h451l155 424l43 -8l-151 -416h301l-8 -45h-312l-163 -450h301l-8 -45h-310l-155 -424l-43 8l151 416h-450l-154 -424l-45 8l154 416h-304zM549 913l-164 -450h449l165 450h-450z" />
    <glyph glyph-name="dollar" unicode="$" 
d="M434 -262l60 338q-186 20 -347 104l19 43q204 -104 399 -104q149 0 243.5 76t94.5 202q0 52 -20.5 94t-55 71t-79.5 53t-94.5 44.5l-99 41t-94.5 47t-79.5 58t-55 78t-20.5 103.5q0 145 112.5 229.5t293.5 86.5l59 335h45l-59 -338q157 -16 319 -90l-18 -43
q-187 90 -375 90q-144 0 -236 -77t-92 -193q0 -51 20.5 -91.5t55 -68.5t79.5 -52t94.5 -44t99 -41t94.5 -47.5t79.5 -59t55 -80t20.5 -106.5q0 -151 -114 -236t-299 -87l-60 -336h-45z" />
    <glyph glyph-name="percent" unicode="%" horiz-adv-x="1769" 
d="M995 262q0 194 106.5 322.5t268.5 128.5q121 0 195.5 -79.5t74.5 -207.5q0 -194 -106 -322.5t-268 -128.5q-121 0 -196 79.5t-75 207.5zM1038 264q0 -110 63.5 -179t164.5 -69q144 0 237.5 116t93.5 292q0 110 -63 179t-164 69q-142 0 -237 -116.5t-95 -291.5zM268 14
l1272 1381l31 -33l-1272 -1380zM199 950q0 194 106 322.5t268 128.5q120 0 195.5 -80t75.5 -207q0 -194 -107 -322t-270 -128q-120 0 -194 79t-74 207zM242 952q0 -110 63 -178.5t164 -68.5q142 0 236 116t94 291q0 110 -62.5 179t-163.5 69q-144 0 -237.5 -116t-93.5 -292z
" />
    <glyph glyph-name="ampersand" unicode="&#x26;" horiz-adv-x="1249" 
d="M1077 0l-162 219q-104 -116 -226.5 -180t-233.5 -64q-170 0 -271.5 93.5t-101.5 242.5q0 140 109.5 267t304.5 213q-129 164 -129 301q0 134 90.5 221.5t228.5 87.5q113 0 179.5 -60.5t66.5 -164.5q0 -215 -369 -398l357 -485q120 178 153 364h45q-37 -208 -172 -401
l189 -256h-58zM131 315q0 -132 88 -213.5t238 -81.5q103 0 218.5 62t213.5 174l-367 500q-184 -82 -287.5 -198.5t-103.5 -242.5zM414 1094q0 -128 125 -281q346 166 346 361q0 86 -53 134t-146 48q-118 0 -195 -74t-77 -188z" />
    <glyph glyph-name="quotesingle" unicode="'" horiz-adv-x="399" 
d="M264 975l66 401h51l-76 -401h-41z" />
    <glyph glyph-name="parenleft" unicode="(" horiz-adv-x="659" 
d="M197 426q9 300 136.5 567.5t356.5 470.5l35 -32q-222 -190 -346 -451.5t-135 -554.5q-15 -401 188 -682l-37 -27q-210 291 -198 709z" />
    <glyph glyph-name="parenright" unicode=")" horiz-adv-x="659" 
d="M500 756q-9 -301 -137 -569t-357 -470l-33 33q221 188 345 450t135 556q15 400 -189 680l39 28q209 -294 197 -708z" />
    <glyph glyph-name="asterisk" unicode="*" horiz-adv-x="985" 
d="M975 958h-367l113 -348l-39 -14l-117 350l-295 -215l-24 35l295 215l-295 213l24 35l295 -213l117 348l39 -14l-113 -349h367v-43z" />
    <glyph glyph-name="plus" unicode="+" 
d="M113 567v45h471v471h45v-471h471v-45h-471v-471h-45v471h-471z" />
    <glyph glyph-name="comma" unicode="," horiz-adv-x="464" 
d="M94 33q0 28 19 46.5t47 18.5q26 0 41.5 -19.5t15.5 -53.5q0 -98 -64.5 -195t-172.5 -158l-21 31q191 123 203 285q-26 -7 -47 6.5t-21 38.5z" />
    <glyph glyph-name="hyphen" unicode="-" horiz-adv-x="655" 
d="M63 481l9 45h526l-8 -45h-527z" />
    <glyph glyph-name="period" unicode="." horiz-adv-x="464" 
d="M94 33q0 28 19 46.5t47 18.5q22 0 35.5 -14.5t13.5 -36.5q0 -26 -19 -44.5t-47 -18.5q-22 0 -35.5 13.5t-13.5 35.5z" />
    <glyph glyph-name="slash" unicode="/" horiz-adv-x="786" 
d="M-80 -254l918 1704l41 -16l-918 -1704z" />
    <glyph glyph-name="zero" unicode="0" 
d="M131 469q0 194 45 366t123 296.5t190 197t240 72.5q189 0 289 -130t100 -364q0 -194 -45 -366t-123 -296.5t-190 -197t-240 -72.5q-189 0 -289 130t-100 364zM178 469q0 -214 87.5 -331.5t256.5 -117.5q157 0 282.5 117.5t195 320t69.5 449.5q0 213 -86.5 331t-255.5 118
q-157 0 -283 -117.5t-196 -320t-70 -449.5z" />
    <glyph glyph-name="one" unicode="1" 
d="M594 0l229 1319l-440 -236l-18 43l473 250h47l-242 -1376h-49z" />
    <glyph glyph-name="two" unicode="2" 
d="M43 0l6 37l701 588q120 99 185.5 208.5t65.5 208.5q0 146 -84 230t-235 84q-160 0 -365 -111l-20 41q210 115 391 115q169 0 266 -95t97 -259q0 -109 -69 -227.5t-196 -223.5l-659 -551h766l-8 -45h-842z" />
    <glyph glyph-name="three" unicode="3" 
d="M457 682l8 45h72q195 0 322.5 99t127.5 251q0 124 -84 201.5t-219 77.5q-166 0 -350 -72l-17 43q193 74 371 74q155 0 251.5 -89.5t96.5 -232.5q0 -147 -101.5 -249t-250.5 -130q120 -23 190 -109.5t70 -211.5q0 -173 -130.5 -288.5t-321.5 -115.5q-206 0 -422 115l24 43
q209 -113 398 -113q171 0 287 103t116 256q0 140 -100.5 221.5t-278.5 81.5h-59z" />
    <glyph glyph-name="four" unicode="4" 
d="M694 0l62 356h-701l6 41l875 979h47l-172 -975h240l-7 -45h-239l-64 -356h-47zM123 401h639l160 895z" />
    <glyph glyph-name="five" unicode="5" 
d="M1108 1376l-8 -45h-664l-96 -549q122 17 215 17q198 0 314 -100.5t116 -270.5q0 -193 -141 -323t-350 -130q-203 0 -404 131l25 41q186 -127 379 -127q189 0 315.5 117t126.5 291q0 152 -104 240t-285 88q-123 0 -262 -25l112 645h711z" />
    <glyph glyph-name="six" unicode="6" 
d="M170 444q0 264 86 483.5t236 346.5t331 127q162 0 316 -92l-23 -39q-150 86 -295 86q-149 0 -277 -97.5t-212.5 -277t-106.5 -410.5q69 136 189 210.5t272 74.5q164 0 266.5 -104t102.5 -275q0 -210 -140 -356t-340 -146q-192 0 -298.5 123t-106.5 346zM225 395
q0 -167 97.5 -271t255.5 -104q179 0 303.5 132.5t124.5 322.5q0 154 -90 245t-236 91q-187 0 -320 -123.5t-135 -292.5z" />
    <glyph glyph-name="seven" unicode="7" 
d="M250 0l811 1331h-754l8 45h811l-6 -39l-813 -1337h-57z" />
    <glyph glyph-name="eight" unicode="8" 
d="M629 727q201 23 313.5 118t112.5 240q0 124 -90 197.5t-242 73.5q-173 0 -287 -96t-114 -238q0 -114 80.5 -191.5t226.5 -103.5zM115 305q0 153 110.5 257.5t315.5 144.5q-123 26 -196 113t-73 202q0 162 128.5 270.5t324.5 108.5q172 0 274.5 -85.5t102.5 -228.5
q0 -148 -103.5 -251t-285.5 -134q144 -37 220.5 -123t76.5 -208q0 -169 -138.5 -282.5t-347.5 -113.5q-190 0 -299.5 88.5t-109.5 241.5zM623 682q-216 -29 -337.5 -128.5t-121.5 -246.5q0 -134 96.5 -210.5t265.5 -76.5q186 0 310.5 101t124.5 250q0 120 -86.5 199.5
t-251.5 111.5z" />
    <glyph glyph-name="nine" unicode="9" 
d="M1090 932q0 -197 -51 -374.5t-138 -305t-207.5 -202.5t-255.5 -75q-163 0 -315 93l22 38q147 -86 293 -86q227 0 395 218t203 567q-71 -136 -190.5 -210.5t-272.5 -74.5q-163 0 -265 104.5t-101 274.5q0 138 64 253.5t173.5 182t239.5 66.5q192 0 299 -123t107 -346z
M1034 981q2 167 -95 271t-255 104q-179 0 -304.5 -132.5t-125.5 -322.5q0 -154 90 -245t236 -91q188 0 320 123.5t134 292.5z" />
    <glyph glyph-name="colon" unicode=":" horiz-adv-x="497" 
d="M111 33q0 28 18.5 46.5t46.5 18.5q22 0 35.5 -14.5t13.5 -36.5q0 -26 -18.5 -44.5t-46.5 -18.5q-22 0 -35.5 13.5t-13.5 35.5zM272 936q0 28 19 46.5t47 18.5q22 0 35.5 -14.5t13.5 -36.5q0 -26 -18.5 -44.5t-46.5 -18.5q-22 0 -36 13.5t-14 35.5z" />
    <glyph glyph-name="semicolon" unicode=";" horiz-adv-x="497" 
d="M111 33q0 28 18.5 46.5t46.5 18.5q26 0 41.5 -19.5t15.5 -53.5q0 -98 -64.5 -195t-172.5 -158l-21 31q191 123 203 285q-26 -7 -46.5 6.5t-20.5 38.5zM272 936q0 28 19 46.5t47 18.5q22 0 35.5 -14.5t13.5 -36.5q0 -26 -18.5 -44.5t-46.5 -18.5q-22 0 -36 13.5t-14 35.5z
" />
    <glyph glyph-name="less" unicode="&#x3c;" 
d="M113 567v45l972 443l19 -43l-928 -422l928 -422l-19 -43z" />
    <glyph glyph-name="equal" unicode="=" 
d="M113 766v47h987v-47h-987zM113 367v47h987v-47h-987z" />
    <glyph glyph-name="greater" unicode="&#x3e;" 
d="M1100 612v-45l-973 -442l-18 43l927 422l-927 422l18 43z" />
    <glyph glyph-name="question" unicode="?" horiz-adv-x="919" 
d="M422 397h-41l4 27q8 50 38.5 98.5t72.5 90t91 83t96.5 84.5t86 87.5t62.5 98.5t24 111q0 124 -78.5 201.5t-204.5 77.5q-162 0 -333 -107l-23 41q172 111 361 111q146 0 236.5 -88.5t90.5 -233.5q0 -63 -24 -121.5t-63 -105t-86.5 -90t-97.5 -84.5t-92.5 -80.5t-74.5 -86
t-41 -93.5zM301 29q0 26 17.5 43.5t43.5 17.5q22 0 34 -12.5t12 -34.5q0 -25 -17.5 -42t-42.5 -17q-47 0 -47 45z" />
    <glyph glyph-name="at" unicode="@" horiz-adv-x="1935" 
d="M115 313q0 231 76.5 433.5t208.5 346.5t317 227t395 83q331 0 526 -185.5t195 -496.5q0 -188 -56 -343t-154.5 -244t-217.5 -89q-90 0 -139.5 52t-51.5 126q-56 -85 -139 -131.5t-182 -46.5q-137 0 -222 92t-85 242q0 157 56 285t155.5 201t222.5 73q103 0 178 -56.5
t98 -152.5l39 189h41l-112 -648q-4 -24 -4 -41q0 -65 41 -102t108 -37q104 0 191 82.5t137.5 227t50.5 319.5q0 293 -182.5 466t-495.5 173q-201 0 -377 -79.5t-301 -217.5t-197.5 -331.5t-72.5 -414.5q0 -314 193 -501t519 -187q285 0 521 133l16 -39q-256 -139 -539 -139
q-345 0 -551 200t-206 531zM635 381q0 -131 73 -211t191 -80q127 0 220 81t116 212l33 180q6 69 6 76q0 113 -70.5 184.5t-179.5 71.5q-168 0 -278.5 -147.5t-110.5 -366.5z" />
    <glyph glyph-name="A" unicode="A" horiz-adv-x="1331" 
d="M-10 0l807 1376h49l317 -1376h-49l-100 434h-713l-254 -434h-57zM813 1311l-487 -832h678z" />
    <glyph glyph-name="B" unicode="B" horiz-adv-x="1296" 
d="M154 0l241 1376h471q154 0 243 -82.5t89 -222.5q0 -137 -72.5 -234.5t-201.5 -131.5q96 -25 151 -106.5t55 -195.5q0 -178 -120 -290.5t-308 -112.5h-548zM324 682l-113 -637h489q168 0 274.5 100t106.5 258q0 128 -75 203.5t-218 75.5h-464zM436 1331l-104 -604h459
q160 0 259 95t99 247q0 122 -76 192t-211 70h-426z" />
    <glyph glyph-name="C" unicode="C" horiz-adv-x="1296" 
d="M152 524q0 187 53 348.5t147.5 278.5t232.5 183.5t302 66.5q110 0 220.5 -36t203.5 -103l-27 -39q-189 133 -395 133q-205 0 -362 -108.5t-240.5 -296.5t-83.5 -425q0 -225 137.5 -365.5t355.5 -140.5q222 0 404 117l22 -37q-195 -125 -428 -125q-239 0 -390.5 152.5
t-151.5 396.5z" />
    <glyph glyph-name="D" unicode="D" horiz-adv-x="1413" 
d="M154 0l241 1376h342q284 0 439 -144.5t155 -406.5q0 -181 -57.5 -335t-159 -261.5t-245 -168t-312.5 -60.5h-403zM1280 825q0 242 -142 374t-405 132h-295l-225 -1286h344q211 0 375.5 97.5t256 275t91.5 407.5z" />
    <glyph glyph-name="E" unicode="E" horiz-adv-x="1198" 
d="M154 0l241 1376h797l-8 -45h-746l-106 -604h682l-8 -45h-682l-111 -637h778l-8 -45h-829z" />
    <glyph glyph-name="F" unicode="F" horiz-adv-x="1165" 
d="M154 0l241 1376h797l-8 -45h-746l-114 -653h682l-11 -45h-680l-110 -633h-51z" />
    <glyph glyph-name="G" unicode="G" horiz-adv-x="1380" 
d="M1249 664l-106 -598q-209 -91 -418 -91q-257 0 -415 151.5t-158 399.5q0 249 92.5 448t263 313t389.5 114q222 0 440 -127l-24 -41q-213 123 -414 123q-155 0 -286.5 -63t-221.5 -173.5t-140 -263t-50 -328.5q0 -229 145 -368.5t383 -139.5q195 0 371 78l92 520h-371
l8 46h420z" />
    <glyph glyph-name="H" unicode="H" horiz-adv-x="1495" 
d="M154 0l241 1376h51l-114 -649h913l115 649h49l-242 -1376h-49l119 682h-913l-119 -682h-51z" />
    <glyph glyph-name="I" unicode="I" horiz-adv-x="530" 
d="M154 0l241 1376h51l-241 -1376h-51z" />
    <glyph glyph-name="J" unicode="J" horiz-adv-x="886" 
d="M803 1376l-193 -1091q-25 -143 -119.5 -226.5t-232.5 -83.5q-114 0 -264 58l16 43q144 -56 246 -56q121 0 203 72.5t102 194.5l193 1089h49z" />
    <glyph glyph-name="K" unicode="K" horiz-adv-x="1300" 
d="M154 0l241 1376h49l-139 -790l944 790h72l-764 -639l549 -737h-59l-527 707l-225 -189l-92 -518h-49z" />
    <glyph glyph-name="L" unicode="L" horiz-adv-x="1067" 
d="M154 0l241 1376h51l-233 -1331h711l-9 -45h-761z" />
    <glyph glyph-name="M" unicode="M" horiz-adv-x="1675" 
d="M154 0l241 1376h54l405 -768l682 768h53l-241 -1376h-48l230 1303l-664 -752h-35l-399 756l-229 -1307h-49z" />
    <glyph glyph-name="N" unicode="N" horiz-adv-x="1495" 
d="M154 0l241 1376h49l689 -1300l229 1300h47l-242 -1376h-49l-686 1300l-229 -1300h-49z" />
    <glyph glyph-name="O" unicode="O" horiz-adv-x="1495" 
d="M152 524q0 249 94 449.5t261 314t374 113.5q236 0 384 -150.5t148 -398.5q0 -249 -94.5 -449.5t-261.5 -314t-373 -113.5q-236 0 -384 150.5t-148 398.5zM203 526q0 -230 133.5 -368t349.5 -138q192 0 346.5 107.5t242 297.5t87.5 425q0 230 -134.5 368t-348.5 138
q-192 0 -346.5 -107.5t-242 -297.5t-87.5 -425z" />
    <glyph glyph-name="P" unicode="P" horiz-adv-x="1230" 
d="M154 0l241 1376h430q175 0 278 -98t103 -264q0 -197 -135 -323t-346 -126h-422l-100 -565h-49zM436 1331l-125 -719h414q191 0 311.5 111.5t120.5 288.5q0 148 -90.5 233.5t-247.5 85.5h-383z" />
    <glyph glyph-name="Q" unicode="Q" horiz-adv-x="1495" 
d="M152 524q0 249 94 449.5t261 314t374 113.5q236 0 384 -150.5t148 -398.5q0 -276 -115 -489.5t-309 -313.5l332 -278l-31 -35l-348 293q-128 -54 -258 -54q-236 0 -384 150.5t-148 398.5zM203 526q0 -230 133.5 -368t349.5 -138q192 0 346.5 107.5t242 297.5t87.5 425
q0 230 -134.5 368t-348.5 138q-192 0 -346.5 -107.5t-242 -297.5t-87.5 -425z" />
    <glyph glyph-name="R" unicode="R" horiz-adv-x="1296" 
d="M154 0l241 1376h451q165 0 262.5 -93.5t97.5 -252.5q0 -185 -125 -305t-319 -125l323 -600h-55l-321 598h-400l-106 -598h-49zM436 1331l-119 -686h428q182 0 297 107t115 276q0 140 -84 221.5t-231 81.5h-406z" />
    <glyph glyph-name="S" unicode="S" horiz-adv-x="1148" 
d="M242 1040q0 155 123.5 258t312.5 103q218 0 455 -111l-21 -43q-230 109 -434 109q-168 0 -277.5 -90t-109.5 -226q0 -60 24 -108.5t64.5 -82t92.5 -62t110 -53l116 -49t110 -56t92.5 -69.5t64.5 -93t24 -123q0 -164 -124 -266.5t-318 -102.5q-250 0 -490 123l21 43
q242 -121 467 -121q176 0 285.5 89t109.5 235q0 61 -24 110.5t-64.5 84t-92.5 63.5t-110 53.5l-116 49t-110 55.5t-92.5 68t-64.5 91.5t-24 120.5z" />
    <glyph glyph-name="T" unicode="T" horiz-adv-x="1198" 
d="M487 0l234 1331h-510l8 45h1069l-8 -45h-510l-233 -1331h-50z" />
    <glyph glyph-name="U" unicode="U" horiz-adv-x="1495" 
d="M1425 1376l-155 -884q-41 -237 -199 -377t-385 -140q-209 0 -337 121t-128 316q0 46 10 114l148 850h51l-149 -850q-11 -56 -11 -112q0 -177 114.5 -285.5t303.5 -108.5q206 0 351 129t182 345l155 882h49z" />
    <glyph glyph-name="V" unicode="V" horiz-adv-x="1331" 
d="M1409 1376l-805 -1376h-49l-319 1376h51l301 -1308l766 1308h55z" />
    <glyph glyph-name="W" unicode="W" horiz-adv-x="2002" 
d="M2056 1376l-665 -1376h-52l-196 1303l-627 -1303h-53l-203 1376h49l191 -1302l628 1302h52l196 -1302l627 1302h53z" />
    <glyph glyph-name="X" unicode="X" horiz-adv-x="1331" 
d="M20 0l654 709l-391 667h57l371 -633l575 633h68l-621 -676l412 -700h-58l-391 666l-606 -666h-70z" />
    <glyph glyph-name="Y" unicode="Y" horiz-adv-x="1169" 
d="M473 0l109 623l-389 753h55l364 -706l568 706h61l-610 -760l-109 -616h-49z" />
    <glyph glyph-name="Z" unicode="Z" horiz-adv-x="1247" 
d="M41 0l6 35l1124 1296h-872l8 45h944l-6 -35l-1124 -1296h921l-8 -45h-993z" />
    <glyph glyph-name="bracketleft" unicode="[" horiz-adv-x="659" 
d="M125 -264l299 1708h309l-8 -45h-262l-283 -1618h260l-8 -45h-307z" />
    <glyph glyph-name="backslash" unicode="\" horiz-adv-x="786" 
d="M547 -268l-320 1708l45 8l320 -1708z" />
    <glyph glyph-name="bracketright" unicode="]" horiz-adv-x="659" 
d="M571 1444l-299 -1708h-309l8 45h262l283 1618h-260l8 45h307z" />
    <glyph glyph-name="asciicircum" unicode="^" 
d="M643 1376h47l426 -911l-43 -19l-405 867l-406 -867l-45 19z" />
    <glyph glyph-name="underscore" unicode="_" horiz-adv-x="983" 
d="M-137 -285l8 45h983l-8 -45h-983z" />
    <glyph glyph-name="grave" unicode="`" horiz-adv-x="491" 
d="M166 1415l295 -215l-23 -31l-299 207z" />
    <glyph glyph-name="a" unicode="a" horiz-adv-x="1052" 
d="M74 248q0 152 124.5 241t338.5 89q130 0 268 -33l24 141q7 35 7 66q0 94 -68 153.5t-184 59.5q-149 0 -320 -58l-10 43q174 60 334 60q136 0 215.5 -71t79.5 -185q0 -36 -6 -70l-97 -553q-4 -24 -4 -33q0 -36 26.5 -57t69.5 -21q18 0 58 9l6 -45q-52 -9 -70 -9
q-63 0 -100 32t-37 87q0 15 4 35l12 59q-132 -213 -372 -213q-137 0 -218 75t-81 198zM123 250q0 -104 69 -168t187 -64q151 0 261 99.5t136 259.5l23 127q-138 33 -262 33q-191 0 -302.5 -78t-111.5 -209z" />
    <glyph glyph-name="b" unicode="b" horiz-adv-x="1120" 
d="M106 0l254 1442h50l-115 -639q66 99 161.5 153t205.5 54q158 0 256 -107t98 -280q0 -180 -64.5 -328.5t-180 -234t-257.5 -85.5q-120 0 -207 67t-112 181l-48 -223h-41zM967 621q0 154 -86 248t-226 94q-143 0 -255 -97t-138 -245l-35 -209q-10 -48 -10 -88
q0 -133 83 -218.5t212 -85.5t233.5 79.5t163 217t58.5 304.5z" />
    <glyph glyph-name="c" unicode="c" horiz-adv-x="968" 
d="M104 379q0 176 68.5 320.5t191.5 227.5t277 83q164 0 299 -97l-27 -36q-128 88 -272 88q-139 0 -251 -77t-174 -210.5t-62 -296.5q0 -161 96.5 -261t247.5 -100q152 0 288 84l25 -36q-154 -93 -317 -93q-170 0 -280 112.5t-110 291.5z" />
    <glyph glyph-name="d" unicode="d" horiz-adv-x="1120" 
d="M1096 1442l-254 -1442h-41l26 184q-69 -100 -164.5 -154.5t-205.5 -54.5q-157 0 -255 107t-98 280q0 180 64.5 328.5t179.5 234t256 85.5q122 0 210 -67t114 -181l119 680h49zM154 365q0 -154 86 -249.5t225 -95.5q143 0 255 98t138 247l35 206q10 52 10 88
q0 135 -83 219.5t-212 84.5t-233 -78.5t-162.5 -215.5t-58.5 -304z" />
    <glyph glyph-name="e" unicode="e" horiz-adv-x="1052" 
d="M950 483h-790q-8 -47 -8 -106q1 -160 99 -258.5t255 -98.5q150 0 309 93l21 -39q-178 -99 -334 -99q-177 0 -287.5 112t-110.5 292q0 175 67 319.5t184.5 228t260.5 83.5q157 0 254 -107t97 -280q0 -53 -17 -140zM614 965q-163 0 -287 -122.5t-159 -318.5h741q9 49 9 101
q0 154 -83 247t-221 93z" />
    <glyph glyph-name="f" unicode="f" horiz-adv-x="724" 
d="M205 0l164 940h-228l9 45h227l45 254q19 103 89 165t171 62q83 0 192 -45l-16 -43q-100 43 -174 43q-83 0 -140.5 -49.5t-72.5 -134.5l-45 -252h322l-9 -45h-321l-164 -940h-49z" />
    <glyph glyph-name="g" unicode="g" horiz-adv-x="1120" 
d="M154 365q0 -154 86 -249.5t225 -95.5q146 0 256.5 96.5t136.5 248.5l35 206q10 52 10 88q0 135 -83 219.5t-212 84.5t-233 -78.5t-162.5 -215.5t-58.5 -304zM1014 985l-189 -1077q-30 -170 -150.5 -264.5t-297.5 -94.5q-166 0 -352 91l18 43q183 -89 332 -89
q159 0 268 82.5t135 231.5l47 274q-67 -99 -161.5 -153t-206.5 -54q-157 0 -255 107t-98 280q0 180 64.5 328.5t179.5 234t256 85.5q122 0 209 -67t113 -181l47 223h41z" />
    <glyph glyph-name="h" unicode="h" horiz-adv-x="1120" 
d="M106 0l254 1442h50l-119 -664q60 106 163 169t218 63q135 0 220 -80t85 -209q0 -47 -10 -109l-109 -612h-49l109 612q10 58 10 105q0 112 -72.5 179t-191.5 67q-148 0 -262 -105.5t-142 -269.5l-104 -588h-50z" />
    <glyph glyph-name="i" unicode="i" horiz-adv-x="434" 
d="M106 0l173 985h49l-172 -985h-50zM303 1303q0 25 17 42t42 17q20 0 33 -12.5t13 -32.5q0 -26 -17 -44t-43 -18q-20 0 -32.5 13.5t-12.5 34.5z" />
    <glyph glyph-name="j" unicode="j" horiz-adv-x="450" 
d="M344 985l-213 -1208q-17 -103 -88 -165.5t-172 -62.5q-75 0 -193 41l17 43q112 -39 174 -39q85 0 142 50t71 135l213 1206h49zM319 1303q0 25 17.5 42t42.5 17q20 0 32.5 -12.5t12.5 -32.5q0 -27 -16.5 -44.5t-42.5 -17.5q-20 0 -33 14t-13 34z" />
    <glyph glyph-name="k" unicode="k" horiz-adv-x="974" 
d="M106 0l254 1442h48l-179 -1012l654 555h69l-542 -461l387 -524h-60l-364 494l-154 -129l-65 -365h-48z" />
    <glyph glyph-name="l" unicode="l" horiz-adv-x="532" 
d="M410 1442l-224 -1249q-6 -35 -6 -60q0 -52 34.5 -82.5t90.5 -30.5q15 0 30 2t33 6t25 5l6 -45q-71 -13 -100 -13q-74 0 -121 42t-47 112q0 27 6 64l223 1249h50z" />
    <glyph glyph-name="m" unicode="m" horiz-adv-x="1757" 
d="M106 0l173 985h40l-30 -201q65 108 160.5 167t205.5 59q122 0 202 -69t87 -181q63 118 164 184t217 66q129 0 210 -76t81 -199q0 -51 -8 -98l-113 -637h-49l113 637q8 41 8 96q0 103 -69 166.5t-179 63.5q-143 0 -252 -103t-137 -264l-105 -596h-49l113 637q8 41 8 96
q0 104 -69.5 167t-180.5 63q-141 0 -250 -103t-137 -264l-104 -596h-50z" />
    <glyph glyph-name="n" unicode="n" horiz-adv-x="1120" 
d="M106 0l173 985h40l-30 -209q60 108 163 171t220 63q135 0 220 -80t85 -209q0 -47 -10 -109l-109 -612h-49l109 612q10 58 10 105q0 112 -72.5 179t-191.5 67q-148 0 -262 -105.5t-142 -269.5l-104 -588h-50z" />
    <glyph glyph-name="o" unicode="o" horiz-adv-x="1120" 
d="M104 379q0 179 68 323t189.5 226t271.5 82q170 0 276.5 -112t106.5 -292q0 -179 -68 -323t-190 -226t-273 -82q-169 0 -275 112t-106 292zM154 379q0 -160 92 -259.5t241 -99.5q137 0 247 75.5t171.5 209t61.5 299.5q0 161 -92.5 261t-241.5 100q-138 0 -247.5 -75.5
t-170.5 -209.5t-61 -301z" />
    <glyph glyph-name="p" unicode="p" horiz-adv-x="1120" 
d="M31 -426l248 1411h40l-26 -184q69 100 165 154.5t204 54.5q158 0 256 -107t98 -280q0 -180 -64.5 -328.5t-180 -234t-257.5 -85.5q-120 0 -207.5 67t-113.5 179l-113 -647h-49zM967 621q0 154 -86 248t-226 94q-143 0 -255 -97t-138 -245l-35 -209q-10 -48 -10 -88
q0 -133 83 -218.5t212 -85.5t233.5 79.5t163 217t58.5 304.5z" />
    <glyph glyph-name="q" unicode="q" horiz-adv-x="1120" 
d="M1014 985l-248 -1411h-49l108 608q-67 -99 -161.5 -153t-206.5 -54q-157 0 -255 107t-98 280q0 180 64.5 328.5t179.5 234t256 85.5q122 0 209 -67t113 -181l47 223h41zM154 365q0 -154 86 -249.5t225 -95.5q146 0 256.5 96.5t136.5 248.5l35 206q10 52 10 88
q0 135 -83 219.5t-212 84.5t-233 -78.5t-162.5 -215.5t-58.5 -304z" />
    <glyph glyph-name="r" unicode="r" horiz-adv-x="743" 
d="M106 0l173 985h40l-28 -192q55 100 144 154t196 54q78 0 147 -28l-18 -43q-59 26 -133 26q-139 0 -240.5 -100.5t-130.5 -267.5l-100 -588h-50z" />
    <glyph glyph-name="s" unicode="s" horiz-adv-x="872" 
d="M168 743q0 115 88 191t225 76q164 0 324 -80l-21 -39q-157 74 -301 74q-119 0 -192.5 -62t-73.5 -160q0 -46 21.5 -83t56 -60.5t79 -46t91.5 -40t91.5 -42t79 -52t56 -71t21.5 -98.5q0 -121 -89 -198t-233 -77q-172 0 -356 91l20 40q177 -86 334 -86q125 0 200 64t75 166
q0 54 -27.5 95.5t-71 68t-96.5 49t-106 46.5t-96.5 53t-71 75t-27.5 106z" />
    <glyph glyph-name="t" unicode="t" horiz-adv-x="790" 
d="M479 1280l-53 -295h354l-8 -45h-354l-121 -688q-8 -46 -8 -72q0 -72 49 -116t129 -44q55 0 145 17l6 -45q-78 -17 -157 -17q-98 0 -159.5 56t-61.5 147q0 24 8 74l121 688h-228l9 45h227l53 295h49z" />
    <glyph glyph-name="u" unicode="u" horiz-adv-x="1120" 
d="M1014 985l-172 -985h-41l30 207q-60 -106 -163.5 -169t-218.5 -63q-135 0 -220.5 80t-85.5 209q0 39 11 107l108 614h49l-108 -612q-10 -62 -10 -105q0 -112 72.5 -180t191.5 -68q148 0 261.5 105.5t141.5 269.5l105 590h49z" />
    <glyph glyph-name="v" unicode="v" horiz-adv-x="1005" 
d="M1014 985l-574 -985h-47l-229 985h47l215 -917l535 917h53z" />
    <glyph glyph-name="w" unicode="w" horiz-adv-x="1529" 
d="M1522 985l-494 -985h-51l-139 911l-457 -911h-51l-150 985h47l140 -913l456 913h51l138 -913l456 913h54z" />
    <glyph glyph-name="x" unicode="x" horiz-adv-x="1005" 
d="M6 0l469 510l-280 475h57l258 -444l410 444h63l-448 -485l292 -500h-57l-270 469l-430 -469h-64z" />
    <glyph glyph-name="y" unicode="y" horiz-adv-x="1005" 
d="M1014 985l-688 -1194q-74 -130 -141 -186t-152 -56q-45 0 -111 17l12 45q56 -17 99 -17q69 0 127.5 50.5t124.5 167.5l112 196l-233 977h47l221 -917l529 917h53z" />
    <glyph glyph-name="z" unicode="z" horiz-adv-x="937" 
d="M25 0l6 33l788 907h-612l8 45h682l-6 -35l-787 -905h646l-9 -45h-716z" />
    <glyph glyph-name="braceleft" unicode="{" horiz-adv-x="659" 
d="M106 567l9 45h28q90 0 154.5 48.5t79.5 136.5q9 54 7 208t11 214q20 103 98.5 164t186.5 61h53l-8 -45h-45q-89 0 -154 -50t-84 -137q-14 -62 -11.5 -205.5t-4.5 -211.5q-24 -159 -188 -209q114 -46 114 -193q0 -77 -56 -227.5t-56 -222.5t46.5 -117t131.5 -45h20l-8 -45
h-16q-103 0 -163.5 57t-60.5 146q0 78 57.5 227.5t57.5 224.5q0 77 -46 126.5t-118 49.5h-35z" />
    <glyph glyph-name="bar" unicode="|" horiz-adv-x="491" 
d="M223 -459v1966h45v-1966h-45z" />
    <glyph glyph-name="braceright" unicode="}" horiz-adv-x="659" 
d="M588 612l-8 -45h-29q-90 0 -154.5 -48t-79.5 -136q-9 -54 -7 -208t-11 -214q-20 -103 -98.5 -164t-186.5 -61h-53l8 45h45q89 0 154.5 50t83.5 136q14 62 11.5 206t4.5 212q24 159 189 209q-115 47 -115 192q0 77 56.5 228t56.5 223t-47 117t-132 45h-20l8 45h17
q102 0 162.5 -57t60.5 -146q0 -51 -18 -114.5t-39.5 -113.5t-39.5 -112.5t-18 -112.5q0 -77 46 -126.5t118 -49.5h35z" />
    <glyph glyph-name="asciitilde" unicode="~" 
d="M170 522l-29 37q115 103 267 103q55 0 109.5 -15.5t92 -34t90 -34t105.5 -15.5q130 0 237 94l29 -36q-115 -103 -266 -103q-69 0 -136 24.5t-131.5 49t-129.5 24.5q-131 0 -238 -94z" />
    <glyph glyph-name="nbspace" unicode="&#xa0;" horiz-adv-x="491" 
 />
    <glyph glyph-name="exclamdown" unicode="&#xa1;" horiz-adv-x="497" 
d="M276 588l-165 -979h-52l177 979h40zM373 952q0 -28 -19 -46.5t-47 -18.5q-22 0 -35.5 13.5t-13.5 35.5q0 28 19 46.5t47 18.5q22 0 35.5 -13.5t13.5 -35.5z" />
    <glyph glyph-name="cent" unicode="&#xa2;" 
d="M227 573q0 175 67.5 318.5t189 227t274.5 85.5l53 303h45l-53 -305q142 -9 262 -92l-27 -39q-128 88 -272 88q-139 0 -251.5 -77t-175.5 -210.5t-63 -296.5q0 -157 97.5 -257.5t249.5 -100.5q147 0 288 82l23 -37q-152 -90 -313 -90l-54 -303h-45l53 303
q-155 14 -251.5 124.5t-96.5 276.5z" />
    <glyph glyph-name="sterling" unicode="&#xa3;" 
d="M74 0l10 45h225l113 637h-193l9 45h192l66 365q25 143 123.5 226t244.5 83q127 0 305 -82l-20 -43q-167 80 -283 80q-128 0 -214.5 -71.5t-106.5 -194.5l-64 -363h420l-8 -45h-420l-115 -637h615l-8 -45h-891z" />
    <glyph glyph-name="currency" unicode="&#xa4;" 
d="M219 254l-31 31l168 170q-84 94 -84 233t82 234l-166 170l31 30l168 -168q94 84 236 84q139 0 233 -84l170 168l31 -30l-168 -170q82 -91 82 -234q0 -138 -82 -233l168 -170l-31 -31l-170 168q-95 -82 -233 -82q-139 0 -234 82zM317 688q0 -133 86 -218t220 -85t219.5 85
t85.5 218q0 134 -86 219.5t-219 85.5q-134 0 -220 -86t-86 -219z" />
    <glyph glyph-name="yen" unicode="&#xa5;" 
d="M1016 666h-371l-45 -254h373l-8 -43h-373l-64 -369h-49l64 369h-371l8 43h371l43 254h-371l8 43h361l-342 667h55l324 -643l518 643h61l-540 -667h356z" />
    <glyph glyph-name="brokenbar" unicode="&#xa6;" horiz-adv-x="491" 
d="M223 1409h45v-786h-45v786zM268 -360h-45v786h45v-786z" />
    <glyph glyph-name="section" unicode="&#xa7;" horiz-adv-x="1036" 
d="M-10 -246l18 43q204 -104 398 -104q151 0 244 77t93 201q0 66 -33 116t-85.5 81.5t-116 58.5t-127 55.5t-116 62.5t-85.5 89t-33 127q0 109 68 190.5t184 110.5q-125 81 -125 223q0 135 106.5 225.5t270.5 90.5q199 0 393 -92l-20 -43q-187 90 -373 90q-143 0 -235 -77
t-92 -194q0 -57 25.5 -101.5t67.5 -73t96 -55t110 -47t110 -49.5t96 -61.5t67.5 -84.5t25.5 -117q0 -109 -67 -190.5t-179 -115.5q119 -83 119 -219q0 -142 -109 -232.5t-278 -90.5q-213 0 -418 106zM197 563q0 -50 20.5 -91t51.5 -68t78.5 -53t90 -43t97.5 -40.5t92 -44.5
q110 24 176.5 96t66.5 175q0 50 -19.5 90.5t-49 67.5t-75.5 53t-87 42t-95.5 39.5t-90.5 42.5q-115 -19 -185.5 -92.5t-70.5 -173.5z" />
    <glyph glyph-name="dieresis" unicode="&#xa8;" horiz-adv-x="491" 
d="M532 1303q0 25 16.5 42t41.5 17q20 0 32.5 -13t12.5 -32q0 -25 -17 -42.5t-43 -17.5q-19 0 -31 13t-12 33zM133 1303q0 25 17.5 42t42.5 17q20 0 32.5 -13t12.5 -32q0 -25 -17.5 -42.5t-42.5 -17.5q-19 0 -32 13t-13 33z" />
    <glyph glyph-name="copyright" unicode="&#xa9;" horiz-adv-x="1703" 
d="M131 688q0 218 96 390t268 268t390 96t390 -96t267.5 -268t95.5 -390t-95.5 -390t-267.5 -268t-390 -96t-390 96t-268 268t-96 390zM172 688q0 -155 52.5 -288t146 -226.5t226.5 -146t288 -52.5q208 0 370 90t252 252.5t90 370.5t-90 370.5t-252 252.5t-370 90
q-155 0 -288 -52.5t-226.5 -146t-146 -226.5t-52.5 -288zM506 688q0 196 112 319t291 123q137 0 271 -90l-25 -34q-112 81 -244 81q-161 0 -261.5 -111t-100.5 -288t100.5 -289t261.5 -112q128 0 244 84l25 -35q-134 -90 -271 -90q-179 0 -291 123t-112 319z" />
    <glyph glyph-name="ordfeminine" unicode="&#xaa;" horiz-adv-x="743" 
d="M74 504l6 39h620l-6 -39h-620zM209 887q0 -64 44.5 -104t117.5 -40q109 0 175 69t87 185l10 54q-91 18 -168 18q-122 0 -194 -49.5t-72 -132.5zM164 885q0 104 83.5 163.5t225.5 59.5q68 0 178 -21l15 89q4 24 4 38q0 61 -44.5 100.5t-119.5 39.5q-101 0 -211 -39l-10 39
q116 39 223 39q94 0 149.5 -48.5t55.5 -127.5q0 -15 -4 -43l-62 -359q-2 -10 -2 -22q0 -50 60 -50q16 0 36 5l4 -39q-24 -4 -45 -4q-45 0 -72 23t-26 63q0 12 2 22l4 23q-75 -131 -241 -131q-91 0 -147 50.5t-56 129.5z" />
    <glyph glyph-name="guillemotleft" unicode="&#xab;" horiz-adv-x="997" 
d="M63 492l7 30l481 445l29 -29l-461 -436l305 -436l-35 -25zM465 492l6 30l481 445l29 -29l-461 -436l305 -436l-34 -25z" />
    <glyph glyph-name="logicalnot" unicode="&#xac;" 
d="M113 567v45h987v-516h-47v471h-940z" />
    <glyph glyph-name="uni00AD" unicode="&#xad;" horiz-adv-x="655" 
d="M63 481l9 45h526l-8 -45h-527z" />
    <glyph glyph-name="registered" unicode="&#xae;" horiz-adv-x="1703" 
d="M131 688q0 218 96 390t268 268t390 96t390 -96t267.5 -268t95.5 -390t-95.5 -390t-267.5 -268t-390 -96t-390 96t-268 268t-96 390zM172 688q0 -155 52.5 -288t146 -226.5t226.5 -146t288 -52.5q208 0 370 90t252 252.5t90 370.5t-90 370.5t-252 252.5t-370 90
q-155 0 -288 -52.5t-226.5 -146t-146 -226.5t-52.5 -288zM633 262v852h297q115 0 188.5 -68t73.5 -176q0 -101 -64 -167t-167 -74l260 -367h-54l-254 365h-235v-365h-45zM678 1073v-405h250q99 0 159 54.5t60 147.5q0 91 -60.5 147t-158.5 56h-250z" />
    <glyph glyph-name="macron" unicode="&#xaf;" horiz-adv-x="491" 
d="M100 1288l9 43h563l-8 -43h-564z" />
    <glyph glyph-name="degree" unicode="&#xb0;" horiz-adv-x="657" 
d="M233 1145q0 106 71.5 177t178.5 71q83 0 134 -51t51 -136q0 -106 -71 -177t-177 -71q-83 0 -135 52t-52 135zM274 1151q0 -69 42 -110.5t110 -41.5q85 0 143 58.5t58 144.5q0 69 -41 109.5t-109 40.5q-86 0 -144.5 -58t-58.5 -143z" />
    <glyph glyph-name="plusminus" unicode="&#xb1;" 
d="M629 205h-45v471h-471v45h471v471h45v-471h471v-45h-471v-471zM113 0v45h987v-45h-987z" />
    <glyph glyph-name="twosuperior" unicode="&#xb2;" horiz-adv-x="692" 
d="M106 786l7 33l426 361q153 128 153 250q0 87 -49 134.5t-139 47.5q-95 0 -223 -64l-19 37q134 70 246 70q107 0 167 -59t60 -164q0 -140 -164 -279l-385 -326h457l-8 -41h-529z" />
    <glyph glyph-name="threesuperior" unicode="&#xb3;" horiz-adv-x="692" 
d="M365 1202l6 41h47q118 0 194 58t76 149q0 75 -50 119.5t-132 44.5q-103 0 -213 -45l-14 39q127 47 231 47q97 0 159 -56.5t62 -144.5q0 -91 -62 -154t-153 -79q73 -15 116.5 -69.5t43.5 -129.5q0 -108 -82 -180t-203 -72q-129 0 -264 72l18 39q134 -70 246 -70
q102 0 171 60t69 151q0 82 -61.5 131t-166.5 49h-38z" />
    <glyph glyph-name="acute" unicode="&#xb4;" horiz-adv-x="491" 
d="M645 1372l-340 -203l-20 33l336 211z" />
    <glyph glyph-name="uni00B5" unicode="&#xb5;" horiz-adv-x="1169" 
d="M1030 985l-147 -842q-4 -28 -4 -41q0 -37 24.5 -58t67.5 -21q29 0 59 6l6 -45q-38 -9 -71 -9q-60 0 -97 34t-37 91q0 6 5 41l12 68q-59 -107 -161.5 -170.5t-217.5 -63.5q-106 0 -182.5 50.5t-102.5 138.5l-104 -590h-49l248 1411h49l-109 -612q-10 -62 -10 -105
q0 -112 72.5 -178.5t191.5 -66.5q148 0 262 104t142 268l104 590h49z" />
    <glyph glyph-name="paragraph" unicode="&#xb6;" horiz-adv-x="1136" 
d="M637 582h-68q-173 0 -277 95t-104 253q0 188 144 317t352 129h367l-301 -1704h-45l292 1659h-229z" />
    <glyph glyph-name="periodcentered" unicode="&#xb7;" horiz-adv-x="464" 
d="M174 498q0 28 19 46.5t47 18.5q22 0 35.5 -14.5t13.5 -36.5q0 -26 -19 -44.5t-47 -18.5q-22 0 -35.5 13.5t-13.5 35.5z" />
    <glyph glyph-name="cedilla" unicode="&#xb8;" horiz-adv-x="491" 
d="M197 0l-47 -145q60 -7 95.5 -45.5t35.5 -94.5q0 -69 -56 -114t-141 -45q-82 0 -174 45l18 37q87 -41 156 -41q64 0 106.5 33.5t42.5 84.5q0 47 -36 76t-91 29h-14l62 180h43z" />
    <glyph glyph-name="onesuperior" unicode="&#xb9;" horiz-adv-x="534" 
d="M369 786l139 803l-266 -141l-15 35l293 155h39l-149 -852h-41z" />
    <glyph glyph-name="ordmasculine" unicode="&#xba;" horiz-adv-x="790" 
d="M106 504l7 39h598l-9 -39h-596zM186 973q0 182 100 301t255 119q116 0 188 -74.5t72 -194.5q0 -182 -100 -300.5t-255 -118.5q-116 0 -188 74t-72 194zM446 743q135 0 222.5 107t87.5 270q0 104 -60 169t-157 65q-133 0 -220.5 -107t-87.5 -270q0 -103 59.5 -168.5
t155.5 -65.5z" />
    <glyph glyph-name="guillemotright" unicode="&#xbb;" horiz-adv-x="997" 
d="M537 518l-7 -31l-481 -446l-29 29l461 438l-305 436l35 23zM938 518l-6 -31l-481 -446l-29 29l461 438l-305 436l34 23z" />
    <glyph glyph-name="onequarter" unicode="&#xbc;" horiz-adv-x="1966" 
d="M446 524l140 803l-267 -141l-14 35l293 155h39l-150 -852h-41zM367 14l1271 1381l31 -33l-1272 -1380zM1599 0l39 215h-430l6 37l535 600h43l-104 -598h143l-6 -39h-146l-37 -215h-43zM1268 254h377l96 532z" />
    <glyph glyph-name="onehalf" unicode="&#xbd;" horiz-adv-x="1966" 
d="M446 524l140 803l-267 -141l-14 35l293 155h39l-150 -852h-41zM367 14l1271 1381l31 -33l-1272 -1380zM1194 0l6 33l426 360q154 129 154 250q0 87 -49.5 134.5t-139.5 47.5q-97 0 -223 -63l-18 37q132 69 245 69q107 0 167.5 -59.5t60.5 -163.5q0 -139 -164 -278
l-385 -326h457l-9 -41h-528z" />
    <glyph glyph-name="threequarters" unicode="&#xbe;" horiz-adv-x="1966" 
d="M365 940l6 41h47q118 0 194 58t76 149q0 75 -50 119.5t-132 44.5q-103 0 -213 -45l-14 39q127 47 231 47q97 0 159 -56.5t62 -144.5q0 -91 -62 -154.5t-153 -79.5q73 -15 116.5 -69t43.5 -129q0 -108 -82 -180t-203 -72q-129 0 -264 72l18 38q132 -69 246 -69
q102 0 171 59.5t69 151.5q0 82 -61.5 131t-166.5 49h-38zM367 14l1271 1381l31 -33l-1272 -1380zM1599 0l39 215h-430l6 37l535 600h43l-104 -598h143l-6 -39h-146l-37 -215h-43zM1268 254h377l96 532z" />
    <glyph glyph-name="questiondown" unicode="&#xbf;" horiz-adv-x="788" 
d="M481 588h43l-4 -27q-8 -50 -39 -98.5t-73 -90t-91 -83.5t-96.5 -85t-86.5 -87t-63 -98t-24 -111q0 -126 78.5 -202.5t204.5 -76.5q162 0 334 105l22 -39q-172 -111 -360 -111q-146 0 -237 88.5t-91 231.5q0 64 24 122.5t63 105.5t86.5 90.5t97.5 84.5t92.5 80.5t74.5 86
t41 93.5zM602 956q0 -26 -17 -43.5t-42 -17.5q-22 0 -34.5 12.5t-12.5 32.5q0 26 17.5 43.5t43.5 17.5q45 0 45 -45z" />
    <glyph glyph-name="Agrave" unicode="&#xc0;" horiz-adv-x="1331" 
d="M-10 0l807 1376h49l317 -1376h-49l-100 434h-713l-254 -434h-57zM813 1311l-487 -832h678zM647 1806l295 -215l-22 -30l-299 206z" />
    <glyph glyph-name="Aacute" unicode="&#xc1;" horiz-adv-x="1331" 
d="M-10 0l807 1376h49l317 -1376h-49l-100 434h-713l-254 -434h-57zM813 1311l-487 -832h678zM1126 1763l-340 -202l-20 32l336 211z" />
    <glyph glyph-name="Acircumflex" unicode="&#xc2;" horiz-adv-x="1331" 
d="M-10 0l807 1376h49l317 -1376h-49l-100 434h-713l-254 -434h-57zM813 1311l-487 -832h678zM573 1595l291 240h41l201 -246l-29 -24l-196 225l-285 -225z" />
    <glyph glyph-name="Atilde" unicode="&#xc3;" horiz-adv-x="1331" 
d="M-10 0l807 1376h49l317 -1376h-49l-100 434h-713l-254 -434h-57zM813 1311l-487 -832h678zM737 1763q51 0 133 -41t125 -41q34 0 64 22t45 60l39 -16q-21 -49 -60.5 -79t-87.5 -30q-50 0 -132 41t-126 41q-34 0 -62.5 -22t-43.5 -60l-39 15q19 48 59 79t86 31z" />
    <glyph glyph-name="Adieresis" unicode="&#xc4;" horiz-adv-x="1331" 
d="M-10 0l807 1376h49l317 -1376h-49l-100 434h-713l-254 -434h-57zM813 1311l-487 -832h678zM1014 1694q0 25 16 42t41 17q20 0 32.5 -13t12.5 -32q0 -25 -16.5 -42t-42.5 -17q-19 0 -31 12.5t-12 32.5zM614 1694q0 25 17.5 42t42.5 17q20 0 32.5 -13t12.5 -32
q0 -25 -17.5 -42t-42.5 -17q-19 0 -32 12.5t-13 32.5z" />
    <glyph glyph-name="Aring" unicode="&#xc5;" horiz-adv-x="1331" 
d="M-10 0l807 1376h49l317 -1376h-49l-100 434h-713l-254 -434h-57zM813 1311l-487 -832h678zM723 1679q0 -57 32.5 -90t88.5 -33q70 0 118 48t48 118q0 56 -33 88.5t-88 32.5q-70 0 -118 -47.5t-48 -116.5zM682 1673q0 89 61 149t150 60q69 0 112.5 -43.5t43.5 -112.5
q0 -88 -60 -148t-149 -60q-69 0 -113.5 43.5t-44.5 111.5z" />
    <glyph glyph-name="AE" unicode="&#xc6;" horiz-adv-x="1935" 
d="M893 0l76 434h-596l-369 -434h-63l1165 1376h825l-8 -45h-747l-105 -604h680l-8 -45h-680l-113 -637h781l-9 -45h-829zM1126 1329l-718 -850h569z" />
    <glyph glyph-name="Ccedilla" unicode="&#xc7;" horiz-adv-x="1296" 
d="M152 524q0 187 53 348.5t147.5 278.5t232.5 183.5t302 66.5q110 0 220.5 -36t203.5 -103l-27 -39q-189 133 -395 133q-205 0 -362 -108.5t-240.5 -296.5t-83.5 -425q0 -225 137.5 -365.5t355.5 -140.5q222 0 404 117l22 -37q-198 -125 -432 -125l-41 -120
q60 -7 95.5 -45.5t35.5 -94.5q0 -69 -54.5 -114t-139.5 -45q-81 0 -176 45l20 37q84 -41 154 -41q66 0 108.5 33.5t42.5 84.5q0 46 -37 75.5t-92 29.5h-12l53 157q-221 15 -358 165.5t-137 381.5z" />
    <glyph glyph-name="Egrave" unicode="&#xc8;" horiz-adv-x="1198" 
d="M154 0l241 1376h797l-8 -45h-746l-106 -604h682l-8 -45h-682l-111 -637h778l-8 -45h-829zM604 1806l295 -215l-22 -30l-299 206z" />
    <glyph glyph-name="Eacute" unicode="&#xc9;" horiz-adv-x="1198" 
d="M154 0l241 1376h797l-8 -45h-746l-106 -604h682l-8 -45h-682l-111 -637h778l-8 -45h-829zM1083 1763l-340 -202l-20 32l336 211z" />
    <glyph glyph-name="Ecircumflex" unicode="&#xca;" horiz-adv-x="1198" 
d="M154 0l241 1376h797l-8 -45h-746l-106 -604h682l-8 -45h-682l-111 -637h778l-8 -45h-829zM530 1595l291 240h41l201 -246l-29 -24l-196 225l-285 -225z" />
    <glyph glyph-name="Edieresis" unicode="&#xcb;" horiz-adv-x="1198" 
d="M154 0l241 1376h797l-8 -45h-746l-106 -604h682l-8 -45h-682l-111 -637h778l-8 -45h-829zM971 1694q0 25 16 42t41 17q20 0 32.5 -13t12.5 -32q0 -25 -16.5 -42t-42.5 -17q-19 0 -31 12.5t-12 32.5zM571 1694q0 25 17.5 42t42.5 17q20 0 32.5 -13t12.5 -32
q0 -25 -17.5 -42t-42.5 -17q-19 0 -32 12.5t-13 32.5z" />
    <glyph glyph-name="Igrave" unicode="&#xcc;" horiz-adv-x="530" 
d="M154 0l241 1376h51l-241 -1376h-51zM254 1806l295 -215l-23 -30l-299 206z" />
    <glyph glyph-name="Iacute" unicode="&#xcd;" horiz-adv-x="530" 
d="M154 0l241 1376h51l-241 -1376h-51zM733 1763l-340 -202l-20 32l336 211z" />
    <glyph glyph-name="Icircumflex" unicode="&#xce;" horiz-adv-x="530" 
d="M154 0l241 1376h51l-241 -1376h-51zM180 1595l291 240h41l201 -246l-29 -24l-197 225l-284 -225z" />
    <glyph glyph-name="Idieresis" unicode="&#xcf;" horiz-adv-x="530" 
d="M154 0l241 1376h51l-241 -1376h-51zM621 1694q0 25 16 42t41 17q20 0 32.5 -13t12.5 -32q0 -25 -16.5 -42t-42.5 -17q-19 0 -31 12.5t-12 32.5zM221 1694q0 25 17.5 42t42.5 17q20 0 32.5 -13t12.5 -32q0 -25 -17.5 -42t-42.5 -17q-19 0 -32 12.5t-13 32.5z" />
    <glyph glyph-name="Eth" unicode="&#xd0;" horiz-adv-x="1445" 
d="M186 0l121 682h-209l8 45h209l113 649h326q291 0 450.5 -144t159.5 -405q0 -182 -58.5 -336.5t-162 -262t-250 -168t-318.5 -60.5h-389zM1313 825q0 242 -146 374t-415 132h-281l-106 -604h387l-9 -45h-387l-112 -637h331q215 0 383 97.5t261.5 275.5t93.5 407z" />
    <glyph glyph-name="Ntilde" unicode="&#xd1;" horiz-adv-x="1495" 
d="M154 0l241 1376h49l689 -1300l229 1300h47l-242 -1376h-49l-686 1300l-229 -1300h-49zM827 1763q51 0 133 -41t125 -41q34 0 64 22t45 60l39 -16q-21 -49 -60.5 -79t-87.5 -30q-50 0 -132 41t-126 41q-34 0 -62.5 -22t-43.5 -60l-39 15q19 48 59 79t86 31z" />
    <glyph glyph-name="Ograve" unicode="&#xd2;" horiz-adv-x="1495" 
d="M152 524q0 249 94 449.5t261 314t374 113.5q236 0 384 -150.5t148 -398.5q0 -249 -94.5 -449.5t-261.5 -314t-373 -113.5q-236 0 -384 150.5t-148 398.5zM203 526q0 -230 133.5 -368t349.5 -138q192 0 346.5 107.5t242 297.5t87.5 425q0 230 -134.5 368t-348.5 138
q-192 0 -346.5 -107.5t-242 -297.5t-87.5 -425zM737 1806l295 -215l-22 -30l-299 206z" />
    <glyph glyph-name="Oacute" unicode="&#xd3;" horiz-adv-x="1495" 
d="M152 524q0 249 94 449.5t261 314t374 113.5q236 0 384 -150.5t148 -398.5q0 -249 -94.5 -449.5t-261.5 -314t-373 -113.5q-236 0 -384 150.5t-148 398.5zM203 526q0 -230 133.5 -368t349.5 -138q192 0 346.5 107.5t242 297.5t87.5 425q0 230 -134.5 368t-348.5 138
q-192 0 -346.5 -107.5t-242 -297.5t-87.5 -425zM1217 1763l-340 -202l-21 32l336 211z" />
    <glyph glyph-name="Ocircumflex" unicode="&#xd4;" horiz-adv-x="1495" 
d="M152 524q0 249 94 449.5t261 314t374 113.5q236 0 384 -150.5t148 -398.5q0 -249 -94.5 -449.5t-261.5 -314t-373 -113.5q-236 0 -384 150.5t-148 398.5zM203 526q0 -230 133.5 -368t349.5 -138q192 0 346.5 107.5t242 297.5t87.5 425q0 230 -134.5 368t-348.5 138
q-192 0 -346.5 -107.5t-242 -297.5t-87.5 -425zM664 1595l290 240h41l201 -246l-29 -24l-196 225l-285 -225z" />
    <glyph glyph-name="Otilde" unicode="&#xd5;" horiz-adv-x="1495" 
d="M152 524q0 249 94 449.5t261 314t374 113.5q236 0 384 -150.5t148 -398.5q0 -249 -94.5 -449.5t-261.5 -314t-373 -113.5q-236 0 -384 150.5t-148 398.5zM203 526q0 -230 133.5 -368t349.5 -138q192 0 346.5 107.5t242 297.5t87.5 425q0 230 -134.5 368t-348.5 138
q-192 0 -346.5 -107.5t-242 -297.5t-87.5 -425zM827 1763q51 0 133 -41t125 -41q34 0 64 22t45 60l39 -16q-21 -49 -60.5 -79t-87.5 -30q-50 0 -132 41t-126 41q-34 0 -62.5 -22t-43.5 -60l-39 15q19 48 59 79t86 31z" />
    <glyph glyph-name="Odieresis" unicode="&#xd6;" horiz-adv-x="1495" 
d="M152 524q0 249 94 449.5t261 314t374 113.5q236 0 384 -150.5t148 -398.5q0 -249 -94.5 -449.5t-261.5 -314t-373 -113.5q-236 0 -384 150.5t-148 398.5zM203 526q0 -230 133.5 -368t349.5 -138q192 0 346.5 107.5t242 297.5t87.5 425q0 230 -134.5 368t-348.5 138
q-192 0 -346.5 -107.5t-242 -297.5t-87.5 -425zM1104 1694q0 25 16 42t41 17q20 0 32.5 -13t12.5 -32q0 -25 -16.5 -42t-42.5 -17q-19 0 -31 12.5t-12 32.5zM705 1694q0 25 17 42t42 17q20 0 32.5 -13t12.5 -32q0 -25 -17 -42t-42 -17q-19 0 -32 12.5t-13 32.5z" />
    <glyph glyph-name="multiply" unicode="&#xd7;" 
d="M205 158l-31 30l399 402l-399 401l31 31l401 -399l402 399l30 -31l-401 -401l401 -402l-30 -30l-402 399z" />
    <glyph glyph-name="Oslash" unicode="&#xd8;" horiz-adv-x="1495" 
d="M152 524q0 249 94 449.5t261 314t374 113.5q238 0 387 -158l135 150l33 -29l-142 -150q119 -148 119 -362q0 -249 -94 -449.5t-261 -314t-374 -113.5q-243 0 -387 156l-137 -147l-31 28l137 150q-114 142 -114 362zM201 526q0 -197 102 -327l932 1009q-135 148 -356 148
q-193 0 -348 -107.5t-242.5 -297.5t-87.5 -425zM686 25q192 0 347 106t243 295t88 424q0 195 -102 328l-932 -1010q134 -143 356 -143z" />
    <glyph glyph-name="Ugrave" unicode="&#xd9;" horiz-adv-x="1495" 
d="M1425 1376l-155 -884q-41 -237 -199 -377t-385 -140q-209 0 -337 121t-128 316q0 46 10 114l148 850h51l-149 -850q-11 -56 -11 -112q0 -177 114.5 -285.5t303.5 -108.5q206 0 351 129t182 345l155 882h49zM737 1806l295 -215l-22 -30l-299 206z" />
    <glyph glyph-name="Uacute" unicode="&#xda;" horiz-adv-x="1495" 
d="M1425 1376l-155 -884q-41 -237 -199 -377t-385 -140q-209 0 -337 121t-128 316q0 46 10 114l148 850h51l-149 -850q-11 -56 -11 -112q0 -177 114.5 -285.5t303.5 -108.5q206 0 351 129t182 345l155 882h49zM1217 1763l-340 -202l-21 32l336 211z" />
    <glyph glyph-name="Ucircumflex" unicode="&#xdb;" horiz-adv-x="1495" 
d="M1425 1376l-155 -884q-41 -237 -199 -377t-385 -140q-209 0 -337 121t-128 316q0 46 10 114l148 850h51l-149 -850q-11 -56 -11 -112q0 -177 114.5 -285.5t303.5 -108.5q206 0 351 129t182 345l155 882h49zM664 1595l290 240h41l201 -246l-29 -24l-196 225l-285 -225z
" />
    <glyph glyph-name="Udieresis" unicode="&#xdc;" horiz-adv-x="1495" 
d="M1425 1376l-155 -884q-41 -237 -199 -377t-385 -140q-209 0 -337 121t-128 316q0 46 10 114l148 850h51l-149 -850q-11 -56 -11 -112q0 -177 114.5 -285.5t303.5 -108.5q206 0 351 129t182 345l155 882h49zM1104 1694q0 25 16 42t41 17q20 0 32.5 -13t12.5 -32
q0 -25 -16.5 -42t-42.5 -17q-19 0 -31 12.5t-12 32.5zM705 1694q0 25 17 42t42 17q20 0 32.5 -13t12.5 -32q0 -25 -17 -42t-42 -17q-19 0 -32 12.5t-13 32.5z" />
    <glyph glyph-name="Yacute" unicode="&#xdd;" horiz-adv-x="1169" 
d="M473 0l109 623l-389 753h55l364 -706l568 706h61l-610 -760l-109 -616h-49zM1036 1763l-340 -202l-20 32l336 211z" />
    <glyph glyph-name="Thorn" unicode="&#xde;" horiz-adv-x="1230" 
d="M154 0l241 1376h49l-45 -266h379q175 0 278 -99t103 -266q0 -196 -134 -321t-345 -125h-424l-53 -299h-49zM1110 745q0 148 -90.5 234t-245.5 86h-383l-127 -721h414q191 0 311.5 111.5t120.5 289.5z" />
    <glyph glyph-name="germandbls" unicode="&#xdf;" horiz-adv-x="1202" 
d="M666 688q0 43 16 83t41.5 72.5t56 64.5t61 63.5t56 64t41.5 72.5t16 82q0 108 -71 169.5t-199 61.5q-131 0 -219 -78.5t-113 -216.5l-198 -1126h-48l199 1128q28 158 129 248t252 90q149 0 233.5 -73.5t84.5 -200.5q0 -63 -30 -120t-72 -100.5t-84.5 -85.5t-72.5 -92.5
t-30 -103.5q0 -63 35.5 -108.5t86 -74.5t101 -60t86 -84t35.5 -127q0 -112 -92 -186.5t-232 -74.5q-154 0 -291 74l21 43q127 -72 270 -72q120 0 197.5 60.5t77.5 152.5q0 49 -19 87t-49.5 63t-67 47t-73 45t-67 50t-49.5 68.5t-19 94.5z" />
    <glyph glyph-name="agrave" unicode="&#xe0;" horiz-adv-x="1085" 
d="M74 248q0 152 124.5 241t338.5 89q130 0 268 -33l24 141q7 35 7 66q0 94 -68 153.5t-184 59.5q-149 0 -320 -58l-10 43q174 60 334 60q136 0 215.5 -71t79.5 -185q0 -36 -6 -70l-97 -553q-4 -24 -4 -33q0 -36 26.5 -57t69.5 -21q18 0 58 9l6 -45q-52 -9 -70 -9
q-63 0 -100 32t-37 87q0 15 4 35l12 59q-132 -213 -372 -213q-137 0 -218 75t-81 198zM123 250q0 -104 69 -168t187 -64q151 0 261 99.5t136 259.5l23 127q-138 33 -262 33q-191 0 -302.5 -78t-111.5 -209zM438 1415l295 -215l-22 -31l-299 207z" />
    <glyph glyph-name="aacute" unicode="&#xe1;" horiz-adv-x="1085" 
d="M74 248q0 152 124.5 241t338.5 89q130 0 268 -33l24 141q7 35 7 66q0 94 -68 153.5t-184 59.5q-149 0 -320 -58l-10 43q174 60 334 60q136 0 215.5 -71t79.5 -185q0 -36 -6 -70l-97 -553q-4 -24 -4 -33q0 -36 26.5 -57t69.5 -21q18 0 58 9l6 -45q-52 -9 -70 -9
q-63 0 -100 32t-37 87q0 15 4 35l12 59q-132 -213 -372 -213q-137 0 -218 75t-81 198zM123 250q0 -104 69 -168t187 -64q151 0 261 99.5t136 259.5l23 127q-138 33 -262 33q-191 0 -302.5 -78t-111.5 -209zM918 1372l-340 -203l-21 33l336 211z" />
    <glyph glyph-name="acircumflex" unicode="&#xe2;" horiz-adv-x="1085" 
d="M74 248q0 152 124.5 241t338.5 89q130 0 268 -33l24 141q7 35 7 66q0 94 -68 153.5t-184 59.5q-149 0 -320 -58l-10 43q174 60 334 60q136 0 215.5 -71t79.5 -185q0 -36 -6 -70l-97 -553q-4 -24 -4 -33q0 -36 26.5 -57t69.5 -21q18 0 58 9l6 -45q-52 -9 -70 -9
q-63 0 -100 32t-37 87q0 15 4 35l12 59q-132 -213 -372 -213q-137 0 -218 75t-81 198zM123 250q0 -104 69 -168t187 -64q151 0 261 99.5t136 259.5l23 127q-138 33 -262 33q-191 0 -302.5 -78t-111.5 -209zM365 1204l290 240h41l201 -246l-29 -24l-196 225l-285 -225z" />
    <glyph glyph-name="atilde" unicode="&#xe3;" horiz-adv-x="1085" 
d="M74 248q0 152 124.5 241t338.5 89q130 0 268 -33l24 141q7 35 7 66q0 94 -68 153.5t-184 59.5q-149 0 -320 -58l-10 43q174 60 334 60q136 0 215.5 -71t79.5 -185q0 -36 -6 -70l-97 -553q-4 -24 -4 -33q0 -36 26.5 -57t69.5 -21q18 0 58 9l6 -45q-52 -9 -70 -9
q-63 0 -100 32t-37 87q0 15 4 35l12 59q-132 -213 -372 -213q-137 0 -218 75t-81 198zM123 250q0 -104 69 -168t187 -64q151 0 261 99.5t136 259.5l23 127q-138 33 -262 33q-191 0 -302.5 -78t-111.5 -209zM528 1372q52 0 134 -41t124 -41q34 0 64 22t45 60l39 -16
q-21 -49 -60.5 -79t-87.5 -30q-50 0 -132 41t-126 41q-34 0 -62.5 -22t-43.5 -60l-39 15q19 48 59 79t86 31z" />
    <glyph glyph-name="adieresis" unicode="&#xe4;" horiz-adv-x="1085" 
d="M74 248q0 152 124.5 241t338.5 89q130 0 268 -33l24 141q7 35 7 66q0 94 -68 153.5t-184 59.5q-149 0 -320 -58l-10 43q174 60 334 60q136 0 215.5 -71t79.5 -185q0 -36 -6 -70l-97 -553q-4 -24 -4 -33q0 -36 26.5 -57t69.5 -21q18 0 58 9l6 -45q-52 -9 -70 -9
q-63 0 -100 32t-37 87q0 15 4 35l12 59q-132 -213 -372 -213q-137 0 -218 75t-81 198zM123 250q0 -104 69 -168t187 -64q151 0 261 99.5t136 259.5l23 127q-138 33 -262 33q-191 0 -302.5 -78t-111.5 -209zM805 1303q0 25 16 42t41 17q20 0 32.5 -13t12.5 -32
q0 -25 -16.5 -42.5t-42.5 -17.5q-19 0 -31 13t-12 33zM406 1303q0 25 17 42t42 17q20 0 32.5 -13t12.5 -32q0 -25 -17 -42.5t-42 -17.5q-19 0 -32 13t-13 33z" />
    <glyph glyph-name="aring" unicode="&#xe5;" horiz-adv-x="1085" 
d="M74 248q0 152 124.5 241t338.5 89q130 0 268 -33l24 141q7 35 7 66q0 94 -68 153.5t-184 59.5q-149 0 -320 -58l-10 43q174 60 334 60q136 0 215.5 -71t79.5 -185q0 -36 -6 -70l-97 -553q-4 -24 -4 -33q0 -36 26.5 -57t69.5 -21q18 0 58 9l6 -45q-52 -9 -70 -9
q-63 0 -100 32t-37 87q0 15 4 35l12 59q-132 -213 -372 -213q-137 0 -218 75t-81 198zM123 250q0 -104 69 -168t187 -64q151 0 261 99.5t136 259.5l23 127q-138 33 -262 33q-191 0 -302.5 -78t-111.5 -209zM514 1288q0 -57 32.5 -90t88.5 -33q71 0 118.5 47.5t47.5 118.5
q0 55 -32.5 88t-88.5 33q-70 0 -118 -47.5t-48 -116.5zM473 1282q0 89 61 149t150 60q69 0 112.5 -43.5t43.5 -112.5q0 -88 -60 -148.5t-149 -60.5q-69 0 -113.5 44t-44.5 112z" />
    <glyph glyph-name="ae" unicode="&#xe6;" horiz-adv-x="1736" 
d="M74 248q0 152 124.5 241t338.5 89q130 0 268 -33l24 141q7 40 7 64q0 94 -68 154.5t-184 60.5q-149 0 -320 -58l-10 43q174 60 334 60q135 0 215 -65.5t86 -184.5q68 119 174.5 184.5t236.5 65.5q157 0 253 -107t96 -280q0 -63 -15 -140h-790q-8 -47 -8 -106
q1 -160 99 -258.5t255 -98.5q151 0 307 93l23 -39q-178 -99 -334 -99q-152 0 -258 87t-131 233q-44 -144 -160.5 -232t-261.5 -88q-136 0 -218.5 75.5t-82.5 197.5zM1298 965q-164 0 -287.5 -122t-160.5 -319h743q9 49 9 101q0 154 -83 247t-221 93zM123 250q0 -104 69 -168
t187 -64q151 0 261 99.5t136 259.5l23 127q-138 33 -262 33q-191 0 -302.5 -78t-111.5 -209z" />
    <glyph glyph-name="ccedilla" unicode="&#xe7;" horiz-adv-x="968" 
d="M104 379q0 176 68.5 320.5t191.5 227.5t277 83q164 0 299 -97l-27 -36q-128 88 -272 88q-139 0 -251 -77t-174 -210.5t-62 -296.5q0 -162 95.5 -261.5t248.5 -99.5q152 0 288 84l25 -36q-158 -93 -317 -93l-39 -120q59 -7 94 -45.5t35 -94.5q0 -69 -55 -114t-140 -45
q-81 0 -176 45l20 37q87 -41 154 -41q65 0 108.5 33.5t43.5 84.5q0 47 -36.5 76t-92.5 29h-13l54 157q-155 14 -251 124t-96 278z" />
    <glyph glyph-name="egrave" unicode="&#xe8;" horiz-adv-x="1052" 
d="M950 483h-790q-8 -47 -8 -106q1 -160 99 -258.5t255 -98.5q150 0 309 93l21 -39q-178 -99 -334 -99q-177 0 -287.5 112t-110.5 292q0 175 67 319.5t184.5 228t260.5 83.5q157 0 254 -107t97 -280q0 -53 -17 -140zM614 965q-163 0 -287 -122.5t-159 -318.5h741q9 49 9 101
q0 154 -83 247t-221 93zM471 1415l295 -215l-23 -31l-299 207z" />
    <glyph glyph-name="eacute" unicode="&#xe9;" horiz-adv-x="1052" 
d="M950 483h-790q-8 -47 -8 -106q1 -160 99 -258.5t255 -98.5q150 0 309 93l21 -39q-178 -99 -334 -99q-177 0 -287.5 112t-110.5 292q0 175 67 319.5t184.5 228t260.5 83.5q157 0 254 -107t97 -280q0 -53 -17 -140zM614 965q-163 0 -287 -122.5t-159 -318.5h741q9 49 9 101
q0 154 -83 247t-221 93zM950 1372l-340 -203l-20 33l336 211z" />
    <glyph glyph-name="ecircumflex" unicode="&#xea;" horiz-adv-x="1052" 
d="M950 483h-790q-8 -47 -8 -106q1 -160 99 -258.5t255 -98.5q150 0 309 93l21 -39q-178 -99 -334 -99q-177 0 -287.5 112t-110.5 292q0 175 67 319.5t184.5 228t260.5 83.5q157 0 254 -107t97 -280q0 -53 -17 -140zM614 965q-163 0 -287 -122.5t-159 -318.5h741q9 49 9 101
q0 154 -83 247t-221 93zM397 1204l291 240h41l201 -246l-29 -24l-196 225l-285 -225z" />
    <glyph glyph-name="edieresis" unicode="&#xeb;" horiz-adv-x="1052" 
d="M950 483h-790q-8 -47 -8 -106q1 -160 99 -258.5t255 -98.5q150 0 309 93l21 -39q-178 -99 -334 -99q-177 0 -287.5 112t-110.5 292q0 175 67 319.5t184.5 228t260.5 83.5q157 0 254 -107t97 -280q0 -53 -17 -140zM614 965q-163 0 -287 -122.5t-159 -318.5h741q9 49 9 101
q0 154 -83 247t-221 93zM838 1303q0 25 16 42t41 17q20 0 32.5 -13t12.5 -32q0 -25 -16.5 -42.5t-42.5 -17.5q-19 0 -31 13t-12 33zM438 1303q0 25 17.5 42t42.5 17q20 0 32.5 -13t12.5 -32q0 -25 -17.5 -42.5t-42.5 -17.5q-19 0 -32 13t-13 33z" />
    <glyph glyph-name="igrave" unicode="&#xec;" horiz-adv-x="434" 
d="M106 0l173 985h49l-172 -985h-50zM137 1415l295 -215l-22 -31l-299 207z" />
    <glyph glyph-name="iacute" unicode="&#xed;" horiz-adv-x="434" 
d="M106 0l173 985h49l-172 -985h-50zM616 1372l-340 -203l-20 33l336 211z" />
    <glyph glyph-name="icircumflex" unicode="&#xee;" horiz-adv-x="434" 
d="M106 0l173 985h49l-172 -985h-50zM63 1204l291 240h41l201 -246l-29 -24l-196 225l-285 -225z" />
    <glyph glyph-name="idieresis" unicode="&#xef;" horiz-adv-x="434" 
d="M106 0l173 985h49l-172 -985h-50zM504 1303q0 25 16 42t41 17q20 0 32.5 -13t12.5 -32q0 -25 -16.5 -42.5t-42.5 -17.5q-19 0 -31 13t-12 33zM104 1303q0 25 17.5 42t42.5 17q20 0 32.5 -13t12.5 -32q0 -25 -17 -42.5t-42 -17.5q-19 0 -32.5 13t-13.5 33z" />
    <glyph glyph-name="eth" unicode="&#xf0;" horiz-adv-x="1120" 
d="M422 1161l-14 39l268 117q-80 62 -176 104l16 39q118 -47 209 -123l260 117l14 -39l-239 -106q262 -235 262 -668q0 -297 -151 -481.5t-386 -184.5q-170 0 -275.5 112t-105.5 290q0 272 149 451.5t378 179.5q109 0 194 -51t136 -146q-53 312 -246 479zM152 379
q0 -160 92.5 -259.5t242.5 -99.5q136 0 246 75.5t172 209t62 299.5q0 160 -93 259.5t-243 99.5q-136 0 -245.5 -75.5t-171.5 -209t-62 -299.5z" />
    <glyph glyph-name="ntilde" unicode="&#xf1;" horiz-adv-x="1120" 
d="M106 0l173 985h40l-30 -209q60 108 163 171t220 63q135 0 220 -80t85 -209q0 -47 -10 -109l-109 -612h-49l109 612q10 58 10 105q0 112 -72.5 179t-191.5 67q-148 0 -262 -105.5t-142 -269.5l-104 -588h-50zM569 1372q51 0 133 -41t125 -41q34 0 64 22t45 60l39 -16
q-21 -49 -60.5 -79t-87.5 -30q-50 0 -132 41t-126 41q-34 0 -62.5 -22t-43.5 -60l-39 15q19 48 59 79t86 31z" />
    <glyph glyph-name="ograve" unicode="&#xf2;" horiz-adv-x="1120" 
d="M104 379q0 179 68 323t189.5 226t271.5 82q170 0 276.5 -112t106.5 -292q0 -179 -68 -323t-190 -226t-273 -82q-169 0 -275 112t-106 292zM154 379q0 -160 92 -259.5t241 -99.5q137 0 247 75.5t171.5 209t61.5 299.5q0 161 -92.5 261t-241.5 100q-138 0 -247.5 -75.5
t-170.5 -209.5t-61 -301zM479 1415l295 -215l-22 -31l-299 207z" />
    <glyph glyph-name="oacute" unicode="&#xf3;" horiz-adv-x="1120" 
d="M104 379q0 179 68 323t189.5 226t271.5 82q170 0 276.5 -112t106.5 -292q0 -179 -68 -323t-190 -226t-273 -82q-169 0 -275 112t-106 292zM154 379q0 -160 92 -259.5t241 -99.5q137 0 247 75.5t171.5 209t61.5 299.5q0 161 -92.5 261t-241.5 100q-138 0 -247.5 -75.5
t-170.5 -209.5t-61 -301zM958 1372l-340 -203l-20 33l336 211z" />
    <glyph glyph-name="ocircumflex" unicode="&#xf4;" horiz-adv-x="1120" 
d="M104 379q0 179 68 323t189.5 226t271.5 82q170 0 276.5 -112t106.5 -292q0 -179 -68 -323t-190 -226t-273 -82q-169 0 -275 112t-106 292zM154 379q0 -160 92 -259.5t241 -99.5q137 0 247 75.5t171.5 209t61.5 299.5q0 161 -92.5 261t-241.5 100q-138 0 -247.5 -75.5
t-170.5 -209.5t-61 -301zM406 1204l290 240h41l201 -246l-29 -24l-196 225l-285 -225z" />
    <glyph glyph-name="otilde" unicode="&#xf5;" horiz-adv-x="1120" 
d="M104 379q0 179 68 323t189.5 226t271.5 82q170 0 276.5 -112t106.5 -292q0 -179 -68 -323t-190 -226t-273 -82q-169 0 -275 112t-106 292zM154 379q0 -160 92 -259.5t241 -99.5q137 0 247 75.5t171.5 209t61.5 299.5q0 161 -92.5 261t-241.5 100q-138 0 -247.5 -75.5
t-170.5 -209.5t-61 -301zM569 1372q51 0 133 -41t125 -41q34 0 64 22t45 60l39 -16q-21 -49 -60.5 -79t-87.5 -30q-50 0 -132 41t-126 41q-34 0 -62.5 -22t-43.5 -60l-39 15q19 48 59 79t86 31z" />
    <glyph glyph-name="odieresis" unicode="&#xf6;" horiz-adv-x="1120" 
d="M104 379q0 179 68 323t189.5 226t271.5 82q170 0 276.5 -112t106.5 -292q0 -179 -68 -323t-190 -226t-273 -82q-169 0 -275 112t-106 292zM154 379q0 -160 92 -259.5t241 -99.5q137 0 247 75.5t171.5 209t61.5 299.5q0 161 -92.5 261t-241.5 100q-138 0 -247.5 -75.5
t-170.5 -209.5t-61 -301zM846 1303q0 25 16 42t41 17q20 0 32.5 -13t12.5 -32q0 -25 -16.5 -42.5t-42.5 -17.5q-19 0 -31 13t-12 33zM446 1303q0 25 17.5 42t42.5 17q20 0 32.5 -13t12.5 -32q0 -25 -17 -42.5t-42 -17.5q-19 0 -32.5 13t-13.5 33z" />
    <glyph glyph-name="divide" unicode="&#xf7;" 
d="M143 567v45h924v-45h-924zM561 983q0 20 12.5 32.5t32.5 12.5t31.5 -12.5t11.5 -32.5t-11.5 -32.5t-31.5 -12.5t-32.5 12.5t-12.5 32.5zM561 197q0 20 12.5 32.5t32.5 12.5t31.5 -12.5t11.5 -32.5t-11.5 -32.5t-31.5 -12.5t-32.5 12.5t-12.5 32.5z" />
    <glyph glyph-name="oslash" unicode="&#xf8;" horiz-adv-x="1120" 
d="M104 379q0 179 68 323t189.5 226t271.5 82q164 0 274 -113l94 104l31 -28l-98 -107q82 -109 82 -260q0 -179 -68 -323t-190 -226t-273 -82q-170 0 -272 111l-94 -102l-31 26l96 105q-80 107 -80 264zM487 20q209 0 345.5 166t136.5 418q0 135 -70 227l-655 -712
q93 -99 243 -99zM152 379q0 -135 65 -227l657 710q-92 103 -241 103q-138 0 -248 -75.5t-171.5 -209.5t-61.5 -301z" />
    <glyph glyph-name="ugrave" unicode="&#xf9;" horiz-adv-x="1120" 
d="M1014 985l-172 -985h-41l30 207q-60 -106 -163.5 -169t-218.5 -63q-135 0 -220.5 80t-85.5 209q0 39 11 107l108 614h49l-108 -612q-10 -62 -10 -105q0 -112 72.5 -180t191.5 -68q148 0 261.5 105.5t141.5 269.5l105 590h49zM479 1415l295 -215l-22 -31l-299 207z" />
    <glyph glyph-name="uacute" unicode="&#xfa;" horiz-adv-x="1120" 
d="M1014 985l-172 -985h-41l30 207q-60 -106 -163.5 -169t-218.5 -63q-135 0 -220.5 80t-85.5 209q0 39 11 107l108 614h49l-108 -612q-10 -62 -10 -105q0 -112 72.5 -180t191.5 -68q148 0 261.5 105.5t141.5 269.5l105 590h49zM958 1372l-340 -203l-20 33l336 211z" />
    <glyph glyph-name="ucircumflex" unicode="&#xfb;" horiz-adv-x="1120" 
d="M1014 985l-172 -985h-41l30 207q-60 -106 -163.5 -169t-218.5 -63q-135 0 -220.5 80t-85.5 209q0 39 11 107l108 614h49l-108 -612q-10 -62 -10 -105q0 -112 72.5 -180t191.5 -68q148 0 261.5 105.5t141.5 269.5l105 590h49zM406 1204l290 240h41l201 -246l-29 -24
l-196 225l-285 -225z" />
    <glyph glyph-name="udieresis" unicode="&#xfc;" horiz-adv-x="1120" 
d="M1014 985l-172 -985h-41l30 207q-60 -106 -163.5 -169t-218.5 -63q-135 0 -220.5 80t-85.5 209q0 39 11 107l108 614h49l-108 -612q-10 -62 -10 -105q0 -112 72.5 -180t191.5 -68q148 0 261.5 105.5t141.5 269.5l105 590h49zM846 1303q0 25 16 42t41 17q20 0 32.5 -13
t12.5 -32q0 -25 -16.5 -42.5t-42.5 -17.5q-19 0 -31 13t-12 33zM446 1303q0 25 17.5 42t42.5 17q20 0 32.5 -13t12.5 -32q0 -25 -17 -42.5t-42 -17.5q-19 0 -32.5 13t-13.5 33z" />
    <glyph glyph-name="yacute" unicode="&#xfd;" horiz-adv-x="1005" 
d="M1014 985l-688 -1194q-74 -130 -141 -186t-152 -56q-45 0 -111 17l12 45q56 -17 99 -17q69 0 127.5 50.5t124.5 167.5l112 196l-233 977h47l221 -917l529 917h53zM885 1372l-340 -203l-21 33l336 211z" />
    <glyph glyph-name="thorn" unicode="&#xfe;" horiz-adv-x="1120" 
d="M31 -426l329 1868h46l-111 -639q69 99 164.5 153t202.5 54q158 0 256 -107t98 -280q0 -180 -64.5 -328.5t-180 -234t-257.5 -85.5q-120 0 -207.5 67t-113.5 179l-113 -647h-49zM967 621q0 154 -86 248t-226 94q-143 0 -255 -97t-138 -245l-35 -209q-10 -48 -10 -88
q0 -133 83 -218.5t212 -85.5t233.5 79.5t163 217t58.5 304.5z" />
    <glyph glyph-name="ydieresis" unicode="&#xff;" horiz-adv-x="1005" 
d="M1014 985l-688 -1194q-74 -130 -141 -186t-152 -56q-45 0 -111 17l12 45q56 -17 99 -17q69 0 127.5 50.5t124.5 167.5l112 196l-233 977h47l221 -917l529 917h53zM772 1303q0 25 16 42t41 17q20 0 32.5 -13t12.5 -32q0 -25 -16.5 -42.5t-42.5 -17.5q-19 0 -31 13t-12 33z
M373 1303q0 25 17 42t42 17q20 0 32.5 -13t12.5 -32q0 -25 -17 -42.5t-42 -17.5q-19 0 -32 13t-13 33z" />
    <glyph glyph-name="Amacron" unicode="&#x100;" horiz-adv-x="1331" 
d="M-10 0l807 1376h49l317 -1376h-49l-100 434h-713l-254 -434h-57zM813 1311l-487 -832h678zM582 1679l8 43h563l-8 -43h-563z" />
    <glyph glyph-name="amacron" unicode="&#x101;" horiz-adv-x="1085" 
d="M74 248q0 152 124.5 241t338.5 89q130 0 268 -33l24 141q7 35 7 66q0 94 -68 153.5t-184 59.5q-149 0 -320 -58l-10 43q174 60 334 60q136 0 215.5 -71t79.5 -185q0 -36 -6 -70l-97 -553q-4 -24 -4 -33q0 -36 26.5 -57t69.5 -21q18 0 58 9l6 -45q-52 -9 -70 -9
q-63 0 -100 32t-37 87q0 15 4 35l12 59q-132 -213 -372 -213q-137 0 -218 75t-81 198zM123 250q0 -104 69 -168t187 -64q151 0 261 99.5t136 259.5l23 127q-138 33 -262 33q-191 0 -302.5 -78t-111.5 -209zM373 1288l8 43h563l-8 -43h-563z" />
    <glyph glyph-name="Abreve" unicode="&#x102;" horiz-adv-x="1331" 
d="M-10 0l807 1376h49l317 -1376h-49l-100 434h-713l-254 -434h-57zM813 1311l-487 -832h678zM623 1802h43q-15 -93 37 -151t151 -58q95 0 166.5 57.5t91.5 151.5h43q-23 -114 -105 -183t-196 -69q-106 0 -171 56t-65 147q0 19 5 49z" />
    <glyph glyph-name="abreve" unicode="&#x103;" horiz-adv-x="1085" 
d="M74 248q0 152 124.5 241t338.5 89q130 0 268 -33l24 141q7 35 7 66q0 94 -68 153.5t-184 59.5q-149 0 -320 -58l-10 43q174 60 334 60q136 0 215.5 -71t79.5 -185q0 -36 -6 -70l-97 -553q-4 -24 -4 -33q0 -36 26.5 -57t69.5 -21q18 0 58 9l6 -45q-52 -9 -70 -9
q-63 0 -100 32t-37 87q0 15 4 35l12 59q-132 -213 -372 -213q-137 0 -218 75t-81 198zM123 250q0 -104 69 -168t187 -64q151 0 261 99.5t136 259.5l23 127q-138 33 -262 33q-191 0 -302.5 -78t-111.5 -209zM414 1411h43q-15 -93 37 -151t151 -58q95 0 166.5 57.5t91.5 151.5
h43q-23 -114 -105 -183t-196 -69q-106 0 -170.5 56t-64.5 147q0 25 4 49z" />
    <glyph glyph-name="Aogonek" unicode="&#x104;" horiz-adv-x="1331" 
d="M-10 0l807 1376h49l317 -1376q-125 -82 -191.5 -161t-66.5 -146q0 -43 27.5 -69.5t73.5 -26.5q44 0 96 18l12 -39q-55 -20 -115 -20q-62 0 -100.5 37.5t-38.5 97.5q0 74 65.5 156.5t186.5 160.5l-98 426h-713l-254 -434h-57zM813 1311l-487 -832h678z" />
    <glyph glyph-name="aogonek" unicode="&#x105;" horiz-adv-x="1085" 
d="M74 248q0 152 124.5 241t338.5 89q130 0 268 -33l24 141q7 35 7 66q0 94 -68 153.5t-184 59.5q-149 0 -320 -58l-10 43q174 60 334 60q136 0 215.5 -71t79.5 -185q0 -36 -6 -70l-97 -553q-4 -24 -4 -33q0 -36 26.5 -57t69.5 -21q18 0 58 9l6 -45q-125 -77 -191.5 -152
t-66.5 -139q0 -43 28 -69.5t72 -26.5q48 0 96 20l13 -39q-52 -22 -115 -22q-62 0 -100.5 37.5t-38.5 97.5q0 67 57 140t164 144q-59 3 -92 34t-33 85q0 15 4 35l12 59q-132 -213 -372 -213q-137 0 -218 75t-81 198zM123 250q0 -104 69 -168t187 -64q151 0 261 99.5
t136 259.5l23 127q-138 33 -262 33q-191 0 -302.5 -78t-111.5 -209z" />
    <glyph glyph-name="Cacute" unicode="&#x106;" horiz-adv-x="1296" 
d="M152 524q0 187 53 348.5t147.5 278.5t232.5 183.5t302 66.5q110 0 220.5 -36t203.5 -103l-27 -39q-189 133 -395 133q-205 0 -362 -108.5t-240.5 -296.5t-83.5 -425q0 -225 137.5 -365.5t355.5 -140.5q222 0 404 117l22 -37q-195 -125 -428 -125q-239 0 -390.5 152.5
t-151.5 396.5zM1214 1763l-340 -202l-20 32l336 211z" />
    <glyph glyph-name="cacute" unicode="&#x107;" horiz-adv-x="968" 
d="M104 379q0 176 68.5 320.5t191.5 227.5t277 83q164 0 299 -97l-27 -36q-128 88 -272 88q-139 0 -251 -77t-174 -210.5t-62 -296.5q0 -161 96.5 -261t247.5 -100q152 0 288 84l25 -36q-154 -93 -317 -93q-170 0 -280 112.5t-110 291.5zM950 1372l-340 -203l-20 33l336 211
z" />
    <glyph glyph-name="Ccircumflex" unicode="&#x108;" horiz-adv-x="1296" 
d="M152 524q0 187 53 348.5t147.5 278.5t232.5 183.5t302 66.5q110 0 220.5 -36t203.5 -103l-27 -39q-189 133 -395 133q-205 0 -362 -108.5t-240.5 -296.5t-83.5 -425q0 -225 137.5 -365.5t355.5 -140.5q222 0 404 117l22 -37q-195 -125 -428 -125q-239 0 -390.5 152.5
t-151.5 396.5zM662 1595l290 240h41l201 -246l-29 -24l-196 225l-285 -225z" />
    <glyph glyph-name="ccircumflex" unicode="&#x109;" horiz-adv-x="968" 
d="M104 379q0 176 68.5 320.5t191.5 227.5t277 83q164 0 299 -97l-27 -36q-128 88 -272 88q-139 0 -251 -77t-174 -210.5t-62 -296.5q0 -161 96.5 -261t247.5 -100q152 0 288 84l25 -36q-154 -93 -317 -93q-170 0 -280 112.5t-110 291.5zM397 1204l291 240h41l201 -246
l-29 -24l-196 225l-285 -225z" />
    <glyph glyph-name="Cdotaccent" unicode="&#x10a;" horiz-adv-x="1296" 
d="M152 524q0 187 53 348.5t147.5 278.5t232.5 183.5t302 66.5q110 0 220.5 -36t203.5 -103l-27 -39q-189 133 -395 133q-205 0 -362 -108.5t-240.5 -296.5t-83.5 -425q0 -225 137.5 -365.5t355.5 -140.5q222 0 404 117l22 -37q-195 -125 -428 -125q-239 0 -390.5 152.5
t-151.5 396.5zM901 1694q0 25 17.5 42t42.5 17q20 0 33.5 -12.5t13.5 -32.5q0 -26 -17.5 -42.5t-44.5 -16.5q-20 0 -32.5 12.5t-12.5 32.5z" />
    <glyph glyph-name="cdotaccent" unicode="&#x10b;" horiz-adv-x="968" 
d="M104 379q0 176 68.5 320.5t191.5 227.5t277 83q164 0 299 -97l-27 -36q-128 88 -272 88q-139 0 -251 -77t-174 -210.5t-62 -296.5q0 -161 96.5 -261t247.5 -100q152 0 288 84l25 -36q-154 -93 -317 -93q-170 0 -280 112.5t-110 291.5zM637 1303q0 25 17 42t42 17
q20 0 33.5 -12.5t13.5 -32.5q0 -26 -17.5 -43t-43.5 -17q-20 0 -32.5 13t-12.5 33z" />
    <glyph glyph-name="Ccaron" unicode="&#x10c;" horiz-adv-x="1296" 
d="M152 524q0 187 53 348.5t147.5 278.5t232.5 183.5t302 66.5q110 0 220.5 -36t203.5 -103l-27 -39q-189 133 -395 133q-205 0 -362 -108.5t-240.5 -296.5t-83.5 -425q0 -225 137.5 -365.5t355.5 -140.5q222 0 404 117l22 -37q-195 -125 -428 -125q-239 0 -390.5 152.5
t-151.5 396.5zM1245 1806l-291 -239h-41l-202 243l30 25l195 -223l285 225z" />
    <glyph glyph-name="ccaron" unicode="&#x10d;" horiz-adv-x="968" 
d="M104 379q0 176 68.5 320.5t191.5 227.5t277 83q164 0 299 -97l-27 -36q-128 88 -272 88q-139 0 -251 -77t-174 -210.5t-62 -296.5q0 -161 96.5 -261t247.5 -100q152 0 288 84l25 -36q-154 -93 -317 -93q-170 0 -280 112.5t-110 291.5zM981 1415l-291 -239h-41l-203 243
l31 25l195 -223l284 225z" />
    <glyph glyph-name="Dcaron" unicode="&#x10e;" horiz-adv-x="1413" 
d="M154 0l241 1376h342q284 0 439 -144.5t155 -406.5q0 -181 -57.5 -335t-159 -261.5t-245 -168t-312.5 -60.5h-403zM1280 825q0 242 -142 374t-405 132h-295l-225 -1286h344q211 0 375.5 97.5t256 275t91.5 407.5zM1104 1806l-291 -239h-41l-203 243l31 25l195 -223
l284 225z" />
    <glyph glyph-name="dcaron" unicode="&#x10f;" horiz-adv-x="1255" 
d="M1096 1442l-254 -1442h-41l26 184q-69 -100 -164.5 -154.5t-205.5 -54.5q-157 0 -255 107t-98 280q0 180 64.5 328.5t179.5 234t256 85.5q122 0 210 -67t114 -181l119 680h49zM154 365q0 -154 86 -249.5t225 -95.5q143 0 255 98t138 247l35 206q10 52 10 88
q0 135 -83 219.5t-212 84.5t-233 -78.5t-162.5 -215.5t-58.5 -304zM1442 1462l-185 -319l-34 16l178 324z" />
    <glyph glyph-name="Dcroat" unicode="&#x110;" horiz-adv-x="1445" 
d="M186 0l121 682h-209l8 45h209l113 649h326q291 0 450.5 -144t159.5 -405q0 -182 -58.5 -336.5t-162 -262t-250 -168t-318.5 -60.5h-389zM1313 825q0 242 -146 374t-415 132h-281l-106 -604h387l-9 -45h-387l-112 -637h331q215 0 383 97.5t261.5 275.5t93.5 407z" />
    <glyph glyph-name="dcroat" unicode="&#x111;" horiz-adv-x="1120" 
d="M1096 1442l-35 -193h162l-9 -43h-161l-211 -1206h-41l26 184q-69 -100 -164.5 -154.5t-205.5 -54.5q-157 0 -255 107t-98 280q0 180 64.5 328.5t179.5 234t256 85.5q122 0 210 -67t114 -181l78 444h-390l9 43h387l35 193h49zM154 365q0 -154 86 -249.5t225 -95.5
q143 0 255 98t138 247l35 206q10 52 10 88q0 135 -83 219.5t-212 84.5t-233 -78.5t-162.5 -215.5t-58.5 -304z" />
    <glyph glyph-name="Emacron" unicode="&#x112;" horiz-adv-x="1198" 
d="M154 0l241 1376h797l-8 -45h-746l-106 -604h682l-8 -45h-682l-111 -637h778l-8 -45h-829zM539 1679l8 43h563l-8 -43h-563z" />
    <glyph glyph-name="emacron" unicode="&#x113;" horiz-adv-x="1052" 
d="M950 483h-790q-8 -47 -8 -106q1 -160 99 -258.5t255 -98.5q150 0 309 93l21 -39q-178 -99 -334 -99q-177 0 -287.5 112t-110.5 292q0 175 67 319.5t184.5 228t260.5 83.5q157 0 254 -107t97 -280q0 -53 -17 -140zM614 965q-163 0 -287 -122.5t-159 -318.5h741q9 49 9 101
q0 154 -83 247t-221 93zM406 1288l8 43h563l-8 -43h-563z" />
    <glyph glyph-name="Ebreve" unicode="&#x114;" horiz-adv-x="1198" 
d="M154 0l241 1376h797l-8 -45h-746l-106 -604h682l-8 -45h-682l-111 -637h778l-8 -45h-829zM580 1802h43q-15 -93 37 -151t151 -58q95 0 166.5 57.5t91.5 151.5h43q-23 -114 -105 -183t-196 -69q-106 0 -171 56t-65 147q0 19 5 49z" />
    <glyph glyph-name="ebreve" unicode="&#x115;" horiz-adv-x="1052" 
d="M950 483h-790q-8 -47 -8 -106q1 -160 99 -258.5t255 -98.5q150 0 309 93l21 -39q-178 -99 -334 -99q-177 0 -287.5 112t-110.5 292q0 175 67 319.5t184.5 228t260.5 83.5q157 0 254 -107t97 -280q0 -53 -17 -140zM614 965q-163 0 -287 -122.5t-159 -318.5h741q9 49 9 101
q0 154 -83 247t-221 93zM446 1411h43q-15 -93 37.5 -151t151.5 -58q95 0 166.5 57.5t91.5 151.5h43q-23 -114 -105 -183t-196 -69q-106 0 -171 56t-65 147q0 25 4 49z" />
    <glyph glyph-name="Edotaccent" unicode="&#x116;" horiz-adv-x="1198" 
d="M154 0l241 1376h797l-8 -45h-746l-106 -604h682l-8 -45h-682l-111 -637h778l-8 -45h-829zM770 1694q0 25 17 42t42 17q21 0 34.5 -12.5t13.5 -32.5q0 -26 -17.5 -42.5t-44.5 -16.5q-20 0 -32.5 12.5t-12.5 32.5z" />
    <glyph glyph-name="edotaccent" unicode="&#x117;" horiz-adv-x="1052" 
d="M950 483h-790q-8 -47 -8 -106q1 -160 99 -258.5t255 -98.5q150 0 309 93l21 -39q-178 -99 -334 -99q-177 0 -287.5 112t-110.5 292q0 175 67 319.5t184.5 228t260.5 83.5q157 0 254 -107t97 -280q0 -53 -17 -140zM614 965q-163 0 -287 -122.5t-159 -318.5h741q9 49 9 101
q0 154 -83 247t-221 93zM637 1303q0 25 17 42t42 17q20 0 33.5 -12.5t13.5 -32.5q0 -26 -17.5 -43t-43.5 -17q-20 0 -32.5 13t-12.5 33z" />
    <glyph glyph-name="Eogonek" unicode="&#x118;" horiz-adv-x="1198" 
d="M154 0l241 1376h797l-8 -45h-746l-106 -604h682l-8 -45h-682l-111 -637h778l-8 -45q-125 -82 -191.5 -161t-66.5 -146q0 -43 27.5 -69.5t72.5 -26.5t97 18l12 -39q-55 -20 -115 -20q-62 0 -100.5 37.5t-38.5 97.5q0 72 62 152t176 157h-764z" />
    <glyph glyph-name="eogonek" unicode="&#x119;" horiz-adv-x="1052" 
d="M950 483h-790q-8 -47 -8 -106q1 -160 99 -258.5t255 -98.5q150 0 309 93l21 -39q-129 -81 -208 -185t-79 -184q0 -50 27.5 -79t76.5 -29q43 0 92 18l13 -39q-55 -20 -111 -20q-64 0 -103.5 40t-39.5 105q0 68 47 150t129 153q-95 -29 -178 -29q-177 0 -287.5 112
t-110.5 292q0 175 67 319.5t184.5 228t260.5 83.5q157 0 254 -107t97 -280q0 -53 -17 -140zM614 965q-163 0 -287 -122.5t-159 -318.5h741q9 49 9 101q0 154 -83 247t-221 93z" />
    <glyph glyph-name="Ecaron" unicode="&#x11a;" horiz-adv-x="1198" 
d="M154 0l241 1376h797l-8 -45h-746l-106 -604h682l-8 -45h-682l-111 -637h778l-8 -45h-829zM1114 1806l-291 -239h-41l-202 243l30 25l195 -223l285 225z" />
    <glyph glyph-name="ecaron" unicode="&#x11b;" horiz-adv-x="1052" 
d="M950 483h-790q-8 -47 -8 -106q1 -160 99 -258.5t255 -98.5q150 0 309 93l21 -39q-178 -99 -334 -99q-177 0 -287.5 112t-110.5 292q0 175 67 319.5t184.5 228t260.5 83.5q157 0 254 -107t97 -280q0 -53 -17 -140zM614 965q-163 0 -287 -122.5t-159 -318.5h741q9 49 9 101
q0 154 -83 247t-221 93zM981 1415l-291 -239h-41l-203 243l31 25l195 -223l284 225z" />
    <glyph glyph-name="Gcircumflex" unicode="&#x11c;" horiz-adv-x="1396" 
d="M1249 664l-106 -598q-209 -91 -418 -91q-257 0 -415 151.5t-158 399.5q0 249 92.5 448t263 313t389.5 114q222 0 440 -127l-24 -41q-213 123 -414 123q-155 0 -286.5 -63t-221.5 -173.5t-140 -263t-50 -328.5q0 -229 145 -368.5t383 -139.5q195 0 371 78l92 520h-371
l8 46h420zM672 1595l291 240h41l200 -246l-28 -24l-197 225l-285 -225z" />
    <glyph glyph-name="gcircumflex" unicode="&#x11d;" horiz-adv-x="1120" 
d="M154 365q0 -154 86 -249.5t225 -95.5q146 0 256.5 96.5t136.5 248.5l35 206q10 52 10 88q0 135 -83 219.5t-212 84.5t-233 -78.5t-162.5 -215.5t-58.5 -304zM1014 985l-189 -1077q-30 -170 -150.5 -264.5t-297.5 -94.5q-166 0 -352 91l18 43q183 -89 332 -89
q159 0 268 82.5t135 231.5l47 274q-67 -99 -161.5 -153t-206.5 -54q-157 0 -255 107t-98 280q0 180 64.5 328.5t179.5 234t256 85.5q122 0 209 -67t113 -181l47 223h41zM406 1204l290 240h41l201 -246l-29 -24l-196 225l-285 -225z" />
    <glyph glyph-name="Gbreve" unicode="&#x11e;" horiz-adv-x="1396" 
d="M1249 664l-106 -598q-209 -91 -418 -91q-257 0 -415 151.5t-158 399.5q0 249 92.5 448t263 313t389.5 114q222 0 440 -127l-24 -41q-213 123 -414 123q-155 0 -286.5 -63t-221.5 -173.5t-140 -263t-50 -328.5q0 -229 145 -368.5t383 -139.5q195 0 371 78l92 520h-371
l8 46h420zM721 1802h43q-15 -93 37 -151t151 -58q95 0 166.5 57.5t91.5 151.5h43q-23 -114 -105 -183t-196 -69q-106 0 -170.5 56t-64.5 147q0 25 4 49z" />
    <glyph glyph-name="gbreve" unicode="&#x11f;" horiz-adv-x="1120" 
d="M154 365q0 -154 86 -249.5t225 -95.5q146 0 256.5 96.5t136.5 248.5l35 206q10 52 10 88q0 135 -83 219.5t-212 84.5t-233 -78.5t-162.5 -215.5t-58.5 -304zM1014 985l-189 -1077q-30 -170 -150.5 -264.5t-297.5 -94.5q-166 0 -352 91l18 43q183 -89 332 -89
q159 0 268 82.5t135 231.5l47 274q-67 -99 -161.5 -153t-206.5 -54q-157 0 -255 107t-98 280q0 180 64.5 328.5t179.5 234t256 85.5q122 0 209 -67t113 -181l47 223h41zM455 1411h43q-15 -93 37 -151t151 -58q95 0 166.5 57.5t91.5 151.5h43q-23 -114 -105 -183t-196 -69
q-106 0 -170.5 56t-64.5 147q0 25 4 49z" />
    <glyph glyph-name="Gdotaccent" unicode="&#x120;" horiz-adv-x="1396" 
d="M1249 664l-106 -598q-209 -91 -418 -91q-257 0 -415 151.5t-158 399.5q0 249 92.5 448t263 313t389.5 114q222 0 440 -127l-24 -41q-213 123 -414 123q-155 0 -286.5 -63t-221.5 -173.5t-140 -263t-50 -328.5q0 -229 145 -368.5t383 -139.5q195 0 371 78l92 520h-371
l8 46h420zM911 1694q0 25 17.5 42t42.5 17q20 0 33.5 -12.5t13.5 -32.5q0 -26 -17.5 -42.5t-44.5 -16.5q-20 0 -32.5 12.5t-12.5 32.5z" />
    <glyph glyph-name="gdotaccent" unicode="&#x121;" horiz-adv-x="1120" 
d="M154 365q0 -154 86 -249.5t225 -95.5q146 0 256.5 96.5t136.5 248.5l35 206q10 52 10 88q0 135 -83 219.5t-212 84.5t-233 -78.5t-162.5 -215.5t-58.5 -304zM1014 985l-189 -1077q-30 -170 -150.5 -264.5t-297.5 -94.5q-166 0 -352 91l18 43q183 -89 332 -89
q159 0 268 82.5t135 231.5l47 274q-67 -99 -161.5 -153t-206.5 -54q-157 0 -255 107t-98 280q0 180 64.5 328.5t179.5 234t256 85.5q122 0 209 -67t113 -181l47 223h41zM645 1303q0 25 17.5 42t42.5 17q20 0 33.5 -12.5t13.5 -32.5q0 -26 -18 -43t-44 -17q-20 0 -32.5 13
t-12.5 33z" />
    <glyph glyph-name="Gcommaaccent" unicode="&#x122;" horiz-adv-x="1396" 
d="M1249 664l-106 -598q-209 -91 -418 -91q-257 0 -415 151.5t-158 399.5q0 249 92.5 448t263 313t389.5 114q222 0 440 -127l-24 -41q-213 123 -414 123q-155 0 -286.5 -63t-221.5 -173.5t-140 -263t-50 -328.5q0 -229 145 -368.5t383 -139.5q195 0 371 78l92 520h-371
l8 46h420zM578 -252q0 25 16 41t41 16t39 -18.5t14 -50.5q0 -79 -58 -161t-153 -138l-18 31q161 101 178 239q-25 -6 -42 5.5t-17 35.5z" />
    <glyph glyph-name="gcommaaccent" unicode="&#x123;" horiz-adv-x="1120" 
d="M154 365q0 -154 86 -249.5t225 -95.5q146 0 256.5 96.5t136.5 248.5l35 206q10 52 10 88q0 135 -83 219.5t-212 84.5t-233 -78.5t-162.5 -215.5t-58.5 -304zM1014 985l-189 -1077q-30 -170 -150.5 -264.5t-297.5 -94.5q-166 0 -352 91l18 43q183 -89 332 -89
q159 0 268 82.5t135 231.5l47 274q-67 -99 -161.5 -153t-206.5 -54q-157 0 -255 107t-98 280q0 180 64.5 328.5t179.5 234t256 85.5q122 0 209 -67t113 -181l47 223h41zM737 1237q0 -25 -16 -42t-41 -17t-39 19.5t-14 51.5q0 79 57.5 160t153.5 137l18 -28
q-164 -108 -178 -242q25 7 42 -4.5t17 -34.5z" />
    <glyph glyph-name="Hcircumflex" unicode="&#x124;" horiz-adv-x="1495" 
d="M154 0l241 1376h51l-114 -649h913l115 649h49l-242 -1376h-49l119 682h-913l-119 -682h-51zM664 1595l290 240h41l201 -246l-29 -24l-196 225l-285 -225z" />
    <glyph glyph-name="hcircumflex" unicode="&#x125;" horiz-adv-x="1153" 
d="M106 0l254 1442h50l-119 -664q60 106 163 169t218 63q135 0 220 -80t85 -209q0 -47 -10 -109l-109 -612h-49l109 612q10 58 10 105q0 112 -72.5 179t-191.5 67q-148 0 -262 -105.5t-142 -269.5l-104 -588h-50zM145 1661l291 240h41l201 -246l-29 -25l-196 225l-285 -225z
" />
    <glyph glyph-name="Hbar" unicode="&#x126;" horiz-adv-x="1495" 
d="M1538 1108h-176l-195 -1108h-49l119 682h-913l-119 -682h-51l194 1108h-176l8 43h176l39 225h51l-40 -225h913l41 225h49l-39 -225h176zM332 727h913l66 381h-914z" />
    <glyph glyph-name="hbar" unicode="&#x127;" horiz-adv-x="1120" 
d="M106 0l211 1206h-159l8 43h160l34 193h50l-35 -193h389l-8 -43h-389l-76 -428q60 106 163 169t218 63q135 0 220 -80t85 -209q0 -47 -10 -109l-109 -612h-49l109 612q10 58 10 105q0 112 -72.5 179t-191.5 67q-148 0 -262 -105.5t-142 -269.5l-104 -588h-50z" />
    <glyph glyph-name="Itilde" unicode="&#x128;" horiz-adv-x="530" 
d="M154 0l241 1376h51l-241 -1376h-51zM344 1763q52 0 134 -41t124 -41q34 0 64 22t45 60l39 -16q-21 -49 -60.5 -79t-87.5 -30q-50 0 -132 41t-126 41q-34 0 -62.5 -22t-43.5 -60l-39 15q19 48 59 79t86 31z" />
    <glyph glyph-name="itilde" unicode="&#x129;" horiz-adv-x="434" 
d="M106 0l173 985h49l-172 -985h-50zM227 1372q51 0 133 -41t125 -41q34 0 64 22t45 60l39 -16q-21 -49 -60.5 -79t-87.5 -30q-50 0 -132 41t-126 41q-34 0 -62.5 -22t-43.5 -60l-39 15q19 48 59 79t86 31z" />
    <glyph glyph-name="Imacron" unicode="&#x12a;" horiz-adv-x="530" 
d="M154 0l241 1376h51l-241 -1376h-51zM188 1679l9 43h563l-8 -43h-564z" />
    <glyph glyph-name="imacron" unicode="&#x12b;" horiz-adv-x="434" 
d="M106 0l173 985h49l-172 -985h-50zM72 1288l8 43h563l-8 -43h-563z" />
    <glyph glyph-name="Ibreve" unicode="&#x12c;" horiz-adv-x="530" 
d="M154 0l241 1376h51l-241 -1376h-51zM229 1802h43q-15 -93 37.5 -151t151.5 -58q95 0 166.5 57.5t91.5 151.5h43q-23 -114 -105 -183t-196 -69q-106 0 -171 56t-65 147q0 25 4 49z" />
    <glyph glyph-name="ibreve" unicode="&#x12d;" horiz-adv-x="434" 
d="M106 0l173 985h49l-172 -985h-50zM113 1411h43q-15 -93 37 -151t151 -58q95 0 166.5 57.5t91.5 151.5h43q-23 -114 -105 -183t-196 -69q-106 0 -170.5 56t-64.5 147q0 25 4 49z" />
    <glyph glyph-name="Iogonek" unicode="&#x12e;" horiz-adv-x="530" 
d="M446 1376l-241 -1376q-125 -82 -191.5 -161t-66.5 -146q0 -43 27.5 -69.5t72.5 -26.5q44 0 96 18l13 -39q-55 -20 -115 -20q-62 0 -100.5 37.5t-38.5 97.5q0 75 66 158t188 161l239 1366h51z" />
    <glyph glyph-name="iogonek" unicode="&#x12f;" horiz-adv-x="434" 
d="M328 985l-172 -985q-125 -82 -191.5 -161t-66.5 -146q0 -43 27.5 -69.5t72.5 -26.5q44 0 96 18l12 -39q-55 -20 -114 -20q-62 0 -100.5 37.5t-38.5 97.5q0 75 67 158t189 161l170 975h49zM303 1303q0 25 17 42t42 17q20 0 33 -12.5t13 -32.5q0 -26 -17 -44t-43 -18
q-20 0 -32.5 13.5t-12.5 34.5z" />
    <glyph glyph-name="Idotaccent" unicode="&#x130;" horiz-adv-x="530" 
d="M154 0l241 1376h51l-241 -1376h-51zM420 1694q0 25 17 42t42 17q20 0 33.5 -12.5t13.5 -32.5q0 -26 -17.5 -42.5t-43.5 -16.5q-20 0 -32.5 12.5t-12.5 32.5z" />
    <glyph glyph-name="dotlessi" unicode="&#x131;" horiz-adv-x="434" 
d="M106 0l173 985h49l-172 -985h-50z" />
    <glyph glyph-name="IJ" unicode="&#x132;" horiz-adv-x="1419" 
d="M154 0l241 1376h51l-241 -1376h-51zM1333 1376l-192 -1091q-25 -143 -120 -226.5t-233 -83.5q-114 0 -264 58l17 43q144 -56 245 -56q121 0 203.5 72.5t102.5 194.5l192 1089h49z" />
    <glyph glyph-name="ij" unicode="&#x133;" horiz-adv-x="882" 
d="M106 0l173 985h49l-172 -985h-50zM303 1303q0 25 17 42t42 17q20 0 33 -12.5t13 -32.5q0 -26 -17 -44t-43 -18q-20 0 -32.5 13.5t-12.5 34.5zM778 985l-213 -1208q-17 -103 -88 -165.5t-172 -62.5q-74 0 -192 41l16 43q112 -39 174 -39q85 0 142 50t71 135l213 1206h49z
M754 1303q0 25 17 42t42 17q20 0 32.5 -12.5t12.5 -32.5q0 -27 -16.5 -44.5t-42.5 -17.5q-20 0 -32.5 13.5t-12.5 34.5z" />
    <glyph glyph-name="Jcircumflex" unicode="&#x134;" horiz-adv-x="886" 
d="M803 1376l-193 -1091q-25 -143 -119.5 -226.5t-232.5 -83.5q-114 0 -264 58l16 43q144 -56 246 -56q121 0 203 72.5t102 194.5l193 1089h49zM539 1595l290 240h41l201 -246l-29 -24l-196 225l-285 -225z" />
    <glyph glyph-name="jcircumflex" unicode="&#x135;" horiz-adv-x="450" 
d="M344 985l-213 -1208q-17 -103 -88 -165.5t-172 -62.5q-75 0 -193 41l17 43q112 -39 174 -39q85 0 142 50t71 135l213 1206h49zM80 1204l291 240h41l200 -246l-28 -24l-197 225l-285 -225z" />
    <glyph glyph-name="Kcommaaccent" unicode="&#x136;" horiz-adv-x="1300" 
d="M154 0l241 1376h49l-139 -790l944 790h72l-764 -639l549 -737h-59l-527 707l-225 -189l-92 -518h-49zM487 -252q0 25 16.5 41t41.5 16t39 -18.5t14 -50.5q0 -79 -58 -161t-153 -138l-18 31q161 101 178 239q-25 -6 -42.5 5.5t-17.5 35.5z" />
    <glyph glyph-name="kcommaaccent" unicode="&#x137;" horiz-adv-x="974" 
d="M106 0l254 1442h48l-179 -1012l654 555h69l-542 -461l387 -524h-60l-364 494l-154 -129l-65 -365h-48zM309 -252q0 25 16.5 41t41.5 16t39 -18.5t14 -50.5q0 -79 -58 -161t-153 -138l-19 31q162 102 179 239q-25 -6 -42.5 5.5t-17.5 35.5z" />
    <glyph glyph-name="kgreenlandic" unicode="&#x138;" horiz-adv-x="974" 
d="M106 0l173 985h47l-97 -555l654 555h69l-542 -461l387 -524h-60l-364 494l-154 -129l-65 -365h-48z" />
    <glyph glyph-name="Lacute" unicode="&#x139;" horiz-adv-x="1067" 
d="M154 0l241 1376h51l-233 -1331h711l-9 -45h-761zM733 1763l-340 -202l-20 32l336 211z" />
    <glyph glyph-name="lacute" unicode="&#x13a;" horiz-adv-x="532" 
d="M410 1442l-224 -1249q-6 -35 -6 -60q0 -52 34.5 -82.5t90.5 -30.5q15 0 30 2t33 6t25 5l6 -45q-71 -13 -100 -13q-74 0 -121 42t-47 112q0 27 6 64l223 1249h50zM698 1829l-340 -203l-20 33l336 211z" />
    <glyph glyph-name="Lcommaaccent" unicode="&#x13b;" horiz-adv-x="1067" 
d="M154 0l241 1376h51l-233 -1331h711l-9 -45h-761zM420 -252q0 25 16 41t41 16t39 -18.5t14 -50.5q0 -79 -58 -161t-153 -138l-18 31q161 101 178 239q-25 -6 -42 5.5t-17 35.5z" />
    <glyph glyph-name="lcommaaccent" unicode="&#x13c;" horiz-adv-x="532" 
d="M410 1442l-224 -1249q-6 -35 -6 -60q0 -52 34.5 -82.5t90.5 -30.5q15 0 30 2t33 6t25 5l6 -45q-71 -13 -100 -13q-74 0 -121 42t-47 112q0 27 6 64l223 1249h50zM152 -252q0 25 16 41t41 16t39 -18.5t14 -50.5q0 -79 -58 -161t-153 -138l-18 31q161 101 178 239
q-25 -6 -42 5.5t-17 35.5z" />
    <glyph glyph-name="Lcaron" unicode="&#x13d;" horiz-adv-x="1067" 
d="M154 0l241 1376h51l-233 -1331h711l-9 -45h-761zM842 1397l-185 -320l-34 17l178 323z" />
    <glyph glyph-name="lcaron" unicode="&#x13e;" horiz-adv-x="530" 
d="M410 1442l-224 -1249q-6 -35 -6 -60q0 -52 34.5 -82.5t90.5 -30.5q15 0 30 2t33 6t25 5l6 -45q-71 -13 -100 -13q-74 0 -121 42t-47 112q0 27 6 64l223 1249h50zM772 1462l-184 -319l-35 16l178 324z" />
    <glyph glyph-name="Ldot" unicode="&#x13f;" horiz-adv-x="1099" 
d="M154 0l241 1376h51l-233 -1331h711l-9 -45h-761zM803 715q0 25 17 42t42 17q20 0 33.5 -12.5t13.5 -32.5q0 -26 -17.5 -42.5t-43.5 -16.5q-20 0 -32.5 12.5t-12.5 32.5z" />
    <glyph glyph-name="ldot" unicode="&#x140;" horiz-adv-x="604" 
d="M502 698q0 25 17 42.5t42 17.5q20 0 33.5 -12.5t13.5 -32.5q0 -26 -17.5 -43t-43.5 -17q-20 0 -32.5 12.5t-12.5 32.5zM410 1442l-224 -1249q-6 -35 -6 -60q0 -52 34.5 -82.5t90.5 -30.5q15 0 30 2t33 6t25 5l6 -45q-71 -13 -100 -13q-74 0 -121 42t-47 112q0 27 6 64
l223 1249h50z" />
    <glyph glyph-name="Lslash" unicode="&#x141;" horiz-adv-x="1099" 
d="M186 0l115 645l-207 -94l-16 41l231 106l119 678h51l-114 -653l362 168l16 -41l-389 -180l-108 -625h710l-8 -45h-762z" />
    <glyph glyph-name="lslash" unicode="&#x142;" horiz-adv-x="598" 
d="M426 1442l-121 -676l268 125l17 -41l-295 -135l-92 -522q-6 -35 -6 -60q0 -52 34.5 -82.5t90.5 -30.5q15 0 30 2t33 6t25 5l6 -45q-72 -13 -101 -13q-74 0 -121 42t-47 112q0 20 7 64l90 497l-234 -106l-14 41l256 116l125 701h49z" />
    <glyph glyph-name="Nacute" unicode="&#x143;" horiz-adv-x="1495" 
d="M154 0l241 1376h49l689 -1300l229 1300h47l-242 -1376h-49l-686 1300l-229 -1300h-49zM1217 1763l-340 -202l-21 32l336 211z" />
    <glyph glyph-name="nacute" unicode="&#x144;" horiz-adv-x="1120" 
d="M106 0l173 985h40l-30 -209q60 108 163 171t220 63q135 0 220 -80t85 -209q0 -47 -10 -109l-109 -612h-49l109 612q10 58 10 105q0 112 -72.5 179t-191.5 67q-148 0 -262 -105.5t-142 -269.5l-104 -588h-50zM958 1372l-340 -203l-20 33l336 211z" />
    <glyph glyph-name="Ncommaaccent" unicode="&#x145;" horiz-adv-x="1495" 
d="M154 0l241 1376h49l689 -1300l229 1300h47l-242 -1376h-49l-686 1300l-229 -1300h-49zM569 -252q0 25 16.5 41t41.5 16t39 -18.5t14 -50.5q0 -79 -58 -161t-153 -138l-18 31q161 101 178 239q-25 -6 -42.5 5.5t-17.5 35.5z" />
    <glyph glyph-name="ncommaaccent" unicode="&#x146;" horiz-adv-x="1120" 
d="M106 0l173 985h40l-30 -209q60 108 163 171t220 63q135 0 220 -80t85 -209q0 -47 -10 -109l-109 -612h-49l109 612q10 58 10 105q0 112 -72.5 179t-191.5 67q-148 0 -262 -105.5t-142 -269.5l-104 -588h-50zM389 -252q0 25 16 41t41 16t39.5 -18.5t14.5 -50.5
q0 -79 -58 -161t-153 -138l-19 31q162 102 179 239q-25 -6 -42.5 5.5t-17.5 35.5z" />
    <glyph glyph-name="Ncaron" unicode="&#x147;" horiz-adv-x="1495" 
d="M154 0l241 1376h49l689 -1300l229 1300h47l-242 -1376h-49l-686 1300l-229 -1300h-49zM1247 1806l-291 -239h-41l-202 243l30 25l195 -223l285 225z" />
    <glyph glyph-name="ncaron" unicode="&#x148;" horiz-adv-x="1120" 
d="M106 0l173 985h40l-30 -209q60 108 163 171t220 63q135 0 220 -80t85 -209q0 -47 -10 -109l-109 -612h-49l109 612q10 58 10 105q0 112 -72.5 179t-191.5 67q-148 0 -262 -105.5t-142 -269.5l-104 -588h-50zM989 1415l-291 -239h-41l-202 243l30 25l195 -223l285 225z
" />
    <glyph glyph-name="napostrophe" unicode="&#x149;" horiz-adv-x="1388" 
d="M375 0l172 985h41l-31 -209q60 108 163 171t220 63q135 0 220 -80t85 -209q0 -47 -10 -109l-109 -612h-49l109 612q10 58 10 105q0 112 -72.5 179t-191.5 67q-148 0 -262 -105.5t-142 -269.5l-104 -588h-49zM313 1331q0 25 16.5 41.5t41.5 16.5t39 -19t14 -51
q0 -79 -58 -161t-153 -138l-18 31q161 101 178 239q-25 -6 -42.5 5.5t-17.5 35.5z" />
    <glyph glyph-name="Eng" unicode="&#x14a;" horiz-adv-x="1495" 
d="M154 0l241 1376h49l691 -1300l227 1300h47l-242 -1376l-24 -141q-26 -143 -121 -226.5t-231 -83.5q-113 0 -267 58l17 43q147 -56 247 -56q119 0 200 71.5t106 193.5l26 139l-690 1302l-227 -1300h-49z" />
    <glyph glyph-name="eng" unicode="&#x14b;" horiz-adv-x="1120" 
d="M967 612l-150 -835q-19 -104 -88.5 -166t-171.5 -62q-75 0 -190 41l16 43q107 -39 172 -39q84 0 142 50t73 135l148 833q10 58 10 105q0 112 -72.5 179t-191.5 67q-148 0 -262 -105.5t-142 -269.5l-104 -588h-50l173 985h40l-30 -209q60 108 163 171t220 63
q135 0 220 -80t85 -209q0 -47 -10 -109z" />
    <glyph glyph-name="Omacron" unicode="&#x14c;" horiz-adv-x="1495" 
d="M152 524q0 249 94 449.5t261 314t374 113.5q236 0 384 -150.5t148 -398.5q0 -249 -94.5 -449.5t-261.5 -314t-373 -113.5q-236 0 -384 150.5t-148 398.5zM203 526q0 -230 133.5 -368t349.5 -138q192 0 346.5 107.5t242 297.5t87.5 425q0 230 -134.5 368t-348.5 138
q-192 0 -346.5 -107.5t-242 -297.5t-87.5 -425zM672 1679l8 43h563l-8 -43h-563z" />
    <glyph glyph-name="omacron" unicode="&#x14d;" horiz-adv-x="1120" 
d="M104 379q0 179 68 323t189.5 226t271.5 82q170 0 276.5 -112t106.5 -292q0 -179 -68 -323t-190 -226t-273 -82q-169 0 -275 112t-106 292zM154 379q0 -160 92 -259.5t241 -99.5q137 0 247 75.5t171.5 209t61.5 299.5q0 161 -92.5 261t-241.5 100q-138 0 -247.5 -75.5
t-170.5 -209.5t-61 -301zM414 1288l8 43h563l-8 -43h-563z" />
    <glyph glyph-name="Obreve" unicode="&#x14e;" horiz-adv-x="1495" 
d="M152 524q0 249 94 449.5t261 314t374 113.5q236 0 384 -150.5t148 -398.5q0 -249 -94.5 -449.5t-261.5 -314t-373 -113.5q-236 0 -384 150.5t-148 398.5zM203 526q0 -230 133.5 -368t349.5 -138q192 0 346.5 107.5t242 297.5t87.5 425q0 230 -134.5 368t-348.5 138
q-192 0 -346.5 -107.5t-242 -297.5t-87.5 -425zM713 1802h43q-15 -93 37 -151t151 -58q95 0 166.5 57.5t91.5 151.5h43q-23 -114 -105 -183t-196 -69q-106 0 -170.5 56t-64.5 147q0 25 4 49z" />
    <glyph glyph-name="obreve" unicode="&#x14f;" horiz-adv-x="1120" 
d="M104 379q0 179 68 323t189.5 226t271.5 82q170 0 276.5 -112t106.5 -292q0 -179 -68 -323t-190 -226t-273 -82q-169 0 -275 112t-106 292zM154 379q0 -160 92 -259.5t241 -99.5q137 0 247 75.5t171.5 209t61.5 299.5q0 161 -92.5 261t-241.5 100q-138 0 -247.5 -75.5
t-170.5 -209.5t-61 -301zM455 1411h43q-15 -93 37 -151t151 -58q95 0 166.5 57.5t91.5 151.5h43q-23 -114 -105 -183t-196 -69q-106 0 -170.5 56t-64.5 147q0 25 4 49z" />
    <glyph glyph-name="Ohungarumlaut" unicode="&#x150;" horiz-adv-x="1495" 
d="M152 524q0 249 94 449.5t261 314t374 113.5q236 0 384 -150.5t148 -398.5q0 -249 -94.5 -449.5t-261.5 -314t-373 -113.5q-236 0 -384 150.5t-148 398.5zM203 526q0 -230 133.5 -368t349.5 -138q192 0 346.5 107.5t242 297.5t87.5 425q0 230 -134.5 368t-348.5 138
q-192 0 -346.5 -107.5t-242 -297.5t-87.5 -425zM1384 1817l-303 -261l-24 31l299 264zM1049 1817l-304 -261l-26 31l299 264z" />
    <glyph glyph-name="ohungarumlaut" unicode="&#x151;" horiz-adv-x="1120" 
d="M104 379q0 179 68 323t189.5 226t271.5 82q170 0 276.5 -112t106.5 -292q0 -179 -68 -323t-190 -226t-273 -82q-169 0 -275 112t-106 292zM154 379q0 -160 92 -259.5t241 -99.5q137 0 247 75.5t171.5 209t61.5 299.5q0 161 -92.5 261t-241.5 100q-138 0 -247.5 -75.5
t-170.5 -209.5t-61 -301zM1126 1425l-303 -260l-24 31l299 264zM791 1425l-304 -260l-26 31l299 264z" />
    <glyph glyph-name="OE" unicode="&#x152;" horiz-adv-x="2031" 
d="M152 551q0 181 57.5 335t158.5 261.5t244.5 168t311.5 60.5h1101l-8 -45h-745l-107 -604h682l-8 -45h-682l-110 -637h778l-8 -45h-1074q-282 0 -436.5 144.5t-154.5 406.5zM203 551q0 -242 141.5 -374t403.5 -132h249l226 1286h-299q-210 0 -374 -97.5t-255.5 -275.5
t-91.5 -407z" />
    <glyph glyph-name="oe" unicode="&#x153;" horiz-adv-x="1900" 
d="M1798 483h-790q-9 -53 -9 -106q1 -160 99.5 -258.5t255.5 -98.5q151 0 307 93l22 -39q-178 -99 -333 -99q-161 0 -267.5 95.5t-121.5 251.5q-64 -160 -189.5 -253.5t-286.5 -93.5q-169 0 -275 112t-106 292q0 179 68 323t189.5 226t271.5 82q155 0 258 -96t117 -252
q63 158 184 253t272 95q156 0 252 -107.5t96 -279.5q0 -69 -14 -140zM487 20q137 0 247 75.5t171.5 209t61.5 299.5q0 161 -92.5 261t-241.5 100q-138 0 -247.5 -75.5t-170.5 -209.5t-61 -301q0 -160 92 -259.5t241 -99.5zM1462 965q-164 0 -287.5 -122t-160.5 -319h743
q8 44 8 101q0 153 -83 246.5t-220 93.5z" />
    <glyph glyph-name="Racute" unicode="&#x154;" horiz-adv-x="1296" 
d="M154 0l241 1376h451q165 0 262.5 -93.5t97.5 -252.5q0 -185 -125 -305t-319 -125l323 -600h-55l-321 598h-400l-106 -598h-49zM436 1331l-119 -686h428q182 0 297 107t115 276q0 140 -84 221.5t-231 81.5h-406zM1065 1763l-340 -202l-20 32l335 211z" />
    <glyph glyph-name="racute" unicode="&#x155;" horiz-adv-x="743" 
d="M106 0l173 985h40l-28 -192q55 100 144 154t196 54q78 0 147 -28l-18 -43q-59 26 -133 26q-139 0 -240.5 -100.5t-130.5 -267.5l-100 -588h-50zM811 1372l-340 -203l-20 33l335 211z" />
    <glyph glyph-name="Rcommaaccent" unicode="&#x156;" horiz-adv-x="1296" 
d="M154 0l241 1376h451q165 0 262.5 -93.5t97.5 -252.5q0 -185 -125 -305t-319 -125l323 -600h-55l-321 598h-400l-106 -598h-49zM436 1331l-119 -686h428q182 0 297 107t115 276q0 140 -84 221.5t-231 81.5h-406zM487 -252q0 25 16.5 41t41.5 16t39 -18.5t14 -50.5
q0 -79 -58 -161t-153 -138l-18 31q161 101 178 239q-25 -6 -42.5 5.5t-17.5 35.5z" />
    <glyph glyph-name="rcommaaccent" unicode="&#x157;" horiz-adv-x="743" 
d="M106 0l173 985h40l-28 -192q55 100 144 154t196 54q78 0 147 -28l-18 -43q-59 26 -133 26q-139 0 -240.5 -100.5t-130.5 -267.5l-100 -588h-50zM39 -252q0 25 16 41t41 16t39.5 -18.5t14.5 -50.5q0 -79 -58 -161t-153 -138l-19 31q161 101 178 239q-25 -6 -42 5.5
t-17 35.5z" />
    <glyph glyph-name="Rcaron" unicode="&#x158;" horiz-adv-x="1296" 
d="M154 0l241 1376h451q165 0 262.5 -93.5t97.5 -252.5q0 -185 -125 -305t-319 -125l323 -600h-55l-321 598h-400l-106 -598h-49zM436 1331l-119 -686h428q182 0 297 107t115 276q0 140 -84 221.5t-231 81.5h-406zM1096 1806l-291 -239h-41l-203 243l31 25l194 -223l285 225
z" />
    <glyph glyph-name="rcaron" unicode="&#x159;" horiz-adv-x="743" 
d="M106 0l173 985h40l-28 -192q55 100 144 154t196 54q78 0 147 -28l-18 -43q-59 26 -133 26q-139 0 -240.5 -100.5t-130.5 -267.5l-100 -588h-50zM842 1415l-291 -239h-41l-203 243l31 25l194 -223l285 225z" />
    <glyph glyph-name="Sacute" unicode="&#x15a;" horiz-adv-x="1148" 
d="M242 1040q0 155 123.5 258t312.5 103q218 0 455 -111l-21 -43q-230 109 -434 109q-168 0 -277.5 -90t-109.5 -226q0 -60 24 -108.5t64.5 -82t92.5 -62t110 -53l116 -49t110 -56t92.5 -69.5t64.5 -93t24 -123q0 -164 -124 -266.5t-318 -102.5q-250 0 -490 123l21 43
q242 -121 467 -121q176 0 285.5 89t109.5 235q0 61 -24 110.5t-64.5 84t-92.5 63.5t-110 53.5l-116 49t-110 55.5t-92.5 68t-64.5 91.5t-24 120.5zM1044 1763l-339 -202l-21 32l336 211z" />
    <glyph glyph-name="sacute" unicode="&#x15b;" horiz-adv-x="872" 
d="M168 743q0 115 88 191t225 76q164 0 324 -80l-21 -39q-157 74 -301 74q-119 0 -192.5 -62t-73.5 -160q0 -46 21.5 -83t56 -60.5t79 -46t91.5 -40t91.5 -42t79 -52t56 -71t21.5 -98.5q0 -121 -89 -198t-233 -77q-172 0 -356 91l20 40q177 -86 334 -86q125 0 200 64t75 166
q0 54 -27.5 95.5t-71 68t-96.5 49t-106 46.5t-96.5 53t-71 75t-27.5 106zM819 1372l-340 -203l-20 33l336 211z" />
    <glyph glyph-name="Scircumflex" unicode="&#x15c;" horiz-adv-x="1148" 
d="M242 1040q0 155 123.5 258t312.5 103q218 0 455 -111l-21 -43q-230 109 -434 109q-168 0 -277.5 -90t-109.5 -226q0 -60 24 -108.5t64.5 -82t92.5 -62t110 -53l116 -49t110 -56t92.5 -69.5t64.5 -93t24 -123q0 -164 -124 -266.5t-318 -102.5q-250 0 -490 123l21 43
q242 -121 467 -121q176 0 285.5 89t109.5 235q0 61 -24 110.5t-64.5 84t-92.5 63.5t-110 53.5l-116 49t-110 55.5t-92.5 68t-64.5 91.5t-24 120.5zM492 1595l290 240h41l201 -246l-29 -24l-196 225l-285 -225z" />
    <glyph glyph-name="scircumflex" unicode="&#x15d;" horiz-adv-x="872" 
d="M168 743q0 115 88 191t225 76q164 0 324 -80l-21 -39q-157 74 -301 74q-119 0 -192.5 -62t-73.5 -160q0 -46 21.5 -83t56 -60.5t79 -46t91.5 -40t91.5 -42t79 -52t56 -71t21.5 -98.5q0 -121 -89 -198t-233 -77q-172 0 -356 91l20 40q177 -86 334 -86q125 0 200 64t75 166
q0 54 -27.5 95.5t-71 68t-96.5 49t-106 46.5t-96.5 53t-71 75t-27.5 106zM266 1204l291 240h41l201 -246l-29 -24l-197 225l-284 -225z" />
    <glyph glyph-name="Scedilla" unicode="&#x15e;" horiz-adv-x="1148" 
d="M242 1040q0 155 123.5 258t312.5 103q218 0 455 -111l-21 -43q-230 109 -434 109q-168 0 -277.5 -90t-109.5 -226q0 -60 24 -108.5t64.5 -82t92.5 -62t110 -53l116 -49t110 -56t92.5 -69.5t64.5 -93t24 -123q0 -173 -130 -270t-341 -99l-39 -120q59 -7 94 -45.5t35 -94.5
q0 -69 -54.5 -114t-139.5 -45q-81 0 -176 45l20 37q87 -41 154 -41q66 0 108.5 33.5t42.5 84.5q0 47 -36.5 76t-92.5 29h-12l53 160q-219 13 -418 118l21 43q242 -121 467 -121q176 0 285.5 89t109.5 235q0 61 -24 110.5t-64.5 84t-92.5 63.5t-110 53.5l-116 49t-110 55.5
t-92.5 68t-64.5 91.5t-24 120.5z" />
    <glyph glyph-name="scedilla" unicode="&#x15f;" horiz-adv-x="872" 
d="M168 743q0 115 88 191t225 76q164 0 324 -80l-21 -39q-157 74 -301 74q-119 0 -192.5 -60.5t-73.5 -161.5q0 -46 21.5 -83t56 -60.5t79 -46t91.5 -40t91.5 -42t79 -52t56 -71t21.5 -98.5q0 -125 -91 -199t-241 -76l-41 -120q60 -7 95.5 -45.5t35.5 -94.5q0 -69 -56 -114
t-141 -45q-82 0 -174 45l19 37q87 -41 155 -41q65 0 108.5 33.5t43.5 84.5q0 46 -37 75.5t-92 29.5h-14l55 157q-153 12 -303 89l20 40q177 -86 334 -86q123 0 199 62.5t76 167.5q0 54 -27.5 95.5t-71 68t-96.5 49t-106 46.5t-96.5 53t-71 75t-27.5 106z" />
    <glyph glyph-name="Scaron" unicode="&#x160;" horiz-adv-x="1148" 
d="M242 1040q0 155 123.5 258t312.5 103q218 0 455 -111l-21 -43q-230 109 -434 109q-168 0 -277.5 -90t-109.5 -226q0 -60 24 -108.5t64.5 -82t92.5 -62t110 -53l116 -49t110 -56t92.5 -69.5t64.5 -93t24 -123q0 -164 -124 -266.5t-318 -102.5q-250 0 -490 123l21 43
q242 -121 467 -121q176 0 285.5 89t109.5 235q0 61 -24 110.5t-64.5 84t-92.5 63.5t-110 53.5l-116 49t-110 55.5t-92.5 68t-64.5 91.5t-24 120.5zM1075 1806l-291 -239h-41l-202 243l30 25l195 -223l285 225z" />
    <glyph glyph-name="scaron" unicode="&#x161;" horiz-adv-x="872" 
d="M168 743q0 115 88 191t225 76q164 0 324 -80l-21 -39q-157 74 -301 74q-119 0 -192.5 -62t-73.5 -160q0 -46 21.5 -83t56 -60.5t79 -46t91.5 -40t91.5 -42t79 -52t56 -71t21.5 -98.5q0 -121 -89 -198t-233 -77q-172 0 -356 91l20 40q177 -86 334 -86q125 0 200 64t75 166
q0 54 -27.5 95.5t-71 68t-96.5 49t-106 46.5t-96.5 53t-71 75t-27.5 106zM850 1415l-291 -239h-41l-203 243l31 25l195 -223l284 225z" />
    <glyph glyph-name="Tcommaaccent" unicode="&#x162;" horiz-adv-x="1198" 
d="M487 0l234 1331h-510l8 45h1069l-8 -45h-510l-233 -1331h-50zM420 -252q0 25 16 41t41 16t39 -18.5t14 -50.5q0 -79 -58 -161t-153 -138l-18 31q161 101 178 239q-25 -6 -42 5.5t-17 35.5z" />
    <glyph glyph-name="tcommaaccent" unicode="&#x163;" horiz-adv-x="790" 
d="M479 1280l-53 -295h354l-8 -45h-354l-121 -688q-8 -46 -8 -72q0 -72 49 -116t129 -44q55 0 145 17l6 -45q-78 -17 -157 -17q-98 0 -159.5 56t-61.5 147q0 24 8 74l121 688h-228l9 45h227l53 295h49zM299 -252q0 25 16 41t41 16t39.5 -18.5t14.5 -50.5q0 -79 -58 -161
t-153 -138l-19 31q161 101 178 239q-25 -6 -42 5.5t-17 35.5z" />
    <glyph glyph-name="Tcaron" unicode="&#x164;" horiz-adv-x="1198" 
d="M487 0l234 1331h-510l8 45h1069l-8 -45h-510l-233 -1331h-50zM1098 1806l-291 -239h-41l-203 243l31 25l194 -223l285 225z" />
    <glyph glyph-name="tcaron" unicode="&#x165;" horiz-adv-x="790" 
d="M479 1280l-53 -295h354l-8 -45h-354l-121 -688q-8 -46 -8 -72q0 -72 49 -116t129 -44q55 0 145 17l6 -45q-78 -17 -157 -17q-98 0 -159.5 56t-61.5 147q0 24 8 74l121 688h-228l9 45h227l53 295h49zM854 1462l-184 -319l-35 16l178 324z" />
    <glyph glyph-name="Tbar" unicode="&#x166;" horiz-adv-x="1198" 
d="M487 0l111 633h-313l8 45h313l115 653h-510l8 45h1069l-8 -45h-510l-115 -653h318l-8 -45h-318l-110 -633h-50z" />
    <glyph glyph-name="tbar" unicode="&#x167;" horiz-adv-x="790" 
d="M479 1280l-53 -295h354l-8 -45h-354l-74 -414h322l-9 -43h-321l-39 -231q-8 -50 -8 -72q0 -72 49 -116t129 -44q55 0 145 17l6 -45q-78 -17 -157 -17q-98 0 -159.5 56t-61.5 147q0 24 8 74l39 231h-209l8 43h209l74 414h-228l9 45h227l53 295h49z" />
    <glyph glyph-name="Utilde" unicode="&#x168;" horiz-adv-x="1495" 
d="M1425 1376l-155 -884q-41 -237 -199 -377t-385 -140q-209 0 -337 121t-128 316q0 46 10 114l148 850h51l-149 -850q-11 -56 -11 -112q0 -177 114.5 -285.5t303.5 -108.5q206 0 351 129t182 345l155 882h49zM827 1763q51 0 133 -41t125 -41q34 0 64 22t45 60l39 -16
q-21 -49 -60.5 -79t-87.5 -30q-50 0 -132 41t-126 41q-34 0 -62.5 -22t-43.5 -60l-39 15q19 48 59 79t86 31z" />
    <glyph glyph-name="utilde" unicode="&#x169;" horiz-adv-x="1120" 
d="M1014 985l-172 -985h-41l30 207q-60 -106 -163.5 -169t-218.5 -63q-135 0 -220.5 80t-85.5 209q0 39 11 107l108 614h49l-108 -612q-10 -62 -10 -105q0 -112 72.5 -180t191.5 -68q148 0 261.5 105.5t141.5 269.5l105 590h49zM569 1372q51 0 133 -41t125 -41q34 0 64 22
t45 60l39 -16q-21 -49 -60.5 -79t-87.5 -30q-50 0 -132 41t-126 41q-34 0 -62.5 -22t-43.5 -60l-39 15q19 48 59 79t86 31z" />
    <glyph glyph-name="Umacron" unicode="&#x16a;" horiz-adv-x="1495" 
d="M1425 1376l-155 -884q-41 -237 -199 -377t-385 -140q-209 0 -337 121t-128 316q0 46 10 114l148 850h51l-149 -850q-11 -56 -11 -112q0 -177 114.5 -285.5t303.5 -108.5q206 0 351 129t182 345l155 882h49zM672 1679l8 43h563l-8 -43h-563z" />
    <glyph glyph-name="umacron" unicode="&#x16b;" horiz-adv-x="1120" 
d="M1014 985l-172 -985h-41l30 207q-60 -106 -163.5 -169t-218.5 -63q-135 0 -220.5 80t-85.5 209q0 39 11 107l108 614h49l-108 -612q-10 -62 -10 -105q0 -112 72.5 -180t191.5 -68q148 0 261.5 105.5t141.5 269.5l105 590h49zM414 1288l8 43h563l-8 -43h-563z" />
    <glyph glyph-name="Ubreve" unicode="&#x16c;" horiz-adv-x="1495" 
d="M1425 1376l-155 -884q-41 -237 -199 -377t-385 -140q-209 0 -337 121t-128 316q0 46 10 114l148 850h51l-149 -850q-11 -56 -11 -112q0 -177 114.5 -285.5t303.5 -108.5q206 0 351 129t182 345l155 882h49zM713 1802h43q-15 -93 37 -151t151 -58q95 0 166.5 57.5
t91.5 151.5h43q-23 -114 -105 -183t-196 -69q-106 0 -170.5 56t-64.5 147q0 25 4 49z" />
    <glyph glyph-name="ubreve" unicode="&#x16d;" horiz-adv-x="1120" 
d="M1014 985l-172 -985h-41l30 207q-60 -106 -163.5 -169t-218.5 -63q-135 0 -220.5 80t-85.5 209q0 39 11 107l108 614h49l-108 -612q-10 -62 -10 -105q0 -112 72.5 -180t191.5 -68q148 0 261.5 105.5t141.5 269.5l105 590h49zM455 1411h43q-15 -93 37 -151t151 -58
q95 0 166.5 57.5t91.5 151.5h43q-23 -114 -105 -183t-196 -69q-106 0 -170.5 56t-64.5 147q0 25 4 49z" />
    <glyph glyph-name="Uring" unicode="&#x16e;" horiz-adv-x="1495" 
d="M1425 1376l-155 -884q-41 -237 -199 -377t-385 -140q-209 0 -337 121t-128 316q0 46 10 114l148 850h51l-149 -850q-11 -56 -11 -112q0 -177 114.5 -285.5t303.5 -108.5q206 0 351 129t182 345l155 882h49zM813 1679q0 -57 32.5 -90t88.5 -33q70 0 118 48t48 118
q0 56 -33 88.5t-88 32.5q-70 0 -118 -47.5t-48 -116.5zM772 1673q0 89 61 149t150 60q69 0 112.5 -43.5t43.5 -112.5q0 -88 -60 -148t-149 -60q-69 0 -113.5 43.5t-44.5 111.5z" />
    <glyph glyph-name="uring" unicode="&#x16f;" horiz-adv-x="1120" 
d="M1014 985l-172 -985h-41l30 207q-60 -106 -163.5 -169t-218.5 -63q-135 0 -220.5 80t-85.5 209q0 39 11 107l108 614h49l-108 -612q-10 -62 -10 -105q0 -112 72.5 -180t191.5 -68q148 0 261.5 105.5t141.5 269.5l105 590h49zM555 1288q0 -57 32.5 -90t88.5 -33
q70 0 118 47.5t48 118.5q0 55 -33 88t-88 33q-70 0 -118 -47.5t-48 -116.5zM514 1282q0 89 61 149t150 60q69 0 112.5 -43.5t43.5 -112.5q0 -88 -60 -148.5t-149 -60.5q-69 0 -113.5 44t-44.5 112z" />
    <glyph glyph-name="Uhungarumlaut" unicode="&#x170;" horiz-adv-x="1495" 
d="M1425 1376l-155 -884q-41 -237 -199 -377t-385 -140q-209 0 -337 121t-128 316q0 46 10 114l148 850h51l-149 -850q-11 -56 -11 -112q0 -177 114.5 -285.5t303.5 -108.5q206 0 351 129t182 345l155 882h49zM1384 1817l-303 -261l-24 31l299 264zM1049 1817l-304 -261
l-26 31l299 264z" />
    <glyph glyph-name="uhungarumlaut" unicode="&#x171;" horiz-adv-x="1120" 
d="M1014 985l-172 -985h-41l30 207q-60 -106 -163.5 -169t-218.5 -63q-135 0 -220.5 80t-85.5 209q0 39 11 107l108 614h49l-108 -612q-10 -62 -10 -105q0 -112 72.5 -180t191.5 -68q148 0 261.5 105.5t141.5 269.5l105 590h49zM1126 1425l-303 -260l-24 31l299 264z
M791 1425l-304 -260l-26 31l299 264z" />
    <glyph glyph-name="Uogonek" unicode="&#x172;" horiz-adv-x="1495" 
d="M1425 1376l-155 -884q-17 -99 -51 -177t-84.5 -135t-107.5 -97t-132 -75q-170 -79 -259 -165.5t-89 -149.5q0 -43 27.5 -69.5t72.5 -26.5q44 0 96 18l13 -39q-58 -20 -115 -20q-62 0 -100.5 36.5t-38.5 96.5q0 70 72.5 148t197.5 147q-50 -9 -94 -9q-205 3 -331 123
t-126 314q0 46 10 114l148 850h51l-149 -850q-11 -56 -11 -112q0 -177 114.5 -285.5t303.5 -108.5q206 0 351 129t182 345l155 882h49z" />
    <glyph glyph-name="uogonek" unicode="&#x173;" horiz-adv-x="1153" 
d="M1014 985l-172 -985q-125 -82 -191.5 -161t-66.5 -146q0 -43 27.5 -69.5t72.5 -26.5q44 0 96 18l13 -39q-55 -20 -115 -20q-62 0 -100.5 37.5t-38.5 97.5q0 76 69 160.5t195 164.5l28 191q-60 -106 -163.5 -169t-218.5 -63q-135 0 -220.5 80t-85.5 209q0 39 11 107
l108 614h49l-108 -612q-10 -62 -10 -105q0 -112 72.5 -180t191.5 -68q148 0 261.5 105.5t141.5 269.5l105 590h49z" />
    <glyph glyph-name="Wcircumflex" unicode="&#x174;" horiz-adv-x="2002" 
d="M2056 1376l-665 -1376h-52l-196 1303l-627 -1303h-53l-203 1376h49l191 -1302l628 1302h52l196 -1302l627 1302h53zM918 1595l290 240h41l201 -246l-29 -24l-196 225l-285 -225z" />
    <glyph glyph-name="wcircumflex" unicode="&#x175;" horiz-adv-x="1529" 
d="M1522 985l-494 -985h-51l-139 911l-457 -911h-51l-150 985h47l140 -913l456 913h51l138 -913l456 913h54zM594 1204l291 240h41l200 -246l-28 -24l-197 225l-285 -225z" />
    <glyph glyph-name="Ycircumflex" unicode="&#x176;" horiz-adv-x="1169" 
d="M473 0l109 623l-389 753h55l364 -706l568 706h61l-610 -760l-109 -616h-49zM483 1595l291 240h41l201 -246l-29 -24l-196 225l-285 -225z" />
    <glyph glyph-name="ycircumflex" unicode="&#x177;" horiz-adv-x="1005" 
d="M1014 985l-688 -1194q-74 -130 -141 -186t-152 -56q-45 0 -111 17l12 45q56 -17 99 -17q69 0 127.5 50.5t124.5 167.5l112 196l-233 977h47l221 -917l529 917h53zM332 1204l291 240h41l200 -246l-28 -24l-197 225l-285 -225z" />
    <glyph glyph-name="Ydieresis" unicode="&#x178;" horiz-adv-x="1169" 
d="M473 0l109 623l-389 753h55l364 -706l568 706h61l-610 -760l-109 -616h-49zM924 1694q0 25 16 42t41 17q20 0 32.5 -13t12.5 -32q0 -25 -16.5 -42t-42.5 -17q-19 0 -31 12.5t-12 32.5zM524 1694q0 25 17.5 42t42.5 17q20 0 32.5 -13t12.5 -32q0 -25 -17.5 -42t-42.5 -17
q-19 0 -32 12.5t-13 32.5z" />
    <glyph glyph-name="Zacute" unicode="&#x179;" horiz-adv-x="1247" 
d="M41 0l6 35l1124 1296h-872l8 45h944l-6 -35l-1124 -1296h921l-8 -45h-993zM1094 1763l-340 -202l-21 32l336 211z" />
    <glyph glyph-name="zacute" unicode="&#x17a;" horiz-adv-x="937" 
d="M25 0l6 33l788 907h-612l8 45h682l-6 -35l-787 -905h646l-9 -45h-716zM868 1372l-340 -203l-20 33l336 211z" />
    <glyph glyph-name="Zdotaccent" unicode="&#x17b;" horiz-adv-x="1247" 
d="M41 0l6 35l1124 1296h-872l8 45h944l-6 -35l-1124 -1296h921l-8 -45h-993zM780 1694q0 25 17.5 42t42.5 17q20 0 33.5 -12.5t13.5 -32.5q0 -26 -17.5 -42.5t-44.5 -16.5q-20 0 -32.5 12.5t-12.5 32.5z" />
    <glyph glyph-name="zdotaccent" unicode="&#x17c;" horiz-adv-x="937" 
d="M25 0l6 33l788 907h-612l8 45h682l-6 -35l-787 -905h646l-9 -45h-716zM555 1303q0 25 17 42t42 17q21 0 34.5 -12.5t13.5 -32.5q0 -26 -18 -43t-44 -17q-20 0 -32.5 13t-12.5 33z" />
    <glyph glyph-name="Zcaron" unicode="&#x17d;" horiz-adv-x="1247" 
d="M41 0l6 35l1124 1296h-872l8 45h944l-6 -35l-1124 -1296h921l-8 -45h-993zM1124 1806l-290 -239h-41l-203 243l31 25l194 -223l285 225z" />
    <glyph glyph-name="zcaron" unicode="&#x17e;" horiz-adv-x="937" 
d="M25 0l6 33l788 907h-612l8 45h682l-6 -35l-787 -905h646l-9 -45h-716zM899 1415l-291 -239h-41l-202 243l30 25l195 -223l284 225z" />
    <glyph glyph-name="florin" unicode="&#x192;" 
d="M379 811l8 43h225l62 352q17 91 79.5 143t151.5 52q74 0 172 -37l-16 -43q-81 35 -154 35q-72 0 -122 -42.5t-62 -111.5l-61 -348h290l-8 -43h-291l-110 -641q-17 -91 -79 -143t-153 -52q-74 0 -172 37l17 43q81 -35 153 -35t122.5 42t62.5 110l110 639h-225z" />
    <glyph glyph-name="Acaron" unicode="&#x1cd;" horiz-adv-x="1331" 
d="M-10 0l807 1376h49l317 -1376h-49l-100 434h-713l-254 -434h-57zM813 1311l-487 -832h678zM1157 1806l-291 -239h-41l-202 243l30 25l195 -223l285 225z" />
    <glyph glyph-name="acaron" unicode="&#x1ce;" horiz-adv-x="1052" 
d="M74 248q0 152 124.5 241t338.5 89q130 0 268 -33l24 141q7 35 7 66q0 94 -68 153.5t-184 59.5q-149 0 -320 -58l-10 43q174 60 334 60q136 0 215.5 -71t79.5 -185q0 -36 -6 -70l-97 -553q-4 -24 -4 -33q0 -36 26.5 -57t69.5 -21q18 0 58 9l6 -45q-52 -9 -70 -9
q-63 0 -100 32t-37 87q0 15 4 35l12 59q-132 -213 -372 -213q-137 0 -218 75t-81 198zM123 250q0 -104 69 -168t187 -64q151 0 261 99.5t136 259.5l23 127q-138 33 -262 33q-191 0 -302.5 -78t-111.5 -209zM956 1415l-290 -239h-41l-203 243l31 25l194 -223l285 225z" />
    <glyph glyph-name="Aringacute" unicode="&#x1fa;" horiz-adv-x="1331" 
d="M-10 0l807 1376h49l317 -1376h-49l-100 434h-713l-254 -434h-57zM813 1311l-487 -832h678zM682 1673q0 126 119 193l348 198l20 -39l-256 -145q61 -6 98.5 -48.5t37.5 -105.5q0 -88 -60 -148t-149 -60q-69 0 -113.5 43.5t-44.5 111.5zM723 1679q0 -57 32.5 -90t88.5 -33
q70 0 118 48t48 118q0 56 -33 88.5t-88 32.5q-70 0 -118 -47.5t-48 -116.5z" />
    <glyph glyph-name="aringacute" unicode="&#x1fb;" horiz-adv-x="1052" 
d="M74 248q0 152 124.5 241t338.5 89q130 0 268 -33l24 141q7 35 7 66q0 94 -68 153.5t-184 59.5q-149 0 -320 -58l-10 43q174 60 334 60q136 0 215.5 -71t79.5 -185q0 -36 -6 -70l-97 -553q-4 -24 -4 -33q0 -36 26.5 -57t69.5 -21q18 0 58 9l6 -45q-52 -9 -70 -9
q-63 0 -100 32t-37 87q0 15 4 35l12 59q-132 -213 -372 -213q-137 0 -218 75t-81 198zM123 250q0 -104 69 -168t187 -64q151 0 261 99.5t136 259.5l23 127q-138 33 -262 33q-191 0 -302.5 -78t-111.5 -209zM473 1282q0 126 119 193l348 198l21 -39l-256 -145q61 -6 98 -48.5
t37 -105.5q0 -88 -60 -148.5t-149 -60.5q-69 0 -113.5 44t-44.5 112zM514 1288q0 -57 32.5 -90t88.5 -33q71 0 118.5 47.5t47.5 118.5q0 55 -32.5 88t-88.5 33q-70 0 -118 -47.5t-48 -116.5z" />
    <glyph glyph-name="AEacute" unicode="&#x1fc;" horiz-adv-x="1935" 
d="M893 0l76 434h-596l-369 -434h-63l1165 1376h825l-8 -45h-747l-105 -604h680l-8 -45h-680l-113 -637h781l-9 -45h-829zM1126 1329l-718 -850h569zM1618 1763l-340 -202l-21 32l336 211z" />
    <glyph glyph-name="aeacute" unicode="&#x1fd;" horiz-adv-x="1736" 
d="M74 248q0 152 124.5 241t338.5 89q130 0 268 -33l24 141q7 40 7 64q0 94 -68 154.5t-184 60.5q-149 0 -320 -58l-10 43q174 60 334 60q135 0 215 -65.5t86 -184.5q68 119 174.5 184.5t236.5 65.5q157 0 253 -107t96 -280q0 -63 -15 -140h-790q-8 -47 -8 -106
q1 -160 99 -258.5t255 -98.5q151 0 307 93l23 -39q-178 -99 -334 -99q-152 0 -258 87t-131 233q-44 -144 -160.5 -232t-261.5 -88q-136 0 -218.5 75.5t-82.5 197.5zM1298 965q-164 0 -287.5 -122t-160.5 -319h743q9 49 9 101q0 154 -83 247t-221 93zM123 250q0 -104 69 -168
t187 -64q151 0 261 99.5t136 259.5l23 127q-138 33 -262 33q-191 0 -302.5 -78t-111.5 -209zM1268 1372l-340 -203l-21 33l336 211z" />
    <glyph glyph-name="Oslashacute" unicode="&#x1fe;" horiz-adv-x="1495" 
d="M152 524q0 249 94 449.5t261 314t374 113.5q238 0 387 -158l135 150l33 -29l-142 -150q119 -148 119 -362q0 -249 -94 -449.5t-261 -314t-374 -113.5q-243 0 -387 156l-137 -147l-31 28l137 150q-114 142 -114 362zM201 526q0 -197 102 -327l932 1009q-135 148 -356 148
q-193 0 -348 -107.5t-242.5 -297.5t-87.5 -425zM686 25q192 0 347 106t243 295t88 424q0 195 -102 328l-932 -1010q134 -143 356 -143zM1217 1763l-340 -202l-21 32l336 211z" />
    <glyph glyph-name="oslashacute" unicode="&#x1ff;" horiz-adv-x="1120" 
d="M104 379q0 179 68 323t189.5 226t271.5 82q164 0 274 -113l94 104l31 -28l-98 -107q82 -109 82 -260q0 -179 -68 -323t-190 -226t-273 -82q-170 0 -272 111l-94 -102l-31 26l96 105q-80 107 -80 264zM487 20q209 0 345.5 166t136.5 418q0 135 -70 227l-655 -712
q93 -99 243 -99zM152 379q0 -135 65 -227l657 710q-92 103 -241 103q-138 0 -248 -75.5t-171.5 -209.5t-61.5 -301zM958 1372l-340 -203l-20 33l336 211z" />
    <glyph glyph-name="Scommaaccent" unicode="&#x218;" horiz-adv-x="1148" 
d="M242 1040q0 155 123.5 258t312.5 103q218 0 455 -111l-21 -43q-230 109 -434 109q-168 0 -277.5 -90t-109.5 -226q0 -60 24 -108.5t64.5 -82t92.5 -62t110 -53l116 -49t110 -56t92.5 -69.5t64.5 -93t24 -123q0 -164 -124 -266.5t-318 -102.5q-250 0 -490 123l21 43
q242 -121 467 -121q176 0 285.5 89t109.5 235q0 61 -24 110.5t-64.5 84t-92.5 63.5t-110 53.5l-116 49t-110 55.5t-92.5 68t-64.5 91.5t-24 120.5zM397 -252q0 25 16.5 41t41.5 16t39 -18.5t14 -50.5q0 -79 -58 -161t-153 -138l-18 31q161 101 178 239q-25 -6 -42.5 5.5
t-17.5 35.5z" />
    <glyph glyph-name="scommaaccent" unicode="&#x219;" horiz-adv-x="872" 
d="M168 743q0 115 88 191t225 76q164 0 324 -80l-21 -39q-157 74 -301 74q-119 0 -192.5 -62t-73.5 -160q0 -46 21.5 -83t56 -60.5t79 -46t91.5 -40t91.5 -42t79 -52t56 -71t21.5 -98.5q0 -121 -89 -198t-233 -77q-172 0 -356 91l20 40q177 -86 334 -86q125 0 200 64t75 166
q0 54 -27.5 95.5t-71 68t-96.5 49t-106 46.5t-96.5 53t-71 75t-27.5 106zM258 -252q0 25 16 41t41 16t39.5 -18.5t14.5 -50.5q0 -79 -58 -161t-153 -138l-19 31q161 101 178 239q-25 -6 -42 5.5t-17 35.5z" />
    <glyph glyph-name="uni021A" unicode="&#x21a;" horiz-adv-x="1198" 
d="M487 0l234 1331h-510l8 45h1069l-8 -45h-510l-233 -1331h-50zM420 -252q0 25 16 41t41 16t39 -18.5t14 -50.5q0 -79 -58 -161t-153 -138l-18 31q161 101 178 239q-25 -6 -42 5.5t-17 35.5z" />
    <glyph glyph-name="uni021B" unicode="&#x21b;" horiz-adv-x="790" 
d="M479 1280l-53 -295h354l-8 -45h-354l-121 -688q-8 -46 -8 -72q0 -72 49 -116t129 -44q55 0 145 17l6 -45q-78 -17 -157 -17q-98 0 -159.5 56t-61.5 147q0 24 8 74l121 688h-228l9 45h227l53 295h49zM299 -252q0 25 16 41t41 16t39.5 -18.5t14.5 -50.5q0 -79 -58 -161
t-153 -138l-19 31q161 101 178 239q-25 -6 -42 5.5t-17 35.5z" />
    <glyph glyph-name="circumflex" unicode="&#x2c6;" horiz-adv-x="491" 
d="M92 1204l291 240h41l201 -246l-29 -24l-197 225l-284 -225z" />
    <glyph glyph-name="caron" unicode="&#x2c7;" horiz-adv-x="491" 
d="M676 1415l-291 -239h-41l-203 243l31 25l195 -223l284 225z" />
    <glyph glyph-name="breve" unicode="&#x2d8;" horiz-adv-x="491" 
d="M141 1411h43q-15 -93 37.5 -151t151.5 -58q95 0 166.5 57.5t91.5 151.5h43q-23 -114 -105 -183t-196 -69q-106 0 -171 56t-65 147q0 25 4 49z" />
    <glyph glyph-name="dotaccent" unicode="&#x2d9;" horiz-adv-x="491" 
d="M332 1303q0 25 17 42t42 17q20 0 33.5 -12.5t13.5 -32.5q0 -26 -17.5 -43t-43.5 -17q-20 0 -32.5 13t-12.5 33z" />
    <glyph glyph-name="ring" unicode="&#x2da;" horiz-adv-x="491" 
d="M242 1288q0 -57 32 -90t88 -33q70 0 118 47.5t48 118.5q0 56 -32.5 88.5t-87.5 32.5q-70 0 -118 -47.5t-48 -116.5zM201 1282q0 89 61 149t150 60q69 0 112 -43.5t43 -112.5q0 -88 -60 -148.5t-149 -60.5q-69 0 -113 44t-44 112z" />
    <glyph glyph-name="ogonek" unicode="&#x2db;" horiz-adv-x="491" 
d="M152 20l32 -20q-125 -82 -191.5 -161t-66.5 -146q0 -43 27.5 -69.5t73.5 -26.5q44 0 96 18l12 -39q-55 -20 -115 -20q-62 0 -100.5 37.5t-38.5 97.5q0 76 70.5 161.5t200.5 167.5z" />
    <glyph glyph-name="tilde" unicode="&#x2dc;" horiz-adv-x="491" 
d="M256 1372q52 0 134 -41t124 -41q34 0 64 22t45 60l39 -16q-21 -49 -60.5 -79t-87.5 -30q-50 0 -132 41t-126 41q-34 0 -62.5 -22t-43.5 -60l-39 15q19 48 59 79t86 31z" />
    <glyph glyph-name="hungarumlaut" unicode="&#x2dd;" horiz-adv-x="491" 
d="M813 1425l-303 -260l-25 31l299 264zM477 1425l-303 -260l-27 31l299 264z" />
    <glyph glyph-name="commaaccent" unicode="&#x326;" horiz-adv-x="491" 
d="M68 -252q0 25 16 41t41 16t39 -18.5t14 -50.5q0 -79 -58 -161t-153 -138l-18 31q161 101 178 239q-25 -6 -42 5.5t-17 35.5z" />
    <glyph glyph-name="uni0374" unicode="&#x374;" horiz-adv-x="491" 
d="M541 1370l-246 -397l-35 18l234 402z" />
    <glyph glyph-name="uni0375" unicode="&#x375;" horiz-adv-x="491" 
d="M-72 -326l244 398l35 -21l-234 -401z" />
    <glyph glyph-name="uni037E" unicode="&#x37e;" horiz-adv-x="497" 
d="M111 33q0 28 18.5 46.5t46.5 18.5q26 0 41.5 -19.5t15.5 -53.5q0 -98 -64.5 -195t-172.5 -158l-21 31q191 123 203 285q-26 -7 -46.5 6.5t-20.5 38.5zM272 936q0 28 19 46.5t47 18.5q22 0 35.5 -14.5t13.5 -36.5q0 -26 -18.5 -44.5t-46.5 -18.5q-22 0 -36 13.5t-14 35.5z
" />
    <glyph glyph-name="tonos" unicode="&#x384;" horiz-adv-x="491" 
d="M549 1473l-187 -326l-34 18l178 328z" />
    <glyph glyph-name="dieresistonos" unicode="&#x385;" horiz-adv-x="491" 
d="M514 1473l-186 -326l-31 16l176 330zM555 1303q0 25 17 41t42 16q19 0 31 -12t12 -31q0 -25 -16.5 -42.5t-40.5 -17.5q-20 0 -32.5 13t-12.5 33zM111 1303q0 25 17 41t42 16q19 0 31 -12t12 -31q0 -25 -16.5 -42.5t-40.5 -17.5q-20 0 -32.5 13t-12.5 33z" />
    <glyph glyph-name="Alphatonos" unicode="&#x386;" horiz-adv-x="1366" 
d="M25 0l806 1376h50l317 -1376h-49l-100 434h-713l-254 -434h-57zM848 1311l-488 -832h678zM451 1372l-187 -325l-35 18l179 328z" />
    <glyph glyph-name="anoteleia" unicode="&#x387;" horiz-adv-x="448" 
d="M176 498q0 28 19 46.5t47 18.5q22 0 35.5 -14.5t13.5 -36.5q0 -26 -19 -44.5t-47 -18.5q-22 0 -35.5 13.5t-13.5 35.5z" />
    <glyph glyph-name="Epsilontonos" unicode="&#x388;" horiz-adv-x="1462" 
d="M418 0l241 1376h797l-8 -45h-746l-106 -604h682l-8 -45h-682l-111 -637h778l-8 -45h-829zM401 1372l-186 -325l-35 18l178 328z" />
    <glyph glyph-name="Etatonos" unicode="&#x389;" horiz-adv-x="1759" 
d="M418 0l241 1376h52l-115 -649h913l115 649h49l-241 -1376h-50l119 682h-913l-119 -682h-51zM401 1372l-186 -325l-35 18l178 328z" />
    <glyph glyph-name="Iotatonos" unicode="&#x38a;" horiz-adv-x="796" 
d="M401 1372l-186 -325l-35 18l178 328zM418 0l241 1376h52l-242 -1376h-51z" />
    <glyph glyph-name="Omicrontonos" unicode="&#x38c;" horiz-adv-x="1726" 
d="M383 524q0 249 94 449.5t261 314t374 113.5q236 0 384.5 -150.5t148.5 -398.5q0 -186 -55.5 -349t-152 -279t-232.5 -182.5t-290 -66.5q-236 0 -384 150.5t-148 398.5zM434 526q0 -230 134 -368t350 -138q192 0 346.5 107.5t241.5 297.5t87 425q0 230 -134.5 368
t-348.5 138q-192 0 -346.5 -107.5t-242 -297.5t-87.5 -425zM401 1372l-186 -325l-35 18l178 328z" />
    <glyph glyph-name="Upsilontonos" unicode="&#x38e;" horiz-adv-x="1533" 
d="M838 0l108 623l-389 753h55l365 -706l567 706h62l-611 -760l-108 -616h-49zM401 1372l-186 -325l-35 18l178 328z" />
    <glyph glyph-name="Omegatonos" unicode="&#x38f;" horiz-adv-x="1757" 
d="M270 0l9 45h419q-130 100 -206 251.5t-76 313.5q0 229 91 410.5t249.5 281t355.5 99.5q243 0 398 -145.5t155 -387.5q0 -265 -142 -480t-399 -343h426l-8 -45h-506l6 39q278 136 425 349.5t147 475.5q0 224 -140.5 358t-363.5 134q-182 0 -328.5 -94.5t-231 -265.5
t-85.5 -386q0 -162 81 -312t222 -259l-6 -39h-492zM401 1372l-186 -325l-35 18l178 328z" />
    <glyph glyph-name="iotadieresistonos" unicode="&#x390;" horiz-adv-x="532" 
d="M328 985l-142 -792q-6 -35 -6 -60q0 -52 34.5 -82.5t90.5 -30.5q15 0 30 2t33 6t25 5l6 -45q-71 -13 -100 -13q-74 0 -121 42t-47 112q0 27 6 64l142 792h49zM485 1473l-186 -326l-31 16l176 330zM526 1303q0 24 17.5 40.5t42.5 16.5q19 0 31 -12t12 -31
q0 -25 -16.5 -42.5t-41.5 -17.5q-20 0 -32.5 13t-12.5 33zM82 1303q0 25 17 41t42 16q19 0 31 -12t12 -31q0 -25 -16.5 -42.5t-40.5 -17.5q-20 0 -32.5 13t-12.5 33z" />
    <glyph glyph-name="Alpha" unicode="&#x391;" horiz-adv-x="1331" 
d="M-10 0l807 1376h49l317 -1376h-49l-100 434h-713l-254 -434h-57zM813 1311l-487 -832h678z" />
    <glyph glyph-name="Beta" unicode="&#x392;" horiz-adv-x="1296" 
d="M154 0l241 1376h471q154 0 243 -82.5t89 -222.5q0 -137 -72.5 -234.5t-201.5 -131.5q96 -25 151 -106.5t55 -195.5q0 -178 -120 -290.5t-308 -112.5h-548zM324 682l-113 -637h489q168 0 274.5 100t106.5 258q0 128 -75 203.5t-218 75.5h-464zM436 1331l-104 -604h459
q160 0 259 95t99 247q0 122 -76 192t-211 70h-426z" />
    <glyph glyph-name="Gamma" unicode="&#x393;" horiz-adv-x="1067" 
d="M154 0l241 1376h762l-8 -45h-711l-233 -1331h-51z" />
    <glyph glyph-name="Delta" unicode="&#x394;" horiz-adv-x="1331" 
d="M2 0l4 33l791 1343h49l317 -1345l-6 -31h-1155zM813 1311l-745 -1266h1042z" />
    <glyph glyph-name="Epsilon" unicode="&#x395;" horiz-adv-x="1198" 
d="M154 0l241 1376h797l-8 -45h-746l-106 -604h682l-8 -45h-682l-111 -637h778l-8 -45h-829z" />
    <glyph glyph-name="Zeta" unicode="&#x396;" horiz-adv-x="1247" 
d="M41 0l6 35l1124 1296h-872l8 45h944l-6 -35l-1124 -1296h921l-8 -45h-993z" />
    <glyph glyph-name="Eta" unicode="&#x397;" horiz-adv-x="1495" 
d="M154 0l241 1376h51l-114 -649h913l115 649h49l-242 -1376h-49l119 682h-913l-119 -682h-51z" />
    <glyph glyph-name="Theta" unicode="&#x398;" horiz-adv-x="1495" 
d="M152 524q0 249 94 449.5t261 314t374 113.5q236 0 384 -150.5t148 -398.5q0 -249 -94.5 -449.5t-261.5 -314t-373 -113.5q-236 0 -384 150.5t-148 398.5zM201 526q0 -229 134.5 -365t350.5 -136q192 0 346.5 106t242 295t87.5 424q0 230 -134.5 368t-348.5 138
q-193 0 -348 -107.5t-242.5 -297.5t-87.5 -425zM463 674l8 45h633l-8 -45h-633z" />
    <glyph glyph-name="Iota" unicode="&#x399;" horiz-adv-x="530" 
d="M154 0l241 1376h51l-241 -1376h-51z" />
    <glyph glyph-name="Kappa" unicode="&#x39a;" horiz-adv-x="1300" 
d="M154 0l241 1376h49l-139 -790l944 790h72l-764 -639l549 -737h-59l-527 707l-225 -189l-92 -518h-49z" />
    <glyph glyph-name="Lambda" unicode="&#x39b;" horiz-adv-x="1331" 
d="M-10 0l807 1376h49l317 -1376h-51l-299 1309l-766 -1309h-57z" />
    <glyph glyph-name="Mu" unicode="&#x39c;" horiz-adv-x="1675" 
d="M154 0l241 1376h54l405 -768l682 768h53l-241 -1376h-48l230 1303l-664 -752h-35l-399 756l-229 -1307h-49z" />
    <glyph glyph-name="Nu" unicode="&#x39d;" horiz-adv-x="1495" 
d="M154 0l241 1376h49l689 -1300l229 1300h47l-242 -1376h-49l-686 1300l-229 -1300h-49z" />
    <glyph glyph-name="Xi" unicode="&#x39e;" horiz-adv-x="1247" 
d="M41 0l10 45h991l-8 -45h-993zM260 682l8 45h795l-8 -45h-795zM307 1331l8 45h928l-8 -45h-928z" />
    <glyph glyph-name="Omicron" unicode="&#x39f;" horiz-adv-x="1495" 
d="M152 524q0 249 94 449.5t261 314t374 113.5q236 0 384 -150.5t148 -398.5q0 -249 -94.5 -449.5t-261.5 -314t-373 -113.5q-236 0 -384 150.5t-148 398.5zM203 526q0 -230 133.5 -368t349.5 -138q192 0 346.5 107.5t242 297.5t87.5 425q0 230 -134.5 368t-348.5 138
q-192 0 -346.5 -107.5t-242 -297.5t-87.5 -425z" />
    <glyph glyph-name="Pi" unicode="&#x3a0;" horiz-adv-x="1495" 
d="M154 0l241 1376h1014l-242 -1376h-49l234 1331h-914l-233 -1331h-51z" />
    <glyph glyph-name="Rho" unicode="&#x3a1;" horiz-adv-x="1230" 
d="M154 0l241 1376h430q175 0 278 -98t103 -264q0 -197 -135 -323t-346 -126h-422l-100 -565h-49zM436 1331l-125 -719h414q191 0 311.5 111.5t120.5 288.5q0 148 -90.5 233.5t-247.5 85.5h-383z" />
    <glyph glyph-name="Sigma" unicode="&#x3a3;" horiz-adv-x="1198" 
d="M57 0l6 39l691 670l-437 628l7 39h911l-8 -45h-846l424 -610l-6 -33l-662 -643h889l-8 -45h-961z" />
    <glyph glyph-name="Tau" unicode="&#x3a4;" horiz-adv-x="1198" 
d="M487 0l234 1331h-510l8 45h1069l-8 -45h-510l-233 -1331h-50z" />
    <glyph glyph-name="Upsilon" unicode="&#x3a5;" horiz-adv-x="1169" 
d="M473 0l109 623l-389 753h55l364 -706l568 706h61l-610 -760l-109 -616h-49z" />
    <glyph glyph-name="Phi" unicode="&#x3a6;" horiz-adv-x="1513" 
d="M635 -66l39 230q-253 9 -391 131.5t-138 335.5q0 173 91.5 314t257 222t372.5 82l35 193h47l-35 -197q254 -9 391.5 -131.5t137.5 -335.5q0 -173 -91 -314t-256 -222t-372 -82l-41 -226h-47zM195 633q0 -195 126 -305t361 -119l176 993q-191 0 -343 -74.5t-236 -204
t-84 -290.5zM1395 776q0 195 -127.5 305t-362.5 119l-174 -995q191 1 343.5 76t236.5 205t84 290z" />
    <glyph glyph-name="Chi" unicode="&#x3a7;" horiz-adv-x="1331" 
d="M20 0l654 709l-391 667h57l371 -633l575 633h68l-621 -676l412 -700h-58l-391 666l-606 -666h-70z" />
    <glyph glyph-name="Psi" unicode="&#x3a8;" horiz-adv-x="1593" 
d="M678 0l65 377q-234 12 -367.5 154.5t-133.5 367.5q0 66 10 117l63 360h47l-63 -360q-10 -65 -10 -115q0 -206 123 -336.5t340 -142.5l168 954h49l-168 -954q279 0 448.5 128t212.5 370l80 456h47l-80 -458q-46 -261 -229.5 -401t-486.5 -140l-66 -377h-49z" />
    <glyph glyph-name="Omega" unicode="&#x3a9;" horiz-adv-x="1527" 
d="M41 0l8 45h420q-130 101 -206.5 252t-76.5 313q0 172 53.5 320t146 251t221.5 161.5t276 58.5q243 0 398 -145.5t155 -387.5q0 -265 -142 -480t-399 -343h426l-8 -45h-506l6 39q278 136 424.5 349t146.5 476q0 224 -140 358t-363 134q-182 0 -328.5 -94.5t-231 -265.5
t-85.5 -386q0 -162 81 -312t222 -259l-7 -39h-491z" />
    <glyph glyph-name="Iotadieresis" unicode="&#x3aa;" horiz-adv-x="530" 
d="M154 0l241 1376h51l-241 -1376h-51zM621 1694q0 25 16 42t41 17q20 0 32.5 -13t12.5 -32q0 -25 -16.5 -42t-42.5 -17q-19 0 -31 12.5t-12 32.5zM221 1694q0 25 17.5 42t42.5 17q20 0 32.5 -13t12.5 -32q0 -25 -17.5 -42t-42.5 -17q-19 0 -32 12.5t-13 32.5z" />
    <glyph glyph-name="Upsilondieresis" unicode="&#x3ab;" horiz-adv-x="1169" 
d="M473 0l109 623l-389 753h55l364 -706l568 706h61l-610 -760l-109 -616h-49zM924 1694q0 25 16 42t41 17q20 0 32.5 -13t12.5 -32q0 -25 -16.5 -42t-42.5 -17q-19 0 -31 12.5t-12 32.5zM524 1694q0 25 17.5 42t42.5 17q20 0 32.5 -13t12.5 -32q0 -25 -17.5 -42t-42.5 -17
q-19 0 -32 12.5t-13 32.5z" />
    <glyph glyph-name="alphatonos" unicode="&#x3ac;" horiz-adv-x="1265" 
d="M121 362q0 283 132 465.5t337 182.5q141 0 230 -110.5t116 -330.5l221 416h51l-260 -496q18 -194 37.5 -292.5t47 -137.5t75.5 -39q10 0 45 5l4 -45q-40 -5 -53 -5q-61 0 -94 35t-55 126.5t-42 281.5q-116 -236 -222.5 -339.5t-235.5 -103.5q-152 0 -243 106t-91 281z
M168 365q0 -157 79 -251t212 -94q120 0 221 109t221 367q-27 243 -103.5 355t-207.5 112q-185 0 -303.5 -168t-118.5 -430zM952 1473l-186 -326l-35 18l178 328z" />
    <glyph glyph-name="epsilontonos" unicode="&#x3ad;" horiz-adv-x="839" 
d="M553 526l-8 -43h-80q-157 0 -253.5 -71t-96.5 -187q0 -93 74 -150t188 -57q148 0 313 74l17 -43q-174 -74 -334 -74q-134 0 -219.5 68.5t-85.5 179.5q0 105 80.5 186.5t199.5 98.5q-74 23 -121 84t-47 137q0 125 92 203t240 78q149 0 317 -84l-20 -41q-160 80 -295 80
q-128 0 -206.5 -65.5t-78.5 -172.5q0 -89 70.5 -145t183.5 -56h70zM756 1473l-187 -326l-34 18l178 328z" />
    <glyph glyph-name="etatonos" unicode="&#x3ae;" horiz-adv-x="1153" 
d="M139 0l148 842q4 28 4 41q0 37 -24.5 58.5t-67.5 21.5q-25 0 -60 -7l-6 45q37 9 72 9q60 0 96.5 -34t36.5 -91q0 -13 -4 -41l-10 -58q62 105 163 164.5t218 59.5q135 0 220 -80t85 -209q0 -41 -11 -109l-184 -1038h-49l184 1038q11 64 11 105q0 112 -73 179t-192 67
q-148 0 -261.5 -105.5t-141.5 -269.5l-105 -588h-49zM879 1473l-187 -326l-35 18l179 328z" />
    <glyph glyph-name="iotatonos" unicode="&#x3af;" horiz-adv-x="532" 
d="M328 985l-142 -792q-6 -35 -6 -60q0 -52 34.5 -82.5t90.5 -30.5q15 0 30 2t33 6t25 5l6 -45q-71 -13 -100 -13q-74 0 -121 42t-47 112q0 27 6 64l142 792h49zM520 1473l-186 -326l-35 18l178 328z" />
    <glyph glyph-name="upsilondieresistonos" unicode="&#x3b0;" horiz-adv-x="1120" 
d="M924 985h49q33 -162 33 -291q0 -207 -64.5 -371.5t-180.5 -256t-263 -91.5q-157 0 -254 102t-97 253q0 100 49.5 265.5t49.5 258.5q0 74 -8 131h49q8 -55 8 -131q0 -83 -24.5 -175t-49 -181t-24.5 -166q0 -134 82.5 -223t220.5 -89q199 0 327.5 189.5t128.5 482.5
q0 136 -32 293zM795 1473l-187 -326l-30 16l176 330zM836 1303q0 25 17 41t42 16q19 0 31 -12t12 -31q0 -25 -16.5 -42.5t-40.5 -17.5q-20 0 -32.5 13t-12.5 33zM391 1303q0 24 17.5 40.5t42.5 16.5q19 0 31 -12t12 -31q0 -25 -16.5 -42.5t-41.5 -17.5q-20 0 -32.5 13
t-12.5 33z" />
    <glyph glyph-name="alpha" unicode="&#x3b1;" horiz-adv-x="1265" 
d="M121 362q0 283 132 465.5t337 182.5q141 0 230 -110.5t116 -330.5l221 416h51l-260 -496q18 -194 37.5 -292.5t47 -137.5t75.5 -39q10 0 45 5l4 -45q-40 -5 -53 -5q-61 0 -94 35t-55 126.5t-42 281.5q-116 -236 -222.5 -339.5t-235.5 -103.5q-152 0 -243 106t-91 281z
M168 365q0 -157 79 -251t212 -94q120 0 221 109t221 367q-27 243 -103.5 355t-207.5 112q-185 0 -303.5 -168t-118.5 -430z" />
    <glyph glyph-name="beta" unicode="&#x3b2;" horiz-adv-x="1103" 
d="M33 -426l264 1503q32 178 154 283.5t292 105.5q150 0 239 -87t89 -234q0 -138 -97.5 -255.5t-225.5 -137.5q113 -32 178 -119.5t65 -204.5q0 -122 -56 -225.5t-157.5 -165.5t-226.5 -62q-127 0 -226.5 74t-125.5 189l-119 -664h-47zM506 731l8 45h117q160 0 275.5 108
t115.5 259q0 129 -76 203.5t-205 74.5q-150 0 -258.5 -93.5t-136.5 -248.5l-115 -649q-8 -47 -8 -98q2 -129 95 -220.5t231 -91.5q169 0 282 120.5t113 287.5q0 132 -93 217.5t-239 85.5h-106z" />
    <glyph glyph-name="gamma" unicode="&#x3b3;" horiz-adv-x="1005" 
d="M924 985h49q-79 -530 -547 -983l-78 -428h-49l78 426l-213 985h51l199 -928q219 219 343 445.5t167 482.5z" />
    <glyph glyph-name="delta" unicode="&#x3b4;" horiz-adv-x="1021" 
d="M76 346q0 178 122 323.5t345 245.5q-160 123 -160 275q0 119 89 197.5t220 78.5q145 0 307 -90l-20 -41q-149 86 -285 86q-112 0 -188 -64.5t-76 -164.5q0 -60 27 -111.5t70 -91.5t95 -78.5t104 -81t95 -90.5t70 -115.5t27 -146.5q0 -107 -38 -201t-102.5 -159.5
t-152.5 -103.5t-185 -38q-155 0 -259.5 107.5t-104.5 263.5zM123 348q-2 -137 91 -232.5t228 -95.5q178 0 301.5 129.5t126.5 325.5q1 114 -71.5 213t-220.5 195q-223 -94 -338 -231.5t-117 -303.5z" />
    <glyph glyph-name="epsilon" unicode="&#x3b5;" horiz-adv-x="839" 
d="M553 526l-8 -43h-80q-157 0 -253.5 -71t-96.5 -187q0 -93 74 -150t188 -57q148 0 313 74l17 -43q-174 -74 -334 -74q-134 0 -219.5 68.5t-85.5 179.5q0 105 80.5 186.5t199.5 98.5q-74 23 -121 84t-47 137q0 125 92 203t240 78q149 0 317 -84l-20 -41q-160 80 -295 80
q-128 0 -206.5 -65.5t-78.5 -172.5q0 -89 70.5 -145t183.5 -56h70z" />
    <glyph glyph-name="zeta" unicode="&#x3b6;" horiz-adv-x="872" 
d="M993 1442l-8 -39q-212 -176 -357.5 -309.5t-259.5 -259.5t-168.5 -229t-54.5 -191q0 -128 97.5 -212.5t314.5 -142.5q174 -46 174 -184q0 -85 -69 -217l-44 16q66 126 66 195q0 55 -35.5 90t-109.5 57q-231 65 -337 158t-106 236q0 75 36 159.5t99.5 171t168.5 194.5
t223 215t284 247h-604l8 45h682z" />
    <glyph glyph-name="eta" unicode="&#x3b7;" horiz-adv-x="1153" 
d="M139 0l148 842q4 28 4 41q0 37 -24.5 58.5t-67.5 21.5q-25 0 -60 -7l-6 45q37 9 72 9q60 0 96.5 -34t36.5 -91q0 -13 -4 -41l-10 -58q62 105 163 164.5t218 59.5q135 0 220 -80t85 -209q0 -41 -11 -109l-184 -1038h-49l184 1038q11 64 11 105q0 112 -73 179t-192 67
q-148 0 -261.5 -105.5t-141.5 -269.5l-105 -588h-49z" />
    <glyph glyph-name="theta" unicode="&#x3b8;" horiz-adv-x="1120" 
d="M152 483q0 266 71 491t198 358.5t281 133.5q166 0 256.5 -132t90.5 -376q0 -266 -71.5 -491.5t-198.5 -358.5t-281 -133q-165 0 -255.5 132t-90.5 376zM201 485q0 -226 76.5 -345.5t222.5 -119.5q117 0 218.5 91t169 248t95.5 356h-766q-16 -99 -16 -230zM702 1421
q-114 0 -213.5 -87t-167.5 -236t-100 -338h768q12 99 12 201q-2 224 -78 342t-221 118z" />
    <glyph glyph-name="iota" unicode="&#x3b9;" horiz-adv-x="532" 
d="M328 985l-142 -792q-6 -35 -6 -60q0 -52 34.5 -82.5t90.5 -30.5q15 0 30 2t33 6t25 5l6 -45q-71 -13 -100 -13q-74 0 -121 42t-47 112q0 27 6 64l142 792h49z" />
    <glyph glyph-name="kappa" unicode="&#x3ba;" horiz-adv-x="1007" 
d="M106 0l173 985h47l-101 -569l281 254q136 125 234.5 200.5t215.5 133.5l17 -46q-78 -37 -155.5 -90.5t-127 -95t-153.5 -133.5l-131 -119l405 -520h-57l-385 489l-156 -145l-59 -344h-48z" />
    <glyph glyph-name="lambda" unicode="&#x3bb;" horiz-adv-x="1005" 
d="M-10 0l577 981l-53 227q-29 122 -71 167.5t-119 45.5q-54 0 -107 -12l-8 45q65 12 119 12q94 0 148.5 -55.5t84.5 -189.5l281 -1221h-49l-211 918l-537 -918h-55z" />
    <glyph glyph-name="mu" unicode="&#x3bc;" horiz-adv-x="1169" 
d="M1030 985l-147 -842q-4 -28 -4 -41q0 -37 24.5 -58t67.5 -21q29 0 59 6l6 -45q-38 -9 -71 -9q-60 0 -97 34t-37 91q0 6 5 41l12 68q-59 -107 -161.5 -170.5t-217.5 -63.5q-106 0 -182.5 50.5t-102.5 138.5l-104 -590h-49l248 1411h49l-109 -612q-10 -62 -10 -105
q0 -112 72.5 -178.5t191.5 -66.5q148 0 262 104t142 268l104 590h49z" />
    <glyph glyph-name="nu" unicode="&#x3bd;" horiz-adv-x="1005" 
d="M924 985h49q-79 -533 -549 -985h-47l-213 985h51l199 -928q219 219 343 445.5t167 482.5z" />
    <glyph glyph-name="xi" unicode="&#x3be;" horiz-adv-x="872" 
d="M944 1442l-8 -43h-121q-203 0 -345 -100t-142 -244q0 -116 82.5 -189t220.5 -73h90l-8 -45h-99q-210 0 -339.5 -96.5t-129.5 -256.5q0 -119 98.5 -199t313.5 -137q174 -46 174 -184q0 -82 -69 -217l-44 16q66 126 66 195q0 55 -35.5 90t-109.5 57q-230 64 -336.5 152.5
t-106.5 224.5q0 152 100.5 251t282.5 130q-200 79 -200 279q0 114 85 209.5t226 136.5h-285l6 43h633z" />
    <glyph glyph-name="omicron" unicode="&#x3bf;" horiz-adv-x="1120" 
d="M104 379q0 179 68 323t189.5 226t271.5 82q170 0 276.5 -112t106.5 -292q0 -179 -68 -323t-190 -226t-273 -82q-169 0 -275 112t-106 292zM154 379q0 -160 92 -259.5t241 -99.5q137 0 247 75.5t171.5 209t61.5 299.5q0 161 -92.5 261t-241.5 100q-138 0 -247.5 -75.5
t-170.5 -209.5t-61 -301z" />
    <glyph glyph-name="pi" unicode="&#x3c0;" horiz-adv-x="1251" 
d="M1241 985l-8 -45h-219l-135 -776q-7 -31 -7 -47q0 -44 29 -70.5t78 -26.5q26 0 72 11l6 -45q-53 -11 -84 -11q-67 0 -108.5 38t-41.5 100q0 22 6 49l138 778h-559l-164 -940h-47l163 940h-219l9 45h1091z" />
    <glyph glyph-name="rho" unicode="&#x3c1;" horiz-adv-x="1120" 
d="M12 -426l174 981q37 212 163 333.5t308 121.5q161 0 260 -112.5t99 -291.5q0 -177 -66.5 -322t-181.5 -227t-254 -82q-131 0 -220.5 65.5t-117.5 180.5l-115 -647h-49zM967 604q0 162 -85.5 261.5t-226.5 99.5q-163 0 -274 -108t-145 -300l-27 -145q-10 -48 -10 -95
q0 -134 88.5 -215.5t224.5 -81.5q125 0 229.5 76t165 210.5t60.5 297.5z" />
    <glyph glyph-name="sigma1" unicode="&#x3c2;" horiz-adv-x="935" 
d="M106 426q0 160 67 294t186.5 212t265.5 78q149 0 286 -76l-24 -39q-124 70 -262 70q-132 0 -239.5 -71.5t-167.5 -194.5t-60 -271q0 -133 93.5 -227.5t272.5 -141.5q174 -46 174 -184q0 -85 -69 -217l-43 16q65 124 65 195q0 55 -35.5 90t-109.5 57q-197 56 -298.5 160
t-101.5 250z" />
    <glyph glyph-name="sigma" unicode="&#x3c3;" horiz-adv-x="1185" 
d="M104 362q0 283 149.5 453t399.5 170h572l-8 -45h-299q63 -171 63 -350q0 -174 -65 -314.5t-181.5 -220.5t-261.5 -80q-163 0 -266 108.5t-103 278.5zM154 365q0 -153 89.5 -249t233.5 -96q130 0 234 73.5t162.5 204t58.5 292.5q0 163 -68 350h-211q-228 0 -363.5 -156.5
t-135.5 -418.5z" />
    <glyph glyph-name="tau" unicode="&#x3c4;" horiz-adv-x="919" 
d="M926 985l-8 -45h-379l-133 -747q-7 -40 -7 -60q0 -52 34.5 -82.5t90.5 -30.5q15 0 30 2t32 6t24 5l8 -45q-72 -13 -100 -13q-74 0 -121 42t-47 112q0 27 6 64l133 747h-348l9 45h776z" />
    <glyph glyph-name="upsilon" unicode="&#x3c5;" horiz-adv-x="1120" 
d="M924 985h49q33 -162 33 -291q0 -207 -64.5 -371.5t-180.5 -256t-263 -91.5q-157 0 -254 102t-97 253q0 100 49.5 265.5t49.5 258.5q0 74 -8 131h49q8 -55 8 -131q0 -83 -24.5 -175t-49 -181t-24.5 -166q0 -134 82.5 -223t220.5 -89q199 0 327.5 189.5t128.5 482.5
q0 136 -32 293z" />
    <glyph glyph-name="phi" unicode="&#x3c6;" horiz-adv-x="1335" 
d="M475 -426l72 403q-205 13 -324 131.5t-119 303.5q0 262 173 429t450 167l76 434h47l-78 -436q206 -10 332.5 -130.5t126.5 -302.5q0 -172 -82 -308t-228 -212.5t-329 -77.5l-72 -401h-45zM152 414q0 -165 108.5 -271.5t294.5 -119.5l164 942q-167 -1 -296 -71t-200 -195
t-71 -285zM1184 571q0 164 -116 271t-304 119l-164 -941q253 2 418.5 156.5t165.5 394.5z" />
    <glyph glyph-name="chi" unicode="&#x3c7;" horiz-adv-x="1036" 
d="M1073 985l-538 -696l86 -412q32 -153 76.5 -218t119.5 -65q32 0 82 13l8 -45q-54 -13 -94 -13q-91 0 -145 69.5t-88 231.5l-82 396l-527 -672h-59l569 729l-78 379q-32 153 -76.5 218t-119.5 65q-32 0 -82 -13l-8 45q54 13 94 13q91 0 145 -69.5t88 -231.5l74 -363
l498 639h57z" />
    <glyph glyph-name="psi" unicode="&#x3c8;" horiz-adv-x="1429" 
d="M530 -426l70 403q-204 17 -320 128t-116 288q0 92 42 234t42 227q0 56 -10 131h47q10 -75 10 -131q0 -92 -42 -234t-42 -225q0 -163 102.5 -260t294.5 -112l223 1257h46l-222 -1260q179 5 319 97t216 247t76 345q0 105 -29 276h45q31 -164 31 -274q0 -205 -82.5 -370.5
t-235.5 -263t-350 -102.5l-70 -401h-45z" />
    <glyph glyph-name="omega" unicode="&#x3c9;" horiz-adv-x="1544" 
d="M834 723l-43 -260q-11 -70 -11 -162q0 -136 64 -208.5t170 -72.5q151 0 252.5 161.5t101.5 406.5q0 183 -84 397h53q78 -212 78 -395q0 -174 -52.5 -315t-144.5 -220.5t-204 -79.5q-127 0 -200 83t-75 229q-90 -312 -348 -312q-123 0 -198.5 99.5t-75.5 255.5
q0 354 221 655h55q-229 -316 -229 -653q0 -138 64 -225t167 -87q271 0 348 451l43 252h48z" />
    <glyph glyph-name="iotadieresis" unicode="&#x3ca;" horiz-adv-x="532" 
d="M328 985l-142 -792q-6 -35 -6 -60q0 -52 34.5 -82.5t90.5 -30.5q15 0 30 2t33 6t25 5l6 -45q-71 -13 -100 -13q-74 0 -121 42t-47 112q0 27 6 64l142 792h49zM504 1303q0 25 16 42t41 17q20 0 32.5 -13t12.5 -32q0 -25 -16.5 -42.5t-42.5 -17.5q-19 0 -31 13t-12 33z
M104 1303q0 25 17.5 42t42.5 17q20 0 32.5 -13t12.5 -32q0 -25 -17 -42.5t-42 -17.5q-19 0 -32.5 13t-13.5 33z" />
    <glyph glyph-name="upsilondieresis" unicode="&#x3cb;" horiz-adv-x="1120" 
d="M924 985h49q33 -162 33 -291q0 -207 -64.5 -371.5t-180.5 -256t-263 -91.5q-157 0 -254 102t-97 253q0 100 49.5 265.5t49.5 258.5q0 74 -8 131h49q8 -55 8 -131q0 -83 -24.5 -175t-49 -181t-24.5 -166q0 -134 82.5 -223t220.5 -89q199 0 327.5 189.5t128.5 482.5
q0 136 -32 293zM813 1303q0 25 16 42t41 17q20 0 32.5 -13t12.5 -32q0 -25 -16.5 -42.5t-42.5 -17.5q-19 0 -31 13t-12 33zM414 1303q0 25 17 42t42 17q20 0 32.5 -13t12.5 -32q0 -25 -17 -42.5t-42 -17.5q-19 0 -32 13t-13 33z" />
    <glyph glyph-name="omicrontonos" unicode="&#x3cc;" horiz-adv-x="1120" 
d="M104 379q0 179 68 323t189.5 226t271.5 82q170 0 276.5 -112t106.5 -292q0 -179 -68 -323t-190 -226t-273 -82q-169 0 -275 112t-106 292zM154 379q0 -160 92 -259.5t241 -99.5q137 0 247 75.5t171.5 209t61.5 299.5q0 161 -92.5 261t-241.5 100q-138 0 -247.5 -75.5
t-170.5 -209.5t-61 -301zM862 1473l-186 -326l-35 18l178 328z" />
    <glyph glyph-name="upsilontonos" unicode="&#x3cd;" horiz-adv-x="1120" 
d="M924 985h49q33 -162 33 -291q0 -207 -64.5 -371.5t-180.5 -256t-263 -91.5q-157 0 -254 102t-97 253q0 100 49.5 265.5t49.5 258.5q0 74 -8 131h49q8 -55 8 -131q0 -83 -24.5 -175t-49 -181t-24.5 -166q0 -134 82.5 -223t220.5 -89q199 0 327.5 189.5t128.5 482.5
q0 136 -32 293zM829 1473l-186 -326l-35 18l178 328z" />
    <glyph glyph-name="omegatonos" unicode="&#x3ce;" horiz-adv-x="1544" 
d="M834 723l-43 -260q-11 -70 -11 -162q0 -136 64 -208.5t170 -72.5q151 0 252.5 161.5t101.5 406.5q0 183 -84 397h53q78 -212 78 -395q0 -174 -52.5 -315t-144.5 -220.5t-204 -79.5q-127 0 -200 83t-75 229q-90 -312 -348 -312q-123 0 -198.5 99.5t-75.5 255.5
q0 354 221 655h55q-229 -316 -229 -653q0 -138 64 -225t167 -87q271 0 348 451l43 252h48zM1075 1473l-186 -326l-35 18l178 328z" />
    <glyph glyph-name="uni03D0" unicode="&#x3d0;" horiz-adv-x="1021" 
d="M139 524q0 255 77.5 471t214.5 343.5t304 127.5q117 0 189.5 -74.5t72.5 -197.5q0 -103 -52 -199t-142 -157q119 -137 119 -342q0 -142 -54.5 -261.5t-152.5 -189.5t-217 -70q-164 0 -261.5 143t-97.5 406zM950 1190q1 104 -59.5 167.5t-157.5 63.5q-127 0 -237.5 -88.5
t-183 -237t-103.5 -333.5q51 -10 125 -10q276 0 445 121t171 317zM874 494q0 192 -110 317q-187 -104 -432 -104q-75 0 -129 10q-15 -95 -15 -193q0 -245 84.5 -374.5t227.5 -129.5q158 0 266 138.5t108 335.5z" />
    <glyph glyph-name="theta1" unicode="&#x3d1;" horiz-adv-x="1251" 
d="M1266 760l-6 -45h-181q-62 -349 -200.5 -544.5t-313.5 -195.5q-75 0 -130 21t-86.5 56t-51.5 80.5t-29 95.5t-15.5 100.5t-15 96t-23 80.5t-43.5 56t-73 21q-22 0 -75 -11l-7 41q58 15 86 15q59 0 97.5 -26t54.5 -69t27 -97.5t15.5 -111t20.5 -111t41 -97.5t77.5 -69
t129.5 -26q153 0 280 183t187 512h-78q-250 0 -391 110.5t-141 298.5q0 141 94.5 241.5t235.5 100.5q165 0 261.5 -131t96.5 -352q0 -85 -23 -223h179zM471 1126q0 -169 128.5 -267.5t358.5 -98.5h82q21 155 21 223q0 197 -84.5 317.5t-224.5 120.5q-121 0 -201 -86.5
t-80 -208.5z" />
    <glyph glyph-name="phi1" unicode="&#x3d5;" horiz-adv-x="1400" 
d="M150 414q0 -162 113 -269.5t296 -121.5l121 679q25 138 111.5 223t203.5 85q128 0 206.5 -93.5t78.5 -246.5q0 -192 -88.5 -349.5t-244.5 -249t-349 -96.5l-70 -401h-47l70 403q-197 14 -322 134t-125 301q0 363 316 589l22 -38q-292 -214 -292 -549zM1233 670
q0 134 -65.5 214.5t-174.5 80.5q-97 0 -171.5 -73.5t-94.5 -191.5l-121 -680q177 5 320.5 91t225 233.5t81.5 325.5z" />
    <glyph glyph-name="uni0400" unicode="&#x400;" horiz-adv-x="1198" 
d="M154 0l241 1376h797l-8 -45h-746l-106 -604h682l-8 -45h-682l-111 -637h778l-8 -45h-829zM604 1806l295 -215l-22 -30l-299 206z" />
    <glyph glyph-name="afii10023" unicode="&#x401;" horiz-adv-x="1198" 
d="M154 0l241 1376h797l-8 -45h-746l-106 -604h682l-8 -45h-682l-111 -637h778l-8 -45h-829zM971 1694q0 25 16 42t41 17q20 0 32.5 -13t12.5 -32q0 -25 -16.5 -42t-42.5 -17q-19 0 -31 12.5t-12 32.5zM571 1694q0 25 17.5 42t42.5 17q20 0 32.5 -13t12.5 -32
q0 -25 -17.5 -42t-42.5 -17q-19 0 -32 12.5t-13 32.5z" />
    <glyph glyph-name="afii10051" unicode="&#x402;" horiz-adv-x="1689" 
d="M455 0l233 1331h-477l8 45h1069l-8 -45h-543l-108 -629q265 58 477 58t333.5 -95t121.5 -259q0 -183 -145.5 -307t-360.5 -124q-129 0 -287 50l16 43q128 -48 271 -48q193 0 323.5 110t130.5 273q0 146 -107.5 228t-299.5 82q-212 0 -481 -56l-117 -657h-49z" />
    <glyph glyph-name="afii10052" unicode="&#x403;" horiz-adv-x="1067" 
d="M154 0l241 1376h762l-8 -45h-711l-233 -1331h-51zM1067 1763l-340 -202l-20 32l335 211z" />
    <glyph glyph-name="afii10053" unicode="&#x404;" horiz-adv-x="1312" 
d="M152 524q0 187 53 348.5t147.5 278.5t232.5 183.5t302 66.5q110 0 220.5 -36t203.5 -103l-27 -39q-189 133 -395 133q-264 0 -443 -172.5t-227 -456.5h809l-8 -45h-809q-10 -85 -10 -158q1 -224 139.5 -364t355.5 -140q222 0 404 117l22 -37q-195 -125 -428 -125
q-239 0 -390.5 152.5t-151.5 396.5z" />
    <glyph glyph-name="afii10054" unicode="&#x405;" horiz-adv-x="1148" 
d="M242 1040q0 155 123.5 258t312.5 103q218 0 455 -111l-21 -43q-230 109 -434 109q-168 0 -277.5 -90t-109.5 -226q0 -60 24 -108.5t64.5 -82t92.5 -62t110 -53l116 -49t110 -56t92.5 -69.5t64.5 -93t24 -123q0 -164 -124 -266.5t-318 -102.5q-250 0 -490 123l21 43
q242 -121 467 -121q176 0 285.5 89t109.5 235q0 61 -24 110.5t-64.5 84t-92.5 63.5t-110 53.5l-116 49t-110 55.5t-92.5 68t-64.5 91.5t-24 120.5z" />
    <glyph glyph-name="afii10055" unicode="&#x406;" horiz-adv-x="530" 
d="M154 0l241 1376h51l-241 -1376h-51z" />
    <glyph glyph-name="afii10056" unicode="&#x407;" horiz-adv-x="530" 
d="M154 0l241 1376h51l-241 -1376h-51zM621 1694q0 25 16 42t41 17q20 0 32.5 -13t12.5 -32q0 -25 -16.5 -42t-42.5 -17q-19 0 -31 12.5t-12 32.5zM221 1694q0 25 17.5 42t42.5 17q20 0 32.5 -13t12.5 -32q0 -25 -17.5 -42t-42.5 -17q-19 0 -32 12.5t-13 32.5z" />
    <glyph glyph-name="afii10057" unicode="&#x408;" horiz-adv-x="886" 
d="M803 1376l-193 -1091q-25 -143 -119.5 -226.5t-232.5 -83.5q-114 0 -264 58l16 43q144 -56 246 -56q121 0 203 72.5t102 194.5l193 1089h49z" />
    <glyph glyph-name="afii10058" unicode="&#x409;" horiz-adv-x="2263" 
d="M1169 0l234 1331h-787l-176 -1007q-31 -169 -121 -259t-231 -90q-71 0 -147 21l14 45q74 -21 131 -21q122 0 199.5 78t105.5 230l184 1048h883l-104 -600h418q169 0 266.5 -93t97.5 -253q0 -189 -130 -309.5t-333 -120.5h-504zM1346 731l-121 -686h446q185 0 300.5 106.5
t115.5 276.5q0 141 -85 222t-235 81h-421z" />
    <glyph glyph-name="afii10059" unicode="&#x40a;" horiz-adv-x="2213" 
d="M1241 698h-915l-123 -698h-49l241 1376h49l-110 -633h915l113 633h47l-111 -633h437q161 0 254.5 -88.5t93.5 -240.5q0 -182 -125.5 -298t-321.5 -116h-516zM1290 698l-114 -653h458q177 0 288.5 102t111.5 265q0 135 -81 210.5t-222 75.5h-441z" />
    <glyph glyph-name="afii10060" unicode="&#x40b;" horiz-adv-x="1689" 
d="M455 0l233 1331h-477l8 45h1069l-8 -45h-543l-106 -624q273 53 493 53q181 0 290.5 -99t109.5 -266q0 -27 -13 -98l-53 -297h-49l51 295q13 85 13 96q0 146 -97 234t-258 88q-214 0 -495 -51l-119 -662h-49z" />
    <glyph glyph-name="afii10061" unicode="&#x40c;" horiz-adv-x="1300" 
d="M154 0l241 1376h49l-112 -649h223l688 649h64l-713 -674l504 -702h-58l-493 682h-223l-121 -682h-49zM1135 1763l-340 -202l-21 32l336 211z" />
    <glyph glyph-name="uni040D" unicode="&#x40d;" horiz-adv-x="1495" 
d="M154 0l241 1376h49l-229 -1302l1137 1302h57l-242 -1376h-47l228 1303l-1135 -1303h-59zM737 1806l295 -215l-22 -30l-299 206z" />
    <glyph glyph-name="afii10062" unicode="&#x40e;" horiz-adv-x="1263" 
d="M1348 1376l-748 -1175q-73 -115 -153.5 -170.5t-178.5 -55.5q-84 0 -184 33l16 45q104 -33 168 -33q84 0 152 49.5t141 159.5l29 45l-328 1102h49l316 -1046l661 1046h60zM598 1802h43q-15 -93 37 -151t151 -58q95 0 166.5 57.5t91.5 151.5h43q-23 -114 -105 -183
t-196 -69q-106 0 -170.5 56t-64.5 147q0 25 4 49z" />
    <glyph glyph-name="afii10145" unicode="&#x40f;" horiz-adv-x="1495" 
d="M154 0l241 1376h51l-233 -1331h913l234 1331h49l-242 -1376h-481l-63 -360h-50l64 360h-483z" />
    <glyph glyph-name="afii10017" unicode="&#x410;" horiz-adv-x="1331" 
d="M-10 0l807 1376h49l317 -1376h-49l-100 434h-713l-254 -434h-57zM813 1311l-487 -832h678z" />
    <glyph glyph-name="afii10018" unicode="&#x411;" horiz-adv-x="1265" 
d="M154 0l241 1376h813l-8 -45h-764l-100 -573h442q165 0 261 -91t96 -247q0 -185 -126 -302.5t-325 -117.5h-530zM330 713l-121 -668h473q180 0 291.5 104.5t111.5 270.5q0 136 -83 214.5t-230 78.5h-442z" />
    <glyph glyph-name="afii10019" unicode="&#x412;" horiz-adv-x="1296" 
d="M154 0l241 1376h471q154 0 243 -82.5t89 -222.5q0 -137 -72.5 -234.5t-201.5 -131.5q96 -25 151 -106.5t55 -195.5q0 -178 -120 -290.5t-308 -112.5h-548zM324 682l-113 -637h489q168 0 274.5 100t106.5 258q0 128 -75 203.5t-218 75.5h-464zM436 1331l-104 -604h459
q160 0 259 95t99 247q0 122 -76 192t-211 70h-426z" />
    <glyph glyph-name="afii10020" unicode="&#x413;" horiz-adv-x="1067" 
d="M154 0l241 1376h762l-8 -45h-711l-233 -1331h-51z" />
    <glyph glyph-name="afii10021" unicode="&#x414;" horiz-adv-x="1527" 
d="M-72 -360l72 405h115q198 274 278 696l119 635h864l-235 -1331h196l-71 -405h-49l65 360h-1241l-66 -360h-47zM1092 45l227 1286h-766l-111 -592q-84 -425 -268 -694h918z" />
    <glyph glyph-name="afii10022" unicode="&#x415;" horiz-adv-x="1198" 
d="M154 0l241 1376h797l-8 -45h-746l-106 -604h682l-8 -45h-682l-111 -637h778l-8 -45h-829z" />
    <glyph glyph-name="afii10024" unicode="&#x416;" horiz-adv-x="1941" 
d="M866 0l115 680h-213l-659 -680h-70l686 711l-422 665h59l410 -647h217l119 647h47l-115 -647h222l624 647h74l-655 -676l438 -700h-60l-428 680h-223l-117 -680h-49z" />
    <glyph glyph-name="afii10025" unicode="&#x417;" horiz-adv-x="1067" 
d="M385 682l8 45h103q204 0 332 98t128 252q0 124 -85 201.5t-222 77.5q-188 0 -395 -72l-16 43q219 74 415 74q158 0 255.5 -89.5t97.5 -232.5q0 -147 -103 -249.5t-258 -129.5q126 -23 197 -109t71 -212q0 -173 -131.5 -288.5t-328.5 -115.5q-221 0 -463 115l24 43
q238 -113 439 -113q177 0 294 102.5t117 256.5q0 141 -101 222t-284 81h-94z" />
    <glyph glyph-name="afii10026" unicode="&#x418;" horiz-adv-x="1495" 
d="M154 0l241 1376h49l-229 -1302l1137 1302h57l-242 -1376h-47l228 1303l-1135 -1303h-59z" />
    <glyph glyph-name="afii10027" unicode="&#x419;" horiz-adv-x="1495" 
d="M154 0l241 1376h49l-229 -1302l1137 1302h57l-242 -1376h-47l228 1303l-1135 -1303h-59zM713 1802h43q-15 -93 37 -151t151 -58q95 0 166.5 57.5t91.5 151.5h43q-23 -114 -105 -183t-196 -69q-106 0 -170.5 56t-64.5 147q0 25 4 49z" />
    <glyph glyph-name="afii10028" unicode="&#x41a;" horiz-adv-x="1300" 
d="M154 0l241 1376h49l-112 -649h223l688 649h64l-713 -674l504 -702h-58l-493 682h-223l-121 -682h-49z" />
    <glyph glyph-name="afii10029" unicode="&#x41b;" horiz-adv-x="1593" 
d="M1491 1376l-242 -1376h-49l234 1331h-818l-176 -1007q-31 -169 -121 -259t-231 -90q-71 0 -147 21l14 45q74 -21 131 -21q122 0 199.5 78t105.5 230l184 1048h916z" />
    <glyph glyph-name="afii10030" unicode="&#x41c;" horiz-adv-x="1675" 
d="M154 0l241 1376h54l405 -768l682 768h53l-241 -1376h-48l230 1303l-664 -752h-35l-399 756l-229 -1307h-49z" />
    <glyph glyph-name="afii10031" unicode="&#x41d;" horiz-adv-x="1495" 
d="M154 0l241 1376h51l-114 -649h913l115 649h49l-242 -1376h-49l119 682h-913l-119 -682h-51z" />
    <glyph glyph-name="afii10032" unicode="&#x41e;" horiz-adv-x="1495" 
d="M152 524q0 249 94 449.5t261 314t374 113.5q236 0 384 -150.5t148 -398.5q0 -249 -94.5 -449.5t-261.5 -314t-373 -113.5q-236 0 -384 150.5t-148 398.5zM203 526q0 -230 133.5 -368t349.5 -138q192 0 346.5 107.5t242 297.5t87.5 425q0 230 -134.5 368t-348.5 138
q-192 0 -346.5 -107.5t-242 -297.5t-87.5 -425z" />
    <glyph glyph-name="afii10033" unicode="&#x41f;" horiz-adv-x="1495" 
d="M154 0l241 1376h1014l-242 -1376h-49l234 1331h-914l-233 -1331h-51z" />
    <glyph glyph-name="afii10034" unicode="&#x420;" horiz-adv-x="1230" 
d="M154 0l241 1376h430q175 0 278 -98t103 -264q0 -197 -135 -323t-346 -126h-422l-100 -565h-49zM436 1331l-125 -719h414q191 0 311.5 111.5t120.5 288.5q0 148 -90.5 233.5t-247.5 85.5h-383z" />
    <glyph glyph-name="afii10035" unicode="&#x421;" horiz-adv-x="1296" 
d="M152 524q0 187 53 348.5t147.5 278.5t232.5 183.5t302 66.5q110 0 220.5 -36t203.5 -103l-27 -39q-189 133 -395 133q-205 0 -362 -108.5t-240.5 -296.5t-83.5 -425q0 -225 137.5 -365.5t355.5 -140.5q222 0 404 117l22 -37q-195 -125 -428 -125q-239 0 -390.5 152.5
t-151.5 396.5z" />
    <glyph glyph-name="afii10036" unicode="&#x422;" horiz-adv-x="1198" 
d="M487 0l234 1331h-510l8 45h1069l-8 -45h-510l-233 -1331h-50z" />
    <glyph glyph-name="afii10037" unicode="&#x423;" horiz-adv-x="1263" 
d="M1348 1376l-748 -1175q-73 -115 -153.5 -170.5t-178.5 -55.5q-84 0 -184 33l16 45q104 -33 168 -33q84 0 152 49.5t141 159.5l29 45l-328 1102h49l316 -1046l661 1046h60z" />
    <glyph glyph-name="afii10038" unicode="&#x424;" horiz-adv-x="1513" 
d="M635 -66l39 230q-253 9 -391 131.5t-138 335.5q0 173 91.5 314t257 222t372.5 82l35 193h47l-35 -197q254 -9 391.5 -131.5t137.5 -335.5q0 -173 -91 -314t-256 -222t-372 -82l-41 -226h-47zM195 633q0 -195 126 -305t361 -119l176 993q-191 0 -343 -74.5t-236 -204
t-84 -290.5zM1395 776q0 195 -127.5 305t-362.5 119l-174 -995q191 1 343.5 76t236.5 205t84 290z" />
    <glyph glyph-name="afii10039" unicode="&#x425;" horiz-adv-x="1331" 
d="M20 0l654 709l-391 667h57l371 -633l575 633h68l-621 -676l412 -700h-58l-391 666l-606 -666h-70z" />
    <glyph glyph-name="afii10040" unicode="&#x426;" horiz-adv-x="1562" 
d="M154 0l241 1376h51l-233 -1331h913l234 1331h49l-233 -1331h196l-72 -405h-47l64 360h-1163z" />
    <glyph glyph-name="afii10041" unicode="&#x427;" horiz-adv-x="1380" 
d="M1004 0l110 633q-249 -49 -459 -49q-184 0 -298.5 108t-114.5 281q0 50 10 112l47 291h49l-47 -289q-10 -62 -10 -112q0 -155 102.5 -249.5t270.5 -94.5q212 0 458 49l123 696h51l-241 -1376h-51z" />
    <glyph glyph-name="afii10042" unicode="&#x428;" horiz-adv-x="2197" 
d="M154 0l241 1376h51l-233 -1331h782l234 1331h49l-234 -1331h785l233 1331h49l-241 -1376h-1716z" />
    <glyph glyph-name="afii10043" unicode="&#x429;" horiz-adv-x="2263" 
d="M154 0l241 1376h51l-233 -1331h782l234 1331h49l-234 -1331h785l233 1331h49l-233 -1331h182l-71 -405h-50l64 360h-1849z" />
    <glyph glyph-name="afii10044" unicode="&#x42a;" horiz-adv-x="1525" 
d="M211 1331l8 45h488l-105 -600h434q168 0 265.5 -93t97.5 -253q0 -189 -129.5 -309.5t-333.5 -120.5h-520l233 1331h-438zM594 731l-121 -686h463q184 0 299 106.5t115 276.5q0 141 -85 222t-235 81h-436z" />
    <glyph glyph-name="afii10045" unicode="&#x42b;" horiz-adv-x="1796" 
d="M154 0l241 1376h49l-104 -600h434q168 0 265.5 -93t97.5 -253q0 -189 -129.5 -309.5t-333.5 -120.5h-520zM332 731l-121 -686h463q184 0 298.5 106.5t114.5 276.5q0 142 -84.5 222.5t-234.5 80.5h-436zM1417 0l242 1376h51l-242 -1376h-51z" />
    <glyph glyph-name="afii10046" unicode="&#x42c;" horiz-adv-x="1280" 
d="M154 0l241 1376h49l-104 -600h434q168 0 265.5 -93t97.5 -253q0 -189 -129.5 -309.5t-333.5 -120.5h-520zM332 731l-121 -686h463q184 0 298.5 106.5t114.5 276.5q0 142 -84.5 222.5t-234.5 80.5h-436z" />
    <glyph glyph-name="afii10047" unicode="&#x42d;" horiz-adv-x="1312" 
d="M1229 852q0 -250 -90 -449t-258 -313.5t-387 -114.5q-226 0 -424 140l28 39q187 -134 396 -134q176 0 317.5 80.5t230.5 222.5t121 328h-811l10 45h807q11 94 11 158q-1 223 -139.5 362.5t-356.5 139.5q-219 0 -401 -117l-23 37q192 125 428 125q237 0 389 -153t152 -396
z" />
    <glyph glyph-name="afii10048" unicode="&#x42e;" horiz-adv-x="2009" 
d="M154 0l241 1376h51l-114 -649h368q53 300 245.5 487t457.5 187q232 0 378 -150.5t146 -398.5q0 -249 -93 -449.5t-258 -314t-370 -113.5q-229 0 -374 148t-148 393q0 93 8 166h-368l-119 -682h-51zM733 526q0 -230 132 -368t343 -138q190 0 343 107.5t239 297.5t86 425
q0 230 -131.5 368t-343.5 138q-190 0 -343 -107.5t-239 -297.5t-86 -425z" />
    <glyph glyph-name="afii10049" unicode="&#x42f;" horiz-adv-x="1296" 
d="M922 0l104 598h-379l-518 -598h-61l522 604q-143 12 -226 103.5t-83 238.5q0 189 130.5 309.5t331.5 120.5h469l-241 -1376h-49zM1036 645l121 686h-412q-183 0 -298 -107t-115 -276q0 -141 84.5 -222t232.5 -81h387z" />
    <glyph glyph-name="afii10065" unicode="&#x430;" horiz-adv-x="1052" 
d="M74 248q0 152 124.5 241t338.5 89q130 0 268 -33l24 141q7 35 7 66q0 94 -68 153.5t-184 59.5q-149 0 -320 -58l-10 43q174 60 334 60q136 0 215.5 -71t79.5 -185q0 -36 -6 -70l-97 -553q-4 -24 -4 -33q0 -36 26.5 -57t69.5 -21q18 0 58 9l6 -45q-52 -9 -70 -9
q-63 0 -100 32t-37 87q0 15 4 35l12 59q-132 -213 -372 -213q-137 0 -218 75t-81 198zM123 250q0 -104 69 -168t187 -64q151 0 261 99.5t136 259.5l23 127q-138 33 -262 33q-191 0 -302.5 -78t-111.5 -209z" />
    <glyph glyph-name="afii10066" unicode="&#x431;" horiz-adv-x="1120" 
d="M1016 623q0 -185 -66 -333t-184 -231.5t-266 -83.5q-164 0 -269.5 129t-105.5 342q0 215 70.5 400t208 320t325.5 190l326 96l12 -45l-328 -96q-197 -57 -333 -210.5t-189 -359.5q72 130 185 199.5t253 69.5q160 0 260.5 -107t100.5 -280zM969 621q0 153 -89.5 248.5
t-230.5 95.5q-208 0 -342.5 -157t-134.5 -396q0 -160 95.5 -276t232.5 -116q134 0 241.5 77t167.5 214.5t60 309.5z" />
    <glyph glyph-name="afii10067" unicode="&#x432;" horiz-adv-x="970" 
d="M106 0l173 985h354q107 0 169 -60t62 -163q0 -90 -52.5 -161t-137.5 -97q69 -27 107 -85t38 -130q0 -125 -89.5 -207t-227.5 -82h-396zM240 483l-78 -440h338q118 0 194 69.5t76 176.5q0 89 -56 141.5t-151 52.5h-323zM317 942l-71 -418h319q110 0 180 66.5t70 169.5
q0 86 -49 134t-137 48h-312z" />
    <glyph glyph-name="afii10068" unicode="&#x433;" horiz-adv-x="854" 
d="M106 0l173 985h581l-8 -45h-533l-163 -940h-50z" />
    <glyph glyph-name="afii10069" unicode="&#x434;" horiz-adv-x="1136" 
d="M-66 -328l66 373h82q130 196 182 483l80 457h651l-166 -940h132l-66 -373h-47l59 328h-866l-59 -328h-48zM782 45l158 895h-557l-74 -414q-53 -293 -172 -481h645z" />
    <glyph glyph-name="afii10070" unicode="&#x435;" horiz-adv-x="1052" 
d="M950 483h-790q-8 -47 -8 -106q1 -160 99 -258.5t255 -98.5q150 0 309 93l21 -39q-178 -99 -334 -99q-177 0 -287.5 112t-110.5 292q0 175 67 319.5t184.5 228t260.5 83.5q157 0 254 -107t97 -280q0 -53 -17 -140zM614 965q-163 0 -287 -122.5t-159 -318.5h741q9 49 9 101
q0 154 -83 247t-221 93z" />
    <glyph glyph-name="afii10072" unicode="&#x436;" horiz-adv-x="1449" 
d="M614 0l84 481h-149l-463 -481h-66l488 510l-297 475h55l287 -459h154l81 459h48l-82 -459h151l445 459h61l-465 -483l309 -502h-53l-301 481h-156l-81 -481h-50z" />
    <glyph glyph-name="afii10073" unicode="&#x437;" horiz-adv-x="839" 
d="M291 483l8 43h84q136 0 226.5 68t90.5 172q0 92 -60 145.5t-163 53.5q-132 0 -297 -64l-14 41q169 68 315 68q125 0 197 -65t72 -175q0 -96 -72.5 -173.5t-179.5 -94.5q85 -25 135.5 -87.5t50.5 -142.5q0 -132 -97 -214.5t-253 -82.5q-161 0 -348 91l20 43
q173 -89 328 -89q135 0 218 69t83 183q0 91 -77 151t-193 60h-74z" />
    <glyph glyph-name="afii10074" unicode="&#x438;" horiz-adv-x="1120" 
d="M106 0l173 985h47l-160 -909l799 909h49l-172 -985h-47l159 907l-798 -907h-50z" />
    <glyph glyph-name="afii10075" unicode="&#x439;" horiz-adv-x="1120" 
d="M106 0l173 985h47l-160 -909l799 909h49l-172 -985h-47l159 907l-798 -907h-50zM455 1411h43q-15 -93 37 -151t151 -58q95 0 166.5 57.5t91.5 151.5h43q-23 -114 -105 -183t-196 -69q-106 0 -170.5 56t-64.5 147q0 25 4 49z" />
    <glyph glyph-name="afii10076" unicode="&#x43a;" horiz-adv-x="974" 
d="M106 0l173 985h47l-80 -459h153l486 459h67l-514 -485l357 -500h-58l-342 481h-157l-84 -481h-48z" />
    <glyph glyph-name="afii10077" unicode="&#x43b;" horiz-adv-x="1169" 
d="M1063 985l-172 -985h-49l166 940h-559l-125 -707q-22 -126 -89 -192t-172 -66q-40 0 -106 17l14 45q60 -17 90 -17q174 0 215 216l134 749h653z" />
    <glyph glyph-name="afii10078" unicode="&#x43c;" horiz-adv-x="1251" 
d="M106 0l173 985h51l284 -536l478 536h53l-172 -985h-45l157 909l-456 -514h-39l-277 520l-159 -915h-48z" />
    <glyph glyph-name="afii10079" unicode="&#x43d;" horiz-adv-x="1120" 
d="M106 0l173 985h49l-82 -459h639l80 459h49l-172 -985h-49l84 481h-639l-82 -481h-50z" />
    <glyph glyph-name="afii10080" unicode="&#x43e;" horiz-adv-x="1120" 
d="M104 379q0 179 68 323t189.5 226t271.5 82q170 0 276.5 -112t106.5 -292q0 -179 -68 -323t-190 -226t-273 -82q-169 0 -275 112t-106 292zM154 379q0 -160 92 -259.5t241 -99.5q137 0 247 75.5t171.5 209t61.5 299.5q0 161 -92.5 261t-241.5 100q-138 0 -247.5 -75.5
t-170.5 -209.5t-61 -301z" />
    <glyph glyph-name="afii10081" unicode="&#x43f;" horiz-adv-x="1120" 
d="M842 0h-49l163 940h-637l-163 -940h-50l173 985h735z" />
    <glyph glyph-name="afii10082" unicode="&#x440;" horiz-adv-x="1120" 
d="M31 -426l248 1411h40l-26 -184q69 100 165 154.5t204 54.5q158 0 256 -107t98 -280q0 -180 -64.5 -328.5t-180 -234t-257.5 -85.5q-120 0 -207.5 67t-113.5 179l-113 -647h-49zM967 621q0 154 -86 248t-226 94q-143 0 -255 -97t-138 -245l-35 -209q-10 -48 -10 -88
q0 -133 83 -218.5t212 -85.5t233.5 79.5t163 217t58.5 304.5z" />
    <glyph glyph-name="afii10083" unicode="&#x441;" horiz-adv-x="968" 
d="M104 379q0 176 68.5 320.5t191.5 227.5t277 83q164 0 299 -97l-27 -36q-128 88 -272 88q-139 0 -251 -77t-174 -210.5t-62 -296.5q0 -161 96.5 -261t247.5 -100q152 0 288 84l25 -36q-154 -93 -317 -93q-170 0 -280 112.5t-110 291.5z" />
    <glyph glyph-name="afii10084" unicode="&#x442;" horiz-adv-x="903" 
d="M926 985l-8 -45h-363l-164 -940h-49l164 940h-365l9 45h776z" />
    <glyph glyph-name="afii10085" unicode="&#x443;" horiz-adv-x="1005" 
d="M1014 985l-688 -1194q-74 -130 -141 -186t-152 -56q-45 0 -111 17l12 45q56 -17 99 -17q69 0 127.5 50.5t124.5 167.5l112 196l-233 977h47l221 -917l529 917h53z" />
    <glyph glyph-name="afii10086" unicode="&#x444;" horiz-adv-x="1335" 
d="M475 -426l72 403q-205 13 -324 131.5t-119 303.5q0 262 173 429t450 167l76 434h47l-78 -436q206 -10 332.5 -130.5t126.5 -302.5q0 -172 -82 -308t-228 -212.5t-329 -77.5l-72 -401h-45zM152 414q0 -165 108.5 -271.5t294.5 -119.5l164 942q-167 -1 -296 -71t-200 -195
t-71 -285zM1184 571q0 164 -116 271t-304 119l-164 -941q253 2 418.5 156.5t165.5 394.5z" />
    <glyph glyph-name="afii10087" unicode="&#x445;" horiz-adv-x="1005" 
d="M6 0l469 510l-280 475h57l258 -444l410 444h63l-448 -485l292 -500h-57l-270 469l-430 -469h-64z" />
    <glyph glyph-name="afii10088" unicode="&#x446;" horiz-adv-x="1155" 
d="M106 0l173 985h49l-164 -940h637l164 940h49l-164 -940h131l-66 -373h-47l58 328h-820z" />
    <glyph glyph-name="afii10089" unicode="&#x447;" horiz-adv-x="1038" 
d="M711 0l80 446q-163 -32 -322 -32q-134 0 -217.5 78t-83.5 202q0 28 8 82l37 209h49l-37 -209q-8 -50 -8 -78q0 -106 72 -172.5t186 -66.5q164 0 324 30l84 496h49l-172 -985h-49z" />
    <glyph glyph-name="afii10090" unicode="&#x448;" horiz-adv-x="1675" 
d="M106 0l173 985h49l-164 -940h571l164 940h49l-164 -940h572l164 940h49l-172 -985h-1291z" />
    <glyph glyph-name="afii10091" unicode="&#x449;" horiz-adv-x="1710" 
d="M106 0l173 985h49l-164 -940h571l164 940h49l-164 -940h572l164 940h49l-164 -940h131l-66 -373h-47l58 328h-1375z" />
    <glyph glyph-name="afii10092" unicode="&#x44a;" horiz-adv-x="1136" 
d="M270 0l166 942h-295l9 43h342l-74 -422h321q122 0 194.5 -66.5t72.5 -181.5q0 -138 -94.5 -226.5t-239.5 -88.5h-402zM410 520l-82 -477h344q125 0 204.5 75t79.5 195q0 97 -59 152t-162 55h-325z" />
    <glyph glyph-name="afii10093" unicode="&#x44b;" horiz-adv-x="1404" 
d="M106 0l173 985h47l-72 -422h319q122 0 194.5 -66.5t72.5 -181.5q0 -138 -93.5 -226.5t-238.5 -88.5h-402zM246 520l-84 -477h344q125 0 205 75t80 195q0 97 -59.5 152t-162.5 55h-323zM1077 0l172 985h49l-172 -985h-49z" />
    <glyph glyph-name="afii10094" unicode="&#x44c;" horiz-adv-x="970" 
d="M106 0l173 985h47l-72 -422h319q122 0 194.5 -66.5t72.5 -181.5q0 -138 -93.5 -226.5t-238.5 -88.5h-402zM246 520l-84 -477h344q125 0 205 75t80 195q0 97 -59.5 152t-162.5 55h-323z" />
    <glyph glyph-name="afii10095" unicode="&#x44d;" horiz-adv-x="987" 
d="M883 606q0 -176 -68.5 -320.5t-191.5 -227.5t-277 -83q-168 0 -301 103l29 37q124 -95 272 -95q181 0 311.5 127.5t167.5 335.5h-561l8 43h557q5 34 5 82q0 157 -97.5 257t-247.5 100q-151 0 -290 -84l-23 37q153 92 318 92q169 0 279 -113t110 -291z" />
    <glyph glyph-name="afii10096" unicode="&#x44e;" horiz-adv-x="1519" 
d="M106 0l173 985h49l-82 -459h305q39 216 175 350t325 134q163 0 264.5 -111t101.5 -289q0 -274 -146 -454.5t-368 -180.5q-160 0 -261 109.5t-103 282.5q0 77 4 114h-305l-82 -481h-50zM586 377q0 -160 88 -258.5t231 -98.5q131 0 237 76t166 210.5t60 301.5
q0 159 -89 258t-230 99q-132 0 -238 -76t-165.5 -210.5t-59.5 -301.5z" />
    <glyph glyph-name="afii10097" unicode="&#x44f;" horiz-adv-x="974" 
d="M868 985l-172 -985h-49l74 420h-289l-360 -420h-64l371 424q-98 11 -159.5 78t-61.5 170q0 137 95 225t243 88h372zM729 463l84 477h-317q-126 0 -206.5 -74.5t-80.5 -191.5q0 -95 59.5 -153t159.5 -58h301z" />
    <glyph glyph-name="uni0450" unicode="&#x450;" horiz-adv-x="1052" 
d="M950 483h-790q-8 -47 -8 -106q1 -160 99 -258.5t255 -98.5q150 0 309 93l21 -39q-178 -99 -334 -99q-177 0 -287.5 112t-110.5 292q0 175 67 319.5t184.5 228t260.5 83.5q157 0 254 -107t97 -280q0 -53 -17 -140zM614 965q-163 0 -287 -122.5t-159 -318.5h741q9 49 9 101
q0 154 -83 247t-221 93zM471 1415l295 -215l-23 -31l-299 207z" />
    <glyph glyph-name="afii10071" unicode="&#x451;" horiz-adv-x="1052" 
d="M950 483h-790q-8 -47 -8 -106q1 -160 99 -258.5t255 -98.5q150 0 309 93l21 -39q-178 -99 -334 -99q-177 0 -287.5 112t-110.5 292q0 175 67 319.5t184.5 228t260.5 83.5q157 0 254 -107t97 -280q0 -53 -17 -140zM614 965q-163 0 -287 -122.5t-159 -318.5h741q9 49 9 101
q0 154 -83 247t-221 93zM838 1303q0 25 16 42t41 17q20 0 32.5 -13t12.5 -32q0 -25 -16.5 -42.5t-42.5 -17.5q-19 0 -31 13t-12 33zM438 1303q0 25 17.5 42t42.5 17q20 0 32.5 -13t12.5 -32q0 -25 -17.5 -42.5t-42.5 -17.5q-19 0 -32 13t-13 33z" />
    <glyph glyph-name="afii10099" unicode="&#x452;" horiz-adv-x="1120" 
d="M106 0l211 1206h-159l8 43h160l34 193h50l-35 -193h389l-8 -43h-389l-76 -428q60 106 163 169t218 63q135 0 220 -80t85 -209q0 -47 -10 -109l-150 -835q-19 -104 -88.5 -166t-171.5 -62q-75 0 -190 41l16 43q107 -39 172 -39q84 0 142 50t73 135l148 833q10 58 10 105
q0 112 -72.5 179t-191.5 67q-148 0 -262 -105.5t-142 -269.5l-104 -588h-50z" />
    <glyph glyph-name="afii10100" unicode="&#x453;" horiz-adv-x="854" 
d="M106 0l173 985h581l-8 -45h-533l-163 -940h-50zM836 1372l-340 -203l-21 33l336 211z" />
    <glyph glyph-name="afii10101" unicode="&#x454;" horiz-adv-x="987" 
d="M104 379q0 176 68.5 320.5t191.5 227.5t277 83q164 0 299 -97l-27 -36q-128 88 -272 88q-178 0 -308 -123t-167 -316h561l-8 -43h-561q-4 -37 -4 -106q0 -159 97 -258t247 -99q154 0 290 82l23 -34q-154 -93 -317 -93q-170 0 -280 112.5t-110 291.5z" />
    <glyph glyph-name="afii10102" unicode="&#x455;" horiz-adv-x="872" 
d="M168 743q0 115 88 191t225 76q164 0 324 -80l-21 -39q-157 74 -301 74q-119 0 -192.5 -62t-73.5 -160q0 -46 21.5 -83t56 -60.5t79 -46t91.5 -40t91.5 -42t79 -52t56 -71t21.5 -98.5q0 -121 -89 -198t-233 -77q-172 0 -356 91l20 40q177 -86 334 -86q125 0 200 64t75 166
q0 54 -27.5 95.5t-71 68t-96.5 49t-106 46.5t-96.5 53t-71 75t-27.5 106z" />
    <glyph glyph-name="afii10103" unicode="&#x456;" horiz-adv-x="434" 
d="M106 0l173 985h49l-172 -985h-50zM303 1303q0 25 17 42t42 17q20 0 33 -12.5t13 -32.5q0 -26 -17 -44t-43 -18q-20 0 -32.5 13.5t-12.5 34.5z" />
    <glyph glyph-name="afii10104" unicode="&#x457;" horiz-adv-x="434" 
d="M106 0l173 985h49l-172 -985h-50zM504 1303q0 25 16 42t41 17q20 0 32.5 -13t12.5 -32q0 -25 -16.5 -42.5t-42.5 -17.5q-19 0 -31 13t-12 33zM104 1303q0 25 17.5 42t42.5 17q20 0 32.5 -13t12.5 -32q0 -25 -17 -42.5t-42 -17.5q-19 0 -32.5 13t-13.5 33z" />
    <glyph glyph-name="afii10105" unicode="&#x458;" horiz-adv-x="450" 
d="M344 985l-213 -1208q-17 -103 -88 -165.5t-172 -62.5q-75 0 -193 41l17 43q112 -39 174 -39q85 0 142 50t71 135l213 1206h49zM319 1303q0 25 17.5 42t42.5 17q20 0 32.5 -12.5t12.5 -32.5q0 -27 -16.5 -44.5t-42.5 -17.5q-20 0 -33 14t-13 34z" />
    <glyph glyph-name="afii10106" unicode="&#x459;" horiz-adv-x="1675" 
d="M825 0l166 940h-542l-125 -707q-22 -126 -89 -192t-172 -66q-40 0 -106 17l14 45q60 -17 90 -17q174 0 215 216l134 749h637l-74 -422h305q122 0 194 -67t72 -181q0 -138 -94.5 -226.5t-239.5 -88.5h-385zM965 520l-82 -477h327q125 0 205 75t80 195q0 95 -59.5 151
t-161.5 56h-309z" />
    <glyph glyph-name="afii10107" unicode="&#x45a;" horiz-adv-x="1642" 
d="M793 0l88 502h-639l-88 -502h-48l173 985h47l-76 -438h639l76 438h47l-76 -438h311q118 0 190 -66t72 -174q0 -135 -90.5 -221t-234.5 -86h-391zM928 504l-80 -461h336q125 0 200.5 72t75.5 190q0 91 -58.5 145t-158.5 54h-315z" />
    <glyph glyph-name="afii10108" unicode="&#x45b;" horiz-adv-x="1120" 
d="M106 0l211 1206h-159l8 43h160l34 193h50l-35 -193h389l-8 -43h-389l-76 -428q60 106 163 169t218 63q135 0 220 -80t85 -209q0 -47 -10 -109l-109 -612h-49l109 612q10 58 10 105q0 112 -72.5 179t-191.5 67q-148 0 -262 -105.5t-142 -269.5l-104 -588h-50z" />
    <glyph glyph-name="afii10109" unicode="&#x45c;" horiz-adv-x="974" 
d="M106 0l173 985h47l-80 -459h153l486 459h67l-514 -485l357 -500h-58l-342 481h-157l-84 -481h-48zM887 1372l-340 -203l-21 33l336 211z" />
    <glyph glyph-name="uni045D" unicode="&#x45d;" horiz-adv-x="1120" 
d="M106 0l173 985h47l-160 -909l799 909h49l-172 -985h-47l159 907l-798 -907h-50zM479 1415l295 -215l-22 -31l-299 207z" />
    <glyph glyph-name="afii10110" unicode="&#x45e;" horiz-adv-x="1005" 
d="M1014 985l-688 -1194q-74 -130 -141 -186t-152 -56q-45 0 -111 17l12 45q56 -17 99 -17q69 0 127.5 50.5t124.5 167.5l112 196l-233 977h47l221 -917l529 917h53zM381 1411h43q-15 -93 37 -151t151 -58q95 0 166.5 57.5t91.5 151.5h43q-23 -114 -105 -183t-196 -69
q-106 0 -170.5 56t-64.5 147q0 25 4 49z" />
    <glyph glyph-name="afii10193" unicode="&#x45f;" horiz-adv-x="1120" 
d="M106 0l173 985h49l-164 -940h637l164 940h49l-172 -985h-344l-58 -328h-47l58 328h-345z" />
    <glyph glyph-name="afii10050" unicode="&#x490;" horiz-adv-x="1067" 
d="M154 0l241 1376h715l57 328h47l-65 -373h-711l-233 -1331h-51z" />
    <glyph glyph-name="afii10098" unicode="&#x491;" horiz-adv-x="854" 
d="M106 0l173 985h548l58 328h49l-68 -373h-547l-163 -940h-50z" />
    <glyph glyph-name="uni0492" unicode="&#x492;" horiz-adv-x="1099" 
d="M186 0l113 633h-209l6 45h209l123 698h762l-8 -45h-711l-117 -653h437l-7 -45h-436l-110 -633h-52z" />
    <glyph glyph-name="uni0493" unicode="&#x493;" horiz-adv-x="870" 
d="M123 0l76 444h-176l8 45h176l88 496h582l-9 -43h-532l-80 -453h307l-8 -45h-307l-76 -444h-49z" />
    <glyph glyph-name="uni049A" unicode="&#x49a;" horiz-adv-x="1382" 
d="M154 0l241 1376h49l-112 -649h223l688 649h68l-717 -674l473 -657h158l-72 -405h-49l63 360h-127l-493 682h-223l-121 -682h-49z" />
    <glyph glyph-name="uni049B" unicode="&#x49b;" horiz-adv-x="1040" 
d="M106 0l173 985h47l-80 -459h153l486 459h67l-514 -483l330 -457h115l-66 -373h-49l57 328h-88l-342 481h-157l-84 -481h-48z" />
    <glyph glyph-name="uni04A2" unicode="&#x4a2;" horiz-adv-x="1562" 
d="M1317 0h-199l119 682h-913l-119 -682h-51l241 1376h51l-114 -649h913l115 649h49l-233 -1331h196l-72 -405h-47z" />
    <glyph glyph-name="uni04A3" unicode="&#x4a3;" horiz-adv-x="1153" 
d="M106 0l173 985h49l-82 -459h639l80 459h49l-164 -940h131l-68 -373h-47l60 328h-133l84 481h-639l-82 -481h-50z" />
    <glyph glyph-name="uni04AE" unicode="&#x4ae;" horiz-adv-x="1169" 
d="M473 0l109 623l-389 753h55l364 -706l568 706h61l-610 -760l-109 -616h-49z" />
    <glyph glyph-name="uni04AF" unicode="&#x4af;" horiz-adv-x="1005" 
d="M1014 985l-574 -983l-75 -428h-50l78 428l-229 983h47l215 -917l535 917h53z" />
    <glyph glyph-name="uni04B0" unicode="&#x4b0;" horiz-adv-x="1185" 
d="M473 0l105 596h-340l8 45h325l-378 735h55l364 -708l568 708h61l-590 -735h326l-8 -45h-340l-107 -596h-49z" />
    <glyph glyph-name="uni04B1" unicode="&#x4b1;" horiz-adv-x="1005" 
d="M1014 985l-557 -952h297l-9 -43h-307l-73 -416h-50l74 416h-307l8 43h295l-221 952h47l215 -917l535 917h53z" />
    <glyph glyph-name="uni04BA" unicode="&#x4ba;" horiz-adv-x="1380" 
d="M446 1376l-110 -633q255 50 459 50q184 0 298.5 -108.5t114.5 -281.5q0 -50 -10 -112l-47 -291h-49l47 289q10 62 10 112q0 155 -103.5 249.5t-269.5 94.5q-212 0 -458 -49l-123 -696h-51l241 1376h51z" />
    <glyph glyph-name="uni04BB" unicode="&#x4bb;" horiz-adv-x="1120" 
d="M106 0l254 1442h50l-119 -664q60 106 163 169t218 63q135 0 220 -80t85 -209q0 -47 -10 -109l-109 -612h-49l109 612q10 58 10 105q0 112 -72.5 179t-191.5 67q-148 0 -262 -105.5t-142 -269.5l-104 -588h-50z" />
    <glyph glyph-name="uni04D8" unicode="&#x4d8;" horiz-adv-x="1394" 
d="M141 694h1110q11 73 11 160q1 227 -136 364.5t-358 137.5q-206 0 -442 -129l-23 39q242 135 465 135q242 0 393.5 -150.5t151.5 -398.5q0 -244 -93.5 -445.5t-256 -316.5t-359.5 -115q-220 0 -352.5 142.5t-132.5 384.5q0 93 22 192zM606 20q233 0 409 173t230 456h-1063
q-12 -59 -12 -149q-3 -220 116 -350t320 -130z" />
    <glyph glyph-name="afii10846" unicode="&#x4d9;" horiz-adv-x="1052" 
d="M102 502h791q8 47 8 106q-2 159 -100 258t-254 99q-148 0 -307 -95l-23 39q173 101 334 101q177 0 288 -112t111 -292q0 -175 -67.5 -319.5t-185.5 -228t-261 -83.5q-157 0 -252.5 106.5t-95.5 280.5q0 69 14 140zM438 20q164 0 288 122t161 317h-744q-8 -41 -8 -99
q0 -155 82.5 -247.5t220.5 -92.5z" />
    <glyph glyph-name="uni04E8" unicode="&#x4e8;" horiz-adv-x="1495" 
d="M152 524q0 249 94 449.5t261 314t374 113.5q236 0 384 -150.5t148 -398.5q0 -249 -94 -449.5t-261 -314t-374 -113.5q-236 0 -384 150.5t-148 398.5zM686 25q255 0 438 182t226 475h-1139q-10 -88 -10 -162q1 -226 135.5 -360.5t349.5 -134.5zM879 1356
q-248 0 -428.5 -174t-231.5 -455h1137q6 43 6 129q-1 150 -63 264t-171 175t-249 61z" />
    <glyph glyph-name="uni04E9" unicode="&#x4e9;" horiz-adv-x="1120" 
d="M104 379q0 179 68 323t189.5 226t271.5 82q170 0 276.5 -112t106.5 -292q0 -179 -68 -323t-190 -226t-273 -82q-169 0 -275 112t-106 292zM487 20q181 0 308.5 126.5t160.5 332.5h-798q-6 -53 -6 -104q2 -159 94 -257t241 -98zM633 965q-178 0 -305 -122.5t-164 -320.5
h799q4 27 4 88q0 158 -92.5 256.5t-241.5 98.5z" />
    <glyph glyph-name="Wgrave" unicode="&#x1e80;" horiz-adv-x="2002" 
d="M2056 1376l-665 -1376h-52l-196 1303l-627 -1303h-53l-203 1376h49l191 -1302l628 1302h52l196 -1302l627 1302h53zM991 1806l295 -215l-22 -30l-299 206z" />
    <glyph glyph-name="wgrave" unicode="&#x1e81;" horiz-adv-x="1529" 
d="M1522 985l-494 -985h-51l-139 911l-457 -911h-51l-150 985h47l140 -913l456 913h51l138 -913l456 913h54zM668 1415l295 -215l-23 -31l-299 207z" />
    <glyph glyph-name="Wacute" unicode="&#x1e82;" horiz-adv-x="2002" 
d="M2056 1376l-665 -1376h-52l-196 1303l-627 -1303h-53l-203 1376h49l191 -1302l628 1302h52l196 -1302l627 1302h53zM1470 1763l-340 -202l-20 32l336 211z" />
    <glyph glyph-name="wacute" unicode="&#x1e83;" horiz-adv-x="1529" 
d="M1522 985l-494 -985h-51l-139 911l-457 -911h-51l-150 985h47l140 -913l456 913h51l138 -913l456 913h54zM1147 1372l-340 -203l-21 33l336 211z" />
    <glyph glyph-name="Wdieresis" unicode="&#x1e84;" horiz-adv-x="2002" 
d="M2056 1376l-665 -1376h-52l-196 1303l-627 -1303h-53l-203 1376h49l191 -1302l628 1302h52l196 -1302l627 1302h53zM1358 1694q0 25 16 42t41 17q20 0 32.5 -13t12.5 -32q0 -25 -16.5 -42t-42.5 -17q-19 0 -31 12.5t-12 32.5zM958 1694q0 25 17.5 42t42.5 17
q20 0 32.5 -13t12.5 -32q0 -25 -17 -42t-42 -17q-19 0 -32.5 12.5t-13.5 32.5z" />
    <glyph glyph-name="wdieresis" unicode="&#x1e85;" horiz-adv-x="1529" 
d="M1522 985l-494 -985h-51l-139 911l-457 -911h-51l-150 985h47l140 -913l456 913h51l138 -913l456 913h54zM1034 1303q0 25 16.5 42t41.5 17q20 0 32.5 -13t12.5 -32q0 -25 -17 -42.5t-43 -17.5q-19 0 -31 13t-12 33zM635 1303q0 25 17 42t42 17q20 0 32.5 -13t12.5 -32
q0 -25 -17 -42.5t-42 -17.5q-19 0 -32 13t-13 33z" />
    <glyph glyph-name="uni1E9E" unicode="&#x1e9e;" horiz-adv-x="1560" 
d="M154 0l241 1376h1080l-7 -37l-493 -551q168 -1 270.5 -108t102.5 -266q0 -182 -138.5 -310.5t-343.5 -128.5q-192 0 -370 115l26 41q172 -111 344 -111q184 0 308 115t124 277q0 144 -95.5 240t-258.5 96h-31l-6 34l492 549h-963l-233 -1331h-49z" />
    <glyph glyph-name="Ygrave" unicode="&#x1ef2;" horiz-adv-x="1169" 
d="M473 0l109 623l-389 753h55l364 -706l568 706h61l-610 -760l-109 -616h-49zM557 1806l295 -215l-23 -30l-299 206z" />
    <glyph glyph-name="ygrave" unicode="&#x1ef3;" horiz-adv-x="1005" 
d="M1014 985l-688 -1194q-74 -130 -141 -186t-152 -56q-45 0 -111 17l12 45q56 -17 99 -17q69 0 127.5 50.5t124.5 167.5l112 196l-233 977h47l221 -917l529 917h53zM406 1415l294 -215l-22 -31l-299 207z" />
    <glyph glyph-name="uni2010" unicode="&#x2010;" horiz-adv-x="655" 
d="M63 481l9 45h526l-8 -45h-527z" />
    <glyph glyph-name="uni2011" unicode="&#x2011;" horiz-adv-x="655" 
d="M63 481l9 45h526l-8 -45h-527z" />
    <glyph glyph-name="figuredash" unicode="&#x2012;" 
d="M127 668l8 41h985l-8 -41h-985z" />
    <glyph glyph-name="endash" unicode="&#x2013;" horiz-adv-x="983" 
d="M63 481l9 45h854l-8 -45h-855z" />
    <glyph glyph-name="emdash" unicode="&#x2014;" horiz-adv-x="1966" 
d="M63 481l9 45h1837l-8 -45h-1838z" />
    <glyph glyph-name="afii00208" unicode="&#x2015;" horiz-adv-x="1966" 
d="M63 481l9 45h1837l-8 -45h-1838z" />
    <glyph glyph-name="quoteleft" unicode="&#x2018;" horiz-adv-x="464" 
d="M387 1032q0 -26 -18.5 -44.5t-46.5 -18.5t-43 18.5t-15 52.5q0 98 64.5 196t173.5 159l20 -31q-191 -122 -203 -287q26 9 47 -5t21 -40z" />
    <glyph glyph-name="quoteright" unicode="&#x2019;" horiz-adv-x="464" 
d="M322 1327q0 28 18.5 47t46.5 19q26 0 41.5 -20t15.5 -54q0 -98 -64.5 -194.5t-172.5 -157.5l-21 30q191 123 203 285q-26 -7 -46.5 6.5t-20.5 38.5z" />
    <glyph glyph-name="quotesinglbase" unicode="&#x201a;" horiz-adv-x="464" 
d="M94 33q0 28 19 46.5t47 18.5q26 0 41.5 -19.5t15.5 -53.5q0 -98 -64.5 -195t-172.5 -158l-21 31q191 123 203 285q-26 -7 -47 6.5t-21 38.5z" />
    <glyph glyph-name="quotedblleft" unicode="&#x201c;" horiz-adv-x="800" 
d="M387 1032q0 -26 -18.5 -44.5t-46.5 -18.5t-43 18.5t-15 52.5q0 98 64.5 196t173.5 159l20 -31q-191 -122 -203 -287q26 9 47 -5t21 -40zM723 1032q0 -26 -19 -44.5t-47 -18.5q-57 0 -57 71q0 98 64.5 196t173.5 159l20 -31q-191 -122 -203 -287q26 9 47 -5t21 -40z" />
    <glyph glyph-name="quotedblright" unicode="&#x201d;" horiz-adv-x="800" 
d="M322 1327q0 28 18.5 47t46.5 19q26 0 41.5 -20t15.5 -54q0 -98 -64.5 -194.5t-172.5 -157.5l-21 30q191 123 203 285q-26 -7 -46.5 6.5t-20.5 38.5zM657 1327q0 28 19 47t47 19q26 0 41.5 -20t15.5 -54q0 -98 -64.5 -194.5t-172.5 -157.5l-21 30q191 123 203 285
q-26 -7 -47 6.5t-21 38.5z" />
    <glyph glyph-name="quotedblbase" unicode="&#x201e;" horiz-adv-x="800" 
d="M94 33q0 28 19 46.5t47 18.5q26 0 41.5 -19.5t15.5 -53.5q0 -98 -64.5 -195t-172.5 -158l-21 31q191 123 203 285q-26 -7 -47 6.5t-21 38.5zM430 33q0 28 19 46.5t47 18.5q26 0 41.5 -19.5t15.5 -53.5q0 -97 -65 -194.5t-173 -158.5l-20 31q191 123 203 285
q-26 -7 -47 6.5t-21 38.5z" />
    <glyph glyph-name="dagger" unicode="&#x2020;" horiz-adv-x="985" 
d="M385 0l168 958h-375l8 43h375l66 375h45l-66 -375h373l-8 -43h-373l-168 -958h-45z" />
    <glyph glyph-name="daggerdbl" unicode="&#x2021;" horiz-adv-x="985" 
d="M385 0l66 375h-375l8 43h375l94 540h-375l8 43h375l66 375h45l-66 -375h373l-8 -43h-373l-96 -540h375l-9 -43h-374l-64 -375h-45z" />
    <glyph glyph-name="bullet" unicode="&#x2022;" horiz-adv-x="983" 
d="M213 590q0 123 86 209t209 86t209 -86t86 -209t-86 -209t-209 -86t-209 86t-86 209z" />
    <glyph glyph-name="ellipsis" unicode="&#x2026;" horiz-adv-x="1966" 
d="M190 33q0 28 19 46.5t47 18.5q22 0 35.5 -14.5t13.5 -36.5q0 -26 -18.5 -44.5t-46.5 -18.5q-22 0 -36 13.5t-14 35.5zM846 33q0 28 18.5 46.5t46.5 18.5q22 0 36 -14.5t14 -36.5q0 -26 -19 -44.5t-47 -18.5q-22 0 -35.5 13.5t-13.5 35.5zM1501 33q0 28 19 46.5t47 18.5
q22 0 35.5 -14.5t13.5 -36.5q0 -26 -19 -44.5t-47 -18.5q-22 0 -35.5 13.5t-13.5 35.5z" />
    <glyph glyph-name="perthousand" unicode="&#x2030;" horiz-adv-x="2527" 
d="M1753 262q0 194 106.5 322.5t270.5 128.5q120 0 194 -79.5t74 -207.5q0 -194 -106.5 -322.5t-268.5 -128.5q-120 0 -195 79.5t-75 207.5zM2023 16q144 0 238 116.5t94 291.5q0 110 -63 179t-164 69q-142 0 -236 -116.5t-94 -291.5q0 -111 62 -179.5t163 -68.5zM995 262
q0 194 106.5 322.5t268.5 128.5q121 0 195.5 -79.5t74.5 -207.5q0 -194 -106 -322.5t-268 -128.5q-121 0 -196 79.5t-75 207.5zM1266 16q144 0 237.5 116t93.5 292q0 110 -63 179t-164 69q-142 0 -237 -116.5t-95 -291.5q0 -110 63.5 -179t164.5 -69zM268 14l1272 1381
l31 -33l-1272 -1380zM199 950q0 194 106 322.5t268 128.5q120 0 195.5 -80t75.5 -207q0 -194 -107 -322t-270 -128q-120 0 -194 79t-74 207zM469 705q142 0 236 116t94 291q0 110 -62.5 179t-163.5 69q-144 0 -237.5 -116t-93.5 -292q0 -110 63 -178.5t164 -68.5z" />
    <glyph glyph-name="guilsinglleft" unicode="&#x2039;" horiz-adv-x="595" 
d="M63 492l7 30l481 445l29 -29l-461 -436l305 -436l-35 -25z" />
    <glyph glyph-name="guilsinglright" unicode="&#x203a;" horiz-adv-x="595" 
d="M537 518l-7 -31l-481 -446l-29 29l461 438l-305 436l35 23z" />
    <glyph glyph-name="fraction" unicode="&#x2044;" horiz-adv-x="393" 
d="M-420 14l1272 1381l31 -33l-1272 -1380z" />
    <glyph glyph-name="zero.sup" unicode="&#x2070;" horiz-adv-x="854" 
d="M236 1081q0 160 48.5 291t136.5 207t197 76q125 0 192 -83t67 -229q0 -160 -49 -290.5t-137 -206.5t-197 -76q-125 0 -191.5 82t-66.5 229zM279 1085q0 -131 55 -204.5t160 -73.5q97 0 175 71t121.5 192.5t43.5 268.5q0 131 -55 203t-161 72q-97 0 -174.5 -70t-121 -191
t-43.5 -268z" />
    <glyph glyph-name="four.sup" unicode="&#x2074;" horiz-adv-x="755" 
d="M543 786l39 215h-430l6 37l534 600h43l-104 -598h143l-6 -39h-145l-37 -215h-43zM211 1040h377l96 533z" />
    <glyph glyph-name="five.sup" unicode="&#x2075;" horiz-adv-x="692" 
d="M774 1638l-8 -41h-401l-56 -321q82 8 123 8q122 0 194 -62t72 -169q0 -120 -89 -201.5t-218 -81.5q-125 0 -252 82l23 37q115 -78 229 -78q113 0 188.5 68.5t75.5 171.5q0 93 -60.5 143.5t-168.5 50.5q-74 0 -168 -12l72 405h444z" />
    <glyph glyph-name="six.sup" unicode="&#x2076;" horiz-adv-x="776" 
d="M231 1063q0 163 54 299.5t147.5 214.5t206.5 78q96 0 199 -58l-21 -36q-86 53 -178 53q-137 0 -238 -125.5t-122 -331.5q43 77 114.5 119.5t161.5 42.5q103 0 167 -64.5t64 -171.5q0 -130 -87 -221.5t-212 -91.5q-120 0 -188 77.5t-68 215.5zM276 1034q0 -100 58 -161.5
t153 -61.5q108 0 182 77.5t74 192.5q0 92 -52 144.5t-140 52.5q-114 0 -194.5 -72.5t-80.5 -171.5z" />
    <glyph glyph-name="seven.sup" unicode="&#x2077;" horiz-adv-x="632" 
d="M205 786l495 811h-456l6 41h510l-8 -34l-496 -818h-51z" />
    <glyph glyph-name="eight.sup" unicode="&#x2078;" horiz-adv-x="776" 
d="M522 1241q118 13 185 70t67 143q0 75 -52.5 117.5t-143.5 42.5q-105 0 -173.5 -55.5t-68.5 -141.5q0 -68 48.5 -114.5t137.5 -61.5zM197 977q0 94 66.5 158t191.5 90q-73 17 -116.5 70t-43.5 122q0 102 80.5 170t202.5 68q109 0 174 -54t65 -143q0 -91 -63.5 -154
t-173.5 -83q87 -23 132.5 -76t45.5 -127q0 -107 -85.5 -177.5t-217.5 -70.5q-119 0 -188.5 56t-69.5 151zM514 1204q-130 -19 -202 -77.5t-72 -147.5q0 -78 58.5 -123t158.5 -45q113 0 185.5 58t72.5 149q0 71 -51.5 118.5t-149.5 67.5z" />
    <glyph glyph-name="nine.sup" unicode="&#x2079;" horiz-adv-x="776" 
d="M809 1362q0 -163 -54.5 -299.5t-148.5 -214.5t-207 -78q-99 0 -196 57l20 37q86 -53 178 -53q136 0 237.5 125.5t121.5 331.5q-43 -77 -114.5 -119.5t-162.5 -42.5q-102 0 -165.5 64.5t-63.5 170.5q0 131 87.5 222.5t211.5 91.5q119 0 187.5 -78t68.5 -215zM762 1391
q0 100 -58 161.5t-153 61.5q-106 0 -180 -78t-74 -193q0 -91 51.5 -143.5t138.5 -52.5q114 0 194.5 72.5t80.5 171.5z" />
    <glyph glyph-name="plus.sup" unicode="&#x207a;" horiz-adv-x="770" 
d="M225 1192v41h269v268h41v-268h268v-41h-268v-268h-41v268h-269z" />
    <glyph glyph-name="minus.sup" unicode="&#x207b;" horiz-adv-x="770" 
d="M225 1192v41h578v-41h-578z" />
    <glyph glyph-name="equal.sup" unicode="&#x207c;" horiz-adv-x="770" 
d="M225 1325v41h578v-41h-578zM225 1059v41h578v-41h-578z" />
    <glyph glyph-name="parenleft.sup" unicode="&#x207d;" horiz-adv-x="452" 
d="M412 692l-33 -20q-131 181 -125 440q6 187 85.5 353.5t223.5 293.5l27 -26q-135 -118 -211 -280t-82 -341q-12 -244 115 -420z" />
    <glyph glyph-name="parenright.sup" unicode="&#x207e;" horiz-adv-x="452" 
d="M297 1735l33 24q131 -183 125 -442q-4 -187 -84 -352.5t-224 -292.5l-30 22q139 123 218 284.5t79 338.5q0 255 -117 418z" />
    <glyph glyph-name="zero.sub" unicode="&#x2080;" horiz-adv-x="854" 
d="M51 33q0 160 49 290.5t137 206.5t197 76q125 0 191.5 -82t66.5 -229q0 -160 -49 -291t-137 -207t-197 -76q-124 0 -191 82.5t-67 229.5zM94 37q0 -132 55 -205.5t160 -73.5q146 0 243 154t97 379q0 131 -54.5 202.5t-160.5 71.5q-97 0 -175 -70t-121.5 -190.5
t-43.5 -267.5z" />
    <glyph glyph-name="one.sub" unicode="&#x2081;" horiz-adv-x="534" 
d="M184 -262l140 803l-267 -142l-14 35l293 156h39l-150 -852h-41z" />
    <glyph glyph-name="two.sub" unicode="&#x2082;" horiz-adv-x="692" 
d="M-78 -262l6 33l426 360q154 129 154 250q0 87 -49.5 134.5t-139.5 47.5q-97 0 -223 -63l-18 37q132 69 246 69q107 0 167 -59t60 -164q0 -140 -164 -279l-385 -325h457l-8 -41h-529z" />
    <glyph glyph-name="three.sub" unicode="&#x2083;" horiz-adv-x="692" 
d="M180 154l6 41h47q119 0 195 57.5t76 148.5q0 75 -50 119.5t-132 44.5q-103 0 -213 -45l-15 39q127 47 232 47q97 0 159 -56t62 -144q0 -91 -62 -154.5t-153 -79.5q73 -15 116.5 -69.5t43.5 -129.5q0 -108 -82 -180t-203 -72q-129 0 -264 72l18 39q134 -70 246 -70
q102 0 170.5 59.5t68.5 151.5q0 82 -61 131.5t-166 49.5h-39z" />
    <glyph glyph-name="four.sub" unicode="&#x2084;" horiz-adv-x="755" 
d="M358 -262l39 215h-430l6 37l535 600h43l-105 -598h144l-6 -39h-146l-37 -215h-43zM27 -8h376l97 532z" />
    <glyph glyph-name="five.sub" unicode="&#x2085;" horiz-adv-x="692" 
d="M590 590l-8 -41h-402l-55 -322q92 9 123 9q122 0 194 -62.5t72 -169.5q0 -120 -89 -201.5t-218 -81.5q-125 0 -252 82l22 37q115 -78 230 -78q113 0 188.5 68.5t75.5 171.5q0 93 -60.5 144t-168.5 51q-66 0 -168 -13l71 406h445z" />
    <glyph glyph-name="six.sub" unicode="&#x2086;" horiz-adv-x="776" 
d="M47 14q0 163 54 299.5t147.5 214.5t206.5 78q96 0 198 -57l-20 -37q-86 53 -178 53q-137 0 -238.5 -125t-122.5 -331q43 77 115 119t162 42q103 0 167 -64t64 -171q0 -131 -87.5 -222.5t-211.5 -91.5q-120 0 -188 77.5t-68 215.5zM92 -14q0 -100 58 -162t153 -62
q108 0 182 78t74 193q0 92 -52 144t-140 52q-115 0 -195 -72t-80 -171z" />
    <glyph glyph-name="seven.sub" unicode="&#x2087;" horiz-adv-x="632" 
d="M20 -262l496 811h-457l7 41h509l-8 -35l-495 -817h-52z" />
    <glyph glyph-name="eight.sub" unicode="&#x2088;" horiz-adv-x="776" 
d="M338 193q118 13 185 70t67 143q0 75 -53 117t-144 42q-105 0 -173 -55t-68 -141q0 -68 48.5 -114.5t137.5 -61.5zM12 -72q0 94 66.5 158t191.5 90q-73 17 -116 70t-43 123q0 102 80 169.5t202 67.5q109 0 174.5 -53.5t65.5 -142.5q0 -91 -64 -154.5t-174 -83.5
q87 -23 132.5 -76t45.5 -127q0 -107 -85.5 -177.5t-217.5 -70.5q-119 0 -188.5 56t-69.5 151zM330 156q-130 -19 -202.5 -78t-72.5 -148q0 -78 58.5 -123t158.5 -45q113 0 185.5 58t72.5 149q0 71 -51 119t-149 68z" />
    <glyph glyph-name="nine.sub" unicode="&#x2089;" horiz-adv-x="776" 
d="M625 313q0 -163 -54.5 -299.5t-148.5 -214.5t-207 -78q-98 0 -197 58l21 37q88 -54 178 -54q136 0 237 125.5t121 331.5q-43 -78 -114 -120t-162 -42q-102 0 -165.5 64.5t-63.5 171.5q0 130 87 221.5t212 91.5q119 0 187.5 -78t68.5 -215zM578 342q0 100 -58 161.5
t-153 61.5q-106 0 -180 -77.5t-74 -192.5q0 -92 51.5 -144.5t138.5 -52.5q114 0 194.5 72.5t80.5 171.5z" />
    <glyph glyph-name="plus.sub" unicode="&#x208a;" horiz-adv-x="770" 
d="M41 143v41h268v269h41v-269h268v-41h-268v-268h-41v268h-268z" />
    <glyph glyph-name="minus.sub" unicode="&#x208b;" horiz-adv-x="770" 
d="M41 143v41h577v-41h-577z" />
    <glyph glyph-name="equal.sub" unicode="&#x208c;" horiz-adv-x="770" 
d="M41 276v41h577v-41h-577zM41 10v41h577v-41h-577z" />
    <glyph glyph-name="parenleft.sub" unicode="&#x208d;" horiz-adv-x="452" 
d="M227 -356l-32 -21q-131 181 -125 440q6 187 85.5 354t223.5 294l27 -27q-135 -118 -211 -280t-82 -341q-12 -245 114 -419z" />
    <glyph glyph-name="parenright.sub" unicode="&#x208e;" horiz-adv-x="452" 
d="M113 686l32 25q131 -183 125 -443q-4 -187 -83.5 -352.5t-223.5 -292.5l-31 23q139 123 218 284t79 338q0 256 -116 418z" />
    <glyph glyph-name="Euro" unicode="&#x20ac;" 
d="M88 537l8 41h158q0 121 33 253h-148l8 41h150q70 242 234.5 385.5t381.5 143.5q177 0 347 -107l-23 -39q-154 101 -324 101q-198 0 -348.5 -130.5t-218.5 -353.5h592l-6 -41h-598q-31 -138 -31 -253h584l-6 -41h-578q4 -241 118 -379t300 -138q168 0 303 72l18 -43
q-145 -74 -325 -74q-206 0 -332.5 151t-130.5 411h-166z" />
    <glyph glyph-name="afii61248" unicode="&#x2105;" horiz-adv-x="1689" 
d="M184 975q0 180 102 299t259 119q114 0 205 -64l-25 -37q-85 60 -180 60q-136 0 -225 -108t-89 -267q0 -103 62 -167.5t160 -64.5t190 58l19 -37q-98 -61 -213 -61q-116 0 -190.5 75.5t-74.5 194.5zM238 14l1271 1381l29 -33l-1272 -1380zM958 252q0 182 101 301t256 119
q117 0 187.5 -74.5t70.5 -194.5q0 -182 -100 -300.5t-256 -118.5q-116 0 -187.5 74t-71.5 194zM1221 23q133 0 221 107t88 269q0 104 -60 169t-157 65q-133 0 -221 -107.5t-88 -269.5q0 -103 60 -168t157 -65z" />
    <glyph glyph-name="litre" unicode="&#x2113;" horiz-adv-x="729" 
d="M784 1241q0 -191 -145 -377.5t-389 -310.5l-53 -301q0 -4 -3.5 -30.5t-3.5 -41.5q0 -72 49.5 -116t127.5 -44q57 0 147 17l6 -45q-81 -17 -158 -17q-98 0 -159.5 56t-61.5 147q0 18 9 74l165 934q25 131 96 205.5t173 74.5q91 0 145.5 -62t54.5 -163zM739 1239
q0 83 -42 132.5t-113 49.5q-85 0 -143.5 -62.5t-78.5 -174.5l-102 -576q224 120 351.5 288.5t127.5 342.5z" />
    <glyph glyph-name="numero" unicode="&#x2116;" horiz-adv-x="2285" 
d="M1602 504l6 39h598l-8 -39h-596zM1681 973q0 182 100.5 301t256.5 119q115 0 186.5 -74.5t71.5 -194.5q0 -182 -101 -300.5t-256 -118.5q-117 0 -187.5 74t-70.5 194zM1942 743q134 0 221.5 107.5t87.5 269.5q0 104 -60 169t-157 65q-132 0 -221 -108t-89 -269
q0 -103 60.5 -168.5t157.5 -65.5zM154 0l241 1376h49l689 -1300l229 1300h47l-242 -1376h-49l-686 1300l-229 -1300h-49z" />
    <glyph glyph-name="uni2117" unicode="&#x2117;" horiz-adv-x="1703" 
d="M131 688q0 218 96 390t268 268t390 96t390 -96t267.5 -268t95.5 -390t-95.5 -390t-267.5 -268t-390 -96t-390 96t-268 268t-96 390zM172 688q0 -155 52.5 -288t146 -226.5t226.5 -146t288 -52.5q208 0 370 90t252 252.5t90 370.5t-90 370.5t-252 252.5t-370 90
q-155 0 -288 -52.5t-226.5 -146t-146 -226.5t-52.5 -288zM651 262v852h295q119 0 195 -71t76 -185q0 -115 -76 -185.5t-195 -70.5h-252v-340h-43zM694 1073v-430h250q101 0 164 59t63 156t-63 156t-164 59h-250z" />
    <glyph glyph-name="uni2120" unicode="&#x2120;" horiz-adv-x="1871" 
d="M1010 524v852h49l342 -461l340 461h49v-852h-43v787l-332 -447h-31l-331 447v-787h-43zM186 1178q0 94 76.5 154.5t200.5 60.5q120 0 262 -56l-16 -39q-139 54 -244 54t-170.5 -49t-65.5 -125q0 -54 28.5 -92t74.5 -59.5t102 -38.5t111.5 -35.5t101.5 -44t74.5 -71.5
t28.5 -110q0 -97 -80 -158t-207 -61q-142 0 -285 63l17 39q140 -61 268 -61q109 0 175.5 49t66.5 129q0 55 -28.5 94.5t-74.5 61t-101 38.5t-110.5 35.5t-101.5 43.5t-74.5 70t-28.5 108z" />
    <glyph glyph-name="trademark" unicode="&#x2122;" horiz-adv-x="1904" 
d="M457 524v811h-320v41h684v-41h-319v-811h-45zM1042 524v852h48l342 -461l342 461h47v-852h-43v787l-330 -447h-33l-330 447v-787h-43z" />
    <glyph glyph-name="uni2126" unicode="&#x2126;" horiz-adv-x="1527" 
d="M41 0l8 45h420q-130 101 -206.5 252t-76.5 313q0 172 53.5 320t146 251t221.5 161.5t276 58.5q243 0 398 -145.5t155 -387.5q0 -265 -142 -480t-399 -343h426l-8 -45h-506l6 39q278 136 424.5 349t146.5 476q0 224 -140 358t-363 134q-182 0 -328.5 -94.5t-231 -265.5
t-85.5 -386q0 -162 81 -312t222 -259l-7 -39h-491z" />
    <glyph glyph-name="estimated" unicode="&#x212e;" horiz-adv-x="1966" 
d="M1016 33q147 0 276 60.5t221 168.5h136q-110 -136 -276 -215.5t-357 -79.5q-160 0 -305.5 57.5t-251 154t-168 230t-62.5 279.5t62.5 279.5t168 230t251 154t305.5 57.5t305.5 -57.5t250.5 -154t167.5 -230t62.5 -279.5q0 -23 -2 -33h-1276v-401q91 -104 218.5 -162.5
t273.5 -58.5zM524 1122v-401h983v401q-93 104 -220.5 162.5t-270.5 58.5q-145 0 -273 -59t-219 -162z" />
    <glyph glyph-name="onethird" unicode="&#x2153;" horiz-adv-x="1966" 
d="M446 524l140 803l-267 -141l-14 35l293 155h39l-150 -852h-41zM367 14l1271 1381l31 -33l-1272 -1380zM1452 416l6 41h47q119 0 195 58t76 149q0 74 -50.5 118.5t-132.5 44.5q-103 0 -213 -45l-14 39q127 47 231 47q97 0 159.5 -56t62.5 -144q0 -91 -62 -154.5
t-153 -79.5q73 -15 116 -69t43 -129q0 -108 -81.5 -180t-202.5 -72q-132 0 -265 71l19 39q132 -69 246 -69q102 0 170.5 59.5t68.5 151.5q0 82 -61 131t-166 49h-39z" />
    <glyph glyph-name="twothirds" unicode="&#x2154;" horiz-adv-x="1966" 
d="M106 524l7 33l426 361q153 128 153 249q0 87 -49 135t-139 48q-95 0 -223 -64l-19 37q134 70 246 70q107 0 167 -59.5t60 -164.5q0 -139 -164 -278l-385 -326h457l-8 -41h-529zM367 14l1271 1381l31 -33l-1272 -1380zM1452 416l6 41h47q119 0 195 58t76 149
q0 74 -50.5 118.5t-132.5 44.5q-103 0 -213 -45l-14 39q127 47 231 47q97 0 159.5 -56t62.5 -144q0 -91 -62 -154.5t-153 -79.5q73 -15 116 -69t43 -129q0 -108 -81.5 -180t-202.5 -72q-132 0 -265 71l19 39q132 -69 246 -69q102 0 170.5 59.5t68.5 151.5q0 82 -61 131
t-166 49h-39z" />
    <glyph glyph-name="uni2155" unicode="&#x2155;" horiz-adv-x="1966" 
d="M446 524l140 803l-267 -141l-14 35l293 155h39l-150 -852h-41zM367 14l1271 1381l31 -33l-1272 -1380zM1862 852l-9 -41h-401l-55 -322q92 9 123 9q122 0 194 -62.5t72 -169.5q0 -120 -89 -201t-218 -81q-125 0 -252 82l22 36q113 -77 230 -77q113 0 188.5 68t75.5 171
q0 93 -61 144t-169 51q-65 0 -167 -13l71 406h445z" />
    <glyph glyph-name="uni2156" unicode="&#x2156;" horiz-adv-x="1966" 
d="M106 524l7 33l426 361q153 128 153 249q0 87 -49 135t-139 48q-95 0 -223 -64l-19 37q134 70 246 70q107 0 167 -59.5t60 -164.5q0 -139 -164 -278l-385 -326h457l-8 -41h-529zM367 14l1271 1381l31 -33l-1272 -1380zM1862 852l-9 -41h-401l-55 -322q92 9 123 9
q122 0 194 -62.5t72 -169.5q0 -120 -89 -201t-218 -81q-125 0 -252 82l22 36q113 -77 230 -77q113 0 188.5 68t75.5 171q0 93 -61 144t-169 51q-65 0 -167 -13l71 406h445z" />
    <glyph glyph-name="uni2157" unicode="&#x2157;" horiz-adv-x="1966" 
d="M365 940l6 41h47q118 0 194 58t76 149q0 75 -50 119.5t-132 44.5q-103 0 -213 -45l-14 39q127 47 231 47q97 0 159 -56.5t62 -144.5q0 -91 -62 -154.5t-153 -79.5q73 -15 116.5 -69t43.5 -129q0 -108 -82 -180t-203 -72q-129 0 -264 72l18 38q132 -69 246 -69
q102 0 171 59.5t69 151.5q0 82 -61.5 131t-166.5 49h-38zM367 14l1271 1381l31 -33l-1272 -1380zM1862 852l-9 -41h-401l-55 -322q92 9 123 9q122 0 194 -62.5t72 -169.5q0 -120 -89 -201t-218 -81q-125 0 -252 82l22 36q113 -77 230 -77q113 0 188.5 68t75.5 171
q0 93 -61 144t-169 51q-65 0 -167 -13l71 406h445z" />
    <glyph glyph-name="uni2158" unicode="&#x2158;" horiz-adv-x="1966" 
d="M512 524l39 215h-430l6 37l535 600h43l-105 -598h143l-6 -39h-145l-37 -215h-43zM180 778h377l96 533zM367 14l1271 1381l31 -33l-1272 -1380zM1862 852l-9 -41h-401l-55 -322q92 9 123 9q122 0 194 -62.5t72 -169.5q0 -120 -89 -201t-218 -81q-125 0 -252 82l22 36
q113 -77 230 -77q113 0 188.5 68t75.5 171q0 93 -61 144t-169 51q-65 0 -167 -13l71 406h445z" />
    <glyph glyph-name="uni2159" unicode="&#x2159;" horiz-adv-x="1966" 
d="M446 524l140 803l-267 -141l-14 35l293 155h39l-150 -852h-41zM367 14l1271 1381l31 -33l-1272 -1380zM1278 276q0 163 54 299.5t147.5 214.5t206.5 78q96 0 198 -57l-20 -37q-86 53 -178 53q-137 0 -238.5 -125t-122.5 -331q43 77 115 119t162 42q103 0 167 -64t64 -171
q0 -130 -87 -221.5t-212 -91.5q-120 0 -188 77t-68 215zM1323 248q0 -100 58 -161.5t153 -61.5q108 0 182 77.5t74 192.5q0 92 -52.5 144.5t-140.5 52.5q-114 0 -194 -72.5t-80 -171.5z" />
    <glyph glyph-name="uni215A" unicode="&#x215a;" horiz-adv-x="1966" 
d="M774 1376l-8 -41h-401l-56 -321q82 8 123 8q122 0 194 -62t72 -169q0 -120 -89 -201.5t-218 -81.5q-125 0 -252 82l23 37q115 -78 229 -78q113 0 188.5 68t75.5 171q0 93 -60.5 144t-168.5 51q-74 0 -168 -12l72 405h444zM367 14l1271 1381l31 -33l-1272 -1380zM1278 276
q0 163 54 299.5t147.5 214.5t206.5 78q96 0 198 -57l-20 -37q-86 53 -178 53q-137 0 -238.5 -125t-122.5 -331q43 77 115 119t162 42q103 0 167 -64t64 -171q0 -130 -87 -221.5t-212 -91.5q-120 0 -188 77t-68 215zM1323 248q0 -100 58 -161.5t153 -61.5q108 0 182 77.5
t74 192.5q0 92 -52.5 144.5t-140.5 52.5q-114 0 -194 -72.5t-80 -171.5z" />
    <glyph glyph-name="oneeighth" unicode="&#x215b;" horiz-adv-x="1966" 
d="M446 524l140 803l-267 -141l-14 35l293 155h39l-150 -852h-41zM367 14l1271 1381l31 -33l-1272 -1380zM1569 455q118 13 185 70t67 143q0 75 -53 117t-144 42q-105 0 -173.5 -55t-68.5 -141q0 -68 49 -114.5t138 -61.5zM1243 190q0 94 66.5 158t191.5 90
q-73 17 -116.5 70t-43.5 123q0 102 80 169.5t203 67.5q109 0 174.5 -53.5t65.5 -142.5q0 -91 -64 -154.5t-174 -83.5q87 -23 132.5 -76t45.5 -127q0 -106 -85 -176.5t-218 -70.5q-119 0 -188.5 55.5t-69.5 150.5zM1561 418q-130 -19 -202.5 -77.5t-72.5 -147.5
q0 -78 58.5 -123t158.5 -45q113 0 185.5 57.5t72.5 148.5q0 71 -51 119t-149 68z" />
    <glyph glyph-name="threeeighths" unicode="&#x215c;" horiz-adv-x="1966" 
d="M365 940l6 41h47q118 0 194 58t76 149q0 75 -50 119.5t-132 44.5q-103 0 -213 -45l-14 39q127 47 231 47q97 0 159 -56.5t62 -144.5q0 -91 -62 -154.5t-153 -79.5q73 -15 116.5 -69t43.5 -129q0 -108 -82 -180t-203 -72q-129 0 -264 72l18 38q132 -69 246 -69
q102 0 171 59.5t69 151.5q0 82 -61.5 131t-166.5 49h-38zM367 14l1271 1381l31 -33l-1272 -1380zM1569 455q118 13 185 70t67 143q0 75 -53 117t-144 42q-105 0 -173.5 -55t-68.5 -141q0 -68 49 -114.5t138 -61.5zM1243 190q0 94 66.5 158t191.5 90q-73 17 -116.5 70
t-43.5 123q0 102 80 169.5t203 67.5q109 0 174.5 -53.5t65.5 -142.5q0 -91 -64 -154.5t-174 -83.5q87 -23 132.5 -76t45.5 -127q0 -106 -85 -176.5t-218 -70.5q-119 0 -188.5 55.5t-69.5 150.5zM1561 418q-130 -19 -202.5 -77.5t-72.5 -147.5q0 -78 58.5 -123t158.5 -45
q113 0 185.5 57.5t72.5 148.5q0 71 -51 119t-149 68z" />
    <glyph glyph-name="fiveeighths" unicode="&#x215d;" horiz-adv-x="1966" 
d="M774 1376l-8 -41h-401l-56 -321q82 8 123 8q122 0 194 -62t72 -169q0 -120 -89 -201.5t-218 -81.5q-125 0 -252 82l23 37q115 -78 229 -78q113 0 188.5 68t75.5 171q0 93 -60.5 144t-168.5 51q-74 0 -168 -12l72 405h444zM367 14l1271 1381l31 -33l-1272 -1380zM1569 455
q118 13 185 70t67 143q0 75 -53 117t-144 42q-105 0 -173.5 -55t-68.5 -141q0 -68 49 -114.5t138 -61.5zM1243 190q0 94 66.5 158t191.5 90q-73 17 -116.5 70t-43.5 123q0 102 80 169.5t203 67.5q109 0 174.5 -53.5t65.5 -142.5q0 -91 -64 -154.5t-174 -83.5
q87 -23 132.5 -76t45.5 -127q0 -106 -85 -176.5t-218 -70.5q-119 0 -188.5 55.5t-69.5 150.5zM1561 418q-130 -19 -202.5 -77.5t-72.5 -147.5q0 -78 58.5 -123t158.5 -45q113 0 185.5 57.5t72.5 148.5q0 71 -51 119t-149 68z" />
    <glyph glyph-name="seveneighths" unicode="&#x215e;" horiz-adv-x="1966" 
d="M233 524l496 811h-457l7 41h509l-8 -35l-495 -817h-52zM367 14l1271 1381l31 -33l-1272 -1380zM1569 455q118 13 185 70t67 143q0 75 -53 117t-144 42q-105 0 -173.5 -55t-68.5 -141q0 -68 49 -114.5t138 -61.5zM1243 190q0 94 66.5 158t191.5 90q-73 17 -116.5 70
t-43.5 123q0 102 80 169.5t203 67.5q109 0 174.5 -53.5t65.5 -142.5q0 -91 -64 -154.5t-174 -83.5q87 -23 132.5 -76t45.5 -127q0 -106 -85 -176.5t-218 -70.5q-119 0 -188.5 55.5t-69.5 150.5zM1561 418q-130 -19 -202.5 -77.5t-72.5 -147.5q0 -78 58.5 -123t158.5 -45
q113 0 185.5 57.5t72.5 148.5q0 71 -51 119t-149 68z" />
    <glyph glyph-name="uni215F" unicode="&#x215f;" 
d="M446 524l140 803l-267 -141l-14 35l293 155h39l-150 -852h-41zM367 14l1271 1381l31 -33l-1272 -1380z" />
    <glyph glyph-name="arrowleft" unicode="&#x2190;" horiz-adv-x="1966" 
d="M1917 565h-1751l577 -567l-34 -35l-627 627l627 627l34 -35l-577 -568h1751v-49z" />
    <glyph glyph-name="arrowup" unicode="&#x2191;" horiz-adv-x="1966" 
d="M975 -328v1749l-567 -575l-35 35l626 626l627 -626l-35 -35l-567 575v-1749h-49z" />
    <glyph glyph-name="arrowright" unicode="&#x2192;" horiz-adv-x="1966" 
d="M82 614h1749l-576 568l35 35l627 -627l-627 -627l-35 35l576 567h-1749v49z" />
    <glyph glyph-name="arrowdown" unicode="&#x2193;" horiz-adv-x="1966" 
d="M1024 1507v-1749l567 576l35 -35l-627 -627l-626 627l35 35l567 -576v1749h49z" />
    <glyph glyph-name="uni2196" unicode="&#x2196;" horiz-adv-x="1966" 
d="M1630 -76l-1235 1237l4 -809h-49v887h887v-49l-809 4l1237 -1235z" />
    <glyph glyph-name="uni2197" unicode="&#x2197;" horiz-adv-x="1966" 
d="M334 -41l1239 1237l-811 -6v49h887v-887h-50l7 811l-1237 -1239z" />
    <glyph glyph-name="uni2198" unicode="&#x2198;" horiz-adv-x="1966" 
d="M369 1255l1237 -1239l-7 811h50v-886h-887v49l811 -6l-1239 1237z" />
    <glyph glyph-name="uni2199" unicode="&#x2199;" horiz-adv-x="1966" 
d="M1665 1221l-1239 -1237l811 6v-49h-887v886h49l-6 -811l1237 1239z" />
    <glyph glyph-name="partialdiff" unicode="&#x2202;" horiz-adv-x="1120" 
d="M104 379q0 178 67.5 323t185.5 226.5t264 81.5t246 -82.5t120 -218.5q14 101 14 243q-1 65 -11 127t-35 125.5t-63 110.5t-99.5 76.5t-139.5 29.5q-132 0 -268 -61l-16 41q144 65 284 65q90 0 161 -32t114 -83t71 -121t39 -139t11 -143q0 -241 -44.5 -430t-123 -306
t-180 -177t-220.5 -60q-169 0 -273 112t-104 292zM152 381q0 -161 92 -261t239 -100q98 0 186 49.5t150 133t98.5 196.5t36.5 236q0 146 -91.5 237t-239.5 91q-132 0 -240 -75t-169.5 -208.5t-61.5 -298.5z" />
    <glyph glyph-name="uni2206" unicode="&#x2206;" horiz-adv-x="1331" 
d="M2 0l4 33l791 1343h49l317 -1345l-6 -31h-1155zM813 1311l-745 -1266h1042z" />
    <glyph glyph-name="product" unicode="&#x220f;" horiz-adv-x="1576" 
d="M78 -426l330 1868h1097l-329 -1868h-52l322 1823h-995l-322 -1823h-51z" />
    <glyph glyph-name="summation" unicode="&#x2211;" horiz-adv-x="1280" 
d="M-51 -426l6 35l876 919l-528 875l8 39h1041l-9 -45h-976l516 -856l-6 -33l-846 -889h1032l-8 -45h-1106z" />
    <glyph glyph-name="minus" unicode="&#x2212;" 
d="M113 567v45h987v-45h-987z" />
    <glyph glyph-name="uni2215" unicode="&#x2215;" horiz-adv-x="393" 
d="M-420 14l1272 1381l31 -33l-1272 -1380z" />
    <glyph glyph-name="radical" unicode="&#x221a;" horiz-adv-x="1316" 
d="M1253 1436l-551 -1862h-53l-262 768l-360 -115l-13 45l404 127l256 -757l534 1806z" />
    <glyph glyph-name="infinity" unicode="&#x221e;" horiz-adv-x="1544" 
d="M104 524q0 184 103.5 307t257.5 123q111 0 190 -75.5t140 -243.5q106 166 202 242.5t205 76.5q120 0 195.5 -83t75.5 -216q0 -184 -103.5 -307t-257.5 -123q-111 0 -190 76t-140 244q-106 -166 -202.5 -243t-204.5 -77q-120 0 -195.5 83t-75.5 216zM152 526
q0 -115 62.5 -185.5t164.5 -70.5q96 0 186.5 79t196.5 245q-60 168 -128.5 241.5t-166.5 73.5q-133 0 -224 -111t-91 -272zM1425 653q0 115 -62.5 185.5t-164.5 70.5q-96 0 -186.5 -78.5t-196.5 -244.5q60 -168 128.5 -242t166.5 -74q133 0 224 111t91 272z" />
    <glyph glyph-name="integral" unicode="&#x222b;" horiz-adv-x="790" 
d="M375 1075q0 -177 49 -565.5t49 -568.5q0 -181 -78 -286.5t-207 -105.5q-66 0 -139 29l17 43q66 -27 120 -27q107 0 172.5 93.5t65.5 253.5q0 176 -49 565.5t-49 568.5q0 181 77.5 286t206.5 105q70 0 140 -28l-17 -43q-63 26 -121 26q-107 0 -172 -93t-65 -253z" />
    <glyph glyph-name="approxequal" unicode="&#x2248;" 
d="M170 324l-29 34q114 105 267 105q69 0 135.5 -24.5t131 -49t130.5 -24.5q130 0 237 94l29 -37q-117 -105 -266 -105q-55 0 -110 15.5t-92.5 34t-90 34t-104.5 15.5q-129 0 -238 -92zM170 721l-29 37q116 104 267 104q69 0 135.5 -24.5t131 -49t130.5 -24.5q132 0 237 92
l29 -35q-113 -104 -266 -104q-69 0 -136 24.5t-131.5 49t-129.5 24.5q-131 0 -238 -94z" />
    <glyph glyph-name="notequal" unicode="&#x2260;" 
d="M143 766v45h547l160 317l41 -20l-150 -297h326v-45h-350l-172 -352h522v-45h-547l-158 -318l-40 21l147 297h-326v45h349l176 352h-525z" />
    <glyph glyph-name="lessequal" unicode="&#x2264;" 
d="M143 0v45h924v-45h-924zM143 676v45l910 426l20 -43l-866 -406l866 -405l-20 -43z" />
    <glyph glyph-name="greaterequal" unicode="&#x2265;" 
d="M1067 721v-45l-909 -426l-19 43l867 405l-867 406l19 43zM143 0v45h924v-45h-924z" />
    <glyph glyph-name="uni22C5" unicode="&#x22c5;" horiz-adv-x="464" 
d="M174 498q0 28 19 46.5t47 18.5q22 0 35.5 -14.5t13.5 -36.5q0 -26 -19 -44.5t-47 -18.5q-22 0 -35.5 13.5t-13.5 35.5z" />
    <glyph glyph-name="lozenge" unicode="&#x25ca;" 
d="M602 0l-442 688l442 688h45l443 -688l-443 -688h-45zM625 1327l-410 -639l410 -643l409 643z" />
    <glyph glyph-name="zero.lprop" unicode="&#xe010;" horiz-adv-x="1312" 
d="M180 477q0 257 78.5 468t220 333.5t318.5 122.5q197 0 301 -132.5t104 -369.5q0 -257 -78 -468t-219 -333.5t-317 -122.5q-198 0 -303 132.5t-105 369.5zM229 477q0 -217 91.5 -337t267.5 -120q162 0 292 116.5t201.5 317t71.5 445.5q0 218 -90.5 337.5t-267.5 119.5
q-162 0 -292 -116.5t-202 -317t-72 -445.5z" />
    <glyph glyph-name="one.lprop" unicode="&#xe011;" horiz-adv-x="790" 
d="M399 0l230 1319l-441 -236l-18 43l473 250h47l-241 -1376h-50z" />
    <glyph glyph-name="two.lprop" unicode="&#xe012;" horiz-adv-x="1050" 
d="M-23 0l7 37l700 588q121 99 186.5 208.5t65.5 208.5q0 146 -84.5 230t-235.5 84q-158 0 -364 -111l-21 41q210 115 392 115q169 0 265.5 -95t96.5 -259q0 -110 -68.5 -228t-195.5 -223l-660 -551h766l-8 -45h-842z" />
    <glyph glyph-name="three.lprop" unicode="&#xe013;" horiz-adv-x="1050" 
d="M391 682l8 45h72q195 0 323 99t128 251q0 124 -84.5 201.5t-219.5 77.5q-166 0 -350 -72l-16 43q193 74 371 74q155 0 251.5 -89.5t96.5 -232.5q0 -146 -101.5 -248.5t-251.5 -130.5q120 -23 190.5 -110t70.5 -211q0 -172 -131 -288t-322 -116q-206 0 -422 115l25 43
q209 -113 397 -113q171 0 287 103t116 256q0 140 -100.5 221.5t-277.5 81.5h-60z" />
    <glyph glyph-name="four.lprop" unicode="&#xe014;" horiz-adv-x="1148" 
d="M680 0l61 356h-700l6 41l875 979h47l-172 -975h239l-6 -45h-239l-64 -356h-47zM109 401h639l159 895z" />
    <glyph glyph-name="five.lprop" unicode="&#xe015;" horiz-adv-x="1050" 
d="M1042 1376l-8 -45h-663l-97 -549q122 17 215 17q198 0 314.5 -100.5t116.5 -270.5q0 -193 -141.5 -323t-350.5 -130q-202 0 -403 131l24 41q186 -127 379 -127q189 0 315.5 117t126.5 291q0 152 -104 240t-285 88q-123 0 -262 -25l113 645h710z" />
    <glyph glyph-name="six.lprop" unicode="&#xe016;" horiz-adv-x="1181" 
d="M172 444q0 264 86 483.5t236 346.5t331 127q162 0 316 -92l-23 -39q-150 86 -295 86q-149 0 -277 -97.5t-212.5 -277t-106.5 -410.5q69 136 189 210.5t272 74.5q164 0 266.5 -104t102.5 -275q0 -210 -139.5 -356t-339.5 -146q-192 0 -299 123t-107 346zM227 395
q0 -167 97.5 -271t255.5 -104q179 0 303.5 132.5t124.5 322.5q0 154 -90 245t-236 91q-187 0 -320 -123.5t-135 -292.5z" />
    </font>
</defs>
</svg>
