<?xml version="1.0" standalone="no"?>
<!DOCTYPE svg PUBLIC "-//W3C//DTD SVG 1.1//EN" "http://www.w3.org/Graphics/SVG/1.1/DTD/svg11.dtd" >
<svg xmlns="http://www.w3.org/2000/svg" xmlns:xlink="http://www.w3.org/1999/xlink" version="1.1">
<metadata>
Created by FontForge 20170731 at Thu Aug  6 08:49:53 2020
 By Aleksey,,,
Copyright (c) 2012 by Fontsmith Ltd. All rights reserved.
</metadata>
<defs>
<font id="FSElliotPro-Heavy" horiz-adv-x="1265" >
  <font-face 
    font-family="FS Elliot Pro Heavy"
    font-weight="900"
    font-stretch="normal"
    units-per-em="2048"
    panose-1="2 0 5 3 5 0 0 2 0 4"
    ascent="1536"
    descent="-512"
    x-height="1014"
    cap-height="1376"
    bbox="-410 -657 2693 2064"
    underline-thickness="102"
    underline-position="-307"
    unicode-range="U+000D-FB04"
  />
<missing-glyph horiz-adv-x="1024" 
d="M25 0v1376h974v-1376h-974zM180 1278l332 -500l332 500h-664zM123 1188v-1000l332 500zM901 1188l-332 -500l332 -500v1000zM844 98l-332 500l-332 -500h664z" />
    <glyph glyph-name="f_b" unicode="fb" horiz-adv-x="2039" 
d="M205 0v741h-170v273h170v47q0 179 136.5 292t352.5 113q221 0 549 -55v-469q113 96 270 96q207 0 339.5 -149t132.5 -383q0 -233 -132.5 -382t-339.5 -149q-182 0 -301 119l-45 -94h-284v1174q-85 14 -160 14q-71 0 -114.5 -39.5t-43.5 -101.5v-33h209v-273h-209v-741
h-360zM1618 506q0 110 -56 180t-145 70q-80 0 -131 -55.5t-51 -141.5v-106q0 -85 51.5 -140t130.5 -55q89 0 145 69.5t56 178.5z" />
    <glyph glyph-name="f_f_b" unicode="ffb" horiz-adv-x="2750" 
d="M205 0v741h-170v273h170v94q0 162 105 260t276 98q127 0 252 -32l-45 -267q-70 13 -119 13q-50 0 -79.5 -29t-29.5 -80v-57h350v47q0 179 136 292t352 113q224 0 549 -55v-469q109 89 258 92q72 3 133 -14q155 -39 250.5 -173t99.5 -325q0 -83 -14 -149
q-34 -179 -158.5 -288.5t-298.5 -109.5q-182 0 -301 119l-45 -94h-285v1174q-85 14 -157 14t-115 -39.5t-43 -101.5v-33h207v-273h-207v-741h-361v741h-350v-741h-360zM2327 506q0 110 -56 180t-145 70q-80 0 -131 -55.5t-51 -141.5v-106q0 -85 51.5 -140t130.5 -55
q89 0 145 69.5t56 178.5z" />
    <glyph glyph-name="f_h" unicode="fh" horiz-adv-x="2039" 
d="M205 0v741h-170v273h170v47q0 179 136.5 292t352.5 113q221 0 549 -55v-485q118 112 301 112q180 0 293 -111t113 -286v-641h-361v582q0 71 -44.5 116t-114.5 45q-82 0 -134.5 -55.5t-52.5 -144.5v-543h-360v1174q-85 14 -160 14q-71 0 -114.5 -39.5t-43.5 -101.5v-33
h209v-273h-209v-741h-360z" />
    <glyph glyph-name="f_f_h" unicode="ffh" horiz-adv-x="2750" 
d="M205 0v741h-170v273h170v94q0 162 105 260t276 98q127 0 252 -32l-45 -267q-70 13 -119 13q-50 0 -79.5 -29t-29.5 -80v-57h350v47q0 179 136 292t352 113q224 0 549 -55v-485q118 112 301 112q180 0 292.5 -111t112.5 -286v-641h-360v582q0 71 -45 116t-115 45
q-82 0 -134 -55.5t-52 -144.5v-543h-361v1174q-85 14 -157 14t-115 -39.5t-43 -101.5v-33h207v-273h-207v-741h-361v741h-350v-741h-360z" />
    <glyph glyph-name="f_j" unicode="fj" horiz-adv-x="1349" 
d="M205 0v741h-170v273h170v47q0 179 132.5 292t342.5 113q181 0 381 -57l-62 -270q-158 49 -260 49q-79 0 -126.5 -39t-47.5 -102v-33h678v-1106q0 -161 -105.5 -260t-275.5 -99q-122 0 -254 33l47 266q65 -12 117 -12q51 0 81 29t30 80v796h-318v-741h-360z" />
    <glyph glyph-name="f_f_j" unicode="ffj" horiz-adv-x="2058" 
d="M205 0v741h-170v273h170v94q0 161 105 259.5t276 98.5q127 0 252 -32l-45 -267q-70 13 -119 13q-50 0 -79.5 -29t-29.5 -80v-57h350v47q0 179 132 292t342 113q180 0 380 -57l-61 -270q-155 49 -260 49q-79 0 -125.5 -38.5t-46.5 -102.5v-33h676v-1106
q0 -161 -105.5 -260t-275.5 -99q-123 0 -252 33l45 266q64 -12 119 -12q50 0 79 29t29 80v796h-315v-741h-361v741h-350v-741h-360z" />
    <glyph glyph-name="f_k" unicode="fk" horiz-adv-x="1906" 
d="M205 0v741h-170v273h170v47q0 179 136.5 292t352.5 113q237 0 533 -55v-764l293 367h405l-414 -475l431 -539h-414l-250 328l-51 -58v-270h-344v1174q-85 14 -160 14q-71 0 -114.5 -39.5t-43.5 -101.5v-33h209v-273h-209v-741h-360z" />
    <glyph glyph-name="f_f_k" unicode="ffk" horiz-adv-x="2615" 
d="M205 0v741h-170v273h170v94q0 161 105 259.5t276 98.5q127 0 252 -32l-45 -267q-70 13 -119 13q-50 0 -79.5 -29t-29.5 -80v-57h350v47q0 179 136 292t352 113q236 0 532 -55v-764l293 367h408l-416 -475l432 -539h-414l-251 328l-52 -58v-270h-344v1174q-85 14 -157 14
t-115 -39.5t-43 -101.5v-33h207v-273h-207v-741h-361v741h-350v-741h-360z" />
    <glyph glyph-name="f_f" unicode="ff" horiz-adv-x="1519" 
d="M205 0v741h-170v273h170v94q0 161 105 259.5t276 98.5q127 0 252 -32l-45 -267q-70 13 -119 13q-50 0 -79.5 -29t-29.5 -80v-57h350v94q0 161 104.5 259.5t274.5 98.5q126 0 254 -32l-47 -267q-70 13 -117 13q-51 0 -79.5 -29t-28.5 -80v-57h207v-273h-207v-741h-361v741
h-350v-741h-360z" />
    <glyph glyph-name="fi" unicode="fi" horiz-adv-x="1349" 
d="M205 0v741h-170v273h170v47q0 179 132.5 292t342.5 113q181 0 381 -57l-62 -270q-158 49 -260 49q-79 0 -126.5 -39t-47.5 -102v-33h678v-1014h-360v741h-318v-741h-360z" />
    <glyph glyph-name="fl" unicode="fl" horiz-adv-x="1447" 
d="M205 0v741h-170v273h170v47q0 180 136 292.5t353 112.5q221 0 549 -55v-1069q0 -37 21.5 -58.5t58.5 -21.5q26 0 84 8l37 -270q-116 -25 -211 -25q-156 0 -253 92.5t-97 237.5v869q-88 14 -160 14q-71 0 -114.5 -39.5t-43.5 -101.5v-33h209v-273h-209v-741h-360z" />
    <glyph glyph-name="f_f_i" unicode="ffi" horiz-adv-x="2058" 
d="M205 0v741h-170v273h170v94q0 161 105 259.5t276 98.5q127 0 252 -32l-45 -267q-70 13 -119 13q-50 0 -79.5 -29t-29.5 -80v-57h350v47q0 179 132 292t342 113q180 0 380 -57l-61 -270q-155 49 -260 49q-79 0 -125.5 -38.5t-46.5 -102.5v-33h676v-1014h-361v741h-315
v-741h-361v741h-350v-741h-360z" />
    <glyph glyph-name="f_f_l" unicode="ffl" horiz-adv-x="2156" 
d="M205 0v741h-170v273h170v94q0 161 105 259.5t276 98.5q127 0 252 -32l-45 -267q-70 13 -119 13q-50 0 -79.5 -29t-29.5 -80v-57h350v47q0 180 135.5 292.5t352.5 112.5q224 0 549 -55v-1069q0 -37 21.5 -58.5t58.5 -21.5q26 0 84 8l38 -270q-119 -25 -212 -25
q-156 0 -253.5 92.5t-97.5 237.5v869q-85 14 -157 14t-115 -39.5t-43 -101.5v-33h207v-273h-207v-741h-361v741h-350v-741h-360z" />
    <glyph glyph-name=".notdef" horiz-adv-x="1024" 
d="M25 0v1376h974v-1376h-974zM180 1278l332 -500l332 500h-664zM123 1188v-1000l332 500zM901 1188l-332 -500l332 -500v1000zM844 98l-332 500l-332 -500h664z" />
    <glyph glyph-name=".null" horiz-adv-x="0" 
 />
    <glyph glyph-name=".null" horiz-adv-x="0" 
 />
    <glyph glyph-name="nonmarkingreturn" horiz-adv-x="682" 
 />
    <glyph glyph-name="CR" unicode="&#xd;" horiz-adv-x="491" 
 />
    <glyph glyph-name="space" unicode=" " horiz-adv-x="491" 
 />
    <glyph glyph-name="exclam" unicode="!" horiz-adv-x="610" 
d="M156 483l-31 893h360l-30 -893h-299zM100 182q0 89 58 147t147 58q90 0 147.5 -57.5t57.5 -147.5q0 -91 -57 -149t-148 -58q-94 0 -149.5 57.5t-55.5 149.5z" />
    <glyph glyph-name="quotedbl" unicode="&#x22;" horiz-adv-x="989" 
d="M121 834l-31 542h332l-31 -542h-270zM598 834l-31 542h332l-31 -542h-270z" />
    <glyph glyph-name="numbersign" unicode="#" horiz-adv-x="1370" 
d="M33 276v273h213l53 278h-162v273h213l60 299l266 -37l-49 -262h276l58 299l266 -37l-49 -262h159v-273h-213l-53 -278h162v-273h-213l-59 -299l-267 37l49 262h-274l-59 -299l-267 37l50 262h-160zM573 827l-53 -278h277l53 278h-277z" />
    <glyph glyph-name="dollar" unicode="$" horiz-adv-x="1179" 
d="M440 -262v346q-173 19 -340 84l84 278q216 -86 375 -86q152 0 152 95q0 27 -26 45.5t-68 28.5t-96.5 23t-110.5 26t-110.5 41t-96.5 65t-68 100.5t-26 145.5q0 133 90 228t241 128v352h299v-346q140 -20 299 -80l-84 -278q-195 82 -333 82q-70 0 -107 -23t-37 -63
q0 -25 26 -42t68 -26t96.5 -21t110.5 -25t110.5 -41.5t96.5 -66.5t68 -103.5t26 -149.5q0 -138 -92 -235t-248 -130v-352h-299z" />
    <glyph glyph-name="percent" unicode="%" horiz-adv-x="1769" 
d="M942 344q0 161 109 265t278 104q167 0 276 -104t109 -265t-109 -265t-276 -104q-169 0 -278 104t-109 265zM1206 344q0 -74 34 -119t89 -45q54 0 87.5 45.5t33.5 118.5t-33.5 118.5t-87.5 45.5q-55 0 -89 -45t-34 -119zM55 1032q0 161 108 265t277 104q168 0 277.5 -104
t109.5 -265t-109.5 -264.5t-277.5 -103.5q-169 0 -277 103.5t-108 264.5zM319 1032q0 -73 33.5 -118.5t87.5 -45.5q55 0 89 45t34 119t-34 119t-89 45q-54 0 -87.5 -45.5t-33.5 -118.5zM279 68l1032 1376l180 -135l-1032 -1377z" />
    <glyph glyph-name="ampersand" unicode="&#x26;" horiz-adv-x="1368" 
d="M1018 0l-94 102q-179 -127 -369 -127q-225 0 -369.5 116t-144.5 300q0 117 72 214t204 159q-129 138 -129 276q0 158 123 259.5t314 101.5q188 0 307 -93t119 -243q0 -235 -279 -369l180 -194q36 70 39 184h301q-9 -239 -135 -410l252 -276h-391zM379 420q0 -74 63 -124
t144 -50q85 0 157 53l-264 289q-47 -31 -73.5 -75t-26.5 -93zM625 1130q-51 0 -83 -29t-32 -75q0 -59 94 -141q131 68 131 147q0 43 -30.5 70.5t-79.5 27.5z" />
    <glyph glyph-name="quotesingle" unicode="'" horiz-adv-x="512" 
d="M121 834l-31 542h332l-31 -542h-270z" />
    <glyph glyph-name="parenleft" unicode="(" horiz-adv-x="745" 
d="M106 590q0 269 96 514.5t279 443.5l254 -166q-297 -341 -297 -792q0 -452 297 -793l-254 -166q-183 196 -279 442.5t-96 516.5z" />
    <glyph glyph-name="parenright" unicode=")" horiz-adv-x="745" 
d="M637 590q0 -269 -95.5 -515.5t-277.5 -443.5l-256 166q299 340 299 793q0 452 -299 792l256 166q182 -196 277.5 -441.5t95.5 -516.5z" />
    <glyph glyph-name="asterisk" unicode="*" horiz-adv-x="1042" 
d="M641 1376v-286l272 88l76 -228l-274 -90l170 -233l-193 -144l-170 244l-172 -244l-192 144l170 233l-275 90l76 228l272 -88v286h240z" />
    <glyph glyph-name="plus" unicode="+" horiz-adv-x="1179" 
d="M72 440v299h368v369h299v-369h369v-299h-369v-368h-299v368h-368z" />
    <glyph glyph-name="comma" unicode="," horiz-adv-x="577" 
d="M76 188q0 93 60 153t153 60q95 0 155 -68t60 -177q0 -142 -79 -270t-220 -214l-107 138q105 88 148 182q-76 10 -123 64.5t-47 131.5z" />
    <glyph glyph-name="hyphen" unicode="-" horiz-adv-x="655" 
d="M35 383v270h586v-270h-586z" />
    <glyph glyph-name="period" unicode="." horiz-adv-x="577" 
d="M76 188q0 93 60 153t153 60t153 -60t60 -153q0 -92 -60.5 -152.5t-152.5 -60.5t-152.5 60.5t-60.5 152.5z" />
    <glyph glyph-name="slash" unicode="/" horiz-adv-x="786" 
d="M-53 -231l608 1732l285 -90l-609 -1733z" />
    <glyph glyph-name="zero" unicode="0" horiz-adv-x="1179" 
d="M41 688q0 339 142.5 526t406.5 187t406.5 -187t142.5 -526t-142.5 -526t-406.5 -187t-406.5 187t-142.5 526zM379 688q0 -200 55 -310t156 -110t156 110t55 310t-55 310t-156 110t-156 -110t-55 -310z" />
    <glyph glyph-name="one" unicode="1" horiz-adv-x="1179" 
d="M510 0v1030l-277 -156l-120 242l456 260h301v-1376h-360z" />
    <glyph glyph-name="two" unicode="2" horiz-adv-x="1179" 
d="M86 0v225l442 443q144 144 144 252q0 79 -53 129.5t-136 50.5q-48 0 -100 -16.5t-86.5 -35t-101.5 -57.5l-136 264q259 146 498 146q207 0 337 -120.5t130 -309.5q0 -221 -203 -424l-260 -260h479v-287h-954z" />
    <glyph glyph-name="three" unicode="3" horiz-adv-x="1179" 
d="M352 575v259h109q90 0 146.5 41t56.5 106q0 60 -41.5 96.5t-110.5 36.5q-142 0 -324 -82l-112 264q241 105 495 105q200 0 326.5 -106.5t126.5 -276.5q0 -105 -51 -185.5t-139 -119.5q98 -37 160.5 -130t62.5 -208q0 -178 -136.5 -289t-349.5 -111q-280 0 -528 113
l113 264q188 -90 350 -90q79 0 130.5 41.5t51.5 108.5q0 73 -62.5 118t-164.5 45h-109z" />
    <glyph glyph-name="four" unicode="4" horiz-adv-x="1179" 
d="M653 0v270h-616v242l600 864h346v-833h156v-273h-156v-270h-330zM369 543h284v411z" />
    <glyph glyph-name="five" unicode="5" horiz-adv-x="1179" 
d="M1010 1376v-286h-523v-224q27 2 84 2q221 0 354.5 -119.5t133.5 -318.5q0 -197 -150 -326t-383 -129q-242 0 -452 129l137 265q153 -101 287 -101q96 0 152.5 45t56.5 123q0 88 -66.5 136.5t-187.5 48.5q-132 0 -281 -33v788h838z" />
    <glyph glyph-name="six" unicode="6" horiz-adv-x="1179" 
d="M59 635q0 361 168 563.5t461 202.5q217 0 399 -96l-120 -256q-143 73 -265 73q-130 0 -212.5 -78.5t-92.5 -218.5q126 95 285 95q201 0 329 -126.5t128 -324.5q0 -217 -145 -355.5t-371 -138.5q-264 0 -414 175.5t-150 484.5zM414 467q0 -94 54.5 -153.5t139.5 -59.5
q86 0 142.5 57.5t56.5 143.5q0 85 -54 138.5t-139 53.5q-88 0 -144 -50.5t-56 -129.5z" />
    <glyph glyph-name="seven" unicode="7" horiz-adv-x="1179" 
d="M195 0l471 1090h-576v286h967v-225l-486 -1151h-376z" />
    <glyph glyph-name="eight" unicode="8" horiz-adv-x="1179" 
d="M590 834q168 45 168 155q0 62 -47.5 101.5t-120.5 39.5t-120.5 -39.5t-47.5 -101.5q0 -110 168 -155zM43 381q0 107 59.5 192t167.5 132q-90 45 -142 126t-52 181q0 175 142 282t372 107t372 -107t142 -282q0 -100 -52.5 -181t-142.5 -126q108 -50 168 -134t60 -190
q0 -183 -150.5 -294.5t-396.5 -111.5t-396.5 111.5t-150.5 294.5zM590 575q-187 -51 -187 -172q0 -70 52.5 -113.5t134.5 -43.5t134 43.5t52 113.5q0 121 -186 172z" />
    <glyph glyph-name="nine" unicode="9" horiz-adv-x="1179" 
d="M1120 741q0 -361 -167.5 -563.5t-460.5 -202.5q-216 0 -400 97l121 256q145 -74 264 -74q130 0 212.5 78.5t92.5 218.5q-124 -94 -284 -94q-201 0 -329 126t-128 324q0 217 145 355.5t371 138.5q264 0 413.5 -175.5t149.5 -484.5zM766 909q0 93 -55 153t-140 60
q-86 0 -142 -57t-56 -143q0 -85 53.5 -139t138.5 -54q88 0 144.5 50.5t56.5 129.5z" />
    <glyph glyph-name="colon" unicode=":" horiz-adv-x="610" 
d="M92 188q0 93 60 153t153 60t153 -60t60 -153q0 -92 -60.5 -152.5t-152.5 -60.5t-152.5 60.5t-60.5 152.5zM92 823q0 93 60 153t153 60t153 -60t60 -153q0 -92 -60.5 -152.5t-152.5 -60.5t-152.5 60.5t-60.5 152.5z" />
    <glyph glyph-name="semicolon" unicode=";" horiz-adv-x="610" 
d="M92 188q0 93 60 153t153 60q95 0 155 -68t60 -177q0 -142 -79 -270t-220 -214l-106 138q103 86 147 182q-76 10 -123 64.5t-47 131.5zM92 823q0 93 60 153t153 60t153 -60t60 -153q0 -92 -60.5 -152.5t-152.5 -60.5t-152.5 60.5t-60.5 152.5z" />
    <glyph glyph-name="less" unicode="&#x3c;" horiz-adv-x="1179" 
d="M72 440v299l946 426l121 -284l-662 -291l662 -291l-121 -285z" />
    <glyph glyph-name="equal" unicode="=" horiz-adv-x="1179" 
d="M72 696v301h1036v-301h-1036zM72 182v301h1036v-301h-1036z" />
    <glyph glyph-name="greater" unicode="&#x3e;" horiz-adv-x="1179" 
d="M1108 739v-299l-946 -426l-121 285l661 291l-661 291l121 284z" />
    <glyph glyph-name="question" unicode="?" horiz-adv-x="976" 
d="M606 483h-301v45q0 65 25 120.5t60.5 94t71 73.5t60.5 73.5t25 77.5q0 59 -42.5 96t-107.5 37q-48 0 -99.5 -21.5t-125.5 -64.5l-135 256q200 131 420 131q198 0 324 -107.5t126 -275.5q0 -82 -27.5 -152t-69 -118t-83 -88.5t-75.5 -81t-42 -78.5zM250 188
q0 90 57.5 144.5t149.5 54.5q90 0 147.5 -54.5t57.5 -144.5t-58.5 -151.5t-146.5 -61.5q-91 0 -149 61t-58 152z" />
    <glyph glyph-name="at" unicode="@" horiz-adv-x="2025" 
d="M57 506q0 200 73 372.5t202 294t311.5 190.5t394.5 69q202 0 375.5 -60.5t295 -166.5t190.5 -257t69 -327q0 -248 -133 -405t-344 -157q-187 0 -279 119q-131 -119 -307 -119t-289.5 126.5t-113.5 320.5t113.5 320t289.5 126q140 0 234 -82l37 62h292v-537
q0 -35 18.5 -57.5t49.5 -22.5q59 0 96 76t37 199q0 256 -176 416.5t-455 160.5q-147 0 -273.5 -49t-216 -136t-140 -210t-50.5 -266q0 -290 190.5 -475t489.5 -185q221 0 486 148l135 -234q-331 -178 -621 -178q-214 0 -396.5 68.5t-311 189.5t-201 293t-72.5 373zM862 506
q0 -76 38 -124t97 -48q53 0 86 38.5t33 96.5v74q0 59 -33 97t-86 38q-59 0 -97 -48t-38 -124z" />
    <glyph glyph-name="A" unicode="A" horiz-adv-x="1417" 
d="M-23 0l560 1376h346l557 -1376h-375l-102 279h-506l-103 -279h-377zM709 969l-156 -420h311z" />
    <glyph glyph-name="B" unicode="B" horiz-adv-x="1370" 
d="M141 0v1376h641q206 0 335.5 -104.5t129.5 -270.5q0 -95 -46.5 -168.5t-123.5 -113.5q102 -41 160.5 -128.5t58.5 -199.5q0 -172 -135 -281.5t-346 -109.5h-674zM502 584v-314h254q78 0 126 43.5t48 114.5q0 70 -48 113t-126 43h-254zM502 1106v-281h229q69 0 112.5 38.5
t43.5 101.5t-43.5 102t-112.5 39h-229z" />
    <glyph glyph-name="C" unicode="C" horiz-adv-x="1341" 
d="M57 688q0 207 93 369.5t261 253t382 90.5q270 0 522 -162l-150 -248q-166 113 -321 113q-180 0 -292 -115.5t-112 -300.5t112 -300.5t292 -115.5q155 0 321 113l150 -248q-252 -162 -522 -162q-214 0 -382 91t-261 253.5t-93 368.5z" />
    <glyph glyph-name="D" unicode="D" horiz-adv-x="1515" 
d="M141 0v1376h600q321 0 520 -190.5t199 -497.5q0 -305 -199.5 -496.5t-519.5 -191.5h-600zM1077 688q0 177 -107 289.5t-274 112.5h-180v-803h180q167 0 274 112t107 289z" />
    <glyph glyph-name="E" unicode="E" horiz-adv-x="1243" 
d="M141 0v1376h998v-278h-623v-258h557v-271h-557v-290h655v-279h-1030z" />
    <glyph glyph-name="F" unicode="F" horiz-adv-x="1210" 
d="M141 0v1376h998v-286h-623v-299h557v-285h-557v-506h-375z" />
    <glyph glyph-name="G" unicode="G" horiz-adv-x="1482" 
d="M1378 805v-709q-290 -121 -553 -121q-223 0 -398 90.5t-272.5 253t-97.5 369.5q0 155 56 287.5t154.5 226t238.5 146.5t303 53q265 0 539 -146l-136 -249q-208 108 -358 108q-190 0 -310 -119t-120 -307q0 -191 119.5 -308.5t310.5 -117.5q95 0 180 31v239h-274v273h618z
" />
    <glyph glyph-name="H" unicode="H" horiz-adv-x="1613" 
d="M141 0v1376h375v-528h582v528h375v-1376h-375v561h-582v-561h-375z" />
    <glyph glyph-name="I" unicode="I" horiz-adv-x="657" 
d="M141 0v1376h375v-1376h-375z" />
    <glyph glyph-name="J" unicode="J" horiz-adv-x="944" 
d="M803 1376v-952q0 -201 -130 -325t-339 -124q-154 0 -314 41l46 285q113 -25 178 -25q80 0 132 51.5t52 133.5v915h375z" />
    <glyph glyph-name="K" unicode="K" horiz-adv-x="1429" 
d="M141 0v1376h361v-581l508 581h430l-586 -643l610 -733h-436l-424 514l-102 -111v-403h-361z" />
    <glyph glyph-name="L" unicode="L" horiz-adv-x="1112" 
d="M141 0v1376h375v-1089h559v-287h-934z" />
    <glyph glyph-name="M" unicode="M" horiz-adv-x="1794" 
d="M141 0v1376h361l395 -547l395 547h361v-1376h-344v866l-310 -428h-204l-308 428v-866h-346z" />
    <glyph glyph-name="N" unicode="N" horiz-adv-x="1613" 
d="M141 0v1376h361l626 -866v866h345v-1376h-361l-625 866v-866h-346z" />
    <glyph glyph-name="O" unicode="O" horiz-adv-x="1613" 
d="M57 688q0 155 55.5 287.5t154 226t238 146.5t302.5 53t303 -53t238.5 -146.5t154.5 -226t56 -287.5t-56 -287.5t-154.5 -226t-238.5 -146.5t-303 -53t-302.5 53t-238 146.5t-154 226t-55.5 287.5zM440 688q0 -185 102.5 -302.5t264.5 -117.5q163 0 266 117.5t103 302.5
t-103 302.5t-266 117.5q-162 0 -264.5 -117.5t-102.5 -302.5z" />
    <glyph glyph-name="P" unicode="P" horiz-adv-x="1304" 
d="M141 0v1376h609q226 0 370 -133t144 -342t-144 -343t-370 -134h-248v-424h-361zM502 1090v-379h188q92 0 149.5 52.5t57.5 137.5q0 82 -57.5 135.5t-149.5 53.5h-188z" />
    <glyph glyph-name="Q" unicode="Q" horiz-adv-x="1613" 
d="M57 688q0 155 55.5 287.5t154 226t238 146.5t302.5 53t303 -53t238.5 -146.5t154.5 -226t56 -287.5q0 -177 -71 -321t-198 -240l271 -193l-181 -227l-391 289q-100 -21 -182 -21q-163 0 -302.5 53t-238 146.5t-154 226t-55.5 287.5zM440 688q0 -185 102.5 -302.5
t264.5 -117.5q163 0 266 117.5t103 302.5t-103 302.5t-266 117.5q-162 0 -264.5 -117.5t-102.5 -302.5z" />
    <glyph glyph-name="R" unicode="R" horiz-adv-x="1370" 
d="M141 0v1376h623q220 0 360 -126.5t140 -325.5q0 -149 -78 -259.5t-211 -148.5l352 -516h-405l-293 457h-127v-457h-361zM502 1090v-347h203q84 0 137 48t53 127q0 76 -53 124t-137 48h-203z" />
    <glyph glyph-name="S" unicode="S" horiz-adv-x="1222" 
d="M72 983q0 186 151 302t389 116q237 0 498 -98l-84 -279q-212 84 -385 84q-93 0 -147 -33t-54 -92q0 -35 24.5 -60t66 -40.5t95.5 -28.5t114 -27.5t119.5 -33.5t113.5 -51t95.5 -75.5t66 -111.5t24.5 -154q0 -190 -152.5 -308t-394.5 -118q-266 0 -549 115l84 279
q265 -101 435 -101q98 0 153.5 35t55.5 98q0 36 -24.5 62.5t-66 43.5t-95.5 30.5t-114 29t-119.5 34.5t-113.5 50.5t-95.5 73.5t-66 108t-24.5 150z" />
    <glyph glyph-name="T" unicode="T" horiz-adv-x="1243" 
d="M434 0v1090h-399v286h1171v-286h-397v-1090h-375z" />
    <glyph glyph-name="U" unicode="U" horiz-adv-x="1613" 
d="M1489 1376v-823q0 -170 -87.5 -302t-242.5 -204t-352 -72t-352 72t-242.5 204t-87.5 302v823h375v-809q0 -133 86 -216t221 -83q137 0 222 83t85 216v809h375z" />
    <glyph glyph-name="V" unicode="V" horiz-adv-x="1417" 
d="M1440 1376l-557 -1376h-346l-560 1376h392l340 -925l342 925h389z" />
    <glyph glyph-name="W" unicode="W" horiz-adv-x="2105" 
d="M2103 1376l-434 -1376h-364l-252 926l-250 -926h-365l-436 1376h375l252 -925l252 925h346l250 -925l252 925h374z" />
    <glyph glyph-name="X" unicode="X" horiz-adv-x="1433" 
d="M-18 0l495 705l-471 671h412l299 -438l299 438h414l-474 -671l498 -705h-422l-315 471l-316 -471h-419z" />
    <glyph glyph-name="Y" unicode="Y" horiz-adv-x="1298" 
d="M461 0v532l-500 844h406l282 -512l283 512h405l-499 -844v-532h-377z" />
    <glyph glyph-name="Z" unicode="Z" horiz-adv-x="1320" 
d="M63 0v211l689 879h-664v286h1145v-211l-688 -878h712v-287h-1194z" />
    <glyph glyph-name="bracketleft" unicode="[" horiz-adv-x="745" 
d="M143 -293v1766h564v-287h-234v-1192h234v-287h-564z" />
    <glyph glyph-name="backslash" unicode="\" horiz-adv-x="786" 
d="M555 -322l-608 1733l284 90l609 -1732z" />
    <glyph glyph-name="bracketright" unicode="]" horiz-adv-x="745" 
d="M602 1473v-1766h-563v287h231v1192h-231v287h563z" />
    <glyph glyph-name="asciicircum" unicode="^" horiz-adv-x="1179" 
d="M440 1376h299l426 -977l-284 -104l-291 676l-291 -676l-285 104z" />
    <glyph glyph-name="underscore" unicode="_" horiz-adv-x="983" 
d="M0 -397v270h983v-270h-983z" />
    <glyph glyph-name="grave" unicode="`" horiz-adv-x="491" 
d="M68 1542l409 -287l-135 -194l-432 256z" />
    <glyph glyph-name="a" unicode="a" horiz-adv-x="1155" 
d="M55 305q0 162 124.5 252t346.5 90q80 0 174 -16v8q0 59 -50 97t-126 38q-146 0 -327 -74l-91 248q242 90 463 90q209 0 335 -112t126 -295v-334q0 -23 14 -37t37 -14q19 0 47 4l23 -258q-87 -17 -170 -17q-75 0 -133 30.5t-92 86.5q-69 -56 -156 -86.5t-172 -30.5
q-164 0 -268.5 92t-104.5 238zM393 328q0 -45 37 -75t94 -30q76 0 126 48t50 122v37q-72 14 -129 14q-80 0 -129 -31.5t-49 -84.5z" />
    <glyph glyph-name="b" unicode="b" 
d="M106 0v1442h361v-500q116 96 272 96q207 0 339 -148.5t132 -383.5q0 -233 -132 -382t-339 -149q-185 0 -301 119l-45 -94h-287zM844 506q0 110 -56.5 180t-144.5 70q-81 0 -131.5 -55t-50.5 -142v-106q0 -85 50.5 -140t131.5 -55q88 0 144.5 69.5t56.5 178.5z" />
    <glyph glyph-name="c" unicode="c" horiz-adv-x="1042" 
d="M55 506q0 233 158 382.5t405 149.5q219 0 416 -123l-143 -239q-120 76 -221 76q-109 0 -177.5 -68.5t-68.5 -177.5t68.5 -176.5t177.5 -67.5q101 0 221 76l143 -242q-198 -121 -416 -121q-247 0 -405 149.5t-158 381.5z" />
    <glyph glyph-name="d" unicode="d" 
d="M1159 1442v-1442h-287l-45 94q-116 -119 -301 -119q-207 0 -339 149t-132 382q0 235 132 383.5t339 148.5q157 0 273 -96v500h360zM424 506q0 -109 55.5 -178.5t143.5 -69.5q81 0 131.5 55t50.5 140v106q0 87 -50.5 142t-131.5 55q-88 0 -143.5 -70t-55.5 -180z" />
    <glyph glyph-name="e" unicode="e" horiz-adv-x="1155" 
d="M55 506q0 235 153 383.5t394 148.5q227 0 370.5 -143.5t143.5 -372.5q0 -56 -6 -108h-694q20 -80 91.5 -127t172.5 -47q123 0 281 82l106 -242q-225 -105 -432 -105q-257 0 -418.5 148.5t-161.5 382.5zM602 774q-70 0 -120.5 -40.5t-65.5 -108.5h354q-9 68 -55 108.5
t-113 40.5z" />
    <glyph glyph-name="f" unicode="f" horiz-adv-x="811" 
d="M205 0v741h-170v273h170v94q0 161 105 259.5t276 98.5q127 0 252 -32l-45 -267q-70 13 -119 13q-50 0 -79.5 -29t-29.5 -80v-57h209v-273h-209v-741h-360z" />
    <glyph glyph-name="g" unicode="g" 
d="M1159 1014v-961q0 -219 -167 -361.5t-423 -142.5q-225 0 -463 97l99 264q183 -82 334 -82q116 0 188 58.5t72 152.5v33q-118 -97 -273 -97q-207 0 -339 149t-132 382q0 235 132 383.5t339 148.5q183 0 301 -118l45 94h287zM424 506q0 -109 55.5 -178.5t143.5 -69.5
q81 0 131.5 55t50.5 140v106q0 87 -50.5 142t-131.5 55q-88 0 -143.5 -70t-55.5 -180z" />
    <glyph glyph-name="h" unicode="h" 
d="M106 0v1442h361v-516q121 112 303 112q180 0 293 -111t113 -286v-641h-361v582q0 70 -45.5 115.5t-114.5 45.5q-83 0 -135.5 -55.5t-52.5 -144.5v-543h-361z" />
    <glyph glyph-name="i" unicode="i" horiz-adv-x="575" 
d="M106 0v1014h361v-1014h-361zM82 1280q0 91 58 149t147 58q91 0 149 -58t58 -149q0 -89 -58 -147t-149 -58q-89 0 -147 58t-58 147z" />
    <glyph glyph-name="j" unicode="j" horiz-adv-x="591" 
d="M483 1014v-1106q0 -161 -104.5 -260t-274.5 -99q-122 0 -254 33l46 266q68 -12 118 -12q51 0 80 29t29 80v1069h360zM98 1280q0 91 58 149t147 58q91 0 149 -58t58 -149q0 -89 -58 -147t-149 -58q-89 0 -147 58t-58 147z" />
    <glyph glyph-name="k" unicode="k" horiz-adv-x="1132" 
d="M106 0v1442h347v-795l292 367h406l-416 -475l432 -539h-413l-250 328l-51 -56v-272h-347z" />
    <glyph glyph-name="l" unicode="l" horiz-adv-x="673" 
d="M467 1442v-1100q0 -37 22.5 -58.5t59.5 -21.5q26 0 84 8l37 -270q-116 -25 -211 -25q-162 0 -257.5 89.5t-95.5 240.5v1137h361z" />
    <glyph glyph-name="m" unicode="m" horiz-adv-x="1908" 
d="M106 0v1014h287l45 -103q136 127 316 127q101 0 183 -40t130 -111q168 151 360 151q172 0 281 -107t109 -274v-657h-361v598q0 65 -39.5 105t-103.5 40q-75 0 -122.5 -51t-47.5 -133v-559h-361v598q0 64 -40 104.5t-103 40.5q-76 0 -124 -51t-48 -133v-559h-361z" />
    <glyph glyph-name="n" unicode="n" 
d="M106 0v1014h287l45 -111q126 135 332 135q180 0 293 -111t113 -286v-641h-361v582q0 70 -45.5 115.5t-114.5 45.5q-83 0 -135.5 -55.5t-52.5 -144.5v-543h-361z" />
    <glyph glyph-name="o" unicode="o" 
d="M55 506q0 234 162 383t416 149q255 0 416 -148.5t161 -383.5q0 -234 -161 -382.5t-416 -148.5q-254 0 -416 149t-162 382zM424 506q0 -110 58.5 -181t150.5 -71t151.5 71t59.5 181q0 112 -59 183t-152 71q-92 0 -150.5 -71t-58.5 -183z" />
    <glyph glyph-name="p" unicode="p" 
d="M106 -426v1440h287l45 -94q118 118 301 118q207 0 339 -148.5t132 -383.5q0 -233 -132 -382t-339 -149q-154 0 -272 97v-498h-361zM844 506q0 110 -56.5 180t-144.5 70q-81 0 -131.5 -55t-50.5 -142v-106q0 -85 50.5 -140t131.5 -55q88 0 144.5 69.5t56.5 178.5z" />
    <glyph glyph-name="q" unicode="q" 
d="M1159 1014v-1440h-360v498q-118 -97 -273 -97q-207 0 -339 149t-132 382q0 235 132 383.5t339 148.5q183 0 301 -118l45 94h287zM424 506q0 -109 55.5 -178.5t143.5 -69.5q81 0 131.5 55t50.5 140v106q0 87 -50.5 142t-131.5 55q-88 0 -143.5 -70t-55.5 -180z" />
    <glyph glyph-name="r" unicode="r" horiz-adv-x="856" 
d="M106 0v1014h287l45 -127q46 68 120 105.5t163 37.5q49 0 117 -14l-31 -285q-66 12 -117 12q-102 0 -162.5 -67.5t-60.5 -177.5v-498h-361z" />
    <glyph glyph-name="s" unicode="s" horiz-adv-x="974" 
d="M63 711q0 141 119 234t305 93q187 0 400 -73l-76 -256q-170 65 -295 65q-47 0 -73.5 -17t-26.5 -46q0 -24 28 -39t72 -24t98 -19t108 -31.5t98 -53.5t72 -92t28 -141q0 -147 -121 -241.5t-312 -94.5q-205 0 -432 82l76 256q177 -73 326 -73q52 0 80 19t28 52
q0 22 -21.5 37.5t-57 23.5t-80.5 18.5t-92 21.5t-92 34.5t-80.5 55t-57 85.5t-21.5 124z" />
    <glyph glyph-name="t" unicode="t" horiz-adv-x="876" 
d="M565 1309v-295h242v-273h-242v-370q0 -51 29.5 -80t79.5 -29q54 0 119 12l45 -266q-129 -33 -252 -33q-170 0 -275.5 99t-105.5 260v407h-170v273h170v295h360z" />
    <glyph glyph-name="u" unicode="u" 
d="M1159 1014v-1014h-287l-45 111q-124 -136 -331 -136q-179 0 -292.5 110.5t-113.5 287.5v641h361v-582q0 -72 45 -118t116 -46q82 0 134.5 56t52.5 145v545h360z" />
    <glyph glyph-name="v" unicode="v" horiz-adv-x="1134" 
d="M1143 1014l-410 -1014h-332l-409 1014h377l198 -608l199 608h377z" />
    <glyph glyph-name="w" unicode="w" horiz-adv-x="1658" 
d="M1651 1014l-328 -1014h-346l-148 606l-147 -606h-346l-328 1014h361l147 -606l148 606h331l148 -606l147 606h361z" />
    <glyph glyph-name="x" unicode="x" horiz-adv-x="1134" 
d="M-20 0l354 518l-338 496h397l174 -273l174 273h398l-338 -496l354 -518h-405l-183 297l-182 -297h-405z" />
    <glyph glyph-name="y" unicode="y" horiz-adv-x="1134" 
d="M1143 1014l-432 -1092q-144 -373 -457 -373q-80 0 -174 21l45 278q53 -12 92 -12q60 0 100 31.5t68 101.5l18 45l-411 1000h377l198 -608l199 608h377z" />
    <glyph glyph-name="z" unicode="z" horiz-adv-x="1040" 
d="M55 0v197l447 544h-430v273h897v-197l-449 -547h465v-270h-930z" />
    <glyph glyph-name="braceleft" unicode="{" horiz-adv-x="745" 
d="M8 446v287h33q58 0 97.5 33.5t39.5 83.5q0 42 -8 120.5t-8 121.5q0 166 119 273.5t303 107.5h123v-287h-33q-76 0 -125 -48t-49 -120q0 -34 5 -99.5t5 -99.5q0 -84 -42.5 -144t-121.5 -85q79 -25 121.5 -85.5t42.5 -144.5q0 -34 -5 -99t-5 -99q0 -72 49 -120t125 -48h33
v-287h-123q-184 0 -303 107.5t-119 273.5q0 43 8 121.5t8 120.5q0 50 -39.5 83t-97.5 33h-33z" />
    <glyph glyph-name="bar" unicode="|" horiz-adv-x="491" 
d="M96 -459v1966h299v-1966h-299z" />
    <glyph glyph-name="braceright" unicode="}" horiz-adv-x="745" 
d="M735 733v-287h-33q-58 0 -97.5 -33t-39.5 -83q0 -42 9.5 -120.5t9.5 -121.5q0 -166 -119 -273.5t-303 -107.5h-123v287h33q75 0 124.5 48t49.5 120q0 34 -5 99t-5 99q0 84 42 144.5t119 85.5q-77 25 -119 85t-42 144q0 34 5 99.5t5 99.5q0 72 -49.5 120t-124.5 48h-33
v287h123q184 0 303 -107.5t119 -273.5q0 -43 -9.5 -121.5t-9.5 -120.5q0 -50 39.5 -83.5t97.5 -33.5h33z" />
    <glyph glyph-name="asciitilde" unicode="~" horiz-adv-x="1179" 
d="M170 406l-158 256q169 126 350 126q65 0 130 -15.5t109 -33.5t103 -33.5t113 -15.5q51 0 95.5 19.5t97.5 64.5l157 -256q-171 -127 -350 -127q-66 0 -131 15.5t-109 33.5t-102.5 33.5t-112.5 15.5q-94 0 -192 -83z" />
    <glyph glyph-name="nbspace" unicode="&#xa0;" horiz-adv-x="491" 
 />
    <glyph glyph-name="exclamdown" unicode="&#xa1;" horiz-adv-x="610" 
d="M455 530l30 -892h-360l31 892h299zM510 831q0 -89 -57 -146.5t-148 -57.5q-89 0 -147 57.5t-58 146.5t58 147t147 58q94 0 149.5 -57t55.5 -148z" />
    <glyph glyph-name="cent" unicode="&#xa2;" horiz-adv-x="1179" 
d="M123 688q0 186 104 322t279 184v313h299v-299q155 -21 297 -110l-144 -242q-126 78 -219 78q-109 0 -178 -68.5t-69 -177.5t69 -177.5t178 -68.5q93 0 219 78l144 -241q-142 -89 -297 -113v-297h-299v313q-175 48 -279 184t-104 322z" />
    <glyph glyph-name="sterling" unicode="&#xa3;" horiz-adv-x="1179" 
d="M104 0v279h170v290h-137v271h137v121q0 193 136 316.5t344 123.5q156 0 366 -72l-90 -264q-108 43 -203 43q-78 0 -128 -49.5t-50 -126.5v-92h322v-271h-322v-290h459v-279h-1004z" />
    <glyph glyph-name="currency" unicode="&#xa4;" horiz-adv-x="1179" 
d="M236 123l-211 211l155 158q-39 89 -39 196q0 106 39 195l-155 159l211 211l157 -157q87 41 197 41q107 0 194 -41l160 157l211 -211l-158 -159q41 -87 41 -195q0 -109 -41 -196l158 -158l-211 -211l-160 156q-89 -39 -194 -39q-108 0 -197 39zM412 688q0 -78 50 -127
t128 -49t128 49t50 127t-50 128t-128 50t-128 -50t-50 -128z" />
    <glyph glyph-name="yen" unicode="&#xa5;" horiz-adv-x="1179" 
d="M401 0v213h-264v242h264v84h-264v239h174l-360 598h391l248 -477l248 477h391l-361 -598h174v-239h-264v-84h264v-242h-264v-213h-377z" />
    <glyph glyph-name="brokenbar" unicode="&#xa6;" horiz-adv-x="491" 
d="M96 1409h299v-786h-299v786zM395 -360h-299v786h299v-786z" />
    <glyph glyph-name="section" unicode="&#xa7;" horiz-adv-x="1138" 
d="M104 1020q0 168 134.5 274.5t347.5 106.5q207 0 448 -90l-82 -279q-183 76 -338 76q-70 0 -106.5 -23.5t-36.5 -64.5q0 -28 33.5 -47.5t86.5 -32.5t117.5 -28.5t129 -42.5t117.5 -66.5t86.5 -109.5t33.5 -163q0 -154 -121 -256q88 -91 88 -237q0 -177 -136 -283
t-353 -106q-242 0 -490 94l82 278q221 -79 377 -79q74 0 113 25t39 71q0 27 -26 47t-68 31.5t-96.5 26.5t-110.5 30.5t-110.5 45t-96.5 67t-68 100t-26 141.5q0 158 125 254q-93 90 -93 240zM438 545q0 -27 15 -47.5t48.5 -36t62.5 -24t81 -21.5q28 15 45 41t17 55
q0 22 -11 40t-26.5 30t-44.5 24t-51.5 18.5t-61.5 16.5q-34 -14 -54 -39.5t-20 -56.5z" />
    <glyph glyph-name="dieresis" unicode="&#xa8;" horiz-adv-x="491" 
d="M-178 1280q0 82 50 133t132 51t132 -51t50 -133t-50 -132t-132 -50t-132 50t-50 132zM305 1280q0 82 50 133t132 51t132.5 -51t50.5 -133t-50.5 -132t-132.5 -50t-132 50t-50 132z" />
    <glyph glyph-name="copyright" unicode="&#xa9;" horiz-adv-x="1703" 
d="M98 688q0 218 96 390t268 268t390 96t390 -96t268 -268t96 -390t-96 -390t-268 -268t-390 -96t-390 96t-268 268t-96 390zM281 688q0 -252 159.5 -411.5t411.5 -159.5t411.5 159.5t159.5 411.5t-159.5 412t-411.5 160t-411.5 -160t-159.5 -412zM416 688q0 194 128 318
t333 124q181 0 337 -100l-110 -182q-92 63 -191 63t-161 -62t-62 -161t62 -161t161 -62t191 63l110 -182q-156 -100 -337 -100q-205 0 -333 124t-128 318z" />
    <glyph glyph-name="ordfeminine" unicode="&#xaa;" horiz-adv-x="821" 
d="M35 418v182h751v-182h-751zM49 924q0 101 86.5 160t235.5 59q49 0 104 -10q0 39 -28 64.5t-82 25.5q-100 0 -222 -49l-59 174q171 59 307 59q149 0 235.5 -76t86.5 -207v-194q0 -13 8 -22t20 -9q17 0 27 2l18 -184q-70 -12 -118 -12q-107 0 -154 75q-85 -75 -213 -75
q-109 0 -180.5 62t-71.5 157zM295 938q0 -25 22 -42t54 -17q45 0 74.5 25.5t29.5 66.5v26q-40 7 -76 7q-49 0 -76.5 -17.5t-27.5 -48.5z" />
    <glyph glyph-name="guillemotleft" unicode="&#xab;" horiz-adv-x="1280" 
d="M51 442v152l408 459l211 -166l-273 -369l273 -366l-211 -166zM623 442v152l407 459l211 -166l-272 -369l272 -366l-211 -166z" />
    <glyph glyph-name="logicalnot" unicode="&#xac;" horiz-adv-x="1179" 
d="M72 440v299h1036v-667h-301v368h-735z" />
    <glyph glyph-name="uni00AD" unicode="&#xad;" horiz-adv-x="655" 
d="M41 383v270h586v-270h-586z" />
    <glyph glyph-name="registered" unicode="&#xae;" horiz-adv-x="1703" 
d="M98 688q0 218 96 390t268 268t390 96t390 -96t268 -268t96 -390t-96 -390t-268 -268t-390 -96t-390 96t-268 268t-96 390zM281 688q0 -252 159.5 -411.5t411.5 -159.5t411.5 159.5t159.5 411.5t-159.5 412t-411.5 160t-411.5 -160t-159.5 -412zM502 262v852h403
q140 0 229 -80t89 -207q0 -90 -45 -157.5t-119 -94.5l192 -313h-280l-150 273h-69v-273h-250zM752 913v-186h118q45 0 72 25t27 69q0 42 -27 67t-72 25h-118z" />
    <glyph glyph-name="macron" unicode="&#xaf;" horiz-adv-x="491" 
d="M-92 1161v240h676v-240h-676z" />
    <glyph glyph-name="degree" unicode="&#xb0;" horiz-adv-x="714" 
d="M63 1106q0 128 83 211.5t212 83.5q128 0 211.5 -83.5t83.5 -211.5q0 -129 -83.5 -212t-211.5 -83q-129 0 -212 83t-83 212zM252 1106q0 -47 30 -77t76 -30t75.5 30t29.5 77q0 46 -29.5 75t-75.5 29q-47 0 -76.5 -29t-29.5 -75z" />
    <glyph glyph-name="plusminus" unicode="&#xb1;" horiz-adv-x="1179" 
d="M72 0v301h1036v-301h-1036zM72 745v302h368v368h299v-368h369v-302h-369v-366h-299v366h-368z" />
    <glyph glyph-name="twosuperior" unicode="&#xb2;" horiz-adv-x="710" 
d="M39 786v162l256 258q82 82 82 135q0 43 -26 69t-70 26q-66 0 -168 -64l-97 191q164 92 318 92q133 0 216 -77t83 -196q0 -138 -121 -256l-135 -135h266v-205h-604z" />
    <glyph glyph-name="threesuperior" unicode="&#xb3;" horiz-adv-x="710" 
d="M193 1137v172h81q45 0 73 21.5t28 53.5q0 31 -21 50.5t-57 19.5q-84 0 -191 -49l-79 182q165 68 319 68q127 0 208 -68t81 -174q0 -63 -27 -111t-78 -73q56 -25 90.5 -81t34.5 -126q0 -110 -87 -181t-222 -71q-176 0 -340 74l80 180q116 -53 205 -53q43 0 70.5 21.5
t27.5 56.5q0 38 -32 63t-83 25h-81z" />
    <glyph glyph-name="acute" unicode="&#xb4;" horiz-adv-x="491" 
d="M610 1317l-430 -256l-135 194l410 287z" />
    <glyph glyph-name="uni00B5" unicode="&#xb5;" horiz-adv-x="1314" 
d="M106 -426v1440h361v-582q0 -72 45.5 -118t116.5 -46q82 0 134 56t52 145v545h361v-701q0 -23 14 -37t37 -14q15 0 43 4l26 -274q-90 -17 -170 -17q-85 0 -150 37t-99 103q-56 -65 -125 -98t-136 -33q-88 0 -149 24v-434h-361z" />
    <glyph glyph-name="paragraph" unicode="&#xb6;" 
d="M625 440h-70q-227 0 -370.5 131.5t-143.5 337.5q0 205 143.5 336t370.5 131h569v-1704h-301v1403h-198v-635z" />
    <glyph glyph-name="periodcentered" unicode="&#xb7;" horiz-adv-x="577" 
d="M76 518q0 93 60 153t153 60t153 -60t60 -153q0 -92 -60.5 -152.5t-152.5 -60.5t-152.5 60.5t-60.5 152.5z" />
    <glyph glyph-name="cedilla" unicode="&#xb8;" horiz-adv-x="491" 
d="M383 0l-12 -66q66 -20 104.5 -73t38.5 -125q0 -100 -87 -161.5t-228 -61.5q-117 0 -224 41l58 196q83 -26 129 -26q29 0 47 13.5t18 35.5q0 21 -24 34t-64 13h-30l32 180h242z" />
    <glyph glyph-name="onesuperior" unicode="&#xb9;" horiz-adv-x="591" 
d="M485 1638v-852h-258v603l-153 -84l-90 170l288 163h213z" />
    <glyph glyph-name="ordmasculine" unicode="&#xba;" horiz-adv-x="884" 
d="M68 418v182h749v-182h-749zM49 1057q0 154 110.5 252t282.5 98q173 0 283.5 -98t110.5 -252q0 -155 -110.5 -253.5t-283.5 -98.5q-172 0 -282.5 98.5t-110.5 253.5zM322 1057q0 -66 33 -107t87 -41t88.5 41t34.5 107q0 65 -34.5 106t-88.5 41t-87 -41t-33 -106z" />
    <glyph glyph-name="guillemotright" unicode="&#xbb;" horiz-adv-x="1280" 
d="M657 594v-152l-407 -456l-211 166l274 366l-274 369l211 166zM1229 594v-152l-408 -456l-211 166l275 366l-275 369l211 166z" />
    <glyph glyph-name="onequarter" unicode="&#xbc;" horiz-adv-x="1966" 
d="M582 1376v-852h-258v602l-154 -84l-90 170l289 164h213zM377 68l1032 1376l180 -135l-1032 -1377zM1608 0v158h-385v180l366 514h248v-510h86v-184h-86v-158h-229zM1442 342h166v236z" />
    <glyph glyph-name="onehalf" unicode="&#xbd;" horiz-adv-x="1966" 
d="M582 1376v-852h-258v602l-154 -84l-90 170l289 164h213zM377 68l1032 1376l180 -135l-1032 -1377zM1255 0v162l256 258q82 82 82 135q0 43 -26 68.5t-70 25.5q-68 0 -168 -63l-96 190q164 92 317 92q133 0 216 -76.5t83 -195.5q0 -139 -120 -256l-136 -135h267v-205h-605
z" />
    <glyph glyph-name="threequarters" unicode="&#xbe;" horiz-adv-x="1966" 
d="M229 874v173h82q45 0 73 21.5t28 53.5q0 31 -21 50.5t-57 19.5q-84 0 -191 -49l-80 182q165 68 320 68q127 0 208 -68t81 -174q0 -63 -27 -111t-78 -73q56 -25 90.5 -81t34.5 -126q0 -110 -87 -181t-222 -71q-176 0 -340 74l80 180q116 -53 205 -53q43 0 70.5 21t27.5 56
q0 38 -32 63t-83 25h-82zM377 68l1032 1376l180 -135l-1032 -1377zM1608 0v158h-385v180l366 514h248v-510h86v-184h-86v-158h-229zM1442 342h166v236z" />
    <glyph glyph-name="questiondown" unicode="&#xbf;" horiz-adv-x="845" 
d="M354 530h301v-47q0 -64 -25 -119.5t-60.5 -94t-70.5 -73t-60 -72.5t-25 -77q0 -61 42 -98t107 -37q33 0 73 13.5t69.5 28t82.5 44.5l136 -256q-196 -129 -420 -129q-198 0 -324.5 107.5t-126.5 273.5q0 82 27.5 152.5t69 118.5t83 88.5t75.5 81.5t42 79zM711 831
q0 -89 -58 -146.5t-147 -57.5q-91 0 -149 57.5t-58 146.5t58 147t149 58q89 0 147 -58t58 -147z" />
    <glyph glyph-name="Agrave" unicode="&#xc0;" horiz-adv-x="1417" 
d="M-23 0l560 1376h346l557 -1376h-375l-102 279h-506l-103 -279h-377zM709 969l-156 -420h311zM530 1905l410 -287l-135 -195l-432 256z" />
    <glyph glyph-name="Aacute" unicode="&#xc1;" horiz-adv-x="1417" 
d="M-23 0l560 1376h346l557 -1376h-375l-102 279h-506l-103 -279h-377zM709 969l-156 -420h311zM1073 1679l-430 -256l-135 195l410 287z" />
    <glyph glyph-name="Acircumflex" unicode="&#xc2;" horiz-adv-x="1417" 
d="M-23 0l560 1376h346l557 -1376h-375l-102 279h-506l-103 -279h-377zM709 969l-156 -420h311zM342 1589l260 246h213l260 -246l-151 -166l-215 170l-215 -170z" />
    <glyph glyph-name="Atilde" unicode="&#xc3;" horiz-adv-x="1417" 
d="M-23 0l560 1376h346l557 -1376h-375l-102 279h-506l-103 -279h-377zM709 969l-156 -420h311zM578 1798q49 0 95.5 -17t81 -33.5t54.5 -16.5q48 0 70 67l211 -61q-15 -113 -83 -180.5t-167 -67.5q-49 0 -96 16.5t-81.5 33.5t-54.5 17q-53 0 -69 -67l-211 61
q15 113 83 180.5t167 67.5z" />
    <glyph glyph-name="Adieresis" unicode="&#xc4;" horiz-adv-x="1417" 
d="M-23 0l560 1376h346l557 -1376h-375l-102 279h-506l-103 -279h-377zM709 969l-156 -420h311zM287 1642q0 82 50.5 133.5t131.5 51.5t131.5 -51.5t50.5 -133.5t-50 -132t-132 -50t-132 50t-50 132zM770 1642q0 82 50.5 133.5t131.5 51.5q82 0 132.5 -51.5t50.5 -133.5
t-50.5 -132t-132.5 -50t-132 50t-50 132z" />
    <glyph glyph-name="Aring" unicode="&#xc5;" horiz-adv-x="1417" 
d="M-23 0l560 1376h346l557 -1376h-375l-102 279h-506l-103 -279h-377zM709 969l-156 -420h311zM469 1642q0 100 67 163t173 63t172.5 -63t66.5 -163q0 -98 -66.5 -160.5t-172.5 -62.5t-173 62.5t-67 160.5zM635 1642q0 -32 20.5 -51.5t53.5 -19.5q32 0 52.5 19.5t20.5 51.5
q0 34 -20 54t-53 20t-53.5 -20.5t-20.5 -53.5z" />
    <glyph glyph-name="AE" unicode="&#xc6;" horiz-adv-x="2025" 
d="M940 0v279h-442l-164 -279h-420l860 1376h1147v-278h-621v-258h555v-271h-555v-290h654v-279h-1014zM940 1047l-287 -498h287v498z" />
    <glyph glyph-name="Ccedilla" unicode="&#xc7;" horiz-adv-x="1341" 
d="M57 688q0 207 93 369.5t261 253t382 90.5q270 0 522 -162l-150 -248q-166 113 -321 113q-180 0 -292 -115.5t-112 -300.5t112 -300.5t292 -115.5q155 0 321 113l150 -248q-197 -128 -414 -153l-8 -50q67 -20 105 -73t38 -125q0 -100 -86 -161.5t-227 -61.5
q-116 0 -223 41l55 196q83 -26 131 -26q29 0 47.5 13.5t18.5 35.5q0 20 -24.5 33.5t-63.5 13.5h-33l31 168q-273 38 -439 229t-166 471z" />
    <glyph glyph-name="Egrave" unicode="&#xc8;" horiz-adv-x="1243" 
d="M141 0v1376h998v-278h-623v-258h557v-271h-557v-290h655v-279h-1030zM459 1905l409 -287l-135 -195l-432 256z" />
    <glyph glyph-name="Eacute" unicode="&#xc9;" horiz-adv-x="1243" 
d="M141 0v1376h998v-278h-623v-258h557v-271h-557v-290h655v-279h-1030zM1001 1679l-430 -256l-135 195l410 287z" />
    <glyph glyph-name="Ecircumflex" unicode="&#xca;" horiz-adv-x="1243" 
d="M141 0v1376h998v-278h-623v-258h557v-271h-557v-290h655v-279h-1030zM270 1589l260 246h213l261 -246l-152 -166l-215 170l-215 -170z" />
    <glyph glyph-name="Edieresis" unicode="&#xcb;" horiz-adv-x="1243" 
d="M141 0v1376h998v-278h-623v-258h557v-271h-557v-290h655v-279h-1030zM213 1642q0 82 50.5 133.5t131.5 51.5q82 0 132.5 -51.5t50.5 -133.5t-50.5 -132t-132.5 -50t-132 50t-50 132zM696 1642q0 82 50.5 133.5t132.5 51.5q81 0 131.5 -51.5t50.5 -133.5t-50 -132
t-132 -50t-132.5 50t-50.5 132z" />
    <glyph glyph-name="Igrave" unicode="&#xcc;" horiz-adv-x="657" 
d="M141 0v1376h375v-1376h-375zM152 1905l409 -287l-135 -195l-432 256z" />
    <glyph glyph-name="Iacute" unicode="&#xcd;" horiz-adv-x="657" 
d="M141 0v1376h375v-1376h-375zM694 1679l-430 -256l-135 195l410 287z" />
    <glyph glyph-name="Icircumflex" unicode="&#xce;" horiz-adv-x="657" 
d="M141 0v1376h375v-1376h-375zM-37 1589l260 246h213l260 -246l-151 -166l-215 170l-215 -170z" />
    <glyph glyph-name="Idieresis" unicode="&#xcf;" horiz-adv-x="657" 
d="M141 0v1376h375v-1376h-375zM-94 1642q0 82 50.5 133.5t131.5 51.5t131.5 -51.5t50.5 -133.5t-50 -132t-132 -50t-132 50t-50 132zM389 1642q0 82 50.5 133.5t131.5 51.5q82 0 132.5 -51.5t50.5 -133.5t-50.5 -132t-132.5 -50t-132 50t-50 132z" />
    <glyph glyph-name="Eth" unicode="&#xd0;" horiz-adv-x="1548" 
d="M174 0v569h-139v271h139v536h600q321 0 520 -190.5t199 -497.5q0 -305 -199.5 -496.5t-519.5 -191.5h-600zM1124 688q0 177 -106.5 289.5t-272.5 112.5h-210v-250h276v-271h-276v-282h210q166 0 272.5 112t106.5 289z" />
    <glyph glyph-name="Ntilde" unicode="&#xd1;" horiz-adv-x="1613" 
d="M141 0v1376h361l626 -866v866h345v-1376h-361l-625 866v-866h-346zM676 1798q49 0 95.5 -17t81 -33.5t54.5 -16.5q48 0 70 67l211 -61q-15 -113 -83 -180.5t-167 -67.5q-49 0 -95.5 16.5t-81 33.5t-54.5 17q-54 0 -70 -67l-211 61q15 113 83 180.5t167 67.5z" />
    <glyph glyph-name="Ograve" unicode="&#xd2;" horiz-adv-x="1613" 
d="M57 688q0 155 55.5 287.5t154 226t238 146.5t302.5 53t303 -53t238.5 -146.5t154.5 -226t56 -287.5t-56 -287.5t-154.5 -226t-238.5 -146.5t-303 -53t-302.5 53t-238 146.5t-154 226t-55.5 287.5zM440 688q0 -185 102.5 -302.5t264.5 -117.5q163 0 266 117.5t103 302.5
t-103 302.5t-266 117.5q-162 0 -264.5 -117.5t-102.5 -302.5zM629 1905l409 -287l-135 -195l-432 256z" />
    <glyph glyph-name="Oacute" unicode="&#xd3;" horiz-adv-x="1613" 
d="M57 688q0 155 55.5 287.5t154 226t238 146.5t302.5 53t303 -53t238.5 -146.5t154.5 -226t56 -287.5t-56 -287.5t-154.5 -226t-238.5 -146.5t-303 -53t-302.5 53t-238 146.5t-154 226t-55.5 287.5zM440 688q0 -185 102.5 -302.5t264.5 -117.5q163 0 266 117.5t103 302.5
t-103 302.5t-266 117.5q-162 0 -264.5 -117.5t-102.5 -302.5zM1171 1679l-430 -256l-135 195l410 287z" />
    <glyph glyph-name="Ocircumflex" unicode="&#xd4;" horiz-adv-x="1613" 
d="M57 688q0 155 55.5 287.5t154 226t238 146.5t302.5 53t303 -53t238.5 -146.5t154.5 -226t56 -287.5t-56 -287.5t-154.5 -226t-238.5 -146.5t-303 -53t-302.5 53t-238 146.5t-154 226t-55.5 287.5zM440 688q0 -185 102.5 -302.5t264.5 -117.5q163 0 266 117.5t103 302.5
t-103 302.5t-266 117.5q-162 0 -264.5 -117.5t-102.5 -302.5zM440 1589l260 246h213l261 -246l-152 -166l-215 170l-215 -170z" />
    <glyph glyph-name="Otilde" unicode="&#xd5;" horiz-adv-x="1613" 
d="M57 688q0 155 55.5 287.5t154 226t238 146.5t302.5 53t303 -53t238.5 -146.5t154.5 -226t56 -287.5t-56 -287.5t-154.5 -226t-238.5 -146.5t-303 -53t-302.5 53t-238 146.5t-154 226t-55.5 287.5zM440 688q0 -185 102.5 -302.5t264.5 -117.5q163 0 266 117.5t103 302.5
t-103 302.5t-266 117.5q-162 0 -264.5 -117.5t-102.5 -302.5zM676 1798q49 0 95.5 -17t81 -33.5t54.5 -16.5q48 0 70 67l211 -61q-15 -113 -83 -180.5t-167 -67.5q-49 0 -95.5 16.5t-81 33.5t-54.5 17q-54 0 -70 -67l-211 61q15 113 83 180.5t167 67.5z" />
    <glyph glyph-name="Odieresis" unicode="&#xd6;" horiz-adv-x="1613" 
d="M57 688q0 155 55.5 287.5t154 226t238 146.5t302.5 53t303 -53t238.5 -146.5t154.5 -226t56 -287.5t-56 -287.5t-154.5 -226t-238.5 -146.5t-303 -53t-302.5 53t-238 146.5t-154 226t-55.5 287.5zM440 688q0 -185 102.5 -302.5t264.5 -117.5q163 0 266 117.5t103 302.5
t-103 302.5t-266 117.5q-162 0 -264.5 -117.5t-102.5 -302.5zM383 1642q0 82 50.5 133.5t131.5 51.5q82 0 132.5 -51.5t50.5 -133.5t-50.5 -132t-132.5 -50t-132 50t-50 132zM866 1642q0 82 50.5 133.5t132.5 51.5q81 0 131.5 -51.5t50.5 -133.5t-50 -132t-132 -50
t-132.5 50t-50.5 132z" />
    <glyph glyph-name="multiply" unicode="&#xd7;" horiz-adv-x="1179" 
d="M283 72l-211 211l305 307l-305 307l211 211l307 -305l307 305l211 -211l-305 -307l305 -307l-211 -211l-307 305z" />
    <glyph glyph-name="Oslash" unicode="&#xd8;" horiz-adv-x="1613" 
d="M57 688q0 155 55.5 287.5t153.5 226t237.5 146.5t303.5 53q189 0 346 -74l113 152l170 -129l-103 -138q108 -96 167 -230t59 -294q0 -155 -55.5 -287.5t-154 -226t-238.5 -146.5t-304 -53q-187 0 -348 74l-111 -151l-170 129l101 135q-107 96 -164.5 230.5t-57.5 295.5z
M410 688q0 -151 69 -258l494 655q-73 37 -166 37q-177 0 -287 -121t-110 -313zM1204 688q0 144 -71 258l-492 -657q75 -35 166 -35q177 0 287 121t110 313z" />
    <glyph glyph-name="Ugrave" unicode="&#xd9;" horiz-adv-x="1613" 
d="M1489 1376v-823q0 -170 -87.5 -302t-242.5 -204t-352 -72t-352 72t-242.5 204t-87.5 302v823h375v-809q0 -133 86 -216t221 -83q137 0 222 83t85 216v809h375zM629 1905l409 -287l-135 -195l-432 256z" />
    <glyph glyph-name="Uacute" unicode="&#xda;" horiz-adv-x="1613" 
d="M1489 1376v-823q0 -170 -87.5 -302t-242.5 -204t-352 -72t-352 72t-242.5 204t-87.5 302v823h375v-809q0 -133 86 -216t221 -83q137 0 222 83t85 216v809h375zM1171 1679l-430 -256l-135 195l410 287z" />
    <glyph glyph-name="Ucircumflex" unicode="&#xdb;" horiz-adv-x="1613" 
d="M1489 1376v-823q0 -170 -87.5 -302t-242.5 -204t-352 -72t-352 72t-242.5 204t-87.5 302v823h375v-809q0 -133 86 -216t221 -83q137 0 222 83t85 216v809h375zM440 1589l260 246h213l261 -246l-152 -166l-215 170l-215 -170z" />
    <glyph glyph-name="Udieresis" unicode="&#xdc;" horiz-adv-x="1613" 
d="M1489 1376v-823q0 -170 -87.5 -302t-242.5 -204t-352 -72t-352 72t-242.5 204t-87.5 302v823h375v-809q0 -133 86 -216t221 -83q137 0 222 83t85 216v809h375zM383 1642q0 82 50.5 133.5t131.5 51.5q82 0 132.5 -51.5t50.5 -133.5t-50.5 -132t-132.5 -50t-132 50t-50 132
zM866 1642q0 82 50.5 133.5t132.5 51.5q81 0 131.5 -51.5t50.5 -133.5t-50 -132t-132 -50t-132.5 50t-50.5 132z" />
    <glyph glyph-name="Yacute" unicode="&#xdd;" horiz-adv-x="1298" 
d="M461 0v532l-500 844h406l282 -512l283 512h405l-499 -844v-532h-377zM1014 1679l-430 -256l-135 195l409 287z" />
    <glyph glyph-name="Thorn" unicode="&#xde;" horiz-adv-x="1304" 
d="M141 0v1376h361v-196h248q226 0 370 -133t144 -342t-144 -342.5t-370 -133.5h-248v-229h-361zM502 895v-381h188q92 0 149.5 53.5t57.5 137.5q0 82 -57.5 136t-149.5 54h-188z" />
    <glyph glyph-name="germandbls" unicode="&#xdf;" horiz-adv-x="1331" 
d="M596 723q0 56 21.5 107.5t47 84.5t47 76t21.5 84q0 53 -36 87t-95 34q-65 0 -107 -44.5t-42 -113.5v-1038h-347v1053q0 183 141.5 298t368.5 115q207 0 342.5 -106t135.5 -270q0 -62 -21.5 -116.5t-47.5 -86.5t-47.5 -68.5t-21.5 -66.5q0 -29 18.5 -52t48 -41t65.5 -37.5
t72 -45.5t65.5 -59.5t48 -86.5t18.5 -119q0 -151 -115.5 -243.5t-299.5 -92.5q-175 0 -351 74l90 256q130 -59 232 -59q46 0 73 17t27 48q0 26 -26 49t-65 39.5t-85 44t-85 60t-65 89.5t-26 130z" />
    <glyph glyph-name="agrave" unicode="&#xe0;" horiz-adv-x="1171" 
d="M55 305q0 162 124.5 252t346.5 90q80 0 174 -16v8q0 59 -50 97t-126 38q-146 0 -327 -74l-91 248q242 90 463 90q209 0 335 -112t126 -295v-334q0 -23 14 -37t37 -14q19 0 47 4l23 -258q-87 -17 -170 -17q-75 0 -133 30.5t-92 86.5q-69 -56 -156 -86.5t-172 -30.5
q-164 0 -268.5 92t-104.5 238zM393 328q0 -45 37 -75t94 -30q76 0 126 48t50 122v37q-72 14 -129 14q-80 0 -129 -31.5t-49 -84.5zM391 1542l410 -287l-135 -194l-433 256z" />
    <glyph glyph-name="aacute" unicode="&#xe1;" horiz-adv-x="1171" 
d="M55 305q0 162 124.5 252t346.5 90q80 0 174 -16v8q0 59 -50 97t-126 38q-146 0 -327 -74l-91 248q242 90 463 90q209 0 335 -112t126 -295v-334q0 -23 14 -37t37 -14q19 0 47 4l23 -258q-87 -17 -170 -17q-75 0 -133 30.5t-92 86.5q-69 -56 -156 -86.5t-172 -30.5
q-164 0 -268.5 92t-104.5 238zM393 328q0 -45 37 -75t94 -30q76 0 126 48t50 122v37q-72 14 -129 14q-80 0 -129 -31.5t-49 -84.5zM934 1317l-430 -256l-135 194l409 287z" />
    <glyph glyph-name="acircumflex" unicode="&#xe2;" horiz-adv-x="1171" 
d="M55 305q0 162 124.5 252t346.5 90q80 0 174 -16v8q0 59 -50 97t-126 38q-146 0 -327 -74l-91 248q242 90 463 90q209 0 335 -112t126 -295v-334q0 -23 14 -37t37 -14q19 0 47 4l23 -258q-87 -17 -170 -17q-75 0 -133 30.5t-92 86.5q-69 -56 -156 -86.5t-172 -30.5
q-164 0 -268.5 92t-104.5 238zM393 328q0 -45 37 -75t94 -30q76 0 126 48t50 122v37q-72 14 -129 14q-80 0 -129 -31.5t-49 -84.5zM203 1227l260 246h213l260 -246l-152 -166l-215 170l-215 -170z" />
    <glyph glyph-name="atilde" unicode="&#xe3;" horiz-adv-x="1171" 
d="M55 305q0 162 124.5 252t346.5 90q80 0 174 -16v8q0 59 -50 97t-126 38q-146 0 -327 -74l-91 248q242 90 463 90q209 0 335 -112t126 -295v-334q0 -23 14 -37t37 -14q19 0 47 4l23 -258q-87 -17 -170 -17q-75 0 -133 30.5t-92 86.5q-69 -56 -156 -86.5t-172 -30.5
q-164 0 -268.5 92t-104.5 238zM393 328q0 -45 37 -75t94 -30q76 0 126 48t50 122v37q-72 14 -129 14q-80 0 -129 -31.5t-49 -84.5zM438 1436q49 0 96 -17t81.5 -34t54.5 -17q47 0 69 68l211 -62q-15 -113 -83 -180.5t-167 -67.5q-49 0 -95.5 17t-81 34t-54.5 17
q-54 0 -70 -68l-211 62q15 113 83 180.5t167 67.5z" />
    <glyph glyph-name="adieresis" unicode="&#xe4;" horiz-adv-x="1171" 
d="M55 305q0 162 124.5 252t346.5 90q80 0 174 -16v8q0 59 -50 97t-126 38q-146 0 -327 -74l-91 248q242 90 463 90q209 0 335 -112t126 -295v-334q0 -23 14 -37t37 -14q19 0 47 4l23 -258q-87 -17 -170 -17q-75 0 -133 30.5t-92 86.5q-69 -56 -156 -86.5t-172 -30.5
q-164 0 -268.5 92t-104.5 238zM393 328q0 -45 37 -75t94 -30q76 0 126 48t50 122v37q-72 14 -129 14q-80 0 -129 -31.5t-49 -84.5zM145 1280q0 82 50.5 133t132.5 51t132 -51t50 -133t-50 -132t-132 -50t-132.5 50t-50.5 132zM629 1280q0 82 50 133t132 51t132 -51t50 -133
t-50 -132t-132 -50t-132 50t-50 132z" />
    <glyph glyph-name="aring" unicode="&#xe5;" horiz-adv-x="1171" 
d="M55 305q0 162 124.5 252t346.5 90q80 0 174 -16v8q0 59 -50 97t-126 38q-146 0 -327 -74l-91 248q242 90 463 90q209 0 335 -112t126 -295v-334q0 -23 14 -37t37 -14q19 0 47 4l23 -258q-87 -17 -170 -17q-75 0 -133 30.5t-92 86.5q-69 -56 -156 -86.5t-172 -30.5
q-164 0 -268.5 92t-104.5 238zM393 328q0 -45 37 -75t94 -30q76 0 126 48t50 122v37q-72 14 -129 14q-80 0 -129 -31.5t-49 -84.5zM330 1280q0 100 66.5 162.5t172.5 62.5t173 -62.5t67 -162.5q0 -98 -67 -160.5t-173 -62.5t-172.5 62.5t-66.5 160.5zM496 1280
q0 -32 20.5 -52t52.5 -20t53 20t21 52q0 33 -20.5 53.5t-53.5 20.5t-53 -20t-20 -54z" />
    <glyph glyph-name="ae" unicode="&#xe6;" horiz-adv-x="1769" 
d="M55 299q0 164 124.5 256t346.5 92q80 0 174 -16v8q0 59 -49 97t-127 38q-146 0 -327 -74l-91 248q242 90 463 90q97 0 182 -29.5t132 -80.5q137 110 334 110q227 0 370.5 -143.5t143.5 -372.5q0 -47 -7 -108h-694q20 -80 91.5 -127t172.5 -47q123 0 281 82l106 -242
q-209 -105 -424 -105q-244 0 -421 142q-164 -142 -379 -142q-177 0 -289.5 90.5t-112.5 233.5zM1217 774q-70 0 -121 -40.5t-66 -108.5h354q-8 68 -53 108.5t-114 40.5zM393 328q0 -45 37 -75t94 -30q76 0 126 48t50 122v37q-72 14 -129 14q-80 0 -129 -31.5t-49 -84.5z" />
    <glyph glyph-name="ccedilla" unicode="&#xe7;" horiz-adv-x="1042" 
d="M55 506q0 233 158 382.5t405 149.5q219 0 416 -123l-143 -239q-126 76 -221 76q-109 0 -177.5 -68.5t-68.5 -177.5t68.5 -176.5t177.5 -67.5q95 0 221 76l143 -242q-149 -91 -315 -112l-6 -50q66 -20 103.5 -73t37.5 -125q0 -100 -86 -161.5t-227 -61.5q-117 0 -224 41
l58 196q83 -26 129 -26q29 0 47 13.5t18 35.5q0 20 -24.5 33.5t-63.5 13.5h-30l30 170q-194 37 -310 177t-116 339z" />
    <glyph glyph-name="egrave" unicode="&#xe8;" horiz-adv-x="1155" 
d="M55 506q0 235 153 383.5t394 148.5q227 0 370.5 -143.5t143.5 -372.5q0 -56 -6 -108h-694q20 -80 91.5 -127t172.5 -47q123 0 281 82l106 -242q-225 -105 -432 -105q-257 0 -418.5 148.5t-161.5 382.5zM602 774q-70 0 -120.5 -40.5t-65.5 -108.5h354q-9 68 -55 108.5
t-113 40.5zM424 1542l410 -287l-136 -194l-432 256z" />
    <glyph glyph-name="eacute" unicode="&#xe9;" horiz-adv-x="1155" 
d="M55 506q0 235 153 383.5t394 148.5q227 0 370.5 -143.5t143.5 -372.5q0 -56 -6 -108h-694q20 -80 91.5 -127t172.5 -47q123 0 281 82l106 -242q-225 -105 -432 -105q-257 0 -418.5 148.5t-161.5 382.5zM602 774q-70 0 -120.5 -40.5t-65.5 -108.5h354q-9 68 -55 108.5
t-113 40.5zM967 1317l-430 -256l-136 194l410 287z" />
    <glyph glyph-name="ecircumflex" unicode="&#xea;" horiz-adv-x="1155" 
d="M55 506q0 235 153 383.5t394 148.5q227 0 370.5 -143.5t143.5 -372.5q0 -56 -6 -108h-694q20 -80 91.5 -127t172.5 -47q123 0 281 82l106 -242q-225 -105 -432 -105q-257 0 -418.5 148.5t-161.5 382.5zM602 774q-70 0 -120.5 -40.5t-65.5 -108.5h354q-9 68 -55 108.5
t-113 40.5zM236 1227l260 246h213l260 -246l-152 -166l-215 170l-215 -170z" />
    <glyph glyph-name="edieresis" unicode="&#xeb;" horiz-adv-x="1155" 
d="M55 506q0 235 153 383.5t394 148.5q227 0 370.5 -143.5t143.5 -372.5q0 -56 -6 -108h-694q20 -80 91.5 -127t172.5 -47q123 0 281 82l106 -242q-225 -105 -432 -105q-257 0 -418.5 148.5t-161.5 382.5zM602 774q-70 0 -120.5 -40.5t-65.5 -108.5h354q-9 68 -55 108.5
t-113 40.5zM178 1280q0 82 50 133t132 51t132.5 -51t50.5 -133t-50.5 -132t-132.5 -50t-132 50t-50 132zM662 1280q0 82 50 133t132 51t132 -51t50 -133t-50 -132t-132 -50t-132 50t-50 132z" />
    <glyph glyph-name="igrave" unicode="&#xec;" horiz-adv-x="575" 
d="M106 0v1014h361v-1014h-361zM109 1542l409 -287l-135 -194l-432 256z" />
    <glyph glyph-name="iacute" unicode="&#xed;" horiz-adv-x="575" 
d="M106 0v1014h361v-1014h-361zM651 1317l-430 -256l-135 194l410 287z" />
    <glyph glyph-name="icircumflex" unicode="&#xee;" horiz-adv-x="575" 
d="M106 0v1014h361v-1014h-361zM-80 1227l260 246h213l260 -246l-151 -166l-215 170l-215 -170z" />
    <glyph glyph-name="idieresis" unicode="&#xef;" horiz-adv-x="575" 
d="M106 0v1014h361v-1014h-361zM-137 1280q0 82 50 133t132 51t132 -51t50 -133t-50 -132t-132 -50t-132 50t-50 132zM346 1280q0 82 50 133t132 51t132.5 -51t50.5 -133t-50.5 -132t-132.5 -50t-132 50t-50 132z" />
    <glyph glyph-name="eth" unicode="&#xf0;" 
d="M55 500q0 222 140 357.5t362 135.5q102 0 199 -47q-44 103 -148 178l-252 -125l-92 183l111 53q-37 15 -78 27l76 241q176 -37 321 -108l215 108l92 -182l-108 -55q144 -123 222 -286.5t79 -354.5q0 -64 -10 -136q-37 -232 -195 -373t-387 -141q-239 0 -393 147.5
t-154 377.5zM408 483q0 -107 58 -175t150 -68q93 0 152 68.5t59 178.5q0 107 -59 174.5t-152 67.5q-92 0 -150 -68.5t-58 -177.5z" />
    <glyph glyph-name="ntilde" unicode="&#xf1;" 
d="M106 0v1014h287l45 -111q126 135 332 135q180 0 293 -111t113 -286v-641h-361v582q0 70 -45.5 115.5t-114.5 45.5q-83 0 -135.5 -55.5t-52.5 -144.5v-543h-361zM502 1436q49 0 95.5 -17t81 -34t54.5 -17q48 0 70 68l211 -62q-15 -113 -83 -180.5t-167 -67.5q-49 0 -96 17
t-81.5 34t-54.5 17q-53 0 -69 -68l-211 62q15 113 83 180.5t167 67.5z" />
    <glyph glyph-name="ograve" unicode="&#xf2;" 
d="M55 506q0 234 162 383t416 149q255 0 416 -148.5t161 -383.5q0 -234 -161 -382.5t-416 -148.5q-254 0 -416 149t-162 382zM424 506q0 -110 58.5 -181t150.5 -71t151.5 71t59.5 181q0 112 -59 183t-152 71q-92 0 -150.5 -71t-58.5 -183zM455 1542l409 -287l-135 -194
l-432 256z" />
    <glyph glyph-name="oacute" unicode="&#xf3;" 
d="M55 506q0 234 162 383t416 149q255 0 416 -148.5t161 -383.5q0 -234 -161 -382.5t-416 -148.5q-254 0 -416 149t-162 382zM424 506q0 -110 58.5 -181t150.5 -71t151.5 71t59.5 181q0 112 -59 183t-152 71q-92 0 -150.5 -71t-58.5 -183zM997 1317l-430 -256l-135 194
l410 287z" />
    <glyph glyph-name="ocircumflex" unicode="&#xf4;" 
d="M55 506q0 234 162 383t416 149q255 0 416 -148.5t161 -383.5q0 -234 -161 -382.5t-416 -148.5q-254 0 -416 149t-162 382zM424 506q0 -110 58.5 -181t150.5 -71t151.5 71t59.5 181q0 112 -59 183t-152 71q-92 0 -150.5 -71t-58.5 -183zM266 1227l260 246h213l260 -246
l-151 -166l-215 170l-215 -170z" />
    <glyph glyph-name="otilde" unicode="&#xf5;" 
d="M55 506q0 234 162 383t416 149q255 0 416 -148.5t161 -383.5q0 -234 -161 -382.5t-416 -148.5q-254 0 -416 149t-162 382zM424 506q0 -110 58.5 -181t150.5 -71t151.5 71t59.5 181q0 112 -59 183t-152 71q-92 0 -150.5 -71t-58.5 -183zM502 1436q49 0 95.5 -17t81 -34
t54.5 -17q48 0 70 68l211 -62q-15 -113 -83 -180.5t-167 -67.5q-49 0 -96 17t-81.5 34t-54.5 17q-53 0 -69 -68l-211 62q15 113 83 180.5t167 67.5z" />
    <glyph glyph-name="odieresis" unicode="&#xf6;" 
d="M55 506q0 234 162 383t416 149q255 0 416 -148.5t161 -383.5q0 -234 -161 -382.5t-416 -148.5q-254 0 -416 149t-162 382zM424 506q0 -110 58.5 -181t150.5 -71t151.5 71t59.5 181q0 112 -59 183t-152 71q-92 0 -150.5 -71t-58.5 -183zM209 1280q0 82 50 133t132 51
t132 -51t50 -133t-50 -132t-132 -50t-132 50t-50 132zM692 1280q0 82 50 133t132 51t132.5 -51t50.5 -133t-50.5 -132t-132.5 -50t-132 50t-50 132z" />
    <glyph glyph-name="divide" unicode="&#xf7;" horiz-adv-x="1179" 
d="M72 455v270h1036v-270h-1036zM408 983q0 79 51 130.5t131 51.5q81 0 131.5 -48.5t50.5 -133.5q0 -79 -51 -130.5t-131 -51.5t-131 51.5t-51 130.5zM408 197q0 79 51 130.5t131 51.5t131 -51.5t51 -130.5q0 -80 -51.5 -131.5t-130.5 -51.5t-130.5 51.5t-51.5 131.5z" />
    <glyph glyph-name="oslash" unicode="&#xf8;" 
d="M55 506q0 234 162 383t416 149q128 0 248 -47l86 115l147 -111l-76 -100q172 -148 172 -389q0 -234 -161 -382.5t-416 -148.5q-137 0 -248 48l-86 -115l-147 110l73 97q-170 147 -170 391zM393 506q0 -69 29 -129l287 383q-44 14 -76 14q-105 0 -172.5 -75t-67.5 -193z
M872 506q0 71 -28 129l-285 -381q28 -14 74 -14q105 0 172 74t67 192z" />
    <glyph glyph-name="ugrave" unicode="&#xf9;" 
d="M1159 1014v-1014h-287l-45 111q-124 -136 -331 -136q-179 0 -292.5 110.5t-113.5 287.5v641h361v-582q0 -72 45 -118t116 -46q82 0 134.5 56t52.5 145v545h360zM455 1542l409 -287l-135 -194l-432 256z" />
    <glyph glyph-name="uacute" unicode="&#xfa;" 
d="M1159 1014v-1014h-287l-45 111q-124 -136 -331 -136q-179 0 -292.5 110.5t-113.5 287.5v641h361v-582q0 -72 45 -118t116 -46q82 0 134.5 56t52.5 145v545h360zM997 1317l-430 -256l-135 194l410 287z" />
    <glyph glyph-name="ucircumflex" unicode="&#xfb;" 
d="M1159 1014v-1014h-287l-45 111q-124 -136 -331 -136q-179 0 -292.5 110.5t-113.5 287.5v641h361v-582q0 -72 45 -118t116 -46q82 0 134.5 56t52.5 145v545h360zM266 1227l260 246h213l260 -246l-151 -166l-215 170l-215 -170z" />
    <glyph glyph-name="udieresis" unicode="&#xfc;" 
d="M1159 1014v-1014h-287l-45 111q-124 -136 -331 -136q-179 0 -292.5 110.5t-113.5 287.5v641h361v-582q0 -72 45 -118t116 -46q82 0 134.5 56t52.5 145v545h360zM209 1280q0 82 50 133t132 51t132 -51t50 -133t-50 -132t-132 -50t-132 50t-50 132zM692 1280q0 82 50 133
t132 51t132.5 -51t50.5 -133t-50.5 -132t-132.5 -50t-132 50t-50 132z" />
    <glyph glyph-name="yacute" unicode="&#xfd;" horiz-adv-x="1134" 
d="M1143 1014l-432 -1092q-144 -373 -457 -373q-80 0 -174 21l45 278q53 -12 92 -12q60 0 100 31.5t68 101.5l18 45l-411 1000h377l198 -608l199 608h377zM932 1317l-430 -256l-135 194l409 287z" />
    <glyph glyph-name="thorn" unicode="&#xfe;" 
d="M106 -426v1868h361v-500q116 96 272 96q207 0 339 -148.5t132 -383.5q0 -233 -132 -382t-339 -149q-154 0 -272 97v-498h-361zM844 506q0 110 -56.5 180t-144.5 70q-81 0 -131.5 -55t-50.5 -142v-106q0 -85 50.5 -140t131.5 -55q88 0 144.5 69.5t56.5 178.5z" />
    <glyph glyph-name="ydieresis" unicode="&#xff;" horiz-adv-x="1134" 
d="M1143 1014l-432 -1092q-144 -373 -457 -373q-80 0 -174 21l45 278q53 -12 92 -12q60 0 100 31.5t68 101.5l18 45l-411 1000h377l198 -608l199 608h377zM143 1280q0 82 50.5 133t132.5 51t132 -51t50 -133t-50 -132t-132 -50t-132.5 50t-50.5 132zM627 1280q0 82 50 133
t132 51t132 -51t50 -133t-50 -132t-132 -50t-132 50t-50 132z" />
    <glyph glyph-name="Amacron" unicode="&#x100;" horiz-adv-x="1417" 
d="M-23 0l560 1376h346l557 -1376h-375l-102 279h-506l-103 -279h-377zM709 969l-156 -420h311zM371 1524v239h676v-239h-676z" />
    <glyph glyph-name="amacron" unicode="&#x101;" horiz-adv-x="1171" 
d="M55 305q0 162 124.5 252t346.5 90q80 0 174 -16v8q0 59 -50 97t-126 38q-146 0 -327 -74l-91 248q242 90 463 90q209 0 335 -112t126 -295v-334q0 -23 14 -37t37 -14q19 0 47 4l23 -258q-87 -17 -170 -17q-75 0 -133 30.5t-92 86.5q-69 -56 -156 -86.5t-172 -30.5
q-164 0 -268.5 92t-104.5 238zM393 328q0 -45 37 -75t94 -30q76 0 126 48t50 122v37q-72 14 -129 14q-80 0 -129 -31.5t-49 -84.5zM231 1161v240h676v-240h-676z" />
    <glyph glyph-name="Abreve" unicode="&#x102;" horiz-adv-x="1417" 
d="M-23 0l560 1376h346l557 -1376h-375l-102 279h-506l-103 -279h-377zM709 969l-156 -420h311zM342 1802h227q3 -58 42 -91.5t98 -33.5t97.5 33.5t41.5 91.5h227q-6 -170 -107.5 -268t-258.5 -98t-259 98t-108 268z" />
    <glyph glyph-name="abreve" unicode="&#x103;" horiz-adv-x="1171" 
d="M55 305q0 162 124.5 252t346.5 90q80 0 174 -16v8q0 59 -50 97t-126 38q-146 0 -327 -74l-91 248q242 90 463 90q209 0 335 -112t126 -295v-334q0 -23 14 -37t37 -14q19 0 47 4l23 -258q-87 -17 -170 -17q-75 0 -133 30.5t-92 86.5q-69 -56 -156 -86.5t-172 -30.5
q-164 0 -268.5 92t-104.5 238zM393 328q0 -45 37 -75t94 -30q76 0 126 48t50 122v37q-72 14 -129 14q-80 0 -129 -31.5t-49 -84.5zM203 1440h227q3 -58 41.5 -91.5t97.5 -33.5t98 33.5t42 91.5h227q-6 -170 -108 -268.5t-259 -98.5t-258.5 98.5t-107.5 268.5z" />
    <glyph glyph-name="Aogonek" unicode="&#x104;" horiz-adv-x="1419" 
d="M-23 0l560 1376h346l557 -1376q-146 -115 -146 -205q0 -33 22.5 -52t55.5 -19q16 0 62 8l36 -191q-85 -28 -188 -28q-115 0 -183.5 58t-68.5 157q0 146 168 272h-133l-102 279h-506l-103 -279h-377zM709 969l-156 -420h311z" />
    <glyph glyph-name="aogonek" unicode="&#x105;" horiz-adv-x="1171" 
d="M55 305q0 162 124.5 252t346.5 90q80 0 174 -16v8q0 59 -50 97t-126 38q-146 0 -327 -74l-91 248q242 90 463 90q209 0 335 -112t126 -295v-334q0 -23 14 -37t37 -14q19 0 47 4l23 -258q-145 -113 -145 -197q0 -33 22 -52t55 -19q16 0 62 8l37 -191q-83 -28 -189 -28
q-114 0 -183 58t-69 157q0 137 154 260q-90 24 -139 104q-69 -56 -156 -86.5t-172 -30.5q-164 0 -268.5 92t-104.5 238zM393 328q0 -45 37 -75t94 -30q76 0 126 48t50 122v37q-72 14 -129 14q-80 0 -129 -31.5t-49 -84.5z" />
    <glyph glyph-name="Cacute" unicode="&#x106;" horiz-adv-x="1341" 
d="M57 688q0 207 93 369.5t261 253t382 90.5q270 0 522 -162l-150 -248q-166 113 -321 113q-180 0 -292 -115.5t-112 -300.5t112 -300.5t292 -115.5q155 0 321 113l150 -248q-252 -162 -522 -162q-214 0 -382 91t-261 253.5t-93 368.5zM1133 1679l-431 -256l-135 195
l410 287z" />
    <glyph glyph-name="cacute" unicode="&#x107;" horiz-adv-x="1042" 
d="M55 506q0 233 158 382.5t405 149.5q219 0 416 -123l-143 -239q-120 76 -221 76q-109 0 -177.5 -68.5t-68.5 -177.5t68.5 -176.5t177.5 -67.5q101 0 221 76l143 -242q-198 -121 -416 -121q-247 0 -405 149.5t-158 381.5zM952 1317l-430 -256l-135 194l410 287z" />
    <glyph glyph-name="Ccircumflex" unicode="&#x108;" horiz-adv-x="1341" 
d="M57 688q0 207 93 369.5t261 253t382 90.5q270 0 522 -162l-150 -248q-166 113 -321 113q-180 0 -292 -115.5t-112 -300.5t112 -300.5t292 -115.5q155 0 321 113l150 -248q-252 -162 -522 -162q-214 0 -382 91t-261 253.5t-93 368.5zM401 1589l261 246h212l261 -246
l-152 -166l-215 170l-215 -170z" />
    <glyph glyph-name="ccircumflex" unicode="&#x109;" horiz-adv-x="1042" 
d="M55 506q0 233 158 382.5t405 149.5q219 0 416 -123l-143 -239q-120 76 -221 76q-109 0 -177.5 -68.5t-68.5 -177.5t68.5 -176.5t177.5 -67.5q101 0 221 76l143 -242q-198 -121 -416 -121q-247 0 -405 149.5t-158 381.5zM221 1227l260 246h213l260 -246l-151 -166
l-215 170l-215 -170z" />
    <glyph glyph-name="Cdotaccent" unicode="&#x10a;" horiz-adv-x="1341" 
d="M57 688q0 207 93 369.5t261 253t382 90.5q270 0 522 -162l-150 -248q-166 113 -321 113q-180 0 -292 -115.5t-112 -300.5t112 -300.5t292 -115.5q155 0 321 113l150 -248q-252 -162 -522 -162q-214 0 -382 91t-261 253.5t-93 368.5zM569 1642q0 88 55.5 143.5t143.5 55.5
t143.5 -55.5t55.5 -143.5q0 -86 -55.5 -141t-143.5 -55t-143.5 55t-55.5 141z" />
    <glyph glyph-name="cdotaccent" unicode="&#x10b;" horiz-adv-x="1042" 
d="M55 506q0 233 158 382.5t405 149.5q219 0 416 -123l-143 -239q-120 76 -221 76q-109 0 -177.5 -68.5t-68.5 -177.5t68.5 -176.5t177.5 -67.5q101 0 221 76l143 -242q-198 -121 -416 -121q-247 0 -405 149.5t-158 381.5zM389 1280q0 88 55.5 143.5t143.5 55.5t143 -55.5
t55 -143.5q0 -86 -55 -141.5t-143 -55.5t-143.5 55.5t-55.5 141.5z" />
    <glyph glyph-name="Ccaron" unicode="&#x10c;" horiz-adv-x="1341" 
d="M57 688q0 207 93 369.5t261 253t382 90.5q270 0 522 -162l-150 -248q-166 113 -321 113q-180 0 -292 -115.5t-112 -300.5t112 -300.5t292 -115.5q155 0 321 113l150 -248q-252 -162 -522 -162q-214 0 -382 91t-261 253.5t-93 368.5zM1135 1698l-261 -246h-212l-261 246
l152 166l215 -170l215 170z" />
    <glyph glyph-name="ccaron" unicode="&#x10d;" horiz-adv-x="1042" 
d="M55 506q0 233 158 382.5t405 149.5q219 0 416 -123l-143 -239q-120 76 -221 76q-109 0 -177.5 -68.5t-68.5 -177.5t68.5 -176.5t177.5 -67.5q101 0 221 76l143 -242q-198 -121 -416 -121q-247 0 -405 149.5t-158 381.5zM954 1335l-260 -245h-213l-260 245l152 166
l215 -170l215 170z" />
    <glyph glyph-name="Dcaron" unicode="&#x10e;" horiz-adv-x="1515" 
d="M141 0v1376h600q321 0 520 -190.5t199 -497.5q0 -305 -199.5 -496.5t-519.5 -191.5h-600zM1077 688q0 177 -107 289.5t-274 112.5h-180v-803h180q167 0 274 112t107 289zM1092 1698l-261 -246h-213l-260 246l152 166l215 -170l215 170z" />
    <glyph glyph-name="dcaron" unicode="&#x10f;" horiz-adv-x="1486" 
d="M1159 1442v-1442h-287l-45 94q-116 -119 -301 -119q-207 0 -339 149t-132 382q0 235 132 383.5t339 148.5q157 0 273 -96v500h360zM424 506q0 -109 55.5 -178.5t143.5 -69.5q81 0 131.5 55t50.5 140v106q0 87 -50.5 142t-131.5 55q-88 0 -143.5 -70t-55.5 -180z
M1577 1454l-154 -385l-233 78l131 395z" />
    <glyph glyph-name="Dcroat" unicode="&#x110;" horiz-adv-x="1548" 
d="M174 0v569h-139v271h139v536h600q321 0 520 -190.5t199 -497.5q0 -305 -199.5 -496.5t-519.5 -191.5h-600zM1124 688q0 177 -106.5 289.5t-272.5 112.5h-210v-250h276v-271h-276v-282h210q166 0 272.5 112t106.5 289z" />
    <glyph glyph-name="dcroat" unicode="&#x111;" 
d="M1159 1442v-107h105v-241h-105v-1094h-287l-45 94q-116 -119 -301 -119q-207 0 -339 149t-132 382q0 235 132 383.5t339 148.5q157 0 273 -96v152h-305v241h305v107h360zM424 506q0 -109 55.5 -178.5t143.5 -69.5q81 0 131.5 55t50.5 140v106q0 87 -50.5 142t-131.5 55
q-88 0 -143.5 -70t-55.5 -180z" />
    <glyph glyph-name="Emacron" unicode="&#x112;" horiz-adv-x="1243" 
d="M141 0v1376h998v-278h-623v-258h557v-271h-557v-290h655v-279h-1030zM299 1524v239h676v-239h-676z" />
    <glyph glyph-name="emacron" unicode="&#x113;" horiz-adv-x="1155" 
d="M55 506q0 235 153 383.5t394 148.5q227 0 370.5 -143.5t143.5 -372.5q0 -56 -6 -108h-694q20 -80 91.5 -127t172.5 -47q123 0 281 82l106 -242q-225 -105 -432 -105q-257 0 -418.5 148.5t-161.5 382.5zM602 774q-70 0 -120.5 -40.5t-65.5 -108.5h354q-9 68 -55 108.5
t-113 40.5zM264 1161v240h676v-240h-676z" />
    <glyph glyph-name="Ebreve" unicode="&#x114;" horiz-adv-x="1243" 
d="M141 0v1376h998v-278h-623v-258h557v-271h-557v-290h655v-279h-1030zM270 1802h228q3 -58 41.5 -91.5t97.5 -33.5t97.5 33.5t41.5 91.5h228q-6 -170 -108 -268t-259 -98t-259 98t-108 268z" />
    <glyph glyph-name="ebreve" unicode="&#x115;" horiz-adv-x="1155" 
d="M55 506q0 235 153 383.5t394 148.5q227 0 370.5 -143.5t143.5 -372.5q0 -56 -6 -108h-694q20 -80 91.5 -127t172.5 -47q123 0 281 82l106 -242q-225 -105 -432 -105q-257 0 -418.5 148.5t-161.5 382.5zM602 774q-70 0 -120.5 -40.5t-65.5 -108.5h354q-9 68 -55 108.5
t-113 40.5zM233 1440h228q3 -58 41.5 -91.5t97.5 -33.5t97.5 33.5t41.5 91.5h228q-6 -170 -108 -268.5t-259 -98.5t-259 98.5t-108 268.5z" />
    <glyph glyph-name="Edotaccent" unicode="&#x116;" horiz-adv-x="1243" 
d="M141 0v1376h998v-278h-623v-258h557v-271h-557v-290h655v-279h-1030zM438 1642q0 88 55.5 143.5t143.5 55.5t143.5 -55.5t55.5 -143.5q0 -86 -55.5 -141t-143.5 -55t-143.5 55t-55.5 141z" />
    <glyph glyph-name="edotaccent" unicode="&#x117;" horiz-adv-x="1155" 
d="M55 506q0 235 153 383.5t394 148.5q227 0 370.5 -143.5t143.5 -372.5q0 -56 -6 -108h-694q20 -80 91.5 -127t172.5 -47q123 0 281 82l106 -242q-225 -105 -432 -105q-257 0 -418.5 148.5t-161.5 382.5zM602 774q-70 0 -120.5 -40.5t-65.5 -108.5h354q-9 68 -55 108.5
t-113 40.5zM403 1280q0 88 55.5 143.5t143.5 55.5t143.5 -55.5t55.5 -143.5q0 -86 -55.5 -141.5t-143.5 -55.5t-143.5 55.5t-55.5 141.5z" />
    <glyph glyph-name="Eogonek" unicode="&#x118;" horiz-adv-x="1243" 
d="M141 0v1376h998v-278h-623v-258h557v-271h-557v-290h655v-279q-145 -114 -145 -205q0 -33 22.5 -52t55.5 -19q15 0 61 8l37 -191q-85 -28 -188 -28q-115 0 -183.5 58t-68.5 157q0 146 168 272h-789z" />
    <glyph glyph-name="eogonek" unicode="&#x119;" horiz-adv-x="1155" 
d="M55 506q0 235 153 383.5t394 148.5q227 0 370.5 -143.5t143.5 -372.5q0 -56 -6 -108h-694q20 -80 91.5 -127t172.5 -47q123 0 281 82l106 -242q-178 -146 -178 -268q0 -40 22.5 -64t55.5 -24q21 0 53 8l47 -187q-85 -32 -188 -32q-115 0 -184.5 60.5t-69.5 162.5
q0 137 123 248q-88 -9 -113 -9q-257 0 -418.5 148.5t-161.5 382.5zM602 774q-70 0 -120.5 -40.5t-65.5 -108.5h354q-9 68 -55 108.5t-113 40.5z" />
    <glyph glyph-name="Ecaron" unicode="&#x11a;" horiz-adv-x="1243" 
d="M141 0v1376h998v-278h-623v-258h557v-271h-557v-290h655v-279h-1030zM1004 1698l-261 -246h-213l-260 246l152 166l215 -170l215 170z" />
    <glyph glyph-name="ecaron" unicode="&#x11b;" horiz-adv-x="1155" 
d="M55 506q0 235 153 383.5t394 148.5q227 0 370.5 -143.5t143.5 -372.5q0 -56 -6 -108h-694q20 -80 91.5 -127t172.5 -47q123 0 281 82l106 -242q-225 -105 -432 -105q-257 0 -418.5 148.5t-161.5 382.5zM602 774q-70 0 -120.5 -40.5t-65.5 -108.5h354q-9 68 -55 108.5
t-113 40.5zM969 1335l-260 -245h-213l-260 245l151 166l215 -170l215 170z" />
    <glyph glyph-name="Gcircumflex" unicode="&#x11c;" horiz-adv-x="1482" 
d="M1378 805v-709q-290 -121 -553 -121q-223 0 -398 90.5t-272.5 253t-97.5 369.5q0 155 56 287.5t154.5 226t238.5 146.5t303 53q265 0 539 -146l-136 -249q-208 108 -358 108q-190 0 -310 -119t-120 -307q0 -191 119.5 -308.5t310.5 -117.5q95 0 180 31v239h-274v273h618z
M434 1589l260 246h213l260 -246l-151 -166l-215 170l-215 -170z" />
    <glyph glyph-name="gcircumflex" unicode="&#x11d;" 
d="M1159 1014v-961q0 -219 -167 -361.5t-423 -142.5q-225 0 -463 97l99 264q183 -82 334 -82q116 0 188 58.5t72 152.5v33q-118 -97 -273 -97q-207 0 -339 149t-132 382q0 235 132 383.5t339 148.5q183 0 301 -118l45 94h287zM424 506q0 -109 55.5 -178.5t143.5 -69.5
q81 0 131.5 55t50.5 140v106q0 87 -50.5 142t-131.5 55q-88 0 -143.5 -70t-55.5 -180zM266 1227l260 246h213l260 -246l-151 -166l-215 170l-215 -170z" />
    <glyph glyph-name="Gbreve" unicode="&#x11e;" horiz-adv-x="1482" 
d="M1378 805v-709q-290 -121 -553 -121q-223 0 -398 90.5t-272.5 253t-97.5 369.5q0 155 56 287.5t154.5 226t238.5 146.5t303 53q265 0 539 -146l-136 -249q-208 108 -358 108q-190 0 -310 -119t-120 -307q0 -191 119.5 -308.5t310.5 -117.5q95 0 180 31v239h-274v273h618z
M432 1802h227q3 -58 42 -91.5t98 -33.5t97.5 33.5t41.5 91.5h227q-6 -170 -107.5 -268t-258.5 -98t-259 98t-108 268z" />
    <glyph glyph-name="gbreve" unicode="&#x11f;" 
d="M1159 1014v-961q0 -219 -167 -361.5t-423 -142.5q-225 0 -463 97l99 264q183 -82 334 -82q116 0 188 58.5t72 152.5v33q-118 -97 -273 -97q-207 0 -339 149t-132 382q0 235 132 383.5t339 148.5q183 0 301 -118l45 94h287zM424 506q0 -109 55.5 -178.5t143.5 -69.5
q81 0 131.5 55t50.5 140v106q0 87 -50.5 142t-131.5 55q-88 0 -143.5 -70t-55.5 -180zM266 1440h228q3 -58 41.5 -91.5t97.5 -33.5t97.5 33.5t41.5 91.5h227q-6 -170 -107.5 -268.5t-258.5 -98.5t-259 98.5t-108 268.5z" />
    <glyph glyph-name="Gdotaccent" unicode="&#x120;" horiz-adv-x="1482" 
d="M1378 805v-709q-290 -121 -553 -121q-223 0 -398 90.5t-272.5 253t-97.5 369.5q0 155 56 287.5t154.5 226t238.5 146.5t303 53q265 0 539 -146l-136 -249q-208 108 -358 108q-190 0 -310 -119t-120 -307q0 -191 119.5 -308.5t310.5 -117.5q95 0 180 31v239h-274v273h618z
M602 1642q0 88 55.5 143.5t143.5 55.5t143 -55.5t55 -143.5q0 -86 -55 -141t-143 -55t-143.5 55t-55.5 141z" />
    <glyph glyph-name="gdotaccent" unicode="&#x121;" 
d="M1159 1014v-961q0 -219 -167 -361.5t-423 -142.5q-225 0 -463 97l99 264q183 -82 334 -82q116 0 188 58.5t72 152.5v33q-118 -97 -273 -97q-207 0 -339 149t-132 382q0 235 132 383.5t339 148.5q183 0 301 -118l45 94h287zM424 506q0 -109 55.5 -178.5t143.5 -69.5
q81 0 131.5 55t50.5 140v106q0 87 -50.5 142t-131.5 55q-88 0 -143.5 -70t-55.5 -180zM434 1280q0 88 55.5 143.5t143.5 55.5t143 -55.5t55 -143.5q0 -86 -55.5 -141.5t-142.5 -55.5q-88 0 -143.5 55.5t-55.5 141.5z" />
    <glyph glyph-name="Gcommaaccent" unicode="&#x122;" horiz-adv-x="1482" 
d="M1378 805v-709q-290 -121 -553 -121q-223 0 -398 90.5t-272.5 253t-97.5 369.5q0 155 56 287.5t154.5 226t238.5 146.5t303 53q265 0 539 -146l-136 -249q-208 108 -358 108q-190 0 -310 -119t-120 -307q0 -191 119.5 -308.5t310.5 -117.5q95 0 180 31v239h-274v273h618z
M618 -242q0 82 50.5 132.5t132.5 50.5q81 0 132.5 -58t51.5 -145q0 -119 -65.5 -222.5t-186.5 -172.5l-92 120q81 72 117 142q-61 1 -100.5 46t-39.5 107z" />
    <glyph glyph-name="gcommaaccent" unicode="&#x123;" 
d="M1159 1014v-961q0 -219 -167 -361.5t-423 -142.5q-225 0 -463 97l99 264q183 -82 334 -82q116 0 188 58.5t72 152.5v33q-118 -97 -273 -97q-207 0 -339 149t-132 382q0 235 132 383.5t339 148.5q183 0 301 -118l45 94h287zM424 506q0 -109 55.5 -178.5t143.5 -69.5
q81 0 131.5 55t50.5 140v106q0 87 -50.5 142t-131.5 55q-88 0 -143.5 -70t-55.5 -180zM815 1255q0 -82 -50 -132t-132 -50q-81 0 -132.5 57.5t-51.5 143.5q0 120 65 223.5t186 173.5l93 -121q-79 -70 -117 -141q61 -6 100 -50.5t39 -103.5z" />
    <glyph glyph-name="Hcircumflex" unicode="&#x124;" horiz-adv-x="1613" 
d="M141 0v1376h375v-528h582v528h375v-1376h-375v561h-582v-561h-375zM440 1589l260 246h213l261 -246l-152 -166l-215 170l-215 -170z" />
    <glyph glyph-name="hcircumflex" unicode="&#x125;" 
d="M106 0v1442h361v-516q121 112 303 112q180 0 293 -111t113 -286v-641h-361v582q0 70 -45.5 115.5t-114.5 45.5q-83 0 -135.5 -55.5t-52.5 -144.5v-543h-361zM-80 1655l260 246h213l260 -246l-151 -166l-215 170l-215 -170z" />
    <glyph glyph-name="Hbar" unicode="&#x126;" horiz-adv-x="1613" 
d="M141 0v995h-106v242h106v139h375v-139h582v139h375v-139h106v-242h-106v-995h-375v561h-582v-561h-375zM516 848h582v147h-582v-147z" />
    <glyph glyph-name="hbar" unicode="&#x127;" 
d="M106 0v1094h-104v241h104v107h361v-107h305v-241h-305v-168q121 112 303 112q180 0 293 -111t113 -286v-641h-361v582q0 70 -45.5 115.5t-114.5 45.5q-83 0 -135.5 -55.5t-52.5 -144.5v-543h-361z" />
    <glyph glyph-name="Itilde" unicode="&#x128;" horiz-adv-x="657" 
d="M141 0v1376h375v-1376h-375zM199 1798q49 0 95.5 -17t81 -33.5t54.5 -16.5q48 0 70 67l211 -61q-15 -113 -83 -180.5t-167 -67.5q-49 0 -96 16.5t-81.5 33.5t-54.5 17q-53 0 -69 -67l-211 61q15 113 83 180.5t167 67.5z" />
    <glyph glyph-name="itilde" unicode="&#x129;" horiz-adv-x="575" 
d="M106 0v1014h361v-1014h-361zM156 1436q49 0 95.5 -17t81 -34t54.5 -17q48 0 70 68l211 -62q-15 -113 -83 -180.5t-167 -67.5q-49 0 -96 17t-81.5 34t-54.5 17q-53 0 -69 -68l-211 62q15 113 83 180.5t167 67.5z" />
    <glyph glyph-name="Imacron" unicode="&#x12a;" horiz-adv-x="657" 
d="M141 0v1376h375v-1376h-375zM-8 1524v239h676v-239h-676z" />
    <glyph glyph-name="imacron" unicode="&#x12b;" horiz-adv-x="575" 
d="M106 0v1014h361v-1014h-361zM-51 1161v240h676v-240h-676z" />
    <glyph glyph-name="Ibreve" unicode="&#x12c;" horiz-adv-x="657" 
d="M141 0v1376h375v-1376h-375zM-39 1802h227q3 -58 42 -91.5t98 -33.5t97.5 33.5t41.5 91.5h227q-6 -170 -107.5 -268t-258.5 -98t-259 98t-108 268z" />
    <glyph glyph-name="ibreve" unicode="&#x12d;" horiz-adv-x="575" 
d="M106 0v1014h361v-1014h-361zM-80 1440h227q3 -58 42 -91.5t98 -33.5t97.5 33.5t41.5 91.5h227q-6 -170 -107.5 -268.5t-258.5 -98.5t-259 98.5t-108 268.5z" />
    <glyph glyph-name="Iogonek" unicode="&#x12e;" horiz-adv-x="657" 
d="M516 1376v-1376q-145 -114 -145 -205q0 -33 22.5 -52t55.5 -19q15 0 61 8l37 -191q-85 -28 -189 -28q-115 0 -183.5 58t-68.5 157q0 146 168 272h-133v1376h375z" />
    <glyph glyph-name="iogonek" unicode="&#x12f;" horiz-adv-x="575" 
d="M467 1014v-1014q-145 -114 -145 -205q0 -33 22 -52t55 -19q16 0 62 8l37 -191q-85 -28 -189 -28q-115 0 -183.5 58t-68.5 157q0 146 168 272h-119v1014h361zM82 1280q0 91 58 149t147 58q91 0 149 -58t58 -149q0 -89 -58 -147t-149 -58q-89 0 -147 58t-58 147z" />
    <glyph glyph-name="Idotaccent" unicode="&#x130;" horiz-adv-x="657" 
d="M141 0v1376h375v-1376h-375zM131 1642q0 88 55.5 143.5t143.5 55.5t143 -55.5t55 -143.5q0 -86 -55 -141t-143 -55t-143.5 55t-55.5 141z" />
    <glyph glyph-name="dotlessi" unicode="&#x131;" horiz-adv-x="575" 
d="M106 0v1014h361v-1014h-361z" />
    <glyph glyph-name="IJ" unicode="&#x132;" horiz-adv-x="1603" 
d="M141 0v1376h375v-1376h-375zM1460 1376v-952q0 -201 -130 -325t-339 -124q-153 0 -313 41l45 285q112 -25 178 -25q80 0 132 51.5t52 133.5v915h375z" />
    <glyph glyph-name="ij" unicode="&#x133;" horiz-adv-x="1165" 
d="M106 0v1014h361v-1014h-361zM82 1280q0 91 58 149t147 58q91 0 149 -58t58 -149q0 -89 -58 -147t-149 -58q-89 0 -147 58t-58 147zM1059 1014v-1106q0 -161 -104.5 -260t-274.5 -99q-122 0 -254 33l45 266q67 -12 119 -12q51 0 79.5 29t28.5 80v1069h361zM674 1280
q0 91 58 149t147 58q91 0 148.5 -58t57.5 -149q0 -90 -57.5 -147.5t-148.5 -57.5q-89 0 -147 58t-58 147z" />
    <glyph glyph-name="Jcircumflex" unicode="&#x134;" horiz-adv-x="944" 
d="M803 1376v-952q0 -201 -130 -325t-339 -124q-154 0 -314 41l46 285q113 -25 178 -25q80 0 132 51.5t52 133.5v915h375zM248 1589l260 246h213l260 -246l-152 -166l-215 170l-215 -170z" />
    <glyph glyph-name="jcircumflex" unicode="&#x135;" horiz-adv-x="591" 
d="M483 1014v-1106q0 -161 -104.5 -260t-274.5 -99q-122 0 -254 33l46 266q68 -12 118 -12q51 0 80 29t29 80v1069h360zM-63 1227l260 246h213l260 -246l-152 -166l-215 170l-215 -170z" />
    <glyph glyph-name="Kcommaaccent" unicode="&#x136;" horiz-adv-x="1429" 
d="M141 0v1376h361v-581l508 581h430l-586 -643l610 -733h-436l-424 514l-102 -111v-403h-361zM549 -242q0 82 50 132.5t132 50.5q81 0 132.5 -58t51.5 -145q0 -119 -65 -223t-186 -172l-93 120q81 72 117 142q-60 1 -99.5 45.5t-39.5 107.5z" />
    <glyph glyph-name="kcommaaccent" unicode="&#x137;" horiz-adv-x="1132" 
d="M106 0v1442h347v-795l292 367h406l-416 -475l432 -539h-413l-250 328l-51 -56v-272h-347zM383 -242q0 82 50 132.5t132 50.5q81 0 133 -58t52 -145q0 -119 -65.5 -222.5t-186.5 -172.5l-92 120q79 70 116 142q-60 1 -99.5 45.5t-39.5 107.5z" />
    <glyph glyph-name="kgreenlandic" unicode="&#x138;" horiz-adv-x="1132" 
d="M106 0v1014h347v-367l292 367h406l-416 -475l432 -539h-413l-250 328l-51 -56v-272h-347z" />
    <glyph glyph-name="Lacute" unicode="&#x139;" horiz-adv-x="1112" 
d="M141 0v1376h375v-1089h559v-287h-934zM694 1679l-430 -256l-135 195l410 287z" />
    <glyph glyph-name="lacute" unicode="&#x13a;" horiz-adv-x="673" 
d="M467 1442v-1100q0 -37 22.5 -58.5t59.5 -21.5q26 0 84 8l37 -270q-116 -25 -211 -25q-162 0 -257.5 89.5t-95.5 240.5v1137h361zM651 1745l-430 -256l-135 194l410 287z" />
    <glyph glyph-name="Lcommaaccent" unicode="&#x13b;" horiz-adv-x="1112" 
d="M141 0v1376h375v-1089h559v-287h-934zM438 -242q0 82 50.5 132.5t132.5 50.5q81 0 132.5 -58t51.5 -145q0 -119 -65.5 -222.5t-186.5 -172.5l-92 120q81 72 117 142q-61 1 -100.5 46t-39.5 107z" />
    <glyph glyph-name="lcommaaccent" unicode="&#x13c;" horiz-adv-x="673" 
d="M467 1442v-1100q0 -37 22.5 -58.5t59.5 -21.5q26 0 84 8l37 -270q-116 -25 -211 -25q-162 0 -257.5 89.5t-95.5 240.5v1137h361zM190 -242q0 82 50.5 132.5t132.5 50.5q81 0 132.5 -58t51.5 -145q0 -119 -65.5 -222.5t-186.5 -172.5l-92 120q81 72 117 142
q-61 1 -100.5 46t-39.5 107z" />
    <glyph glyph-name="Lcaron" unicode="&#x13d;" horiz-adv-x="1112" 
d="M141 0v1376h375v-1089h559v-287h-934zM985 1389l-154 -385l-233 77l131 396z" />
    <glyph glyph-name="lcaron" unicode="&#x13e;" horiz-adv-x="643" 
d="M467 1442v-1100q0 -37 22.5 -58.5t59.5 -21.5q26 0 84 8l37 -270q-116 -25 -211 -25q-162 0 -257.5 89.5t-95.5 240.5v1137h361zM903 1454l-153 -385l-234 78l131 395z" />
    <glyph glyph-name="Ldot" unicode="&#x13f;" horiz-adv-x="1144" 
d="M141 0v1376h375v-1089h559v-287h-934zM702 735q0 88 55.5 143.5t143.5 55.5t143.5 -55.5t55.5 -143.5q0 -86 -55.5 -141t-143.5 -55t-143.5 55t-55.5 141z" />
    <glyph glyph-name="ldot" unicode="&#x140;" horiz-adv-x="886" 
d="M467 1442v-1100q0 -37 22.5 -58.5t59.5 -21.5q26 0 84 8l37 -270q-116 -25 -211 -25q-162 0 -257.5 89.5t-95.5 240.5v1137h361zM532 705q0 88 55.5 143t143.5 55t143.5 -55t55.5 -143q0 -86 -55.5 -141.5t-143.5 -55.5t-143.5 55.5t-55.5 141.5z" />
    <glyph glyph-name="Lslash" unicode="&#x141;" horiz-adv-x="1144" 
d="M174 0v465l-78 -39l-112 215l190 96v639h375v-450l180 90l115 -215l-295 -148v-366h559v-287h-934z" />
    <glyph glyph-name="lslash" unicode="&#x142;" horiz-adv-x="739" 
d="M-80 672l203 102v668h360v-488l125 62l113 -213l-238 -119v-342q0 -37 22.5 -58.5t59.5 -21.5q26 0 84 8l37 -270q-116 -25 -211 -25q-156 0 -254 92.5t-98 237.5v199l-90 -45z" />
    <glyph glyph-name="Nacute" unicode="&#x143;" horiz-adv-x="1646" 
d="M141 0v1376h361l626 -866v866h345v-1376h-361l-625 866v-866h-346zM1171 1679l-430 -256l-135 195l410 287z" />
    <glyph glyph-name="nacute" unicode="&#x144;" 
d="M106 0v1014h287l45 -111q126 135 332 135q180 0 293 -111t113 -286v-641h-361v582q0 70 -45.5 115.5t-114.5 45.5q-83 0 -135.5 -55.5t-52.5 -144.5v-543h-361zM1006 1317l-431 -256l-135 194l410 287z" />
    <glyph glyph-name="Ncommaaccent" unicode="&#x145;" horiz-adv-x="1613" 
d="M141 0v1376h361l626 -866v866h345v-1376h-361l-625 866v-866h-346zM625 -242q0 82 50 132.5t132 50.5q81 0 132.5 -58t51.5 -145q0 -119 -65.5 -222.5t-186.5 -172.5l-92 120q81 72 117 142q-60 1 -99.5 45.5t-39.5 107.5z" />
    <glyph glyph-name="ncommaaccent" unicode="&#x146;" 
d="M106 0v1014h287l45 -111q126 135 332 135q180 0 293 -111t113 -286v-641h-361v582q0 70 -45.5 115.5t-114.5 45.5q-83 0 -135.5 -55.5t-52.5 -144.5v-543h-361zM459 -242q0 82 50 132.5t132 50.5q81 0 132.5 -58t51.5 -145q0 -119 -65.5 -222.5t-186.5 -172.5l-92 120
q81 72 117 142q-60 1 -99.5 45.5t-39.5 107.5z" />
    <glyph glyph-name="Ncaron" unicode="&#x147;" horiz-adv-x="1613" 
d="M141 0v1376h361l626 -866v866h345v-1376h-361l-625 866v-866h-346zM1174 1698l-261 -246h-213l-260 246l152 166l215 -170l215 170z" />
    <glyph glyph-name="ncaron" unicode="&#x148;" 
d="M106 0v1014h287l45 -111q126 135 332 135q180 0 293 -111t113 -286v-641h-361v582q0 70 -45.5 115.5t-114.5 45.5q-83 0 -135.5 -55.5t-52.5 -144.5v-543h-361zM1008 1335l-260 -245h-213l-261 245l152 166l215 -170l215 170z" />
    <glyph glyph-name="napostrophe" unicode="&#x149;" horiz-adv-x="1646" 
d="M487 0v1014h287l45 -111q126 135 332 135q180 0 292.5 -111t112.5 -286v-641h-360v582q0 70 -45.5 115.5t-114.5 45.5q-83 0 -135.5 -55.5t-52.5 -144.5v-543h-361zM31 1221q0 82 50 132t132 50q81 0 132.5 -58t51.5 -145q0 -119 -65.5 -222.5t-186.5 -172.5l-92 121
q82 73 117 141q-60 1 -99.5 46t-39.5 108z" />
    <glyph glyph-name="Eng" unicode="&#x14a;" horiz-adv-x="1613" 
d="M141 0v1376h361l626 -866v866h345v-1378q0 -201 -130 -325t-339 -124q-154 0 -314 41l47 285q125 -25 199 -25q75 0 125.5 38t50.5 94v18l-625 866v-866h-346z" />
    <glyph glyph-name="eng" unicode="&#x14b;" 
d="M106 0v1014h287l45 -111q126 135 332 135q180 0 293 -111t113 -288v-731q0 -161 -105.5 -260t-275.5 -99q-123 0 -252 33l45 266q64 -12 119 -12q51 0 79.5 29t28.5 80v635q0 72 -45.5 117.5t-114.5 45.5q-83 0 -135.5 -53.5t-52.5 -138.5v-551h-361z" />
    <glyph glyph-name="Omacron" unicode="&#x14c;" horiz-adv-x="1613" 
d="M57 688q0 155 55.5 287.5t154 226t238 146.5t302.5 53t303 -53t238.5 -146.5t154.5 -226t56 -287.5t-56 -287.5t-154.5 -226t-238.5 -146.5t-303 -53t-302.5 53t-238 146.5t-154 226t-55.5 287.5zM440 688q0 -185 102.5 -302.5t264.5 -117.5q163 0 266 117.5t103 302.5
t-103 302.5t-266 117.5q-162 0 -264.5 -117.5t-102.5 -302.5zM469 1524v239h676v-239h-676z" />
    <glyph glyph-name="omacron" unicode="&#x14d;" 
d="M55 506q0 234 162 383t416 149q255 0 416 -148.5t161 -383.5q0 -234 -161 -382.5t-416 -148.5q-254 0 -416 149t-162 382zM424 506q0 -110 58.5 -181t150.5 -71t151.5 71t59.5 181q0 112 -59 183t-152 71q-92 0 -150.5 -71t-58.5 -183zM295 1161v240h676v-240h-676z" />
    <glyph glyph-name="Obreve" unicode="&#x14e;" horiz-adv-x="1613" 
d="M57 688q0 155 55.5 287.5t154 226t238 146.5t302.5 53t303 -53t238.5 -146.5t154.5 -226t56 -287.5t-56 -287.5t-154.5 -226t-238.5 -146.5t-303 -53t-302.5 53t-238 146.5t-154 226t-55.5 287.5zM440 688q0 -185 102.5 -302.5t264.5 -117.5q163 0 266 117.5t103 302.5
t-103 302.5t-266 117.5q-162 0 -264.5 -117.5t-102.5 -302.5zM440 1802h228q3 -58 41.5 -91.5t97.5 -33.5t97.5 33.5t41.5 91.5h228q-6 -170 -108 -268t-259 -98t-259 98t-108 268z" />
    <glyph glyph-name="obreve" unicode="&#x14f;" 
d="M55 506q0 234 162 383t416 149q255 0 416 -148.5t161 -383.5q0 -234 -161 -382.5t-416 -148.5q-254 0 -416 149t-162 382zM424 506q0 -110 58.5 -181t150.5 -71t151.5 71t59.5 181q0 112 -59 183t-152 71q-92 0 -150.5 -71t-58.5 -183zM266 1440h228q3 -58 41.5 -91.5
t97.5 -33.5t97.5 33.5t41.5 91.5h227q-6 -170 -107.5 -268.5t-258.5 -98.5t-259 98.5t-108 268.5z" />
    <glyph glyph-name="Ohungarumlaut" unicode="&#x150;" horiz-adv-x="1613" 
d="M57 688q0 155 55.5 287.5t154 226t238 146.5t302.5 53t303 -53t238.5 -146.5t154.5 -226t56 -287.5t-56 -287.5t-154.5 -226t-238.5 -146.5t-303 -53t-302.5 53t-238 146.5t-154 226t-55.5 287.5zM440 688q0 -185 102.5 -302.5t264.5 -117.5q163 0 266 117.5t103 302.5
t-103 302.5t-266 117.5q-162 0 -264.5 -117.5t-102.5 -302.5zM1395 1751l-353 -330l-180 181l330 352zM889 1751l-352 -330l-181 181l330 352z" />
    <glyph glyph-name="ohungarumlaut" unicode="&#x151;" 
d="M55 506q0 234 162 383t416 149q255 0 416 -148.5t161 -383.5q0 -234 -161 -382.5t-416 -148.5q-254 0 -416 149t-162 382zM424 506q0 -110 58.5 -181t150.5 -71t151.5 71t59.5 181q0 112 -59 183t-152 71q-92 0 -150.5 -71t-58.5 -183zM1221 1389l-353 -330l-180 180
l330 352zM715 1389l-353 -330l-180 180l330 352z" />
    <glyph glyph-name="OE" unicode="&#x152;" horiz-adv-x="2064" 
d="M57 688q0 305 194.5 496.5t508.5 191.5h1200v-278h-621v-258h555v-271h-555v-290h654v-279h-1233q-156 0 -287 50t-222.5 140t-142.5 218t-51 280zM440 688q0 -177 102.5 -289t262.5 -112h160v803h-160q-160 0 -262.5 -112.5t-102.5 -289.5z" />
    <glyph glyph-name="oe" unicode="&#x153;" horiz-adv-x="1949" 
d="M55 506q0 234 162 383t416 149q114 0 216 -37.5t177 -103.5q167 141 371 141q227 0 370.5 -144.5t143.5 -371.5q0 -56 -6 -108h-695q20 -80 92 -127t173 -47q122 0 280 82l107 -242q-225 -105 -432 -105q-237 0 -400 150q-163 -150 -397 -150q-254 0 -416 149t-162 382z
M424 506q0 -110 58.5 -181t150.5 -71t151.5 71t59.5 181q0 112 -59 183t-152 71q-92 0 -150.5 -71t-58.5 -183zM1397 774q-70 0 -121 -40.5t-66 -108.5h355q-8 68 -53.5 108.5t-114.5 40.5z" />
    <glyph glyph-name="Racute" unicode="&#x154;" horiz-adv-x="1370" 
d="M141 0v1376h623q220 0 360 -126.5t140 -325.5q0 -149 -78 -259.5t-211 -148.5l352 -516h-405l-293 457h-127v-457h-361zM502 1090v-347h203q84 0 137 48t53 127q0 76 -53 124t-137 48h-203zM1067 1679l-430 -256l-135 195l409 287z" />
    <glyph glyph-name="racute" unicode="&#x155;" horiz-adv-x="856" 
d="M106 0v1014h287l45 -127q46 68 120 105.5t163 37.5q49 0 117 -14l-31 -285q-66 12 -117 12q-102 0 -162.5 -67.5t-60.5 -177.5v-498h-361zM819 1317l-430 -256l-135 194l410 287z" />
    <glyph glyph-name="Rcommaaccent" unicode="&#x156;" horiz-adv-x="1370" 
d="M141 0v1376h623q220 0 360 -126.5t140 -325.5q0 -149 -78 -259.5t-211 -148.5l352 -516h-405l-293 457h-127v-457h-361zM502 1090v-347h203q84 0 137 48t53 127q0 76 -53 124t-137 48h-203zM520 -242q0 82 50 132.5t132 50.5q81 0 133 -58t52 -145q0 -119 -65.5 -222.5
t-186.5 -172.5l-92 120q79 70 116 142q-60 1 -99.5 45.5t-39.5 107.5z" />
    <glyph glyph-name="rcommaaccent" unicode="&#x157;" horiz-adv-x="856" 
d="M106 0v1014h287l45 -127q46 68 120 105.5t163 37.5q49 0 117 -14l-31 -285q-66 12 -117 12q-102 0 -162.5 -67.5t-60.5 -177.5v-498h-361zM104 -242q0 82 50.5 132.5t132.5 50.5q81 0 132.5 -58t51.5 -145q0 -119 -65.5 -222.5t-186.5 -172.5l-92 120q81 72 117 142
q-61 1 -100.5 46t-39.5 107z" />
    <glyph glyph-name="Rcaron" unicode="&#x158;" horiz-adv-x="1370" 
d="M141 0v1376h623q220 0 360 -126.5t140 -325.5q0 -149 -78 -259.5t-211 -148.5l352 -516h-405l-293 457h-127v-457h-361zM502 1090v-347h203q84 0 137 48t53 127q0 76 -53 124t-137 48h-203zM1069 1698l-260 -246h-213l-260 246l151 166l215 -170l216 170z" />
    <glyph glyph-name="rcaron" unicode="&#x159;" horiz-adv-x="856" 
d="M106 0v1014h287l45 -127q46 68 120 105.5t163 37.5q49 0 117 -14l-31 -285q-66 12 -117 12q-102 0 -162.5 -67.5t-60.5 -177.5v-498h-361zM821 1335l-260 -245h-213l-260 245l152 166l215 -170l215 170z" />
    <glyph glyph-name="Sacute" unicode="&#x15a;" horiz-adv-x="1222" 
d="M72 983q0 186 151 302t389 116q237 0 498 -98l-84 -279q-212 84 -385 84q-93 0 -147 -33t-54 -92q0 -35 24.5 -60t66 -40.5t95.5 -28.5t114 -27.5t119.5 -33.5t113.5 -51t95.5 -75.5t66 -111.5t24.5 -154q0 -190 -152.5 -308t-394.5 -118q-266 0 -549 115l84 279
q265 -101 435 -101q98 0 153.5 35t55.5 98q0 36 -24.5 62.5t-66 43.5t-95.5 30.5t-114 29t-119.5 34.5t-113.5 50.5t-95.5 73.5t-66 108t-24.5 150zM977 1679l-430 -256l-135 195l409 287z" />
    <glyph glyph-name="sacute" unicode="&#x15b;" horiz-adv-x="974" 
d="M63 711q0 141 119 234t305 93q187 0 400 -73l-76 -256q-170 65 -295 65q-47 0 -73.5 -17t-26.5 -46q0 -24 28 -39t72 -24t98 -19t108 -31.5t98 -53.5t72 -92t28 -141q0 -147 -121 -241.5t-312 -94.5q-205 0 -432 82l76 256q177 -73 326 -73q52 0 80 19t28 52
q0 22 -21.5 37.5t-57 23.5t-80.5 18.5t-92 21.5t-92 34.5t-80.5 55t-57 85.5t-21.5 124zM852 1317l-430 -256l-135 194l409 287z" />
    <glyph glyph-name="Scircumflex" unicode="&#x15c;" horiz-adv-x="1222" 
d="M72 983q0 186 151 302t389 116q237 0 498 -98l-84 -279q-212 84 -385 84q-93 0 -147 -33t-54 -92q0 -35 24.5 -60t66 -40.5t95.5 -28.5t114 -27.5t119.5 -33.5t113.5 -51t95.5 -75.5t66 -111.5t24.5 -154q0 -190 -152.5 -308t-394.5 -118q-266 0 -549 115l84 279
q265 -101 435 -101q98 0 153.5 35t55.5 98q0 36 -24.5 62.5t-66 43.5t-95.5 30.5t-114 29t-119.5 34.5t-113.5 50.5t-95.5 73.5t-66 108t-24.5 150zM246 1589l260 246h213l260 -246l-152 -166l-215 170l-215 -170z" />
    <glyph glyph-name="scircumflex" unicode="&#x15d;" horiz-adv-x="974" 
d="M63 711q0 141 119 234t305 93q187 0 400 -73l-76 -256q-170 65 -295 65q-47 0 -73.5 -17t-26.5 -46q0 -24 28 -39t72 -24t98 -19t108 -31.5t98 -53.5t72 -92t28 -141q0 -147 -121 -241.5t-312 -94.5q-205 0 -432 82l76 256q177 -73 326 -73q52 0 80 19t28 52
q0 22 -21.5 37.5t-57 23.5t-80.5 18.5t-92 21.5t-92 34.5t-80.5 55t-57 85.5t-21.5 124zM121 1227l260 246h213l260 -246l-152 -166l-215 170l-215 -170z" />
    <glyph glyph-name="Scedilla" unicode="&#x15e;" horiz-adv-x="1222" 
d="M72 983q0 186 151 302t389 116q237 0 498 -98l-84 -279q-212 84 -385 84q-93 0 -147 -33t-54 -92q0 -35 24.5 -60t66 -40.5t95.5 -28.5t114 -27.5t119.5 -33.5t113.5 -51t95.5 -75.5t66 -111.5t24.5 -154q0 -161 -112.5 -272.5t-301.5 -142.5l-8 -52q66 -20 104 -73
t38 -125q0 -100 -86.5 -161.5t-227.5 -61.5q-116 0 -223 41l57 196q83 -26 129 -26q29 0 47.5 13.5t18.5 35.5q0 20 -24.5 33.5t-63.5 13.5h-31l29 162q-224 16 -441 108l84 279q265 -101 435 -101q98 0 153.5 35t55.5 98q0 36 -24.5 62.5t-66 43.5t-95.5 30.5t-114 29
t-119.5 34.5t-113.5 50.5t-95.5 73.5t-66 108t-24.5 150z" />
    <glyph glyph-name="scedilla" unicode="&#x15f;" horiz-adv-x="974" 
d="M63 711q0 141 119 234t305 93q187 0 400 -73l-76 -256q-170 65 -295 65q-47 0 -73.5 -17t-26.5 -46q0 -24 28 -39t72 -24t98 -19t108 -31.5t98 -53.5t72 -92t28 -141q0 -118 -80.5 -204t-216.5 -117l-11 -56q66 -20 105 -73t39 -125q0 -100 -87.5 -161.5t-228.5 -61.5
q-116 0 -223 41l57 196q83 -26 129 -26q29 0 47.5 13.5t18.5 35.5q0 21 -24 34t-64 13h-31l29 162q-170 16 -324 75l76 256q177 -73 326 -73q52 0 80 19t28 52q0 22 -21.5 37.5t-57 23.5t-80.5 18.5t-92 21.5t-92 34.5t-80.5 55t-57 85.5t-21.5 124z" />
    <glyph glyph-name="Scaron" unicode="&#x160;" horiz-adv-x="1222" 
d="M72 983q0 186 151 302t389 116q237 0 498 -98l-84 -279q-212 84 -385 84q-93 0 -147 -33t-54 -92q0 -35 24.5 -60t66 -40.5t95.5 -28.5t114 -27.5t119.5 -33.5t113.5 -51t95.5 -75.5t66 -111.5t24.5 -154q0 -190 -152.5 -308t-394.5 -118q-266 0 -549 115l84 279
q265 -101 435 -101q98 0 153.5 35t55.5 98q0 36 -24.5 62.5t-66 43.5t-95.5 30.5t-114 29t-119.5 34.5t-113.5 50.5t-95.5 73.5t-66 108t-24.5 150zM979 1698l-260 -246h-213l-260 246l151 166l215 -170l215 170z" />
    <glyph glyph-name="scaron" unicode="&#x161;" horiz-adv-x="974" 
d="M63 711q0 141 119 234t305 93q187 0 400 -73l-76 -256q-170 65 -295 65q-47 0 -73.5 -17t-26.5 -46q0 -24 28 -39t72 -24t98 -19t108 -31.5t98 -53.5t72 -92t28 -141q0 -147 -121 -241.5t-312 -94.5q-205 0 -432 82l76 256q177 -73 326 -73q52 0 80 19t28 52
q0 22 -21.5 37.5t-57 23.5t-80.5 18.5t-92 21.5t-92 34.5t-80.5 55t-57 85.5t-21.5 124zM854 1335l-260 -245h-213l-260 245l151 166l215 -170l215 170z" />
    <glyph glyph-name="Tcommaaccent" unicode="&#x162;" horiz-adv-x="1243" 
d="M434 0v1090h-399v286h1171v-286h-397v-1090h-375zM438 -242q0 82 50.5 132.5t132.5 50.5q81 0 132.5 -58t51.5 -145q0 -119 -65.5 -222.5t-186.5 -172.5l-92 120q81 72 117 142q-61 1 -100.5 46t-39.5 107z" />
    <glyph glyph-name="tcommaaccent" unicode="&#x163;" horiz-adv-x="876" 
d="M565 1309v-295h242v-273h-242v-370q0 -51 29.5 -80t79.5 -29q54 0 119 12l45 -266q-129 -33 -252 -33q-170 0 -275.5 99t-105.5 260v407h-170v273h170v295h360zM324 -242q0 82 50 132.5t132 50.5q81 0 132.5 -58t51.5 -145q0 -119 -65.5 -222.5t-186.5 -172.5l-92 120
q81 72 117 142q-60 1 -99.5 45.5t-39.5 107.5z" />
    <glyph glyph-name="Tcaron" unicode="&#x164;" horiz-adv-x="1243" 
d="M434 0v1090h-399v286h1171v-286h-397v-1090h-375zM995 1698l-260 -246h-213l-260 246l152 166l215 -170l215 170z" />
    <glyph glyph-name="tcaron" unicode="&#x165;" horiz-adv-x="876" 
d="M565 1309v-295h242v-273h-242v-370q0 -51 29.5 -80t79.5 -29q54 0 119 12l45 -266q-129 -33 -252 -33q-170 0 -275.5 99t-105.5 260v407h-170v273h170v295h360zM985 1454l-154 -385l-233 78l131 395z" />
    <glyph glyph-name="Tbar" unicode="&#x166;" horiz-adv-x="1243" 
d="M434 0v512h-231v272h231v306h-399v286h1171v-286h-397v-306h231v-272h-231v-512h-375z" />
    <glyph glyph-name="tbar" unicode="&#x167;" horiz-adv-x="876" 
d="M565 1309v-295h242v-273h-242v-108h209v-242h-209v-29q0 -45 30.5 -72.5t78.5 -27.5q54 0 119 12l45 -266q-129 -33 -252 -33q-171 0 -276 98.5t-105 260.5v57h-154v242h154v108h-170v273h170v295h360z" />
    <glyph glyph-name="Utilde" unicode="&#x168;" horiz-adv-x="1613" 
d="M1489 1376v-823q0 -170 -87.5 -302t-242.5 -204t-352 -72t-352 72t-242.5 204t-87.5 302v823h375v-809q0 -133 86 -216t221 -83q137 0 222 83t85 216v809h375zM676 1798q49 0 95.5 -17t81 -33.5t54.5 -16.5q48 0 70 67l211 -61q-15 -113 -83 -180.5t-167 -67.5
q-49 0 -95.5 16.5t-81 33.5t-54.5 17q-54 0 -70 -67l-211 61q15 113 83 180.5t167 67.5z" />
    <glyph glyph-name="utilde" unicode="&#x169;" 
d="M1159 1014v-1014h-287l-45 111q-124 -136 -331 -136q-179 0 -292.5 110.5t-113.5 287.5v641h361v-582q0 -72 45 -118t116 -46q82 0 134.5 56t52.5 145v545h360zM494 1436q49 0 95.5 -17t81 -34t54.5 -17q48 0 70 68l211 -62q-15 -113 -83 -180.5t-167 -67.5q-49 0 -96 17
t-81.5 34t-54.5 17q-53 0 -69 -68l-211 62q15 113 83 180.5t167 67.5z" />
    <glyph glyph-name="Umacron" unicode="&#x16a;" horiz-adv-x="1613" 
d="M1489 1376v-823q0 -170 -87.5 -302t-242.5 -204t-352 -72t-352 72t-242.5 204t-87.5 302v823h375v-809q0 -133 86 -216t221 -83q137 0 222 83t85 216v809h375zM469 1524v239h676v-239h-676z" />
    <glyph glyph-name="umacron" unicode="&#x16b;" 
d="M1159 1014v-1014h-287l-45 111q-124 -136 -331 -136q-179 0 -292.5 110.5t-113.5 287.5v641h361v-582q0 -72 45 -118t116 -46q82 0 134.5 56t52.5 145v545h360zM287 1161v240h676v-240h-676z" />
    <glyph glyph-name="Ubreve" unicode="&#x16c;" horiz-adv-x="1613" 
d="M1489 1376v-823q0 -170 -87.5 -302t-242.5 -204t-352 -72t-352 72t-242.5 204t-87.5 302v823h375v-809q0 -133 86 -216t221 -83q137 0 222 83t85 216v809h375zM440 1802h228q3 -58 41.5 -91.5t97.5 -33.5t97.5 33.5t41.5 91.5h228q-6 -170 -108 -268t-259 -98t-259 98
t-108 268z" />
    <glyph glyph-name="ubreve" unicode="&#x16d;" 
d="M1159 1014v-1014h-287l-45 111q-124 -136 -331 -136q-179 0 -292.5 110.5t-113.5 287.5v641h361v-582q0 -72 45 -118t116 -46q82 0 134.5 56t52.5 145v545h360zM258 1440h227q3 -58 42 -91.5t98 -33.5t97.5 33.5t41.5 91.5h227q-6 -170 -107.5 -268.5t-258.5 -98.5
t-259 98.5t-108 268.5z" />
    <glyph glyph-name="Uring" unicode="&#x16e;" horiz-adv-x="1613" 
d="M1489 1376v-823q0 -170 -87.5 -302t-242.5 -204t-352 -72t-352 72t-242.5 204t-87.5 302v823h375v-809q0 -133 86 -216t221 -83q137 0 222 83t85 216v809h375zM567 1642q0 100 67 163t173 63t173 -63t67 -163q0 -98 -67 -160.5t-173 -62.5t-173 62.5t-67 160.5zM733 1642
q0 -32 20.5 -51.5t53.5 -19.5t53.5 19.5t20.5 51.5q0 33 -20.5 53.5t-53.5 20.5t-53.5 -20.5t-20.5 -53.5z" />
    <glyph glyph-name="uring" unicode="&#x16f;" 
d="M1159 1014v-1014h-287l-45 111q-124 -136 -331 -136q-179 0 -292.5 110.5t-113.5 287.5v641h361v-582q0 -72 45 -118t116 -46q82 0 134.5 56t52.5 145v545h360zM385 1280q0 100 67 162.5t173 62.5t172.5 -62.5t66.5 -162.5q0 -98 -66.5 -160.5t-172.5 -62.5t-173 62.5
t-67 160.5zM551 1280q0 -32 21 -52t53 -20t52.5 20t20.5 52q0 34 -20 54t-53 20t-53.5 -20.5t-20.5 -53.5z" />
    <glyph glyph-name="Uhungarumlaut" unicode="&#x170;" horiz-adv-x="1613" 
d="M1489 1376v-823q0 -170 -87.5 -302t-242.5 -204t-352 -72t-352 72t-242.5 204t-87.5 302v823h375v-809q0 -133 86 -216t221 -83q137 0 222 83t85 216v809h375zM1395 1751l-353 -330l-180 181l330 352zM889 1751l-352 -330l-181 181l330 352z" />
    <glyph glyph-name="uhungarumlaut" unicode="&#x171;" 
d="M1159 1014v-1014h-287l-45 111q-124 -136 -331 -136q-179 0 -292.5 110.5t-113.5 287.5v641h361v-582q0 -72 45 -118t116 -46q82 0 134.5 56t52.5 145v545h360zM1212 1389l-352 -330l-180 180l330 352zM707 1389l-353 -330l-180 180l330 352z" />
    <glyph glyph-name="Uogonek" unicode="&#x172;" horiz-adv-x="1613" 
d="M1489 1376v-794q0 -182 -97 -319.5t-290 -246.5q-127 -72 -176 -125t-49 -96q0 -33 22 -52t55 -19q18 0 54 8l45 -187q-85 -32 -189 -32q-114 0 -183 57.5t-69 157.5q0 135 154 247q-26 0 -100 9q-144 20 -266 95t-198.5 200.5t-76.5 273.5v823h375v-809
q0 -132 86.5 -215.5t220.5 -83.5q135 0 221 84t86 215v809h375z" />
    <glyph glyph-name="uogonek" unicode="&#x173;" 
d="M1159 1014v-1014q-145 -114 -145 -205q0 -33 22.5 -52t55.5 -19q15 0 61 8l37 -191q-85 -28 -189 -28q-115 0 -183 58t-68 157q0 146 168 272h-46l-45 111q-124 -136 -331 -136q-179 0 -292.5 110.5t-113.5 287.5v641h361v-582q0 -72 45 -118t116 -46q82 0 134.5 56
t52.5 145v545h360z" />
    <glyph glyph-name="Wcircumflex" unicode="&#x174;" horiz-adv-x="2105" 
d="M2103 1376l-434 -1376h-364l-252 926l-250 -926h-365l-436 1376h375l252 -925l252 925h346l250 -925l252 925h374zM686 1589l260 246h213l260 -246l-151 -166l-215 170l-215 -170z" />
    <glyph glyph-name="wcircumflex" unicode="&#x175;" horiz-adv-x="1658" 
d="M1651 1014l-328 -1014h-346l-148 606l-147 -606h-346l-328 1014h361l147 -606l148 606h331l148 -606l147 606h361zM463 1227l260 246h213l260 -246l-152 -166l-215 170l-215 -170z" />
    <glyph glyph-name="Ycircumflex" unicode="&#x176;" horiz-adv-x="1298" 
d="M461 0v532l-500 844h406l282 -512l283 512h405l-499 -844v-532h-377zM283 1589l260 246h213l260 -246l-152 -166l-215 170l-215 -170z" />
    <glyph glyph-name="ycircumflex" unicode="&#x177;" horiz-adv-x="1134" 
d="M1143 1014l-432 -1092q-144 -373 -457 -373q-80 0 -174 21l45 278q53 -12 92 -12q60 0 100 31.5t68 101.5l18 45l-411 1000h377l198 -608l199 608h377zM201 1227l260 246h213l260 -246l-152 -166l-215 170l-215 -170z" />
    <glyph glyph-name="Ydieresis" unicode="&#x178;" horiz-adv-x="1298" 
d="M461 0v532l-500 844h406l282 -512l283 512h405l-499 -844v-532h-377zM225 1642q0 82 50.5 133.5t132.5 51.5q81 0 131.5 -51.5t50.5 -133.5t-50 -132t-132 -50t-132.5 50t-50.5 132zM709 1642q0 82 50.5 133.5t131.5 51.5t131.5 -51.5t50.5 -133.5t-50 -132t-132 -50
t-132 50t-50 132z" />
    <glyph glyph-name="Zacute" unicode="&#x179;" horiz-adv-x="1320" 
d="M63 0v211l689 879h-664v286h1145v-211l-688 -878h712v-287h-1194zM1026 1679l-430 -256l-135 195l409 287z" />
    <glyph glyph-name="zacute" unicode="&#x17a;" horiz-adv-x="1040" 
d="M55 0v197l447 544h-430v273h897v-197l-449 -547h465v-270h-930zM885 1317l-430 -256l-136 194l410 287z" />
    <glyph glyph-name="Zdotaccent" unicode="&#x17b;" horiz-adv-x="1320" 
d="M63 0v211l689 879h-664v286h1145v-211l-688 -878h712v-287h-1194zM463 1642q0 88 55.5 143.5t143.5 55.5t143 -55.5t55 -143.5q0 -86 -55 -141t-143 -55t-143.5 55t-55.5 141z" />
    <glyph glyph-name="zdotaccent" unicode="&#x17c;" horiz-adv-x="1040" 
d="M55 0v197l447 544h-430v273h897v-197l-449 -547h465v-270h-930zM322 1280q0 88 55 143.5t143 55.5t143.5 -55.5t55.5 -143.5q0 -86 -55.5 -141.5t-143.5 -55.5t-143 55.5t-55 141.5z" />
    <glyph glyph-name="Zcaron" unicode="&#x17d;" horiz-adv-x="1320" 
d="M63 0v211l689 879h-664v286h1145v-211l-688 -878h712v-287h-1194zM1028 1698l-260 -246h-213l-260 246l151 166l216 -170l215 170z" />
    <glyph glyph-name="zcaron" unicode="&#x17e;" horiz-adv-x="1040" 
d="M55 0v197l447 544h-430v273h897v-197l-449 -547h465v-270h-930zM887 1335l-260 -245h-213l-260 245l151 166l215 -170l215 170z" />
    <glyph glyph-name="florin" unicode="&#x192;" horiz-adv-x="1179" 
d="M238 641v270h155v136q0 156 106 255t271 99q119 0 238 -29l-47 -278q-49 14 -95 14q-43 0 -70.5 -25t-27.5 -65v-107h176v-270h-176v-311q0 -156 -105 -255.5t-270 -99.5q-121 0 -237 29l45 279q59 -15 102 -15q40 0 65 25t25 65v283h-155z" />
    <glyph glyph-name="Acaron" unicode="&#x1cd;" horiz-adv-x="1417" 
d="M-23 0l560 1376h346l557 -1376h-375l-102 279h-506l-103 -279h-377zM709 969l-156 -420h311zM1075 1698l-260 -246h-213l-260 246l152 166l215 -170l215 170z" />
    <glyph glyph-name="acaron" unicode="&#x1ce;" horiz-adv-x="1155" 
d="M55 305q0 162 124.5 252t346.5 90q80 0 174 -16v8q0 59 -50 97t-126 38q-146 0 -327 -74l-91 248q242 90 463 90q209 0 335 -112t126 -295v-334q0 -23 14 -37t37 -14q19 0 47 4l23 -258q-87 -17 -170 -17q-75 0 -133 30.5t-92 86.5q-69 -56 -156 -86.5t-172 -30.5
q-164 0 -268.5 92t-104.5 238zM393 328q0 -45 37 -75t94 -30q76 0 126 48t50 122v37q-72 14 -129 14q-80 0 -129 -31.5t-49 -84.5zM944 1335l-260 -245h-213l-260 245l151 166l216 -170l215 170z" />
    <glyph glyph-name="Aringacute" unicode="&#x1fa;" horiz-adv-x="1452" 
d="M-23 0l560 1376h346l557 -1376h-375l-102 279h-506l-103 -279h-377zM709 969l-156 -420h311zM1092 1851l-166 -88q41 -50 41 -121q0 -92 -67 -151t-173 -59t-173 59t-67 151q0 111 103 181l360 241zM647 1642q0 -35 22.5 -58t57.5 -23t57.5 23t22.5 58t-22.5 57.5
t-57.5 22.5t-57.5 -22.5t-22.5 -57.5z" />
    <glyph glyph-name="aringacute" unicode="&#x1fb;" horiz-adv-x="1171" 
d="M55 305q0 162 124.5 252t346.5 90q80 0 174 -16v8q0 59 -50 97t-126 38q-146 0 -327 -74l-91 248q242 90 463 90q209 0 335 -112t126 -295v-334q0 -23 14 -37t37 -14q19 0 47 4l23 -258q-87 -17 -170 -17q-75 0 -133 30.5t-92 86.5q-69 -56 -156 -86.5t-172 -30.5
q-164 0 -268.5 92t-104.5 238zM393 328q0 -45 37 -75t94 -30q76 0 126 48t50 122v37q-72 14 -129 14q-80 0 -129 -31.5t-49 -84.5zM934 1489l-166 -88q41 -50 41 -121q0 -92 -67 -151.5t-173 -59.5q-105 0 -172 59t-67 152q0 110 102 180l361 242zM489 1280
q0 -35 22.5 -58.5t57.5 -23.5t57.5 23.5t22.5 58.5t-22.5 57.5t-57.5 22.5t-57.5 -22.5t-22.5 -57.5z" />
    <glyph glyph-name="AEacute" unicode="&#x1fc;" horiz-adv-x="2025" 
d="M940 0v279h-442l-164 -279h-420l860 1376h1147v-278h-621v-258h555v-271h-555v-290h654v-279h-1014zM940 1047l-287 -498h287v498zM1559 1679l-431 -256l-135 195l410 287z" />
    <glyph glyph-name="aeacute" unicode="&#x1fd;" horiz-adv-x="1769" 
d="M1249 1317l-430 -256l-135 194l410 287zM55 299q0 164 124.5 256t346.5 92q80 0 174 -16v8q0 59 -49 97t-127 38q-146 0 -327 -74l-91 248q242 90 463 90q97 0 182 -29.5t132 -80.5q137 110 334 110q227 0 370.5 -143.5t143.5 -372.5q0 -47 -7 -108h-694
q20 -80 91.5 -127t172.5 -47q123 0 281 82l106 -242q-209 -105 -424 -105q-244 0 -421 142q-164 -142 -379 -142q-177 0 -289.5 90.5t-112.5 233.5zM1217 774q-70 0 -121 -40.5t-66 -108.5h354q-8 68 -53 108.5t-114 40.5zM393 328q0 -45 37 -75t94 -30q76 0 126 48t50 122
v37q-72 14 -129 14q-80 0 -129 -31.5t-49 -84.5z" />
    <glyph glyph-name="Oslashacute" unicode="&#x1fe;" horiz-adv-x="1613" 
d="M57 688q0 155 55.5 287.5t153.5 226t237.5 146.5t303.5 53q189 0 346 -74l113 152l170 -129l-103 -138q108 -96 167 -230t59 -294q0 -155 -55.5 -287.5t-154 -226t-238.5 -146.5t-304 -53q-187 0 -348 74l-111 -151l-170 129l101 135q-107 96 -164.5 230.5t-57.5 295.5z
M410 688q0 -151 69 -258l494 655q-73 37 -166 37q-177 0 -287 -121t-110 -313zM1204 688q0 144 -71 258l-492 -657q75 -35 166 -35q177 0 287 121t110 313zM1171 1679l-430 -256l-135 195l410 287z" />
    <glyph glyph-name="oslashacute" unicode="&#x1ff;" 
d="M55 506q0 234 162 383t416 149q128 0 248 -47l86 115l147 -111l-76 -100q172 -148 172 -389q0 -234 -161 -382.5t-416 -148.5q-137 0 -248 48l-86 -115l-147 110l73 97q-170 147 -170 391zM393 506q0 -69 29 -129l287 383q-44 14 -76 14q-105 0 -172.5 -75t-67.5 -193z
M872 506q0 71 -28 129l-285 -381q28 -14 74 -14q105 0 172 74t67 192zM997 1317l-430 -256l-135 194l410 287z" />
    <glyph glyph-name="Scommaaccent" unicode="&#x218;" horiz-adv-x="1222" 
d="M72 983q0 186 151 302t389 116q237 0 498 -98l-84 -279q-212 84 -385 84q-93 0 -147 -33t-54 -92q0 -35 24.5 -60t66 -40.5t95.5 -28.5t114 -27.5t119.5 -33.5t113.5 -51t95.5 -75.5t66 -111.5t24.5 -154q0 -190 -152.5 -308t-394.5 -118q-266 0 -549 115l84 279
q265 -101 435 -101q98 0 153.5 35t55.5 98q0 36 -24.5 62.5t-66 43.5t-95.5 30.5t-114 29t-119.5 34.5t-113.5 50.5t-95.5 73.5t-66 108t-24.5 150zM430 -242q0 82 50 132.5t132 50.5q81 0 133 -58t52 -145q0 -119 -65.5 -222.5t-186.5 -172.5l-92 120q79 70 116 142
q-60 1 -99.5 45.5t-39.5 107.5z" />
    <glyph glyph-name="scommaaccent" unicode="&#x219;" horiz-adv-x="974" 
d="M63 711q0 141 119 234t305 93q187 0 400 -73l-76 -256q-170 65 -295 65q-47 0 -73.5 -17t-26.5 -46q0 -24 28 -39t72 -24t98 -19t108 -31.5t98 -53.5t72 -92t28 -141q0 -147 -121 -241.5t-312 -94.5q-205 0 -432 82l76 256q177 -73 326 -73q52 0 80 19t28 52
q0 22 -21.5 37.5t-57 23.5t-80.5 18.5t-92 21.5t-92 34.5t-80.5 55t-57 85.5t-21.5 124zM305 -242q0 82 50 132.5t132 50.5q81 0 133 -58t52 -145q0 -119 -65.5 -222.5t-186.5 -172.5l-92 120q79 70 116 142q-60 1 -99.5 45.5t-39.5 107.5z" />
    <glyph glyph-name="uni021A" unicode="&#x21a;" horiz-adv-x="1243" 
d="M434 0v1090h-399v286h1171v-286h-397v-1090h-375zM438 -242q0 82 50.5 132.5t132.5 50.5q81 0 132.5 -58t51.5 -145q0 -119 -65.5 -222.5t-186.5 -172.5l-92 120q81 72 117 142q-61 1 -100.5 46t-39.5 107z" />
    <glyph glyph-name="uni021B" unicode="&#x21b;" horiz-adv-x="876" 
d="M565 1309v-295h242v-273h-242v-370q0 -51 29.5 -80t79.5 -29q54 0 119 12l45 -266q-129 -33 -252 -33q-170 0 -275.5 99t-105.5 260v407h-170v273h170v295h360zM324 -242q0 82 50 132.5t132 50.5q81 0 132.5 -58t51.5 -145q0 -119 -65.5 -222.5t-186.5 -172.5l-92 120
q81 72 117 142q-60 1 -99.5 45.5t-39.5 107.5z" />
    <glyph glyph-name="circumflex" unicode="&#x2c6;" horiz-adv-x="491" 
d="M-121 1227l260 246h213l260 -246l-151 -166l-215 170l-215 -170z" />
    <glyph glyph-name="caron" unicode="&#x2c7;" horiz-adv-x="491" 
d="M612 1335l-260 -245h-213l-260 245l152 166l215 -170l215 170z" />
    <glyph glyph-name="breve" unicode="&#x2d8;" horiz-adv-x="491" 
d="M-121 1440h227q3 -58 42 -91.5t98 -33.5t97.5 33.5t41.5 91.5h227q-6 -170 -107.5 -268.5t-258.5 -98.5t-259 98.5t-108 268.5z" />
    <glyph glyph-name="dotaccent" unicode="&#x2d9;" horiz-adv-x="491" 
d="M47 1280q0 88 55.5 143.5t143.5 55.5t143 -55.5t55 -143.5q0 -86 -55 -141.5t-143 -55.5t-143.5 55.5t-55.5 141.5z" />
    <glyph glyph-name="ring" unicode="&#x2da;" horiz-adv-x="491" 
d="M6 1280q0 100 67 162.5t173 62.5t172.5 -62.5t66.5 -162.5q0 -98 -66.5 -160.5t-172.5 -62.5t-173 62.5t-67 160.5zM172 1280q0 -32 21 -52t53 -20t52.5 20t20.5 52q0 34 -20.5 54t-52.5 20q-33 0 -53.5 -20.5t-20.5 -53.5z" />
    <glyph glyph-name="ogonek" unicode="&#x2db;" horiz-adv-x="491" 
d="M231 33l195 -33q-145 -114 -145 -205q0 -33 22 -52t55 -19q16 0 62 8l37 -191q-85 -28 -189 -28q-115 0 -183.5 58t-68.5 157q0 80 56 159.5t159 145.5z" />
    <glyph glyph-name="tilde" unicode="&#x2dc;" horiz-adv-x="491" 
d="M115 1436q49 0 95.5 -17t81 -34t54.5 -17q48 0 70 68l211 -62q-15 -113 -83 -180.5t-167 -67.5q-49 0 -96 17t-81.5 34t-54.5 17q-53 0 -69 -68l-211 62q15 113 83 180.5t167 67.5z" />
    <glyph glyph-name="hungarumlaut" unicode="&#x2dd;" horiz-adv-x="491" 
d="M834 1389l-353 -330l-180 180l330 352zM328 1389l-353 -330l-180 180l330 352z" />
    <glyph glyph-name="commaaccent" unicode="&#x326;" horiz-adv-x="491" 
d="M63 -242q0 82 50.5 132.5t132.5 50.5q81 0 132.5 -58t51.5 -145q0 -119 -65.5 -222.5t-186.5 -172.5l-92 120q81 72 117 142q-61 1 -100.5 46t-39.5 107z" />
    <glyph glyph-name="uni0374" unicode="&#x374;" horiz-adv-x="491" 
d="M541 1303l-240 -535l-254 92l178 555z" />
    <glyph glyph-name="uni0375" unicode="&#x375;" horiz-adv-x="491" 
d="M-82 -203l240 537l254 -92l-179 -557z" />
    <glyph glyph-name="uni037E" unicode="&#x37e;" horiz-adv-x="610" 
d="M92 188q0 93 60 153t153 60q95 0 155 -68t60 -177q0 -142 -79 -270t-220 -214l-106 138q103 86 147 182q-76 10 -123 64.5t-47 131.5zM92 823q0 93 60 153t153 60t153 -60t60 -153q0 -92 -60.5 -152.5t-152.5 -60.5t-152.5 60.5t-60.5 152.5z" />
    <glyph glyph-name="tonos" unicode="&#x384;" horiz-adv-x="491" 
d="M510 1509l-172 -444l-244 82l144 457z" />
    <glyph glyph-name="dieresistonos" unicode="&#x385;" horiz-adv-x="491" 
d="M434 1544l-166 -471l-162 45l132 477zM-240 1280q0 75 46.5 121.5t121.5 46.5q74 0 121 -46.5t47 -121.5q0 -74 -47 -121t-121 -47q-75 0 -121.5 47t-46.5 121zM395 1280q0 75 47 121.5t121 46.5q75 0 121.5 -46.5t46.5 -121.5q0 -74 -46.5 -121t-121.5 -47
q-73 0 -120.5 47t-47.5 121z" />
    <glyph glyph-name="Alphatonos" unicode="&#x386;" horiz-adv-x="1480" 
d="M41 0l559 1376h346l557 -1376h-375l-102 279h-506l-102 -279h-377zM772 969l-156 -420h312zM412 1380l-172 -444l-244 82l143 457z" />
    <glyph glyph-name="anoteleia" unicode="&#x387;" horiz-adv-x="577" 
d="M76 506q0 93 60 153t153 60t153 -60t60 -153q0 -92 -60.5 -152.5t-152.5 -60.5t-152.5 60.5t-60.5 152.5z" />
    <glyph glyph-name="Epsilontonos" unicode="&#x388;" horiz-adv-x="1564" 
d="M463 0v1376h997v-278h-622v-258h557v-271h-557v-290h655v-279h-1030zM379 1380l-172 -444l-244 82l143 457z" />
    <glyph glyph-name="Etatonos" unicode="&#x389;" horiz-adv-x="1935" 
d="M463 0v1376h375v-528h581v528h375v-1376h-375v561h-581v-561h-375zM379 1380l-172 -444l-244 82l143 457z" />
    <glyph glyph-name="Iotatonos" unicode="&#x38a;" horiz-adv-x="980" 
d="M463 0v1376h375v-1376h-375zM379 1380l-172 -444l-244 82l143 457z" />
    <glyph glyph-name="Omicrontonos" unicode="&#x38c;" horiz-adv-x="1841" 
d="M285 688q0 207 95 369.5t266 253t388 90.5q163 0 303 -53t238.5 -146.5t154.5 -226t56 -287.5t-56 -287.5t-154.5 -226t-238.5 -146.5t-303 -53q-217 0 -388 90.5t-266 253t-95 369.5zM668 688q0 -185 102 -302.5t264 -117.5q163 0 266 117.5t103 302.5t-103 302.5
t-266 117.5q-162 0 -264 -117.5t-102 -302.5zM379 1380l-172 -444l-244 82l143 457z" />
    <glyph glyph-name="Upsilontonos" unicode="&#x38e;" horiz-adv-x="1716" 
d="M879 0v532l-500 844h405l283 -512l283 512h405l-500 -844v-532h-376zM379 1380l-172 -444l-244 82l143 457z" />
    <glyph glyph-name="Omegatonos" unicode="&#x38f;" horiz-adv-x="1859" 
d="M268 0v287h248q-201 195 -201 465q0 188 90 336t253 230.5t370 82.5q206 0 368.5 -82.5t252.5 -230.5t90 -336q0 -273 -201 -465h250v-287h-672v242q248 204 248 481q0 172 -91 278.5t-245 106.5t-246 -106.5t-92 -278.5q0 -276 250 -481v-242h-672zM379 1380l-172 -444
l-244 82l143 457z" />
    <glyph glyph-name="iotadieresistonos" unicode="&#x390;" horiz-adv-x="673" 
d="M467 1014v-672q0 -37 22.5 -58.5t59.5 -21.5q26 0 84 8l37 -270q-116 -25 -211 -25q-162 0 -257.5 89.5t-95.5 240.5v709h361zM475 1544l-166 -471l-162 45l132 477zM-199 1280q0 75 46.5 121.5t121.5 46.5q74 0 121 -46.5t47 -121.5q0 -74 -47.5 -121t-120.5 -47
q-75 0 -121.5 47t-46.5 121zM436 1280q0 75 47 121.5t121 46.5q75 0 121.5 -46.5t46.5 -121.5q0 -74 -46.5 -121t-121.5 -47q-74 0 -121 47t-47 121z" />
    <glyph glyph-name="Alpha" unicode="&#x391;" horiz-adv-x="1417" 
d="M-23 0l560 1376h346l557 -1376h-375l-102 279h-506l-103 -279h-377zM709 969l-156 -420h311z" />
    <glyph glyph-name="Beta" unicode="&#x392;" horiz-adv-x="1370" 
d="M141 0v1376h641q206 0 335.5 -104.5t129.5 -270.5q0 -95 -46.5 -168.5t-123.5 -113.5q102 -41 160.5 -128.5t58.5 -199.5q0 -172 -135 -281.5t-346 -109.5h-674zM502 584v-314h254q78 0 126 43.5t48 114.5q0 70 -48 113t-126 43h-254zM502 1106v-281h229q69 0 112.5 38.5
t43.5 101.5t-43.5 102t-112.5 39h-229z" />
    <glyph glyph-name="Gamma" unicode="&#x393;" horiz-adv-x="1112" 
d="M141 0v1376h934v-286h-559v-1090h-375z" />
    <glyph glyph-name="Delta" unicode="&#x394;" horiz-adv-x="1417" 
d="M39 0v211l498 1165h346l497 -1165v-211h-1341zM709 969l-281 -682h561z" />
    <glyph glyph-name="Epsilon" unicode="&#x395;" horiz-adv-x="1243" 
d="M141 0v1376h998v-278h-623v-258h557v-271h-557v-290h655v-279h-1030z" />
    <glyph glyph-name="Zeta" unicode="&#x396;" horiz-adv-x="1320" 
d="M63 0v211l689 879h-664v286h1145v-211l-688 -878h712v-287h-1194z" />
    <glyph glyph-name="Eta" unicode="&#x397;" horiz-adv-x="1613" 
d="M141 0v1376h375v-528h582v528h375v-1376h-375v561h-582v-561h-375z" />
    <glyph glyph-name="Theta" unicode="&#x398;" horiz-adv-x="1613" 
d="M57 688q0 155 55.5 287.5t153.5 226t237.5 146.5t303.5 53t304 -53t238.5 -146.5t154 -226t55.5 -287.5t-55.5 -287.5t-154 -226t-238.5 -146.5t-304 -53t-303.5 53t-237.5 146.5t-153.5 226t-55.5 287.5zM424 688q0 -187 107.5 -306.5t275.5 -119.5q169 0 276 119
t107 307t-107 307t-276 119q-168 0 -275.5 -119.5t-107.5 -306.5zM516 561v270h584v-270h-584z" />
    <glyph glyph-name="Iota" unicode="&#x399;" horiz-adv-x="657" 
d="M141 0v1376h375v-1376h-375z" />
    <glyph glyph-name="Kappa" unicode="&#x39a;" horiz-adv-x="1429" 
d="M141 0v1376h361v-581l508 581h430l-586 -643l610 -733h-436l-424 514l-102 -111v-403h-361z" />
    <glyph glyph-name="Lambda" unicode="&#x39b;" horiz-adv-x="1417" 
d="M-23 0l560 1376h346l557 -1376h-389l-342 926l-340 -926h-392z" />
    <glyph glyph-name="Mu" unicode="&#x39c;" horiz-adv-x="1794" 
d="M141 0v1376h361l395 -547l395 547h361v-1376h-344v866l-310 -428h-204l-308 428v-866h-346z" />
    <glyph glyph-name="Nu" unicode="&#x39d;" horiz-adv-x="1613" 
d="M141 0v1376h361l626 -866v866h345v-1376h-361l-625 866v-866h-346z" />
    <glyph glyph-name="Xi" unicode="&#x39e;" horiz-adv-x="1337" 
d="M72 0v301h1194v-301h-1194zM170 549v295h997v-295h-997zM104 1075v301h1129v-301h-1129z" />
    <glyph glyph-name="Omicron" unicode="&#x39f;" horiz-adv-x="1613" 
d="M57 688q0 155 55.5 287.5t154 226t238 146.5t302.5 53t303 -53t238.5 -146.5t154.5 -226t56 -287.5t-56 -287.5t-154.5 -226t-238.5 -146.5t-303 -53t-302.5 53t-238 146.5t-154 226t-55.5 287.5zM440 688q0 -185 102.5 -302.5t264.5 -117.5q163 0 266 117.5t103 302.5
t-103 302.5t-266 117.5q-162 0 -264.5 -117.5t-102.5 -302.5z" />
    <glyph glyph-name="Pi" unicode="&#x3a0;" horiz-adv-x="1613" 
d="M141 0v1376h1332v-1376h-375v1090h-582v-1090h-375z" />
    <glyph glyph-name="Rho" unicode="&#x3a1;" horiz-adv-x="1304" 
d="M141 0v1376h609q226 0 370 -133t144 -342t-144 -343t-370 -134h-248v-424h-361zM502 1090v-379h188q92 0 149.5 52.5t57.5 137.5q0 82 -57.5 135.5t-149.5 53.5h-188z" />
    <glyph glyph-name="Sigma" unicode="&#x3a3;" horiz-adv-x="1271" 
d="M66 0v225l417 480l-393 446v225h1112v-286h-624l266 -295v-181l-291 -327h674v-287h-1161z" />
    <glyph glyph-name="Tau" unicode="&#x3a4;" horiz-adv-x="1243" 
d="M434 0v1090h-399v286h1171v-286h-397v-1090h-375z" />
    <glyph glyph-name="Upsilon" unicode="&#x3a5;" horiz-adv-x="1298" 
d="M461 0v532l-500 844h406l282 -512l283 512h405l-499 -844v-532h-377z" />
    <glyph glyph-name="Phi" unicode="&#x3a6;" horiz-adv-x="1658" 
d="M657 -66v170q-274 22 -445 186.5t-171 414.5q0 165 78.5 296.5t218 210.5t319.5 93v137h344v-137q273 -22 446 -187t173 -413q0 -249 -173 -414t-446 -187v-170h-344zM393 705q0 -121 72 -206.5t192 -107.5v627q-120 -22 -192 -107t-72 -206zM1266 705q0 121 -72.5 206
t-192.5 107v-627q120 22 192.5 107.5t72.5 206.5z" />
    <glyph glyph-name="Chi" unicode="&#x3a7;" horiz-adv-x="1433" 
d="M-18 0l495 705l-471 671h412l299 -438l299 438h414l-474 -671l498 -705h-422l-315 471l-316 -471h-419z" />
    <glyph glyph-name="Psi" unicode="&#x3a8;" horiz-adv-x="1695" 
d="M674 0v362q-270 22 -435 186t-165 417v411h346v-381q0 -149 70 -237.5t184 -93.5v712h346v-712q115 5 185.5 95t70.5 238v379h344v-407q0 -254 -164.5 -419.5t-435.5 -187.5v-362h-346z" />
    <glyph glyph-name="Omega" unicode="&#x3a9;" horiz-adv-x="1662" 
d="M72 0v287h247q-200 194 -200 465q0 188 90 336t252.5 230.5t369.5 82.5q206 0 368.5 -82.5t252.5 -230.5t90 -336q0 -273 -201 -465h250v-287h-671v242q247 203 247 481q0 172 -91 278.5t-245 106.5t-245.5 -106.5t-91.5 -278.5q0 -277 249 -481v-242h-671z" />
    <glyph glyph-name="Iotadieresis" unicode="&#x3aa;" horiz-adv-x="657" 
d="M141 0v1376h375v-1376h-375zM-94 1642q0 82 50.5 133.5t131.5 51.5t131.5 -51.5t50.5 -133.5t-50 -132t-132 -50t-132 50t-50 132zM389 1642q0 82 50.5 133.5t131.5 51.5q82 0 132.5 -51.5t50.5 -133.5t-50.5 -132t-132.5 -50t-132 50t-50 132z" />
    <glyph glyph-name="Upsilondieresis" unicode="&#x3ab;" horiz-adv-x="1298" 
d="M461 0v532l-500 844h406l282 -512l283 512h405l-499 -844v-532h-377zM225 1642q0 82 50.5 133.5t132.5 51.5q81 0 131.5 -51.5t50.5 -133.5t-50 -132t-132 -50t-132.5 50t-50.5 132zM709 1642q0 82 50.5 133.5t131.5 51.5t131.5 -51.5t50.5 -133.5t-50 -132t-132 -50
t-132 50t-50 132z" />
    <glyph glyph-name="alphatonos" unicode="&#x3ac;" horiz-adv-x="1368" 
d="M72 506q0 152 59.5 273.5t166.5 190t241 68.5q251 0 366 -170l66 146h338l-224 -492q44 -147 86.5 -203.5t98.5 -56.5q25 0 57 4l37 -276q-96 -15 -154 -15q-97 0 -172 51.5t-118 147.5q-126 -199 -381 -199q-204 0 -335.5 150t-131.5 381zM424 506q0 -110 42 -174
t118 -64q124 0 186 238q-62 237 -186 237q-75 0 -117.5 -64t-42.5 -173zM965 1509l-172 -444l-244 82l143 457z" />
    <glyph glyph-name="epsilontonos" unicode="&#x3ad;" horiz-adv-x="942" 
d="M662 625v-211h-113q-63 0 -102 -25t-39 -65q0 -35 32.5 -56.5t83.5 -21.5q130 0 299 76l97 -250q-249 -97 -447 -97q-183 0 -300.5 87.5t-117.5 220.5q0 81 44 147t112 96q-59 26 -95 86.5t-36 132.5q0 129 108.5 211t284.5 82q198 0 422 -90l-96 -248q-166 66 -281 66
q-43 0 -67.5 -20t-24.5 -48q0 -34 33 -53.5t90 -19.5h113zM768 1509l-172 -444l-244 82l144 457z" />
    <glyph glyph-name="etatonos" unicode="&#x3ae;" horiz-adv-x="1298" 
d="M139 0v700q0 23 -14 37.5t-37 14.5q-15 0 -43 -4l-27 274q85 16 170 16q86 0 151 -36.5t99 -102.5q149 139 365 139q180 0 292.5 -111t112.5 -286v-1067h-360v1008q0 70 -45.5 115.5t-114.5 45.5q-83 0 -135.5 -55.5t-52.5 -144.5v-543h-361zM913 1509l-172 -444l-243 82
l143 457z" />
    <glyph glyph-name="iotatonos" unicode="&#x3af;" horiz-adv-x="673" 
d="M467 1014v-672q0 -37 22.5 -58.5t59.5 -21.5q26 0 84 8l37 -270q-116 -25 -211 -25q-162 0 -257.5 89.5t-95.5 240.5v709h361zM551 1509l-172 -444l-244 82l144 457z" />
    <glyph glyph-name="upsilondieresistonos" unicode="&#x3b0;" 
d="M766 1014h360q68 -256 68 -492q0 -240 -165.5 -393.5t-424.5 -153.5q-227 0 -370.5 133.5t-143.5 344.5q0 43 8 127.5t8 126.5q0 160 -32 307h360q33 -135 33 -293q0 -42 -8 -126.5t-8 -127.5q0 -87 49.5 -143t124.5 -56q92 0 150.5 79t58.5 204q0 178 -68 463zM805 1544
l-166 -471l-162 45l131 477zM131 1280q0 75 46.5 121.5t121.5 46.5q74 0 121 -46.5t47 -121.5q0 -74 -47.5 -121t-120.5 -47q-75 0 -121.5 47t-46.5 121zM766 1280q0 75 47 121.5t121 46.5q75 0 121.5 -46.5t46.5 -121.5q0 -74 -46.5 -121t-121.5 -47q-74 0 -121 47t-47 121
z" />
    <glyph glyph-name="alpha" unicode="&#x3b1;" horiz-adv-x="1368" 
d="M72 506q0 152 59.5 273.5t166.5 190t241 68.5q251 0 366 -170l66 146h338l-224 -492q44 -147 86.5 -203.5t98.5 -56.5q25 0 57 4l37 -276q-96 -15 -154 -15q-97 0 -172 51.5t-118 147.5q-126 -199 -381 -199q-204 0 -335.5 150t-131.5 381zM424 506q0 -110 42 -174
t118 -64q124 0 186 238q-62 237 -186 237q-75 0 -117.5 -64t-42.5 -173z" />
    <glyph glyph-name="beta" unicode="&#x3b2;" horiz-adv-x="1232" 
d="M106 -426v1401q0 217 153 354t392 137q218 0 356 -113t138 -292q0 -99 -41 -177.5t-115 -121.5q100 -44 152.5 -135t52.5 -213q0 -190 -129 -314.5t-324 -124.5q-168 0 -288 105v-506h-347zM578 618v271h57q71 0 118.5 43.5t47.5 109.5q0 63 -45 104.5t-119 41.5
q-85 0 -134.5 -54t-49.5 -145v-506q0 -100 57 -160.5t149 -60.5q79 0 131 48.5t52 125.5q0 82 -53.5 132t-139.5 50h-71z" />
    <glyph glyph-name="gamma" unicode="&#x3b3;" horiz-adv-x="1134" 
d="M735 1014h361q-32 -291 -118 -524.5t-233 -430.5v-485h-360v426l-377 1014h377l197 -608q132 293 153 608z" />
    <glyph glyph-name="delta" unicode="&#x3b4;" horiz-adv-x="1167" 
d="M39 432q0 136 66 244.5t178 183.5q-125 106 -125 248q0 159 119 258.5t311 99.5q197 0 413 -82l-90 -262q-168 74 -280 74q-59 0 -93 -23.5t-34 -64.5q0 -28 27 -54.5t70.5 -48t100 -49.5t114.5 -57t114.5 -73t100 -95.5t70.5 -126.5t27 -164q0 -202 -152 -333.5
t-392 -131.5q-245 0 -395 127.5t-150 329.5zM391 455q0 -87 54 -144t139 -57t138.5 57t53.5 144q0 159 -207 254q-87 -51 -132.5 -116t-45.5 -138z" />
    <glyph glyph-name="epsilon" unicode="&#x3b5;" horiz-adv-x="942" 
d="M662 625v-211h-113q-63 0 -102 -25t-39 -65q0 -35 32.5 -56.5t83.5 -21.5q130 0 299 76l97 -250q-249 -97 -447 -97q-183 0 -300.5 87.5t-117.5 220.5q0 81 44 147t112 96q-59 26 -95 86.5t-36 132.5q0 129 108.5 211t284.5 82q198 0 422 -90l-96 -248q-166 66 -281 66
q-43 0 -67.5 -20t-24.5 -48q0 -34 33 -53.5t90 -19.5h113z" />
    <glyph glyph-name="zeta" unicode="&#x3b6;" horiz-adv-x="974" 
d="M954 1442v-211q-276 -271 -403 -438t-127 -277q0 -98 62.5 -161.5t197.5 -96.5q145 -39 216 -107.5t71 -177.5q0 -141 -94 -346l-279 74q43 107 43 182q0 95 -106 119q-239 58 -359.5 170t-120.5 285q0 144 108.5 304.5t354.5 409.5h-430v271h866z" />
    <glyph glyph-name="eta" unicode="&#x3b7;" horiz-adv-x="1298" 
d="M139 0v700q0 23 -14 37.5t-37 14.5q-15 0 -43 -4l-27 274q85 16 170 16q86 0 151 -36.5t99 -102.5q149 139 365 139q180 0 292.5 -111t112.5 -286v-1067h-360v1008q0 70 -45.5 115.5t-114.5 45.5q-83 0 -135.5 -55.5t-52.5 -144.5v-543h-361z" />
    <glyph glyph-name="theta" unicode="&#x3b8;" 
d="M72 721q0 346 148.5 545.5t412.5 199.5q265 0 413 -199t148 -546t-148 -546.5t-413 -199.5q-264 0 -412.5 200t-148.5 546zM633 254q97 0 155 92t62 256h-434q5 -164 62 -256t155 -92zM633 1188q-96 0 -152.5 -83t-62.5 -233h432q-8 150 -64.5 233t-152.5 83z" />
    <glyph glyph-name="iota" unicode="&#x3b9;" horiz-adv-x="673" 
d="M467 1014v-672q0 -37 22.5 -58.5t59.5 -21.5q26 0 84 8l37 -270q-116 -25 -211 -25q-162 0 -257.5 89.5t-95.5 240.5v709h361z" />
    <glyph glyph-name="kappa" unicode="&#x3ba;" horiz-adv-x="1165" 
d="M106 0v1014h347v-352l108 112q205 205 426 285l121 -285q-204 -77 -320 -196l-53 -54l434 -524h-407l-266 328l-43 -43v-285h-347z" />
    <glyph glyph-name="lambda" unicode="&#x3bb;" horiz-adv-x="1134" 
d="M-8 0l411 997l-20 50q-26 70 -66.5 101.5t-99.5 31.5q-38 0 -92 -13l-45 279q90 20 174 20q310 0 457 -372l432 -1094h-377l-199 592l-198 -592h-377z" />
    <glyph glyph-name="mu" unicode="&#x3bc;" horiz-adv-x="1314" 
d="M106 -426v1440h361v-582q0 -72 45.5 -118t116.5 -46q82 0 134 56t52 145v545h361v-701q0 -23 14 -37t37 -14q15 0 43 4l26 -274q-90 -17 -170 -17q-85 0 -150 37t-99 103q-56 -65 -125 -98t-136 -33q-88 0 -149 24v-434h-361z" />
    <glyph glyph-name="nu" unicode="&#x3bd;" horiz-adv-x="1134" 
d="M735 1014h361q-54 -571 -396 -1014h-315l-377 1014h377l197 -608q132 293 153 608z" />
    <glyph glyph-name="xi" unicode="&#x3be;" horiz-adv-x="974" 
d="M938 1442v-256h-250q-99 0 -157 -42t-58 -112q0 -61 45 -97t115 -36h174v-258h-129q-120 0 -187 -48.5t-67 -137.5q0 -69 62.5 -116t197.5 -81q145 -39 216 -107.5t71 -177.5q0 -141 -94 -346l-279 74q43 107 43 182q0 95 -106 119q-247 60 -363.5 162.5t-116.5 259.5
q0 111 55.5 197.5t153.5 140.5q-65 35 -104 97.5t-39 131.5q0 60 26.5 115.5t73.5 93.5h-133v242h850z" />
    <glyph glyph-name="omicron" unicode="&#x3bf;" 
d="M55 506q0 234 162 383t416 149q255 0 416 -148.5t161 -383.5q0 -234 -161 -382.5t-416 -148.5q-254 0 -416 149t-162 382zM424 506q0 -110 58.5 -181t150.5 -71t151.5 71t59.5 181q0 112 -59 183t-152 71q-92 0 -150.5 -71t-58.5 -183z" />
    <glyph glyph-name="pi" unicode="&#x3c0;" horiz-adv-x="1396" 
d="M1329 1014v-273h-170v-424q0 -25 13 -40t36 -15q24 0 52 4l36 -274q-104 -17 -170 -17q-141 0 -227 84t-86 222v460h-262v-741h-346v741h-170v273h1294z" />
    <glyph glyph-name="rho" unicode="&#x3c1;" 
d="M90 -426v922q0 249 157 395.5t425 146.5q238 0 388 -145.5t150 -378.5q0 -234 -141.5 -386.5t-357.5 -152.5q-144 0 -260 91v-492h-361zM844 510q0 110 -56 180t-145 70q-88 0 -143.5 -59.5t-55.5 -145.5v-102q0 -84 52.5 -137.5t138.5 -53.5q94 0 151.5 69t57.5 179z
" />
    <glyph glyph-name="sigma1" unicode="&#x3c2;" horiz-adv-x="1009" 
d="M55 510q0 230 154.5 379t392.5 149q210 0 399 -104l-135 -250q-114 68 -204 68q-103 0 -170.5 -68.5t-67.5 -173.5q0 -195 227 -252q145 -39 216 -107.5t71 -177.5q0 -141 -94 -346l-279 74q43 107 43 182q0 95 -106 119q-226 55 -336.5 187.5t-110.5 320.5z" />
    <glyph glyph-name="sigma" unicode="&#x3c3;" horiz-adv-x="1331" 
d="M55 498q0 240 159 378t435 138h647v-273h-149q47 -133 47 -252q0 -230 -162 -372t-416 -142q-247 0 -404 145.5t-157 377.5zM424 498q0 -108 58.5 -176t148.5 -68q91 0 147 71.5t56 180.5q0 110 -64 235h-106q-110 0 -175 -65.5t-65 -177.5z" />
    <glyph glyph-name="tau" unicode="&#x3c4;" horiz-adv-x="993" 
d="M942 1014v-273h-289v-399q0 -37 21.5 -58.5t58.5 -21.5q26 0 84 8l37 -270q-116 -25 -211 -25q-162 0 -256 89.5t-94 240.5v436h-258v273h907z" />
    <glyph glyph-name="upsilon" unicode="&#x3c5;" 
d="M766 1014h360q68 -256 68 -492q0 -240 -165.5 -393.5t-424.5 -153.5q-227 0 -370.5 133.5t-143.5 344.5q0 43 8 127.5t8 126.5q0 160 -32 307h360q33 -135 33 -293q0 -42 -8 -126.5t-8 -127.5q0 -87 49.5 -143t124.5 -56q92 0 150.5 79t58.5 204q0 178 -68 463z" />
    <glyph glyph-name="phi" unicode="&#x3c6;" horiz-adv-x="1492" 
d="M588 -426v416q-244 32 -388.5 172t-144.5 344t144.5 344.5t388.5 171.5v420h315v-420q245 -31 390 -171t145 -345q0 -204 -144.5 -344t-390.5 -172v-416h-315zM379 506q0 -90 55 -154t154 -84v475q-99 -20 -154 -83.5t-55 -153.5zM1114 506q0 90 -56 153.5t-155 83.5
v-475q99 20 155 84t56 154z" />
    <glyph glyph-name="chi" unicode="&#x3c7;" horiz-adv-x="1138" 
d="M752 295l110 -227q61 -125 104 -178.5t93 -53.5q35 0 65 6l47 -276q-81 -17 -157 -17q-135 0 -217.5 61t-153.5 204l-88 180l-217 -420h-361l429 752l-111 223q-54 113 -92 158t-88 45q-31 0 -66 -7l-47 277q76 16 158 16q133 0 216 -60.5t146 -189.5l80 -163l201 389
h352z" />
    <glyph glyph-name="psi" unicode="&#x3c8;" horiz-adv-x="1531" 
d="M608 -426v406q-230 11 -374 147.5t-144 347.5q0 42 8 124t8 124q0 155 -32 291h323q33 -124 33 -277q0 -42 -8 -124t-8 -124q0 -93 52 -152t142 -65v1037h316v-1033q97 23 154 106.5t57 205.5q0 204 -60 426h316q67 -246 67 -457q0 -232 -149 -391t-385 -182v-410h-316z
" />
    <glyph glyph-name="omega" unicode="&#x3c9;" horiz-adv-x="1662" 
d="M997 780v-231q0 -281 125 -281q54 0 84.5 61.5t30.5 170.5q0 231 -131 514h354q131 -283 131 -543q0 -219 -116.5 -357.5t-300.5 -138.5q-123 0 -214.5 62t-128.5 168q-37 -106 -129 -168t-213 -62q-184 0 -300.5 138.5t-116.5 357.5q0 260 131 543h352
q-131 -290 -131 -514q0 -108 31.5 -170t85.5 -62q61 0 93 71.5t32 209.5v231h331z" />
    <glyph glyph-name="iotadieresis" unicode="&#x3ca;" horiz-adv-x="673" 
d="M467 1014v-672q0 -37 22.5 -58.5t59.5 -21.5q26 0 84 8l37 -270q-116 -25 -211 -25q-162 0 -257.5 89.5t-95.5 240.5v709h361zM-137 1280q0 82 50 133t132 51t132 -51t50 -133t-50 -132t-132 -50t-132 50t-50 132zM346 1280q0 82 50 133t132 51t132.5 -51t50.5 -133
t-50.5 -132t-132.5 -50t-132 50t-50 132z" />
    <glyph glyph-name="upsilondieresis" unicode="&#x3cb;" 
d="M766 1014h360q68 -256 68 -492q0 -240 -165.5 -393.5t-424.5 -153.5q-227 0 -370.5 133.5t-143.5 344.5q0 43 8 127.5t8 126.5q0 160 -32 307h360q33 -135 33 -293q0 -42 -8 -126.5t-8 -127.5q0 -87 49.5 -143t124.5 -56q92 0 150.5 79t58.5 204q0 178 -68 463zM193 1280
q0 82 50 133t132 51t132 -51t50 -133t-50 -132t-132 -50t-132 50t-50 132zM676 1280q0 82 50 133t132 51t132 -51t50 -133t-50 -132t-132 -50t-132 50t-50 132z" />
    <glyph glyph-name="omicrontonos" unicode="&#x3cc;" 
d="M55 506q0 234 162 383t416 149q255 0 416 -148.5t161 -383.5q0 -234 -161 -382.5t-416 -148.5q-254 0 -416 149t-162 382zM424 506q0 -110 58.5 -181t150.5 -71t151.5 71t59.5 181q0 112 -59 183t-152 71q-92 0 -150.5 -71t-58.5 -183zM897 1509l-172 -444l-244 82
l144 457z" />
    <glyph glyph-name="upsilontonos" unicode="&#x3cd;" 
d="M766 1014h360q68 -256 68 -492q0 -240 -165.5 -393.5t-424.5 -153.5q-227 0 -370.5 133.5t-143.5 344.5q0 43 8 127.5t8 126.5q0 160 -32 307h360q33 -135 33 -293q0 -42 -8 -126.5t-8 -127.5q0 -87 49.5 -143t124.5 -56q92 0 150.5 79t58.5 204q0 178 -68 463zM881 1509
l-172 -444l-244 82l143 457z" />
    <glyph glyph-name="omegatonos" unicode="&#x3ce;" horiz-adv-x="1662" 
d="M997 780v-231q0 -281 125 -281q54 0 84.5 61.5t30.5 170.5q0 231 -131 514h354q131 -283 131 -543q0 -219 -116.5 -357.5t-300.5 -138.5q-123 0 -214.5 62t-128.5 168q-37 -106 -129 -168t-213 -62q-184 0 -300.5 138.5t-116.5 357.5q0 260 131 543h352
q-131 -290 -131 -514q0 -108 31.5 -170t85.5 -62q61 0 93 71.5t32 209.5v231h331zM1096 1509l-172 -444l-244 82l143 457z" />
    <glyph glyph-name="uni03D0" unicode="&#x3d0;" horiz-adv-x="1167" 
d="M72 702q0 228 71.5 400.5t207 268t317.5 95.5q181 0 296 -104.5t115 -271.5q0 -148 -104 -252q76 -70 114.5 -161.5t38.5 -191.5q0 -142 -61 -257.5t-179 -184t-272 -68.5q-257 0 -400.5 193t-143.5 534zM741 1075q0 53 -34 87t-84 34q-92 0 -148.5 -95t-56.5 -245h10
q136 0 224.5 64t88.5 155zM784 457q0 121 -79 200q-111 -57 -263 -57h-24q0 -160 52.5 -257t145.5 -97q73 0 120.5 60.5t47.5 150.5z" />
    <glyph glyph-name="theta1" unicode="&#x3d1;" horiz-adv-x="1396" 
d="M1395 872v-270h-174q-11 -283 -149.5 -455t-356.5 -172q-105 0 -184 24t-124.5 62.5t-78 85t-53.5 93.5t-43 85.5t-55.5 62.5t-80.5 24q-28 0 -65 -9l-45 267q76 20 155 20q91 0 159.5 -24t107.5 -62.5t66.5 -85t46.5 -93t39 -85t51 -62.5t75 -24q85 0 138 94t53 254h-41
q-166 0 -307 61.5t-224.5 170.5t-83.5 241q0 172 126 281.5t319 109.5q227 0 382.5 -161.5t172.5 -432.5h174zM559 1067q0 -88 89 -141.5t218 -53.5h11q0 139 -58 227.5t-139 88.5q-52 0 -86.5 -34t-34.5 -87z" />
    <glyph glyph-name="phi1" unicode="&#x3d5;" horiz-adv-x="1525" 
d="M385 532q0 -99 53.5 -170.5t143.5 -93.5v330q0 194 119.5 317t306.5 123q203 0 332.5 -131.5t129.5 -333.5q0 -230 -153 -389.5t-406 -193.5v-416h-329v416q-240 34 -383.5 179t-143.5 355q0 142 72.5 272.5t216.5 233.5l180 -242q-66 -50 -102.5 -116.5t-36.5 -139.5z
M1139 573q0 78 -33.5 128.5t-85.5 50.5q-50 0 -79.5 -41t-29.5 -113v-330q107 26 167.5 108t60.5 197z" />
    <glyph glyph-name="uni0400" unicode="&#x400;" horiz-adv-x="1243" 
d="M141 0v1376h998v-278h-623v-258h557v-271h-557v-290h655v-279h-1030zM459 1905l409 -287l-135 -195l-432 256z" />
    <glyph glyph-name="afii10023" unicode="&#x401;" horiz-adv-x="1243" 
d="M141 0v1376h998v-278h-623v-258h557v-271h-557v-290h655v-279h-1030zM213 1642q0 82 50.5 133.5t131.5 51.5q82 0 132.5 -51.5t50.5 -133.5t-50.5 -132t-132.5 -50t-132 50t-50 132zM696 1642q0 82 50.5 133.5t132.5 51.5q81 0 131.5 -51.5t50.5 -133.5t-50 -132
t-132 -50t-132.5 50t-50.5 132z" />
    <glyph glyph-name="afii10051" unicode="&#x402;" horiz-adv-x="1734" 
d="M401 0v1090h-366v286h1171v-286h-430v-269q215 37 412 37q226 0 366 -121.5t140 -316.5t-143 -320t-361 -125q-152 0 -307 41l71 285q112 -25 191 -25q74 0 120 37t46 99q0 69 -53 111t-146 42q-151 0 -336 -28v-537h-375z" />
    <glyph glyph-name="afii10052" unicode="&#x403;" horiz-adv-x="1112" 
d="M141 0v1376h934v-286h-559v-1090h-375zM985 1679l-430 -256l-135 195l409 287z" />
    <glyph glyph-name="afii10053" unicode="&#x404;" horiz-adv-x="1357" 
d="M1073 840v-271h-635q29 -140 138 -223.5t268 -83.5q156 0 321 109l150 -242q-243 -154 -522 -154q-214 0 -382 91t-261 253.5t-93 368.5q0 207 93 369.5t261 253t382 90.5q279 0 522 -154l-150 -241q-163 108 -321 108q-150 0 -256.5 -73.5t-141.5 -200.5h627z" />
    <glyph glyph-name="afii10054" unicode="&#x405;" horiz-adv-x="1222" 
d="M72 983q0 186 151 302t389 116q237 0 498 -98l-84 -279q-212 84 -385 84q-93 0 -147 -33t-54 -92q0 -35 24.5 -60t66 -40.5t95.5 -28.5t114 -27.5t119.5 -33.5t113.5 -51t95.5 -75.5t66 -111.5t24.5 -154q0 -190 -152.5 -308t-394.5 -118q-266 0 -549 115l84 279
q265 -101 435 -101q98 0 153.5 35t55.5 98q0 36 -24.5 62.5t-66 43.5t-95.5 30.5t-114 29t-119.5 34.5t-113.5 50.5t-95.5 73.5t-66 108t-24.5 150z" />
    <glyph glyph-name="afii10055" unicode="&#x406;" horiz-adv-x="657" 
d="M141 0v1376h375v-1376h-375z" />
    <glyph glyph-name="afii10056" unicode="&#x407;" horiz-adv-x="657" 
d="M141 0v1376h375v-1376h-375zM-94 1642q0 82 50.5 133.5t131.5 51.5t131.5 -51.5t50.5 -133.5t-50 -132t-132 -50t-132 50t-50 132zM389 1642q0 82 50.5 133.5t131.5 51.5q82 0 132.5 -51.5t50.5 -133.5t-50.5 -132t-132.5 -50t-132 50t-50 132z" />
    <glyph glyph-name="afii10057" unicode="&#x408;" horiz-adv-x="944" 
d="M803 1376v-952q0 -201 -130 -325t-339 -124q-154 0 -314 41l46 285q113 -25 178 -25q80 0 132 51.5t52 133.5v915h375z" />
    <glyph glyph-name="afii10058" unicode="&#x409;" horiz-adv-x="2324" 
d="M1145 0v1090h-471v-611q0 -229 -131 -366.5t-350 -137.5q-89 0 -191 17l31 293q83 -9 100 -9q84 0 132 63t48 171v866h1176v-487h311q211 0 347.5 -124.5t136.5 -320.5t-136 -320t-348 -124h-655zM1489 604v-317h266q78 0 127 43.5t49 113.5q0 69 -49 114.5t-127 45.5
h-266z" />
    <glyph glyph-name="afii10059" unicode="&#x40a;" horiz-adv-x="2275" 
d="M1096 0v578h-594v-578h-361v1376h361v-520h594v520h344v-520h311q213 0 348 -119t135 -309t-135 -309t-348 -119h-655zM1440 586v-316h266q79 0 127.5 43.5t48.5 114.5q0 68 -49 113t-127 45h-266z" />
    <glyph glyph-name="afii10060" unicode="&#x40b;" horiz-adv-x="1734" 
d="M401 0v1090h-366v286h1171v-286h-430v-269q188 37 365 37q223 0 364.5 -131t141.5 -340v-387h-377v358q0 92 -61.5 149.5t-157.5 57.5q-123 0 -275 -28v-537h-375z" />
    <glyph glyph-name="afii10061" unicode="&#x40c;" horiz-adv-x="1429" 
d="M141 0v1376h361v-528h104l389 528h414l-496 -653l537 -723h-422l-407 561h-119v-561h-361zM1096 1679l-430 -256l-136 195l410 287z" />
    <glyph glyph-name="uni040D" unicode="&#x40d;" horiz-adv-x="1613" 
d="M629 1905l409 -287l-135 -195l-432 256zM141 0v1376h346v-866l625 866h361v-1376h-345v866l-626 -866h-361z" />
    <glyph glyph-name="afii10062" unicode="&#x40e;" horiz-adv-x="1337" 
d="M1360 1376l-512 -1089q-148 -312 -467 -312q-102 0 -231 33l53 285q87 -17 133 -17q108 0 156 101l10 20l-492 979h391l285 -663l283 663h391zM319 1802h228q3 -58 41.5 -91.5t97.5 -33.5t97.5 33.5t41.5 91.5h228q-6 -170 -108 -268t-259 -98t-259 98t-108 268z" />
    <glyph glyph-name="afii10145" unicode="&#x40f;" horiz-adv-x="1613" 
d="M141 0v1376h375v-1089h582v1089h375v-1376h-492v-360h-346v360h-494z" />
    <glyph glyph-name="afii10017" unicode="&#x410;" horiz-adv-x="1417" 
d="M-23 0l560 1376h346l557 -1376h-375l-102 279h-506l-103 -279h-377zM709 969l-156 -420h311z" />
    <glyph glyph-name="afii10018" unicode="&#x411;" horiz-adv-x="1351" 
d="M141 0v1376h1028v-270h-667v-262h319q208 0 341.5 -118t133.5 -304q0 -187 -133.5 -304.5t-341.5 -117.5h-680zM502 571v-301h260q76 0 122 41.5t46 110.5q0 68 -46 108.5t-122 40.5h-260z" />
    <glyph glyph-name="afii10019" unicode="&#x412;" horiz-adv-x="1370" 
d="M141 0v1376h641q206 0 335.5 -104.5t129.5 -270.5q0 -95 -46.5 -168.5t-123.5 -113.5q102 -41 160.5 -128.5t58.5 -199.5q0 -172 -135 -281.5t-346 -109.5h-674zM502 584v-314h254q78 0 126 43.5t48 114.5q0 70 -48 113t-126 43h-254zM502 1106v-281h229q69 0 112.5 38.5
t43.5 101.5t-43.5 102t-112.5 39h-229z" />
    <glyph glyph-name="afii10020" unicode="&#x413;" horiz-adv-x="1112" 
d="M141 0v1376h934v-286h-559v-1090h-375z" />
    <glyph glyph-name="afii10021" unicode="&#x414;" horiz-adv-x="1630" 
d="M23 -360v647h98q149 248 149 573v516h1125v-1089h196v-647h-346v360h-876v-360h-346zM1034 287v803h-403v-259q0 -315 -113 -544h516z" />
    <glyph glyph-name="afii10022" unicode="&#x415;" horiz-adv-x="1243" 
d="M141 0v1376h998v-278h-623v-258h557v-271h-557v-290h655v-279h-1030z" />
    <glyph glyph-name="afii10024" unicode="&#x416;" horiz-adv-x="2129" 
d="M885 0v561h-119l-379 -561h-405l499 719l-461 657h392l364 -528h109v528h360v-528h109l364 528h391l-460 -657l499 -719h-405l-379 561h-119v-561h-360z" />
    <glyph glyph-name="afii10025" unicode="&#x417;" horiz-adv-x="1140" 
d="M330 575v259h143q104 0 160.5 37.5t56.5 103.5q0 61 -45 97t-129 36q-151 0 -373 -84l-104 272q278 105 528 105q215 0 349.5 -106.5t134.5 -276.5q0 -105 -56 -188t-149 -117q105 -37 171 -129.5t66 -208.5q0 -178 -144 -289t-372 -111q-286 0 -561 113l105 272
q213 -92 397 -92q96 0 152.5 41t56.5 109q0 74 -64 115.5t-180 41.5h-143z" />
    <glyph glyph-name="afii10026" unicode="&#x418;" horiz-adv-x="1613" 
d="M141 0v1376h346v-866l625 866h361v-1376h-345v866l-626 -866h-361z" />
    <glyph glyph-name="afii10027" unicode="&#x419;" horiz-adv-x="1613" 
d="M440 1802h228q3 -58 41.5 -91.5t97.5 -33.5t97.5 33.5t41.5 91.5h228q-6 -170 -108 -268t-259 -98t-259 98t-108 268zM141 0v1376h346v-866l625 866h361v-1376h-345v866l-626 -866h-361z" />
    <glyph glyph-name="afii10028" unicode="&#x41a;" horiz-adv-x="1429" 
d="M141 0v1376h361v-528h104l389 528h414l-496 -653l537 -723h-422l-407 561h-119v-561h-361z" />
    <glyph glyph-name="afii10029" unicode="&#x41b;" horiz-adv-x="1662" 
d="M1522 1376v-1376h-361v1090h-487v-611q0 -229 -131 -366.5t-350 -137.5q-89 0 -191 17l31 293q83 -9 100 -9q84 0 132 63t48 171v866h1209z" />
    <glyph glyph-name="afii10030" unicode="&#x41c;" horiz-adv-x="1794" 
d="M141 0v1376h361l395 -547l395 547h361v-1376h-344v866l-310 -428h-204l-308 428v-866h-346z" />
    <glyph glyph-name="afii10031" unicode="&#x41d;" horiz-adv-x="1613" 
d="M141 0v1376h375v-528h582v528h375v-1376h-375v561h-582v-561h-375z" />
    <glyph glyph-name="afii10032" unicode="&#x41e;" horiz-adv-x="1613" 
d="M57 688q0 155 55.5 287.5t154 226t238 146.5t302.5 53t303 -53t238.5 -146.5t154.5 -226t56 -287.5t-56 -287.5t-154.5 -226t-238.5 -146.5t-303 -53t-302.5 53t-238 146.5t-154 226t-55.5 287.5zM440 688q0 -185 102.5 -302.5t264.5 -117.5q163 0 266 117.5t103 302.5
t-103 302.5t-266 117.5q-162 0 -264.5 -117.5t-102.5 -302.5z" />
    <glyph glyph-name="afii10033" unicode="&#x41f;" horiz-adv-x="1613" 
d="M141 0v1376h1332v-1376h-375v1090h-582v-1090h-375z" />
    <glyph glyph-name="afii10034" unicode="&#x420;" horiz-adv-x="1304" 
d="M141 0v1376h609q226 0 370 -133t144 -342t-144 -343t-370 -134h-248v-424h-361zM502 1090v-379h188q92 0 149.5 52.5t57.5 137.5q0 82 -57.5 135.5t-149.5 53.5h-188z" />
    <glyph glyph-name="afii10035" unicode="&#x421;" horiz-adv-x="1341" 
d="M57 688q0 207 93 369.5t261 253t382 90.5q270 0 522 -162l-150 -248q-166 113 -321 113q-180 0 -292 -115.5t-112 -300.5t112 -300.5t292 -115.5q155 0 321 113l150 -248q-252 -162 -522 -162q-214 0 -382 91t-261 253.5t-93 368.5z" />
    <glyph glyph-name="afii10036" unicode="&#x422;" horiz-adv-x="1243" 
d="M434 0v1090h-399v286h1171v-286h-397v-1090h-375z" />
    <glyph glyph-name="afii10037" unicode="&#x423;" horiz-adv-x="1337" 
d="M1360 1376l-512 -1089q-148 -312 -467 -312q-102 0 -231 33l53 285q87 -17 133 -17q108 0 156 101l10 20l-492 979h391l285 -663l283 663h391z" />
    <glyph glyph-name="afii10038" unicode="&#x424;" horiz-adv-x="1658" 
d="M657 -66v170q-274 22 -445 186.5t-171 414.5q0 165 78.5 296.5t218 210.5t319.5 93v137h344v-137q273 -22 446 -187t173 -413q0 -249 -173 -414t-446 -187v-170h-344zM393 705q0 -121 72 -206.5t192 -107.5v627q-120 -22 -192 -107t-72 -206zM1266 705q0 121 -72.5 206
t-192.5 107v-627q120 22 192.5 107.5t72.5 206.5z" />
    <glyph glyph-name="afii10039" unicode="&#x425;" horiz-adv-x="1433" 
d="M-18 0l495 705l-471 671h412l299 -438l299 438h414l-474 -671l498 -705h-422l-315 471l-316 -471h-419z" />
    <glyph glyph-name="afii10040" unicode="&#x426;" horiz-adv-x="1710" 
d="M141 0v1376h375v-1089h582v1089h375v-1089h196v-647h-344v360h-1184z" />
    <glyph glyph-name="afii10041" unicode="&#x427;" horiz-adv-x="1482" 
d="M965 0v522q-211 -37 -373 -37q-222 0 -363 137.5t-141 350.5v403h375v-375q0 -99 60.5 -161t158.5 -62q125 0 283 29v569h376v-1376h-376z" />
    <glyph glyph-name="afii10042" unicode="&#x428;" horiz-adv-x="2258" 
d="M141 0v1376h375v-1089h426v1089h375v-1089h424v1089h375v-1376h-1975z" />
    <glyph glyph-name="afii10043" unicode="&#x429;" horiz-adv-x="2353" 
d="M141 0v1376h375v-1089h426v1089h375v-1089h424v1089h375v-1089h196v-647h-360v360h-1811z" />
    <glyph glyph-name="afii10044" unicode="&#x42a;" horiz-adv-x="1599" 
d="M403 1090h-368v286h729v-487h311q213 0 348.5 -124.5t135.5 -320.5t-135.5 -320t-348.5 -124h-672v1090zM764 604v-317h252q79 0 127.5 43t48.5 114q0 70 -48.5 115t-127.5 45h-252z" />
    <glyph glyph-name="afii10045" unicode="&#x42b;" horiz-adv-x="1996" 
d="M141 0v1376h361v-487h311q212 0 347.5 -124.5t135.5 -320.5t-135 -320t-348 -124h-672zM502 604v-317h252q79 0 127.5 43t48.5 114q0 70 -48.5 115t-127.5 45h-252zM1479 0v1376h374v-1376h-374z" />
    <glyph glyph-name="afii10046" unicode="&#x42c;" horiz-adv-x="1337" 
d="M141 0v1376h361v-487h311q212 0 347.5 -124.5t135.5 -320.5t-135 -320t-348 -124h-672zM502 604v-317h252q79 0 127.5 43t48.5 114q0 70 -48.5 115t-127.5 45h-252z" />
    <glyph glyph-name="afii10047" unicode="&#x42d;" horiz-adv-x="1357" 
d="M1300 688q0 -154 -54 -286.5t-150 -226.5t-233.5 -147t-297.5 -53q-278 0 -524 154l152 242q165 -109 319 -109q159 0 269 83.5t139 223.5h-637v271h626q-34 126 -140.5 200t-256.5 74q-156 0 -319 -108l-152 241q246 154 524 154q161 0 298 -53t233 -146.5t150 -226
t54 -287.5z" />
    <glyph glyph-name="afii10048" unicode="&#x42e;" horiz-adv-x="2256" 
d="M141 0v1376h375v-522h217q51 246 248.5 396.5t476.5 150.5q214 0 383.5 -90.5t264 -253.5t94.5 -369t-94.5 -369t-264 -253.5t-383.5 -90.5q-191 0 -348 72t-256.5 203.5t-126.5 304.5h-211v-555h-375zM1090 688q0 -184 103.5 -302t264.5 -118q160 0 263.5 118t103.5 302
t-103.5 302t-263.5 118q-161 0 -264.5 -118t-103.5 -302z" />
    <glyph glyph-name="afii10049" unicode="&#x42f;" horiz-adv-x="1370" 
d="M868 0v457h-127l-292 -457h-406l352 516q-132 38 -210.5 148.5t-78.5 259.5q0 199 140.5 325.5t359.5 126.5h623v-1376h-361zM868 743v347h-202q-84 0 -137.5 -48t-53.5 -124q0 -79 53.5 -127t137.5 -48h202z" />
    <glyph glyph-name="afii10065" unicode="&#x430;" horiz-adv-x="1171" 
d="M55 305q0 162 124.5 252t346.5 90q80 0 174 -16v8q0 59 -50 97t-126 38q-146 0 -327 -74l-91 248q242 90 463 90q209 0 335 -112t126 -295v-334q0 -23 14 -37t37 -14q19 0 47 4l23 -258q-87 -17 -170 -17q-75 0 -133 30.5t-92 86.5q-69 -56 -156 -86.5t-172 -30.5
q-164 0 -268.5 92t-104.5 238zM393 328q0 -45 37 -75t94 -30q76 0 126 48t50 122v37q-72 14 -129 14q-80 0 -129 -31.5t-49 -84.5z" />
    <glyph glyph-name="afii10066" unicode="&#x431;" 
d="M1210 539q0 -250 -153 -407t-393 -157q-268 0 -430 183t-162 489q0 319 155 522.5t453 264.5l326 69l61 -270l-328 -70q-246 -53 -299 -217q133 92 299 92q200 0 335.5 -143.5t135.5 -355.5zM866 516q0 104 -61 170t-156 66t-156 -66t-61 -170q0 -107 63.5 -180.5
t153.5 -73.5q94 0 155.5 71t61.5 183z" />
    <glyph glyph-name="afii10067" unicode="&#x432;" horiz-adv-x="1073" 
d="M106 0v1014h504q165 0 270 -77t105 -208q0 -125 -113 -197q67 -34 106.5 -98.5t39.5 -142.5q0 -127 -108.5 -209t-274.5 -82h-529zM438 416v-174h144q45 0 71.5 24t26.5 64t-26 63t-72 23h-144zM438 772v-160h127q38 0 63 22.5t25 57.5t-25 57.5t-63 22.5h-127z" />
    <glyph glyph-name="afii10068" unicode="&#x433;" horiz-adv-x="913" 
d="M106 0v1014h754v-273h-393v-741h-361z" />
    <glyph glyph-name="afii10069" unicode="&#x434;" 
d="M23 -328v598h65q100 148 100 377v367h908v-744h131v-598h-330v328h-545v-328h-329zM780 270v471h-276v-125q0 -204 -62 -346h338z" />
    <glyph glyph-name="afii10070" unicode="&#x435;" horiz-adv-x="1155" 
d="M55 506q0 235 153 383.5t394 148.5q227 0 370.5 -143.5t143.5 -372.5q0 -56 -6 -108h-694q20 -80 91.5 -127t172.5 -47q123 0 281 82l106 -242q-225 -105 -432 -105q-257 0 -418.5 148.5t-161.5 382.5zM602 774q-70 0 -120.5 -40.5t-65.5 -108.5h354q-9 68 -55 108.5
t-113 40.5z" />
    <glyph glyph-name="afii10072" unicode="&#x436;" horiz-adv-x="1652" 
d="M662 0v383h-68l-238 -383h-368l331 530l-301 484h363l221 -361h60v361h329v-361h62l219 361h362l-301 -484l332 -530h-369l-237 383h-68v-383h-329z" />
    <glyph glyph-name="afii10073" unicode="&#x437;" horiz-adv-x="942" 
d="M281 414v211h110q57 0 91 19.5t34 53.5q0 28 -25 48t-67 20q-119 0 -281 -66l-98 248q227 90 424 90q174 0 283.5 -82.5t109.5 -210.5q0 -72 -37 -132.5t-96 -86.5q69 -30 113.5 -96t44.5 -147q0 -133 -118 -220.5t-300 -87.5q-196 0 -449 97l99 250q169 -76 297 -76
q52 0 84 21.5t32 56.5q0 40 -38.5 65t-102.5 25h-110z" />
    <glyph glyph-name="afii10074" unicode="&#x438;" 
d="M106 0v1014h332v-533l383 533h338v-1014h-332v532l-381 -532h-340z" />
    <glyph glyph-name="afii10075" unicode="&#x439;" 
d="M106 0v1014h332v-533l383 533h338v-1014h-332v532l-381 -532h-340zM266 1440h228q3 -58 41.5 -91.5t97.5 -33.5t97.5 33.5t41.5 91.5h227q-6 -170 -107.5 -268.5t-258.5 -98.5t-259 98.5t-108 268.5z" />
    <glyph glyph-name="afii10076" unicode="&#x43a;" horiz-adv-x="1132" 
d="M106 0v1014h347v-361h45l247 361h377l-336 -484l367 -530h-391l-256 383h-53v-383h-347z" />
    <glyph glyph-name="afii10077" unicode="&#x43b;" horiz-adv-x="1298" 
d="M1192 1014v-1014h-346v741h-277v-374q0 -175 -109 -283.5t-284 -108.5q-86 0 -158 13l31 280q40 -6 68 -6q50 0 78 35t28 98v619h969z" />
    <glyph glyph-name="afii10078" unicode="&#x43c;" horiz-adv-x="1396" 
d="M106 0v1014h340l252 -352l254 352h338v-1014h-332v535l-170 -238h-180l-170 235v-532h-332z" />
    <glyph glyph-name="afii10079" unicode="&#x43d;" 
d="M106 0v1014h361v-367h332v367h360v-1014h-360v375h-332v-375h-361z" />
    <glyph glyph-name="afii10080" unicode="&#x43e;" 
d="M55 506q0 234 162 383t416 149q255 0 416 -148.5t161 -383.5q0 -234 -161 -382.5t-416 -148.5q-254 0 -416 149t-162 382zM424 506q0 -110 58.5 -181t150.5 -71t151.5 71t59.5 181q0 112 -59 183t-152 71q-92 0 -150.5 -71t-58.5 -183z" />
    <glyph glyph-name="afii10081" unicode="&#x43f;" 
d="M1159 0h-360v741h-332v-741h-361v1014h1053v-1014z" />
    <glyph glyph-name="afii10082" unicode="&#x440;" 
d="M106 -426v1440h287l45 -94q118 118 301 118q207 0 339 -148.5t132 -383.5q0 -233 -132 -382t-339 -149q-154 0 -272 97v-498h-361zM844 506q0 110 -56.5 180t-144.5 70q-81 0 -131.5 -55t-50.5 -142v-106q0 -85 50.5 -140t131.5 -55q88 0 144.5 69.5t56.5 178.5z" />
    <glyph glyph-name="afii10083" unicode="&#x441;" horiz-adv-x="1042" 
d="M55 506q0 233 158 382.5t405 149.5q219 0 416 -123l-143 -239q-120 76 -221 76q-109 0 -177.5 -68.5t-68.5 -177.5t68.5 -176.5t177.5 -67.5q101 0 221 76l143 -242q-198 -121 -416 -121q-247 0 -405 149.5t-158 381.5z" />
    <glyph glyph-name="afii10084" unicode="&#x442;" horiz-adv-x="976" 
d="M942 1014v-273h-272v-741h-361v741h-274v273h907z" />
    <glyph glyph-name="afii10085" unicode="&#x443;" horiz-adv-x="1134" 
d="M1143 1014l-432 -1092q-144 -373 -457 -373q-80 0 -174 21l45 278q53 -12 92 -12q60 0 100 31.5t68 101.5l18 45l-411 1000h377l198 -608l199 608h377z" />
    <glyph glyph-name="afii10086" unicode="&#x444;" horiz-adv-x="1492" 
d="M582 -426v416q-243 33 -385 174.5t-142 341.5q0 201 141.5 342t385.5 174v420h329v-420q244 -33 385.5 -174t141.5 -342q0 -200 -142 -341.5t-385 -174.5v-416h-329zM385 506q0 -88 52 -151.5t145 -86.5v475q-93 -23 -145 -86.5t-52 -150.5zM1106 506q0 87 -51 147.5
t-144 83.5v-461q94 23 144.5 82.5t50.5 147.5z" />
    <glyph glyph-name="afii10087" unicode="&#x445;" horiz-adv-x="1134" 
d="M-20 0l354 518l-338 496h397l174 -273l174 273h398l-338 -496l354 -518h-405l-183 297l-182 -297h-405z" />
    <glyph glyph-name="afii10088" unicode="&#x446;" horiz-adv-x="1329" 
d="M106 0v1014h361v-744h332v744h360v-744h131v-598h-332v328h-852z" />
    <glyph glyph-name="afii10089" unicode="&#x447;" horiz-adv-x="1167" 
d="M700 0v354q-111 -18 -247 -18q-168 0 -274.5 103.5t-106.5 267.5v307h360v-277q0 -56 33 -89.5t84 -33.5q78 0 151 11v389h361v-1014h-361z" />
    <glyph glyph-name="afii10090" unicode="&#x448;" horiz-adv-x="1794" 
d="M106 0v1014h361v-744h250v744h360v-744h248v744h361v-1014h-1580z" />
    <glyph glyph-name="afii10091" unicode="&#x449;" horiz-adv-x="1855" 
d="M106 0v1014h361v-744h250v744h360v-744h248v744h361v-744h131v-598h-330v328h-1381z" />
    <glyph glyph-name="afii10092" unicode="&#x44a;" 
d="M301 0v741h-266v273h596v-324h219q166 0 271.5 -96.5t105.5 -247.5q0 -152 -105.5 -249t-271.5 -97h-549zM631 432v-172h164q41 0 67.5 24t26.5 62q0 37 -26.5 61.5t-67.5 24.5h-164z" />
    <glyph glyph-name="afii10093" unicode="&#x44b;" horiz-adv-x="1632" 
d="M106 0v1014h332v-324h219q164 0 270.5 -96.5t106.5 -247.5q0 -152 -106 -249t-271 -97h-551zM1180 0v1014h346v-1014h-346zM438 432v-172h162q42 0 69 24t27 62q0 37 -27.5 61.5t-68.5 24.5h-162z" />
    <glyph glyph-name="afii10094" unicode="&#x44c;" horiz-adv-x="1073" 
d="M106 0v1014h332v-324h219q164 0 270.5 -96.5t106.5 -247.5q0 -152 -106 -249t-271 -97h-551zM438 432v-172h162q42 0 69 24t27 62q0 37 -27.5 61.5t-68.5 24.5h-162z" />
    <glyph glyph-name="afii10095" unicode="&#x44d;" horiz-adv-x="1073" 
d="M1018 506q0 -232 -157.5 -381.5t-403.5 -149.5q-221 0 -416 121l135 219q119 -75 227 -75q92 0 157 42t91 119h-420v228h412q-28 68 -91 106.5t-149 38.5q-106 0 -227 -76l-135 217q193 123 416 123q246 0 403.5 -149.5t157.5 -382.5z" />
    <glyph glyph-name="afii10096" unicode="&#x44e;" horiz-adv-x="1808" 
d="M106 0v1014h361v-367h182q43 176 190.5 283.5t352.5 107.5q246 0 403.5 -149t157.5 -383q0 -233 -157.5 -382t-403.5 -149q-209 0 -356 109.5t-189 290.5h-180v-375h-361zM991 506q0 -111 56 -181.5t145 -70.5t145 70.5t56 181.5q0 113 -56 183.5t-145 70.5t-145 -70.5
t-56 -183.5z" />
    <glyph glyph-name="afii10097" unicode="&#x44f;" horiz-adv-x="1132" 
d="M1024 1014v-1014h-330v299h-88l-190 -299h-369l242 358q-85 38 -137 118.5t-52 182.5q0 158 108 256.5t281 98.5h535zM694 555v201h-141q-51 0 -82 -27.5t-31 -73.5q0 -44 31 -72t82 -28h141z" />
    <glyph glyph-name="uni0450" unicode="&#x450;" horiz-adv-x="1155" 
d="M55 506q0 235 153 383.5t394 148.5q227 0 370.5 -143.5t143.5 -372.5q0 -56 -6 -108h-694q20 -80 91.5 -127t172.5 -47q123 0 281 82l106 -242q-225 -105 -432 -105q-257 0 -418.5 148.5t-161.5 382.5zM602 774q-70 0 -120.5 -40.5t-65.5 -108.5h354q-9 68 -55 108.5
t-113 40.5zM424 1542l410 -287l-136 -194l-432 256z" />
    <glyph glyph-name="afii10071" unicode="&#x451;" horiz-adv-x="1155" 
d="M55 506q0 235 153 383.5t394 148.5q227 0 370.5 -143.5t143.5 -372.5q0 -56 -6 -108h-694q20 -80 91.5 -127t172.5 -47q123 0 281 82l106 -242q-225 -105 -432 -105q-257 0 -418.5 148.5t-161.5 382.5zM602 774q-70 0 -120.5 -40.5t-65.5 -108.5h354q-9 68 -55 108.5
t-113 40.5zM178 1280q0 82 50 133t132 51t132.5 -51t50.5 -133t-50.5 -132t-132.5 -50t-132 50t-50 132zM662 1280q0 82 50 133t132 51t132 -51t50 -133t-50 -132t-132 -50t-132 50t-50 132z" />
    <glyph glyph-name="afii10099" unicode="&#x452;" 
d="M106 0v1094h-104v241h104v107h361v-107h305v-241h-305v-166q119 110 303 110q180 0 293 -111t113 -288v-731q0 -161 -105.5 -260t-275.5 -99q-123 0 -252 33l45 266q64 -12 119 -12q51 0 79.5 29t28.5 80v635q0 72 -45.5 117.5t-114.5 45.5q-82 0 -135 -52t-53 -134v-557
h-361z" />
    <glyph glyph-name="afii10100" unicode="&#x453;" horiz-adv-x="913" 
d="M106 0v1014h754v-273h-393v-741h-361zM838 1317l-430 -256l-136 194l410 287z" />
    <glyph glyph-name="afii10101" unicode="&#x454;" horiz-adv-x="1073" 
d="M55 506q0 233 158 382.5t405 149.5q219 0 416 -123l-137 -217q-118 76 -227 76q-86 0 -149 -38.5t-91 -106.5h412v-228h-418q25 -77 89.5 -119t156.5 -42q111 0 227 75l137 -219q-198 -121 -416 -121q-247 0 -405 149.5t-158 381.5z" />
    <glyph glyph-name="afii10102" unicode="&#x455;" horiz-adv-x="974" 
d="M63 711q0 141 119 234t305 93q187 0 400 -73l-76 -256q-170 65 -295 65q-47 0 -73.5 -17t-26.5 -46q0 -24 28 -39t72 -24t98 -19t108 -31.5t98 -53.5t72 -92t28 -141q0 -147 -121 -241.5t-312 -94.5q-205 0 -432 82l76 256q177 -73 326 -73q52 0 80 19t28 52
q0 22 -21.5 37.5t-57 23.5t-80.5 18.5t-92 21.5t-92 34.5t-80.5 55t-57 85.5t-21.5 124z" />
    <glyph glyph-name="afii10103" unicode="&#x456;" horiz-adv-x="575" 
d="M106 0v1014h361v-1014h-361zM82 1280q0 91 58 149t147 58q91 0 149 -58t58 -149q0 -89 -58 -147t-149 -58q-89 0 -147 58t-58 147z" />
    <glyph glyph-name="afii10104" unicode="&#x457;" horiz-adv-x="575" 
d="M106 0v1014h361v-1014h-361zM-137 1280q0 82 50 133t132 51t132 -51t50 -133t-50 -132t-132 -50t-132 50t-50 132zM346 1280q0 82 50 133t132 51t132.5 -51t50.5 -133t-50.5 -132t-132.5 -50t-132 50t-50 132z" />
    <glyph glyph-name="afii10105" unicode="&#x458;" horiz-adv-x="591" 
d="M483 1014v-1106q0 -161 -104.5 -260t-274.5 -99q-122 0 -254 33l46 266q68 -12 118 -12q51 0 80 29t29 80v1069h360zM98 1280q0 91 58 149t147 58q91 0 149 -58t58 -149q0 -89 -58 -147t-149 -58q-89 0 -147 58t-58 147z" />
    <glyph glyph-name="afii10106" unicode="&#x459;" horiz-adv-x="1777" 
d="M829 0v741h-260v-374q0 -175 -109 -283.5t-284 -108.5q-86 0 -158 13l31 280q40 -6 68 -6q50 0 78 35t28 98v619h938v-324h201q166 0 271.5 -96.5t105.5 -247.5q0 -152 -105.5 -249t-269.5 -97h-535zM1161 432v-172h146q41 0 67.5 24t26.5 62q0 37 -26.5 61.5t-67.5 24.5
h-146z" />
    <glyph glyph-name="afii10107" unicode="&#x45a;" horiz-adv-x="1744" 
d="M106 0v1014h347v-355h344v355h331v-355h218q158 0 259 -92t101 -237t-101 -237.5t-259 -92.5h-549v403h-344v-403h-347zM1128 416v-170h148q42 0 67 23.5t25 60.5q0 39 -25 62.5t-69 23.5h-146z" />
    <glyph glyph-name="afii10108" unicode="&#x45b;" 
d="M106 0v1094h-104v241h104v107h361v-107h305v-241h-305v-168q121 112 303 112q180 0 293 -111t113 -286v-641h-361v582q0 70 -45.5 115.5t-114.5 45.5q-83 0 -135.5 -55.5t-52.5 -144.5v-543h-361z" />
    <glyph glyph-name="afii10109" unicode="&#x45c;" horiz-adv-x="1132" 
d="M106 0v1014h347v-361h45l247 361h377l-336 -484l367 -530h-391l-256 383h-53v-383h-347zM930 1317l-430 -256l-135 194l409 287z" />
    <glyph glyph-name="uni045D" unicode="&#x45d;" 
d="M106 0v1014h332v-533l383 533h338v-1014h-332v532l-381 -532h-340zM455 1542l409 -287l-135 -194l-432 256z" />
    <glyph glyph-name="afii10110" unicode="&#x45e;" horiz-adv-x="1134" 
d="M1143 1014l-432 -1092q-144 -373 -457 -373q-80 0 -174 21l45 278q53 -12 92 -12q60 0 100 31.5t68 101.5l18 45l-411 1000h377l198 -608l199 608h377zM201 1440h227q3 -58 41.5 -91.5t97.5 -33.5t98 33.5t42 91.5h227q-6 -170 -108 -268.5t-259 -98.5t-258.5 98.5
t-107.5 268.5z" />
    <glyph glyph-name="afii10193" unicode="&#x45f;" 
d="M106 0v1014h361v-744h332v744h360v-1014h-360v-328h-332v328h-361z" />
    <glyph glyph-name="afii10050" unicode="&#x490;" horiz-adv-x="1112" 
d="M141 0v1376h588v328h346v-614h-559v-1090h-375z" />
    <glyph glyph-name="afii10098" unicode="&#x491;" horiz-adv-x="913" 
d="M106 0v1014h424v327h330v-600h-393v-741h-361z" />
    <glyph glyph-name="uni0492" unicode="&#x492;" horiz-adv-x="1144" 
d="M174 0v512h-139v272h139v592h934v-286h-559v-306h323v-272h-323v-512h-375z" />
    <glyph glyph-name="uni0493" unicode="&#x493;" horiz-adv-x="929" 
d="M123 0v346h-105v258h105v410h754v-273h-394v-137h207v-258h-207v-346h-360z" />
    <glyph glyph-name="uni049A" unicode="&#x49a;" horiz-adv-x="1525" 
d="M141 0v1376h361v-528h104l398 528h405l-496 -653l328 -436h264v-647h-346v360h-131l-407 561h-119v-561h-361z" />
    <glyph glyph-name="uni049B" unicode="&#x49b;" horiz-adv-x="1212" 
d="M106 0v1014h347v-361h45l247 361h377l-331 -477l184 -267h215v-598h-330v328h-98l-252 383h-57v-383h-347z" />
    <glyph glyph-name="uni04A2" unicode="&#x4a2;" horiz-adv-x="1710" 
d="M1325 0h-227v561h-582v-561h-375v1376h375v-528h582v528h375v-1089h196v-647h-344v360z" />
    <glyph glyph-name="uni04A3" unicode="&#x4a3;" horiz-adv-x="1329" 
d="M106 0v1014h361v-367h332v367h360v-744h131v-598h-332v328h-159v375h-332v-375h-361z" />
    <glyph glyph-name="uni04AE" unicode="&#x4ae;" horiz-adv-x="1298" 
d="M461 0v532l-500 844h406l282 -512l283 512h405l-499 -844v-532h-377z" />
    <glyph glyph-name="uni04AF" unicode="&#x4af;" horiz-adv-x="1134" 
d="M387 -426v463l-395 977h377l198 -592l199 592h377l-395 -977v-463h-361z" />
    <glyph glyph-name="uni04B0" unicode="&#x4b0;" horiz-adv-x="1298" 
d="M461 0v412h-262v286h166l-404 678h406l282 -512l283 512h405l-403 -678h166v-286h-262v-412h-377z" />
    <glyph glyph-name="uni04B1" unicode="&#x4b1;" horiz-adv-x="1134" 
d="M387 -426v367h-237v239h182l-340 834h377l198 -592l199 592h377l-340 -834h182v-239h-237v-367h-361z" />
    <glyph glyph-name="uni04BA" unicode="&#x4ba;" horiz-adv-x="1482" 
d="M516 1376v-522q208 37 373 37q223 0 364.5 -136.5t141.5 -351.5v-403h-377v375q0 99 -60.5 161t-156.5 62q-124 0 -285 -29v-569h-375v1376h375z" />
    <glyph glyph-name="uni04BB" unicode="&#x4bb;" 
d="M106 0v1442h361v-516q121 112 303 112q180 0 293 -111t113 -286v-641h-361v582q0 70 -45.5 115.5t-114.5 45.5q-83 0 -135.5 -55.5t-52.5 -144.5v-543h-361z" />
    <glyph glyph-name="uni04D8" unicode="&#x4d8;" horiz-adv-x="1484" 
d="M1427 688q0 -208 -90.5 -371t-253.5 -252.5t-372 -89.5q-299 0 -488.5 191.5t-189.5 497.5q0 64 6 129h1008q-22 150 -136 235.5t-288 85.5q-188 0 -396 -106l-121 256q283 137 562 137q164 0 305 -52t241 -145t156.5 -226t56.5 -290zM711 262q135 0 224 77t112 212h-648
q12 -132 97.5 -210.5t214.5 -78.5z" />
    <glyph glyph-name="afii10846" unicode="&#x4d9;" horiz-adv-x="1155" 
d="M1100 506q0 -234 -153 -382.5t-394 -148.5q-227 0 -370.5 143.5t-143.5 370.5q0 55 6 111h694q-20 80 -91.5 127t-172.5 47q-122 0 -280 -82l-107 240q221 106 432 106q258 0 419 -148.5t161 -383.5zM553 240q70 0 120.5 40.5t65.5 108.5h-354q8 -68 53.5 -108.5
t114.5 -40.5z" />
    <glyph glyph-name="uni04E8" unicode="&#x4e8;" horiz-adv-x="1613" 
d="M57 688q0 155 55.5 287.5t153.5 226t237.5 146.5t303.5 53t304 -53t238.5 -146.5t154 -226t55.5 -287.5t-55.5 -287.5t-154 -226t-238.5 -146.5t-304 -53t-303.5 53t-237.5 146.5t-153.5 226t-55.5 287.5zM807 254q148 0 252 87.5t133 233.5h-770q29 -146 133 -233.5
t252 -87.5zM807 1122q-138 0 -238.5 -78t-136.5 -210h750q-36 132 -136.5 210t-238.5 78z" />
    <glyph glyph-name="uni04E9" unicode="&#x4e9;" 
d="M55 506q0 234 162 383t416 149q255 0 416 -148.5t161 -383.5q0 -234 -161 -382.5t-416 -148.5q-254 0 -416 149t-162 382zM633 223q87 0 150.5 50t86.5 137h-477q25 -87 89 -137t151 -50zM633 788q-82 0 -144.5 -45.5t-87.5 -121.5h465q-28 77 -89.5 122t-143.5 45z" />
    <glyph glyph-name="Wgrave" unicode="&#x1e80;" horiz-adv-x="2105" 
d="M2103 1376l-434 -1376h-364l-252 926l-250 -926h-365l-436 1376h375l252 -925l252 925h346l250 -925l252 925h374zM874 1905l410 -287l-135 -195l-432 256z" />
    <glyph glyph-name="wgrave" unicode="&#x1e81;" horiz-adv-x="1658" 
d="M1651 1014l-328 -1014h-346l-148 606l-147 -606h-346l-328 1014h361l147 -606l148 606h331l148 -606l147 606h361zM651 1542l410 -287l-135 -194l-432 256z" />
    <glyph glyph-name="Wacute" unicode="&#x1e82;" horiz-adv-x="2105" 
d="M2103 1376l-434 -1376h-364l-252 926l-250 -926h-365l-436 1376h375l252 -925l252 925h346l250 -925l252 925h374zM1417 1679l-430 -256l-135 195l410 287z" />
    <glyph glyph-name="wacute" unicode="&#x1e83;" horiz-adv-x="1658" 
d="M1651 1014l-328 -1014h-346l-148 606l-147 -606h-346l-328 1014h361l147 -606l148 606h331l148 -606l147 606h361zM1194 1317l-430 -256l-135 194l409 287z" />
    <glyph glyph-name="Wdieresis" unicode="&#x1e84;" horiz-adv-x="2105" 
d="M2103 1376l-434 -1376h-364l-252 926l-250 -926h-365l-436 1376h375l252 -925l252 925h346l250 -925l252 925h374zM629 1642q0 82 50.5 133.5t131.5 51.5t131.5 -51.5t50.5 -133.5t-50 -132t-132 -50t-132 50t-50 132zM1112 1642q0 82 50.5 133.5t131.5 51.5
q82 0 132.5 -51.5t50.5 -133.5t-50.5 -132t-132.5 -50t-132 50t-50 132z" />
    <glyph glyph-name="wdieresis" unicode="&#x1e85;" horiz-adv-x="1658" 
d="M1651 1014l-328 -1014h-346l-148 606l-147 -606h-346l-328 1014h361l147 -606l148 606h331l148 -606l147 606h361zM406 1280q0 82 50 133t132 51t132 -51t50 -133t-50 -132t-132 -50t-132 50t-50 132zM889 1280q0 82 50 133t132 51t132 -51t50 -133t-50 -132t-132 -50
t-132 50t-50 132z" />
    <glyph glyph-name="uni1E9E" unicode="&#x1e9e;" horiz-adv-x="1613" 
d="M141 0v1376h1352v-211l-231 -311q132 -57 206 -167.5t74 -250.5q0 -203 -148.5 -332t-381.5 -129q-215 0 -422 121l129 273q164 -101 262 -101q86 0 139.5 46.5t53.5 121.5q0 81 -63.5 133t-162.5 52h-47l-53 165l223 304h-569v-1090h-361z" />
    <glyph glyph-name="Ygrave" unicode="&#x1ef2;" horiz-adv-x="1298" 
d="M461 0v532l-500 844h406l282 -512l283 512h405l-499 -844v-532h-377zM471 1905l410 -287l-136 -195l-432 256z" />
    <glyph glyph-name="ygrave" unicode="&#x1ef3;" horiz-adv-x="1134" 
d="M1143 1014l-432 -1092q-144 -373 -457 -373q-80 0 -174 21l45 278q53 -12 92 -12q60 0 100 31.5t68 101.5l18 45l-411 1000h377l198 -608l199 608h377zM389 1542l410 -287l-135 -194l-433 256z" />
    <glyph glyph-name="uni2010" unicode="&#x2010;" horiz-adv-x="655" 
d="M35 383v270h586v-270h-586z" />
    <glyph glyph-name="uni2011" unicode="&#x2011;" horiz-adv-x="655" 
d="M35 383v270h586v-270h-586z" />
    <glyph glyph-name="figuredash" unicode="&#x2012;" horiz-adv-x="1179" 
d="M68 575v226h1044v-226h-1044z" />
    <glyph glyph-name="endash" unicode="&#x2013;" horiz-adv-x="983" 
d="M35 383v270h913v-270h-913z" />
    <glyph glyph-name="emdash" unicode="&#x2014;" horiz-adv-x="1966" 
d="M35 383v270h1896v-270h-1896z" />
    <glyph glyph-name="afii00208" unicode="&#x2015;" horiz-adv-x="1966" 
d="M35 383v270h1896v-270h-1896z" />
    <glyph glyph-name="quoteleft" unicode="&#x2018;" horiz-adv-x="577" 
d="M502 905q0 -91 -60 -152t-153 -61q-95 0 -154 69.5t-59 178.5q0 142 78 268.5t221 214.5l104 -137q-101 -84 -147 -182q77 -12 123.5 -66.5t46.5 -132.5z" />
    <glyph glyph-name="quoteright" unicode="&#x2019;" horiz-adv-x="577" 
d="M76 1194q0 93 60 153t153 60q95 0 155 -68.5t60 -177.5q0 -142 -79 -269.5t-220 -213.5l-107 137q105 88 148 182q-76 10 -123 65t-47 132z" />
    <glyph glyph-name="quotesinglbase" unicode="&#x201a;" horiz-adv-x="512" 
d="M76 188q0 93 60 153t153 60q95 0 155 -68t60 -177q0 -142 -79 -270t-220 -214l-107 138q105 88 148 182q-76 10 -123 64.5t-47 131.5z" />
    <glyph glyph-name="quotedblleft" unicode="&#x201c;" horiz-adv-x="1083" 
d="M502 905q0 -91 -60 -152t-153 -61q-95 0 -154 69.5t-59 178.5q0 142 78 268.5t221 214.5l104 -137q-101 -84 -147 -182q77 -12 123.5 -66.5t46.5 -132.5zM1010 905q0 -91 -60 -152t-153 -61q-95 0 -154 69.5t-59 178.5q0 142 78 268.5t221 214.5l104 -137
q-101 -84 -147 -182q77 -12 123.5 -66.5t46.5 -132.5z" />
    <glyph glyph-name="quotedblright" unicode="&#x201d;" horiz-adv-x="1083" 
d="M76 1194q0 93 60 153t153 60q95 0 155 -68.5t60 -177.5q0 -142 -79 -269.5t-220 -213.5l-107 137q105 88 148 182q-76 10 -123 65t-47 132zM582 1194q0 93 60 153t153 60q95 0 155 -68.5t60 -177.5q0 -142 -79 -269.5t-220 -213.5l-107 137q105 88 148 182
q-76 10 -123 65t-47 132z" />
    <glyph glyph-name="quotedblbase" unicode="&#x201e;" horiz-adv-x="1083" 
d="M76 188q0 93 60 153t153 60q95 0 155 -68t60 -177q0 -142 -79 -270t-220 -214l-107 138q105 88 148 182q-76 10 -123 64.5t-47 131.5zM582 188q0 93 60 153t153 60q95 0 155 -68t60 -177q0 -142 -79 -270t-220 -214l-107 138q105 88 148 182q-76 10 -123 64.5t-47 131.5z
" />
    <glyph glyph-name="dagger" unicode="&#x2020;" horiz-adv-x="1042" 
d="M385 0v788h-317v271h317v317h272v-317h318v-271h-318v-788h-272z" />
    <glyph glyph-name="daggerdbl" unicode="&#x2021;" horiz-adv-x="1042" 
d="M385 0v317h-317v271h317v200h-317v271h317v317h272v-317h318v-271h-318v-200h318v-271h-318v-317h-272z" />
    <glyph glyph-name="bullet" unicode="&#x2022;" horiz-adv-x="983" 
d="M197 590q0 123 86 209t209 86t208.5 -86t85.5 -209t-85.5 -209t-208.5 -86t-209 86t-86 209z" />
    <glyph glyph-name="ellipsis" unicode="&#x2026;" horiz-adv-x="1966" 
d="M115 188q0 93 60 153t153 60t153 -60t60 -153q0 -92 -60.5 -152.5t-152.5 -60.5t-152.5 60.5t-60.5 152.5zM770 188q0 93 60 153t153 60t153 -60t60 -153q0 -92 -60.5 -152.5t-152.5 -60.5t-152.5 60.5t-60.5 152.5zM1425 188q0 93 60 153t153 60t153 -60t60 -153
q0 -92 -60.5 -152.5t-152.5 -60.5t-152.5 60.5t-60.5 152.5z" />
    <glyph glyph-name="perthousand" unicode="&#x2030;" horiz-adv-x="2613" 
d="M1786 344q0 161 108 265t277 104q168 0 277.5 -104t109.5 -265t-109.5 -265t-277.5 -104q-169 0 -277 104t-108 265zM2050 344q0 -73 33.5 -118.5t87.5 -45.5q55 0 89 45t34 119t-34 119t-89 45q-54 0 -87.5 -45.5t-33.5 -118.5zM942 344q0 161 109 265t278 104
q167 0 276 -104t109 -265t-109 -265t-276 -104q-169 0 -278 104t-109 265zM1206 344q0 -74 34 -119t89 -45q54 0 87.5 45.5t33.5 118.5t-33.5 118.5t-87.5 45.5q-55 0 -89 -45t-34 -119zM55 1032q0 161 108 265t277 104q168 0 277.5 -104t109.5 -265t-109.5 -264.5
t-277.5 -103.5q-169 0 -277 103.5t-108 264.5zM319 1032q0 -73 33.5 -118.5t87.5 -45.5q55 0 89 45t34 119t-34 119t-89 45q-54 0 -87.5 -45.5t-33.5 -118.5zM279 68l1032 1376l180 -135l-1032 -1377z" />
    <glyph glyph-name="guilsinglleft" unicode="&#x2039;" horiz-adv-x="708" 
d="M51 442v152l408 459l211 -166l-273 -369l273 -366l-211 -166z" />
    <glyph glyph-name="guilsinglright" unicode="&#x203a;" horiz-adv-x="708" 
d="M657 594v-152l-407 -456l-211 166l274 366l-274 369l211 166z" />
    <glyph glyph-name="fraction" unicode="&#x2044;" horiz-adv-x="393" 
d="M-410 68l1033 1376l180 -135l-1032 -1377z" />
    <glyph glyph-name="zero.sup" unicode="&#x2070;" horiz-adv-x="903" 
d="M68 1212q0 205 103.5 323t281.5 118q175 0 280 -118.5t105 -322.5q0 -203 -105.5 -321.5t-279.5 -118.5q-176 0 -280.5 118t-104.5 322zM330 1212q0 -241 123 -241q120 0 120 241q0 242 -120 242q-123 0 -123 -242z" />
    <glyph glyph-name="four.sup" unicode="&#x2074;" horiz-adv-x="794" 
d="M432 786v158h-385v180l367 514h248v-510h86v-184h-86v-158h-230zM266 1128h166v236z" />
    <glyph glyph-name="five.sup" unicode="&#x2075;" horiz-adv-x="710" 
d="M625 1638v-196h-310v-109h45q128 0 210.5 -75t82.5 -199q0 -125 -95.5 -207t-242.5 -82q-152 0 -288 84l94 178q93 -57 170 -57q48 0 77 23.5t29 64.5q0 45 -34.5 70.5t-94.5 25.5q-88 0 -182 -20v499h539z" />
    <glyph glyph-name="six.sup" unicode="&#x2076;" horiz-adv-x="815" 
d="M68 1186q0 212 109.5 340.5t289.5 128.5q124 0 258 -64l-84 -178q-85 45 -160 45q-72 0 -116.5 -36t-55.5 -101q73 43 162 43q124 0 205.5 -78.5t81.5 -202.5q0 -138 -94.5 -225.5t-241.5 -87.5q-165 0 -259.5 111t-94.5 305zM311 1073q0 -47 30.5 -76.5t76.5 -29.5
q47 0 77.5 29t30.5 75q0 44 -30 73.5t-76 29.5q-49 0 -79 -27.5t-30 -73.5z" />
    <glyph glyph-name="seven.sup" unicode="&#x2077;" horiz-adv-x="675" 
d="M78 786l278 648h-338v204h617v-161l-289 -691h-268z" />
    <glyph glyph-name="eight.sup" unicode="&#x2078;" horiz-adv-x="815" 
d="M408 1300q43 10 68.5 35t25.5 56q0 36 -26 57.5t-68 21.5t-68.5 -22t-26.5 -57q0 -31 26 -55.5t69 -35.5zM57 1028q0 132 138 195q-117 59 -117 184q0 110 91 179t239 69q147 0 238 -68.5t91 -179.5q0 -133 -108 -184q61 -27 95 -77.5t34 -117.5q0 -116 -97.5 -187
t-254.5 -71q-156 0 -252.5 71t-96.5 187zM408 1145q-47 -11 -78 -37.5t-31 -60.5q0 -43 31 -69t78 -26t77.5 26t30.5 69q0 34 -30.5 60.5t-77.5 37.5z" />
    <glyph glyph-name="nine.sup" unicode="&#x2079;" horiz-adv-x="815" 
d="M748 1239q0 -212 -110 -340.5t-290 -128.5q-124 0 -258 64l84 178q85 -45 160 -45q72 0 116.5 36t55.5 101q-73 -43 -162 -43q-124 0 -205.5 78.5t-81.5 201.5q0 138 94.5 226t241.5 88q166 0 260.5 -111t94.5 -305zM504 1352q0 47 -30.5 76.5t-76.5 29.5
q-47 0 -77.5 -29t-30.5 -75q0 -44 30 -73.5t76 -29.5q49 0 79 27.5t30 73.5z" />
    <glyph glyph-name="plus.sup" unicode="&#x207a;" horiz-adv-x="770" 
d="M61 1106v213h218v217h213v-217h217v-213h-217v-217h-213v217h-218z" />
    <glyph glyph-name="minus.sup" unicode="&#x207b;" horiz-adv-x="770" 
d="M61 1106v213h648v-213h-648z" />
    <glyph glyph-name="equal.sup" unicode="&#x207c;" horiz-adv-x="770" 
d="M61 1282v211h648v-211h-648zM61 932v211h648v-211h-648z" />
    <glyph glyph-name="parenleft.sup" unicode="&#x207d;" horiz-adv-x="509" 
d="M313 1812l183 -116q-179 -208 -179 -484q0 -275 179 -483l-183 -117q-115 122 -174 276t-59 324t59 324t174 276z" />
    <glyph glyph-name="parenright.sup" unicode="&#x207e;" horiz-adv-x="509" 
d="M197 612l-183 117q179 208 179 483q0 276 -179 484l183 116q115 -122 174 -276t59 -324t-59 -324t-174 -276z" />
    <glyph glyph-name="zero.sub" unicode="&#x2080;" horiz-adv-x="903" 
d="M68 164q0 205 103.5 322.5t281.5 117.5q175 0 280 -118t105 -322q0 -203 -105.5 -321.5t-279.5 -118.5q-176 0 -280.5 118t-104.5 322zM330 164q0 -242 123 -242q120 0 120 242t-120 242q-123 0 -123 -242z" />
    <glyph glyph-name="one.sub" unicode="&#x2081;" horiz-adv-x="591" 
d="M485 590v-852h-258v602l-153 -84l-90 170l288 164h213z" />
    <glyph glyph-name="two.sub" unicode="&#x2082;" horiz-adv-x="710" 
d="M39 -262v162l256 258q82 82 82 135q0 43 -26 68.5t-70 25.5q-68 0 -168 -63l-97 190q164 92 318 92q133 0 216 -76.5t83 -195.5q0 -138 -121 -256l-135 -135h266v-205h-604z" />
    <glyph glyph-name="three.sub" unicode="&#x2083;" horiz-adv-x="710" 
d="M193 88v172h81q45 0 73 22t28 54q0 31 -21 50.5t-57 19.5q-81 0 -191 -50l-79 183q162 67 319 67q127 0 208 -67.5t81 -173.5q0 -64 -27 -112t-78 -73q56 -25 90.5 -81t34.5 -126q0 -110 -87 -181t-222 -71q-176 0 -340 74l80 180q116 -53 205 -53q43 0 70.5 21.5
t27.5 56.5q0 38 -32 63t-83 25h-81z" />
    <glyph glyph-name="four.sub" unicode="&#x2084;" horiz-adv-x="794" 
d="M432 -262v158h-385v180l367 514h248v-510h86v-184h-86v-158h-230zM266 80h166v235z" />
    <glyph glyph-name="five.sub" unicode="&#x2085;" horiz-adv-x="710" 
d="M625 590v-197h-310v-108h45q128 0 210.5 -75.5t82.5 -199.5q0 -125 -95.5 -207t-242.5 -82q-152 0 -288 84l94 179q94 -58 170 -58q48 0 77 23.5t29 64.5q0 46 -34.5 71.5t-94.5 25.5q-83 0 -182 -21v500h539z" />
    <glyph glyph-name="six.sub" unicode="&#x2086;" horiz-adv-x="815" 
d="M68 137q0 212 109.5 340.5t289.5 128.5q126 0 258 -63l-84 -178q-85 45 -160 45q-71 0 -116 -36.5t-56 -101.5q73 43 162 43q124 0 205.5 -78.5t81.5 -201.5q0 -138 -94.5 -226t-241.5 -88q-165 0 -259.5 111t-94.5 305zM311 25q0 -47 30.5 -77t76.5 -30q47 0 77.5 29.5
t30.5 75.5q0 44 -30 73t-76 29q-50 0 -79.5 -27t-29.5 -73z" />
    <glyph glyph-name="seven.sub" unicode="&#x2087;" horiz-adv-x="675" 
d="M78 -262l278 647h-338v205h617v-162l-289 -690h-268z" />
    <glyph glyph-name="eight.sub" unicode="&#x2088;" horiz-adv-x="815" 
d="M408 252q43 11 68.5 35t25.5 55q0 36 -26 58t-68 22q-41 0 -68 -22.5t-27 -57.5q0 -31 26 -55t69 -35zM57 -20q0 131 138 194q-117 58 -117 184q0 110 91 179t239 69q147 0 238 -68.5t91 -179.5q0 -133 -108 -184q61 -27 95 -77t34 -117q0 -117 -97.5 -188t-254.5 -71
q-156 0 -252.5 71t-96.5 188zM408 96q-47 -11 -78 -37.5t-31 -60.5q0 -43 31 -68.5t78 -25.5t77.5 25.5t30.5 68.5q0 34 -30.5 60.5t-77.5 37.5z" />
    <glyph glyph-name="nine.sub" unicode="&#x2089;" horiz-adv-x="815" 
d="M748 190q0 -212 -110 -340.5t-290 -128.5q-124 0 -258 64l84 178q85 -45 160 -45q72 0 116.5 36t55.5 101q-73 -43 -162 -43q-124 0 -205.5 78.5t-81.5 202.5q0 138 94.5 225.5t241.5 87.5q166 0 260.5 -111t94.5 -305zM504 303q0 47 -30.5 77t-76.5 30
q-47 0 -77.5 -29.5t-30.5 -75.5q0 -44 30 -73t76 -29q50 0 79.5 27t29.5 73z" />
    <glyph glyph-name="plus.sub" unicode="&#x208a;" horiz-adv-x="770" 
d="M61 57v213h218v217h213v-217h217v-213h-217v-217h-213v217h-218z" />
    <glyph glyph-name="minus.sub" unicode="&#x208b;" horiz-adv-x="770" 
d="M61 57v213h648v-213h-648z" />
    <glyph glyph-name="equal.sub" unicode="&#x208c;" horiz-adv-x="770" 
d="M61 233v211h648v-211h-648zM61 -117v211h648v-211h-648z" />
    <glyph glyph-name="parenleft.sub" unicode="&#x208d;" horiz-adv-x="509" 
d="M313 764l183 -117q-179 -208 -179 -483t179 -483l-183 -117q-115 122 -174 276t-59 324t59 324t174 276z" />
    <glyph glyph-name="parenright.sub" unicode="&#x208e;" horiz-adv-x="509" 
d="M197 -436l-183 117q179 208 179 483t-179 483l183 117q115 -122 174 -276t59 -324t-59 -324t-174 -276z" />
    <glyph glyph-name="Euro" unicode="&#x20ac;" horiz-adv-x="1179" 
d="M51 451v213h107q-2 8 -2 24q0 39 2 57h-107v213h148q68 208 223 325.5t364 117.5q220 0 402 -105l-127 -241q-112 67 -230 67q-88 0 -159.5 -45t-104.5 -119h391v-213h-454q-2 -18 -2 -57v-24h456v-213h-407q34 -91 108 -144t172 -53q116 0 230 68l127 -242
q-182 -105 -402 -105q-215 0 -374.5 126.5t-225.5 349.5h-135z" />
    <glyph glyph-name="afii61248" unicode="&#x2105;" horiz-adv-x="1763" 
d="M264 68l1032 1376l183 -135l-1033 -1377zM928 336q0 154 110 252t283 98t283 -98t110 -252q0 -155 -110 -253.5t-283 -98.5t-283 98.5t-110 253.5zM1198 336q0 -66 34.5 -107t88.5 -41t88.5 41t34.5 107q0 65 -34.5 106t-88.5 41t-88.5 -41t-34.5 -106zM49 1040
q0 155 108.5 254t274.5 99q133 0 279 -84l-107 -174q-79 51 -139 51q-64 0 -106 -41.5t-42 -104.5t41.5 -103t106.5 -40t139 51l107 -174q-141 -84 -279 -84q-166 0 -274.5 98.5t-108.5 251.5z" />
    <glyph glyph-name="litre" unicode="&#x2113;" horiz-adv-x="870" 
d="M834 1112q0 -169 -100 -330.5t-296 -298.5v-121q0 -45 30 -72.5t79 -27.5q33 0 133 17l45 -271q-121 -33 -238 -33q-165 0 -273 101t-108 258v756q0 170 106.5 273t272.5 103q152 0 250.5 -100t98.5 -254zM563 1065q0 51 -16.5 82t-46.5 31q-28 0 -45 -30t-17 -77v-272
q125 128 125 266z" />
    <glyph glyph-name="numero" unicode="&#x2116;" horiz-adv-x="2500" 
d="M141 0v1376h361l626 -866v866h345v-1376h-361l-625 866v-866h-346zM1683 418v182h748v-182h-748zM1665 1057q0 154 109.5 252t281.5 98q173 0 283 -98t110 -252q0 -155 -110 -253.5t-283 -98.5q-172 0 -281.5 98.5t-109.5 253.5zM1935 1057q0 -66 33.5 -107t87.5 -41
q55 0 89 41t34 107q0 65 -34 106t-89 41q-54 0 -87.5 -41t-33.5 -106z" />
    <glyph glyph-name="uni2117" unicode="&#x2117;" horiz-adv-x="1703" 
d="M98 688q0 218 96 390t268 268t390 96t390 -96t268 -268t96 -390t-96 -390t-268 -268t-390 -96t-390 96t-268 268t-96 390zM281 688q0 -252 159.5 -411.5t411.5 -159.5t411.5 159.5t159.5 411.5t-159.5 412t-411.5 160t-411.5 -160t-159.5 -412zM532 262v852h392
q146 0 237.5 -84.5t91.5 -218.5q0 -132 -91.5 -216.5t-237.5 -84.5h-142v-248h-250zM782 911v-200h109q49 0 79.5 28t30.5 72q0 46 -30 73t-80 27h-109z" />
    <glyph glyph-name="uni2120" unicode="&#x2120;" horiz-adv-x="1959" 
d="M899 524v852h262l221 -311l222 311h260v-852h-246v490l-160 -232h-151l-166 232v-490h-242zM61 1124q0 120 93.5 194.5t246.5 74.5q156 0 324 -64l-66 -196q-130 49 -237 49q-44 0 -69 -15.5t-25 -42.5q0 -21 23.5 -34t60.5 -20.5t82 -16.5t90 -27t82 -45.5t60.5 -78
t23.5 -118.5q0 -124 -95.5 -200t-253.5 -76q-173 0 -348 72l66 196q150 -59 262 -59q50 0 76 18t26 49q0 22 -23.5 36.5t-60.5 23t-82 18t-90 27t-82 44.5t-60.5 76t-23.5 115z" />
    <glyph glyph-name="trademark" unicode="&#x2122;" horiz-adv-x="1972" 
d="M270 524v647h-231v205h735v-205h-231v-647h-273zM911 524v852h260l222 -311l221 311h260v-852h-246v490l-160 -232h-151l-166 232v-490h-240z" />
    <glyph glyph-name="uni2126" unicode="&#x2126;" horiz-adv-x="1662" 
d="M72 0v287h247q-200 194 -200 465q0 188 90 336t252.5 230.5t369.5 82.5q206 0 368.5 -82.5t252.5 -230.5t90 -336q0 -273 -201 -465h250v-287h-671v242q247 203 247 481q0 172 -91 278.5t-245 106.5t-245.5 -106.5t-91.5 -278.5q0 -277 249 -481v-242h-671z" />
    <glyph glyph-name="estimated" unicode="&#x212e;" horiz-adv-x="1966" 
d="M983 33q147 0 276.5 60.5t221.5 168.5h135q-110 -136 -276 -215.5t-357 -79.5q-160 0 -305.5 57.5t-250.5 154t-167.5 230t-62.5 279.5t62.5 279.5t167.5 230t250.5 154t305.5 57.5t305.5 -57.5t250.5 -154t167.5 -230t62.5 -279.5q0 -23 -2 -33h-1275v-401
q91 -104 218 -162.5t273 -58.5zM492 1122v-401h983v401q-93 103 -221 162t-271 59q-145 0 -272.5 -59t-218.5 -162z" />
    <glyph glyph-name="onethird" unicode="&#x2153;" horiz-adv-x="1966" 
d="M582 1376v-852h-258v602l-154 -84l-90 170l289 164h213zM377 68l1032 1376l180 -135l-1032 -1377zM1409 350v172h82q45 0 72.5 22t27.5 54q0 31 -21 50.5t-57 19.5q-80 0 -190 -50l-80 183q162 67 320 67q127 0 207.5 -67.5t80.5 -173.5q0 -64 -27 -112.5t-77 -72.5
q56 -25 90.5 -80.5t34.5 -125.5q0 -110 -87 -181t-222 -71q-178 0 -340 73l80 181q118 -54 204 -54q43 0 71 21.5t28 56.5q0 38 -32 63t-83 25h-82z" />
    <glyph glyph-name="twothirds" unicode="&#x2154;" horiz-adv-x="1966" 
d="M76 524v162l256 258q82 82 82 135q0 43 -26.5 69t-70.5 26q-65 0 -167 -64l-97 190q166 93 318 93q133 0 216 -77t83 -196q0 -138 -121 -256l-135 -135h266v-205h-604zM377 68l1032 1376l180 -135l-1032 -1377zM1409 350v172h82q45 0 72.5 22t27.5 54q0 31 -21 50.5
t-57 19.5q-80 0 -190 -50l-80 183q162 67 320 67q127 0 207.5 -67.5t80.5 -173.5q0 -64 -27 -112.5t-77 -72.5q56 -25 90.5 -80.5t34.5 -125.5q0 -110 -87 -181t-222 -71q-178 0 -340 73l80 181q118 -54 204 -54q43 0 71 21.5t28 56.5q0 38 -32 63t-83 25h-82z" />
    <glyph glyph-name="uni2155" unicode="&#x2155;" horiz-adv-x="1966" 
d="M582 1376v-852h-258v602l-154 -84l-90 170l289 164h213zM377 68l1032 1376l180 -135l-1032 -1377zM1841 852v-197h-309v-108h45q128 0 210.5 -75.5t82.5 -199.5q0 -125 -95.5 -206.5t-242.5 -81.5q-153 0 -289 84l94 178q94 -58 170 -58q48 0 77.5 23.5t29.5 64.5
q0 46 -34.5 71.5t-94.5 25.5q-83 0 -182 -21v500h538z" />
    <glyph glyph-name="uni2156" unicode="&#x2156;" horiz-adv-x="1966" 
d="M76 524v162l256 258q82 82 82 135q0 43 -26.5 69t-70.5 26q-65 0 -167 -64l-97 190q166 93 318 93q133 0 216 -77t83 -196q0 -138 -121 -256l-135 -135h266v-205h-604zM377 68l1032 1376l180 -135l-1032 -1377zM1841 852v-197h-309v-108h45q128 0 210.5 -75.5
t82.5 -199.5q0 -125 -95.5 -206.5t-242.5 -81.5q-153 0 -289 84l94 178q94 -58 170 -58q48 0 77.5 23.5t29.5 64.5q0 46 -34.5 71.5t-94.5 25.5q-83 0 -182 -21v500h538z" />
    <glyph glyph-name="uni2157" unicode="&#x2157;" horiz-adv-x="1966" 
d="M229 874v173h82q45 0 73 21.5t28 53.5q0 31 -21 50.5t-57 19.5q-84 0 -191 -49l-80 182q165 68 320 68q127 0 208 -68t81 -174q0 -63 -27 -111t-78 -73q56 -25 90.5 -81t34.5 -126q0 -110 -87 -181t-222 -71q-176 0 -340 74l80 180q116 -53 205 -53q43 0 70.5 21t27.5 56
q0 38 -32 63t-83 25h-82zM377 68l1032 1376l180 -135l-1032 -1377zM1841 852v-197h-309v-108h45q128 0 210.5 -75.5t82.5 -199.5q0 -125 -95.5 -206.5t-242.5 -81.5q-153 0 -289 84l94 178q94 -58 170 -58q48 0 77.5 23.5t29.5 64.5q0 46 -34.5 71.5t-94.5 25.5
q-83 0 -182 -21v500h538z" />
    <glyph glyph-name="uni2158" unicode="&#x2158;" horiz-adv-x="1966" 
d="M428 524v158h-385v180l367 514h247v-510h86v-184h-86v-158h-229zM262 866h166v236zM377 68l1032 1376l180 -135l-1032 -1377zM1841 852v-197h-309v-108h45q128 0 210.5 -75.5t82.5 -199.5q0 -125 -95.5 -206.5t-242.5 -81.5q-153 0 -289 84l94 178q94 -58 170 -58
q48 0 77.5 23.5t29.5 64.5q0 46 -34.5 71.5t-94.5 25.5q-83 0 -182 -21v500h538z" />
    <glyph glyph-name="uni2159" unicode="&#x2159;" horiz-adv-x="1966" 
d="M582 1376v-852h-258v602l-154 -84l-90 170l289 164h213zM377 68l1032 1376l180 -135l-1032 -1377zM1233 399q0 212 109.5 340.5t289.5 128.5q126 0 258 -63l-84 -178q-85 45 -159 45q-72 0 -116.5 -36t-55.5 -101q73 43 161 43q124 0 205.5 -78.5t81.5 -202.5
q0 -138 -94.5 -225.5t-241.5 -87.5q-166 0 -260 110.5t-94 304.5zM1477 287q0 -47 30 -77t76 -30q47 0 78 29.5t31 75.5q0 44 -30.5 73t-76.5 29q-49 0 -78.5 -27t-29.5 -73z" />
    <glyph glyph-name="uni215A" unicode="&#x215a;" horiz-adv-x="1966" 
d="M662 1376v-196h-310v-109h45q128 0 210.5 -75t82.5 -199q0 -125 -95.5 -207t-242.5 -82q-153 0 -289 84l95 178q93 -57 170 -57q48 0 77 23.5t29 64.5q0 45 -34.5 70.5t-94.5 25.5q-88 0 -182 -20v499h539zM377 68l1032 1376l180 -135l-1032 -1377zM1233 399
q0 212 109.5 340.5t289.5 128.5q126 0 258 -63l-84 -178q-85 45 -159 45q-72 0 -116.5 -36t-55.5 -101q73 43 161 43q124 0 205.5 -78.5t81.5 -202.5q0 -138 -94.5 -225.5t-241.5 -87.5q-166 0 -260 110.5t-94 304.5zM1477 287q0 -47 30 -77t76 -30q47 0 78 29.5t31 75.5
q0 44 -30.5 73t-76.5 29q-49 0 -78.5 -27t-29.5 -73z" />
    <glyph glyph-name="oneeighth" unicode="&#x215b;" horiz-adv-x="1966" 
d="M582 1376v-852h-258v602l-154 -84l-90 170l289 164h213zM377 68l1032 1376l180 -135l-1032 -1377zM1573 514q43 11 68.5 35t25.5 55q0 36 -26 58t-68 22q-41 0 -67.5 -22.5t-26.5 -57.5q0 -31 25.5 -55t68.5 -35zM1223 242q0 132 137 194q-117 58 -117 185
q0 110 91 178.5t239 68.5t239 -68.5t91 -178.5q0 -64 -28 -112t-81 -73q61 -27 95 -77t34 -117q0 -116 -97.5 -187t-254.5 -71q-156 0 -252 70.5t-96 187.5zM1573 358q-47 -11 -78 -37.5t-31 -60.5q0 -43 31 -68.5t78 -25.5t77.5 25.5t30.5 68.5q0 34 -30.5 60.5t-77.5 37.5
z" />
    <glyph glyph-name="threeeighths" unicode="&#x215c;" horiz-adv-x="1966" 
d="M229 874v173h82q45 0 73 21.5t28 53.5q0 31 -21 50.5t-57 19.5q-84 0 -191 -49l-80 182q165 68 320 68q127 0 208 -68t81 -174q0 -63 -27 -111t-78 -73q56 -25 90.5 -81t34.5 -126q0 -110 -87 -181t-222 -71q-176 0 -340 74l80 180q116 -53 205 -53q43 0 70.5 21t27.5 56
q0 38 -32 63t-83 25h-82zM377 68l1032 1376l180 -135l-1032 -1377zM1573 514q43 11 68.5 35t25.5 55q0 36 -26 58t-68 22q-41 0 -67.5 -22.5t-26.5 -57.5q0 -31 25.5 -55t68.5 -35zM1223 242q0 132 137 194q-117 58 -117 185q0 110 91 178.5t239 68.5t239 -68.5t91 -178.5
q0 -64 -28 -112t-81 -73q61 -27 95 -77t34 -117q0 -116 -97.5 -187t-254.5 -71q-156 0 -252 70.5t-96 187.5zM1573 358q-47 -11 -78 -37.5t-31 -60.5q0 -43 31 -68.5t78 -25.5t77.5 25.5t30.5 68.5q0 34 -30.5 60.5t-77.5 37.5z" />
    <glyph glyph-name="fiveeighths" unicode="&#x215d;" horiz-adv-x="1966" 
d="M662 1376v-196h-310v-109h45q128 0 210.5 -75t82.5 -199q0 -125 -95.5 -207t-242.5 -82q-153 0 -289 84l95 178q93 -57 170 -57q48 0 77 23.5t29 64.5q0 45 -34.5 70.5t-94.5 25.5q-88 0 -182 -20v499h539zM377 68l1032 1376l180 -135l-1032 -1377zM1573 514
q43 11 68.5 35t25.5 55q0 36 -26 58t-68 22q-41 0 -67.5 -22.5t-26.5 -57.5q0 -31 25.5 -55t68.5 -35zM1223 242q0 132 137 194q-117 58 -117 185q0 110 91 178.5t239 68.5t239 -68.5t91 -178.5q0 -64 -28 -112t-81 -73q61 -27 95 -77t34 -117q0 -116 -97.5 -187t-254.5 -71
q-156 0 -252 70.5t-96 187.5zM1573 358q-47 -11 -78 -37.5t-31 -60.5q0 -43 31 -68.5t78 -25.5t77.5 25.5t30.5 68.5q0 34 -30.5 60.5t-77.5 37.5z" />
    <glyph glyph-name="seveneighths" unicode="&#x215e;" horiz-adv-x="1966" 
d="M133 524l279 647h-338v205h616v-162l-289 -690h-268zM377 68l1032 1376l180 -135l-1032 -1377zM1573 514q43 11 68.5 35t25.5 55q0 36 -26 58t-68 22q-41 0 -67.5 -22.5t-26.5 -57.5q0 -31 25.5 -55t68.5 -35zM1223 242q0 132 137 194q-117 58 -117 185q0 110 91 178.5
t239 68.5t239 -68.5t91 -178.5q0 -64 -28 -112t-81 -73q61 -27 95 -77t34 -117q0 -116 -97.5 -187t-254.5 -71q-156 0 -252 70.5t-96 187.5zM1573 358q-47 -11 -78 -37.5t-31 -60.5q0 -43 31 -68.5t78 -25.5t77.5 25.5t30.5 68.5q0 34 -30.5 60.5t-77.5 37.5z" />
    <glyph glyph-name="uni215F" unicode="&#x215f;" horiz-adv-x="1179" 
d="M582 1376v-852h-258v602l-154 -84l-90 170l289 164h213zM377 68l1032 1376l180 -135l-1032 -1377z" />
    <glyph glyph-name="arrowleft" unicode="&#x2190;" horiz-adv-x="1966" 
d="M1901 424h-1219l336 -320l-240 -227l-712 713l712 713l240 -228l-336 -319h1219v-332z" />
    <glyph glyph-name="arrowup" unicode="&#x2191;" horiz-adv-x="1966" 
d="M817 -328v1219l-319 -336l-228 240l713 712l713 -712l-228 -240l-319 336v-1219h-332z" />
    <glyph glyph-name="arrowright" unicode="&#x2192;" horiz-adv-x="1966" 
d="M66 756h1218l-336 319l240 228l713 -713l-713 -713l-240 227l336 320h-1218v332z" />
    <glyph glyph-name="arrowdown" unicode="&#x2193;" horiz-adv-x="1966" 
d="M1149 1507v-1218l319 336l228 -240l-713 -713l-713 713l228 240l319 -336v1218h332z" />
    <glyph glyph-name="uni2196" unicode="&#x2196;" horiz-adv-x="1966" 
d="M1516 -176l-863 862l13 -465l-332 10v1008h1007l11 -332l-465 13l862 -863z" />
    <glyph glyph-name="uni2197" unicode="&#x2197;" horiz-adv-x="1966" 
d="M217 57l862 863l-465 -13l11 332h1007v-1008l-332 -10l13 465l-862 -862z" />
    <glyph glyph-name="uni2198" unicode="&#x2198;" horiz-adv-x="1966" 
d="M451 1356l862 -862l-13 464l332 -10v-1007h-1007l-11 331l465 -12l-862 862z" />
    <glyph glyph-name="uni2199" unicode="&#x2199;" horiz-adv-x="1966" 
d="M1749 1122l-862 -862l465 12l-11 -331h-1007v1007l332 10l-13 -464l863 862z" />
    <glyph glyph-name="partialdiff" unicode="&#x2202;" 
d="M55 539q0 212 136 355.5t337 143.5q168 0 297 -92q-13 115 -87.5 178.5t-182.5 63.5q-112 0 -266 -74l-121 256q196 96 416 96q285 0 447.5 -200.5t162.5 -554.5q0 -342 -161 -539t-431 -197q-243 0 -395 156.5t-152 407.5zM401 516q0 -110 60.5 -179t154.5 -69
q91 0 154.5 73.5t63.5 180.5q0 98 -61 159.5t-157 61.5q-94 0 -154.5 -63t-60.5 -164z" />
    <glyph glyph-name="uni2206" unicode="&#x2206;" horiz-adv-x="1417" 
d="M39 0v211l498 1165h346l497 -1165v-211h-1341zM709 969l-281 -682h561z" />
    <glyph glyph-name="product" unicode="&#x220f;" horiz-adv-x="1662" 
d="M141 -426v1868h1381v-1868h-377v1581h-629v-1581h-375z" />
    <glyph glyph-name="summation" unicode="&#x2211;" horiz-adv-x="1308" 
d="M41 -426v219l586 731l-553 699v219h1179v-287h-692l426 -547v-168l-459 -579h758v-287h-1245z" />
    <glyph glyph-name="minus" unicode="&#x2212;" horiz-adv-x="1179" 
d="M72 440v299h1036v-299h-1036z" />
    <glyph glyph-name="uni2215" unicode="&#x2215;" horiz-adv-x="393" 
d="M-410 68l1033 1376l180 -135l-1032 -1377z" />
    <glyph glyph-name="radical" unicode="&#x221a;" horiz-adv-x="1429" 
d="M1423 1411l-497 -1837h-367l-197 563l-282 -96l-94 281l573 190l172 -516l399 1491z" />
    <glyph glyph-name="infinity" unicode="&#x221e;" horiz-adv-x="1662" 
d="M39 590q0 194 116 318t300 124q118 0 205.5 -46.5t170.5 -154.5q83 108 170.5 154.5t206.5 46.5q183 0 299.5 -123.5t116.5 -318.5q0 -193 -117 -318t-299 -125q-119 0 -206.5 46.5t-170.5 154.5q-83 -108 -170.5 -154.5t-205.5 -46.5q-184 0 -300 124t-116 319zM369 590
q0 -73 38.5 -118.5t98.5 -45.5q54 0 94 39.5t80 124.5q-40 85 -80 124.5t-94 39.5q-60 0 -98.5 -46t-38.5 -118zM1292 590q0 74 -38 119t-99 45q-53 0 -94 -40t-80 -124q39 -84 80 -124t94 -40q61 0 99 46t38 118z" />
    <glyph glyph-name="integral" unicode="&#x222b;" horiz-adv-x="876" 
d="M477 1030q0 -67 30 -165.5t72.5 -203.5t84.5 -213.5t72 -225t30 -208.5q0 -204 -122 -334.5t-314 -130.5q-112 0 -221 33l61 279q52 -19 98 -19q57 0 93 40.5t36 103.5q0 67 -29.5 165.5t-71.5 203t-84 213t-71.5 225t-29.5 208.5q0 205 121.5 335t314.5 130
q112 0 221 -32l-61 -279q-52 19 -101 19q-56 0 -92.5 -40.5t-36.5 -103.5z" />
    <glyph glyph-name="approxequal" unicode="&#x2248;" horiz-adv-x="1179" 
d="M170 150l-158 256q169 126 350 126q65 0 130 -15.5t109 -33.5t103 -33.5t113 -15.5q51 0 95.5 19.5t97.5 64.5l157 -256q-174 -129 -350 -129q-66 0 -131 15.5t-109 33.5t-102.5 33.5t-112.5 15.5q-51 0 -95.5 -18.5t-96.5 -62.5zM170 662l-158 256q174 129 350 129
q65 0 130 -15.5t109 -34t103 -34t113 -15.5q96 0 193 82l157 -256q-171 -127 -350 -127q-66 0 -131 15.5t-109 33.5t-102.5 33.5t-112.5 15.5q-94 0 -192 -83z" />
    <glyph glyph-name="notequal" unicode="&#x2260;" horiz-adv-x="1179" 
d="M72 680v301h544l129 260l273 -131l-66 -129h156v-301h-305l-90 -180h395v-301h-547l-127 -256l-272 131l63 125h-153v301h303l92 180h-395z" />
    <glyph glyph-name="lessequal" unicode="&#x2264;" horiz-adv-x="1179" 
d="M72 0v301h1036v-301h-1036zM72 745v302l946 426l121 -285l-662 -291l662 -291l-121 -287z" />
    <glyph glyph-name="greaterequal" unicode="&#x2265;" horiz-adv-x="1179" 
d="M1108 1047v-302l-946 -426l-121 287l661 291l-661 291l121 285zM72 0v301h1036v-301h-1036z" />
    <glyph glyph-name="uni22C5" unicode="&#x22c5;" horiz-adv-x="577" 
d="M76 518q0 93 60 153t153 60t153 -60t60 -153q0 -92 -60.5 -152.5t-152.5 -60.5t-152.5 60.5t-60.5 152.5z" />
    <glyph glyph-name="lozenge" unicode="&#x25ca;" horiz-adv-x="1179" 
d="M440 0l-428 688l428 688h299l428 -688l-428 -688h-299zM590 1044l-217 -356l217 -358l217 358z" />
    <glyph glyph-name="zero.lprop" unicode="&#xe010;" horiz-adv-x="1370" 
d="M90 688q0 329 161.5 521t434.5 192q271 0 432.5 -192t161.5 -521t-161.5 -521t-432.5 -192q-273 0 -434.5 192t-161.5 521zM457 688q0 -211 58.5 -322.5t170.5 -111.5q110 0 168.5 111.5t58.5 322.5t-58.5 322.5t-168.5 111.5q-112 0 -170.5 -111.5t-58.5 -322.5z" />
    <glyph glyph-name="one.lprop" unicode="&#xe011;" horiz-adv-x="876" 
d="M358 0v1030l-276 -156l-121 242l457 260h301v-1376h-361z" />
    <glyph glyph-name="two.lprop" unicode="&#xe012;" horiz-adv-x="1079" 
d="M35 0v225l442 443q144 144 144 252q0 79 -53 129.5t-136 50.5q-48 0 -100 -16.5t-87.5 -35t-101.5 -57.5l-135 264q259 146 498 146q207 0 337 -120.5t130 -309.5q0 -221 -203 -424l-260 -260h479v-287h-954z" />
    <glyph glyph-name="three.lprop" unicode="&#xe013;" horiz-adv-x="1079" 
d="M301 575v259h109q90 0 146 41t56 106q0 60 -41 96.5t-110 36.5q-142 0 -324 -82l-112 264q241 105 495 105q200 0 326.5 -106.5t126.5 -276.5q0 -105 -51 -185.5t-140 -119.5q98 -37 161 -130t63 -208q0 -178 -136.5 -289t-349.5 -111q-280 0 -528 113l112 264
q188 -90 351 -90q79 0 130.5 41.5t51.5 108.5q0 73 -62.5 118t-164.5 45h-109z" />
    <glyph glyph-name="four.lprop" unicode="&#xe014;" horiz-adv-x="1206" 
d="M668 0v270h-617v242l600 864h346v-833h156v-273h-156v-270h-329zM383 543h285v411z" />
    <glyph glyph-name="five.lprop" unicode="&#xe015;" horiz-adv-x="1079" 
d="M958 1376v-286h-522v-224q27 2 84 2q221 0 354.5 -119.5t133.5 -318.5q0 -197 -150 -326t-383 -129q-242 0 -452 129l137 265q153 -101 286 -101q96 0 152.5 45t56.5 123q0 88 -66.5 136.5t-187.5 48.5q-131 0 -280 -33v788h837z" />
    <glyph glyph-name="six.lprop" unicode="&#xe016;" horiz-adv-x="1239" 
d="M90 635q0 361 168 563.5t461 202.5q217 0 399 -96l-121 -256q-143 73 -264 73q-130 0 -212.5 -78.5t-92.5 -218.5q126 95 285 95q201 0 328.5 -126.5t127.5 -324.5q0 -217 -145 -355.5t-371 -138.5q-264 0 -413.5 175.5t-149.5 484.5zM444 467q0 -93 55 -153t140 -60
q86 0 142.5 57.5t56.5 143.5q0 85 -54 138.5t-139 53.5q-88 0 -144.5 -50.5t-56.5 -129.5z" />
    <glyph glyph-name="seven.lprop" unicode="&#xe017;" horiz-adv-x="1009" 
d="M111 0l471 1090h-576v286h967v-225l-486 -1151h-376z" />
    <glyph glyph-name="eight.lprop" unicode="&#xe018;" horiz-adv-x="1239" 
d="M621 834q81 22 124 58.5t43 96.5q0 62 -47 101.5t-120 39.5t-120.5 -39.5t-47.5 -101.5q0 -110 168 -155zM74 381q0 107 59.5 192t167.5 132q-90 45 -142.5 126t-52.5 181q0 175 142 282t373 107q230 0 372 -107t142 -282q0 -100 -52.5 -181t-142.5 -126
q108 -50 167.5 -134t59.5 -190q0 -183 -150 -294.5t-396 -111.5t-396.5 111.5t-150.5 294.5zM621 575q-187 -51 -187 -172q0 -70 52.5 -113.5t134.5 -43.5t134 43.5t52 113.5q0 121 -186 172z" />
    <glyph glyph-name="nine.lprop" unicode="&#xe019;" horiz-adv-x="1239" 
d="M1151 741q0 -361 -168 -563.5t-461 -202.5q-215 0 -399 97l121 256q145 -74 264 -74q130 0 212.5 78.5t92.5 218.5q-124 -94 -285 -94q-201 0 -328.5 126t-127.5 324q0 217 145 355.5t371 138.5q264 0 413.5 -175.5t149.5 -484.5zM797 909q0 93 -55 153t-140 60
q-86 0 -142.5 -57t-56.5 -143q0 -85 54 -139t139 -54q88 0 144.5 50.5t56.5 129.5z" />
    <glyph glyph-name="dollar.lprop" unicode="&#xe01a;" horiz-adv-x="1089" 
d="M395 -262v346q-173 19 -340 84l84 278q216 -86 375 -86q152 0 152 95q0 30 -33.5 49.5t-86.5 31.5t-117.5 25t-128.5 38.5t-117 63t-86.5 106t-33.5 161.5q0 133 90.5 228t241.5 128v352h299v-346q140 -20 299 -80l-84 -278q-195 82 -334 82q-69 0 -106 -23t-37 -63
q0 -25 26 -42t68 -26t96.5 -21t110.5 -25t110.5 -41.5t96.5 -66.5t68 -103.5t26 -149.5q0 -138 -92 -235t-248 -130v-352h-299z" />
    <glyph glyph-name="cent.lprop" unicode="&#xe01b;" horiz-adv-x="1140" 
d="M104 688q0 186 104 322t279 184v313h299v-299q155 -21 297 -110l-143 -242q-126 78 -219 78q-109 0 -178.5 -68.5t-69.5 -177.5t69.5 -177.5t178.5 -68.5q93 0 219 78l143 -241q-142 -89 -297 -113v-297h-299v313q-175 48 -279 184t-104 322z" />
    <glyph glyph-name="Euro.lprop" unicode="&#xe01c;" horiz-adv-x="1177" 
d="M49 451v213h107q-2 8 -2 24q0 39 2 57h-107v213h148q68 208 223 325.5t364 117.5q220 0 402 -105l-127 -241q-112 67 -230 67q-88 0 -159.5 -45t-104.5 -119h391v-213h-454q-2 -18 -2 -57v-24h456v-213h-407q34 -91 108 -144t172 -53q116 0 230 68l127 -242
q-182 -105 -402 -105q-215 0 -374.5 126.5t-225.5 349.5h-135z" />
    <glyph glyph-name="sterling.lprop" unicode="&#xe01d;" horiz-adv-x="1177" 
d="M102 0v279h170v290h-137v271h137v121q0 193 136 316.5t344 123.5q156 0 366 -72l-90 -264q-108 43 -203 43q-78 0 -128 -49.5t-50 -126.5v-92h322v-271h-322v-290h459v-279h-1004z" />
    <glyph glyph-name="yen.lprop" unicode="&#xe01e;" 
d="M444 0v213h-264v242h264v84h-264v239h174l-360 598h391l248 -477l248 477h391l-361 -598h174v-239h-264v-84h264v-242h-264v-213h-377z" />
    <glyph glyph-name="zero.otab" unicode="&#xe020;" horiz-adv-x="1179" 
d="M41 539q0 247 153.5 406t395.5 159t395.5 -159t153.5 -406t-153.5 -405.5t-395.5 -158.5t-395.5 158.5t-153.5 405.5zM373 539q0 -123 60 -200t157 -77t157 77t60 200t-60 200.5t-157 77.5t-157 -77.5t-60 -200.5z" />
    <glyph glyph-name="one.otab" unicode="&#xe021;" horiz-adv-x="1179" 
d="M854 1079v-1079h-360v731l-197 -106l-135 239l391 215h301z" />
    <glyph glyph-name="two.otab" unicode="&#xe022;" horiz-adv-x="1179" 
d="M152 0v225l374 293q105 81 105 168q0 53 -36.5 88t-94.5 35q-88 0 -240 -84l-135 256q220 123 448 123q187 0 302.5 -105.5t115.5 -275.5q0 -89 -43.5 -175t-128.5 -153l-155 -125h344v-270h-856z" />
    <glyph glyph-name="three.otab" unicode="&#xe023;" horiz-adv-x="1179" 
d="M336 281v256h108q90 0 146.5 41t56.5 106q0 59 -41.5 96t-109.5 37q-135 0 -324 -82l-113 262q239 107 496 107q200 0 326.5 -107t126.5 -276q0 -105 -51 -185.5t-140 -119.5q99 -37 161 -129.5t62 -208.5q0 -176 -136 -286.5t-349 -110.5q-282 0 -528 112l112 264
q188 -90 350 -90q79 0 131 41.5t52 106.5q0 74 -63.5 120t-164.5 46h-108z" />
    <glyph glyph-name="four.otab" unicode="&#xe024;" horiz-adv-x="1179" 
d="M653 -295v295h-616v225l600 854h346v-809h156v-270h-156v-295h-330zM369 270h284v416z" />
    <glyph glyph-name="five.otab" unicode="&#xe025;" horiz-adv-x="1179" 
d="M1026 1079v-286h-522v-224q54 4 84 4q221 0 354 -120t133 -320q0 -196 -150 -324t-382 -128q-243 0 -453 129l137 264q160 -101 287 -101q96 0 152.5 45t56.5 123q0 87 -66.5 135t-187.5 48q-132 0 -281 -33v788h838z" />
    <glyph glyph-name="six.otab" unicode="&#xe026;" horiz-adv-x="1179" 
d="M59 633q0 361 168 563.5t461 202.5q217 0 399 -96l-120 -256q-143 73 -265 73q-129 0 -212 -78t-93 -217q123 93 285 93q201 0 329 -125.5t128 -323.5q0 -217 -145 -355.5t-371 -138.5q-264 0 -414 175t-150 483zM414 465q0 -92 54.5 -151.5t139.5 -59.5q86 0 142.5 56.5
t56.5 144.5q0 85 -54 138.5t-139 53.5q-88 0 -144 -50.5t-56 -131.5z" />
    <glyph glyph-name="seven.otab" unicode="&#xe027;" horiz-adv-x="1179" 
d="M197 -295l469 1088h-560v286h951v-227l-486 -1147h-374z" />
    <glyph glyph-name="eight.otab" unicode="&#xe028;" horiz-adv-x="1179" 
d="M590 831q168 45 168 156q0 61 -47 100t-121 39t-121 -39t-47 -100q0 -111 168 -156zM43 379q0 107 60 192t167 131q-90 45 -142 126.5t-52 181.5q0 175 142 282t372 107t372 -107t142 -282q0 -100 -52.5 -181.5t-142.5 -126.5q108 -48 168 -132t60 -191
q0 -182 -150.5 -293t-396.5 -111t-396.5 111t-150.5 293zM590 575q-187 -51 -187 -174q0 -69 52.5 -112t134.5 -43t134 43t52 112q0 123 -186 174z" />
    <glyph glyph-name="nine.otab" unicode="&#xe029;" horiz-adv-x="1179" 
d="M1120 444q0 -359 -167.5 -561t-460.5 -202q-218 0 -400 96l121 256q145 -74 264 -74q130 0 212.5 77.5t92.5 217.5q-118 -92 -284 -92q-201 0 -329 125t-128 321q0 217 145 356.5t371 139.5q264 0 413.5 -175.5t149.5 -484.5zM766 612q0 93 -55 153t-140 60
q-86 0 -142 -57t-56 -143q0 -85 53.5 -139t138.5 -54q88 0 144.5 50.5t56.5 129.5z" />
    <glyph glyph-name="dollar.otab" unicode="&#xe02a;" horiz-adv-x="1179" 
d="M440 -328v314q-166 20 -299 75l76 263q204 -78 342 -78q60 0 93.5 22t33.5 60q0 28 -29.5 46.5t-77 29.5t-104.5 22t-114 33t-104.5 55t-77 94t-29.5 144q0 121 77.5 209t212.5 122v324h299v-317q119 -17 258 -68l-75 -264q-169 73 -301 73q-55 0 -87 -22.5t-32 -56.5
q0 -24 23 -40t60.5 -24t86 -18.5t98.5 -21.5t98.5 -36t86 -58.5t60.5 -91.5t23 -134q0 -128 -80 -216.5t-219 -119.5v-320h-299z" />
    <glyph glyph-name="cent.otab" unicode="&#xe02b;" horiz-adv-x="1179" 
d="M123 539q0 186 104 321.5t279 183.5v314h299v-299q153 -21 297 -111l-144 -241q-125 77 -219 77q-109 0 -178 -68t-69 -177t69 -177.5t178 -68.5q93 0 219 78l144 -242q-142 -89 -297 -113v-297h-299v314q-175 48 -279 184t-104 322z" />
    <glyph glyph-name="Euro.otab" unicode="&#xe02c;" horiz-adv-x="1179" 
d="M117 328v180h90q-2 10 -2 31q0 31 2 47h-90v182h131q59 155 193.5 245.5t312.5 90.5q188 0 354 -90l-121 -205q-88 53 -182 53q-115 0 -189 -94h310v-182h-387q-2 -16 -2 -47v-31h389v-180h-324q71 -111 203 -111q97 0 182 51l121 -202q-168 -91 -354 -91
q-183 0 -319.5 95t-192.5 258h-125z" />
    <glyph glyph-name="sterling.otab" unicode="&#xe02d;" horiz-adv-x="1179" 
d="M162 0v256h145v174h-121v242h121v73q0 158 117 259.5t299 101.5q149 0 326 -57l-76 -240q-115 33 -176 33q-57 0 -93 -35.5t-36 -91.5v-43h270v-242h-270v-174h374v-256h-880z" />
    <glyph glyph-name="yen.otab" unicode="&#xe02e;" horiz-adv-x="1179" 
d="M410 0v113h-238v213h238v75h-238v213h147l-303 465h392l182 -344l182 344h391l-303 -465h148v-213h-238v-75h238v-213h-238v-113h-360z" />
    <glyph glyph-name="zero.oprop" unicode="&#xe030;" horiz-adv-x="1302" 
d="M74 539q0 248 160.5 406.5t416.5 158.5q255 0 416.5 -159t161.5 -406t-161.5 -405.5t-416.5 -158.5q-257 0 -417 158.5t-160 405.5zM426 539q0 -123 62 -200t163 -77q100 0 163 77t63 200t-63 200.5t-163 77.5q-101 0 -163 -77.5t-62 -200.5z" />
    <glyph glyph-name="one.oprop" unicode="&#xe031;" horiz-adv-x="872" 
d="M700 1079v-1079h-360v731l-197 -106l-135 239l391 215h301z" />
    <glyph glyph-name="two.oprop" unicode="&#xe032;" horiz-adv-x="1013" 
d="M68 0v225l374 293q105 81 105 168q0 53 -36.5 88t-94.5 35q-88 0 -240 -84l-135 256q221 123 448 123q187 0 302.5 -105.5t115.5 -275.5q0 -89 -43.5 -175t-128.5 -153l-155 -125h344v-270h-856z" />
    <glyph glyph-name="three.oprop" unicode="&#xe033;" horiz-adv-x="1046" 
d="M268 281v256h109q90 0 146.5 41t56.5 106q0 59 -42 96t-110 37q-135 0 -324 -82l-112 262q239 107 495 107q200 0 326.5 -107t126.5 -276q0 -105 -51 -185.5t-139 -119.5q99 -37 161 -129.5t62 -208.5q0 -176 -136.5 -286.5t-349.5 -110.5q-282 0 -528 112l113 264
q188 -90 350 -90q79 0 130.5 41.5t51.5 106.5q0 74 -63 120t-164 46h-109z" />
    <glyph glyph-name="four.oprop" unicode="&#xe034;" horiz-adv-x="1173" 
d="M651 -295v295h-616v225l600 854h346v-809h156v-270h-156v-295h-330zM367 270h284v416z" />
    <glyph glyph-name="five.oprop" unicode="&#xe035;" horiz-adv-x="1079" 
d="M975 1079v-286h-522v-224q54 4 84 4q221 0 354 -120t133 -320q0 -196 -150 -324t-382 -128q-243 0 -453 129l137 264q160 -101 287 -101q96 0 152.5 45t56.5 123q0 87 -66.5 135t-187.5 48q-132 0 -281 -33v788h838z" />
    <glyph glyph-name="six.oprop" unicode="&#xe036;" horiz-adv-x="1239" 
d="M90 633q0 361 168 563.5t461 202.5q217 0 399 -96l-121 -256q-143 73 -264 73q-129 0 -212 -78t-93 -217q123 93 285 93q201 0 328.5 -125.5t127.5 -323.5q0 -217 -145 -355.5t-371 -138.5q-264 0 -413.5 175t-149.5 483zM444 465q0 -92 55 -151.5t140 -59.5
q86 0 142.5 56.5t56.5 144.5q0 85 -54 138.5t-139 53.5q-88 0 -144.5 -50.5t-56.5 -131.5z" />
    <glyph glyph-name="seven.oprop" unicode="&#xe037;" horiz-adv-x="1009" 
d="M113 -295l469 1088h-559v286h950v-227l-486 -1147h-374z" />
    <glyph glyph-name="eight.oprop" unicode="&#xe038;" horiz-adv-x="1239" 
d="M621 831q167 45 167 156q0 61 -46.5 100t-120.5 39t-121 -39t-47 -100q0 -111 168 -156zM74 379q0 107 60 192t167 131q-90 45 -142.5 126.5t-52.5 181.5q0 175 142 282t373 107q230 0 372 -107t142 -282q0 -100 -52.5 -181.5t-142.5 -126.5q108 -47 167.5 -131.5
t59.5 -191.5q0 -182 -150 -293t-396 -111t-396.5 111t-150.5 293zM621 575q-187 -51 -187 -174q0 -69 52.5 -112t134.5 -43t134 43t52 112q0 123 -186 174z" />
    <glyph glyph-name="nine.oprop" unicode="&#xe039;" horiz-adv-x="1239" 
d="M1151 444q0 -359 -168 -561t-461 -202q-217 0 -399 96l121 256q145 -74 264 -74q130 0 212.5 77.5t92.5 217.5q-118 -92 -285 -92q-201 0 -328.5 124.5t-127.5 321.5q0 217 145 356.5t371 139.5q264 0 413.5 -175.5t149.5 -484.5zM797 612q0 93 -55 153t-140 60
q-86 0 -142.5 -57t-56.5 -143q0 -85 54 -139t139 -54q88 0 144.5 50.5t56.5 129.5z" />
    <glyph glyph-name="dollar.oprop" unicode="&#xe03a;" horiz-adv-x="1040" 
d="M371 -328v314q-166 20 -299 75l75 263q204 -78 342 -78q60 0 93.5 22t33.5 60q0 28 -29.5 46.5t-77 29.5t-104.5 22t-114 33t-104.5 55t-77 94t-29.5 144q0 121 78 209t213 122v324h299v-317q119 -17 258 -68l-76 -264q-169 73 -301 73q-55 0 -87 -22.5t-32 -56.5
q0 -24 23 -40t61 -24t86 -18.5t98.5 -21.5t98.5 -36t86 -58.5t61 -91.5t23 -134q0 -128 -80 -216.5t-219 -119.5v-320h-299z" />
    <glyph glyph-name="cent.oprop" unicode="&#xe03b;" horiz-adv-x="1075" 
d="M72 539q0 186 104 321.5t279 183.5v314h299v-299q153 -21 297 -111l-144 -241q-125 77 -219 77q-109 0 -178.5 -68.5t-69.5 -176.5q0 -109 69.5 -177.5t178.5 -68.5q93 0 219 78l144 -242q-142 -89 -297 -113v-297h-299v314q-175 48 -279 184t-104 322z" />
    <glyph glyph-name="Euro.oprop" unicode="&#xe03c;" horiz-adv-x="1079" 
d="M66 328v180h90q-2 10 -2 31q0 31 2 47h-90v182h131q59 155 193 245.5t312 90.5q189 0 355 -90l-121 -205q-88 53 -182 53q-115 0 -189 -94h309v-182h-387q-2 -16 -2 -47v-31h389v-180h-323q71 -111 203 -111q97 0 182 51l121 -202q-168 -91 -355 -91q-183 0 -319.5 95
t-192.5 258h-124z" />
    <glyph glyph-name="sterling.oprop" unicode="&#xe03d;" horiz-adv-x="1009" 
d="M78 0v256h145v174h-121v242h121v73q0 158 117 259.5t299 101.5q149 0 326 -57l-76 -240q-115 33 -176 33q-57 0 -93 -35.5t-36 -91.5v-43h270v-242h-270v-174h374v-256h-880z" />
    <glyph glyph-name="yen.oprop" unicode="&#xe03e;" horiz-adv-x="1073" 
d="M356 0v113h-237v213h237v75h-237v213h147l-303 465h391l183 -344l182 344h391l-303 -465h147v-213h-237v-75h237v-213h-237v-113h-361z" />
    <glyph glyph-name="zero.num" unicode="&#xe040;" horiz-adv-x="903" 
d="M68 950q0 205 103.5 323t281.5 118q175 0 280 -118.5t105 -322.5q0 -203 -105.5 -321.5t-279.5 -118.5q-176 0 -280.5 118t-104.5 322zM330 950q0 -241 123 -241q120 0 120 241q0 242 -120 242q-123 0 -123 -242z" />
    <glyph glyph-name="one.num" unicode="&#xe041;" horiz-adv-x="591" 
d="M485 1376v-852h-258v602l-153 -84l-90 170l288 164h213z" />
    <glyph glyph-name="two.num" unicode="&#xe042;" horiz-adv-x="710" 
d="M39 524v162l256 258q82 82 82 135q0 43 -26 69t-70 26q-66 0 -168 -64l-97 190q166 93 318 93q133 0 216 -77t83 -196q0 -138 -121 -256l-135 -135h266v-205h-604z" />
    <glyph glyph-name="three.num" unicode="&#xe043;" horiz-adv-x="710" 
d="M193 874v173h81q45 0 73 21.5t28 53.5q0 31 -21 50.5t-57 19.5q-84 0 -191 -49l-79 182q165 68 319 68q127 0 208 -68t81 -174q0 -63 -27 -111t-78 -73q56 -25 90.5 -81t34.5 -126q0 -110 -87 -181t-222 -71q-176 0 -340 74l80 180q116 -53 205 -53q43 0 70.5 21t27.5 56
q0 38 -32 63t-83 25h-81z" />
    <glyph glyph-name="four.num" unicode="&#xe044;" horiz-adv-x="794" 
d="M432 524v158h-385v180l367 514h248v-510h86v-184h-86v-158h-230zM266 866h166v236z" />
    <glyph glyph-name="five.num" unicode="&#xe045;" horiz-adv-x="710" 
d="M625 1376v-196h-310v-109h45q128 0 210.5 -75t82.5 -199q0 -125 -95.5 -207t-242.5 -82q-152 0 -288 84l94 178q93 -57 170 -57q48 0 77 23.5t29 64.5q0 45 -34.5 70.5t-94.5 25.5q-88 0 -182 -20v499h539z" />
    <glyph glyph-name="six.num" unicode="&#xe046;" horiz-adv-x="815" 
d="M68 924q0 212 109.5 340.5t289.5 128.5q124 0 258 -64l-84 -178q-85 45 -160 45q-72 0 -116.5 -36t-55.5 -101q73 43 162 43q124 0 205.5 -78.5t81.5 -202.5q0 -138 -94.5 -225.5t-241.5 -87.5q-165 0 -259.5 111t-94.5 305zM311 811q0 -47 30.5 -76.5t76.5 -29.5
q47 0 77.5 29t30.5 75q0 44 -30 73t-76 29q-50 0 -79.5 -27t-29.5 -73z" />
    <glyph glyph-name="seven.num" unicode="&#xe047;" horiz-adv-x="675" 
d="M78 524l278 647h-338v205h617v-162l-289 -690h-268z" />
    <glyph glyph-name="eight.num" unicode="&#xe048;" horiz-adv-x="815" 
d="M408 1038q43 11 68.5 35t25.5 55q0 36 -26 58t-68 22q-41 0 -68 -22.5t-27 -57.5q0 -31 26 -55t69 -35zM57 766q0 132 138 195q-117 59 -117 184q0 110 91 179t239 69q147 0 238 -68.5t91 -179.5q0 -133 -108 -184q61 -27 95 -77.5t34 -117.5q0 -116 -97.5 -187
t-254.5 -71q-156 0 -252.5 71t-96.5 187zM408 883q-47 -11 -78 -38t-31 -61q0 -43 31 -68.5t78 -25.5t77.5 25.5t30.5 68.5q0 34 -30.5 61t-77.5 38z" />
    <glyph glyph-name="nine.num" unicode="&#xe049;" horiz-adv-x="815" 
d="M748 977q0 -212 -110 -340.5t-290 -128.5q-126 0 -258 63l84 179q85 -45 160 -45q72 0 116.5 36t55.5 101q-73 -43 -162 -43q-124 0 -205.5 78.5t-81.5 201.5q0 138 94.5 226t241.5 88q166 0 260.5 -111t94.5 -305zM504 1090q0 47 -30.5 76.5t-76.5 29.5q-47 0 -77.5 -29
t-30.5 -75q0 -44 30 -73.5t76 -29.5q49 0 79 27.5t30 73.5z" />
    <glyph glyph-name="plus.num" unicode="&#xe04a;" horiz-adv-x="770" 
d="M61 844v213h218v217h213v-217h217v-213h-217v-217h-213v217h-218z" />
    <glyph glyph-name="minus.num" unicode="&#xe04b;" horiz-adv-x="770" 
d="M61 844v213h648v-213h-648z" />
    </font>
</defs>
</svg>
