<?xml version="1.0" standalone="no"?>
<!DOCTYPE svg PUBLIC "-//W3C//DTD SVG 1.1//EN" "http://www.w3.org/Graphics/SVG/1.1/DTD/svg11.dtd" >
<svg xmlns="http://www.w3.org/2000/svg" xmlns:xlink="http://www.w3.org/1999/xlink" version="1.1">
<metadata>
Created by FontForge 20170731 at Thu Aug  6 08:49:48 2020
 By Aleksey,,,
Copyright (c) 2012 by Fontsmith Ltd. All rights reserved.
</metadata>
<defs>
<font id="FSElliotPro-Light" horiz-adv-x="1171" >
  <font-face 
    font-family="FS Elliot Pro Light"
    font-weight="300"
    font-stretch="normal"
    units-per-em="2048"
    panose-1="2 0 5 3 4 0 0 2 0 4"
    ascent="1536"
    descent="-512"
    x-height="989"
    cap-height="1376"
    bbox="-348 -551 2437 2064"
    underline-thickness="102"
    underline-position="-307"
    unicode-range="U+000D-FB04"
  />
<missing-glyph horiz-adv-x="1024" 
d="M25 0v1376h974v-1376h-974zM180 1278l332 -500l332 500h-664zM123 1188v-1000l332 500zM901 1188l-332 -500l332 -500v1000zM844 98l-332 500l-332 -500h664z" />
    <glyph glyph-name="f_b" unicode="fb" horiz-adv-x="1849" 
d="M276 0v909h-217v80h217v166q0 139 93.5 225t240.5 86q114 0 346 -36v-625q51 100 141.5 154.5t207.5 54.5q194 0 318 -146t124 -374q0 -227 -124 -373t-318 -146q-118 0 -210 55.5t-145 157.5l-12 -188h-80v1360q-141 24 -242 24q-108 0 -174.5 -63.5t-66.5 -167.5v-164
h305v-80h-305v-909h-99zM1647 494q0 192 -101.5 315t-259.5 123q-146 0 -239 -98t-93 -250v-178q0 -153 93 -251t239 -98q158 0 259.5 123t101.5 314z" />
    <glyph glyph-name="f_f_b" unicode="ffb" horiz-adv-x="2463" 
d="M276 0v909h-217v80h217v209q0 118 76.5 193t196.5 75q94 0 182 -26l-16 -80q-73 22 -148 22q-86 0 -139 -51.5t-53 -138.5v-203h516v166q0 139 93 225t241 86q115 0 344 -36v-625q80 141 223 184q71 24 152 21q150 -7 257.5 -109.5t141.5 -267.5q17 -73 14 -166
q-6 -215 -129 -353.5t-309 -138.5q-118 0 -210.5 55.5t-145.5 157.5l-13 -188h-80v1360q-137 24 -239 24q-108 0 -175 -63.5t-67 -167.5v-164h303v-80h-303v-909h-98v909h-516v-909h-99zM2261 494q0 192 -101.5 315t-258.5 123q-147 0 -239.5 -97.5t-92.5 -250.5v-178
q0 -153 92.5 -251t239.5 -98q157 0 258.5 123.5t101.5 313.5z" />
    <glyph glyph-name="f_h" unicode="fh" horiz-adv-x="1849" 
d="M276 0v909h-217v80h217v166q0 139 93.5 225t240.5 86q114 0 346 -36v-642q47 106 144 166t219 60q160 0 264.5 -101.5t104.5 -259.5v-653h-99v641q0 127 -83 208t-212 81q-146 0 -242 -101.5t-96 -261.5v-567h-98v1360q-141 24 -242 24q-108 0 -174.5 -63.5t-66.5 -167.5
v-164h305v-80h-305v-909h-99z" />
    <glyph glyph-name="f_f_h" unicode="ffh" horiz-adv-x="2463" 
d="M276 0v909h-217v80h217v209q0 118 76.5 193t196.5 75q94 0 182 -26l-16 -80q-73 22 -148 22q-86 0 -139 -51.5t-53 -138.5v-203h516v166q0 139 93 225t241 86q115 0 344 -36v-642q50 106 145.5 166t216.5 60q161 0 265 -101.5t104 -259.5v-653h-96v641q0 127 -83.5 208
t-211.5 81q-147 0 -243.5 -101.5t-96.5 -261.5v-567h-99v1360q-137 24 -239 24q-108 0 -175 -63.5t-67 -167.5v-164h303v-80h-303v-909h-98v909h-516v-909h-99z" />
    <glyph glyph-name="f_j" unicode="fj" horiz-adv-x="1134" 
d="M276 0v909h-217v80h217v166q0 136 94.5 223.5t237.5 87.5q131 0 285 -51l-21 -78q-149 47 -254 47t-174 -65t-69 -166v-164h581v-1171q0 -119 -76 -194t-196 -75q-90 0 -182 27l16 80q76 -23 148 -23q85 0 138.5 53t53.5 138v1085h-483v-909h-99z" />
    <glyph glyph-name="f_f_j" unicode="ffj" horiz-adv-x="1748" 
d="M276 0v909h-217v80h217v209q0 118 76.5 193t196.5 75q94 0 182 -26l-16 -80q-73 22 -148 22q-85 0 -138.5 -52.5t-53.5 -137.5v-203h516v166q0 136 93.5 223.5t236.5 87.5q132 0 286 -51l-22 -78q-146 47 -252 47t-175 -65t-69 -166v-164h580v-1171q0 -118 -76.5 -193.5
t-196.5 -75.5q-88 0 -180 27l14 80q76 -23 150 -23q85 0 137.5 53t52.5 138v1085h-481v-909h-98v909h-516v-909h-99z" />
    <glyph glyph-name="f_k" unicode="fk" horiz-adv-x="1691" 
d="M276 0v909h-217v80h217v166q0 139 93.5 225t240.5 86q143 0 342 -36v-975l533 534h119l-459 -463l475 -526h-119l-422 467l-127 -125v-342h-94v1360q-141 24 -242 24q-108 0 -174.5 -63.5t-66.5 -167.5v-164h305v-80h-305v-909h-99z" />
    <glyph glyph-name="f_f_k" unicode="ffk" horiz-adv-x="2306" 
d="M276 0v909h-217v80h217v209q0 118 76.5 193t196.5 75q94 0 182 -26l-16 -80q-73 22 -148 22q-85 0 -138.5 -52.5t-53.5 -137.5v-203h516v166q0 139 93 225t241 86q143 0 342 -36v-975l532 534h119l-461 -463l477 -526h-118l-422 467l-127 -125v-342h-97v1360
q-137 24 -239 24q-108 0 -175 -63.5t-67 -167.5v-164h303v-80h-303v-909h-98v909h-516v-909h-99z" />
    <glyph glyph-name="f_f" unicode="ff" horiz-adv-x="1351" 
d="M276 0v909h-217v80h217v209q0 118 76.5 193t196.5 75q94 0 182 -26l-16 -80q-73 22 -148 22q-85 0 -138.5 -52.5t-53.5 -137.5v-203h516v209q0 118 76 193t196 75q92 0 183 -26l-17 -80q-73 22 -147 22q-86 0 -139.5 -52.5t-53.5 -137.5v-203h303v-80h-303v-909h-98v909
h-516v-909h-99z" />
    <glyph glyph-name="fi" unicode="fi" horiz-adv-x="1134" 
d="M276 0v909h-217v80h217v166q0 136 94.5 223.5t237.5 87.5q131 0 285 -51l-21 -78q-149 47 -254 47t-174 -65t-69 -166v-164h581v-989h-98v909h-483v-909h-99z" />
    <glyph glyph-name="fl" unicode="fl" horiz-adv-x="1232" 
d="M276 0v909h-217v80h217v166q0 139 93.5 225t240.5 86q114 0 346 -36v-1237q0 -63 36 -98.5t98 -35.5q44 0 102 15l14 -80q-78 -19 -133 -19q-98 0 -156.5 57t-58.5 152v1176q-141 24 -242 24q-108 0 -174.5 -63.5t-66.5 -167.5v-164h305v-80h-305v-909h-99z" />
    <glyph glyph-name="f_f_i" unicode="ffi" horiz-adv-x="1748" 
d="M276 0v909h-217v80h217v209q0 118 76.5 193t196.5 75q94 0 182 -26l-16 -80q-73 22 -148 22q-85 0 -138.5 -52.5t-53.5 -137.5v-203h516v166q0 136 93.5 223.5t236.5 87.5q132 0 286 -51l-22 -78q-146 47 -252 47t-175 -65t-69 -166v-164h580v-989h-99v909h-481v-909h-98
v909h-516v-909h-99z" />
    <glyph glyph-name="f_f_l" unicode="ffl" horiz-adv-x="1847" 
d="M276 0v909h-217v80h217v209q0 118 76.5 193t196.5 75q94 0 182 -26l-16 -80q-73 22 -148 22q-85 0 -138.5 -52.5t-53.5 -137.5v-203h516v166q0 139 93 225t241 86q115 0 344 -36v-1237q0 -63 36.5 -98.5t98.5 -35.5q44 0 102 15l15 -80q-81 -19 -135 -19q-97 0 -156.5 57
t-59.5 152v1176q-137 24 -239 24q-108 0 -175 -63.5t-67 -167.5v-164h303v-80h-303v-909h-98v909h-516v-909h-99z" />
    <glyph glyph-name=".notdef" horiz-adv-x="1024" 
d="M25 0v1376h974v-1376h-974zM180 1278l332 -500l332 500h-664zM123 1188v-1000l332 500zM901 1188l-332 -500l332 -500v1000zM844 98l-332 500l-332 -500h664z" />
    <glyph glyph-name=".null" horiz-adv-x="0" 
 />
    <glyph glyph-name=".null" horiz-adv-x="0" 
 />
    <glyph glyph-name="nonmarkingreturn" horiz-adv-x="682" 
 />
    <glyph glyph-name="CR" unicode="&#xd;" horiz-adv-x="491" 
 />
    <glyph glyph-name="space" unicode=" " horiz-adv-x="491" 
 />
    <glyph glyph-name="exclam" unicode="!" horiz-adv-x="516" 
d="M217 412l-10 964h102l-10 -964h-82zM180 59q0 34 22 55t56 21t55 -21t21 -55t-21 -55.5t-55 -21.5q-35 0 -56.5 21.5t-21.5 55.5z" />
    <glyph glyph-name="quotedbl" unicode="&#x22;" horiz-adv-x="774" 
d="M170 954l-10 422h96l-8 -422h-78zM526 954l-10 422h96l-8 -422h-78z" />
    <glyph glyph-name="numbersign" unicode="#" horiz-adv-x="1323" 
d="M33 397v80h295l82 422h-281v80h295l78 405l80 -10l-76 -395h422l78 405l77 -10l-73 -395h280v-80h-295l-82 -422h281v-80h-295l-78 -405l-80 10l74 395h-420l-78 -405l-79 10l75 395h-280zM492 899l-82 -422h421l80 422h-419z" />
    <glyph glyph-name="dollar" unicode="$" horiz-adv-x="1179" 
d="M547 -262v338q-160 6 -363 88l27 80q216 -88 373 -88q142 0 227.5 63t85.5 170q0 72 -39 122t-101 78t-137 50t-150 47.5t-137 60t-101 97.5t-39 151q0 129 96.5 211.5t257.5 91.5v340h86v-338q141 -9 321 -81l-26 -80q-193 80 -332 80q-137 0 -221 -62t-84 -162
q0 -70 39 -119t101 -76t137 -49t150 -47.5t137 -60.5t101 -99.5t39 -154.5q0 -134 -99 -219t-263 -92v-340h-86z" />
    <glyph glyph-name="percent" unicode="%" horiz-adv-x="1769" 
d="M1014 344q0 162 91.5 265.5t235.5 103.5q142 0 234 -104t92 -265q0 -162 -91.5 -265.5t-234.5 -103.5q-145 0 -236 103t-91 266zM1094 344q0 -135 68.5 -218t178.5 -83q109 0 177.5 83t68.5 218q0 133 -68.5 217t-177.5 84q-110 0 -178.5 -83.5t-68.5 -217.5zM102 1032
q0 161 92 265t234 104q143 0 235.5 -104t92.5 -265q0 -162 -92.5 -265t-235.5 -103t-234.5 103t-91.5 265zM182 1032q0 -135 68.5 -218t177.5 -83q110 0 179 83t69 218q0 134 -69 217.5t-179 83.5q-109 0 -177.5 -84t-68.5 -217zM340 23l1032 1376l58 -45l-1033 -1377z" />
    <glyph glyph-name="ampersand" unicode="&#x26;" horiz-adv-x="1296" 
d="M1163 0l-190 205q-90 -111 -201 -170.5t-229 -59.5q-194 0 -318.5 110t-124.5 282q0 237 336 417q-96 98 -142 170.5t-46 157.5q0 128 90 208.5t233 80.5q134 0 221 -76.5t87 -194.5q0 -102 -70.5 -185t-241.5 -179l406 -436q90 149 90 332h86q0 -219 -115 -398l244 -264
h-115zM193 373q0 -139 101 -228.5t255 -89.5q103 0 199 54.5t170 154.5l-433 467q-292 -165 -292 -358zM571 1321q-104 0 -168.5 -58.5t-64.5 -152.5q0 -69 44 -134t134 -153q148 81 210 150t62 151q0 86 -61 141.5t-156 55.5z" />
    <glyph glyph-name="quotesingle" unicode="'" horiz-adv-x="417" 
d="M170 954l-10 422h96l-8 -422h-78z" />
    <glyph glyph-name="parenleft" unicode="(" horiz-adv-x="673" 
d="M178 590q0 250 88 477t256 410l70 -52q-158 -167 -240 -381.5t-82 -453.5t82 -454t240 -382l-70 -51q-168 182 -256 409t-88 478z" />
    <glyph glyph-name="parenright" unicode=")" horiz-adv-x="673" 
d="M494 590q0 -251 -87.5 -477.5t-254.5 -409.5l-72 51q158 167 239.5 382t81.5 454t-81.5 453.5t-239.5 381.5l72 52q167 -181 254.5 -408t87.5 -479z" />
    <glyph glyph-name="asterisk" unicode="*" horiz-adv-x="995" 
d="M535 1376v-354l335 111l25 -72l-340 -111l209 -286l-59 -43l-207 288l-209 -288l-60 43l209 286l-338 111l25 72l336 -111v354h74z" />
    <glyph glyph-name="plus" unicode="+" horiz-adv-x="1179" 
d="M119 547v86h428v428h86v-428h428v-86h-428v-428h-86v428h-428z" />
    <glyph glyph-name="comma" unicode="," horiz-adv-x="483" 
d="M160 63q0 36 23 59t59 23q42 0 67 -34.5t25 -92.5q0 -102 -52.5 -192.5t-148.5 -153.5l-35 47q152 116 152 269q-37 -5 -63.5 17.5t-26.5 57.5z" />
    <glyph glyph-name="hyphen" unicode="-" horiz-adv-x="655" 
d="M59 467v80h537v-80h-537z" />
    <glyph glyph-name="period" unicode="." horiz-adv-x="483" 
d="M160 63q0 35 23.5 58.5t58.5 23.5t58.5 -23.5t23.5 -58.5t-23.5 -58t-58.5 -23t-58.5 23t-23.5 58z" />
    <glyph glyph-name="slash" unicode="/" horiz-adv-x="786" 
d="M41 -252l623 1710l81 -26l-622 -1711z" />
    <glyph glyph-name="zero" unicode="0" horiz-adv-x="1179" 
d="M100 688q0 326 133 519.5t357 193.5t356.5 -193.5t132.5 -519.5t-132.5 -519.5t-356.5 -193.5t-357 193.5t-133 519.5zM193 688q0 -286 108.5 -457.5t288.5 -171.5t288.5 171.5t108.5 457.5q0 287 -108.5 458t-288.5 171t-288.5 -171t-108.5 -458z" />
    <glyph glyph-name="one" unicode="1" horiz-adv-x="1179" 
d="M653 0v1274l-383 -221l-37 71l435 252h82v-1376h-97z" />
    <glyph glyph-name="two" unicode="2" horiz-adv-x="1179" 
d="M123 0v66l569 569q176 173 176 362q0 141 -90 229.5t-235 88.5q-160 0 -359 -123l-41 76q217 133 414 133q180 0 294 -110t114 -283q0 -221 -193 -414l-512 -510h721v-84h-858z" />
    <glyph glyph-name="three" unicode="3" horiz-adv-x="1179" 
d="M412 666v77h73q162 0 265.5 81.5t103.5 209.5q0 126 -85 204.5t-220 78.5q-171 0 -356 -86l-33 78q197 92 399 92q173 0 283 -100.5t110 -258.5q0 -122 -74.5 -211t-199.5 -122q140 -37 223.5 -134t83.5 -225q0 -166 -119 -270.5t-307 -104.5q-216 0 -432 101l33 78
q207 -95 387 -95q149 0 243.5 83.5t94.5 215.5q0 136 -111 222t-289 86h-73z" />
    <glyph glyph-name="four" unicode="4" horiz-adv-x="1179" 
d="M760 0v342h-686v72l686 962h92v-954h227v-80h-227v-342h-92zM174 422h586v821z" />
    <glyph glyph-name="five" unicode="5" horiz-adv-x="1179" 
d="M963 1376v-84h-644v-510q126 27 240 27q210 0 331.5 -113t121.5 -303q0 -185 -127.5 -301.5t-333.5 -116.5q-205 0 -406 117l41 76q185 -109 359 -109q168 0 269 92.5t101 243.5q0 156 -100.5 247t-277.5 91q-137 0 -306 -39v682h732z" />
    <glyph glyph-name="six" unicode="6" horiz-adv-x="1179" 
d="M143 598q0 385 141 594t404 209q166 0 316 -78l-35 -76q-147 72 -279 72q-222 0 -338.5 -181.5t-113.5 -527.5q38 114 148 185t249 71q193 0 312.5 -121.5t119.5 -316.5q0 -193 -127.5 -323t-316.5 -130q-223 0 -351.5 161.5t-128.5 461.5zM254 461q0 -178 103 -291
t264 -113q150 0 252 106.5t102 262.5q0 161 -97 259.5t-257 98.5q-154 0 -260.5 -93.5t-106.5 -229.5z" />
    <glyph glyph-name="seven" unicode="7" horiz-adv-x="1179" 
d="M315 0l559 1292h-724v84h835v-65l-567 -1311h-103z" />
    <glyph glyph-name="eight" unicode="8" horiz-adv-x="1179" 
d="M590 743q150 23 243 100.5t93 198.5q0 120 -95.5 199.5t-240.5 79.5t-240.5 -79.5t-95.5 -199.5q0 -121 93 -198.5t243 -100.5zM127 344q0 136 91.5 232.5t254.5 128.5q-139 30 -226 122.5t-87 221.5q0 153 121.5 252.5t308.5 99.5t308.5 -99.5t121.5 -252.5
q0 -129 -87 -221.5t-226 -122.5q163 -32 254.5 -128.5t91.5 -232.5q0 -164 -128.5 -266.5t-334.5 -102.5t-334.5 102.5t-128.5 266.5zM590 666q-170 -25 -267.5 -107.5t-97.5 -208.5q0 -132 101.5 -213.5t263.5 -81.5t263 81.5t101 213.5q0 126 -97 208.5t-267 107.5z" />
    <glyph glyph-name="nine" unicode="9" horiz-adv-x="1179" 
d="M1036 778q0 -385 -140.5 -594t-403.5 -209q-166 0 -316 78l35 76q147 -72 278 -72q222 0 339 181.5t114 527.5q-38 -114 -148 -185t-249 -71q-193 0 -312.5 121.5t-119.5 316.5q0 193 127.5 323t316.5 130q223 0 351 -161.5t128 -461.5zM926 915q0 178 -103 291t-264 113
q-150 0 -252 -106.5t-102 -262.5q0 -161 97 -259.5t257 -98.5q154 0 260.5 93.5t106.5 229.5z" />
    <glyph glyph-name="colon" unicode=":" horiz-adv-x="516" 
d="M176 63q0 35 23.5 58.5t58.5 23.5t58.5 -23.5t23.5 -58.5t-23.5 -58t-58.5 -23t-58.5 23t-23.5 58zM176 924q0 35 23.5 58.5t58.5 23.5t58.5 -23.5t23.5 -58.5t-23.5 -58.5t-58.5 -23.5t-58.5 23.5t-23.5 58.5z" />
    <glyph glyph-name="semicolon" unicode=";" horiz-adv-x="516" 
d="M176 63q0 36 23 59t59 23q42 0 67 -34.5t25 -92.5q0 -103 -52.5 -193t-147.5 -153l-35 47q151 115 151 269q-37 -5 -63.5 17.5t-26.5 57.5zM176 924q0 35 23.5 58.5t58.5 23.5t58.5 -23.5t23.5 -58.5t-23.5 -58.5t-58.5 -23.5t-58.5 23.5t-23.5 58.5z" />
    <glyph glyph-name="less" unicode="&#x3c;" horiz-adv-x="1179" 
d="M119 547v86l915 426l35 -82l-833 -387l833 -387l-35 -82z" />
    <glyph glyph-name="equal" unicode="=" horiz-adv-x="1179" 
d="M119 756v86h942v-86h-942zM119 338v86h942v-86h-942z" />
    <glyph glyph-name="greater" unicode="&#x3e;" horiz-adv-x="1179" 
d="M1061 633v-86l-916 -426l-34 82l833 387l-833 387l34 82z" />
    <glyph glyph-name="question" unicode="?" horiz-adv-x="929" 
d="M473 412h-82v22q0 70 34.5 134.5t83.5 115.5t98 101t83.5 114t34.5 133q0 124 -81.5 203.5t-209.5 79.5q-153 0 -319 -113l-41 74q175 125 370 125q167 0 273 -101t106 -258q0 -60 -19 -114.5t-49.5 -97t-67.5 -82.5t-74 -77t-68 -74t-51 -80.5t-21 -88.5v-16zM354 61
q0 33 22 53.5t56 20.5t55 -20t21 -54t-21.5 -56.5t-54.5 -22.5q-34 0 -56 22.5t-22 56.5z" />
    <glyph glyph-name="at" unicode="@" horiz-adv-x="1978" 
d="M117 494q0 264 114.5 472.5t319 324.5t463.5 116q244 0 437.5 -103t302 -288.5t108.5 -419.5q0 -245 -102.5 -397t-268.5 -152q-87 0 -145.5 51t-67.5 133q-46 -88 -126.5 -136t-186.5 -48q-167 0 -276 126.5t-109 320.5q0 195 108.5 320.5t276.5 125.5q102 0 179 -46
t120 -130l10 156h82v-631q0 -74 38 -119t105 -45q125 0 201 128t76 337q0 214 -98 382.5t-271.5 261.5t-392.5 93q-176 0 -327 -62t-257 -171t-166.5 -264t-60.5 -336q0 -241 103 -431t288 -296.5t420 -106.5q236 0 510 152l41 -70q-303 -160 -551 -160q-194 0 -361 67.5
t-284.5 187t-184.5 289.5t-67 368zM676 494q0 -160 86.5 -262.5t220.5 -102.5q124 0 200.5 83t76.5 210v145q0 128 -76.5 210.5t-200.5 82.5q-134 0 -220.5 -102.5t-86.5 -263.5z" />
    <glyph glyph-name="A" unicode="A" horiz-adv-x="1357" 
d="M61 0l570 1376h96l569 -1376h-104l-168 410h-690l-168 -410h-105zM680 1255l-315 -766h628z" />
    <glyph glyph-name="B" unicode="B" horiz-adv-x="1323" 
d="M225 0v1376h529q169 0 278 -98.5t109 -251.5q0 -107 -60 -192t-163 -123q127 -32 199.5 -124.5t72.5 -219.5q0 -164 -113.5 -265.5t-290.5 -101.5h-561zM324 668v-588h450q140 0 228 82.5t88 212.5q0 129 -88.5 211t-227.5 82h-450zM324 1296v-555h419q131 0 215 78
t84 199q0 123 -84 200.5t-215 77.5h-419z" />
    <glyph glyph-name="C" unicode="C" horiz-adv-x="1316" 
d="M117 688q0 156 48.5 289t134 226t208 145.5t266.5 52.5q234 0 447 -148l-45 -71q-187 133 -392 133q-252 0 -408.5 -173.5t-156.5 -453.5t156.5 -453.5t408.5 -173.5q203 0 392 134l45 -72q-213 -148 -447 -148q-291 0 -474 199t-183 514z" />
    <glyph glyph-name="D" unicode="D" horiz-adv-x="1456" 
d="M225 0v1376h422q309 0 500.5 -190.5t191.5 -497.5q0 -305 -192 -496.5t-500 -191.5h-422zM1237 688q0 267 -167.5 435.5t-432.5 168.5h-311v-1208h311q265 0 432.5 168.5t167.5 435.5z" />
    <glyph glyph-name="E" unicode="E" horiz-adv-x="1218" 
d="M225 0v1376h842v-82h-741v-549h675v-81h-675v-582h774v-82h-875z" />
    <glyph glyph-name="F" unicode="F" horiz-adv-x="1185" 
d="M225 0v1376h842v-84h-741v-596h675v-84h-675v-612h-101z" />
    <glyph glyph-name="G" unicode="G" horiz-adv-x="1423" 
d="M1272 684v-600q-237 -109 -465 -109q-201 0 -358.5 90.5t-244.5 253t-87 369.5q0 155 49.5 287.5t137.5 226t213.5 146.5t273.5 53q224 0 462 -133l-41 -74q-217 123 -411 123q-259 0 -422.5 -175.5t-163.5 -453.5q0 -182 75.5 -325.5t212 -223.5t310.5 -80q194 0 365 80
v465h-371v80h465z" />
    <glyph glyph-name="H" unicode="H" horiz-adv-x="1554" 
d="M225 0v1376h101v-631h903v631h100v-1376h-100v664h-903v-664h-101z" />
    <glyph glyph-name="I" unicode="I" horiz-adv-x="550" 
d="M225 0v1376h101v-1376h-101z" />
    <glyph glyph-name="J" unicode="J" horiz-adv-x="897" 
d="M672 1376v-1042q0 -158 -101.5 -258.5t-261.5 -100.5q-118 0 -252 35l17 82q118 -31 217 -31q123 0 201.5 78t78.5 201v1036h101z" />
    <glyph glyph-name="K" unicode="K" horiz-adv-x="1335" 
d="M225 0v1376h99v-774l772 774h123l-641 -643l671 -733h-125l-616 670l-184 -183v-487h-99z" />
    <glyph glyph-name="L" unicode="L" horiz-adv-x="1087" 
d="M225 0v1376h101v-1292h702v-84h-803z" />
    <glyph glyph-name="M" unicode="M" horiz-adv-x="1734" 
d="M225 0v1376h101l542 -733l541 733h100v-1376h-94v1235l-516 -703h-63l-517 703v-1235h-94z" />
    <glyph glyph-name="N" unicode="N" horiz-adv-x="1554" 
d="M225 0v1376h101l909 -1235v1235h94v-1376h-100l-910 1235v-1235h-94z" />
    <glyph glyph-name="O" unicode="O" horiz-adv-x="1554" 
d="M117 688q0 207 83.5 369.5t234.5 253t343 90.5q191 0 341.5 -90.5t234.5 -253t84 -369.5t-84 -369.5t-234.5 -253t-341.5 -90.5q-192 0 -343 90.5t-234.5 253t-83.5 369.5zM219 688q0 -181 71 -324.5t198.5 -224t289.5 -80.5q244 0 400.5 177t156.5 452t-156.5 452
t-400.5 177q-162 0 -289.5 -80.5t-198.5 -224t-71 -324.5z" />
    <glyph glyph-name="P" unicode="P" horiz-adv-x="1257" 
d="M225 0v1376h488q195 0 319.5 -116t124.5 -299t-124.5 -299.5t-319.5 -116.5h-389v-545h-99zM324 1292v-665h378q156 0 255.5 93.5t99.5 240.5q0 146 -99.5 238.5t-255.5 92.5h-378z" />
    <glyph glyph-name="Q" unicode="Q" horiz-adv-x="1554" 
d="M117 688q0 207 83.5 369.5t234.5 253t343 90.5q191 0 341.5 -90.5t234.5 -253t84 -369.5q0 -213 -88 -377t-244 -250l360 -264l-53 -65l-393 288q-115 -45 -242 -45q-192 0 -343 90.5t-234.5 253t-83.5 369.5zM219 688q0 -181 71 -324.5t198.5 -224t289.5 -80.5
q244 0 400.5 177t156.5 452t-156.5 452t-400.5 177q-162 0 -289.5 -80.5t-198.5 -224t-71 -324.5z" />
    <glyph glyph-name="R" unicode="R" horiz-adv-x="1323" 
d="M225 0v1376h492q187 0 306.5 -112t119.5 -287q0 -160 -100.5 -267t-264.5 -122l418 -588h-115l-405 578h-352v-578h-99zM324 1292v-633h381q150 0 244.5 88t94.5 230q0 139 -95 227t-244 88h-381z" />
    <glyph glyph-name="S" unicode="S" horiz-adv-x="1175" 
d="M125 1049q0 157 128.5 254.5t334.5 97.5q194 0 420 -92l-27 -80q-215 88 -387 88q-165 0 -267 -74.5t-102 -193.5q0 -84 46 -143t119.5 -92t162 -58.5t177 -55.5t162 -70.5t119.5 -115t46 -178.5q0 -161 -129.5 -261t-339.5 -100q-211 0 -471 109l26 80
q272 -105 439 -105q169 0 272.5 76.5t103.5 200.5q0 68 -28.5 119.5t-76.5 84.5t-110.5 58t-132 45t-138.5 41t-131.5 51t-110.5 69.5t-76.5 101.5t-28.5 143z" />
    <glyph glyph-name="T" unicode="T" horiz-adv-x="1218" 
d="M559 0v1292h-500v84h1100v-84h-500v-1292h-100z" />
    <glyph glyph-name="U" unicode="U" horiz-adv-x="1554" 
d="M1346 1376v-860q0 -156 -73.5 -280t-203.5 -192.5t-291 -68.5q-247 0 -408 152t-161 389v860h100v-856q0 -202 133 -331.5t336 -129.5q202 0 334.5 129.5t132.5 331.5v856h101z" />
    <glyph glyph-name="V" unicode="V" horiz-adv-x="1357" 
d="M1296 1376l-569 -1376h-96l-570 1376h107l512 -1247l510 1247h106z" />
    <glyph glyph-name="W" unicode="W" horiz-adv-x="2045" 
d="M1960 1376l-442 -1376h-103l-391 1247l-393 -1247h-103l-442 1376h102l394 -1247l393 1247h98l391 -1247l394 1247h102z" />
    <glyph glyph-name="X" unicode="X" horiz-adv-x="1374" 
d="M88 0l535 705l-510 671h114l461 -604l459 604h115l-510 -671l534 -705h-117l-481 637l-483 -637h-117z" />
    <glyph glyph-name="Y" unicode="Y" horiz-adv-x="1204" 
d="M551 0v604l-506 772h113l444 -680l442 680h115l-508 -772v-604h-100z" />
    <glyph glyph-name="Z" unicode="Z" horiz-adv-x="1273" 
d="M117 0v61l880 1231h-856v84h989v-61l-878 -1231h903v-84h-1038z" />
    <glyph glyph-name="bracketleft" unicode="[" horiz-adv-x="673" 
d="M238 -268v1716h348v-84h-256v-1548h256v-84h-348z" />
    <glyph glyph-name="backslash" unicode="\" horiz-adv-x="786" 
d="M664 -279l-623 1711l82 26l622 -1710z" />
    <glyph glyph-name="bracketright" unicode="]" horiz-adv-x="673" 
d="M434 1448v-1716h-348v84h256v1548h-256v84h348z" />
    <glyph glyph-name="asciicircum" unicode="^" horiz-adv-x="1179" 
d="M547 1376h86l426 -921l-82 -33l-387 838l-387 -838l-82 33z" />
    <glyph glyph-name="underscore" unicode="_" horiz-adv-x="983" 
d="M0 -303v82h983v-82h-983z" />
    <glyph glyph-name="grave" unicode="`" horiz-adv-x="491" 
d="M31 1436l325 -226l-39 -57l-335 215z" />
    <glyph glyph-name="a" unicode="a" horiz-adv-x="1083" 
d="M102 264q0 153 119 238.5t330 85.5q118 0 240 -29v131q0 109 -74 176.5t-193 67.5q-159 0 -331 -72l-27 74q187 78 366 78q157 0 256 -90.5t99 -233.5v-532q0 -47 27.5 -75t74.5 -28q26 0 58 8l10 -77q-49 -11 -88 -11q-74 0 -121 46t-47 122v37q-49 -97 -145 -151
t-216 -54q-145 0 -241.5 82.5t-96.5 206.5zM201 268q0 -92 74.5 -154.5t183.5 -62.5q149 0 240.5 94.5t91.5 247.5v99q-123 30 -232 30q-169 0 -263.5 -67t-94.5 -187z" />
    <glyph glyph-name="b" unicode="b" 
d="M178 0v1442h98v-637q53 100 143.5 154.5t207.5 54.5q192 0 316 -146t124 -374q0 -227 -124 -373t-316 -146q-119 0 -211.5 55.5t-145.5 157.5l-12 -188h-80zM969 494q0 192 -102.5 315t-260.5 123q-146 0 -239 -98t-93 -250v-178q0 -153 93 -251t239 -98q158 0 260.5 123
t102.5 314z" />
    <glyph glyph-name="c" unicode="c" horiz-adv-x="995" 
d="M102 494q0 229 134.5 374.5t345.5 145.5q175 0 331 -111l-43 -69q-134 96 -278 96q-171 0 -280 -121.5t-109 -314.5q0 -192 109 -313.5t280 -121.5q143 0 278 97l43 -72q-157 -109 -331 -109q-211 0 -345.5 146t-134.5 373z" />
    <glyph glyph-name="d" unicode="d" 
d="M991 1442v-1442h-80l-12 188q-53 -102 -144.5 -157.5t-209.5 -55.5q-194 0 -318.5 146t-124.5 373q0 228 124.5 374t318.5 146q117 0 207 -54.5t141 -154.5v637h98zM203 494q0 -191 101 -314t259 -123q147 0 239.5 98t92.5 251v178q0 153 -92.5 250.5t-239.5 97.5
q-158 0 -259 -123t-101 -315z" />
    <glyph glyph-name="e" unicode="e" horiz-adv-x="1083" 
d="M102 494q0 229 129.5 374.5t333.5 145.5q190 0 310 -139.5t120 -360.5v-41h-794q6 -186 119 -303t288 -117q141 0 305 86l33 -71q-179 -93 -348 -93q-217 0 -356.5 146t-139.5 373zM565 934q-154 0 -253.5 -108t-110.5 -285h700q-3 175 -96 284t-240 109z" />
    <glyph glyph-name="f" unicode="f" horiz-adv-x="739" 
d="M276 0v909h-217v80h217v209q0 118 76.5 193t196.5 75q94 0 182 -26l-16 -80q-73 22 -148 22q-85 0 -138.5 -52.5t-53.5 -137.5v-203h305v-80h-305v-909h-99z" />
    <glyph glyph-name="g" unicode="g" 
d="M991 989v-1030q0 -180 -129 -295t-330 -115q-170 0 -366 84l31 78q186 -80 329 -80q161 0 264 91t103 233v229q-51 -100 -141 -154.5t-207 -54.5q-194 0 -318.5 146t-124.5 373q0 228 124.5 374t318.5 146q118 0 209.5 -56t144.5 -159l12 190h80zM203 494
q0 -191 101 -314t259 -123q147 0 239.5 98t92.5 251v178q0 153 -92.5 250.5t-239.5 97.5q-158 0 -259 -123t-101 -315z" />
    <glyph glyph-name="h" unicode="h" 
d="M178 0v1442h98v-654q50 106 146 166t217 60q161 0 265 -101.5t104 -259.5v-653h-99v641q0 127 -82.5 208t-210.5 81q-147 0 -243.5 -101.5t-96.5 -261.5v-567h-98z" />
    <glyph glyph-name="i" unicode="i" horiz-adv-x="454" 
d="M178 0v989h98v-989h-98zM152 1305q0 34 20.5 55.5t54.5 21.5t56 -21.5t22 -55.5t-22 -55t-56 -21t-54.5 21t-20.5 55z" />
    <glyph glyph-name="j" unicode="j" horiz-adv-x="471" 
d="M293 989v-1171q0 -118 -76.5 -193.5t-196.5 -75.5q-88 0 -182 27l17 80q76 -23 147 -23q86 0 139.5 53t53.5 138v1165h98zM168 1305q0 34 21 55.5t55 21.5t56 -21.5t22 -55.5t-22 -55t-56 -21t-55 21t-21 55z" />
    <glyph glyph-name="k" unicode="k" horiz-adv-x="1011" 
d="M178 0v1442h96v-987l533 534h119l-461 -463l477 -526h-119l-424 467l-125 -125v-342h-96z" />
    <glyph glyph-name="l" unicode="l" horiz-adv-x="552" 
d="M276 1442v-1249q0 -62 37 -98t99 -36q44 0 100 15l14 -80q-78 -19 -133 -19q-99 0 -157 56.5t-58 152.5v1258h98z" />
    <glyph glyph-name="m" unicode="m" horiz-adv-x="1837" 
d="M178 0v989h80l12 -198q47 105 140.5 164t212.5 59q121 0 211 -65.5t122 -174.5q50 113 146 176.5t219 63.5q155 0 253.5 -97t98.5 -247v-670h-96v657q0 119 -79 196t-200 77q-141 0 -232 -97t-91 -249v-584h-98v657q0 119 -78 196t-199 77q-141 0 -232.5 -97t-91.5 -249
v-584h-98z" />
    <glyph glyph-name="n" unicode="n" 
d="M178 0v989h80l12 -207q49 109 147.5 170.5t221.5 61.5q161 0 265 -101.5t104 -259.5v-653h-99v641q0 127 -82.5 208t-210.5 81q-147 0 -243.5 -101.5t-96.5 -261.5v-567h-98z" />
    <glyph glyph-name="o" unicode="o" 
d="M102 494q0 229 136 374.5t348 145.5t346.5 -145.5t134.5 -374.5q0 -228 -134.5 -373.5t-346.5 -145.5t-348 146t-136 373zM203 494q0 -192 107 -314.5t276 -122.5q167 0 275 122.5t108 314.5q0 193 -107.5 315.5t-275.5 122.5q-169 0 -276 -122.5t-107 -315.5z" />
    <glyph glyph-name="p" unicode="p" 
d="M178 -426v1415h80l12 -190q53 103 145 159t212 56q192 0 316 -146t124 -374q0 -227 -124 -373t-316 -146q-117 0 -207.5 54.5t-143.5 154.5v-610h-98zM969 494q0 192 -102.5 315t-260.5 123q-146 0 -239 -98t-93 -250v-178q0 -153 93 -251t239 -98q158 0 260.5 123
t102.5 314z" />
    <glyph glyph-name="q" unicode="q" 
d="M991 989v-1415h-98v610q-51 -100 -141 -154.5t-207 -54.5q-194 0 -318.5 146t-124.5 373q0 228 124.5 374t318.5 146q118 0 209.5 -56t144.5 -159l12 190h80zM203 494q0 -191 101 -314t259 -123q147 0 239.5 98t92.5 251v178q0 153 -92.5 250.5t-239.5 97.5
q-158 0 -259 -123t-101 -315z" />
    <glyph glyph-name="r" unicode="r" horiz-adv-x="761" 
d="M178 0v989h80l12 -209q35 105 120.5 165.5t199.5 60.5q59 0 127 -19l-15 -82q-66 17 -118 17q-136 0 -222 -103.5t-86 -267.5v-551h-98z" />
    <glyph glyph-name="s" unicode="s" horiz-adv-x="903" 
d="M111 752q0 116 94.5 189t245.5 73q147 0 315 -68l-25 -76q-149 64 -284 64q-111 0 -180.5 -50.5t-69.5 -131.5q0 -58 32.5 -98t85 -62.5t115.5 -40.5t126 -39.5t115.5 -51t85 -84t32.5 -130.5q0 -120 -96.5 -195.5t-251.5 -75.5q-163 0 -349 76l25 76q174 -74 317 -74
q117 0 187.5 53t70.5 140q0 47 -20 82.5t-54.5 58t-79 40t-93.5 31.5t-97.5 29t-93 36.5t-79 50.5t-54.5 74t-20 104z" />
    <glyph glyph-name="t" unicode="t" horiz-adv-x="804" 
d="M375 1284v-295h338v-80h-338v-659q0 -85 53.5 -138t138.5 -53q72 0 148 23l16 -80q-91 -27 -182 -27q-120 0 -196.5 75.5t-76.5 193.5v665h-217v80h217v295h99z" />
    <glyph glyph-name="u" unicode="u" 
d="M991 989v-989h-80l-12 205q-47 -108 -145 -169t-222 -61q-161 0 -265.5 101.5t-104.5 259.5v653h98v-641q0 -127 83 -208t212 -81q147 0 242.5 101.5t95.5 261.5v567h98z" />
    <glyph glyph-name="v" unicode="v" horiz-adv-x="1040" 
d="M975 989l-410 -989h-92l-410 989h103l354 -872l352 872h103z" />
    <glyph glyph-name="w" unicode="w" horiz-adv-x="1564" 
d="M1483 989l-326 -989h-98l-277 868l-276 -868h-100l-326 989h100l277 -868l276 868h96l277 -868l278 868h99z" />
    <glyph glyph-name="x" unicode="x" horiz-adv-x="1040" 
d="M74 0l383 506l-367 483h113l317 -418l316 418h112l-366 -483l383 -506h-113l-332 440l-332 -440h-114z" />
    <glyph glyph-name="y" unicode="y" horiz-adv-x="1040" 
d="M975 989l-471 -1161q-59 -148 -130.5 -213.5t-178.5 -65.5q-47 0 -127 17l16 82q59 -15 104 -15q79 0 130.5 49t97.5 166l63 158l-416 983h103l360 -872l346 872h103z" />
    <glyph glyph-name="z" unicode="z" horiz-adv-x="968" 
d="M102 0v59l617 850h-600v80h729v-59l-615 -850h631v-80h-762z" />
    <glyph glyph-name="braceleft" unicode="{" horiz-adv-x="673" 
d="M80 549v82h33q82 0 134 54.5t52 139.5q0 53 -15.5 172t-15.5 179q0 119 76.5 195.5t192.5 76.5h49v-84h-33q-83 0 -137 -56t-54 -147q0 -52 13.5 -168.5t13.5 -173.5q0 -82 -38.5 -143.5t-110.5 -85.5q72 -24 110.5 -86t38.5 -144q0 -57 -13.5 -172.5t-13.5 -169.5
q0 -91 54 -146.5t137 -55.5h33v-84h-49q-116 0 -192.5 76.5t-76.5 195.5q0 59 15.5 176.5t15.5 173.5q0 84 -52 139.5t-134 55.5h-33z" />
    <glyph glyph-name="bar" unicode="|" horiz-adv-x="491" 
d="M203 -459v1966h86v-1966h-86z" />
    <glyph glyph-name="braceright" unicode="}" horiz-adv-x="673" 
d="M592 631v-82h-33q-80 0 -132 -55t-52 -140q0 -54 15.5 -172t15.5 -178q0 -119 -77 -195.5t-192 -76.5h-51v84h33q84 0 138 55.5t54 146.5q0 52 -14 168.5t-14 173.5q0 81 39.5 143.5t111.5 86.5q-72 24 -111.5 86t-39.5 143q0 57 14 172.5t14 169.5q0 91 -54 147t-138 56
h-33v84h51q115 0 192 -76.5t77 -195.5q0 -59 -15.5 -177t-15.5 -174q0 -84 51.5 -139t132.5 -55h33z" />
    <glyph glyph-name="asciitilde" unicode="~" horiz-adv-x="1179" 
d="M158 504l-52 69q124 109 281 109q71 0 139.5 -24.5t135 -49t131.5 -24.5q127 0 229 92l51 -70q-123 -108 -280 -108q-71 0 -139.5 24.5t-134.5 49t-132 24.5q-127 0 -229 -92z" />
    <glyph glyph-name="nbspace" unicode="&#xa0;" horiz-adv-x="491" 
 />
    <glyph glyph-name="exclamdown" unicode="&#xa1;" horiz-adv-x="516" 
d="M299 578l10 -965h-102l10 965h82zM334 930q0 -34 -21 -56t-55 -22t-56 22t-22 56t22 56t56 22q35 0 55.5 -22t20.5 -56z" />
    <glyph glyph-name="cent" unicode="&#xa2;" horiz-adv-x="1179" 
d="M195 688q0 211 115 352.5t302 161.5v305h86v-303q163 -3 310 -106l-45 -72q-137 98 -277 98q-173 0 -282 -122t-109 -314t109 -314t282 -122q140 0 277 98l45 -71q-147 -103 -310 -109v-301h-86v305q-187 20 -302 161.5t-115 352.5z" />
    <glyph glyph-name="sterling" unicode="&#xa3;" horiz-adv-x="1179" 
d="M152 0v82h217v582h-185v81h185v299q0 158 107.5 257.5t277.5 99.5q128 0 282 -60l-26 -77q-127 53 -242 53q-132 0 -214.5 -77.5t-82.5 -201.5v-293h406v-81h-406v-582h590v-82h-909z" />
    <glyph glyph-name="currency" unicode="&#xa4;" horiz-adv-x="1179" 
d="M195 233l-60 60l166 168q-76 92 -76 227t76 227l-166 168l60 60l165 -168q90 78 230 78q137 0 227 -78l168 168l59 -60l-167 -168q77 -89 77 -227q0 -134 -77 -227l167 -168l-59 -60l-168 166q-92 -73 -227 -73q-136 0 -228 73zM305 688q0 -124 80 -203t205 -79t204.5 79
t79.5 203q0 125 -80 205t-204 80t-204.5 -80.5t-80.5 -204.5z" />
    <glyph glyph-name="yen" unicode="&#xa5;" horiz-adv-x="1179" 
d="M539 0v344h-355v74h355v227h-355v74h328l-430 657h111l397 -620l397 620h111l-430 -657h327v-74h-354v-227h354v-74h-354v-344h-102z" />
    <glyph glyph-name="brokenbar" unicode="&#xa6;" horiz-adv-x="491" 
d="M203 1409h86v-786h-86v786zM289 -360h-86v786h86v-786z" />
    <glyph glyph-name="section" unicode="&#xa7;" horiz-adv-x="1067" 
d="M150 1092q0 138 110.5 223.5t288.5 85.5q170 0 373 -84l-27 -80q-193 80 -340 80q-139 0 -223 -62t-84 -163q0 -56 24.5 -98t65.5 -68.5t94 -47.5t112 -38t118 -35.5t112 -45t94 -61.5t65.5 -89.5t24.5 -125.5q0 -87 -46.5 -155.5t-131.5 -106.5q146 -89 146 -256
q0 -145 -112 -231t-298 -86t-407 90l24 80q214 -86 377 -86q146 0 231.5 62.5t85.5 170.5q0 72 -39 122t-102 78.5t-138.5 51t-151 48t-138.5 60.5t-102 97.5t-39 150.5t49 157t139 104q-155 83 -155 258zM215 578q0 -54 22 -96t55.5 -68t85 -48.5t98 -36t108.5 -32.5
t102 -35q80 28 127 85.5t47 131.5q0 53 -21 95t-52 68t-82 49t-93.5 36t-105 31.5t-100.5 32.5q-88 -23 -139.5 -80t-51.5 -133z" />
    <glyph glyph-name="dieresis" unicode="&#xa8;" horiz-adv-x="491" 
d="M-33 1305q0 32 20.5 51.5t53.5 19.5q32 0 52 -19.5t20 -51.5t-20 -52t-52 -20t-53 20t-21 52zM379 1305q0 32 20 51.5t52 19.5t52.5 -19.5t20.5 -51.5t-20.5 -52t-52.5 -20t-52 20t-20 52z" />
    <glyph glyph-name="copyright" unicode="&#xa9;" horiz-adv-x="1703" 
d="M98 688q0 218 96 390t268 268t390 96t390 -96t268 -268t96 -390t-96 -390t-268 -268t-390 -96t-390 96t-268 268t-96 390zM160 688q0 -304 194 -498t498 -194t498 194t194 498t-194 498t-498 194t-498 -194t-194 -498zM463 688q0 195 115 318.5t299 123.5q144 0 280 -92
l-39 -57q-112 80 -233 80q-152 0 -246 -103.5t-94 -269.5t94 -269.5t246 -103.5q121 0 233 80l39 -57q-136 -92 -280 -92q-184 0 -299 123.5t-115 318.5z" />
    <glyph glyph-name="ordfeminine" unicode="&#xaa;" horiz-adv-x="774" 
d="M59 489v64h656v-64h-656zM86 899q0 101 80 158t219 57q59 0 158 -18v71q0 75 -48 120.5t-126 45.5q-103 0 -222 -49l-20 59q128 52 246 52q108 0 176.5 -64t68.5 -166v-334q0 -63 62 -63q13 0 41 4l6 -61q-27 -6 -63 -6q-53 0 -84.5 31.5t-32.5 86.5q-37 -57 -98 -87.5
t-136 -30.5q-97 0 -162 55t-65 139zM164 901q0 -59 46.5 -97t115.5 -38q94 0 155.5 59t61.5 150v67q-90 17 -154 17q-107 0 -166 -41t-59 -117z" />
    <glyph glyph-name="guillemotleft" unicode="&#xab;" horiz-adv-x="1042" 
d="M63 481v51l404 449l59 -49l-364 -426l364 -424l-59 -49zM492 481v51l403 449l59 -49l-364 -426l364 -424l-59 -49z" />
    <glyph glyph-name="logicalnot" unicode="&#xac;" horiz-adv-x="1179" 
d="M119 547v86h942v-514h-86v428h-856z" />
    <glyph glyph-name="uni00AD" unicode="&#xad;" horiz-adv-x="655" 
d="M113 467v80h536v-80h-536z" />
    <glyph glyph-name="registered" unicode="&#xae;" horiz-adv-x="1703" 
d="M98 688q0 218 96 390t268 268t390 96t390 -96t268 -268t96 -390t-96 -390t-268 -268t-390 -96t-390 96t-268 268t-96 390zM160 688q0 -304 194 -498t498 -194t498 194t194 498t-194 498t-498 194t-498 -194t-194 -498zM586 262v852h313q117 0 193.5 -70t76.5 -180
q0 -99 -61 -165.5t-160 -77.5l250 -359h-90l-236 350h-210v-350h-76zM662 1049v-373h229q90 0 145.5 51t55.5 135q0 83 -56 135t-145 52h-229z" />
    <glyph glyph-name="macron" unicode="&#xaf;" horiz-adv-x="491" 
d="M-45 1268v73h582v-73h-582z" />
    <glyph glyph-name="degree" unicode="&#xb0;" horiz-adv-x="667" 
d="M104 1165q0 100 64.5 165t165.5 65q100 0 164.5 -65t64.5 -165q0 -101 -64.5 -165t-164.5 -64q-101 0 -165.5 64t-64.5 165zM168 1165q0 -73 46 -119.5t120 -46.5t120 46.5t46 119.5q0 72 -46.5 119t-119.5 47t-119.5 -47t-46.5 -119z" />
    <glyph glyph-name="plusminus" unicode="&#xb1;" horiz-adv-x="1179" 
d="M119 0v86h942v-86h-942zM119 686v86h428v428h86v-428h428v-86h-428v-428h-86v428h-428z" />
    <glyph glyph-name="twosuperior" unicode="&#xb2;" horiz-adv-x="696" 
d="M53 786v52l346 348q105 102 105 211q0 85 -51.5 136.5t-137.5 51.5q-102 0 -219 -74l-35 60q137 84 265 84q114 0 185 -69.5t71 -178.5q0 -138 -119 -254l-297 -299h428v-68h-541z" />
    <glyph glyph-name="threesuperior" unicode="&#xb3;" horiz-adv-x="696" 
d="M231 1192v61h52q95 0 155 47.5t60 122.5q0 74 -50 120t-131 46q-105 0 -215 -55l-28 61q126 60 254 60q110 0 178.5 -63t68.5 -162q0 -74 -42.5 -129.5t-114.5 -75.5q80 -24 129 -83t49 -136q0 -105 -74 -170.5t-194 -65.5q-134 0 -269 66l31 61q116 -61 227 -61
q89 0 144 49t55 127q0 80 -64.5 130t-168.5 50h-52z" />
    <glyph glyph-name="acute" unicode="&#xb4;" horiz-adv-x="491" 
d="M516 1368l-336 -215l-41 57l328 226z" />
    <glyph glyph-name="uni00B5" unicode="&#xb5;" horiz-adv-x="1220" 
d="M178 -426v1415h98v-641q0 -128 82.5 -208.5t212.5 -80.5q147 0 242.5 101.5t95.5 261.5v567h99v-829q0 -46 27 -73.5t71 -27.5q26 0 57 7l13 -80q-50 -11 -86 -11q-78 0 -126.5 46t-48.5 122v43q-48 -99 -139 -155t-207 -56q-100 0 -176 38t-117 110v-549h-98z" />
    <glyph glyph-name="paragraph" unicode="&#xb6;" 
d="M637 561h-94q-193 0 -318 114.5t-125 293.5q0 178 125 292.5t318 114.5h403v-1704h-86v1618h-223v-729z" />
    <glyph glyph-name="periodcentered" unicode="&#xb7;" horiz-adv-x="483" 
d="M160 506q0 35 23.5 58.5t58.5 23.5t58.5 -23.5t23.5 -58.5t-23.5 -58.5t-58.5 -23.5t-58.5 23.5t-23.5 58.5z" />
    <glyph glyph-name="cedilla" unicode="&#xb8;" horiz-adv-x="491" 
d="M299 0l-23 -131q66 -6 110 -51t44 -107q0 -71 -58.5 -116.5t-148.5 -45.5q-91 0 -176 33l23 64q82 -29 145 -29q58 0 95.5 28t37.5 74q0 44 -38.5 72.5t-98.5 28.5h-18l32 180h74z" />
    <glyph glyph-name="onesuperior" unicode="&#xb9;" horiz-adv-x="544" 
d="M379 1638v-852h-78v770l-227 -131l-31 56l270 157h66z" />
    <glyph glyph-name="ordmasculine" unicode="&#xba;" horiz-adv-x="823" 
d="M92 489v64h637v-64h-637zM86 1051q0 152 91.5 248t234.5 96t234 -96t91 -248q0 -153 -91 -249.5t-234 -96.5t-234.5 96.5t-91.5 249.5zM166 1051q0 -124 68.5 -201.5t177.5 -77.5q108 0 176.5 77.5t68.5 201.5q0 123 -68.5 200.5t-176.5 77.5q-109 0 -177.5 -77.5
t-68.5 -200.5z" />
    <glyph glyph-name="guillemotright" unicode="&#xbb;" horiz-adv-x="1042" 
d="M551 532v-51l-406 -448l-59 49l367 424l-367 426l59 49zM979 532v-51l-406 -448l-59 49l367 424l-367 426l59 49z" />
    <glyph glyph-name="onequarter" unicode="&#xbc;" horiz-adv-x="1966" 
d="M500 1376v-852h-78v770l-227 -131l-31 56l270 157h66zM438 23l1032 1376l58 -45l-1032 -1377zM1671 0v205h-420v55l418 592h74v-584h139v-63h-139v-205h-72zM1331 268h340v482z" />
    <glyph glyph-name="onehalf" unicode="&#xbd;" horiz-adv-x="1966" 
d="M500 1376v-852h-78v770l-227 -131l-31 56l270 157h66zM438 23l1032 1376l58 -45l-1032 -1377zM1278 0v51l346 348q105 102 105 211q0 85 -51.5 137t-137.5 52q-102 0 -219 -74l-35 59q137 84 264 84q114 0 185 -69t71 -178q0 -139 -118 -254l-297 -299h428v-68h-541z" />
    <glyph glyph-name="threequarters" unicode="&#xbe;" horiz-adv-x="1966" 
d="M276 930v61h52q95 0 155 47.5t60 122.5q0 74 -50 120t-131 46q-105 0 -215 -55l-28 61q126 60 254 60q110 0 179 -63.5t69 -162.5q0 -73 -43 -128.5t-115 -75.5q80 -23 129 -83t49 -137q0 -104 -74 -169.5t-194 -65.5q-136 0 -269 65l31 62q118 -62 227 -62
q89 0 144 49.5t55 127.5q0 80 -64.5 130t-168.5 50h-52zM438 23l1032 1376l58 -45l-1032 -1377zM1671 0v205h-420v55l418 592h74v-584h139v-63h-139v-205h-72zM1331 268h340v482z" />
    <glyph glyph-name="questiondown" unicode="&#xbf;" horiz-adv-x="798" 
d="M440 578h82v-23q0 -70 -34.5 -134.5t-83.5 -115.5t-98 -101t-83.5 -114t-34.5 -133q0 -125 81 -204t210 -79q154 0 320 113l41 -74q-178 -125 -373 -125q-165 0 -271 101t-106 258q0 82 35.5 154.5t86 126t101 104t87 109.5t38.5 120zM557 930q0 -34 -21 -56t-55 -22
t-56 22t-22 56t22 56t56 22t55 -22t21 -56z" />
    <glyph glyph-name="Agrave" unicode="&#xc0;" horiz-adv-x="1357" 
d="M61 0l570 1376h96l569 -1376h-104l-168 410h-690l-168 -410h-105zM680 1255l-315 -766h628zM465 1823l326 -226l-39 -57l-336 215z" />
    <glyph glyph-name="Aacute" unicode="&#xc1;" horiz-adv-x="1357" 
d="M61 0l570 1376h96l569 -1376h-104l-168 410h-690l-168 -410h-105zM680 1255l-315 -766h628zM950 1755l-336 -215l-41 57l328 226z" />
    <glyph glyph-name="Acircumflex" unicode="&#xc2;" horiz-adv-x="1357" 
d="M61 0l570 1376h96l569 -1376h-104l-168 410h-690l-168 -410h-105zM680 1255l-315 -766h628zM397 1593l248 242h70l248 -242l-48 -51l-235 219l-236 -219z" />
    <glyph glyph-name="Atilde" unicode="&#xc3;" horiz-adv-x="1357" 
d="M61 0l570 1376h96l569 -1376h-104l-168 410h-690l-168 -410h-105zM680 1255l-315 -766h628zM549 1769q46 0 134.5 -39.5t121.5 -39.5q67 0 92 79l70 -22q-15 -59 -57.5 -95t-98.5 -36q-46 0 -134.5 39t-121.5 39q-32 0 -57 -20.5t-35 -57.5l-70 20q15 59 57.5 96t98.5 37
z" />
    <glyph glyph-name="Adieresis" unicode="&#xc4;" horiz-adv-x="1357" 
d="M61 0l570 1376h96l569 -1376h-104l-168 410h-690l-168 -410h-105zM680 1255l-315 -766h628zM420 1692q0 32 20.5 51.5t53.5 19.5q32 0 51.5 -19.5t19.5 -51.5t-19.5 -52t-51.5 -20t-53 20t-21 52zM831 1692q0 32 20 51.5t52 19.5q33 0 53.5 -19.5t20.5 -51.5t-21 -52
t-53 -20t-52 20t-20 52z" />
    <glyph glyph-name="Aring" unicode="&#xc5;" horiz-adv-x="1357" 
d="M61 0l570 1376h96l569 -1376h-104l-168 410h-690l-168 -410h-105zM680 1255l-315 -766h628zM487 1692q0 84 54 136t139 52t138.5 -52t53.5 -136t-52 -136.5t-136 -52.5q-86 0 -141.5 53t-55.5 136zM547 1692q0 -60 38.5 -96.5t98.5 -36.5q57 0 93 36.5t36 96.5t-37 96.5
t-96 36.5q-60 0 -96.5 -36.5t-36.5 -96.5z" />
    <glyph glyph-name="AE" unicode="&#xc6;" horiz-adv-x="1978" 
d="M987 0v410h-584l-278 -410h-117l932 1376h887v-82h-742v-549h676v-81h-676v-582h775v-82h-873zM987 1284l-536 -795h536v795z" />
    <glyph glyph-name="Ccedilla" unicode="&#xc7;" horiz-adv-x="1316" 
d="M117 688q0 156 48.5 289t134 226t208 145.5t266.5 52.5q234 0 447 -148l-45 -71q-187 133 -392 133q-252 0 -408.5 -173.5t-156.5 -453.5t156.5 -453.5t408.5 -173.5q203 0 392 134l45 -72q-194 -137 -414 -146l-21 -108q67 -6 111.5 -51t44.5 -107q0 -71 -58.5 -116.5
t-148.5 -45.5q-91 0 -176 33l21 64q82 -29 147 -29q58 0 94.5 27.5t36.5 74.5q0 44 -37.5 72.5t-97.5 28.5h-21l29 160q-276 14 -445 208.5t-169 499.5z" />
    <glyph glyph-name="Egrave" unicode="&#xc8;" horiz-adv-x="1218" 
d="M225 0v1376h842v-82h-741v-549h675v-81h-675v-582h774v-82h-875zM410 1823l325 -226l-39 -57l-336 215z" />
    <glyph glyph-name="Eacute" unicode="&#xc9;" horiz-adv-x="1218" 
d="M225 0v1376h842v-82h-741v-549h675v-81h-675v-582h774v-82h-875zM895 1755l-336 -215l-41 57l328 226z" />
    <glyph glyph-name="Ecircumflex" unicode="&#xca;" horiz-adv-x="1218" 
d="M225 0v1376h842v-82h-741v-549h675v-81h-675v-582h774v-82h-875zM342 1593l248 242h69l248 -242l-47 -51l-235 219l-236 -219z" />
    <glyph glyph-name="Edieresis" unicode="&#xcb;" horiz-adv-x="1218" 
d="M225 0v1376h842v-82h-741v-549h675v-81h-675v-582h774v-82h-875zM346 1692q0 32 20.5 51.5t53.5 19.5q32 0 52 -19.5t20 -51.5t-20 -52t-52 -20t-53 20t-21 52zM758 1692q0 32 19.5 51.5t51.5 19.5q33 0 53.5 -19.5t20.5 -51.5t-21 -52t-53 -20t-51.5 20t-19.5 52z" />
    <glyph glyph-name="Igrave" unicode="&#xcc;" horiz-adv-x="550" 
d="M225 0v1376h101v-1376h-101zM61 1823l326 -226l-39 -57l-336 215z" />
    <glyph glyph-name="Iacute" unicode="&#xcd;" horiz-adv-x="550" 
d="M225 0v1376h101v-1376h-101zM547 1755l-336 -215l-41 57l328 226z" />
    <glyph glyph-name="Icircumflex" unicode="&#xce;" horiz-adv-x="550" 
d="M225 0v1376h101v-1376h-101zM-6 1593l248 242h69l248 -242l-47 -51l-236 219l-235 -219z" />
    <glyph glyph-name="Idieresis" unicode="&#xcf;" horiz-adv-x="550" 
d="M225 0v1376h101v-1376h-101zM-2 1692q0 32 20.5 51.5t53.5 19.5q32 0 51.5 -19.5t19.5 -51.5t-19.5 -52t-51.5 -20t-53 20t-21 52zM410 1692q0 32 19.5 51.5t51.5 19.5q33 0 53.5 -19.5t20.5 -51.5t-21 -52t-53 -20t-51.5 20t-19.5 52z" />
    <glyph glyph-name="Eth" unicode="&#xd0;" horiz-adv-x="1488" 
d="M258 0v664h-199v81h199v631h422q309 0 500.5 -190.5t191.5 -497.5q0 -305 -192 -496.5t-500 -191.5h-422zM1274 688q0 267 -167.5 435.5t-432.5 168.5h-318v-547h383v-81h-383v-580h318q265 0 432.5 168.5t167.5 435.5z" />
    <glyph glyph-name="Ntilde" unicode="&#xd1;" horiz-adv-x="1554" 
d="M225 0v1376h101l909 -1235v1235h94v-1376h-100l-910 1235v-1235h-94zM647 1769q46 0 134.5 -39.5t121.5 -39.5q67 0 92 79l70 -22q-15 -59 -57.5 -95t-98.5 -36q-46 0 -134.5 39t-121.5 39q-32 0 -57 -20.5t-35 -57.5l-69 20q15 60 57 96.5t98 36.5z" />
    <glyph glyph-name="Ograve" unicode="&#xd2;" horiz-adv-x="1554" 
d="M117 688q0 207 83.5 369.5t234.5 253t343 90.5q191 0 341.5 -90.5t234.5 -253t84 -369.5t-84 -369.5t-234.5 -253t-341.5 -90.5q-192 0 -343 90.5t-234.5 253t-83.5 369.5zM219 688q0 -181 71 -324.5t198.5 -224t289.5 -80.5q244 0 400.5 177t156.5 452t-156.5 452
t-400.5 177q-162 0 -289.5 -80.5t-198.5 -224t-71 -324.5zM563 1823l326 -226l-39 -57l-336 215z" />
    <glyph glyph-name="Oacute" unicode="&#xd3;" horiz-adv-x="1554" 
d="M117 688q0 207 83.5 369.5t234.5 253t343 90.5q191 0 341.5 -90.5t234.5 -253t84 -369.5t-84 -369.5t-234.5 -253t-341.5 -90.5q-192 0 -343 90.5t-234.5 253t-83.5 369.5zM219 688q0 -181 71 -324.5t198.5 -224t289.5 -80.5q244 0 400.5 177t156.5 452t-156.5 452
t-400.5 177q-162 0 -289.5 -80.5t-198.5 -224t-71 -324.5zM1049 1755l-336 -215l-41 57l327 226z" />
    <glyph glyph-name="Ocircumflex" unicode="&#xd4;" horiz-adv-x="1554" 
d="M117 688q0 207 83.5 369.5t234.5 253t343 90.5q191 0 341.5 -90.5t234.5 -253t84 -369.5t-84 -369.5t-234.5 -253t-341.5 -90.5q-192 0 -343 90.5t-234.5 253t-83.5 369.5zM219 688q0 -181 71 -324.5t198.5 -224t289.5 -80.5q244 0 400.5 177t156.5 452t-156.5 452
t-400.5 177q-162 0 -289.5 -80.5t-198.5 -224t-71 -324.5zM496 1593l247 242h70l248 -242l-47 -51l-236 219l-235 -219z" />
    <glyph glyph-name="Otilde" unicode="&#xd5;" horiz-adv-x="1554" 
d="M117 688q0 207 83.5 369.5t234.5 253t343 90.5q191 0 341.5 -90.5t234.5 -253t84 -369.5t-84 -369.5t-234.5 -253t-341.5 -90.5q-192 0 -343 90.5t-234.5 253t-83.5 369.5zM219 688q0 -181 71 -324.5t198.5 -224t289.5 -80.5q244 0 400.5 177t156.5 452t-156.5 452
t-400.5 177q-162 0 -289.5 -80.5t-198.5 -224t-71 -324.5zM647 1769q46 0 134.5 -39.5t121.5 -39.5q67 0 92 79l70 -22q-15 -59 -57.5 -95t-98.5 -36q-46 0 -134.5 39t-121.5 39q-32 0 -57 -20.5t-35 -57.5l-69 20q15 60 57 96.5t98 36.5z" />
    <glyph glyph-name="Odieresis" unicode="&#xd6;" horiz-adv-x="1554" 
d="M117 688q0 207 83.5 369.5t234.5 253t343 90.5q191 0 341.5 -90.5t234.5 -253t84 -369.5t-84 -369.5t-234.5 -253t-341.5 -90.5q-192 0 -343 90.5t-234.5 253t-83.5 369.5zM219 688q0 -181 71 -324.5t198.5 -224t289.5 -80.5q244 0 400.5 177t156.5 452t-156.5 452
t-400.5 177q-162 0 -289.5 -80.5t-198.5 -224t-71 -324.5zM500 1692q0 32 20.5 51.5t52.5 19.5t52 -19.5t20 -51.5t-20 -52t-52 -20t-52.5 20t-20.5 52zM911 1692q0 32 20 51.5t52 19.5q33 0 53.5 -19.5t20.5 -51.5t-21 -52t-53 -20t-52 20t-20 52z" />
    <glyph glyph-name="multiply" unicode="&#xd7;" horiz-adv-x="1179" 
d="M240 180l-60 60l350 350l-350 350l60 59l350 -350l350 350l59 -59l-350 -350l350 -350l-59 -60l-350 350z" />
    <glyph glyph-name="Oslash" unicode="&#xd8;" horiz-adv-x="1554" 
d="M117 688q0 207 83.5 369.5t234.5 253t343 90.5q228 0 393 -131l101 135l53 -43l-100 -133q102 -96 157.5 -235t55.5 -306q0 -207 -84 -369.5t-234.5 -253t-341.5 -90.5q-230 0 -395 131l-100 -135l-54 43l99 133q-101 96 -156 235t-55 306zM213 688q0 -143 44.5 -263
t127.5 -204l733 977q-140 121 -340 121q-164 0 -293 -80.5t-200.5 -224.5t-71.5 -326zM1341 688q0 143 -44.5 263t-127.5 204l-733 -979q144 -119 342 -119q247 0 405 177t158 454z" />
    <glyph glyph-name="Ugrave" unicode="&#xd9;" horiz-adv-x="1554" 
d="M1346 1376v-860q0 -156 -73.5 -280t-203.5 -192.5t-291 -68.5q-247 0 -408 152t-161 389v860h100v-856q0 -202 133 -331.5t336 -129.5q202 0 334.5 129.5t132.5 331.5v856h101zM563 1823l326 -226l-39 -57l-336 215z" />
    <glyph glyph-name="Uacute" unicode="&#xda;" horiz-adv-x="1554" 
d="M1346 1376v-860q0 -156 -73.5 -280t-203.5 -192.5t-291 -68.5q-247 0 -408 152t-161 389v860h100v-856q0 -202 133 -331.5t336 -129.5q202 0 334.5 129.5t132.5 331.5v856h101zM1049 1755l-336 -215l-41 57l327 226z" />
    <glyph glyph-name="Ucircumflex" unicode="&#xdb;" horiz-adv-x="1554" 
d="M1346 1376v-860q0 -156 -73.5 -280t-203.5 -192.5t-291 -68.5q-247 0 -408 152t-161 389v860h100v-856q0 -202 133 -331.5t336 -129.5q202 0 334.5 129.5t132.5 331.5v856h101zM496 1593l247 242h70l248 -242l-47 -51l-236 219l-235 -219z" />
    <glyph glyph-name="Udieresis" unicode="&#xdc;" horiz-adv-x="1554" 
d="M1346 1376v-860q0 -156 -73.5 -280t-203.5 -192.5t-291 -68.5q-247 0 -408 152t-161 389v860h100v-856q0 -202 133 -331.5t336 -129.5q202 0 334.5 129.5t132.5 331.5v856h101zM500 1692q0 32 20.5 51.5t52.5 19.5t52 -19.5t20 -51.5t-20 -52t-52 -20t-52.5 20t-20.5 52z
M911 1692q0 32 20 51.5t52 19.5q33 0 53.5 -19.5t20.5 -51.5t-21 -52t-53 -20t-52 20t-20 52z" />
    <glyph glyph-name="Yacute" unicode="&#xdd;" horiz-adv-x="1204" 
d="M551 0v604l-506 772h113l444 -680l442 680h115l-508 -772v-604h-100zM872 1755l-335 -215l-41 57l327 226z" />
    <glyph glyph-name="Thorn" unicode="&#xde;" horiz-adv-x="1257" 
d="M225 0v1376h99v-256h389q195 0 319.5 -116t124.5 -299t-124.5 -299.5t-319.5 -116.5h-389v-289h-99zM324 1038v-667h378q156 0 255.5 93.5t99.5 240.5t-99.5 240t-255.5 93h-378z" />
    <glyph glyph-name="germandbls" unicode="&#xdf;" horiz-adv-x="1236" 
d="M643 735q0 52 19 98.5t46 81.5l54 70t46 79.5t19 94.5q0 97 -72.5 162t-189.5 65q-132 0 -211.5 -81.5t-79.5 -219.5v-1085h-96v1090q0 172 107.5 274t283.5 102q157 0 257 -87.5t100 -217.5q0 -57 -19 -106.5t-46 -85t-54.5 -69.5t-46.5 -75t-19 -86q0 -49 22.5 -87.5
t58.5 -64t79.5 -48t87 -48t79.5 -56t58.5 -79t22.5 -110.5q0 -123 -92 -197t-240 -74q-130 0 -278 68l28 76q134 -64 244 -64q109 0 176.5 51.5t67.5 139.5q0 50 -22.5 88.5t-59 64t-80.5 48.5t-88 48t-80.5 55t-59 77t-22.5 108z" />
    <glyph glyph-name="agrave" unicode="&#xe0;" horiz-adv-x="1099" 
d="M102 264q0 153 119 238.5t330 85.5q118 0 240 -29v131q0 109 -74 176.5t-193 67.5q-159 0 -331 -72l-27 74q187 78 366 78q157 0 256 -90.5t99 -233.5v-532q0 -47 27.5 -75t74.5 -28q26 0 58 8l10 -77q-49 -11 -88 -11q-74 0 -121 46t-47 122v37q-49 -97 -145 -151
t-216 -54q-145 0 -241.5 82.5t-96.5 206.5zM201 268q0 -92 74.5 -154.5t183.5 -62.5q149 0 240.5 94.5t91.5 247.5v99q-123 30 -232 30q-169 0 -263.5 -67t-94.5 -187zM317 1436l326 -226l-39 -57l-336 215z" />
    <glyph glyph-name="aacute" unicode="&#xe1;" horiz-adv-x="1099" 
d="M102 264q0 153 119 238.5t330 85.5q118 0 240 -29v131q0 109 -74 176.5t-193 67.5q-159 0 -331 -72l-27 74q187 78 366 78q157 0 256 -90.5t99 -233.5v-532q0 -47 27.5 -75t74.5 -28q26 0 58 8l10 -77q-49 -11 -88 -11q-74 0 -121 46t-47 122v37q-49 -97 -145 -151
t-216 -54q-145 0 -241.5 82.5t-96.5 206.5zM201 268q0 -92 74.5 -154.5t183.5 -62.5q149 0 240.5 94.5t91.5 247.5v99q-123 30 -232 30q-169 0 -263.5 -67t-94.5 -187zM803 1368l-336 -215l-41 57l328 226z" />
    <glyph glyph-name="acircumflex" unicode="&#xe2;" horiz-adv-x="1099" 
d="M102 264q0 153 119 238.5t330 85.5q118 0 240 -29v131q0 109 -74 176.5t-193 67.5q-159 0 -331 -72l-27 74q187 78 366 78q157 0 256 -90.5t99 -233.5v-532q0 -47 27.5 -75t74.5 -28q26 0 58 8l10 -77q-49 -11 -88 -11q-74 0 -121 46t-47 122v37q-49 -97 -145 -151
t-216 -54q-145 0 -241.5 82.5t-96.5 206.5zM201 268q0 -92 74.5 -154.5t183.5 -62.5q149 0 240.5 94.5t91.5 247.5v99q-123 30 -232 30q-169 0 -263.5 -67t-94.5 -187zM250 1206l248 242h69l248 -242l-47 -51l-236 219l-235 -219z" />
    <glyph glyph-name="atilde" unicode="&#xe3;" horiz-adv-x="1099" 
d="M102 264q0 153 119 238.5t330 85.5q118 0 240 -29v131q0 109 -74 176.5t-193 67.5q-159 0 -331 -72l-27 74q187 78 366 78q157 0 256 -90.5t99 -233.5v-532q0 -47 27.5 -75t74.5 -28q26 0 58 8l10 -77q-49 -11 -88 -11q-74 0 -121 46t-47 122v37q-49 -97 -145 -151
t-216 -54q-145 0 -241.5 82.5t-96.5 206.5zM201 268q0 -92 74.5 -154.5t183.5 -62.5q149 0 240.5 94.5t91.5 247.5v99q-123 30 -232 30q-169 0 -263.5 -67t-94.5 -187zM401 1382q46 0 134.5 -39.5t121.5 -39.5q68 0 93 79l69 -22q-15 -59 -57 -95t-98 -36q-46 0 -134.5 39
t-121.5 39t-58 -21t-35 -57l-69 20q15 60 57 96.5t98 36.5z" />
    <glyph glyph-name="adieresis" unicode="&#xe4;" horiz-adv-x="1099" 
d="M102 264q0 153 119 238.5t330 85.5q118 0 240 -29v131q0 109 -74 176.5t-193 67.5q-159 0 -331 -72l-27 74q187 78 366 78q157 0 256 -90.5t99 -233.5v-532q0 -47 27.5 -75t74.5 -28q26 0 58 8l10 -77q-49 -11 -88 -11q-74 0 -121 46t-47 122v37q-49 -97 -145 -151
t-216 -54q-145 0 -241.5 82.5t-96.5 206.5zM201 268q0 -92 74.5 -154.5t183.5 -62.5q149 0 240.5 94.5t91.5 247.5v99q-123 30 -232 30q-169 0 -263.5 -67t-94.5 -187zM254 1305q0 32 20.5 51.5t53.5 19.5q32 0 51.5 -19.5t19.5 -51.5t-19.5 -52t-51.5 -20t-53 20t-21 52z
M666 1305q0 32 19.5 51.5t51.5 19.5q33 0 53.5 -19.5t20.5 -51.5t-21 -52t-53 -20t-51.5 20t-19.5 52z" />
    <glyph glyph-name="aring" unicode="&#xe5;" horiz-adv-x="1099" 
d="M102 264q0 153 119 238.5t330 85.5q118 0 240 -29v131q0 109 -74 176.5t-193 67.5q-159 0 -331 -72l-27 74q187 78 366 78q157 0 256 -90.5t99 -233.5v-532q0 -47 27.5 -75t74.5 -28q26 0 58 8l10 -77q-49 -11 -88 -11q-74 0 -121 46t-47 122v37q-49 -97 -145 -151
t-216 -54q-145 0 -241.5 82.5t-96.5 206.5zM201 268q0 -92 74.5 -154.5t183.5 -62.5q149 0 240.5 94.5t91.5 247.5v99q-123 30 -232 30q-169 0 -263.5 -67t-94.5 -187zM340 1305q0 84 53.5 136t138.5 52t139 -52t54 -136t-52 -136.5t-136 -52.5q-86 0 -141.5 53t-55.5 136z
M399 1305q0 -60 39 -97t99 -37q57 0 93 37t36 97t-37.5 96.5t-96.5 36.5q-60 0 -96.5 -36.5t-36.5 -96.5z" />
    <glyph glyph-name="ae" unicode="&#xe6;" horiz-adv-x="1769" 
d="M102 262q0 155 118.5 240.5t330.5 85.5q118 0 240 -29v131q0 109 -74 176.5t-193 67.5q-159 0 -331 -72l-27 74q187 78 366 78q133 0 224 -65t108 -171q51 111 153 173.5t236 62.5q190 0 310 -139.5t120 -360.5q0 -29 -2 -41h-794q8 -187 120.5 -303.5t286.5 -116.5
q145 0 305 86l35 -71q-179 -93 -348 -93q-150 0 -266.5 76.5t-175.5 212.5q-34 -132 -142.5 -210.5t-257.5 -78.5q-146 0 -244 82t-98 205zM1253 934q-155 0 -255 -108t-111 -285h700q-3 175 -95.5 284t-238.5 109zM201 268q0 -92 74.5 -154.5t183.5 -62.5q148 0 240 95
t92 247v99q-123 30 -232 30q-169 0 -263.5 -67t-94.5 -187z" />
    <glyph glyph-name="ccedilla" unicode="&#xe7;" horiz-adv-x="995" 
d="M102 494q0 229 134.5 374.5t345.5 145.5q175 0 331 -111l-43 -69q-134 96 -278 96q-171 0 -280 -121.5t-109 -314.5q0 -192 109 -313.5t280 -121.5q143 0 278 97l43 -72q-142 -101 -301 -107l-20 -108q67 -6 111.5 -51t44.5 -107q0 -71 -58.5 -116.5t-148.5 -45.5
q-91 0 -176 33l22 64q82 -29 145 -29q56 0 94 27t38 75q0 44 -38 72.5t-98 28.5h-18l29 157q-194 14 -315.5 156.5t-121.5 360.5z" />
    <glyph glyph-name="egrave" unicode="&#xe8;" horiz-adv-x="1083" 
d="M102 494q0 229 129.5 374.5t333.5 145.5q190 0 310 -139.5t120 -360.5v-41h-794q6 -186 119 -303t288 -117q141 0 305 86l33 -71q-179 -93 -348 -93q-217 0 -356.5 146t-139.5 373zM565 934q-154 0 -253.5 -108t-110.5 -285h700q-3 175 -96 284t-240 109zM350 1436
l326 -226l-39 -57l-336 215z" />
    <glyph glyph-name="eacute" unicode="&#xe9;" horiz-adv-x="1083" 
d="M102 494q0 229 129.5 374.5t333.5 145.5q190 0 310 -139.5t120 -360.5v-41h-794q6 -186 119 -303t288 -117q141 0 305 86l33 -71q-179 -93 -348 -93q-217 0 -356.5 146t-139.5 373zM565 934q-154 0 -253.5 -108t-110.5 -285h700q-3 175 -96 284t-240 109zM836 1368
l-336 -215l-41 57l327 226z" />
    <glyph glyph-name="ecircumflex" unicode="&#xea;" horiz-adv-x="1083" 
d="M102 494q0 229 129.5 374.5t333.5 145.5q190 0 310 -139.5t120 -360.5v-41h-794q6 -186 119 -303t288 -117q141 0 305 86l33 -71q-179 -93 -348 -93q-217 0 -356.5 146t-139.5 373zM565 934q-154 0 -253.5 -108t-110.5 -285h700q-3 175 -96 284t-240 109zM283 1206
l247 242h70l248 -242l-47 -51l-236 219l-235 -219z" />
    <glyph glyph-name="edieresis" unicode="&#xeb;" horiz-adv-x="1083" 
d="M102 494q0 229 129.5 374.5t333.5 145.5q190 0 310 -139.5t120 -360.5v-41h-794q6 -186 119 -303t288 -117q141 0 305 86l33 -71q-179 -93 -348 -93q-217 0 -356.5 146t-139.5 373zM565 934q-154 0 -253.5 -108t-110.5 -285h700q-3 175 -96 284t-240 109zM287 1305
q0 32 20.5 51.5t52.5 19.5t52 -19.5t20 -51.5t-20 -52t-52 -20t-52.5 20t-20.5 52zM698 1305q0 32 20 51.5t52 19.5q33 0 53.5 -19.5t20.5 -51.5t-21 -52t-53 -20t-52 20t-20 52z" />
    <glyph glyph-name="igrave" unicode="&#xec;" horiz-adv-x="454" 
d="M178 0v989h98v-989h-98zM12 1436l326 -226l-39 -57l-336 215z" />
    <glyph glyph-name="iacute" unicode="&#xed;" horiz-adv-x="454" 
d="M178 0v989h98v-989h-98zM498 1368l-336 -215l-41 57l328 226z" />
    <glyph glyph-name="icircumflex" unicode="&#xee;" horiz-adv-x="454" 
d="M178 0v989h98v-989h-98zM-55 1206l248 242h69l248 -242l-47 -51l-236 219l-235 -219z" />
    <glyph glyph-name="idieresis" unicode="&#xef;" horiz-adv-x="454" 
d="M178 0v989h98v-989h-98zM-51 1305q0 32 20.5 51.5t53.5 19.5q32 0 51.5 -19.5t19.5 -51.5t-19.5 -52t-51.5 -20t-53 20t-21 52zM360 1305q0 32 20 51.5t52 19.5q33 0 53.5 -19.5t20.5 -51.5t-21 -52t-53 -20t-52 20t-20 52z" />
    <glyph glyph-name="eth" unicode="&#xf0;" 
d="M102 494q0 225 128 368.5t327 143.5q106 0 187 -35.5t151 -118.5q-87 261 -307 412l-269 -134l-30 60l229 113q-89 54 -196 94l26 69q148 -48 260 -118l244 118l29 -57l-209 -104q162 -121 259 -292t116 -372q5 -55 2 -123q-6 -241 -141 -392t-343 -151
q-203 0 -333 145.5t-130 373.5zM199 489q0 -192 103.5 -314t266.5 -122q168 0 275.5 129.5t107.5 333.5q0 181 -107.5 295.5t-275.5 114.5q-163 0 -266.5 -122t-103.5 -315z" />
    <glyph glyph-name="ntilde" unicode="&#xf1;" 
d="M178 0v989h80l12 -207q49 109 147.5 170.5t221.5 61.5q161 0 265 -101.5t104 -259.5v-653h-99v641q0 127 -82.5 208t-210.5 81q-147 0 -243.5 -101.5t-96.5 -261.5v-567h-98zM455 1382q46 0 134.5 -39.5t121.5 -39.5q67 0 92 79l69 -22q-15 -59 -57 -95t-98 -36
q-46 0 -134.5 39t-121.5 39q-32 0 -57 -20.5t-35 -57.5l-70 20q15 59 57.5 96t98.5 37z" />
    <glyph glyph-name="ograve" unicode="&#xf2;" 
d="M102 494q0 229 136 374.5t348 145.5t346.5 -145.5t134.5 -374.5q0 -228 -134.5 -373.5t-346.5 -145.5t-348 146t-136 373zM203 494q0 -192 107 -314.5t276 -122.5q167 0 275 122.5t108 314.5q0 193 -107.5 315.5t-275.5 122.5q-169 0 -276 -122.5t-107 -315.5zM371 1436
l325 -226l-39 -57l-335 215z" />
    <glyph glyph-name="oacute" unicode="&#xf3;" 
d="M102 494q0 229 136 374.5t348 145.5t346.5 -145.5t134.5 -374.5q0 -228 -134.5 -373.5t-346.5 -145.5t-348 146t-136 373zM203 494q0 -192 107 -314.5t276 -122.5q167 0 275 122.5t108 314.5q0 193 -107.5 315.5t-275.5 122.5q-169 0 -276 -122.5t-107 -315.5zM856 1368
l-336 -215l-41 57l328 226z" />
    <glyph glyph-name="ocircumflex" unicode="&#xf4;" 
d="M102 494q0 229 136 374.5t348 145.5t346.5 -145.5t134.5 -374.5q0 -228 -134.5 -373.5t-346.5 -145.5t-348 146t-136 373zM203 494q0 -192 107 -314.5t276 -122.5q167 0 275 122.5t108 314.5q0 193 -107.5 315.5t-275.5 122.5q-169 0 -276 -122.5t-107 -315.5zM303 1206
l248 242h70l247 -242l-47 -51l-235 219l-236 -219z" />
    <glyph glyph-name="otilde" unicode="&#xf5;" 
d="M102 494q0 229 136 374.5t348 145.5t346.5 -145.5t134.5 -374.5q0 -228 -134.5 -373.5t-346.5 -145.5t-348 146t-136 373zM203 494q0 -192 107 -314.5t276 -122.5q167 0 275 122.5t108 314.5q0 193 -107.5 315.5t-275.5 122.5q-169 0 -276 -122.5t-107 -315.5zM455 1382
q46 0 134.5 -39.5t121.5 -39.5q67 0 92 79l69 -22q-15 -59 -57 -95t-98 -36q-46 0 -134.5 39t-121.5 39q-32 0 -57 -20.5t-35 -57.5l-70 20q15 59 57.5 96t98.5 37z" />
    <glyph glyph-name="odieresis" unicode="&#xf6;" 
d="M102 494q0 229 136 374.5t348 145.5t346.5 -145.5t134.5 -374.5q0 -228 -134.5 -373.5t-346.5 -145.5t-348 146t-136 373zM203 494q0 -192 107 -314.5t276 -122.5q167 0 275 122.5t108 314.5q0 193 -107.5 315.5t-275.5 122.5q-169 0 -276 -122.5t-107 -315.5zM307 1305
q0 32 20.5 51.5t53.5 19.5q32 0 52 -19.5t20 -51.5t-20 -52t-52 -20t-53 20t-21 52zM719 1305q0 32 20 51.5t52 19.5t52.5 -19.5t20.5 -51.5t-20.5 -52t-52.5 -20t-52 20t-20 52z" />
    <glyph glyph-name="divide" unicode="&#xf7;" horiz-adv-x="1179" 
d="M119 549v82h942v-82h-942zM524 983q0 29 18.5 47.5t47.5 18.5q30 0 47.5 -17.5t17.5 -48.5q0 -29 -18 -47t-47 -18t-47.5 18t-18.5 47zM524 197q0 29 18.5 47t47.5 18t47 -18t18 -47t-18 -47.5t-47 -18.5t-47.5 18.5t-18.5 47.5z" />
    <glyph glyph-name="oslash" unicode="&#xf8;" 
d="M102 494q0 229 136 374.5t348 145.5q157 0 280 -92l72 94l49 -39l-72 -94q152 -149 152 -389q0 -228 -134.5 -373.5t-346.5 -145.5q-164 0 -281 93l-72 -95l-49 39l70 90q-152 149 -152 392zM197 494q0 -197 112 -318l506 678q-96 80 -229 80q-172 0 -280.5 -122.5
t-108.5 -317.5zM975 494q0 194 -113 317l-508 -676q98 -82 232 -82q170 0 279.5 124t109.5 317z" />
    <glyph glyph-name="ugrave" unicode="&#xf9;" 
d="M991 989v-989h-80l-12 205q-47 -108 -145 -169t-222 -61q-161 0 -265.5 101.5t-104.5 259.5v653h98v-641q0 -127 83 -208t212 -81q147 0 242.5 101.5t95.5 261.5v567h98zM371 1436l325 -226l-39 -57l-335 215z" />
    <glyph glyph-name="uacute" unicode="&#xfa;" 
d="M991 989v-989h-80l-12 205q-47 -108 -145 -169t-222 -61q-161 0 -265.5 101.5t-104.5 259.5v653h98v-641q0 -127 83 -208t212 -81q147 0 242.5 101.5t95.5 261.5v567h98zM856 1368l-336 -215l-41 57l328 226z" />
    <glyph glyph-name="ucircumflex" unicode="&#xfb;" 
d="M991 989v-989h-80l-12 205q-47 -108 -145 -169t-222 -61q-161 0 -265.5 101.5t-104.5 259.5v653h98v-641q0 -127 83 -208t212 -81q147 0 242.5 101.5t95.5 261.5v567h98zM303 1206l248 242h70l247 -242l-47 -51l-235 219l-236 -219z" />
    <glyph glyph-name="udieresis" unicode="&#xfc;" 
d="M991 989v-989h-80l-12 205q-47 -108 -145 -169t-222 -61q-161 0 -265.5 101.5t-104.5 259.5v653h98v-641q0 -127 83 -208t212 -81q147 0 242.5 101.5t95.5 261.5v567h98zM307 1305q0 32 20.5 51.5t53.5 19.5q32 0 52 -19.5t20 -51.5t-20 -52t-52 -20t-53 20t-21 52z
M719 1305q0 32 20 51.5t52 19.5t52.5 -19.5t20.5 -51.5t-20.5 -52t-52.5 -20t-52 20t-20 52z" />
    <glyph glyph-name="yacute" unicode="&#xfd;" horiz-adv-x="1040" 
d="M975 989l-471 -1161q-59 -148 -130.5 -213.5t-178.5 -65.5q-47 0 -127 17l16 82q59 -15 104 -15q79 0 130.5 49t97.5 166l63 158l-416 983h103l360 -872l346 872h103zM791 1368l-336 -215l-41 57l327 226z" />
    <glyph glyph-name="thorn" unicode="&#xfe;" 
d="M178 -426v1868h98v-637q53 100 143.5 154.5t207.5 54.5q192 0 316 -146t124 -374q0 -227 -124 -373t-316 -146q-117 0 -207.5 54.5t-143.5 154.5v-610h-98zM969 494q0 192 -102.5 315t-260.5 123q-146 0 -239 -98t-93 -250v-178q0 -153 93 -251t239 -98q158 0 260.5 123
t102.5 314z" />
    <glyph glyph-name="ydieresis" unicode="&#xff;" horiz-adv-x="1040" 
d="M975 989l-471 -1161q-59 -148 -130.5 -213.5t-178.5 -65.5q-47 0 -127 17l16 82q59 -15 104 -15q79 0 130.5 49t97.5 166l63 158l-416 983h103l360 -872l346 872h103zM242 1305q0 32 20.5 51.5t52.5 19.5t52 -19.5t20 -51.5t-20 -52t-52 -20t-52.5 20t-20.5 52zM653 1305
q0 32 20 51.5t52 19.5q33 0 53.5 -19.5t20.5 -51.5t-21 -52t-53 -20t-52 20t-20 52z" />
    <glyph glyph-name="Amacron" unicode="&#x100;" horiz-adv-x="1357" 
d="M61 0l570 1376h96l569 -1376h-104l-168 410h-690l-168 -410h-105zM680 1255l-315 -766h628zM389 1655v74h582v-74h-582z" />
    <glyph glyph-name="amacron" unicode="&#x101;" horiz-adv-x="1099" 
d="M102 264q0 153 119 238.5t330 85.5q118 0 240 -29v131q0 109 -74 176.5t-193 67.5q-159 0 -331 -72l-27 74q187 78 366 78q157 0 256 -90.5t99 -233.5v-532q0 -47 27.5 -75t74.5 -28q26 0 58 8l10 -77q-49 -11 -88 -11q-74 0 -121 46t-47 122v37q-49 -97 -145 -151
t-216 -54q-145 0 -241.5 82.5t-96.5 206.5zM201 268q0 -92 74.5 -154.5t183.5 -62.5q149 0 240.5 94.5t91.5 247.5v99q-123 30 -232 30q-169 0 -263.5 -67t-94.5 -187zM242 1268v73h581v-73h-581z" />
    <glyph glyph-name="Abreve" unicode="&#x102;" horiz-adv-x="1357" 
d="M61 0l570 1376h96l569 -1376h-104l-168 410h-690l-168 -410h-105zM680 1255l-315 -766h628zM397 1802h72q4 -86 63.5 -140t147.5 -54t147.5 54t63.5 140h72q-4 -120 -83.5 -195t-199.5 -75t-199.5 75t-83.5 195z" />
    <glyph glyph-name="abreve" unicode="&#x103;" horiz-adv-x="1099" 
d="M102 264q0 153 119 238.5t330 85.5q118 0 240 -29v131q0 109 -74 176.5t-193 67.5q-159 0 -331 -72l-27 74q187 78 366 78q157 0 256 -90.5t99 -233.5v-532q0 -47 27.5 -75t74.5 -28q26 0 58 8l10 -77q-49 -11 -88 -11q-74 0 -121 46t-47 122v37q-49 -97 -145 -151
t-216 -54q-145 0 -241.5 82.5t-96.5 206.5zM201 268q0 -92 74.5 -154.5t183.5 -62.5q149 0 240.5 94.5t91.5 247.5v99q-123 30 -232 30q-169 0 -263.5 -67t-94.5 -187zM250 1415h72q4 -86 63 -140t147 -54t147.5 54t63.5 140h72q-4 -120 -83.5 -195t-199.5 -75
q-119 0 -198.5 74.5t-83.5 195.5z" />
    <glyph glyph-name="Aogonek" unicode="&#x104;" horiz-adv-x="1372" 
d="M61 0l570 1376h96l569 -1376q-200 -155 -200 -276q0 -49 32 -78t78 -29q48 0 92 21l17 -64q-64 -25 -125 -25q-74 0 -123 43.5t-49 116.5q0 141 190 291h-16l-168 410h-690l-168 -410h-105zM680 1255l-315 -766h628z" />
    <glyph glyph-name="aogonek" unicode="&#x105;" horiz-adv-x="1099" 
d="M102 264q0 153 119 238.5t330 85.5q118 0 240 -29v131q0 109 -74 176.5t-193 67.5q-159 0 -331 -72l-27 74q187 78 366 78q157 0 256 -90.5t99 -233.5v-532q0 -47 27.5 -75t74.5 -28q26 0 58 8l10 -77q-201 -150 -201 -262q0 -49 32 -78t79 -29t90 21l18 -64
q-64 -25 -127 -25q-73 0 -121.5 43.5t-48.5 116.5q0 131 178 266q-70 5 -112.5 50t-42.5 118v37q-49 -97 -145 -151t-216 -54q-145 0 -241.5 82.5t-96.5 206.5zM201 268q0 -92 74.5 -154.5t183.5 -62.5q149 0 240.5 94.5t91.5 247.5v99q-123 30 -232 30q-169 0 -263.5 -67
t-94.5 -187z" />
    <glyph glyph-name="Cacute" unicode="&#x106;" horiz-adv-x="1316" 
d="M117 688q0 156 48.5 289t134 226t208 145.5t266.5 52.5q234 0 447 -148l-45 -71q-187 133 -392 133q-252 0 -408.5 -173.5t-156.5 -453.5t156.5 -453.5t408.5 -173.5q203 0 392 134l45 -72q-213 -148 -447 -148q-291 0 -474 199t-183 514zM1026 1755l-336 -215l-41 57
l328 226z" />
    <glyph glyph-name="cacute" unicode="&#x107;" horiz-adv-x="995" 
d="M102 494q0 229 134.5 374.5t345.5 145.5q175 0 331 -111l-43 -69q-134 96 -278 96q-171 0 -280 -121.5t-109 -314.5q0 -192 109 -313.5t280 -121.5q143 0 278 97l43 -72q-157 -109 -331 -109q-211 0 -345.5 146t-134.5 373zM834 1368l-336 -215l-41 57l327 226z" />
    <glyph glyph-name="Ccircumflex" unicode="&#x108;" horiz-adv-x="1316" 
d="M117 688q0 156 48.5 289t134 226t208 145.5t266.5 52.5q234 0 447 -148l-45 -71q-187 133 -392 133q-252 0 -408.5 -173.5t-156.5 -453.5t156.5 -453.5t408.5 -173.5q203 0 392 134l45 -72q-213 -148 -447 -148q-291 0 -474 199t-183 514zM473 1593l248 242h70l247 -242
l-47 -51l-235 219l-236 -219z" />
    <glyph glyph-name="ccircumflex" unicode="&#x109;" horiz-adv-x="995" 
d="M102 494q0 229 134.5 374.5t345.5 145.5q175 0 331 -111l-43 -69q-134 96 -278 96q-171 0 -280 -121.5t-109 -314.5q0 -192 109 -313.5t280 -121.5q143 0 278 97l43 -72q-157 -109 -331 -109q-211 0 -345.5 146t-134.5 373zM281 1206l247 242h70l248 -242l-47 -51
l-236 219l-235 -219z" />
    <glyph glyph-name="Cdotaccent" unicode="&#x10a;" horiz-adv-x="1316" 
d="M117 688q0 156 48.5 289t134 226t208 145.5t266.5 52.5q234 0 447 -148l-45 -71q-187 133 -392 133q-252 0 -408.5 -173.5t-156.5 -453.5t156.5 -453.5t408.5 -173.5q203 0 392 134l45 -72q-213 -148 -447 -148q-291 0 -474 199t-183 514zM680 1692q0 34 21 54.5t55 20.5
t54.5 -20.5t20.5 -54.5t-20.5 -55t-54.5 -21t-55 21t-21 55z" />
    <glyph glyph-name="cdotaccent" unicode="&#x10b;" horiz-adv-x="995" 
d="M102 494q0 229 134.5 374.5t345.5 145.5q175 0 331 -111l-43 -69q-134 96 -278 96q-171 0 -280 -121.5t-109 -314.5q0 -192 109 -313.5t280 -121.5q143 0 278 97l43 -72q-157 -109 -331 -109q-211 0 -345.5 146t-134.5 373zM487 1305q0 34 21 54.5t55 20.5t55 -20.5
t21 -54.5t-21 -55t-55 -21t-55 21t-21 55z" />
    <glyph glyph-name="Ccaron" unicode="&#x10c;" horiz-adv-x="1316" 
d="M117 688q0 156 48.5 289t134 226t208 145.5t266.5 52.5q234 0 447 -148l-45 -71q-187 133 -392 133q-252 0 -408.5 -173.5t-156.5 -453.5t156.5 -453.5t408.5 -173.5q203 0 392 134l45 -72q-213 -148 -447 -148q-291 0 -474 199t-183 514zM1038 1792l-247 -244h-70
l-248 244l47 49l236 -217l235 217z" />
    <glyph glyph-name="ccaron" unicode="&#x10d;" horiz-adv-x="995" 
d="M102 494q0 229 134.5 374.5t345.5 145.5q175 0 331 -111l-43 -69q-134 96 -278 96q-171 0 -280 -121.5t-109 -314.5q0 -192 109 -313.5t280 -121.5q143 0 278 97l43 -72q-157 -109 -331 -109q-211 0 -345.5 146t-134.5 373zM846 1405l-248 -244h-70l-247 244l47 49
l235 -217l236 217z" />
    <glyph glyph-name="Dcaron" unicode="&#x10e;" horiz-adv-x="1456" 
d="M225 0v1376h422q309 0 500.5 -190.5t191.5 -497.5q0 -305 -192 -496.5t-500 -191.5h-422zM1237 688q0 267 -167.5 435.5t-432.5 168.5h-311v-1208h311q265 0 432.5 168.5t167.5 435.5zM979 1792l-248 -244h-69l-248 244l47 49l235 -217l236 217z" />
    <glyph glyph-name="dcaron" unicode="&#x10f;" horiz-adv-x="1318" 
d="M991 1442v-1442h-80l-12 188q-53 -102 -144.5 -157.5t-209.5 -55.5q-194 0 -318.5 146t-124.5 373q0 228 124.5 374t318.5 146q117 0 207 -54.5t141 -154.5v637h98zM203 494q0 -191 101 -314t259 -123q147 0 239.5 98t92.5 251v178q0 153 -92.5 250.5t-239.5 97.5
q-158 0 -259 -123t-101 -315zM1350 1460l-140 -330l-69 25l131 334z" />
    <glyph glyph-name="Dcroat" unicode="&#x110;" horiz-adv-x="1488" 
d="M258 0v664h-199v81h199v631h422q309 0 500.5 -190.5t191.5 -497.5q0 -305 -192 -496.5t-500 -191.5h-422zM1274 688q0 267 -167.5 435.5t-432.5 168.5h-318v-547h383v-81h-383v-580h318q265 0 432.5 168.5t167.5 435.5z" />
    <glyph glyph-name="dcroat" unicode="&#x111;" 
d="M991 1442v-178h152v-76h-152v-1188h-80l-12 188q-53 -102 -144.5 -157.5t-209.5 -55.5q-194 0 -318.5 146t-124.5 373q0 228 124.5 374t318.5 146q117 0 207 -54.5t141 -154.5v383h-375v76h375v178h98zM203 494q0 -191 101 -314t259 -123q147 0 239.5 98t92.5 251v178
q0 153 -92.5 250.5t-239.5 97.5q-158 0 -259 -123t-101 -315z" />
    <glyph glyph-name="Emacron" unicode="&#x112;" horiz-adv-x="1218" 
d="M225 0v1376h842v-82h-741v-549h675v-81h-675v-582h774v-82h-875zM334 1655v74h581v-74h-581z" />
    <glyph glyph-name="emacron" unicode="&#x113;" horiz-adv-x="1083" 
d="M102 494q0 229 129.5 374.5t333.5 145.5q190 0 310 -139.5t120 -360.5v-41h-794q6 -186 119 -303t288 -117q141 0 305 86l33 -71q-179 -93 -348 -93q-217 0 -356.5 146t-139.5 373zM565 934q-154 0 -253.5 -108t-110.5 -285h700q-3 175 -96 284t-240 109zM274 1268v73
h582v-73h-582z" />
    <glyph glyph-name="Ebreve" unicode="&#x114;" horiz-adv-x="1218" 
d="M225 0v1376h842v-82h-741v-549h675v-81h-675v-582h774v-82h-875zM334 1802h72q4 -86 63 -140t147 -54t147.5 54t63.5 140h72q-4 -120 -83.5 -195t-199.5 -75q-119 0 -198.5 74.5t-83.5 195.5z" />
    <glyph glyph-name="ebreve" unicode="&#x115;" horiz-adv-x="1083" 
d="M102 494q0 229 129.5 374.5t333.5 145.5q190 0 310 -139.5t120 -360.5v-41h-794q6 -186 119 -303t288 -117q141 0 305 86l33 -71q-179 -93 -348 -93q-217 0 -356.5 146t-139.5 373zM565 934q-154 0 -253.5 -108t-110.5 -285h700q-3 175 -96 284t-240 109zM272 1415h72
q4 -86 63.5 -140t147.5 -54t147.5 54t63.5 140h72q-4 -120 -83.5 -195t-199.5 -75t-199.5 75t-83.5 195z" />
    <glyph glyph-name="Edotaccent" unicode="&#x116;" horiz-adv-x="1218" 
d="M225 0v1376h842v-82h-741v-549h675v-81h-675v-582h774v-82h-875zM549 1692q0 34 21 54.5t55 20.5t54.5 -20.5t20.5 -54.5t-20.5 -55t-54.5 -21t-55 21t-21 55z" />
    <glyph glyph-name="edotaccent" unicode="&#x117;" horiz-adv-x="1083" 
d="M102 494q0 229 129.5 374.5t333.5 145.5q190 0 310 -139.5t120 -360.5v-41h-794q6 -186 119 -303t288 -117q141 0 305 86l33 -71q-179 -93 -348 -93q-217 0 -356.5 146t-139.5 373zM565 934q-154 0 -253.5 -108t-110.5 -285h700q-3 175 -96 284t-240 109zM489 1305
q0 34 21 54.5t55 20.5t55 -20.5t21 -54.5t-21 -55t-55 -21t-55 21t-21 55z" />
    <glyph glyph-name="Eogonek" unicode="&#x118;" horiz-adv-x="1218" 
d="M225 0v1376h842v-82h-741v-549h675v-81h-675v-582h774v-82q-201 -156 -201 -276q0 -49 32.5 -78t78.5 -29q48 0 92 21l16 -64q-64 -25 -125 -25q-74 0 -123 43.5t-49 116.5q0 140 191 291h-787z" />
    <glyph glyph-name="eogonek" unicode="&#x119;" horiz-adv-x="1083" 
d="M102 494q0 229 129.5 374.5t333.5 145.5q190 0 310 -139.5t120 -360.5v-41h-794q6 -186 119 -303t288 -117q141 0 305 86l33 -71q-217 -184 -217 -328q0 -57 32.5 -90t80.5 -33q42 0 86 21l18 -64q-67 -25 -121 -25q-74 0 -125 48t-51 127q0 142 160 286
q-116 -35 -211 -35q-217 0 -356.5 146t-139.5 373zM565 934q-154 0 -253.5 -108t-110.5 -285h700q-3 175 -96 284t-240 109z" />
    <glyph glyph-name="Ecaron" unicode="&#x11a;" horiz-adv-x="1218" 
d="M225 0v1376h842v-82h-741v-549h675v-81h-675v-582h774v-82h-875zM907 1792l-248 -244h-69l-248 244l47 49l236 -217l235 217z" />
    <glyph glyph-name="ecaron" unicode="&#x11b;" horiz-adv-x="1083" 
d="M102 494q0 229 129.5 374.5t333.5 145.5q190 0 310 -139.5t120 -360.5v-41h-794q6 -186 119 -303t288 -117q141 0 305 86l33 -71q-179 -93 -348 -93q-217 0 -356.5 146t-139.5 373zM565 934q-154 0 -253.5 -108t-110.5 -285h700q-3 175 -96 284t-240 109zM848 1405
l-248 -244h-70l-247 244l47 49l235 -217l236 217z" />
    <glyph glyph-name="Gcircumflex" unicode="&#x11c;" horiz-adv-x="1423" 
d="M1272 684v-600q-237 -109 -465 -109q-201 0 -358.5 90.5t-244.5 253t-87 369.5q0 155 49.5 287.5t137.5 226t213.5 146.5t273.5 53q224 0 462 -133l-41 -74q-217 123 -411 123q-259 0 -422.5 -175.5t-163.5 -453.5q0 -182 75.5 -325.5t212 -223.5t310.5 -80q194 0 365 80
v465h-371v80h465zM494 1593l247 242h70l248 -242l-47 -51l-236 219l-235 -219z" />
    <glyph glyph-name="gcircumflex" unicode="&#x11d;" 
d="M991 989v-1030q0 -180 -129 -295t-330 -115q-170 0 -366 84l31 78q186 -80 329 -80q161 0 264 91t103 233v229q-51 -100 -141 -154.5t-207 -54.5q-194 0 -318.5 146t-124.5 373q0 228 124.5 374t318.5 146q118 0 209.5 -56t144.5 -159l12 190h80zM203 494
q0 -191 101 -314t259 -123q147 0 239.5 98t92.5 251v178q0 153 -92.5 250.5t-239.5 97.5q-158 0 -259 -123t-101 -315zM303 1206l248 242h70l247 -242l-47 -51l-235 219l-236 -219z" />
    <glyph glyph-name="Gbreve" unicode="&#x11e;" horiz-adv-x="1423" 
d="M1272 684v-600q-237 -109 -465 -109q-201 0 -358.5 90.5t-244.5 253t-87 369.5q0 155 49.5 287.5t137.5 226t213.5 146.5t273.5 53q224 0 462 -133l-41 -74q-217 123 -411 123q-259 0 -422.5 -175.5t-163.5 -453.5q0 -182 75.5 -325.5t212 -223.5t310.5 -80q194 0 365 80
v465h-371v80h465zM483 1802h72q4 -86 63.5 -140t147.5 -54t147.5 54t63.5 140h72q-4 -120 -83.5 -195t-199.5 -75t-199.5 75t-83.5 195z" />
    <glyph glyph-name="gbreve" unicode="&#x11f;" 
d="M991 989v-1030q0 -180 -129 -295t-330 -115q-170 0 -366 84l31 78q186 -80 329 -80q161 0 264 91t103 233v229q-51 -100 -141 -154.5t-207 -54.5q-194 0 -318.5 146t-124.5 373q0 228 124.5 374t318.5 146q118 0 209.5 -56t144.5 -159l12 190h80zM203 494
q0 -191 101 -314t259 -123q147 0 239.5 98t92.5 251v178q0 153 -92.5 250.5t-239.5 97.5q-158 0 -259 -123t-101 -315zM293 1415h72q4 -86 63 -140t147 -54t147.5 54t63.5 140h72q-4 -120 -83.5 -195t-199.5 -75q-119 0 -198.5 74.5t-83.5 195.5z" />
    <glyph glyph-name="Gdotaccent" unicode="&#x120;" horiz-adv-x="1423" 
d="M1272 684v-600q-237 -109 -465 -109q-201 0 -358.5 90.5t-244.5 253t-87 369.5q0 155 49.5 287.5t137.5 226t213.5 146.5t273.5 53q224 0 462 -133l-41 -74q-217 123 -411 123q-259 0 -422.5 -175.5t-163.5 -453.5q0 -182 75.5 -325.5t212 -223.5t310.5 -80q194 0 365 80
v465h-371v80h465zM700 1692q0 34 21 54.5t55 20.5t55 -20.5t21 -54.5t-21 -55t-55 -21t-55 21t-21 55z" />
    <glyph glyph-name="gdotaccent" unicode="&#x121;" 
d="M991 989v-1030q0 -180 -129 -295t-330 -115q-170 0 -366 84l31 78q186 -80 329 -80q161 0 264 91t103 233v229q-51 -100 -141 -154.5t-207 -54.5q-194 0 -318.5 146t-124.5 373q0 228 124.5 374t318.5 146q118 0 209.5 -56t144.5 -159l12 190h80zM203 494
q0 -191 101 -314t259 -123q147 0 239.5 98t92.5 251v178q0 153 -92.5 250.5t-239.5 97.5q-158 0 -259 -123t-101 -315zM510 1305q0 34 21 54.5t55 20.5t55 -20.5t21 -54.5t-21 -55t-55 -21t-55 21t-21 55z" />
    <glyph glyph-name="Gcommaaccent" unicode="&#x122;" horiz-adv-x="1423" 
d="M1272 684v-600q-237 -109 -465 -109q-201 0 -358.5 90.5t-244.5 253t-87 369.5q0 155 49.5 287.5t137.5 226t213.5 146.5t273.5 53q224 0 462 -133l-41 -74q-217 123 -411 123q-259 0 -422.5 -175.5t-163.5 -453.5q0 -182 75.5 -325.5t212 -223.5t310.5 -80q194 0 365 80
v465h-371v80h465zM705 -215q0 32 19.5 52t51.5 20q37 0 59.5 -29.5t22.5 -81.5q0 -90 -45 -166.5t-129 -130.5l-31 43q127 98 127 225q-31 -4 -53 16t-22 52z" />
    <glyph glyph-name="gcommaaccent" unicode="&#x123;" 
d="M991 989v-1030q0 -180 -129 -295t-330 -115q-170 0 -366 84l31 78q186 -80 329 -80q161 0 264 91t103 233v229q-51 -100 -141 -154.5t-207 -54.5q-194 0 -318.5 146t-124.5 373q0 228 124.5 374t318.5 146q118 0 209.5 -56t144.5 -159l12 190h80zM203 494
q0 -191 101 -314t259 -123q147 0 239.5 98t92.5 251v178q0 153 -92.5 250.5t-239.5 97.5q-158 0 -259 -123t-101 -315zM657 1204q0 -32 -19.5 -51.5t-51.5 -19.5q-37 0 -59.5 29t-22.5 81q0 90 45 166.5t129 130.5l31 -43q-127 -98 -127 -225q31 3 53 -17t22 -51z" />
    <glyph glyph-name="Hcircumflex" unicode="&#x124;" horiz-adv-x="1554" 
d="M225 0v1376h101v-631h903v631h100v-1376h-100v664h-903v-664h-101zM496 1593l247 242h70l248 -242l-47 -51l-236 219l-235 -219z" />
    <glyph glyph-name="hcircumflex" unicode="&#x125;" 
d="M178 0v1442h98v-654q50 106 146 166t217 60q161 0 265 -101.5t104 -259.5v-653h-99v641q0 127 -82.5 208t-210.5 81q-147 0 -243.5 -101.5t-96.5 -261.5v-567h-98zM-55 1659l248 242h69l248 -242l-47 -51l-236 219l-235 -219z" />
    <glyph glyph-name="Hbar" unicode="&#x126;" horiz-adv-x="1554" 
d="M225 0v1090h-166v75h166v211h101v-211h903v211h100v-211h166v-75h-166v-1090h-100v664h-903v-664h-101zM326 745h903v345h-903v-345z" />
    <glyph glyph-name="hbar" unicode="&#x127;" 
d="M178 0v1188h-151v76h151v178h98v-178h375v-76h-375v-400q50 106 146 166t217 60q161 0 265 -101.5t104 -259.5v-653h-99v641q0 127 -82.5 208t-210.5 81q-147 0 -243.5 -101.5t-96.5 -261.5v-567h-98z" />
    <glyph glyph-name="Itilde" unicode="&#x128;" horiz-adv-x="550" 
d="M225 0v1376h101v-1376h-101zM145 1769q46 0 134.5 -39.5t121.5 -39.5q68 0 93 79l69 -22q-15 -59 -57 -95t-98 -36q-46 0 -134.5 39t-121.5 39t-58 -21t-35 -57l-69 20q15 60 57 96.5t98 36.5z" />
    <glyph glyph-name="itilde" unicode="&#x129;" horiz-adv-x="454" 
d="M178 0v989h98v-989h-98zM96 1382q46 0 134.5 -39.5t121.5 -39.5q67 0 92 79l70 -22q-15 -59 -57.5 -95t-98.5 -36q-46 0 -134.5 39t-121.5 39q-32 0 -57 -20.5t-35 -57.5l-69 20q15 60 57 96.5t98 36.5z" />
    <glyph glyph-name="Imacron" unicode="&#x12a;" horiz-adv-x="550" 
d="M225 0v1376h101v-1376h-101zM-14 1655v74h581v-74h-581z" />
    <glyph glyph-name="imacron" unicode="&#x12b;" horiz-adv-x="454" 
d="M178 0v989h98v-989h-98zM-63 1268v73h581v-73h-581z" />
    <glyph glyph-name="Ibreve" unicode="&#x12c;" horiz-adv-x="550" 
d="M225 0v1376h101v-1376h-101zM-16 1802h71q4 -86 63.5 -140t147.5 -54t147.5 54t63.5 140h72q-4 -120 -83.5 -195t-199.5 -75q-119 0 -198.5 74.5t-83.5 195.5z" />
    <glyph glyph-name="ibreve" unicode="&#x12d;" horiz-adv-x="454" 
d="M178 0v989h98v-989h-98zM-66 1415h72q4 -86 63.5 -140t147.5 -54t147.5 54t63.5 140h72q-4 -120 -83.5 -195t-199.5 -75t-199.5 75t-83.5 195z" />
    <glyph glyph-name="Iogonek" unicode="&#x12e;" horiz-adv-x="550" 
d="M326 1376v-1376q-201 -156 -201 -276q0 -49 32.5 -78t78.5 -29q48 0 92 21l16 -64q-64 -25 -125 -25q-74 0 -123 43.5t-49 116.5q0 146 178 291v1376h101z" />
    <glyph glyph-name="iogonek" unicode="&#x12f;" horiz-adv-x="454" 
d="M276 989v-989q-200 -155 -200 -276q0 -49 32 -78t78 -29q50 0 93 21l16 -64q-64 -25 -125 -25q-74 0 -123 43.5t-49 116.5q0 141 180 291v989h98zM152 1305q0 34 20.5 55.5t54.5 21.5t56 -21.5t22 -55.5t-22 -55t-56 -21t-54.5 21t-20.5 55z" />
    <glyph glyph-name="Idotaccent" unicode="&#x130;" horiz-adv-x="550" 
d="M225 0v1376h101v-1376h-101zM201 1692q0 34 20.5 54.5t54.5 20.5t55 -20.5t21 -54.5t-21 -55t-55 -21t-54.5 21t-20.5 55z" />
    <glyph glyph-name="dotlessi" unicode="&#x131;" horiz-adv-x="454" 
d="M178 0v989h98v-989h-98z" />
    <glyph glyph-name="IJ" unicode="&#x132;" horiz-adv-x="1447" 
d="M225 0v1376h101v-1376h-101zM1223 1376v-1042q0 -158 -101.5 -258.5t-261.5 -100.5q-118 0 -252 35l17 82q118 -31 217 -31q123 0 201.5 78t78.5 201v1036h101z" />
    <glyph glyph-name="ij" unicode="&#x133;" horiz-adv-x="927" 
d="M178 0v989h98v-989h-98zM152 1305q0 34 20.5 55.5t54.5 21.5t56 -21.5t22 -55.5t-22 -55t-56 -21t-54.5 21t-20.5 55zM748 989v-1171q0 -118 -76.5 -193.5t-196.5 -75.5q-87 0 -182 27l16 80q76 -23 148 -23q86 0 139 53t53 138v1165h99zM623 1305q0 34 20.5 55.5
t54.5 21.5t56 -21.5t22 -55.5t-22 -55t-56 -21t-54.5 21t-20.5 55z" />
    <glyph glyph-name="Jcircumflex" unicode="&#x134;" horiz-adv-x="897" 
d="M672 1376v-1042q0 -158 -101.5 -258.5t-261.5 -100.5q-118 0 -252 35l17 82q118 -31 217 -31q123 0 201.5 78t78.5 201v1036h101zM338 1593l248 242h69l248 -242l-47 -51l-235 219l-236 -219z" />
    <glyph glyph-name="jcircumflex" unicode="&#x135;" horiz-adv-x="471" 
d="M293 989v-1171q0 -118 -76.5 -193.5t-196.5 -75.5q-88 0 -182 27l17 80q76 -23 147 -23q86 0 139.5 53t53.5 138v1165h98zM-39 1206l248 242h70l247 -242l-47 -51l-235 219l-236 -219z" />
    <glyph glyph-name="Kcommaaccent" unicode="&#x136;" horiz-adv-x="1335" 
d="M225 0v1376h99v-774l772 774h123l-641 -643l671 -733h-125l-616 670l-184 -183v-487h-99zM612 -215q0 32 20 52t52 20q37 0 59.5 -29.5t22.5 -81.5q0 -90 -45 -166.5t-129 -130.5l-31 43q127 98 127 225q-31 -5 -53.5 15.5t-22.5 52.5z" />
    <glyph glyph-name="kcommaaccent" unicode="&#x137;" horiz-adv-x="1011" 
d="M178 0v1442h96v-987l533 534h119l-461 -463l477 -526h-119l-424 467l-125 -125v-342h-96zM434 -215q0 32 20 52t52 20q37 0 59.5 -29.5t22.5 -81.5q0 -90 -45 -166.5t-129 -130.5l-31 43q127 98 127 225q-31 -5 -53.5 15.5t-22.5 52.5z" />
    <glyph glyph-name="kgreenlandic" unicode="&#x138;" horiz-adv-x="1011" 
d="M178 0v989h96v-534l533 534h119l-461 -463l477 -526h-119l-424 467l-125 -125v-342h-96z" />
    <glyph glyph-name="Lacute" unicode="&#x139;" horiz-adv-x="1087" 
d="M225 0v1376h101v-1292h702v-84h-803zM547 1755l-336 -215l-41 57l328 226z" />
    <glyph glyph-name="lacute" unicode="&#x13a;" horiz-adv-x="552" 
d="M276 1442v-1249q0 -62 37 -98t99 -36q44 0 100 15l14 -80q-78 -19 -133 -19q-99 0 -157 56.5t-58 152.5v1258h98zM498 1821l-336 -215l-41 57l328 225z" />
    <glyph glyph-name="Lcommaaccent" unicode="&#x13b;" horiz-adv-x="1087" 
d="M225 0v1376h101v-1292h702v-84h-803zM537 -215q0 32 19.5 52t51.5 20q37 0 59.5 -29.5t22.5 -81.5q0 -90 -45 -166.5t-129 -130.5l-31 43q127 98 127 225q-31 -4 -53 16t-22 52z" />
    <glyph glyph-name="lcommaaccent" unicode="&#x13c;" horiz-adv-x="552" 
d="M276 1442v-1249q0 -62 37 -98t99 -36q44 0 100 15l14 -80q-78 -19 -133 -19q-99 0 -157 56.5t-58 152.5v1258h98zM264 -215q0 32 20 52t52 20q37 0 59.5 -29.5t22.5 -81.5q0 -90 -45 -166.5t-129 -130.5l-31 43q127 98 127 225q-31 -5 -53.5 15.5t-22.5 52.5z" />
    <glyph glyph-name="Lcaron" unicode="&#x13d;" horiz-adv-x="1087" 
d="M225 0v1376h101v-1292h702v-84h-803zM733 1395l-139 -330l-70 25l131 333z" />
    <glyph glyph-name="lcaron" unicode="&#x13e;" horiz-adv-x="548" 
d="M276 1442v-1249q0 -62 37 -98t99 -36q44 0 100 15l14 -80q-78 -19 -133 -19q-99 0 -157 56.5t-58 152.5v1258h98zM651 1460l-139 -330l-70 25l131 334z" />
    <glyph glyph-name="Ldot" unicode="&#x13f;" horiz-adv-x="1120" 
d="M225 0v1376h101v-1292h702v-84h-803zM760 723q0 34 21 55t55 21t54.5 -21t20.5 -55t-20.5 -55t-54.5 -21t-55 21t-21 55z" />
    <glyph glyph-name="ldot" unicode="&#x140;" horiz-adv-x="649" 
d="M276 1442v-1249q0 -62 37 -98t99 -36q44 0 100 15l14 -80q-78 -19 -133 -19q-99 0 -157 56.5t-58 152.5v1258h98zM477 705q0 34 21 54.5t55 20.5t55 -20.5t21 -54.5t-21 -55t-55 -21t-55 21t-21 55z" />
    <glyph glyph-name="Lslash" unicode="&#x141;" horiz-adv-x="1120" 
d="M258 0v618l-174 -86l-35 66l209 104v674h100v-622l312 155l37 -65l-349 -174v-586h703v-84h-803z" />
    <glyph glyph-name="lslash" unicode="&#x142;" horiz-adv-x="618" 
d="M-35 631l230 114v697h98v-647l227 114l37 -65l-264 -131v-520q0 -63 36.5 -98.5t98.5 -35.5q44 0 100 15l15 -80q-78 -19 -133 -19q-98 0 -156.5 57t-58.5 152v480l-195 -99z" />
    <glyph glyph-name="Nacute" unicode="&#x143;" horiz-adv-x="1587" 
d="M225 0v1376h101l909 -1235v1235h94v-1376h-100l-910 1235v-1235h-94zM1049 1755l-336 -215l-41 57l327 226z" />
    <glyph glyph-name="nacute" unicode="&#x144;" 
d="M178 0v989h80l12 -207q49 109 147.5 170.5t221.5 61.5q161 0 265 -101.5t104 -259.5v-653h-99v641q0 127 -82.5 208t-210.5 81q-147 0 -243.5 -101.5t-96.5 -261.5v-567h-98zM864 1368l-336 -215l-41 57l328 226z" />
    <glyph glyph-name="Ncommaaccent" unicode="&#x145;" horiz-adv-x="1554" 
d="M225 0v1376h101l909 -1235v1235h94v-1376h-100l-910 1235v-1235h-94zM707 -215q0 32 19.5 52t51.5 20q37 0 59.5 -29.5t22.5 -81.5q0 -90 -45 -166.5t-129 -130.5l-31 43q127 98 127 225q-31 -4 -53 16t-22 52z" />
    <glyph glyph-name="ncommaaccent" unicode="&#x146;" 
d="M178 0v989h80l12 -207q49 109 147.5 170.5t221.5 61.5q161 0 265 -101.5t104 -259.5v-653h-99v641q0 127 -82.5 208t-210.5 81q-147 0 -243.5 -101.5t-96.5 -261.5v-567h-98zM522 -215q0 32 20 52t52 20q37 0 59.5 -29.5t22.5 -81.5q0 -90 -45 -166.5t-129 -130.5l-31 43
q127 98 127 225q-31 -5 -53.5 15.5t-22.5 52.5z" />
    <glyph glyph-name="Ncaron" unicode="&#x147;" horiz-adv-x="1554" 
d="M225 0v1376h101l909 -1235v1235h94v-1376h-100l-910 1235v-1235h-94zM1061 1792l-248 -244h-70l-247 244l47 49l235 -217l236 217z" />
    <glyph glyph-name="ncaron" unicode="&#x148;" 
d="M178 0v989h80l12 -207q49 109 147.5 170.5t221.5 61.5q161 0 265 -101.5t104 -259.5v-653h-99v641q0 127 -82.5 208t-210.5 81q-147 0 -243.5 -101.5t-96.5 -261.5v-567h-98zM877 1405l-248 -244h-70l-248 244l47 49l236 -217l235 217z" />
    <glyph glyph-name="napostrophe" unicode="&#x149;" horiz-adv-x="1456" 
d="M465 0v989h80l12 -207q49 109 147.5 170.5t221.5 61.5q161 0 264.5 -101.5t103.5 -259.5v-653h-98v641q0 127 -82.5 208t-210.5 81q-147 0 -243.5 -101.5t-96.5 -261.5v-567h-98zM141 1350q0 32 20 51.5t52 19.5q37 0 59.5 -29t22.5 -81q0 -90 -45 -166.5t-129 -130.5
l-31 43q127 98 127 225q-31 -5 -53.5 15.5t-22.5 52.5z" />
    <glyph glyph-name="Eng" unicode="&#x14a;" horiz-adv-x="1554" 
d="M225 0v1376h101l909 -1235v1235h94v-1468q0 -158 -101 -258.5t-261 -100.5q-118 0 -252 35l18 82q121 -31 221 -31q121 0 200 76t79 193v92l-914 1239v-1235h-94z" />
    <glyph glyph-name="eng" unicode="&#x14b;" 
d="M178 0v989h80l12 -207q50 109 147 170.5t222 61.5q163 0 266 -103t103 -266v-827q0 -118 -76.5 -193.5t-196.5 -75.5q-89 0 -180 27l14 80q76 -23 150 -23q85 0 137.5 53t52.5 138v809q0 132 -82 214.5t-211 82.5q-149 0 -244.5 -100t-95.5 -255v-575h-98z" />
    <glyph glyph-name="Omacron" unicode="&#x14c;" horiz-adv-x="1554" 
d="M117 688q0 207 83.5 369.5t234.5 253t343 90.5q191 0 341.5 -90.5t234.5 -253t84 -369.5t-84 -369.5t-234.5 -253t-341.5 -90.5q-192 0 -343 90.5t-234.5 253t-83.5 369.5zM219 688q0 -181 71 -324.5t198.5 -224t289.5 -80.5q244 0 400.5 177t156.5 452t-156.5 452
t-400.5 177q-162 0 -289.5 -80.5t-198.5 -224t-71 -324.5zM487 1655v74h582v-74h-582z" />
    <glyph glyph-name="omacron" unicode="&#x14d;" 
d="M102 494q0 229 136 374.5t348 145.5t346.5 -145.5t134.5 -374.5q0 -228 -134.5 -373.5t-346.5 -145.5t-348 146t-136 373zM203 494q0 -192 107 -314.5t276 -122.5q167 0 275 122.5t108 314.5q0 193 -107.5 315.5t-275.5 122.5q-169 0 -276 -122.5t-107 -315.5zM295 1268
v73h582v-73h-582z" />
    <glyph glyph-name="Obreve" unicode="&#x14e;" horiz-adv-x="1554" 
d="M117 688q0 207 83.5 369.5t234.5 253t343 90.5q191 0 341.5 -90.5t234.5 -253t84 -369.5t-84 -369.5t-234.5 -253t-341.5 -90.5q-192 0 -343 90.5t-234.5 253t-83.5 369.5zM219 688q0 -181 71 -324.5t198.5 -224t289.5 -80.5q244 0 400.5 177t156.5 452t-156.5 452
t-400.5 177q-162 0 -289.5 -80.5t-198.5 -224t-71 -324.5zM485 1802h72q4 -86 63.5 -140t147.5 -54t147.5 54t63.5 140h72q-4 -120 -83.5 -195t-199.5 -75t-199.5 75t-83.5 195z" />
    <glyph glyph-name="obreve" unicode="&#x14f;" 
d="M102 494q0 229 136 374.5t348 145.5t346.5 -145.5t134.5 -374.5q0 -228 -134.5 -373.5t-346.5 -145.5t-348 146t-136 373zM203 494q0 -192 107 -314.5t276 -122.5q167 0 275 122.5t108 314.5q0 193 -107.5 315.5t-275.5 122.5q-169 0 -276 -122.5t-107 -315.5zM293 1415
h72q4 -86 63 -140t147 -54t147.5 54t63.5 140h72q-4 -120 -83.5 -195t-199.5 -75q-119 0 -198.5 74.5t-83.5 195.5z" />
    <glyph glyph-name="Ohungarumlaut" unicode="&#x150;" horiz-adv-x="1554" 
d="M117 688q0 207 83.5 369.5t234.5 253t343 90.5q191 0 341.5 -90.5t234.5 -253t84 -369.5t-84 -369.5t-234.5 -253t-341.5 -90.5q-192 0 -343 90.5t-234.5 253t-83.5 369.5zM219 688q0 -181 71 -324.5t198.5 -224t289.5 -80.5q244 0 400.5 177t156.5 452t-156.5 452
t-400.5 177q-162 0 -289.5 -80.5t-198.5 -224t-71 -324.5zM1223 1812l-289 -282l-53 51l282 291zM860 1812l-291 -282l-51 51l283 291z" />
    <glyph glyph-name="ohungarumlaut" unicode="&#x151;" 
d="M102 494q0 229 136 374.5t348 145.5t346.5 -145.5t134.5 -374.5q0 -228 -134.5 -373.5t-346.5 -145.5t-348 146t-136 373zM203 494q0 -192 107 -314.5t276 -122.5q167 0 275 122.5t108 314.5q0 193 -107.5 315.5t-275.5 122.5q-169 0 -276 -122.5t-107 -315.5zM1030 1425
l-289 -282l-53 51l283 291zM668 1425l-291 -282l-51 51l282 291z" />
    <glyph glyph-name="OE" unicode="&#x152;" horiz-adv-x="2064" 
d="M117 688q0 305 191 496.5t499 191.5h1106v-82h-742v-549h676v-81h-676v-582h775v-82h-1139q-204 0 -361 86t-243 242.5t-86 359.5zM219 688q0 -267 167 -435.5t431 -168.5h254v1208h-254q-264 0 -431 -168.5t-167 -435.5z" />
    <glyph glyph-name="oe" unicode="&#x153;" horiz-adv-x="1949" 
d="M102 494q0 229 136 374.5t348 145.5q154 0 271 -87.5t161 -234.5q45 148 155.5 235t260.5 87q190 0 310 -139.5t120 -360.5q0 -29 -2 -41h-795q8 -186 121 -303t287 -117q146 0 303 86l37 -71q-182 -93 -349 -93q-161 0 -281 87t-167 237q-45 -149 -160.5 -236.5
t-271.5 -87.5q-212 0 -348 146t-136 373zM203 494q0 -192 107 -314.5t276 -122.5q167 0 275 122.5t108 314.5q0 193 -107.5 315.5t-275.5 122.5q-169 0 -276 -122.5t-107 -315.5zM1434 934q-154 0 -254.5 -108.5t-112.5 -284.5h700q-3 175 -95 284t-238 109z" />
    <glyph glyph-name="Racute" unicode="&#x154;" horiz-adv-x="1323" 
d="M225 0v1376h492q187 0 306.5 -112t119.5 -287q0 -160 -100.5 -267t-264.5 -122l418 -588h-115l-405 578h-352v-578h-99zM324 1292v-633h381q150 0 244.5 88t94.5 230q0 139 -95 227t-244 88h-381zM948 1755l-336 -215l-41 57l328 226z" />
    <glyph glyph-name="racute" unicode="&#x155;" horiz-adv-x="761" 
d="M178 0v989h80l12 -209q35 105 120.5 165.5t199.5 60.5q59 0 127 -19l-15 -82q-66 17 -118 17q-136 0 -222 -103.5t-86 -267.5v-551h-98zM688 1368l-336 -215l-41 57l328 226z" />
    <glyph glyph-name="Rcommaaccent" unicode="&#x156;" horiz-adv-x="1323" 
d="M225 0v1376h492q187 0 306.5 -112t119.5 -287q0 -160 -100.5 -267t-264.5 -122l418 -588h-115l-405 578h-352v-578h-99zM324 1292v-633h381q150 0 244.5 88t94.5 230q0 139 -95 227t-244 88h-381zM606 -215q0 32 20 52t52 20q37 0 59.5 -29.5t22.5 -81.5
q0 -90 -45 -166.5t-129 -130.5l-31 43q127 98 127 225q-31 -5 -53.5 15.5t-22.5 52.5z" />
    <glyph glyph-name="rcommaaccent" unicode="&#x157;" horiz-adv-x="761" 
d="M178 0v989h80l12 -209q35 105 120.5 165.5t199.5 60.5q59 0 127 -19l-15 -82q-66 17 -118 17q-136 0 -222 -103.5t-86 -267.5v-551h-98zM156 -215q0 32 19.5 52t51.5 20q37 0 59.5 -29.5t22.5 -81.5q0 -90 -45 -166.5t-129 -130.5l-31 43q127 98 127 225q-31 -4 -53 16
t-22 52z" />
    <glyph glyph-name="Rcaron" unicode="&#x158;" horiz-adv-x="1323" 
d="M225 0v1376h492q187 0 306.5 -112t119.5 -287q0 -160 -100.5 -267t-264.5 -122l418 -588h-115l-405 578h-352v-578h-99zM324 1292v-633h381q150 0 244.5 88t94.5 230q0 139 -95 227t-244 88h-381zM961 1792l-248 -244h-70l-248 244l47 49l236 -217l235 217z" />
    <glyph glyph-name="rcaron" unicode="&#x159;" horiz-adv-x="761" 
d="M178 0v989h80l12 -209q35 105 120.5 165.5t199.5 60.5q59 0 127 -19l-15 -82q-66 17 -118 17q-136 0 -222 -103.5t-86 -267.5v-551h-98zM700 1405l-247 -244h-70l-248 244l47 49l236 -217l235 217z" />
    <glyph glyph-name="Sacute" unicode="&#x15a;" horiz-adv-x="1175" 
d="M125 1049q0 157 128.5 254.5t334.5 97.5q194 0 420 -92l-27 -80q-215 88 -387 88q-165 0 -267 -74.5t-102 -193.5q0 -84 46 -143t119.5 -92t162 -58.5t177 -55.5t162 -70.5t119.5 -115t46 -178.5q0 -161 -129.5 -261t-339.5 -100q-211 0 -471 109l26 80
q272 -105 439 -105q169 0 272.5 76.5t103.5 200.5q0 68 -28.5 119.5t-76.5 84.5t-110.5 58t-132 45t-138.5 41t-131.5 51t-110.5 69.5t-76.5 101.5t-28.5 143zM858 1755l-336 -215l-41 57l328 226z" />
    <glyph glyph-name="sacute" unicode="&#x15b;" horiz-adv-x="903" 
d="M111 752q0 116 94.5 189t245.5 73q147 0 315 -68l-25 -76q-149 64 -284 64q-111 0 -180.5 -50.5t-69.5 -131.5q0 -58 32.5 -98t85 -62.5t115.5 -40.5t126 -39.5t115.5 -51t85 -84t32.5 -130.5q0 -120 -96.5 -195.5t-251.5 -75.5q-163 0 -349 76l25 76q174 -74 317 -74
q117 0 187.5 53t70.5 140q0 47 -20 82.5t-54.5 58t-79 40t-93.5 31.5t-97.5 29t-93 36.5t-79 50.5t-54.5 74t-20 104zM721 1368l-336 -215l-41 57l328 226z" />
    <glyph glyph-name="Scircumflex" unicode="&#x15c;" horiz-adv-x="1175" 
d="M125 1049q0 157 128.5 254.5t334.5 97.5q194 0 420 -92l-27 -80q-215 88 -387 88q-165 0 -267 -74.5t-102 -193.5q0 -84 46 -143t119.5 -92t162 -58.5t177 -55.5t162 -70.5t119.5 -115t46 -178.5q0 -161 -129.5 -261t-339.5 -100q-211 0 -471 109l26 80
q272 -105 439 -105q169 0 272.5 76.5t103.5 200.5q0 68 -28.5 119.5t-76.5 84.5t-110.5 58t-132 45t-138.5 41t-131.5 51t-110.5 69.5t-76.5 101.5t-28.5 143zM305 1593l248 242h70l247 -242l-47 -51l-235 219l-236 -219z" />
    <glyph glyph-name="scircumflex" unicode="&#x15d;" horiz-adv-x="903" 
d="M111 752q0 116 94.5 189t245.5 73q147 0 315 -68l-25 -76q-149 64 -284 64q-111 0 -180.5 -50.5t-69.5 -131.5q0 -58 32.5 -98t85 -62.5t115.5 -40.5t126 -39.5t115.5 -51t85 -84t32.5 -130.5q0 -120 -96.5 -195.5t-251.5 -75.5q-163 0 -349 76l25 76q174 -74 317 -74
q117 0 187.5 53t70.5 140q0 47 -20 82.5t-54.5 58t-79 40t-93.5 31.5t-97.5 29t-93 36.5t-79 50.5t-54.5 74t-20 104zM168 1206l248 242h69l248 -242l-47 -51l-235 219l-236 -219z" />
    <glyph glyph-name="Scedilla" unicode="&#x15e;" horiz-adv-x="1175" 
d="M125 1049q0 157 128.5 254.5t334.5 97.5q194 0 420 -92l-27 -80q-215 88 -387 88q-165 0 -267 -74.5t-102 -193.5q0 -84 46 -143t119.5 -92t162 -58.5t177 -55.5t162 -70.5t119.5 -115t46 -178.5q0 -152 -114.5 -249.5t-305.5 -109.5l-21 -108q67 -6 111.5 -51t44.5 -107
q0 -71 -58.5 -116.5t-148.5 -45.5q-91 0 -176 33l23 64q82 -29 145 -29q58 0 94.5 27.5t36.5 74.5q0 44 -37.5 72.5t-97.5 28.5h-18l28 157q-206 3 -446 107l26 80q272 -105 439 -105q169 0 272.5 76.5t103.5 200.5q0 68 -28.5 119.5t-76.5 84.5t-110.5 58t-132 45
t-138.5 41t-131.5 51t-110.5 69.5t-76.5 101.5t-28.5 143z" />
    <glyph glyph-name="scedilla" unicode="&#x15f;" horiz-adv-x="903" 
d="M111 752q0 116 94.5 189t245.5 73q147 0 315 -68l-25 -76q-149 64 -284 64q-111 0 -180.5 -50.5t-69.5 -131.5q0 -58 32.5 -98t85 -62.5t115.5 -40.5t126 -39.5t115.5 -51t85 -84t32.5 -130.5q0 -110 -81.5 -182.5t-215.5 -83.5l-21 -111q67 -6 110.5 -51t43.5 -107
q0 -72 -58 -117t-149 -45q-89 0 -174 33l20 64q82 -29 148 -29q57 0 94 28t37 74q0 44 -37.5 72.5t-97.5 28.5h-21l29 157q-158 3 -324 74l25 76q174 -74 317 -74q117 0 187.5 53t70.5 140q0 47 -20 82.5t-54.5 58t-79 40t-93.5 31.5t-97.5 29t-93 36.5t-79 50.5t-54.5 74
t-20 104z" />
    <glyph glyph-name="Scaron" unicode="&#x160;" horiz-adv-x="1175" 
d="M125 1049q0 157 128.5 254.5t334.5 97.5q194 0 420 -92l-27 -80q-215 88 -387 88q-165 0 -267 -74.5t-102 -193.5q0 -84 46 -143t119.5 -92t162 -58.5t177 -55.5t162 -70.5t119.5 -115t46 -178.5q0 -161 -129.5 -261t-339.5 -100q-211 0 -471 109l26 80
q272 -105 439 -105q169 0 272.5 76.5t103.5 200.5q0 68 -28.5 119.5t-76.5 84.5t-110.5 58t-132 45t-138.5 41t-131.5 51t-110.5 69.5t-76.5 101.5t-28.5 143zM870 1792l-247 -244h-70l-248 244l47 49l236 -217l235 217z" />
    <glyph glyph-name="scaron" unicode="&#x161;" horiz-adv-x="903" 
d="M111 752q0 116 94.5 189t245.5 73q147 0 315 -68l-25 -76q-149 64 -284 64q-111 0 -180.5 -50.5t-69.5 -131.5q0 -58 32.5 -98t85 -62.5t115.5 -40.5t126 -39.5t115.5 -51t85 -84t32.5 -130.5q0 -120 -96.5 -195.5t-251.5 -75.5q-163 0 -349 76l25 76q174 -74 317 -74
q117 0 187.5 53t70.5 140q0 47 -20 82.5t-54.5 58t-79 40t-93.5 31.5t-97.5 29t-93 36.5t-79 50.5t-54.5 74t-20 104zM733 1405l-248 -244h-69l-248 244l47 49l236 -217l235 217z" />
    <glyph glyph-name="Tcommaaccent" unicode="&#x162;" horiz-adv-x="1218" 
d="M559 0v1292h-500v84h1100v-84h-500v-1292h-100zM537 -215q0 32 19.5 52t51.5 20q37 0 59.5 -29.5t22.5 -81.5q0 -90 -45 -166.5t-129 -130.5l-31 43q127 98 127 225q-31 -4 -53 16t-22 52z" />
    <glyph glyph-name="tcommaaccent" unicode="&#x163;" horiz-adv-x="804" 
d="M375 1284v-295h338v-80h-338v-659q0 -85 53.5 -138t138.5 -53q72 0 148 23l16 -80q-91 -27 -182 -27q-120 0 -196.5 75.5t-76.5 193.5v665h-217v80h217v295h99zM410 -215q0 32 19.5 52t51.5 20q37 0 59.5 -29.5t22.5 -81.5q0 -90 -45 -166.5t-129 -130.5l-31 43
q127 98 127 225q-31 -4 -53 16t-22 52z" />
    <glyph glyph-name="Tcaron" unicode="&#x164;" horiz-adv-x="1218" 
d="M559 0v1292h-500v84h1100v-84h-500v-1292h-100zM893 1792l-248 -244h-70l-247 244l47 49l235 -217l236 217z" />
    <glyph glyph-name="tcaron" unicode="&#x165;" horiz-adv-x="804" 
d="M375 1284v-295h338v-80h-338v-659q0 -85 53.5 -138t138.5 -53q72 0 148 23l16 -80q-91 -27 -182 -27q-120 0 -196.5 75.5t-76.5 193.5v665h-217v80h217v295h99zM733 1460l-139 -330l-70 25l131 334z" />
    <glyph glyph-name="Tbar" unicode="&#x166;" horiz-adv-x="1218" 
d="M559 0v614h-309v80h309v598h-500v84h1100v-84h-500v-598h310v-80h-310v-614h-100z" />
    <glyph glyph-name="tbar" unicode="&#x167;" horiz-adv-x="804" 
d="M375 1284v-295h338v-80h-338v-366h305v-74h-305v-219q0 -85 53 -138t139 -53q72 0 148 23l16 -80q-91 -27 -182 -27q-120 0 -196.5 75.5t-76.5 193.5v225h-200v74h200v366h-217v80h217v295h99z" />
    <glyph glyph-name="Utilde" unicode="&#x168;" horiz-adv-x="1554" 
d="M1346 1376v-860q0 -156 -73.5 -280t-203.5 -192.5t-291 -68.5q-247 0 -408 152t-161 389v860h100v-856q0 -202 133 -331.5t336 -129.5q202 0 334.5 129.5t132.5 331.5v856h101zM647 1769q46 0 134.5 -39.5t121.5 -39.5q67 0 92 79l70 -22q-15 -59 -57.5 -95t-98.5 -36
q-46 0 -134.5 39t-121.5 39q-32 0 -57 -20.5t-35 -57.5l-69 20q15 60 57 96.5t98 36.5z" />
    <glyph glyph-name="utilde" unicode="&#x169;" 
d="M991 989v-989h-80l-12 205q-47 -108 -145 -169t-222 -61q-161 0 -265.5 101.5t-104.5 259.5v653h98v-641q0 -127 83 -208t212 -81q147 0 242.5 101.5t95.5 261.5v567h98zM446 1382q46 0 134.5 -39.5t121.5 -39.5q68 0 93 79l69 -22q-15 -59 -57 -95t-98 -36
q-46 0 -134.5 39t-121.5 39t-58 -21t-35 -57l-69 20q15 60 57 96.5t98 36.5z" />
    <glyph glyph-name="Umacron" unicode="&#x16a;" horiz-adv-x="1554" 
d="M1346 1376v-860q0 -156 -73.5 -280t-203.5 -192.5t-291 -68.5q-247 0 -408 152t-161 389v860h100v-856q0 -202 133 -331.5t336 -129.5q202 0 334.5 129.5t132.5 331.5v856h101zM487 1655v74h582v-74h-582z" />
    <glyph glyph-name="umacron" unicode="&#x16b;" 
d="M991 989v-989h-80l-12 205q-47 -108 -145 -169t-222 -61q-161 0 -265.5 101.5t-104.5 259.5v653h98v-641q0 -127 83 -208t212 -81q147 0 242.5 101.5t95.5 261.5v567h98zM287 1268v73h581v-73h-581z" />
    <glyph glyph-name="Ubreve" unicode="&#x16c;" horiz-adv-x="1554" 
d="M1346 1376v-860q0 -156 -73.5 -280t-203.5 -192.5t-291 -68.5q-247 0 -408 152t-161 389v860h100v-856q0 -202 133 -331.5t336 -129.5q202 0 334.5 129.5t132.5 331.5v856h101zM485 1802h72q4 -86 63.5 -140t147.5 -54t147.5 54t63.5 140h72q-4 -120 -83.5 -195
t-199.5 -75t-199.5 75t-83.5 195z" />
    <glyph glyph-name="ubreve" unicode="&#x16d;" 
d="M991 989v-989h-80l-12 205q-47 -108 -145 -169t-222 -61q-161 0 -265.5 101.5t-104.5 259.5v653h98v-641q0 -127 83 -208t212 -81q147 0 242.5 101.5t95.5 261.5v567h98zM285 1415h71q4 -86 63.5 -140t147.5 -54t147.5 54t63.5 140h72q-4 -120 -83.5 -195t-199.5 -75
q-119 0 -198.5 74.5t-83.5 195.5z" />
    <glyph glyph-name="Uring" unicode="&#x16e;" horiz-adv-x="1554" 
d="M1346 1376v-860q0 -156 -73.5 -280t-203.5 -192.5t-291 -68.5q-247 0 -408 152t-161 389v860h100v-856q0 -202 133 -331.5t336 -129.5q202 0 334.5 129.5t132.5 331.5v856h101zM586 1692q0 84 53.5 136t138.5 52t139 -52t54 -136t-52.5 -136.5t-136.5 -52.5
q-86 0 -141 53t-55 136zM645 1692q0 -60 38.5 -96.5t98.5 -36.5q57 0 93 36.5t36 96.5t-37 96.5t-96 36.5q-60 0 -96.5 -36.5t-36.5 -96.5z" />
    <glyph glyph-name="uring" unicode="&#x16f;" 
d="M991 989v-989h-80l-12 205q-47 -108 -145 -169t-222 -61q-161 0 -265.5 101.5t-104.5 259.5v653h98v-641q0 -127 83 -208t212 -81q147 0 242.5 101.5t95.5 261.5v567h98zM385 1305q0 84 54 136t139 52t138.5 -52t53.5 -136t-52 -136.5t-136 -52.5q-86 0 -141.5 53
t-55.5 136zM444 1305q0 -60 39 -97t99 -37q57 0 93 37t36 97t-37 96.5t-96 36.5q-60 0 -97 -36.5t-37 -96.5z" />
    <glyph glyph-name="Uhungarumlaut" unicode="&#x170;" horiz-adv-x="1554" 
d="M1346 1376v-860q0 -156 -73.5 -280t-203.5 -192.5t-291 -68.5q-247 0 -408 152t-161 389v860h100v-856q0 -202 133 -331.5t336 -129.5q202 0 334.5 129.5t132.5 331.5v856h101zM1223 1812l-289 -282l-53 51l282 291zM860 1812l-291 -282l-51 51l283 291z" />
    <glyph glyph-name="uhungarumlaut" unicode="&#x171;" 
d="M991 989v-989h-80l-12 205q-47 -108 -145 -169t-222 -61q-161 0 -265.5 101.5t-104.5 259.5v653h98v-641q0 -127 83 -208t212 -81q147 0 242.5 101.5t95.5 261.5v567h98zM1022 1425l-289 -282l-53 51l283 291zM659 1425l-290 -282l-52 51l283 291z" />
    <glyph glyph-name="Uogonek" unicode="&#x172;" horiz-adv-x="1554" 
d="M1346 1376v-854q0 -119 -40.5 -213.5t-112 -164t-185.5 -134.5q-269 -154 -269 -286q0 -49 32 -78t79 -29q48 0 88 21l20 -64q-67 -25 -127 -25q-74 0 -123 43.5t-49 116.5q0 141 201 273q-68 -7 -110 -5q-231 6 -386 158t-155 381v860h100v-856q0 -202 133 -331.5
t336 -129.5q201 0 334 131.5t133 329.5v856h101z" />
    <glyph glyph-name="uogonek" unicode="&#x173;" 
d="M991 989v-989q-200 -155 -200 -276q0 -49 32 -78t78 -29q49 0 92 21l17 -64q-64 -25 -125 -25q-74 0 -123 43.5t-49 116.5q0 146 198 295l-12 201q-47 -108 -145 -169t-222 -61q-161 0 -265.5 101.5t-104.5 259.5v653h98v-641q0 -127 83 -208t212 -81q147 0 242.5 101.5
t95.5 261.5v567h98z" />
    <glyph glyph-name="Wcircumflex" unicode="&#x174;" horiz-adv-x="2045" 
d="M1960 1376l-442 -1376h-103l-391 1247l-393 -1247h-103l-442 1376h102l394 -1247l393 1247h98l391 -1247l394 1247h102zM741 1593l248 242h70l248 -242l-47 -51l-236 219l-236 -219z" />
    <glyph glyph-name="wcircumflex" unicode="&#x175;" horiz-adv-x="1564" 
d="M1483 989l-326 -989h-98l-277 868l-276 -868h-100l-326 989h100l277 -868l276 868h96l277 -868l278 868h99zM500 1206l248 242h69l248 -242l-47 -51l-236 219l-235 -219z" />
    <glyph glyph-name="Ycircumflex" unicode="&#x176;" horiz-adv-x="1204" 
d="M551 0v604l-506 772h113l444 -680l442 680h115l-508 -772v-604h-100zM319 1593l248 242h70l248 -242l-47 -51l-236 219l-235 -219z" />
    <glyph glyph-name="ycircumflex" unicode="&#x177;" horiz-adv-x="1040" 
d="M975 989l-471 -1161q-59 -148 -130.5 -213.5t-178.5 -65.5q-47 0 -127 17l16 82q59 -15 104 -15q79 0 130.5 49t97.5 166l63 158l-416 983h103l360 -872l346 872h103zM238 1206l247 242h70l248 -242l-47 -51l-236 219l-235 -219z" />
    <glyph glyph-name="Ydieresis" unicode="&#x178;" horiz-adv-x="1204" 
d="M551 0v604l-506 772h113l444 -680l442 680h115l-508 -772v-604h-100zM324 1692q0 32 20.5 51.5t52.5 19.5t52 -19.5t20 -51.5t-20 -52t-52 -20t-52.5 20t-20.5 52zM735 1692q0 32 20 51.5t52 19.5q33 0 53.5 -19.5t20.5 -51.5t-21 -52t-53 -20t-52 20t-20 52z" />
    <glyph glyph-name="Zacute" unicode="&#x179;" horiz-adv-x="1273" 
d="M117 0v61l880 1231h-856v84h989v-61l-878 -1231h903v-84h-1038zM907 1755l-336 -215l-41 57l328 226z" />
    <glyph glyph-name="zacute" unicode="&#x17a;" horiz-adv-x="968" 
d="M102 0v59l617 850h-600v80h729v-59l-615 -850h631v-80h-762zM754 1368l-336 -215l-41 57l328 226z" />
    <glyph glyph-name="Zdotaccent" unicode="&#x17b;" horiz-adv-x="1273" 
d="M117 0v61l880 1231h-856v84h989v-61l-878 -1231h903v-84h-1038zM561 1692q0 34 21 54.5t55 20.5t55 -20.5t21 -54.5t-21 -55t-55 -21t-55 21t-21 55z" />
    <glyph glyph-name="zdotaccent" unicode="&#x17c;" horiz-adv-x="968" 
d="M102 0v59l617 850h-600v80h729v-59l-615 -850h631v-80h-762zM408 1305q0 34 20.5 54.5t54.5 20.5t55 -20.5t21 -54.5t-21 -55t-55 -21t-54.5 21t-20.5 55z" />
    <glyph glyph-name="Zcaron" unicode="&#x17d;" horiz-adv-x="1273" 
d="M117 0v61l880 1231h-856v84h989v-61l-878 -1231h903v-84h-1038zM920 1792l-248 -244h-70l-248 244l47 49l236 -217l235 217z" />
    <glyph glyph-name="zcaron" unicode="&#x17e;" horiz-adv-x="968" 
d="M102 0v59l617 850h-600v80h729v-59l-615 -850h631v-80h-762zM766 1405l-248 -244h-69l-248 244l47 49l235 -217l236 217z" />
    <glyph glyph-name="florin" unicode="&#x192;" horiz-adv-x="1179" 
d="M309 784v80h215v303q0 103 68 168.5t172 65.5q74 0 172 -25l-16 -82q-80 23 -138 23q-68 0 -112.5 -43.5t-44.5 -112.5v-297h272v-80h-272v-575q0 -103 -67 -168.5t-171 -65.5q-77 0 -172 25l14 82q84 -23 140 -23q68 0 111.5 43.5t43.5 112.5v569h-215z" />
    <glyph glyph-name="Acaron" unicode="&#x1cd;" horiz-adv-x="1357" 
d="M61 0l570 1376h96l569 -1376h-104l-168 410h-690l-168 -410h-105zM680 1255l-315 -766h628zM963 1792l-248 -244h-70l-248 244l47 49l236 -217l235 217z" />
    <glyph glyph-name="acaron" unicode="&#x1ce;" horiz-adv-x="1083" 
d="M102 264q0 153 119 238.5t330 85.5q118 0 240 -29v131q0 109 -74 176.5t-193 67.5q-159 0 -331 -72l-27 74q187 78 366 78q157 0 256 -90.5t99 -233.5v-532q0 -47 27.5 -75t74.5 -28q26 0 58 8l10 -77q-49 -11 -88 -11q-74 0 -121 46t-47 122v37q-49 -97 -145 -151
t-216 -54q-145 0 -241.5 82.5t-96.5 206.5zM201 268q0 -92 74.5 -154.5t183.5 -62.5q149 0 240.5 94.5t91.5 247.5v99q-123 30 -232 30q-169 0 -263.5 -67t-94.5 -187zM823 1405l-248 -244h-69l-248 244l47 49l236 -217l235 217z" />
    <glyph glyph-name="Aringacute" unicode="&#x1fa;" horiz-adv-x="1404" 
d="M61 0l570 1376h96l569 -1376h-104l-168 410h-690l-168 -410h-105zM680 1255l-315 -766h628zM973 1999l-223 -141q65 -14 105 -62.5t40 -116.5q0 -83 -51.5 -134.5t-136.5 -51.5q-87 0 -142 51.5t-55 134.5q0 100 78 154l340 231zM569 1679q0 -60 39 -97.5t99 -37.5
q58 0 93.5 37.5t35.5 97.5t-37.5 96.5t-96.5 36.5q-60 0 -96.5 -36.5t-36.5 -96.5z" />
    <glyph glyph-name="aringacute" unicode="&#x1fb;" horiz-adv-x="1099" 
d="M102 264q0 153 119 238.5t330 85.5q118 0 240 -29v131q0 109 -74 176.5t-193 67.5q-159 0 -331 -72l-27 74q187 78 366 78q157 0 256 -90.5t99 -233.5v-532q0 -47 27.5 -75t74.5 -28q26 0 58 8l10 -77q-49 -11 -88 -11q-74 0 -121 46t-47 122v37q-49 -97 -145 -151
t-216 -54q-145 0 -241.5 82.5t-96.5 206.5zM201 268q0 -92 74.5 -154.5t183.5 -62.5q149 0 240.5 94.5t91.5 247.5v99q-123 30 -232 30q-169 0 -263.5 -67t-94.5 -187zM803 1612l-223 -142q65 -14 105 -62t40 -116q0 -83 -51.5 -134.5t-136.5 -51.5q-87 0 -142 51.5
t-55 134.5q0 100 78 154l340 231zM399 1292q0 -60 39 -97.5t99 -37.5q58 0 93.5 37.5t35.5 97.5t-37.5 96.5t-96.5 36.5q-60 0 -96.5 -36.5t-36.5 -96.5z" />
    <glyph glyph-name="AEacute" unicode="&#x1fc;" horiz-adv-x="1978" 
d="M987 0v410h-584l-278 -410h-117l932 1376h887v-82h-742v-549h676v-81h-676v-582h775v-82h-873zM987 1284l-536 -795h536v795zM1440 1755l-336 -215l-41 57l328 226z" />
    <glyph glyph-name="aeacute" unicode="&#x1fd;" horiz-adv-x="1769" 
d="M1155 1368l-336 -215l-41 57l328 226zM102 262q0 155 118.5 240.5t330.5 85.5q118 0 240 -29v131q0 109 -74 176.5t-193 67.5q-159 0 -331 -72l-27 74q187 78 366 78q133 0 224 -65t108 -171q51 111 153 173.5t236 62.5q190 0 310 -139.5t120 -360.5q0 -29 -2 -41h-794
q8 -187 120.5 -303.5t286.5 -116.5q145 0 305 86l35 -71q-179 -93 -348 -93q-150 0 -266.5 76.5t-175.5 212.5q-34 -132 -142.5 -210.5t-257.5 -78.5q-146 0 -244 82t-98 205zM1253 934q-155 0 -255 -108t-111 -285h700q-3 175 -95.5 284t-238.5 109zM201 268
q0 -92 74.5 -154.5t183.5 -62.5q148 0 240 95t92 247v99q-123 30 -232 30q-169 0 -263.5 -67t-94.5 -187z" />
    <glyph glyph-name="Oslashacute" unicode="&#x1fe;" horiz-adv-x="1554" 
d="M117 688q0 207 83.5 369.5t234.5 253t343 90.5q228 0 393 -131l101 135l53 -43l-100 -133q102 -96 157.5 -235t55.5 -306q0 -207 -84 -369.5t-234.5 -253t-341.5 -90.5q-230 0 -395 131l-100 -135l-54 43l99 133q-101 96 -156 235t-55 306zM213 688q0 -143 44.5 -263
t127.5 -204l733 977q-140 121 -340 121q-164 0 -293 -80.5t-200.5 -224.5t-71.5 -326zM1341 688q0 143 -44.5 263t-127.5 204l-733 -979q144 -119 342 -119q247 0 405 177t158 454zM1049 1755l-336 -215l-41 57l327 226z" />
    <glyph glyph-name="oslashacute" unicode="&#x1ff;" 
d="M102 494q0 229 136 374.5t348 145.5q157 0 280 -92l72 94l49 -39l-72 -94q152 -149 152 -389q0 -228 -134.5 -373.5t-346.5 -145.5q-164 0 -281 93l-72 -95l-49 39l70 90q-152 149 -152 392zM197 494q0 -197 112 -318l506 678q-96 80 -229 80q-172 0 -280.5 -122.5
t-108.5 -317.5zM975 494q0 194 -113 317l-508 -676q98 -82 232 -82q170 0 279.5 124t109.5 317zM856 1368l-336 -215l-41 57l328 226z" />
    <glyph glyph-name="Scommaaccent" unicode="&#x218;" horiz-adv-x="1175" 
d="M125 1049q0 157 128.5 254.5t334.5 97.5q194 0 420 -92l-27 -80q-215 88 -387 88q-165 0 -267 -74.5t-102 -193.5q0 -84 46 -143t119.5 -92t162 -58.5t177 -55.5t162 -70.5t119.5 -115t46 -178.5q0 -161 -129.5 -261t-339.5 -100q-211 0 -471 109l26 80
q272 -105 439 -105q169 0 272.5 76.5t103.5 200.5q0 68 -28.5 119.5t-76.5 84.5t-110.5 58t-132 45t-138.5 41t-131.5 51t-110.5 69.5t-76.5 101.5t-28.5 143zM516 -215q0 32 20 52t52 20q37 0 59.5 -29.5t22.5 -81.5q0 -90 -45 -166.5t-129 -130.5l-31 43q127 98 127 225
q-31 -5 -53.5 15.5t-22.5 52.5z" />
    <glyph glyph-name="scommaaccent" unicode="&#x219;" horiz-adv-x="903" 
d="M111 752q0 116 94.5 189t245.5 73q147 0 315 -68l-25 -76q-149 64 -284 64q-111 0 -180.5 -50.5t-69.5 -131.5q0 -58 32.5 -98t85 -62.5t115.5 -40.5t126 -39.5t115.5 -51t85 -84t32.5 -130.5q0 -120 -96.5 -195.5t-251.5 -75.5q-163 0 -349 76l25 76q174 -74 317 -74
q117 0 187.5 53t70.5 140q0 47 -20 82.5t-54.5 58t-79 40t-93.5 31.5t-97.5 29t-93 36.5t-79 50.5t-54.5 74t-20 104zM379 -215q0 32 20 52t52 20q37 0 59 -29.5t22 -81.5q0 -90 -45 -166.5t-129 -130.5l-30 43q127 98 127 225q-31 -5 -53.5 15.5t-22.5 52.5z" />
    <glyph glyph-name="uni021A" unicode="&#x21a;" horiz-adv-x="1218" 
d="M559 0v1292h-500v84h1100v-84h-500v-1292h-100zM537 -215q0 32 19.5 52t51.5 20q37 0 59.5 -29.5t22.5 -81.5q0 -90 -45 -166.5t-129 -130.5l-31 43q127 98 127 225q-31 -4 -53 16t-22 52z" />
    <glyph glyph-name="uni021B" unicode="&#x21b;" horiz-adv-x="804" 
d="M375 1284v-295h338v-80h-338v-659q0 -85 53.5 -138t138.5 -53q72 0 148 23l16 -80q-91 -27 -182 -27q-120 0 -196.5 75.5t-76.5 193.5v665h-217v80h217v295h99zM410 -215q0 32 19.5 52t51.5 20q37 0 59.5 -29.5t22.5 -81.5q0 -90 -45 -166.5t-129 -130.5l-31 43
q127 98 127 225q-31 -4 -53 16t-22 52z" />
    <glyph glyph-name="circumflex" unicode="&#x2c6;" horiz-adv-x="491" 
d="M-37 1206l248 242h70l247 -242l-47 -51l-235 219l-236 -219z" />
    <glyph glyph-name="caron" unicode="&#x2c7;" horiz-adv-x="491" 
d="M528 1405l-247 -244h-70l-248 244l47 49l236 -217l235 217z" />
    <glyph glyph-name="breve" unicode="&#x2d8;" horiz-adv-x="491" 
d="M-37 1415h72q4 -86 63.5 -140t147.5 -54t147.5 54t63.5 140h71q-4 -121 -83.5 -195.5t-198.5 -74.5q-120 0 -199.5 75t-83.5 195z" />
    <glyph glyph-name="dotaccent" unicode="&#x2d9;" horiz-adv-x="491" 
d="M170 1305q0 34 21 54.5t55 20.5t55 -20.5t21 -54.5t-21 -55t-55 -21t-55 21t-21 55z" />
    <glyph glyph-name="ring" unicode="&#x2da;" horiz-adv-x="491" 
d="M53 1305q0 84 54 136t139 52t138.5 -52t53.5 -136t-52 -136.5t-136 -52.5q-86 0 -141.5 53t-55.5 136zM113 1305q0 -60 38.5 -97t98.5 -37q57 0 93 37t36 97t-37 96.5t-96 36.5q-60 0 -96.5 -36.5t-36.5 -96.5z" />
    <glyph glyph-name="ogonek" unicode="&#x2db;" horiz-adv-x="491" 
d="M244 27l51 -27q-201 -156 -201 -276q0 -49 32.5 -78t78.5 -29q49 0 92 21l16 -64q-64 -25 -125 -25q-74 0 -123 43.5t-49 116.5q0 153 228 318z" />
    <glyph glyph-name="tilde" unicode="&#x2dc;" horiz-adv-x="491" 
d="M115 1382q46 0 134.5 -39.5t121.5 -39.5q67 0 92 79l69 -22q-15 -59 -57 -95t-98 -36q-46 0 -134.5 39t-121.5 39q-32 0 -57 -20.5t-35 -57.5l-70 20q15 59 57.5 96t98.5 37z" />
    <glyph glyph-name="hungarumlaut" unicode="&#x2dd;" horiz-adv-x="491" 
d="M690 1425l-289 -282l-53 51l283 291zM328 1425l-291 -282l-51 51l282 291z" />
    <glyph glyph-name="commaaccent" unicode="&#x326;" horiz-adv-x="491" 
d="M174 -215q0 32 20 52t52 20q37 0 59.5 -29.5t22.5 -81.5q0 -90 -45 -166.5t-129 -130.5l-31 43q127 98 127 225q-31 -5 -53.5 15.5t-22.5 52.5z" />
    <glyph glyph-name="uni0374" unicode="&#x374;" horiz-adv-x="491" 
d="M410 1364l-185 -424l-71 27l165 430z" />
    <glyph glyph-name="uni0375" unicode="&#x375;" horiz-adv-x="491" 
d="M49 -311l184 424l72 -27l-166 -430z" />
    <glyph glyph-name="uni037E" unicode="&#x37e;" horiz-adv-x="516" 
d="M176 63q0 36 23 59t59 23q42 0 67 -34.5t25 -92.5q0 -103 -52.5 -193t-147.5 -153l-35 47q151 115 151 269q-37 -5 -63.5 17.5t-26.5 57.5zM176 924q0 35 23.5 58.5t58.5 23.5t58.5 -23.5t23.5 -58.5t-23.5 -58.5t-58.5 -23.5t-58.5 23.5t-23.5 58.5z" />
    <glyph glyph-name="tonos" unicode="&#x384;" horiz-adv-x="491" 
d="M403 1485l-143 -355l-72 25l134 358z" />
    <glyph glyph-name="dieresistonos" unicode="&#x385;" horiz-adv-x="491" 
d="M362 1491l-143 -358l-53 16l129 362zM-61 1305q0 31 19 50t50 19t50.5 -19t19.5 -50t-19.5 -50.5t-50.5 -19.5t-50 19.5t-19 50.5zM414 1305q0 31 19 50t50 19t50.5 -19t19.5 -50t-19.5 -50.5t-50.5 -19.5t-50 19.5t-19 50.5z" />
    <glyph glyph-name="Alphatonos" unicode="&#x386;" horiz-adv-x="1396" 
d="M100 0l570 1376h96l569 -1376h-104l-168 410h-690l-168 -410h-105zM719 1255l-316 -766h629zM305 1380l-143 -354l-72 25l133 358z" />
    <glyph glyph-name="anoteleia" unicode="&#x387;" horiz-adv-x="483" 
d="M160 494q0 35 23.5 58t58.5 23t58.5 -23t23.5 -58t-23.5 -58.5t-58.5 -23.5t-58.5 23.5t-23.5 58.5z" />
    <glyph glyph-name="Epsilontonos" unicode="&#x388;" horiz-adv-x="1492" 
d="M500 0v1376h841v-82h-741v-549h676v-81h-676v-582h774v-82h-874zM272 1380l-143 -354l-72 25l133 358z" />
    <glyph glyph-name="Etatonos" unicode="&#x389;" horiz-adv-x="1828" 
d="M500 0v1376h100v-631h903v631h101v-1376h-101v664h-903v-664h-100zM272 1380l-143 -354l-72 25l133 358z" />
    <glyph glyph-name="Iotatonos" unicode="&#x38a;" horiz-adv-x="825" 
d="M500 0v1376h100v-1376h-100zM272 1380l-143 -354l-72 25l133 358z" />
    <glyph glyph-name="Omicrontonos" unicode="&#x38c;" horiz-adv-x="1757" 
d="M319 688q0 207 84 369.5t235 253t343 90.5q191 0 341.5 -90.5t234 -253t83.5 -369.5t-83.5 -369.5t-234 -253t-341.5 -90.5q-192 0 -343 90.5t-235 253t-84 369.5zM422 688q0 -181 71 -324.5t198.5 -224t289.5 -80.5q244 0 400.5 177t156.5 452t-156.5 452t-400.5 177
q-162 0 -289.5 -80.5t-198.5 -224t-71 -324.5zM272 1380l-143 -354l-72 25l133 358z" />
    <glyph glyph-name="Upsilontonos" unicode="&#x38e;" horiz-adv-x="1548" 
d="M897 0v604l-506 772h113l444 -680l443 680h114l-508 -772v-604h-100zM272 1380l-143 -354l-72 25l133 358z" />
    <glyph glyph-name="Omegatonos" unicode="&#x38f;" horiz-adv-x="1787" 
d="M315 0v84h404q-180 117 -273.5 284.5t-93.5 370.5q0 292 178.5 477t460.5 185q186 0 332.5 -84t227.5 -235t81 -343q0 -203 -94 -370.5t-274 -284.5h403v-84h-539v72q404 252 404 663q0 257 -151 419.5t-390 162.5q-238 0 -388 -162.5t-150 -419.5q0 -414 403 -663v-72
h-541zM272 1380l-143 -354l-72 25l133 358z" />
    <glyph glyph-name="iotadieresistonos" unicode="&#x390;" horiz-adv-x="552" 
d="M276 989v-796q0 -62 37 -98t99 -36q44 0 100 15l14 -80q-78 -19 -133 -19q-99 0 -157 56.5t-58 152.5v805h98zM344 1491l-143 -358l-54 16l129 362zM-80 1305q0 31 19.5 50t50.5 19t50 -19t19 -50t-19 -50.5t-50 -19.5t-50.5 19.5t-19.5 50.5zM395 1305q0 31 19.5 50
t50.5 19t50.5 -19t19.5 -50t-19.5 -50.5t-50.5 -19.5t-50.5 19.5t-19.5 50.5z" />
    <glyph glyph-name="Alpha" unicode="&#x391;" horiz-adv-x="1357" 
d="M61 0l570 1376h96l569 -1376h-104l-168 410h-690l-168 -410h-105zM680 1255l-315 -766h628z" />
    <glyph glyph-name="Beta" unicode="&#x392;" horiz-adv-x="1323" 
d="M225 0v1376h529q169 0 278 -98.5t109 -251.5q0 -107 -60 -192t-163 -123q127 -32 199.5 -124.5t72.5 -219.5q0 -164 -113.5 -265.5t-290.5 -101.5h-561zM324 668v-588h450q140 0 228 82.5t88 212.5q0 129 -88.5 211t-227.5 82h-450zM324 1296v-555h419q131 0 215 78
t84 199q0 123 -84 200.5t-215 77.5h-419z" />
    <glyph glyph-name="Gamma" unicode="&#x393;" horiz-adv-x="1087" 
d="M225 0v1376h803v-84h-702v-1292h-101z" />
    <glyph glyph-name="Delta" unicode="&#x394;" horiz-adv-x="1357" 
d="M80 0v57l551 1319h96l551 -1319v-57h-1198zM680 1255l-490 -1171h977z" />
    <glyph glyph-name="Epsilon" unicode="&#x395;" horiz-adv-x="1218" 
d="M225 0v1376h842v-82h-741v-549h675v-81h-675v-582h774v-82h-875z" />
    <glyph glyph-name="Zeta" unicode="&#x396;" horiz-adv-x="1273" 
d="M117 0v61l880 1231h-856v84h989v-61l-878 -1231h903v-84h-1038z" />
    <glyph glyph-name="Eta" unicode="&#x397;" horiz-adv-x="1554" 
d="M225 0v1376h101v-631h903v631h100v-1376h-100v664h-903v-664h-101z" />
    <glyph glyph-name="Theta" unicode="&#x398;" horiz-adv-x="1554" 
d="M117 688q0 207 83.5 369.5t234.5 253t343 90.5q191 0 341.5 -90.5t234.5 -253t84 -369.5t-84 -369.5t-234.5 -253t-341.5 -90.5q-192 0 -343 90.5t-234.5 253t-83.5 369.5zM215 688q0 -182 71.5 -325.5t200 -223.5t291.5 -80q246 0 403.5 176t157.5 453t-157.5 453
t-403.5 176q-163 0 -291.5 -80t-200 -223.5t-71.5 -325.5zM444 655v82h668v-82h-668z" />
    <glyph glyph-name="Iota" unicode="&#x399;" horiz-adv-x="550" 
d="M225 0v1376h101v-1376h-101z" />
    <glyph glyph-name="Kappa" unicode="&#x39a;" horiz-adv-x="1335" 
d="M225 0v1376h99v-774l772 774h123l-641 -643l671 -733h-125l-616 670l-184 -183v-487h-99z" />
    <glyph glyph-name="Lambda" unicode="&#x39b;" horiz-adv-x="1357" 
d="M61 0l570 1376h96l569 -1376h-106l-510 1247l-512 -1247h-107z" />
    <glyph glyph-name="Mu" unicode="&#x39c;" horiz-adv-x="1734" 
d="M225 0v1376h101l542 -733l541 733h100v-1376h-94v1235l-516 -703h-63l-517 703v-1235h-94z" />
    <glyph glyph-name="Nu" unicode="&#x39d;" horiz-adv-x="1554" 
d="M225 0v1376h101l909 -1235v1235h94v-1376h-100l-910 1235v-1235h-94z" />
    <glyph glyph-name="Xi" unicode="&#x39e;" horiz-adv-x="1290" 
d="M119 0v86h1052v-86h-1052zM217 653v86h856v-86h-856zM152 1290v86h987v-86h-987z" />
    <glyph glyph-name="Omicron" unicode="&#x39f;" horiz-adv-x="1554" 
d="M117 688q0 207 83.5 369.5t234.5 253t343 90.5q191 0 341.5 -90.5t234.5 -253t84 -369.5t-84 -369.5t-234.5 -253t-341.5 -90.5q-192 0 -343 90.5t-234.5 253t-83.5 369.5zM219 688q0 -181 71 -324.5t198.5 -224t289.5 -80.5q244 0 400.5 177t156.5 452t-156.5 452
t-400.5 177q-162 0 -289.5 -80.5t-198.5 -224t-71 -324.5z" />
    <glyph glyph-name="Pi" unicode="&#x3a0;" horiz-adv-x="1554" 
d="M225 0v1376h1104v-1376h-100v1292h-903v-1292h-101z" />
    <glyph glyph-name="Rho" unicode="&#x3a1;" horiz-adv-x="1257" 
d="M225 0v1376h488q195 0 319.5 -116t124.5 -299t-124.5 -299.5t-319.5 -116.5h-389v-545h-99zM324 1292v-665h378q156 0 255.5 93.5t99.5 240.5q0 146 -99.5 238.5t-255.5 92.5h-378z" />
    <glyph glyph-name="Sigma" unicode="&#x3a3;" horiz-adv-x="1224" 
d="M131 0v68l555 637l-530 604v67h956v-84h-821l493 -559v-57l-518 -592h871v-84h-1006z" />
    <glyph glyph-name="Tau" unicode="&#x3a4;" horiz-adv-x="1218" 
d="M559 0v1292h-500v84h1100v-84h-500v-1292h-100z" />
    <glyph glyph-name="Upsilon" unicode="&#x3a5;" horiz-adv-x="1204" 
d="M551 0v604l-506 772h113l444 -680l442 680h115l-508 -772v-604h-100z" />
    <glyph glyph-name="Phi" unicode="&#x3a6;" horiz-adv-x="1564" 
d="M735 -66v218q-283 5 -459 157.5t-176 395.5t176 395t459 157v185h94v-185q281 -5 458 -157.5t177 -394.5t-177 -395t-458 -158v-218h-94zM197 705q0 -204 150 -334t388 -135v938q-238 -5 -388 -135t-150 -334zM1368 705q0 204 -150.5 334t-388.5 135v-938
q238 5 388.5 135t150.5 334z" />
    <glyph glyph-name="Chi" unicode="&#x3a7;" horiz-adv-x="1374" 
d="M88 0l535 705l-510 671h114l461 -604l459 604h115l-510 -671l534 -705h-117l-481 637l-483 -637h-117z" />
    <glyph glyph-name="Psi" unicode="&#x3a8;" horiz-adv-x="1624" 
d="M764 0v375q-275 3 -447 164t-172 413v424h97v-418q0 -218 146.5 -357.5t375.5 -139.5v915h96v-915q149 0 269.5 70t186.5 190t66 264v391h95v-395q0 -168 -77 -305.5t-218.5 -218t-321.5 -82.5v-375h-96z" />
    <glyph glyph-name="Omega" unicode="&#x3a9;" horiz-adv-x="1591" 
d="M119 0v84h403q-179 117 -272.5 284.5t-93.5 370.5q0 292 178.5 477t460.5 185q186 0 332.5 -84t227.5 -235t81 -343q0 -203 -94.5 -370.5t-274.5 -284.5h403v-84h-538v72q403 251 403 663q0 257 -150.5 419.5t-389.5 162.5q-238 0 -388.5 -162.5t-150.5 -419.5
q0 -414 403 -663v-72h-540z" />
    <glyph glyph-name="Iotadieresis" unicode="&#x3aa;" horiz-adv-x="550" 
d="M225 0v1376h101v-1376h-101zM-2 1692q0 32 20.5 51.5t53.5 19.5q32 0 51.5 -19.5t19.5 -51.5t-19.5 -52t-51.5 -20t-53 20t-21 52zM410 1692q0 32 19.5 51.5t51.5 19.5q33 0 53.5 -19.5t20.5 -51.5t-21 -52t-53 -20t-51.5 20t-19.5 52z" />
    <glyph glyph-name="Upsilondieresis" unicode="&#x3ab;" horiz-adv-x="1204" 
d="M551 0v604l-506 772h113l444 -680l442 680h115l-508 -772v-604h-100zM324 1692q0 32 20.5 51.5t52.5 19.5t52 -19.5t20 -51.5t-20 -52t-52 -20t-52.5 20t-20.5 52zM735 1692q0 32 20 51.5t52 19.5q33 0 53.5 -19.5t20.5 -51.5t-21 -52t-53 -20t-52 20t-20 52z" />
    <glyph glyph-name="alphatonos" unicode="&#x3ac;" horiz-adv-x="1296" 
d="M119 494q0 232 109.5 376t297.5 144q289 0 408 -402l137 377h94l-182 -491q83 -278 121.5 -358.5t99.5 -80.5q21 0 53 4l13 -79q-52 -9 -78 -9q-36 0 -63 13.5t-49 38.5t-45.5 77.5t-44 113.5t-52.5 165q-121 -408 -412 -408q-188 0 -297.5 144t-109.5 375zM215 494
q0 -197 84.5 -316t237.5 -119q125 0 211.5 105.5t146.5 329.5q-60 225 -146 330.5t-212 105.5q-152 0 -237 -119t-85 -317zM821 1485l-143 -355l-72 25l133 358z" />
    <glyph glyph-name="epsilontonos" unicode="&#x3ad;" horiz-adv-x="870" 
d="M578 541v-68h-89q-130 0 -210 -60.5t-80 -154.5q0 -91 74 -148t192 -57q156 0 317 82l31 -76q-185 -84 -358 -84q-156 0 -254.5 76t-98.5 199q0 90 62.5 162t167.5 96q-94 23 -148.5 89t-54.5 153q0 119 89.5 191.5t236.5 72.5q158 0 333 -78l-30 -74q-156 72 -293 72
q-110 0 -176 -53.5t-66 -141.5q0 -87 73.5 -142.5t192.5 -55.5h89zM625 1485l-144 -355l-71 25l133 358z" />
    <glyph glyph-name="etatonos" unicode="&#x3ae;" horiz-adv-x="1204" 
d="M211 0v829q0 46 -27 73.5t-71 27.5q-31 0 -58 -6l-12 80q45 10 86 10q78 0 126 -46t48 -122v-43q48 99 145 155t224 56q161 0 264.5 -101.5t103.5 -259.5v-1079h-98v1067q0 127 -82.5 208t-210.5 81q-147 0 -243.5 -101.5t-96.5 -261.5v-567h-98zM760 1485l-144 -355
l-71 25l133 358z" />
    <glyph glyph-name="iotatonos" unicode="&#x3af;" horiz-adv-x="552" 
d="M276 989v-796q0 -62 37 -98t99 -36q44 0 100 15l14 -80q-78 -19 -133 -19q-99 0 -157 56.5t-58 152.5v805h98zM385 1485l-143 -355l-72 25l133 358z" />
    <glyph glyph-name="upsilondieresistonos" unicode="&#x3b0;" 
d="M860 989h98q80 -245 80 -491q0 -226 -129.5 -374.5t-328.5 -148.5q-180 0 -299 121t-119 310q0 55 8 159t8 154q0 146 -33 270h99q32 -118 32 -268q0 -55 -8 -158.5t-8 -154.5q0 -154 92.5 -251.5t231.5 -97.5q155 0 255.5 126.5t100.5 318.5q0 231 -80 485zM686 1491
l-143 -358l-54 16l129 362zM262 1305q0 31 19.5 50t50.5 19t50 -19t19 -50t-19 -50.5t-50 -19.5t-50.5 19.5t-19.5 50.5zM737 1305q0 31 19.5 50t50.5 19t50.5 -19t19.5 -50t-19.5 -50.5t-50.5 -19.5t-50.5 19.5t-19.5 50.5z" />
    <glyph glyph-name="alpha" unicode="&#x3b1;" horiz-adv-x="1296" 
d="M119 494q0 232 109.5 376t297.5 144q289 0 408 -402l137 377h94l-182 -491q83 -278 121.5 -358.5t99.5 -80.5q21 0 53 4l13 -79q-52 -9 -78 -9q-36 0 -63 13.5t-49 38.5t-45.5 77.5t-44 113.5t-52.5 165q-121 -408 -412 -408q-188 0 -297.5 144t-109.5 375zM215 494
q0 -197 84.5 -316t237.5 -119q125 0 211.5 105.5t146.5 329.5q-60 225 -146 330.5t-212 105.5q-152 0 -237 -119t-85 -317z" />
    <glyph glyph-name="beta" unicode="&#x3b2;" horiz-adv-x="1138" 
d="M178 -426v1460q0 193 121.5 312.5t314.5 119.5q171 0 279 -103t108 -265q0 -121 -63 -212t-170 -128q137 -38 210 -138t73 -243q0 -177 -116 -289.5t-296 -112.5q-125 0 -224 60t-141 166v-627h-96zM483 713v82h115q132 0 220.5 84t88.5 215q0 128 -82 209t-213 81
q-150 0 -244 -95.5t-94 -252.5v-618q0 -159 96.5 -259t252.5 -100q147 0 239 90t92 234q0 149 -96 239.5t-256 90.5h-119z" />
    <glyph glyph-name="gamma" unicode="&#x3b3;" horiz-adv-x="1040" 
d="M842 989h98q-17 -252 -111.5 -489t-273.5 -486v-440h-98v426l-377 989h102l330 -878q154 227 236 442.5t94 435.5z" />
    <glyph glyph-name="delta" unicode="&#x3b4;" horiz-adv-x="1073" 
d="M86 414q0 154 95 283.5t270 226.5q-106 63 -157.5 127t-51.5 141q0 120 89.5 197t231.5 77q164 0 332 -75l-29 -76q-172 71 -295 71q-104 0 -169.5 -54t-65.5 -140q0 -54 36 -99.5t93 -80.5t126 -71.5t138.5 -83t126.5 -102.5t93 -142t36 -191q0 -196 -125.5 -321.5
t-322.5 -125.5q-198 0 -324.5 123t-126.5 316zM182 418q0 -159 99.5 -260t255.5 -101q155 0 253.5 103t98.5 266q0 106 -41.5 187.5t-115.5 141t-200 124.5q-174 -89 -262 -207t-88 -254z" />
    <glyph glyph-name="epsilon" unicode="&#x3b5;" horiz-adv-x="870" 
d="M578 541v-68h-89q-130 0 -210 -60.5t-80 -154.5q0 -91 74 -148t192 -57q156 0 317 82l31 -76q-185 -84 -358 -84q-156 0 -254.5 76t-98.5 199q0 90 62.5 162t167.5 96q-94 23 -148.5 89t-54.5 153q0 119 89.5 191.5t236.5 72.5q158 0 333 -78l-30 -74q-156 72 -293 72
q-110 0 -176 -53.5t-66 -141.5q0 -87 73.5 -142.5t192.5 -55.5h89z" />
    <glyph glyph-name="zeta" unicode="&#x3b6;" horiz-adv-x="903" 
d="M860 1442v-62q-106 -112 -167.5 -178.5t-141.5 -155.5t-124 -145.5t-93.5 -126t-74 -121t-40.5 -106t-16 -103.5q0 -148 104 -229.5t348 -124.5q222 -40 222 -201q0 -86 -60 -235l-82 22q49 120 49 195q0 59 -40 93.5t-126 49.5q-274 47 -395 146t-121 272q0 46 9.5 92.5
t33 99t49 98.5t73 109t87 112.5t109.5 128t123 136.5t143 154h-594v80h725z" />
    <glyph glyph-name="eta" unicode="&#x3b7;" horiz-adv-x="1204" 
d="M211 0v829q0 46 -27 73.5t-71 27.5q-31 0 -58 -6l-12 80q45 10 86 10q78 0 126 -46t48 -122v-43q48 99 145 155t224 56q161 0 264.5 -101.5t103.5 -259.5v-1079h-98v1067q0 127 -82.5 208t-210.5 81q-147 0 -243.5 -101.5t-96.5 -261.5v-567h-98z" />
    <glyph glyph-name="theta" unicode="&#x3b8;" 
d="M119 721q0 339 127.5 542t339.5 203t338.5 -202.5t126.5 -542.5t-126.5 -543t-338.5 -203t-339.5 203t-127.5 543zM586 57q166 0 267.5 174.5t102.5 464.5h-743q0 -289 102.5 -464t270.5 -175zM586 1384q-164 0 -265.5 -164t-107.5 -442h743q-7 278 -107.5 442
t-262.5 164z" />
    <glyph glyph-name="iota" unicode="&#x3b9;" horiz-adv-x="552" 
d="M276 989v-796q0 -62 37 -98t99 -36q44 0 100 15l14 -80q-78 -19 -133 -19q-99 0 -157 56.5t-58 152.5v805h98z" />
    <glyph glyph-name="kappa" unicode="&#x3ba;" horiz-adv-x="1044" 
d="M178 0v989h96v-543l197 224q211 244 422 342l37 -82q-201 -97 -393 -316l-78 -90l495 -524h-118l-445 465l-117 -135v-330h-96z" />
    <glyph glyph-name="lambda" unicode="&#x3bb;" horiz-adv-x="1040" 
d="M63 0l416 983l-76 184q-46 117 -97 166t-130 49q-49 0 -104 -14l-15 82q72 16 127 16q107 0 178 -65t130 -213l483 -1188h-103l-346 868l-360 -868h-103z" />
    <glyph glyph-name="mu" unicode="&#x3bc;" horiz-adv-x="1220" 
d="M178 -426v1415h98v-641q0 -128 82.5 -208.5t212.5 -80.5q147 0 242.5 101.5t95.5 261.5v567h99v-829q0 -46 27 -73.5t71 -27.5q26 0 57 7l13 -80q-50 -11 -86 -11q-78 0 -126.5 46t-48.5 122v43q-48 -99 -139 -155t-207 -56q-100 0 -176 38t-117 110v-549h-98z" />
    <glyph glyph-name="nu" unicode="&#x3bd;" horiz-adv-x="1040" 
d="M842 989h98q-15 -250 -113.5 -491.5t-283.5 -497.5h-86l-377 989h102l330 -878q154 227 236 442.5t94 435.5z" />
    <glyph glyph-name="xi" unicode="&#x3be;" horiz-adv-x="903" 
d="M844 1442v-78h-156q-180 0 -302 -83t-122 -210q0 -115 91 -188.5t231 -73.5h127v-78h-119q-173 0 -282 -87t-109 -226q0 -131 109 -209.5t343 -118.5q222 -40 222 -201q0 -89 -62 -235l-80 22q49 120 49 195q0 59 -40 93.5t-126 49.5q-264 46 -390 143t-126 255
q0 130 82 225.5t224 132.5q-111 35 -175.5 113.5t-64.5 179.5q0 102 69 184.5t187 120.5h-289v74h709z" />
    <glyph glyph-name="omicron" unicode="&#x3bf;" 
d="M102 494q0 229 136 374.5t348 145.5t346.5 -145.5t134.5 -374.5q0 -228 -134.5 -373.5t-346.5 -145.5t-348 146t-136 373zM203 494q0 -192 107 -314.5t276 -122.5q167 0 275 122.5t108 314.5q0 193 -107.5 315.5t-275.5 122.5q-169 0 -276 -122.5t-107 -315.5z" />
    <glyph glyph-name="pi" unicode="&#x3c0;" horiz-adv-x="1302" 
d="M1208 989v-80h-217v-735q0 -53 31.5 -84t83.5 -31q38 0 72 9l12 -80q-54 -13 -100 -13q-87 0 -140 53t-53 140v741h-524v-909h-97v909h-217v80h1149z" />
    <glyph glyph-name="rho" unicode="&#x3c1;" 
d="M162 -426v958q0 212 124.5 347t325.5 135q202 0 328.5 -145t126.5 -373q0 -227 -126 -374t-320 -147q-122 0 -216.5 56.5t-144.5 158.5v-616h-98zM969 496q0 195 -98 315.5t-265 120.5q-155 0 -251.5 -109.5t-96.5 -279.5v-137q0 -152 95.5 -249.5t252.5 -97.5
q160 0 261.5 122.5t101.5 314.5z" />
    <glyph glyph-name="sigma1" unicode="&#x3c2;" horiz-adv-x="962" 
d="M102 522q0 214 131 353t332 139q159 0 316 -86l-39 -74q-137 76 -264 76q-164 0 -269.5 -114.5t-105.5 -293.5q0 -175 106 -285.5t314 -146.5q112 -20 166.5 -69.5t54.5 -131.5q0 -86 -60 -235l-82 22q50 123 50 195q0 59 -40 93.5t-126 49.5q-236 41 -360 173t-124 335z
" />
    <glyph glyph-name="sigma" unicode="&#x3c3;" horiz-adv-x="1236" 
d="M102 479q0 231 136 370.5t364 139.5h574v-80h-291q153 -210 153 -432q0 -223 -131.5 -362.5t-337.5 -139.5q-200 0 -333.5 141.5t-133.5 362.5zM203 479q0 -184 105.5 -303t262.5 -119q164 0 266.5 117.5t102.5 306.5q0 220 -166 428h-170q-182 0 -291.5 -118
t-109.5 -312z" />
    <glyph glyph-name="tau" unicode="&#x3c4;" horiz-adv-x="946" 
d="M870 989v-80h-372v-716q0 -63 35.5 -98.5t97.5 -35.5q43 0 102 15l15 -80q-78 -19 -134 -19q-100 0 -157.5 56t-57.5 153v725h-340v80h811z" />
    <glyph glyph-name="upsilon" unicode="&#x3c5;" 
d="M860 989h98q80 -245 80 -491q0 -226 -129.5 -374.5t-328.5 -148.5q-180 0 -299 121t-119 310q0 55 8 159t8 154q0 146 -33 270h99q32 -118 32 -268q0 -55 -8 -158.5t-8 -154.5q0 -154 92.5 -251.5t231.5 -97.5q155 0 255.5 126.5t100.5 318.5q0 231 -80 485z" />
    <glyph glyph-name="phi" unicode="&#x3c6;" horiz-adv-x="1372" 
d="M641 -426v403q-239 12 -389 155.5t-150 361.5t150 362t389 154v432h90v-432q239 -10 389 -154t150 -362t-150 -361.5t-389 -155.5v-403h-90zM193 494q0 -185 125 -306.5t323 -128.5v871q-198 -9 -323 -130.5t-125 -305.5zM1180 494q0 184 -125.5 305.5t-323.5 130.5v-871
q198 8 323.5 129.5t125.5 305.5z" />
    <glyph glyph-name="chi" unicode="&#x3c7;" horiz-adv-x="1067" 
d="M604 291l148 -330q79 -183 132.5 -255.5t127.5 -72.5q27 0 71 7l17 -80q-45 -11 -99 -11q-99 0 -165.5 79t-151.5 270l-137 311l-383 -635h-103l445 731l-139 316q-76 177 -126.5 243t-125.5 66q-39 0 -72 -8l-16 82q41 10 96 10q102 0 167.5 -74.5t143.5 -257.5
l129 -295l363 602h102z" />
    <glyph glyph-name="psi" unicode="&#x3c8;" horiz-adv-x="1460" 
d="M686 -426v401q-235 8 -379.5 145t-144.5 355q0 49 8 132.5t8 127.5q0 119 -33 254h93q32 -128 32 -252q0 -49 -8 -132t-8 -128q0 -185 119.5 -299t312.5 -117v1223h88v-1223q210 9 336.5 148.5t126.5 353.5q0 187 -78 426h88q80 -242 80 -432q0 -246 -153 -408.5
t-400 -171.5v-403h-88z" />
    <glyph glyph-name="omega" unicode="&#x3c9;" horiz-adv-x="1591" 
d="M842 733v-256q0 -190 74.5 -304t199.5 -114q115 0 186.5 105.5t71.5 275.5q0 289 -133 549h98q131 -265 131 -555q0 -203 -95.5 -331t-248.5 -128q-120 0 -212 82t-119 219q-26 -136 -118 -218.5t-212 -82.5q-153 0 -249.5 128t-96.5 331q0 290 131 555h100
q-135 -264 -135 -549q0 -170 72 -275.5t188 -105.5q125 0 200 114t75 304v256h92z" />
    <glyph glyph-name="iotadieresis" unicode="&#x3ca;" horiz-adv-x="552" 
d="M276 989v-796q0 -62 37 -98t99 -36q44 0 100 15l14 -80q-78 -19 -133 -19q-99 0 -157 56.5t-58 152.5v805h98zM-51 1305q0 32 20.5 51.5t53.5 19.5q32 0 51.5 -19.5t19.5 -51.5t-19.5 -52t-51.5 -20t-53 20t-21 52zM360 1305q0 32 20 51.5t52 19.5q33 0 53.5 -19.5
t20.5 -51.5t-21 -52t-53 -20t-52 20t-20 52z" />
    <glyph glyph-name="upsilondieresis" unicode="&#x3cb;" 
d="M860 989h98q80 -245 80 -491q0 -226 -129.5 -374.5t-328.5 -148.5q-180 0 -299 121t-119 310q0 55 8 159t8 154q0 146 -33 270h99q32 -118 32 -268q0 -55 -8 -158.5t-8 -154.5q0 -154 92.5 -251.5t231.5 -97.5q155 0 255.5 126.5t100.5 318.5q0 231 -80 485zM291 1305
q0 32 20.5 51.5t53.5 19.5q32 0 51.5 -19.5t19.5 -51.5t-19.5 -52t-51.5 -20t-53 20t-21 52zM702 1305q0 32 20 51.5t52 19.5q33 0 53.5 -19.5t20.5 -51.5t-21 -52t-53 -20t-52 20t-20 52z" />
    <glyph glyph-name="omicrontonos" unicode="&#x3cc;" 
d="M102 494q0 229 136 374.5t348 145.5t346.5 -145.5t134.5 -374.5q0 -228 -134.5 -373.5t-346.5 -145.5t-348 146t-136 373zM203 494q0 -192 107 -314.5t276 -122.5q167 0 275 122.5t108 314.5q0 193 -107.5 315.5t-275.5 122.5q-169 0 -276 -122.5t-107 -315.5zM743 1485
l-143 -355l-72 25l134 358z" />
    <glyph glyph-name="upsilontonos" unicode="&#x3cd;" 
d="M860 989h98q80 -245 80 -491q0 -226 -129.5 -374.5t-328.5 -148.5q-180 0 -299 121t-119 310q0 55 8 159t8 154q0 146 -33 270h99q32 -118 32 -268q0 -55 -8 -158.5t-8 -154.5q0 -154 92.5 -251.5t231.5 -97.5q155 0 255.5 126.5t100.5 318.5q0 231 -80 485zM727 1485
l-143 -355l-72 25l133 358z" />
    <glyph glyph-name="omegatonos" unicode="&#x3ce;" horiz-adv-x="1591" 
d="M842 733v-256q0 -190 74.5 -304t199.5 -114q115 0 186.5 105.5t71.5 275.5q0 289 -133 549h98q131 -265 131 -555q0 -203 -95.5 -331t-248.5 -128q-120 0 -212 82t-119 219q-26 -136 -118 -218.5t-212 -82.5q-153 0 -249.5 128t-96.5 331q0 290 131 555h100
q-135 -264 -135 -549q0 -170 72 -275.5t188 -105.5q125 0 200 114t75 304v256h92zM952 1485l-143 -355l-72 25l133 358z" />
    <glyph glyph-name="uni03D0" unicode="&#x3d0;" horiz-adv-x="1073" 
d="M119 690q0 225 63.5 401.5t180.5 275.5t268 99q134 0 219.5 -85t85.5 -220q0 -177 -152 -307q201 -158 201 -416q0 -199 -117 -331t-299 -132q-208 0 -329 190t-121 525zM844 1159q0 99 -62.5 163t-158.5 64q-117 0 -211 -86.5t-145 -229.5t-52 -312h27q267 0 434.5 112
t167.5 289zM891 432q0 234 -182 369q-186 -121 -463 -121h-31q1 -295 95.5 -460t258.5 -165q139 0 230.5 107t91.5 270z" />
    <glyph glyph-name="theta1" unicode="&#x3d1;" horiz-adv-x="1302" 
d="M1274 778v-82h-178q-2 -326 -114 -523.5t-314 -197.5q-85 0 -150 25t-102.5 65.5t-66.5 93t-45 106.5t-36 106.5t-40 93t-56.5 65.5t-87.5 25q-34 0 -72 -12l-14 80q58 14 96 14q57 0 100.5 -20t70.5 -53.5t47 -77t35.5 -91.5t31.5 -96t39 -91.5t53 -77t79 -53.5t112 -20
q163 0 251 173.5t88 465.5h-34q-195 0 -349.5 60t-239.5 165.5t-85 237.5q0 135 89 221t236 86q203 0 339 -190.5t139 -497.5h178zM387 1157q0 -166 163.5 -272.5t422.5 -106.5h28q0 175 -51 314.5t-137.5 215.5t-191.5 76q-106 0 -170 -63t-64 -164z" />
    <glyph glyph-name="phi1" unicode="&#x3d5;" horiz-adv-x="1404" 
d="M195 526q0 -198 123.5 -328t322.5 -139v611q0 152 85.5 248t221.5 96q158 0 256.5 -123.5t98.5 -317.5q0 -252 -158.5 -418t-411.5 -178v-403h-92v403q-239 12 -389 163.5t-150 383.5q0 137 60.5 262t177.5 220l53 -68q-198 -173 -198 -412zM1210 573q0 158 -72.5 257.5
t-187.5 99.5q-97 0 -157 -71.5t-60 -188.5v-611q213 10 345 152.5t132 361.5z" />
    <glyph glyph-name="uni0400" unicode="&#x400;" horiz-adv-x="1218" 
d="M225 0v1376h842v-82h-741v-549h675v-81h-675v-582h774v-82h-875zM410 1823l325 -226l-39 -57l-336 215z" />
    <glyph glyph-name="afii10023" unicode="&#x401;" horiz-adv-x="1218" 
d="M225 0v1376h842v-82h-741v-549h675v-81h-675v-582h774v-82h-875zM346 1692q0 32 20.5 51.5t53.5 19.5q32 0 52 -19.5t20 -51.5t-20 -52t-52 -20t-53 20t-21 52zM758 1692q0 32 19.5 51.5t51.5 19.5q33 0 53.5 -19.5t20.5 -51.5t-21 -52t-53 -20t-51.5 20t-19.5 52z" />
    <glyph glyph-name="afii10051" unicode="&#x402;" horiz-adv-x="1710" 
d="M526 0v1292h-467v84h1100v-84h-532v-577q278 59 489 59q234 0 364 -109.5t130 -291.5q0 -181 -125 -289.5t-342 -108.5q-141 0 -273 35l23 82q116 -31 240 -31q176 0 275 83.5t99 226.5q0 145 -105.5 232t-301.5 87q-204 0 -473 -59v-631h-101z" />
    <glyph glyph-name="afii10052" unicode="&#x403;" horiz-adv-x="1087" 
d="M225 0v1376h803v-84h-702v-1292h-101zM879 1755l-336 -215l-41 57l327 226z" />
    <glyph glyph-name="afii10053" unicode="&#x404;" horiz-adv-x="1333" 
d="M1014 745v-81h-795q5 -269 161.5 -437t403.5 -168q203 0 392 134l45 -72q-210 -146 -447 -146q-291 0 -474 199t-183 514q0 156 48.5 289t134 226t208 145.5t266.5 52.5q237 0 447 -146l-45 -71q-187 133 -392 133q-239 0 -394 -158.5t-169 -413.5h793z" />
    <glyph glyph-name="afii10054" unicode="&#x405;" horiz-adv-x="1175" 
d="M125 1049q0 157 128.5 254.5t334.5 97.5q194 0 420 -92l-27 -80q-215 88 -387 88q-165 0 -267 -74.5t-102 -193.5q0 -84 46 -143t119.5 -92t162 -58.5t177 -55.5t162 -70.5t119.5 -115t46 -178.5q0 -161 -129.5 -261t-339.5 -100q-211 0 -471 109l26 80
q272 -105 439 -105q169 0 272.5 76.5t103.5 200.5q0 68 -28.5 119.5t-76.5 84.5t-110.5 58t-132 45t-138.5 41t-131.5 51t-110.5 69.5t-76.5 101.5t-28.5 143z" />
    <glyph glyph-name="afii10055" unicode="&#x406;" horiz-adv-x="550" 
d="M225 0v1376h101v-1376h-101z" />
    <glyph glyph-name="afii10056" unicode="&#x407;" horiz-adv-x="550" 
d="M225 0v1376h101v-1376h-101zM-2 1692q0 32 20.5 51.5t53.5 19.5q32 0 51.5 -19.5t19.5 -51.5t-19.5 -52t-51.5 -20t-53 20t-21 52zM410 1692q0 32 19.5 51.5t51.5 19.5q33 0 53.5 -19.5t20.5 -51.5t-21 -52t-53 -20t-51.5 20t-19.5 52z" />
    <glyph glyph-name="afii10057" unicode="&#x408;" horiz-adv-x="897" 
d="M672 1376v-1042q0 -158 -101.5 -258.5t-261.5 -100.5q-118 0 -252 35l17 82q118 -31 217 -31q123 0 201.5 78t78.5 201v1036h101z" />
    <glyph glyph-name="afii10058" unicode="&#x409;" horiz-adv-x="2299" 
d="M1251 0v1292h-749v-907q0 -195 -91 -302.5t-255 -107.5q-53 0 -129 13l10 86q67 -13 108 -13q126 0 192 84.5t66 243.5v987h943v-581h430q185 0 304.5 -112.5t119.5 -285.5q0 -174 -119.5 -285.5t-304.5 -111.5h-525zM1346 711v-627h421q148 0 242 87.5t94 225.5t-94 226
t-242 88h-421z" />
    <glyph glyph-name="afii10059" unicode="&#x40a;" horiz-adv-x="2250" 
d="M1202 0v680h-878v-680h-99v1376h99v-614h878v614h94v-614h443q183 0 297 -104.5t114 -276.5t-114 -276.5t-297 -104.5h-537zM1296 680v-600h435q144 0 233.5 83.5t89.5 217.5q0 132 -89.5 215.5t-233.5 83.5h-435z" />
    <glyph glyph-name="afii10060" unicode="&#x40b;" horiz-adv-x="1710" 
d="M526 0v1292h-467v84h1100v-84h-532v-577q245 59 467 59q212 0 346.5 -121t134.5 -313v-340h-102v334q0 157 -110.5 256.5t-287.5 99.5q-212 0 -448 -59v-631h-101z" />
    <glyph glyph-name="afii10061" unicode="&#x40c;" horiz-adv-x="1335" 
d="M225 0v1376h99v-631h213l563 631h119l-598 -667l626 -709h-121l-587 664h-215v-664h-99zM954 1755l-336 -215l-40 57l327 226z" />
    <glyph glyph-name="uni040D" unicode="&#x40d;" horiz-adv-x="1554" 
d="M563 1823l326 -226l-39 -57l-336 215zM225 0v1376h94v-1235l910 1235h100v-1376h-94v1235l-909 -1235h-101z" />
    <glyph glyph-name="afii10062" unicode="&#x40e;" horiz-adv-x="1290" 
d="M1229 1376l-541 -1161q-117 -240 -336 -240q-76 0 -178 27l19 82q82 -23 149 -23q164 0 254 191l20 41l-522 1083h105l469 -989l454 989h107zM379 1802h72q4 -86 63.5 -140t147.5 -54t147 54t63 140h72q-4 -121 -83.5 -195.5t-198.5 -74.5q-120 0 -199.5 75t-83.5 195z
" />
    <glyph glyph-name="afii10145" unicode="&#x40f;" horiz-adv-x="1554" 
d="M225 0v1376h101v-1292h903v1292h100v-1376h-504v-360h-96v360h-504z" />
    <glyph glyph-name="afii10017" unicode="&#x410;" horiz-adv-x="1357" 
d="M61 0l570 1376h96l569 -1376h-104l-168 410h-690l-168 -410h-105zM680 1255l-315 -766h628z" />
    <glyph glyph-name="afii10018" unicode="&#x411;" horiz-adv-x="1292" 
d="M225 0v1376h860v-80h-761v-524h450q183 0 299.5 -108.5t116.5 -278.5q0 -169 -116.5 -277t-299.5 -108h-549zM324 692v-612h438q145 0 236.5 85t91.5 220t-91 221t-237 86h-438z" />
    <glyph glyph-name="afii10019" unicode="&#x412;" horiz-adv-x="1323" 
d="M225 0v1376h529q169 0 278 -98.5t109 -251.5q0 -107 -60 -192t-163 -123q127 -32 199.5 -124.5t72.5 -219.5q0 -164 -113.5 -265.5t-290.5 -101.5h-561zM324 668v-588h450q140 0 228 82.5t88 212.5q0 129 -88.5 211t-227.5 82h-450zM324 1296v-555h419q131 0 215 78
t84 199q0 123 -84 200.5t-215 77.5h-419z" />
    <glyph glyph-name="afii10020" unicode="&#x413;" horiz-adv-x="1087" 
d="M225 0v1376h803v-84h-702v-1292h-101z" />
    <glyph glyph-name="afii10021" unicode="&#x414;" horiz-adv-x="1570" 
d="M70 -360v444h98q174 311 174 717v575h932v-1292h196v-444h-94v360h-1210v-360h-96zM1178 84v1208h-738v-497q0 -395 -159 -711h897z" />
    <glyph glyph-name="afii10022" unicode="&#x415;" horiz-adv-x="1218" 
d="M225 0v1376h842v-82h-741v-549h675v-81h-675v-582h774v-82h-875z" />
    <glyph glyph-name="afii10024" unicode="&#x416;" horiz-adv-x="1998" 
d="M950 0v664h-217l-522 -664h-117l559 707l-530 669h113l499 -631h215v631h99v-631h215l499 631h113l-530 -669l559 -707h-117l-522 664h-217v-664h-99z" />
    <glyph glyph-name="afii10025" unicode="&#x417;" horiz-adv-x="1093" 
d="M354 666v77h107q178 0 281.5 80t103.5 211q0 125 -93.5 204t-242.5 79q-178 0 -391 -88l-33 80q226 92 434 92q186 0 305 -100.5t119 -258.5q0 -123 -77 -213.5t-208 -119.5q148 -35 233 -132t85 -227q0 -166 -128 -270.5t-329 -104.5q-231 0 -467 101l33 80
q232 -97 422 -97q162 0 265.5 84t103.5 215q0 138 -112.5 223t-303.5 85h-107z" />
    <glyph glyph-name="afii10026" unicode="&#x418;" horiz-adv-x="1554" 
d="M225 0v1376h94v-1235l910 1235h100v-1376h-94v1235l-909 -1235h-101z" />
    <glyph glyph-name="afii10027" unicode="&#x419;" horiz-adv-x="1554" 
d="M485 1802h72q4 -86 63.5 -140t147.5 -54t147.5 54t63.5 140h72q-4 -120 -83.5 -195t-199.5 -75t-199.5 75t-83.5 195zM225 0v1376h94v-1235l910 1235h100v-1376h-94v1235l-909 -1235h-101z" />
    <glyph glyph-name="afii10028" unicode="&#x41a;" horiz-adv-x="1335" 
d="M225 0v1376h99v-631h213l563 631h119l-598 -667l626 -709h-121l-587 664h-215v-664h-99z" />
    <glyph glyph-name="afii10029" unicode="&#x41b;" horiz-adv-x="1603" 
d="M1378 1376v-1376h-96v1292h-780v-907q0 -195 -91 -302.5t-255 -107.5q-53 0 -129 13l10 86q67 -13 108 -13q126 0 192 84.5t66 243.5v987h975z" />
    <glyph glyph-name="afii10030" unicode="&#x41c;" horiz-adv-x="1734" 
d="M225 0v1376h101l542 -733l541 733h100v-1376h-94v1235l-516 -703h-63l-517 703v-1235h-94z" />
    <glyph glyph-name="afii10031" unicode="&#x41d;" horiz-adv-x="1554" 
d="M225 0v1376h101v-631h903v631h100v-1376h-100v664h-903v-664h-101z" />
    <glyph glyph-name="afii10032" unicode="&#x41e;" horiz-adv-x="1554" 
d="M117 688q0 207 83.5 369.5t234.5 253t343 90.5q191 0 341.5 -90.5t234.5 -253t84 -369.5t-84 -369.5t-234.5 -253t-341.5 -90.5q-192 0 -343 90.5t-234.5 253t-83.5 369.5zM219 688q0 -181 71 -324.5t198.5 -224t289.5 -80.5q244 0 400.5 177t156.5 452t-156.5 452
t-400.5 177q-162 0 -289.5 -80.5t-198.5 -224t-71 -324.5z" />
    <glyph glyph-name="afii10033" unicode="&#x41f;" horiz-adv-x="1554" 
d="M225 0v1376h1104v-1376h-100v1292h-903v-1292h-101z" />
    <glyph glyph-name="afii10034" unicode="&#x420;" horiz-adv-x="1257" 
d="M225 0v1376h488q195 0 319.5 -116t124.5 -299t-124.5 -299.5t-319.5 -116.5h-389v-545h-99zM324 1292v-665h378q156 0 255.5 93.5t99.5 240.5q0 146 -99.5 238.5t-255.5 92.5h-378z" />
    <glyph glyph-name="afii10035" unicode="&#x421;" horiz-adv-x="1316" 
d="M117 688q0 156 48.5 289t134 226t208 145.5t266.5 52.5q234 0 447 -148l-45 -71q-187 133 -392 133q-252 0 -408.5 -173.5t-156.5 -453.5t156.5 -453.5t408.5 -173.5q203 0 392 134l45 -72q-213 -148 -447 -148q-291 0 -474 199t-183 514z" />
    <glyph glyph-name="afii10036" unicode="&#x422;" horiz-adv-x="1218" 
d="M559 0v1292h-500v84h1100v-84h-500v-1292h-100z" />
    <glyph glyph-name="afii10037" unicode="&#x423;" horiz-adv-x="1290" 
d="M1229 1376l-541 -1161q-117 -240 -336 -240q-76 0 -178 27l19 82q82 -23 149 -23q164 0 254 191l20 41l-522 1083h105l469 -989l454 989h107z" />
    <glyph glyph-name="afii10038" unicode="&#x424;" horiz-adv-x="1564" 
d="M735 -66v218q-283 5 -459 157.5t-176 395.5t176 395t459 157v185h94v-185q281 -5 458 -157.5t177 -394.5t-177 -395t-458 -158v-218h-94zM197 705q0 -204 150 -334t388 -135v938q-238 -5 -388 -135t-150 -334zM1368 705q0 204 -150.5 334t-388.5 135v-938
q238 5 388.5 135t150.5 334z" />
    <glyph glyph-name="afii10039" unicode="&#x425;" horiz-adv-x="1374" 
d="M88 0l535 705l-510 671h114l461 -604l459 604h115l-510 -671l534 -705h-117l-481 637l-483 -637h-117z" />
    <glyph glyph-name="afii10040" unicode="&#x426;" horiz-adv-x="1626" 
d="M225 0v1376h101v-1292h903v1292h100v-1292h197v-444h-94v360h-1207z" />
    <glyph glyph-name="afii10041" unicode="&#x427;" horiz-adv-x="1411" 
d="M1085 0v629q-266 -60 -469 -60q-213 0 -347 126t-134 325v356h103v-350q0 -165 109.5 -269t287.5 -104q194 0 450 60v663h101v-1376h-101z" />
    <glyph glyph-name="afii10042" unicode="&#x428;" horiz-adv-x="2234" 
d="M225 0v1376h101v-1292h741v1292h100v-1292h742v1292h100v-1376h-1784z" />
    <glyph glyph-name="afii10043" unicode="&#x429;" horiz-adv-x="2306" 
d="M225 0v1376h101v-1292h741v1292h100v-1292h742v1292h100v-1292h197v-444h-99v360h-1882z" />
    <glyph glyph-name="afii10044" unicode="&#x42a;" horiz-adv-x="1552" 
d="M487 1292h-428v84h527v-581h442q185 0 304.5 -112.5t119.5 -285.5q0 -174 -119.5 -285.5t-304.5 -111.5h-541v1292zM586 711v-627h430q149 0 242.5 87.5t93.5 225.5t-93.5 226t-242.5 88h-430z" />
    <glyph glyph-name="afii10045" unicode="&#x42b;" horiz-adv-x="1841" 
d="M225 0v1376h99v-581h442q185 0 304.5 -112.5t119.5 -285.5q0 -174 -119.5 -285.5t-304.5 -111.5h-541zM324 711v-627h430q149 0 242.5 87.5t93.5 225.5t-93.5 226t-242.5 88h-430zM1516 0v1376h100v-1376h-100z" />
    <glyph glyph-name="afii10046" unicode="&#x42c;" horiz-adv-x="1290" 
d="M225 0v1376h99v-581h442q185 0 304.5 -112.5t119.5 -285.5q0 -174 -119.5 -285.5t-304.5 -111.5h-541zM324 711v-627h430q149 0 242.5 87.5t93.5 225.5t-93.5 226t-242.5 88h-430z" />
    <glyph glyph-name="afii10047" unicode="&#x42d;" horiz-adv-x="1333" 
d="M1217 688q0 -208 -83 -370.5t-233 -252.5t-342 -90q-236 0 -446 146l45 72q189 -134 391 -134q247 0 403 168t162 437h-795v81h793q-14 255 -169 413.5t-394 158.5q-204 0 -391 -133l-45 71q210 146 446 146q192 0 342 -89.5t233 -252t83 -371.5z" />
    <glyph glyph-name="afii10048" unicode="&#x42e;" horiz-adv-x="2088" 
d="M225 0v1376h101v-628h346q17 289 197.5 471t451.5 182q188 0 337 -90.5t232.5 -253.5t83.5 -369t-83.5 -369t-232.5 -253.5t-337 -90.5q-138 0 -257.5 51t-204.5 141t-135 218t-54 277h-344v-662h-101zM768 688q0 -136 41.5 -253t114 -199.5t175.5 -129.5t222 -47
q241 0 396 177t155 452t-155 452t-396 177q-119 0 -222 -47t-175.5 -129.5t-114 -199.5t-41.5 -253z" />
    <glyph glyph-name="afii10049" unicode="&#x42f;" horiz-adv-x="1323" 
d="M999 0v578h-352l-407 -578h-113l418 588q-164 15 -265.5 122t-101.5 267q0 175 120.5 287t307.5 112h492v-1376h-99zM999 659v633h-381q-151 0 -245 -87.5t-94 -227.5q0 -142 94 -230t245 -88h381z" />
    <glyph glyph-name="afii10065" unicode="&#x430;" horiz-adv-x="1099" 
d="M102 264q0 153 119 238.5t330 85.5q118 0 240 -29v131q0 109 -74 176.5t-193 67.5q-159 0 -331 -72l-27 74q187 78 366 78q157 0 256 -90.5t99 -233.5v-532q0 -47 27.5 -75t74.5 -28q26 0 58 8l10 -77q-49 -11 -88 -11q-74 0 -121 46t-47 122v37q-49 -97 -145 -151
t-216 -54q-145 0 -241.5 82.5t-96.5 206.5zM201 268q0 -92 74.5 -154.5t183.5 -62.5q149 0 240.5 94.5t91.5 247.5v99q-123 30 -232 30q-169 0 -263.5 -67t-94.5 -187z" />
    <glyph glyph-name="afii10066" unicode="&#x431;" 
d="M1067 514q0 -237 -131.5 -388t-337.5 -151q-218 0 -348.5 161.5t-130.5 438.5q0 663 489 799l318 92l20 -77l-319 -95q-177 -53 -274.5 -180.5t-127.5 -335.5q55 114 157 175t236 61q195 0 322 -141t127 -359zM973 510q0 186 -104 303t-267 117q-169 0 -277 -114
t-108 -294q0 -204 106.5 -333.5t272.5 -129.5q165 0 271 126t106 325z" />
    <glyph glyph-name="afii10067" unicode="&#x432;" horiz-adv-x="1001" 
d="M178 0v989h404q124 0 202 -72t78 -186q0 -77 -39.5 -134t-111.5 -85q88 -24 137 -90t49 -156q0 -119 -84.5 -192.5t-214.5 -73.5h-420zM270 473v-399h318q97 0 157 55.5t60 144.5t-60 144t-157 55h-318zM270 915v-376h301q90 0 144.5 50t54.5 134q0 85 -55 138.5
t-144 53.5h-301z" />
    <glyph glyph-name="afii10068" unicode="&#x433;" horiz-adv-x="876" 
d="M178 0v989h623v-80h-525v-909h-98z" />
    <glyph glyph-name="afii10069" unicode="&#x434;" 
d="M70 -328v408h65q113 210 113 495v414h704v-909h131v-408h-92v328h-829v-328h-92zM864 80v829h-528v-340q0 -286 -98 -489h626z" />
    <glyph glyph-name="afii10070" unicode="&#x435;" horiz-adv-x="1083" 
d="M102 494q0 229 129.5 374.5t333.5 145.5q190 0 310 -139.5t120 -360.5v-41h-794q6 -186 119 -303t288 -117q141 0 305 86l33 -71q-179 -93 -348 -93q-217 0 -356.5 146t-139.5 373zM565 934q-154 0 -253.5 -108t-110.5 -285h700q-3 175 -96 284t-240 109z" />
    <glyph glyph-name="afii10072" unicode="&#x436;" horiz-adv-x="1509" 
d="M709 0v467h-148l-364 -467h-107l393 510l-374 479h106l348 -442h146v442h92v-442h147l346 442h107l-375 -479l395 -510h-108l-365 467h-147v-467h-92z" />
    <glyph glyph-name="afii10073" unicode="&#x437;" horiz-adv-x="870" 
d="M293 473v68h86q120 0 193 55.5t73 142.5q0 88 -64.5 141.5t-174.5 53.5q-137 0 -293 -72l-31 74q175 78 334 78q146 0 235.5 -72.5t89.5 -191.5q0 -87 -54.5 -153t-147.5 -89q104 -24 165.5 -95.5t61.5 -162.5q0 -123 -97 -199t-253 -76q-174 0 -359 84l31 76
q157 -80 315 -80q120 0 193.5 56t73.5 147q0 94 -80.5 154.5t-210.5 60.5h-86z" />
    <glyph glyph-name="afii10074" unicode="&#x438;" 
d="M178 0v989h92v-856l625 856h96v-989h-92v856l-623 -856h-98z" />
    <glyph glyph-name="afii10075" unicode="&#x439;" 
d="M178 0v989h92v-856l625 856h96v-989h-92v856l-623 -856h-98zM293 1415h72q4 -86 63 -140t147 -54t147.5 54t63.5 140h72q-4 -120 -83.5 -195t-199.5 -75q-119 0 -198.5 74.5t-83.5 195.5z" />
    <glyph glyph-name="afii10076" unicode="&#x43a;" horiz-adv-x="1011" 
d="M178 0v989h96v-442h144l389 442h113l-422 -479l440 -510h-115l-405 467h-144v-467h-96z" />
    <glyph glyph-name="afii10077" unicode="&#x43b;" horiz-adv-x="1204" 
d="M1024 989v-989h-94v909h-529v-626q0 -146 -69.5 -227t-192.5 -81q-43 0 -96 9l10 82q54 -7 76 -7q87 0 132.5 58.5t45.5 171.5v700h717z" />
    <glyph glyph-name="afii10078" unicode="&#x43c;" horiz-adv-x="1302" 
d="M178 0v989h96l373 -506l381 506h94v-989h-90v854l-358 -473h-53l-351 475v-856h-92z" />
    <glyph glyph-name="afii10079" unicode="&#x43d;" 
d="M178 0v989h98v-444h617v444h98v-989h-98v465h-617v-465h-98z" />
    <glyph glyph-name="afii10080" unicode="&#x43e;" 
d="M102 494q0 229 136 374.5t348 145.5t346.5 -145.5t134.5 -374.5q0 -228 -134.5 -373.5t-346.5 -145.5t-348 146t-136 373zM203 494q0 -192 107 -314.5t276 -122.5q167 0 275 122.5t108 314.5q0 193 -107.5 315.5t-275.5 122.5q-169 0 -276 -122.5t-107 -315.5z" />
    <glyph glyph-name="afii10081" unicode="&#x43f;" 
d="M991 0h-98v909h-617v-909h-98v989h813v-989z" />
    <glyph glyph-name="afii10082" unicode="&#x440;" 
d="M178 -426v1415h80l12 -190q53 103 145 159t212 56q192 0 316 -146t124 -374q0 -227 -124 -373t-316 -146q-117 0 -207.5 54.5t-143.5 154.5v-610h-98zM969 494q0 192 -102.5 315t-260.5 123q-146 0 -239 -98t-93 -250v-178q0 -153 93 -251t239 -98q158 0 260.5 123
t102.5 314z" />
    <glyph glyph-name="afii10083" unicode="&#x441;" horiz-adv-x="995" 
d="M102 494q0 229 134.5 374.5t345.5 145.5q175 0 331 -111l-43 -69q-134 96 -278 96q-171 0 -280 -121.5t-109 -314.5q0 -192 109 -313.5t280 -121.5q143 0 278 97l43 -72q-157 -109 -331 -109q-211 0 -345.5 146t-134.5 373z" />
    <glyph glyph-name="afii10084" unicode="&#x442;" horiz-adv-x="929" 
d="M870 989v-80h-356v-909h-98v909h-357v80h811z" />
    <glyph glyph-name="afii10085" unicode="&#x443;" horiz-adv-x="1040" 
d="M975 989l-471 -1161q-59 -148 -130.5 -213.5t-178.5 -65.5q-47 0 -127 17l16 82q59 -15 104 -15q79 0 130.5 49t97.5 166l63 158l-416 983h103l360 -872l346 872h103z" />
    <glyph glyph-name="afii10086" unicode="&#x444;" horiz-adv-x="1372" 
d="M641 -426v403q-241 12 -390 156t-149 361q0 219 149 362.5t390 153.5v432h92v-432q239 -10 388 -153.5t149 -362.5q0 -217 -149 -361t-388 -156v-403h-92zM195 494q0 -184 124 -305t322 -130v871q-198 -11 -322 -131.5t-124 -304.5zM1178 494q0 184 -124 304.5
t-321 129.5v-867q197 8 321 128.5t124 304.5z" />
    <glyph glyph-name="afii10087" unicode="&#x445;" horiz-adv-x="1040" 
d="M74 0l383 506l-367 483h113l317 -418l316 418h112l-366 -483l383 -506h-113l-332 440l-332 -440h-114z" />
    <glyph glyph-name="afii10088" unicode="&#x446;" horiz-adv-x="1208" 
d="M178 0v989h98v-909h617v909h98v-909h131v-408h-92v328h-852z" />
    <glyph glyph-name="afii10089" unicode="&#x447;" horiz-adv-x="1073" 
d="M795 0v438q-164 -37 -330 -37q-151 0 -248.5 92t-97.5 238v258h98v-252q0 -113 74 -183.5t192 -70.5q166 0 312 35v471h98v-989h-98z" />
    <glyph glyph-name="afii10090" unicode="&#x448;" horiz-adv-x="1722" 
d="M178 0v989h98v-909h535v909h98v-909h537v909h96v-989h-1364z" />
    <glyph glyph-name="afii10091" unicode="&#x449;" horiz-adv-x="1761" 
d="M178 0v989h98v-909h535v909h98v-909h537v909h96v-909h131v-408h-92v328h-1403z" />
    <glyph glyph-name="afii10092" unicode="&#x44a;" 
d="M348 0v911h-289v78h381v-405h332q136 0 223.5 -80.5t87.5 -210.5q0 -131 -86.5 -212t-222.5 -81h-426zM440 506v-428h322q102 0 165.5 59.5t63.5 155.5q0 95 -64.5 154t-166.5 59h-320z" />
    <glyph glyph-name="afii10093" unicode="&#x44b;" horiz-adv-x="1454" 
d="M178 0v989h92v-405h334q135 0 222 -81t87 -210q0 -131 -86.5 -212t-222.5 -81h-426zM1180 0v989h94v-989h-94zM270 506v-428h322q102 0 165.5 59.5t63.5 155.5q0 95 -64.5 154t-166.5 59h-320z" />
    <glyph glyph-name="afii10094" unicode="&#x44c;" horiz-adv-x="1001" 
d="M178 0v989h92v-405h334q135 0 222 -81t87 -210q0 -131 -86.5 -212t-222.5 -81h-426zM270 506v-428h322q102 0 165.5 59.5t63.5 155.5q0 95 -64.5 154t-166.5 59h-320z" />
    <glyph glyph-name="afii10095" unicode="&#x44d;" horiz-adv-x="1013" 
d="M911 494q0 -226 -135 -372.5t-344 -146.5q-172 0 -332 109l41 66q139 -97 281 -97q166 0 274.5 116.5t114.5 301.5h-555v70h555q-14 174 -121.5 283.5t-267.5 109.5q-147 0 -281 -94l-41 63q159 111 332 111q209 0 344 -146.5t135 -373.5z" />
    <glyph glyph-name="afii10096" unicode="&#x44e;" horiz-adv-x="1593" 
d="M178 0v989h98v-444h285q15 207 144 338t319 131q204 0 335.5 -146t131.5 -374q0 -227 -131.5 -373t-335.5 -146q-196 0 -324 136.5t-139 353.5h-285v-465h-98zM657 494q0 -192 103 -314.5t264 -122.5q163 0 266 122.5t103 314.5q0 193 -103 315.5t-266 122.5
q-161 0 -264 -122.5t-103 -315.5z" />
    <glyph glyph-name="afii10097" unicode="&#x44f;" horiz-adv-x="1011" 
d="M834 989v-989h-93v401h-266l-280 -401h-107l291 414q-113 13 -183.5 92t-70.5 190q0 128 87.5 210.5t223.5 82.5h398zM741 477v434h-290q-103 0 -167.5 -60t-64.5 -157t64.5 -157t167.5 -60h290z" />
    <glyph glyph-name="uni0450" unicode="&#x450;" horiz-adv-x="1083" 
d="M102 494q0 229 129.5 374.5t333.5 145.5q190 0 310 -139.5t120 -360.5v-41h-794q6 -186 119 -303t288 -117q141 0 305 86l33 -71q-179 -93 -348 -93q-217 0 -356.5 146t-139.5 373zM565 934q-154 0 -253.5 -108t-110.5 -285h700q-3 175 -96 284t-240 109zM350 1436
l326 -226l-39 -57l-336 215z" />
    <glyph glyph-name="afii10071" unicode="&#x451;" horiz-adv-x="1083" 
d="M102 494q0 229 129.5 374.5t333.5 145.5q190 0 310 -139.5t120 -360.5v-41h-794q6 -186 119 -303t288 -117q141 0 305 86l33 -71q-179 -93 -348 -93q-217 0 -356.5 146t-139.5 373zM565 934q-154 0 -253.5 -108t-110.5 -285h700q-3 175 -96 284t-240 109zM287 1305
q0 32 20.5 51.5t52.5 19.5t52 -19.5t20 -51.5t-20 -52t-52 -20t-52.5 20t-20.5 52zM698 1305q0 32 20 51.5t52 19.5q33 0 53.5 -19.5t20.5 -51.5t-21 -52t-53 -20t-52 20t-20 52z" />
    <glyph glyph-name="afii10099" unicode="&#x452;" 
d="M178 0v1188h-151v76h151v178h98v-178h375v-76h-375v-400q50 107 145 166.5t218 59.5q163 0 266 -103t103 -266v-827q0 -118 -76.5 -193.5t-196.5 -75.5q-81 0 -180 27l14 80q76 -23 150 -23q85 0 137.5 53t52.5 138v809q0 132 -82 214.5t-211 82.5q-149 0 -244.5 -99
t-95.5 -253v-578h-98z" />
    <glyph glyph-name="afii10100" unicode="&#x453;" horiz-adv-x="876" 
d="M178 0v989h623v-80h-525v-909h-98zM719 1368l-336 -215l-41 57l328 226z" />
    <glyph glyph-name="afii10101" unicode="&#x454;" horiz-adv-x="1013" 
d="M102 494q0 227 135.5 373.5t344.5 146.5q175 0 331 -111l-41 -63q-131 94 -280 94q-159 0 -267 -109.5t-120 -283.5h553v-70h-555q6 -185 114.5 -301.5t274.5 -116.5q145 0 280 97l41 -66q-157 -109 -331 -109q-209 0 -344.5 146.5t-135.5 372.5z" />
    <glyph glyph-name="afii10102" unicode="&#x455;" horiz-adv-x="903" 
d="M111 752q0 116 94.5 189t245.5 73q147 0 315 -68l-25 -76q-149 64 -284 64q-111 0 -180.5 -50.5t-69.5 -131.5q0 -58 32.5 -98t85 -62.5t115.5 -40.5t126 -39.5t115.5 -51t85 -84t32.5 -130.5q0 -120 -96.5 -195.5t-251.5 -75.5q-163 0 -349 76l25 76q174 -74 317 -74
q117 0 187.5 53t70.5 140q0 47 -20 82.5t-54.5 58t-79 40t-93.5 31.5t-97.5 29t-93 36.5t-79 50.5t-54.5 74t-20 104z" />
    <glyph glyph-name="afii10103" unicode="&#x456;" horiz-adv-x="454" 
d="M178 0v989h98v-989h-98zM152 1305q0 34 20.5 55.5t54.5 21.5t56 -21.5t22 -55.5t-22 -55t-56 -21t-54.5 21t-20.5 55z" />
    <glyph glyph-name="afii10104" unicode="&#x457;" horiz-adv-x="454" 
d="M178 0v989h98v-989h-98zM-51 1305q0 32 20.5 51.5t53.5 19.5q32 0 51.5 -19.5t19.5 -51.5t-19.5 -52t-51.5 -20t-53 20t-21 52zM360 1305q0 32 20 51.5t52 19.5q33 0 53.5 -19.5t20.5 -51.5t-21 -52t-53 -20t-52 20t-20 52z" />
    <glyph glyph-name="afii10105" unicode="&#x458;" horiz-adv-x="471" 
d="M293 989v-1171q0 -118 -76.5 -193.5t-196.5 -75.5q-88 0 -182 27l17 80q76 -23 147 -23q86 0 139.5 53t53.5 138v1165h98zM168 1305q0 34 21 55.5t55 21.5t56 -21.5t22 -55.5t-22 -55t-56 -21t-55 21t-21 55z" />
    <glyph glyph-name="afii10106" unicode="&#x459;" horiz-adv-x="1718" 
d="M913 0v909h-512v-626q0 -146 -69.5 -227t-192.5 -81q-43 0 -96 9l10 82q54 -7 76 -7q87 0 132.5 58.5t45.5 171.5v700h699v-405h315q136 0 223.5 -80.5t87.5 -210.5q0 -131 -86.5 -212t-222.5 -81h-410zM1006 506v-428h305q101 0 164 59t63 156q0 95 -63.5 154t-165.5 59
h-303z" />
    <glyph glyph-name="afii10107" unicode="&#x45a;" horiz-adv-x="1685" 
d="M178 0v989h96v-424h607v424h92v-424h325q132 0 216.5 -78t84.5 -204q0 -127 -83.5 -205t-215.5 -78h-419v487h-607v-487h-96zM973 489v-413h311q100 0 160.5 56.5t60.5 150.5q0 93 -61.5 149.5t-161.5 56.5h-309z" />
    <glyph glyph-name="afii10108" unicode="&#x45b;" 
d="M178 0v1188h-151v76h151v178h98v-178h375v-76h-375v-400q50 106 146 166t217 60q161 0 265 -101.5t104 -259.5v-653h-99v641q0 127 -82.5 208t-210.5 81q-147 0 -243.5 -101.5t-96.5 -261.5v-567h-98z" />
    <glyph glyph-name="afii10109" unicode="&#x45c;" horiz-adv-x="1011" 
d="M178 0v989h96v-442h144l389 442h113l-422 -479l440 -510h-115l-405 467h-144v-467h-96zM776 1368l-336 -215l-41 57l328 226z" />
    <glyph glyph-name="uni045D" unicode="&#x45d;" 
d="M178 0v989h92v-856l625 856h96v-989h-92v856l-623 -856h-98zM371 1436l325 -226l-39 -57l-335 215z" />
    <glyph glyph-name="afii10110" unicode="&#x45e;" horiz-adv-x="1040" 
d="M975 989l-471 -1161q-59 -148 -130.5 -213.5t-178.5 -65.5q-47 0 -127 17l16 82q59 -15 104 -15q79 0 130.5 49t97.5 166l63 158l-416 983h103l360 -872l346 872h103zM238 1415h71q4 -86 63.5 -140t147.5 -54t147.5 54t63.5 140h72q-4 -120 -83.5 -195t-199.5 -75
q-119 0 -198.5 74.5t-83.5 195.5z" />
    <glyph glyph-name="afii10193" unicode="&#x45f;" 
d="M178 0v989h98v-909h617v909h98v-989h-360v-328h-92v328h-361z" />
    <glyph glyph-name="afii10050" unicode="&#x490;" horiz-adv-x="1087" 
d="M225 0v1376h707v328h96v-412h-702v-1292h-101z" />
    <glyph glyph-name="afii10098" unicode="&#x491;" horiz-adv-x="876" 
d="M178 0v989h531v328h92v-408h-525v-909h-98z" />
    <glyph glyph-name="uni0492" unicode="&#x492;" horiz-adv-x="1120" 
d="M258 0v614h-199v80h199v682h803v-84h-703v-598h420v-80h-420v-614h-100z" />
    <glyph glyph-name="uni0493" unicode="&#x493;" horiz-adv-x="892" 
d="M195 0v430h-164v78h164v481h622v-78h-524v-403h291v-78h-291v-430h-98z" />
    <glyph glyph-name="uni049A" unicode="&#x49a;" horiz-adv-x="1419" 
d="M225 0v1376h99v-631h213l563 631h119l-598 -667l559 -625h170v-444h-97v360h-127l-587 664h-215v-664h-99z" />
    <glyph glyph-name="uni049B" unicode="&#x49b;" horiz-adv-x="1081" 
d="M178 0v989h96v-442h144l389 442h113l-422 -479l381 -430h133v-408h-92v328h-97l-403 467h-146v-467h-96z" />
    <glyph glyph-name="uni04A2" unicode="&#x4a2;" horiz-adv-x="1626" 
d="M1432 0h-203v664h-903v-664h-101v1376h101v-631h903v631h100v-1292h197v-444h-94v360z" />
    <glyph glyph-name="uni04A3" unicode="&#x4a3;" horiz-adv-x="1208" 
d="M178 0v989h98v-444h617v444h98v-909h131v-408h-92v328h-137v465h-617v-465h-98z" />
    <glyph glyph-name="uni04AE" unicode="&#x4ae;" horiz-adv-x="1204" 
d="M551 0v604l-506 772h113l444 -680l442 680h115l-508 -772v-604h-100z" />
    <glyph glyph-name="uni04AF" unicode="&#x4af;" horiz-adv-x="1040" 
d="M471 -426v434l-408 981h103l354 -868l352 868h103l-406 -981v-434h-98z" />
    <glyph glyph-name="uni04B0" unicode="&#x4b0;" horiz-adv-x="1204" 
d="M551 0v567h-328v84h299l-477 725h113l444 -680l442 680h115l-479 -725h299v-84h-328v-567h-100z" />
    <glyph glyph-name="uni04B1" unicode="&#x4b1;" horiz-adv-x="1040" 
d="M471 -426v408h-297v73h279l-390 934h103l354 -868l352 868h103l-387 -934h276v-73h-295v-408h-98z" />
    <glyph glyph-name="uni04BA" unicode="&#x4ba;" horiz-adv-x="1411" 
d="M326 1376v-628q258 59 469 59q212 0 345.5 -126.5t133.5 -324.5v-356h-100v350q0 165 -110.5 269t-287.5 104q-201 0 -450 -59v-664h-101v1376h101z" />
    <glyph glyph-name="uni04BB" unicode="&#x4bb;" 
d="M178 0v1442h98v-654q50 106 146 166t217 60q161 0 265 -101.5t104 -259.5v-653h-99v641q0 127 -82.5 208t-210.5 81q-147 0 -243.5 -101.5t-96.5 -261.5v-567h-98z" />
    <glyph glyph-name="uni04D8" unicode="&#x4d8;" horiz-adv-x="1437" 
d="M1321 688q0 -207 -80.5 -369.5t-225.5 -253t-329 -90.5q-262 0 -428 189.5t-166 492.5v52h1127q-6 269 -170.5 438.5t-419.5 169.5q-212 0 -426 -117l-37 76q238 125 473 125q196 0 351.5 -90t243 -253t87.5 -370zM686 59q226 0 372.5 159t160.5 417h-1029
q3 -253 142.5 -414.5t353.5 -161.5z" />
    <glyph glyph-name="afii10846" unicode="&#x4d9;" horiz-adv-x="1083" 
d="M979 494q0 -228 -129.5 -373.5t-333.5 -145.5q-190 0 -310 139.5t-120 360.5q0 27 2 41h795q-8 186 -120.5 302t-287.5 116q-149 0 -305 -84l-35 70q175 94 348 94q218 0 357 -145.5t139 -374.5zM516 53q155 0 255.5 108.5t111.5 287.5h-701q3 -175 95.5 -285.5
t238.5 -110.5z" />
    <glyph glyph-name="uni04E8" unicode="&#x4e8;" horiz-adv-x="1554" 
d="M117 688q0 207 83.5 369.5t234.5 253t343 90.5q191 0 341.5 -90.5t234.5 -253t84 -369.5t-84 -369.5t-234.5 -253t-341.5 -90.5q-192 0 -343 90.5t-234.5 253t-83.5 369.5zM778 57q241 0 398 171t163 438h-1124q6 -268 163.5 -438.5t399.5 -170.5zM778 1319
q-234 0 -390 -161t-171 -415h1120q-15 254 -170.5 415t-388.5 161z" />
    <glyph glyph-name="uni04E9" unicode="&#x4e9;" 
d="M102 494q0 229 136 374.5t348 145.5t346.5 -145.5t134.5 -374.5q0 -228 -134.5 -373.5t-346.5 -145.5t-348 146t-136 373zM586 51q166 0 273.5 116t115.5 302h-778q6 -186 114 -302t275 -116zM586 938q-163 0 -269.5 -111t-117.5 -290h774q-12 179 -119 290t-268 111z
" />
    <glyph glyph-name="Wgrave" unicode="&#x1e80;" horiz-adv-x="2045" 
d="M1960 1376l-442 -1376h-103l-391 1247l-393 -1247h-103l-442 1376h102l394 -1247l393 1247h98l391 -1247l394 1247h102zM809 1823l326 -226l-39 -57l-336 215z" />
    <glyph glyph-name="wgrave" unicode="&#x1e81;" horiz-adv-x="1564" 
d="M1483 989l-326 -989h-98l-277 868l-276 -868h-100l-326 989h100l277 -868l276 868h96l277 -868l278 868h99zM567 1436l326 -226l-39 -57l-336 215z" />
    <glyph glyph-name="Wacute" unicode="&#x1e82;" horiz-adv-x="2045" 
d="M1960 1376l-442 -1376h-103l-391 1247l-393 -1247h-103l-442 1376h102l394 -1247l393 1247h98l391 -1247l394 1247h102zM1294 1755l-336 -215l-40 57l327 226z" />
    <glyph glyph-name="wacute" unicode="&#x1e83;" horiz-adv-x="1564" 
d="M1483 989l-326 -989h-98l-277 868l-276 -868h-100l-326 989h100l277 -868l276 868h96l277 -868l278 868h99zM1053 1368l-336 -215l-41 57l328 226z" />
    <glyph glyph-name="Wdieresis" unicode="&#x1e84;" horiz-adv-x="2045" 
d="M1960 1376l-442 -1376h-103l-391 1247l-393 -1247h-103l-442 1376h102l394 -1247l393 1247h98l391 -1247l394 1247h102zM745 1692q0 32 20.5 51.5t53.5 19.5q32 0 52 -19.5t20 -51.5t-20 -52t-52 -20t-53 20t-21 52zM1157 1692q0 32 20 51.5t52 19.5q33 0 53.5 -19.5
t20.5 -51.5t-21 -52t-53 -20t-52 20t-20 52z" />
    <glyph glyph-name="wdieresis" unicode="&#x1e85;" horiz-adv-x="1564" 
d="M1483 989l-326 -989h-98l-277 868l-276 -868h-100l-326 989h100l277 -868l276 868h96l277 -868l278 868h99zM504 1305q0 32 20.5 51.5t53.5 19.5q32 0 51.5 -19.5t19.5 -51.5t-19.5 -52t-51.5 -20t-53 20t-21 52zM915 1305q0 32 20 51.5t52 19.5q33 0 53.5 -19.5
t20.5 -51.5t-21 -52t-53 -20t-52 20t-20 52z" />
    <glyph glyph-name="uni1E9E" unicode="&#x1e9e;" horiz-adv-x="1554" 
d="M225 0v1376h1147v-61l-377 -514q192 -12 309 -125.5t117 -286.5q0 -181 -125.5 -297.5t-320.5 -116.5q-200 0 -385 109l39 80q176 -105 340 -105q155 0 254.5 92.5t99.5 237.5q0 149 -107.5 243.5t-279.5 94.5h-41l-18 53l376 512h-929v-1292h-99z" />
    <glyph glyph-name="Ygrave" unicode="&#x1ef2;" horiz-adv-x="1204" 
d="M551 0v604l-506 772h113l444 -680l442 680h115l-508 -772v-604h-100zM387 1823l326 -226l-39 -57l-336 215z" />
    <glyph glyph-name="ygrave" unicode="&#x1ef3;" horiz-adv-x="1040" 
d="M975 989l-471 -1161q-59 -148 -130.5 -213.5t-178.5 -65.5q-47 0 -127 17l16 82q59 -15 104 -15q79 0 130.5 49t97.5 166l63 158l-416 983h103l360 -872l346 872h103zM305 1436l326 -226l-39 -57l-336 215z" />
    <glyph glyph-name="uni2010" unicode="&#x2010;" horiz-adv-x="655" 
d="M59 467v80h537v-80h-537z" />
    <glyph glyph-name="uni2011" unicode="&#x2011;" horiz-adv-x="655" 
d="M59 467v80h537v-80h-537z" />
    <glyph glyph-name="figuredash" unicode="&#x2012;" horiz-adv-x="1179" 
d="M92 653v70h995v-70h-995z" />
    <glyph glyph-name="endash" unicode="&#x2013;" horiz-adv-x="983" 
d="M59 467v80h865v-80h-865z" />
    <glyph glyph-name="emdash" unicode="&#x2014;" horiz-adv-x="1966" 
d="M59 467v80h1848v-80h-1848z" />
    <glyph glyph-name="afii00208" unicode="&#x2015;" horiz-adv-x="1966" 
d="M59 467v80h1848v-80h-1848z" />
    <glyph glyph-name="quoteleft" unicode="&#x2018;" horiz-adv-x="483" 
d="M324 1008q0 -35 -23.5 -58.5t-58.5 -23.5q-43 0 -67.5 34t-24.5 93q0 103 52 193t148 153l35 -47q-152 -116 -152 -269q36 5 63.5 -17.5t27.5 -57.5z" />
    <glyph glyph-name="quoteright" unicode="&#x2019;" horiz-adv-x="483" 
d="M160 1313q0 36 23 59t59 23q42 0 67 -34.5t25 -92.5q0 -102 -52.5 -192.5t-148.5 -153.5l-35 47q152 116 152 268q-37 -4 -63.5 18.5t-26.5 57.5z" />
    <glyph glyph-name="quotesinglbase" unicode="&#x201a;" horiz-adv-x="417" 
d="M160 63q0 36 23 59t59 23q42 0 67 -34.5t25 -92.5q0 -102 -52.5 -192.5t-148.5 -153.5l-35 47q152 116 152 269q-37 -5 -63.5 17.5t-26.5 57.5z" />
    <glyph glyph-name="quotedblleft" unicode="&#x201c;" horiz-adv-x="845" 
d="M324 1008q0 -35 -23.5 -58.5t-58.5 -23.5q-43 0 -67.5 34t-24.5 93q0 103 52 193t148 153l35 -47q-152 -116 -152 -269q36 5 63.5 -17.5t27.5 -57.5zM688 1008q0 -35 -23.5 -58.5t-58.5 -23.5q-43 0 -67.5 34t-24.5 93q0 103 52 193t149 153l35 -47q-152 -116 -152 -269
q36 5 63 -17.5t27 -57.5z" />
    <glyph glyph-name="quotedblright" unicode="&#x201d;" horiz-adv-x="845" 
d="M160 1313q0 36 23 59t59 23q42 0 67 -34.5t25 -92.5q0 -102 -52.5 -192.5t-148.5 -153.5l-35 47q152 116 152 268q-37 -4 -63.5 18.5t-26.5 57.5zM522 1313q0 36 23 59t59 23q42 0 67 -34.5t25 -92.5q0 -103 -52.5 -193t-147.5 -153l-35 47q151 115 151 268
q-37 -4 -63.5 18.5t-26.5 57.5z" />
    <glyph glyph-name="quotedblbase" unicode="&#x201e;" horiz-adv-x="845" 
d="M160 63q0 36 23 59t59 23q42 0 67 -34.5t25 -92.5q0 -102 -52.5 -192.5t-148.5 -153.5l-35 47q152 116 152 269q-37 -5 -63.5 17.5t-26.5 57.5zM522 63q0 36 23 59t59 23q42 0 67 -34.5t25 -92.5q0 -103 -52.5 -193t-147.5 -153l-35 47q151 115 151 269
q-37 -5 -63.5 17.5t-26.5 57.5z" />
    <glyph glyph-name="dagger" unicode="&#x2020;" horiz-adv-x="995" 
d="M457 0v932h-365v80h365v364h80v-364h366v-80h-366v-932h-80z" />
    <glyph glyph-name="daggerdbl" unicode="&#x2021;" horiz-adv-x="995" 
d="M457 0v365h-365v79h365v488h-365v80h365v364h80v-364h366v-80h-366v-488h366v-79h-366v-365h-80z" />
    <glyph glyph-name="bullet" unicode="&#x2022;" horiz-adv-x="983" 
d="M197 590q0 123 86 209t209 86t208.5 -86t85.5 -209t-85.5 -209t-208.5 -86t-209 86t-86 209z" />
    <glyph glyph-name="ellipsis" unicode="&#x2026;" horiz-adv-x="1966" 
d="M246 63q0 35 23.5 58.5t58.5 23.5t58.5 -23.5t23.5 -58.5t-23.5 -58t-58.5 -23t-58.5 23t-23.5 58zM901 63q0 35 23.5 58.5t58.5 23.5t58.5 -23.5t23.5 -58.5t-23.5 -58t-58.5 -23t-58.5 23t-23.5 58zM1556 63q0 35 23.5 58.5t58.5 23.5t58.5 -23.5t23.5 -58.5t-23.5 -58
t-58.5 -23t-58.5 23t-23.5 58z" />
    <glyph glyph-name="perthousand" unicode="&#x2030;" horiz-adv-x="2541" 
d="M1786 344q0 161 91.5 265t233.5 104t234 -104t92 -265q0 -162 -91.5 -265.5t-234.5 -103.5t-234 103t-91 266zM1864 344q0 -134 69 -217.5t178 -83.5t178.5 83.5t69.5 217.5q0 133 -69.5 217t-178.5 84t-178 -84t-69 -217zM1014 344q0 162 91.5 265.5t235.5 103.5
q142 0 234 -104t92 -265q0 -162 -91.5 -265.5t-234.5 -103.5q-145 0 -236 103t-91 266zM1094 344q0 -135 68.5 -218t178.5 -83q109 0 177.5 83t68.5 218q0 133 -68.5 217t-177.5 84q-110 0 -178.5 -83.5t-68.5 -217.5zM102 1032q0 161 92 265t234 104q143 0 235.5 -104
t92.5 -265q0 -162 -92.5 -265t-235.5 -103t-234.5 103t-91.5 265zM182 1032q0 -135 68.5 -218t177.5 -83q110 0 179 83t69 218q0 134 -69 217.5t-179 83.5q-109 0 -177.5 -84t-68.5 -217zM340 23l1032 1376l58 -45l-1033 -1377z" />
    <glyph glyph-name="guilsinglleft" unicode="&#x2039;" horiz-adv-x="614" 
d="M63 481v51l404 449l59 -49l-364 -426l364 -424l-59 -49z" />
    <glyph glyph-name="guilsinglright" unicode="&#x203a;" horiz-adv-x="614" 
d="M551 532v-51l-406 -448l-59 49l367 424l-367 426l59 49z" />
    <glyph glyph-name="fraction" unicode="&#x2044;" horiz-adv-x="393" 
d="M-348 23l1032 1376l57 -45l-1032 -1377z" />
    <glyph glyph-name="zero.sup" unicode="&#x2070;" horiz-adv-x="862" 
d="M113 1212q0 201 86.5 321t232.5 120q145 0 231.5 -120t86.5 -321t-86.5 -320.5t-231.5 -119.5q-146 0 -232.5 119.5t-86.5 320.5zM190 1212q0 -172 65 -273t177 -101q110 0 175 101t65 273t-65 273.5t-175 101.5q-112 0 -177 -101.5t-65 -273.5z" />
    <glyph glyph-name="four.sup" unicode="&#x2074;" horiz-adv-x="761" 
d="M479 786v205h-420v56l418 591h74v-583h139v-64h-139v-205h-72zM139 1055h340v481z" />
    <glyph glyph-name="five.sup" unicode="&#x2075;" horiz-adv-x="696" 
d="M580 1638v-65h-390v-293q76 12 142 12q129 0 204.5 -70.5t75.5 -187.5q0 -116 -80 -190t-210 -74q-125 0 -254 76l32 59q104 -67 217 -67q98 0 158 54t60 142q0 91 -59 144t-163 53q-76 0 -194 -23v430h461z" />
    <glyph glyph-name="six.sup" unicode="&#x2076;" horiz-adv-x="782" 
d="M113 1161q0 235 88 364.5t254 129.5q97 0 198 -49l-28 -60q-82 43 -168 43q-131 0 -200 -105.5t-71 -301.5q29 66 93 105.5t143 39.5q121 0 195.5 -75t74.5 -199q0 -123 -82 -203t-200 -80q-140 0 -218.5 101.5t-78.5 289.5zM197 1069q0 -99 57.5 -166t155.5 -67
q87 0 149 60.5t62 154.5q0 97 -58 155t-151 58q-89 0 -152 -56.5t-63 -138.5z" />
    <glyph glyph-name="seven.sup" unicode="&#x2077;" horiz-adv-x="638" 
d="M139 786l344 785h-440v67h526v-51l-346 -801h-84z" />
    <glyph glyph-name="eight.sup" unicode="&#x2078;" horiz-adv-x="782" 
d="M391 1253q90 12 144.5 57.5t54.5 116.5q0 72 -55.5 118t-143.5 46t-144.5 -46t-56.5 -118q0 -71 55.5 -116t145.5 -58zM96 1006q0 80 53.5 138.5t151.5 78.5q-84 19 -134 75.5t-50 133.5q0 98 77 160.5t197 62.5q121 0 198 -62.5t77 -160.5q0 -78 -50.5 -135t-132.5 -74
q96 -20 149.5 -78.5t53.5 -138.5q0 -106 -81.5 -171t-213.5 -65q-131 0 -213 65.5t-82 170.5zM391 1192q-101 -14 -160 -61.5t-59 -120.5q0 -79 61 -129t158 -50q98 0 158.5 49.5t60.5 129.5q0 73 -59 120.5t-160 61.5z" />
    <glyph glyph-name="nine.sup" unicode="&#x2079;" horiz-adv-x="782" 
d="M670 1264q0 -235 -88 -364.5t-254 -129.5q-98 0 -199 49l29 60q82 -43 168 -43q131 0 199.5 105t70.5 302q-29 -66 -93 -105.5t-143 -39.5q-121 0 -195.5 75t-74.5 199q0 122 82.5 202.5t200.5 80.5q140 0 218.5 -101.5t78.5 -289.5zM586 1356q0 99 -57.5 166t-155.5 67
q-87 0 -149 -60.5t-62 -154.5q0 -98 57.5 -155.5t151.5 -57.5q89 0 152 56.5t63 138.5z" />
    <glyph glyph-name="plus.sup" unicode="&#x207a;" horiz-adv-x="770" 
d="M90 1178v69h260v260h70v-260h260v-69h-260v-260h-70v260h-260z" />
    <glyph glyph-name="minus.sup" unicode="&#x207b;" horiz-adv-x="770" 
d="M90 1178v69h590v-69h-590z" />
    <glyph glyph-name="equal.sup" unicode="&#x207c;" horiz-adv-x="770" 
d="M90 1319v67h590v-67h-590zM90 1038v68h590v-68h-590z" />
    <glyph glyph-name="parenleft.sup" unicode="&#x207d;" horiz-adv-x="462" 
d="M338 1767l55 -41q-192 -204 -192 -514q0 -311 192 -512l-55 -43q-211 227 -211 555q0 159 53.5 301.5t157.5 253.5z" />
    <glyph glyph-name="parenright.sup" unicode="&#x207e;" horiz-adv-x="462" 
d="M125 657l-57 43q194 200 194 514q0 309 -194 512l57 41q211 -228 211 -553q0 -158 -53.5 -301t-157.5 -256z" />
    <glyph glyph-name="zero.sub" unicode="&#x2080;" horiz-adv-x="862" 
d="M113 164q0 201 86.5 320.5t232.5 119.5q145 0 231.5 -119.5t86.5 -320.5t-86.5 -320.5t-231.5 -119.5q-146 0 -232.5 119.5t-86.5 320.5zM190 164q0 -172 65 -273.5t177 -101.5q110 0 175 101.5t65 273.5t-65 273.5t-175 101.5q-112 0 -177 -101.5t-65 -273.5z" />
    <glyph glyph-name="one.sub" unicode="&#x2081;" horiz-adv-x="544" 
d="M379 590v-852h-78v770l-227 -131l-31 55l270 158h66z" />
    <glyph glyph-name="two.sub" unicode="&#x2082;" horiz-adv-x="696" 
d="M53 -262v51l346 348q105 102 105 211q0 85 -51.5 137t-137.5 52q-102 0 -219 -74l-35 59q137 84 265 84q114 0 185 -69.5t71 -178.5q0 -138 -119 -254l-297 -299h428v-67h-541z" />
    <glyph glyph-name="three.sub" unicode="&#x2083;" horiz-adv-x="696" 
d="M231 143v62h52q95 0 155 47.5t60 122.5q0 74 -50 120t-131 46q-103 0 -215 -56l-28 62q123 59 254 59q110 0 178.5 -63t68.5 -162q0 -74 -42.5 -129.5t-114.5 -75.5q80 -24 129 -83t49 -136q0 -105 -74 -170.5t-194 -65.5q-134 0 -269 66l31 61q116 -61 227 -61
q89 0 144 49t55 127q0 80 -64.5 130t-168.5 50h-52z" />
    <glyph glyph-name="four.sub" unicode="&#x2084;" horiz-adv-x="761" 
d="M479 -262v205h-420v55l418 592h74v-584h139v-63h-139v-205h-72zM139 6h340v481z" />
    <glyph glyph-name="five.sub" unicode="&#x2085;" horiz-adv-x="696" 
d="M580 590v-66h-390v-293q83 13 142 13q129 0 204.5 -70.5t75.5 -187.5q0 -116 -80 -190.5t-210 -74.5q-125 0 -254 76l32 60q106 -68 217 -68q98 0 158 54.5t60 142.5q0 91 -59 143.5t-163 52.5q-81 0 -194 -22v430h461z" />
    <glyph glyph-name="six.sub" unicode="&#x2086;" horiz-adv-x="782" 
d="M113 113q0 235 88 364t254 129q97 0 198 -49l-28 -59q-82 43 -168 43q-131 0 -200 -105.5t-71 -302.5q29 66 93 106t143 40q121 0 195.5 -75.5t74.5 -199.5q0 -123 -82 -203t-200 -80q-140 0 -218.5 102t-78.5 290zM197 20q0 -99 57.5 -166t155.5 -67q87 0 149 60.5
t62 154.5q0 97 -58 155t-151 58q-89 0 -152 -56.5t-63 -138.5z" />
    <glyph glyph-name="seven.sub" unicode="&#x2087;" horiz-adv-x="638" 
d="M139 -262l344 784h-440v68h526v-51l-346 -801h-84z" />
    <glyph glyph-name="eight.sub" unicode="&#x2088;" horiz-adv-x="782" 
d="M391 205q90 12 144.5 57.5t54.5 116.5q0 72 -55.5 118t-143.5 46t-144.5 -46t-56.5 -118q0 -71 55.5 -116t145.5 -58zM96 -43q0 80 53.5 138.5t151.5 78.5q-84 19 -134 75.5t-50 133.5q0 98 77 160.5t197 62.5q121 0 198 -62.5t77 -160.5q0 -78 -50.5 -135t-132.5 -74
q96 -20 149.5 -78.5t53.5 -138.5q0 -106 -81.5 -171t-213.5 -65q-131 0 -213 65.5t-82 170.5zM391 143q-101 -14 -160 -61.5t-59 -120.5q0 -79 61 -128.5t158 -49.5q98 0 158.5 49t60.5 129q0 73 -59 120.5t-160 61.5z" />
    <glyph glyph-name="nine.sub" unicode="&#x2089;" horiz-adv-x="782" 
d="M670 215q0 -235 -88 -364.5t-254 -129.5q-96 0 -199 50l29 59q82 -43 168 -43q131 0 199.5 105.5t70.5 302.5q-29 -66 -93 -106t-143 -40q-121 0 -195.5 75.5t-74.5 199.5q0 122 82.5 202t200.5 80q140 0 218.5 -101.5t78.5 -289.5zM586 307q0 99 -57.5 166.5
t-155.5 67.5q-87 0 -149 -60.5t-62 -154.5q0 -98 57.5 -155.5t151.5 -57.5q90 0 152.5 56.5t62.5 137.5z" />
    <glyph glyph-name="plus.sub" unicode="&#x208a;" horiz-adv-x="770" 
d="M90 129v70h260v260h70v-260h260v-70h-260v-260h-70v260h-260z" />
    <glyph glyph-name="minus.sub" unicode="&#x208b;" horiz-adv-x="770" 
d="M90 129v70h590v-70h-590z" />
    <glyph glyph-name="equal.sub" unicode="&#x208c;" horiz-adv-x="770" 
d="M90 270v68h590v-68h-590zM90 -10v67h590v-67h-590z" />
    <glyph glyph-name="parenleft.sub" unicode="&#x208d;" horiz-adv-x="462" 
d="M338 719l55 -41q-192 -204 -192 -514q0 -311 192 -512l-55 -43q-211 227 -211 555q0 159 53.5 301.5t157.5 253.5z" />
    <glyph glyph-name="parenright.sub" unicode="&#x208e;" horiz-adv-x="462" 
d="M125 -391l-57 43q194 200 194 514q0 309 -194 512l57 41q211 -228 211 -553q0 -158 -53.5 -301t-157.5 -256z" />
    <glyph glyph-name="Euro" unicode="&#x20ac;" horiz-adv-x="1179" 
d="M76 522v70h157q-6 46 -6 96q0 68 9 129h-160v70h172q46 235 190.5 374.5t347.5 139.5q177 0 342 -92l-38 -72q-148 82 -295 82q-168 0 -288 -117.5t-159 -314.5h539v-70h-557q-6 -61 -6 -129q0 -34 4 -96h559v-70h-547q34 -212 156.5 -338.5t298.5 -126.5q147 0 295 82
l38 -71q-167 -93 -342 -93q-210 0 -357.5 148.5t-188.5 398.5h-164z" />
    <glyph glyph-name="afii61248" unicode="&#x2105;" horiz-adv-x="1716" 
d="M322 23l1032 1376l55 -45l-1032 -1377zM979 330q0 152 91.5 248t234.5 96t234 -96t91 -248q0 -153 -91 -249.5t-234 -96.5t-234.5 96.5t-91.5 249.5zM1059 330q0 -124 69 -201.5t177 -77.5t176.5 77.5t68.5 201.5q0 123 -68.5 200.5t-176.5 77.5t-177 -77.5t-69 -200.5z
M86 1047q0 152 92 249t234 97q106 0 221 -72l-35 -59q-88 63 -178 63q-113 0 -184.5 -77.5t-71.5 -200.5t71.5 -200t184.5 -77q92 0 178 59l35 -55q-110 -72 -221 -72q-141 0 -233.5 97.5t-92.5 247.5z" />
    <glyph glyph-name="litre" unicode="&#x2113;" horiz-adv-x="749" 
d="M690 1165q0 -169 -111 -332t-309 -290v-293q0 -85 54 -138t139 -53q64 0 151 23l17 -80q-91 -27 -180 -27q-119 0 -196 75.5t-77 193.5v917q0 136 71.5 220.5t188.5 84.5q109 0 180.5 -85.5t71.5 -215.5zM610 1157q0 98 -47.5 161.5t-122.5 63.5t-122.5 -62.5
t-47.5 -160.5v-522q162 112 251 246t89 274z" />
    <glyph glyph-name="numero" unicode="&#x2116;" horiz-adv-x="2377" 
d="M225 0v1376h101l909 -1235v1235h94v-1376h-100l-910 1235v-1235h-94zM1647 489v64h639v-64h-639zM1640 1051q0 152 91.5 248t234.5 96t234.5 -96t91.5 -248q0 -153 -91.5 -249.5t-234.5 -96.5t-234.5 96.5t-91.5 249.5zM1720 1051q0 -124 69 -201.5t177 -77.5t177 77.5
t69 201.5q0 123 -69 200.5t-177 77.5t-177 -77.5t-69 -200.5z" />
    <glyph glyph-name="uni2117" unicode="&#x2117;" horiz-adv-x="1703" 
d="M98 688q0 218 96 390t268 268t390 96t390 -96t268 -268t96 -390t-96 -390t-268 -268t-390 -96t-390 96t-268 268t-96 390zM160 688q0 -304 194 -498t498 -194t498 194t194 498t-194 498t-498 194t-498 -194t-194 -498zM604 262v852h311q124 0 201.5 -73t77.5 -191
q0 -117 -78 -189.5t-201 -72.5h-235v-326h-76zM680 1049v-396h229q93 0 151 54t58 143t-58 144t-151 55h-229z" />
    <glyph glyph-name="uni2120" unicode="&#x2120;" horiz-adv-x="1886" 
d="M924 524v852h82l323 -438l322 438h82v-852h-76v742l-303 -414h-51l-306 414v-742h-73zM98 1169q0 98 79.5 161t207.5 63q127 0 270 -58l-24 -63q-133 53 -242 53q-96 0 -154.5 -44t-58.5 -112q0 -49 28 -83.5t72 -53.5t98 -34.5t108 -34t98 -43.5t72 -71.5t28 -111.5
q0 -103 -81.5 -166t-213.5 -63q-151 0 -295 65l25 64q142 -62 266 -62q100 0 160.5 44.5t60.5 117.5q0 50 -28 85t-72 54.5t-98 35.5t-108 34t-98 43t-72 71t-28 109z" />
    <glyph glyph-name="trademark" unicode="&#x2122;" horiz-adv-x="1914" 
d="M358 524v785h-305v67h692v-67h-307v-785h-80zM952 524v852h82l322 -438l323 438h82v-852h-75v742l-306 -414h-49l-305 414v-742h-74z" />
    <glyph glyph-name="uni2126" unicode="&#x2126;" horiz-adv-x="1591" 
d="M119 0v84h403q-179 117 -272.5 284.5t-93.5 370.5q0 292 178.5 477t460.5 185q186 0 332.5 -84t227.5 -235t81 -343q0 -203 -94.5 -370.5t-274.5 -284.5h403v-84h-538v72q403 251 403 663q0 257 -150.5 419.5t-389.5 162.5q-238 0 -388.5 -162.5t-150.5 -419.5
q0 -414 403 -663v-72h-540z" />
    <glyph glyph-name="estimated" unicode="&#x212e;" horiz-adv-x="1966" 
d="M983 33q147 0 276.5 60.5t221.5 168.5h135q-110 -136 -276 -215.5t-357 -79.5q-160 0 -305.5 57.5t-250.5 154t-167.5 230t-62.5 279.5t62.5 279.5t167.5 230t250.5 154t305.5 57.5t305.5 -57.5t250.5 -154t167.5 -230t62.5 -279.5q0 -23 -2 -33h-1275v-401
q91 -104 218 -162.5t273 -58.5zM492 1122v-401h983v401q-93 103 -221 162t-271 59q-145 0 -272.5 -59t-218.5 -162z" />
    <glyph glyph-name="onethird" unicode="&#x2153;" horiz-adv-x="1966" 
d="M500 1376v-852h-78v770l-227 -131l-31 56l270 157h66zM438 23l1032 1376l58 -45l-1032 -1377zM1456 406v61h51q95 0 155 47.5t60 122.5q0 74 -49.5 120t-130.5 46q-105 0 -215 -55l-29 61q123 59 254 59q110 0 179 -63t69 -162q0 -73 -43 -129t-115 -76q81 -24 130 -83
t49 -136q0 -104 -74.5 -169.5t-194.5 -65.5q-135 0 -268 65l31 62q118 -62 227 -62q89 0 144 49t55 127q0 80 -65 130.5t-169 50.5h-51z" />
    <glyph glyph-name="twothirds" unicode="&#x2154;" horiz-adv-x="1966" 
d="M98 524v51l346 349q105 102 105 211q0 85 -51.5 136.5t-137.5 51.5q-102 0 -219 -74l-35 60q137 84 265 84q114 0 185 -69.5t71 -178.5q0 -138 -119 -254l-297 -299h428v-68h-541zM438 23l1032 1376l58 -45l-1032 -1377zM1456 406v61h51q95 0 155 47.5t60 122.5
q0 74 -49.5 120t-130.5 46q-105 0 -215 -55l-29 61q123 59 254 59q110 0 179 -63t69 -162q0 -73 -43 -129t-115 -76q81 -24 130 -83t49 -136q0 -104 -74.5 -169.5t-194.5 -65.5q-135 0 -268 65l31 62q118 -62 227 -62q89 0 144 49t55 127q0 80 -65 130.5t-169 50.5h-51z" />
    <glyph glyph-name="uni2155" unicode="&#x2155;" horiz-adv-x="1966" 
d="M500 1376v-852h-78v770l-227 -131l-31 56l270 157h66zM438 23l1032 1376l58 -45l-1032 -1377zM1804 852v-66h-389v-292q77 12 141 12q129 0 205 -70.5t76 -187.5q0 -116 -80.5 -190t-210.5 -74q-126 0 -254 75l33 60q106 -68 217 -68q98 0 157.5 54.5t59.5 142.5
q0 91 -58.5 143.5t-162.5 52.5q-82 0 -195 -22v430h461z" />
    <glyph glyph-name="uni2156" unicode="&#x2156;" horiz-adv-x="1966" 
d="M98 524v51l346 349q105 102 105 211q0 85 -51.5 136.5t-137.5 51.5q-102 0 -219 -74l-35 60q137 84 265 84q114 0 185 -69.5t71 -178.5q0 -138 -119 -254l-297 -299h428v-68h-541zM438 23l1032 1376l58 -45l-1032 -1377zM1804 852v-66h-389v-292q77 12 141 12
q129 0 205 -70.5t76 -187.5q0 -116 -80.5 -190t-210.5 -74q-126 0 -254 75l33 60q106 -68 217 -68q98 0 157.5 54.5t59.5 142.5q0 91 -58.5 143.5t-162.5 52.5q-82 0 -195 -22v430h461z" />
    <glyph glyph-name="uni2157" unicode="&#x2157;" horiz-adv-x="1966" 
d="M276 930v61h52q95 0 155 47.5t60 122.5q0 74 -50 120t-131 46q-105 0 -215 -55l-28 61q126 60 254 60q110 0 179 -63.5t69 -162.5q0 -73 -43 -128.5t-115 -75.5q80 -23 129 -83t49 -137q0 -104 -74 -169.5t-194 -65.5q-136 0 -269 65l31 62q118 -62 227 -62
q89 0 144 49.5t55 127.5q0 80 -64.5 130t-168.5 50h-52zM438 23l1032 1376l58 -45l-1032 -1377zM1804 852v-66h-389v-292q77 12 141 12q129 0 205 -70.5t76 -187.5q0 -116 -80.5 -190t-210.5 -74q-126 0 -254 75l33 60q106 -68 217 -68q98 0 157.5 54.5t59.5 142.5
q0 91 -58.5 143.5t-162.5 52.5q-82 0 -195 -22v430h461z" />
    <glyph glyph-name="uni2158" unicode="&#x2158;" horiz-adv-x="1966" 
d="M492 524v205h-420v55l417 592h74v-583h139v-64h-139v-205h-71zM152 793h340v481zM438 23l1032 1376l58 -45l-1032 -1377zM1804 852v-66h-389v-292q77 12 141 12q129 0 205 -70.5t76 -187.5q0 -116 -80.5 -190t-210.5 -74q-126 0 -254 75l33 60q106 -68 217 -68
q98 0 157.5 54.5t59.5 142.5q0 91 -58.5 143.5t-162.5 52.5q-82 0 -195 -22v430h461z" />
    <glyph glyph-name="uni2159" unicode="&#x2159;" horiz-adv-x="1966" 
d="M500 1376v-852h-78v770l-227 -131l-31 56l270 157h66zM438 23l1032 1376l58 -45l-1032 -1377zM1294 375q0 235 88 364t254 129q98 0 199 -49l-29 -59q-82 43 -168 43q-131 0 -199.5 -105.5t-70.5 -302.5q29 66 93 106t143 40q121 0 195.5 -75.5t74.5 -199.5
q0 -122 -82.5 -202t-200.5 -80q-140 0 -218.5 101.5t-78.5 289.5zM1378 283q0 -99 57.5 -166.5t155.5 -67.5q87 0 149 60.5t62 154.5q0 97 -58 155t-151 58q-90 0 -152.5 -56.5t-62.5 -137.5z" />
    <glyph glyph-name="uni215A" unicode="&#x215a;" horiz-adv-x="1966" 
d="M625 1376v-65h-389v-293q76 12 141 12q129 0 204.5 -70.5t75.5 -187.5q0 -116 -80 -190t-210 -74q-125 0 -254 76l32 59q106 -68 217 -68q98 0 158 54.5t60 142.5q0 91 -59 144t-163 53q-76 0 -194 -23v430h461zM438 23l1032 1376l58 -45l-1032 -1377zM1294 375
q0 235 88 364t254 129q98 0 199 -49l-29 -59q-82 43 -168 43q-131 0 -199.5 -105.5t-70.5 -302.5q29 66 93 106t143 40q121 0 195.5 -75.5t74.5 -199.5q0 -122 -82.5 -202t-200.5 -80q-140 0 -218.5 101.5t-78.5 289.5zM1378 283q0 -99 57.5 -166.5t155.5 -67.5
q87 0 149 60.5t62 154.5q0 97 -58 155t-151 58q-90 0 -152.5 -56.5t-62.5 -137.5z" />
    <glyph glyph-name="oneeighth" unicode="&#x215b;" horiz-adv-x="1966" 
d="M500 1376v-852h-78v770l-227 -131l-31 56l270 157h66zM438 23l1032 1376l58 -45l-1032 -1377zM1573 467q90 12 144.5 57.5t54.5 116.5q0 72 -55.5 118t-143.5 46t-144.5 -46t-56.5 -118q0 -71 55.5 -116t145.5 -58zM1278 219q0 80 53.5 138.5t151.5 78.5
q-84 19 -134.5 75.5t-50.5 133.5q0 98 77.5 160.5t197.5 62.5q121 0 197.5 -62.5t76.5 -160.5q0 -78 -50 -135t-132 -74q96 -20 149.5 -78.5t53.5 -138.5q0 -106 -81.5 -170.5t-213.5 -64.5q-131 0 -213 65t-82 170zM1573 406q-101 -14 -160 -62t-59 -121q0 -79 61 -128.5
t158 -49.5q98 0 158.5 49t60.5 129q0 73 -59 121t-160 62z" />
    <glyph glyph-name="threeeighths" unicode="&#x215c;" horiz-adv-x="1966" 
d="M276 930v61h52q95 0 155 47.5t60 122.5q0 74 -50 120t-131 46q-105 0 -215 -55l-28 61q126 60 254 60q110 0 179 -63.5t69 -162.5q0 -73 -43 -128.5t-115 -75.5q80 -23 129 -83t49 -137q0 -104 -74 -169.5t-194 -65.5q-136 0 -269 65l31 62q118 -62 227 -62
q89 0 144 49.5t55 127.5q0 80 -64.5 130t-168.5 50h-52zM438 23l1032 1376l58 -45l-1032 -1377zM1573 467q90 12 144.5 57.5t54.5 116.5q0 72 -55.5 118t-143.5 46t-144.5 -46t-56.5 -118q0 -71 55.5 -116t145.5 -58zM1278 219q0 80 53.5 138.5t151.5 78.5
q-84 19 -134.5 75.5t-50.5 133.5q0 98 77.5 160.5t197.5 62.5q121 0 197.5 -62.5t76.5 -160.5q0 -78 -50 -135t-132 -74q96 -20 149.5 -78.5t53.5 -138.5q0 -106 -81.5 -170.5t-213.5 -64.5q-131 0 -213 65t-82 170zM1573 406q-101 -14 -160 -62t-59 -121q0 -79 61 -128.5
t158 -49.5q98 0 158.5 49t60.5 129q0 73 -59 121t-160 62z" />
    <glyph glyph-name="fiveeighths" unicode="&#x215d;" horiz-adv-x="1966" 
d="M625 1376v-65h-389v-293q76 12 141 12q129 0 204.5 -70.5t75.5 -187.5q0 -116 -80 -190t-210 -74q-125 0 -254 76l32 59q106 -68 217 -68q98 0 158 54.5t60 142.5q0 91 -59 144t-163 53q-76 0 -194 -23v430h461zM438 23l1032 1376l58 -45l-1032 -1377zM1573 467
q90 12 144.5 57.5t54.5 116.5q0 72 -55.5 118t-143.5 46t-144.5 -46t-56.5 -118q0 -71 55.5 -116t145.5 -58zM1278 219q0 80 53.5 138.5t151.5 78.5q-84 19 -134.5 75.5t-50.5 133.5q0 98 77.5 160.5t197.5 62.5q121 0 197.5 -62.5t76.5 -160.5q0 -78 -50 -135t-132 -74
q96 -20 149.5 -78.5t53.5 -138.5q0 -106 -81.5 -170.5t-213.5 -64.5q-131 0 -213 65t-82 170zM1573 406q-101 -14 -160 -62t-59 -121q0 -79 61 -128.5t158 -49.5q98 0 158.5 49t60.5 129q0 73 -59 121t-160 62z" />
    <glyph glyph-name="seveneighths" unicode="&#x215e;" horiz-adv-x="1966" 
d="M213 524l344 785h-440v67h526v-51l-346 -801h-84zM438 23l1032 1376l58 -45l-1032 -1377zM1573 467q90 12 144.5 57.5t54.5 116.5q0 72 -55.5 118t-143.5 46t-144.5 -46t-56.5 -118q0 -71 55.5 -116t145.5 -58zM1278 219q0 80 53.5 138.5t151.5 78.5q-84 19 -134.5 75.5
t-50.5 133.5q0 98 77.5 160.5t197.5 62.5q121 0 197.5 -62.5t76.5 -160.5q0 -78 -50 -135t-132 -74q96 -20 149.5 -78.5t53.5 -138.5q0 -106 -81.5 -170.5t-213.5 -64.5q-131 0 -213 65t-82 170zM1573 406q-101 -14 -160 -62t-59 -121q0 -79 61 -128.5t158 -49.5
q98 0 158.5 49t60.5 129q0 73 -59 121t-160 62z" />
    <glyph glyph-name="uni215F" unicode="&#x215f;" horiz-adv-x="1179" 
d="M500 1376v-852h-78v770l-227 -131l-31 56l270 157h66zM438 23l1032 1376l58 -45l-1032 -1377z" />
    <glyph glyph-name="arrowleft" unicode="&#x2190;" horiz-adv-x="1966" 
d="M1901 545h-1668l541 -531l-67 -65l-641 641l641 641l67 -66l-541 -530h1668v-90z" />
    <glyph glyph-name="arrowup" unicode="&#x2191;" horiz-adv-x="1966" 
d="M938 -328v1667l-530 -540l-66 67l641 641l641 -641l-65 -67l-531 540v-1667h-90z" />
    <glyph glyph-name="arrowright" unicode="&#x2192;" horiz-adv-x="1966" 
d="M66 635h1667l-541 530l68 66l641 -641l-641 -641l-68 65l541 531h-1667v90z" />
    <glyph glyph-name="arrowdown" unicode="&#x2193;" horiz-adv-x="1966" 
d="M1028 1507v-1667l531 541l65 -68l-641 -641l-641 641l66 68l530 -541v1667h90z" />
    <glyph glyph-name="uni2196" unicode="&#x2196;" horiz-adv-x="1966" 
d="M1599 -90l-1177 1175l6 -753l-94 2v905h905l2 -94l-754 6l1176 -1178z" />
    <glyph glyph-name="uni2197" unicode="&#x2197;" horiz-adv-x="1966" 
d="M303 -27l1178 1180l-756 -8l2 94h905v-905l-94 -2l8 755l-1179 -1177z" />
    <glyph glyph-name="uni2198" unicode="&#x2198;" horiz-adv-x="1966" 
d="M367 1270l1179 -1178l-8 756l94 -2v-905h-905l-2 94l756 -8l-1178 1179z" />
    <glyph glyph-name="uni2199" unicode="&#x2199;" horiz-adv-x="1966" 
d="M1663 1206l-1178 -1179l756 8l-2 -94h-905v905l94 2l-8 -756l1179 1178z" />
    <glyph glyph-name="partialdiff" unicode="&#x2202;" 
d="M102 514q0 218 129 359t326 141q132 0 234 -61t157 -175q-12 298 -118.5 452t-299.5 154q-142 0 -288 -77l-37 75q169 84 332 84q252 0 383 -202.5t131 -636.5q0 -302 -130 -477t-348 -175q-206 0 -338.5 151t-132.5 388zM199 510q0 -199 105 -325t271 -126t272.5 141
t106.5 363q0 155 -107.5 261t-271.5 106q-166 0 -271 -117.5t-105 -302.5z" />
    <glyph glyph-name="uni2206" unicode="&#x2206;" horiz-adv-x="1357" 
d="M80 0v57l551 1319h96l551 -1319v-57h-1198zM680 1255l-490 -1171h977z" />
    <glyph glyph-name="product" unicode="&#x220f;" horiz-adv-x="1591" 
d="M225 -426v1868h1141v-1868h-100v1784h-940v-1784h-101z" />
    <glyph glyph-name="summation" unicode="&#x2211;" horiz-adv-x="1284" 
d="M100 -426v66l695 884l-662 852v66h1061v-84h-926l625 -807v-53l-657 -840h991v-84h-1127z" />
    <glyph glyph-name="minus" unicode="&#x2212;" horiz-adv-x="1179" 
d="M119 547v86h942v-86h-942z" />
    <glyph glyph-name="uni2215" unicode="&#x2215;" horiz-adv-x="393" 
d="M-348 23l1032 1376l57 -45l-1032 -1377z" />
    <glyph glyph-name="radical" unicode="&#x221a;" horiz-adv-x="1335" 
d="M1280 1432l-543 -1858h-102l-252 735l-348 -110l-25 82l428 137l246 -721l512 1757z" />
    <glyph glyph-name="infinity" unicode="&#x221e;" horiz-adv-x="1591" 
d="M86 590q0 165 91.5 271t240.5 106q120 0 205.5 -71.5t171.5 -231.5q86 160 172 231.5t204 71.5q150 0 241 -105.5t91 -271.5q0 -165 -91 -271t-241 -106q-118 0 -204 71.5t-172 231.5q-86 -160 -171.5 -231.5t-205.5 -71.5q-149 0 -240.5 105.5t-91.5 271.5zM178 590
q0 -130 68.5 -212.5t181.5 -82.5q99 0 171.5 69.5t150.5 225.5q-78 156 -150.5 225.5t-171.5 69.5q-113 0 -181.5 -83t-68.5 -212zM1413 590q0 130 -69 212.5t-183 82.5q-98 0 -170 -70t-149 -225q77 -155 149 -225t170 -70q114 0 183 83t69 212z" />
    <glyph glyph-name="integral" unicode="&#x222b;" horiz-adv-x="804" 
d="M305 1151q0 -100 30 -234t73.5 -266.5t86.5 -266t73 -271t30 -242.5q0 -141 -72.5 -231.5t-187.5 -90.5q-72 0 -145 27l22 80q56 -23 111 -23q76 0 125 65.5t49 166.5q0 100 -30.5 234t-73.5 266.5t-86.5 266t-74 271t-30.5 242.5q0 141 73.5 231t188.5 90q74 0 145 -26
l-24 -80q-51 22 -109 22q-76 0 -125 -65t-49 -166z" />
    <glyph glyph-name="approxequal" unicode="&#x2248;" horiz-adv-x="1179" 
d="M158 295l-52 72q124 106 281 106q71 0 139.5 -24.5t135 -49t131.5 -24.5q123 0 229 92l51 -70q-123 -108 -280 -108q-71 0 -139.5 24.5t-134.5 49t-132 24.5q-127 0 -229 -92zM158 713l-52 69q124 109 281 109q71 0 139.5 -24.5t135 -49t131.5 -24.5q127 0 229 92l51 -72
q-124 -106 -280 -106q-71 0 -139.5 24.5t-134.5 49t-132 24.5q-123 0 -229 -92z" />
    <glyph glyph-name="notequal" unicode="&#x2260;" horiz-adv-x="1179" 
d="M119 752v86h547l153 309l78 -39l-137 -270h301v-86h-344l-160 -324h504v-86h-547l-154 -307l-77 37l135 270h-299v86h342l162 324h-504z" />
    <glyph glyph-name="lessequal" unicode="&#x2264;" horiz-adv-x="1179" 
d="M119 0v86h942v-86h-942zM119 686v86l915 426l35 -80l-833 -389l833 -387l-35 -82z" />
    <glyph glyph-name="greaterequal" unicode="&#x2265;" horiz-adv-x="1179" 
d="M1061 772v-86l-916 -426l-34 82l833 387l-833 389l34 80zM119 0v86h942v-86h-942z" />
    <glyph glyph-name="uni22C5" unicode="&#x22c5;" horiz-adv-x="483" 
d="M160 506q0 35 23.5 58.5t58.5 23.5t58.5 -23.5t23.5 -58.5t-23.5 -58.5t-58.5 -23.5t-58.5 23.5t-23.5 58.5z" />
    <glyph glyph-name="lozenge" unicode="&#x25ca;" horiz-adv-x="1179" 
d="M547 0l-441 688l441 688h86l440 -688l-440 -688h-86zM590 1282l-379 -594l379 -598l379 598z" />
    <glyph glyph-name="zero.lprop" unicode="&#xe010;" horiz-adv-x="1323" 
d="M150 688q0 324 140 518.5t372 194.5q231 0 371.5 -195t140.5 -518t-140.5 -518t-371.5 -195q-232 0 -372 194.5t-140 518.5zM248 688q0 -289 112.5 -460t301.5 -171q188 0 299.5 171t111.5 460t-111.5 460t-299.5 171q-189 0 -301.5 -171t-112.5 -460z" />
    <glyph glyph-name="one.lprop" unicode="&#xe011;" horiz-adv-x="804" 
d="M465 0v1274l-383 -221l-37 71l434 252h82v-1376h-96z" />
    <glyph glyph-name="two.lprop" unicode="&#xe012;" horiz-adv-x="1054" 
d="M59 0v66l570 569q176 173 176 362q0 141 -90.5 229.5t-235.5 88.5q-159 0 -358 -123l-41 76q217 133 414 133q180 0 293.5 -110t113.5 -283q0 -222 -192 -414l-512 -510h721v-84h-859z" />
    <glyph glyph-name="three.lprop" unicode="&#xe013;" horiz-adv-x="1054" 
d="M348 666v77h74q162 0 265.5 81.5t103.5 209.5q0 126 -85.5 204.5t-220.5 78.5q-171 0 -356 -86l-33 78q197 92 400 92q173 0 283 -100.5t110 -258.5q0 -122 -74.5 -211t-200.5 -122q140 -37 224 -134t84 -225q0 -166 -119 -270.5t-307 -104.5q-217 0 -433 101l33 78
q207 -95 387 -95q149 0 243.5 83.5t94.5 215.5q0 136 -110.5 222t-288.5 86h-74z" />
    <glyph glyph-name="four.lprop" unicode="&#xe014;" horiz-adv-x="1159" 
d="M750 0v342h-687v72l687 962h92v-954h227v-80h-227v-342h-92zM164 422h586v821z" />
    <glyph glyph-name="five.lprop" unicode="&#xe015;" horiz-adv-x="1054" 
d="M899 1376v-84h-643v-510q126 27 240 27q209 0 330.5 -113t121.5 -303q0 -185 -127.5 -301.5t-333.5 -116.5q-204 0 -405 117l41 76q185 -109 358 -109q168 0 269.5 92.5t101.5 243.5q0 156 -101 247t-278 91q-136 0 -305 -39v682h731z" />
    <glyph glyph-name="six.lprop" unicode="&#xe016;" horiz-adv-x="1191" 
d="M150 598q0 385 140.5 594t403.5 209q166 0 316 -78l-35 -76q-147 72 -279 72q-222 0 -338.5 -181.5t-113.5 -527.5q38 114 148 185t249 71q193 0 312.5 -121.5t119.5 -316.5q0 -193 -127.5 -323t-316.5 -130q-223 0 -351 161.5t-128 461.5zM260 461q0 -178 103 -291
t264 -113q150 0 252 106.5t102 262.5q0 161 -97 259.5t-257 98.5q-154 0 -260.5 -93.5t-106.5 -229.5z" />
    <glyph glyph-name="seven.lprop" unicode="&#xe017;" horiz-adv-x="962" 
d="M207 0l559 1292h-725v84h836v-65l-568 -1311h-102z" />
    <glyph glyph-name="eight.lprop" unicode="&#xe018;" horiz-adv-x="1191" 
d="M596 743q150 23 243 100.5t93 198.5q0 120 -95.5 199.5t-240.5 79.5t-240.5 -79.5t-95.5 -199.5q0 -121 93 -198.5t243 -100.5zM133 344q0 136 91.5 232.5t254.5 128.5q-139 30 -226 122.5t-87 221.5q0 153 121.5 252.5t308.5 99.5t308.5 -99.5t121.5 -252.5
q0 -129 -87 -221.5t-226 -122.5q163 -32 254.5 -128.5t91.5 -232.5q0 -164 -128.5 -266.5t-334.5 -102.5t-334.5 102.5t-128.5 266.5zM596 666q-170 -25 -267.5 -107.5t-97.5 -208.5q0 -132 101.5 -213.5t263.5 -81.5t263.5 81.5t101.5 213.5q0 126 -97.5 208.5
t-267.5 107.5z" />
    <glyph glyph-name="nine.lprop" unicode="&#xe019;" horiz-adv-x="1191" 
d="M1042 778q0 -385 -140.5 -594t-403.5 -209q-166 0 -316 78l35 76q147 -72 279 -72q222 0 338.5 181.5t113.5 527.5q-38 -114 -148 -185t-249 -71q-193 0 -312.5 121.5t-119.5 316.5q0 193 127.5 323t316.5 130q223 0 351 -161.5t128 -461.5zM932 915q0 178 -103 291
t-264 113q-150 0 -252 -106.5t-102 -262.5q0 -161 97 -259.5t257 -98.5q154 0 260.5 93.5t106.5 229.5z" />
    <glyph glyph-name="dollar.lprop" unicode="&#xe01a;" horiz-adv-x="1030" 
d="M473 -262v338q-159 6 -362 88l26 80q216 -88 373 -88q142 0 227.5 63t85.5 170q0 72 -39 122t-101 78t-137 50t-150 47.5t-137 60t-101 97.5t-39 151q0 129 96.5 211.5t257.5 91.5v340h86v-338q142 -9 322 -81l-27 -80q-193 80 -332 80q-137 0 -221 -62t-84 -162
q0 -70 39 -119t101 -76t137 -49t150.5 -47.5t137.5 -60.5t101 -99.5t39 -154.5q0 -133 -99.5 -218t-263.5 -93v-340h-86z" />
    <glyph glyph-name="cent.lprop" unicode="&#xe01b;" horiz-adv-x="1093" 
d="M152 688q0 211 115 352.5t302 161.5v305h86v-303q163 -3 310 -106l-45 -72q-137 98 -277 98q-173 0 -282 -122t-109 -314t109 -314t282 -122q140 0 277 98l45 -71q-147 -103 -310 -109v-301h-86v305q-187 20 -302 161.5t-115 352.5z" />
    <glyph glyph-name="Euro.lprop" unicode="&#xe01c;" horiz-adv-x="1153" 
d="M61 522v70h158q-6 46 -6 96q0 74 8 129h-160v70h172q46 235 191 374.5t348 139.5q177 0 342 -92l-39 -72q-148 82 -295 82q-167 0 -287 -117.5t-159 -314.5h538v-70h-557q-6 -61 -6 -129q0 -34 4 -96h559v-70h-546q34 -212 156 -338.5t298 -126.5q147 0 295 82l39 -71
q-167 -93 -342 -93q-210 0 -358 148.5t-189 398.5h-164z" />
    <glyph glyph-name="sterling.lprop" unicode="&#xe01d;" horiz-adv-x="1153" 
d="M137 0v82h217v582h-184v81h184v299q0 158 107.5 257.5t277.5 99.5q129 0 283 -60l-27 -77q-127 53 -241 53q-132 0 -214.5 -77.5t-82.5 -201.5v-293h405v-81h-405v-582h590v-82h-910z" />
    <glyph glyph-name="yen.lprop" unicode="&#xe01e;" 
d="M535 0v344h-355v74h355v227h-355v74h328l-430 657h110l398 -620l397 620h111l-430 -657h327v-74h-354v-227h354v-74h-354v-344h-102z" />
    <glyph glyph-name="zero.otab" unicode="&#xe020;" horiz-adv-x="1179" 
d="M113 526q0 244 133 398.5t344 154.5t344 -154.5t133 -398.5q0 -243 -133 -397t-344 -154t-344 154t-133 397zM205 526q0 -205 108 -336t277 -131t277 131t108 336q0 207 -108 338t-277 131t-277 -131t-108 -338z" />
    <glyph glyph-name="one.otab" unicode="&#xe021;" horiz-adv-x="1179" 
d="M733 1055v-1055h-96v952l-315 -184l-39 70l368 217h82z" />
    <glyph glyph-name="two.otab" unicode="&#xe022;" horiz-adv-x="1179" 
d="M188 0v66l488 395q83 67 120.5 134t37.5 144q0 112 -77.5 184t-197.5 72q-130 0 -309 -100l-41 74q189 110 364 110q158 0 258.5 -91.5t100.5 -239.5q0 -187 -176 -328l-420 -340h612v-80h-760z" />
    <glyph glyph-name="three.otab" unicode="&#xe023;" horiz-adv-x="1179" 
d="M395 358v76h74q163 0 266 80.5t103 206.5q0 121 -85.5 197.5t-220.5 76.5q-171 0 -356 -86l-33 76q195 94 400 94q173 0 283 -98.5t110 -253.5q0 -119 -74.5 -207.5t-199.5 -120.5q140 -35 223.5 -130t83.5 -220q0 -164 -119 -266t-307 -102q-218 0 -432 100l32 78
q207 -95 387 -95q149 0 243.5 81t94.5 210q0 134 -110.5 218.5t-288.5 84.5h-74z" />
    <glyph glyph-name="four.otab" unicode="&#xe024;" horiz-adv-x="1179" 
d="M760 -295v295h-686v68l686 987h92v-975h227v-80h-227v-295h-92zM174 80h586v848z" />
    <glyph glyph-name="five.otab" unicode="&#xe025;" horiz-adv-x="1179" 
d="M979 1055v-84h-643v-496q126 27 239 27q209 0 331 -111.5t122 -298.5q0 -182 -127.5 -296.5t-333.5 -114.5q-200 0 -405 116l41 76q191 -109 358 -109q168 0 269.5 91t101.5 239q0 153 -101 242.5t-278 89.5q-140 0 -305 -41v670h731z" />
    <glyph glyph-name="six.otab" unicode="&#xe026;" horiz-adv-x="1179" 
d="M143 592q0 376 141 579t404 203q166 0 316 -78l-35 -75q-145 71 -279 71q-222 0 -338.5 -175.5t-113.5 -512.5q38 113 147 180.5t250 67.5q194 0 313 -118.5t119 -311.5q0 -190 -127.5 -318.5t-316.5 -128.5q-224 0 -352 159.5t-128 457.5zM254 453q0 -173 103 -284.5
t264 -111.5q150 0 252 104t102 257q0 160 -97 257t-257 97q-155 0 -261 -91.5t-106 -227.5z" />
    <glyph glyph-name="seven.otab" unicode="&#xe027;" horiz-adv-x="1179" 
d="M328 -295l546 1266h-708v84h819v-66l-555 -1284h-102z" />
    <glyph glyph-name="eight.otab" unicode="&#xe028;" horiz-adv-x="1179" 
d="M590 729q151 25 243.5 100.5t92.5 194.5q0 117 -95.5 193.5t-240.5 76.5t-240.5 -76.5t-95.5 -193.5q0 -119 92.5 -194.5t243.5 -100.5zM127 338q0 133 91.5 227t254.5 125q-139 30 -226 120.5t-87 217.5q0 151 121.5 248.5t308.5 97.5t308.5 -97.5t121.5 -248.5
q0 -127 -87 -217.5t-226 -120.5q163 -31 254.5 -125t91.5 -227q0 -161 -128.5 -262t-334.5 -101t-334.5 101t-128.5 262zM590 653q-170 -25 -267.5 -106t-97.5 -205q0 -127 102 -207t263 -80t262.5 80t101.5 207q0 124 -97 205t-267 106z" />
    <glyph glyph-name="nine.otab" unicode="&#xe029;" horiz-adv-x="1179" 
d="M1036 463q0 -376 -140.5 -579t-403.5 -203q-168 0 -316 77l35 76q147 -72 278 -72q222 0 339 176t114 513q-38 -113 -147 -180.5t-250 -67.5q-194 0 -313 118.5t-119 311.5q0 190 127.5 318t316.5 128q224 0 351.5 -159t127.5 -457zM926 600q0 175 -103 286t-264 111
q-150 0 -252 -103.5t-102 -256.5q0 -160 97 -257t257 -97q155 0 261 90.5t106 226.5z" />
    <glyph glyph-name="dollar.otab" unicode="&#xe02a;" horiz-adv-x="1179" 
d="M547 -328v305q-156 10 -322 80l25 78q191 -80 334 -80q123 0 198.5 56.5t75.5 150.5q0 63 -34.5 107t-89.5 69t-122 45t-133.5 42.5t-121.5 53.5t-89.5 86.5t-34.5 133.5q0 116 85.5 190.5t228.5 85.5v307h86v-305q137 -6 287 -73l-25 -76q-161 71 -297 71
q-121 0 -194.5 -55t-73.5 -145q0 -61 34.5 -104t89.5 -67t121.5 -43.5t133 -42.5t121.5 -54.5t89.5 -88.5t34.5 -137q0 -120 -88 -196.5t-233 -85.5v-308h-86z" />
    <glyph glyph-name="cent.otab" unicode="&#xe02b;" horiz-adv-x="1179" 
d="M195 526q0 211 115 352.5t302 161.5v306h86v-304q163 -3 310 -106l-45 -72q-138 99 -277 99q-173 0 -282 -122.5t-109 -314.5t109 -314t282 -122q140 0 277 98l45 -71q-147 -103 -310 -109v-301h-86v305q-187 20 -302 161.5t-115 352.5z" />
    <glyph glyph-name="Euro.otab" unicode="&#xe02c;" horiz-adv-x="1179" 
d="M141 387v62h140q-5 63 -5 77q0 39 7 97h-142v61h154q40 178 164.5 286.5t294.5 108.5q160 0 307 -84l-37 -63q-129 74 -260 74q-135 0 -234 -88t-135 -234h459v-61h-477q-8 -44 -8 -97q0 -52 4 -77h481v-62h-463q31 -154 131.5 -246.5t241.5 -91.5q131 0 260 74l37 -64
q-147 -84 -307 -84q-176 0 -300.5 113t-160.5 299h-152z" />
    <glyph glyph-name="sterling.otab" unicode="&#xe02d;" horiz-adv-x="1179" 
d="M209 0v78h192v424h-168v76h168v227q0 132 93.5 216.5t240.5 84.5q104 0 242 -51l-25 -72q-120 45 -202 45q-112 0 -181 -64t-69 -165v-221h344v-76h-344v-424h495v-78h-786z" />
    <glyph glyph-name="yen.otab" unicode="&#xe02e;" horiz-adv-x="1179" 
d="M541 0v233h-310v68h310v172h-310v70h281l-365 512h113l330 -475l330 475h112l-364 -512h280v-70h-309v-172h309v-68h-309v-233h-98z" />
    <glyph glyph-name="zero.oprop" unicode="&#xe030;" horiz-adv-x="1230" 
d="M133 526q0 245 134 399t347 154q214 0 349 -154.5t135 -398.5q0 -243 -135 -397t-349 -154q-213 0 -347 154t-134 397zM229 526q0 -205 108 -336t277 -131q170 0 278.5 131t108.5 336q0 207 -108.5 338t-278.5 131q-169 0 -277 -131t-108 -338z" />
    <glyph glyph-name="one.oprop" unicode="&#xe031;" horiz-adv-x="778" 
d="M532 1055v-1055h-96v952l-315 -184l-39 70l369 217h81z" />
    <glyph glyph-name="two.oprop" unicode="&#xe032;" horiz-adv-x="989" 
d="M92 0v66l488 395q82 67 119.5 134t37.5 144q0 112 -77 184t-197 72q-130 0 -309 -100l-41 74q189 110 364 110q158 0 258.5 -91.5t100.5 -239.5q0 -186 -177 -328l-419 -340h612v-80h-760z" />
    <glyph glyph-name="three.oprop" unicode="&#xe033;" horiz-adv-x="1021" 
d="M315 358v76h74q163 0 266 80.5t103 206.5q0 121 -85 197.5t-220 76.5q-172 0 -357 -86l-33 76q195 94 400 94q173 0 283 -98.5t110 -253.5q0 -119 -74.5 -207.5t-199.5 -120.5q140 -35 223.5 -130t83.5 -220q0 -164 -119 -266t-307 -102q-218 0 -432 100l32 78
q207 -95 388 -95q149 0 243 81t94 210q0 134 -110.5 218.5t-288.5 84.5h-74z" />
    <glyph glyph-name="four.oprop" unicode="&#xe034;" horiz-adv-x="1126" 
d="M733 -295v295h-686v68l686 987h92v-975h228v-80h-228v-295h-92zM147 80h586v848z" />
    <glyph glyph-name="five.oprop" unicode="&#xe035;" horiz-adv-x="1054" 
d="M915 1055v-84h-643v-496q126 27 240 27q209 0 331 -111.5t122 -298.5q0 -182 -127.5 -296.5t-333.5 -114.5q-201 0 -406 116l41 76q191 -109 359 -109t269 91t101 239q0 153 -101 242.5t-278 89.5q-140 0 -305 -41v670h731z" />
    <glyph glyph-name="six.oprop" unicode="&#xe036;" horiz-adv-x="1191" 
d="M150 592q0 376 140.5 579t403.5 203q166 0 316 -78l-35 -75q-145 71 -279 71q-222 0 -338.5 -175.5t-113.5 -512.5q38 113 147 180.5t250 67.5q194 0 313 -118.5t119 -311.5q0 -190 -127.5 -318.5t-316.5 -128.5q-223 0 -351 159.5t-128 457.5zM260 453
q0 -173 103 -284.5t264 -111.5q150 0 252 104t102 257q0 160 -97 257t-257 97q-155 0 -261 -91.5t-106 -227.5z" />
    <glyph glyph-name="seven.oprop" unicode="&#xe037;" horiz-adv-x="962" 
d="M219 -295l547 1266h-709v84h820v-66l-555 -1284h-103z" />
    <glyph glyph-name="eight.oprop" unicode="&#xe038;" horiz-adv-x="1191" 
d="M596 729q151 25 243.5 100.5t92.5 194.5q0 117 -95.5 193.5t-240.5 76.5t-240.5 -76.5t-95.5 -193.5q0 -119 92.5 -194.5t243.5 -100.5zM133 338q0 133 91.5 227t254.5 125q-139 30 -226 120.5t-87 217.5q0 151 121.5 248.5t308.5 97.5t308.5 -97.5t121.5 -248.5
q0 -127 -87 -217.5t-226 -120.5q163 -31 254.5 -125t91.5 -227q0 -161 -128.5 -262t-334.5 -101t-334.5 101t-128.5 262zM596 653q-170 -25 -267.5 -106t-97.5 -205q0 -127 102 -207t263 -80t263 80t102 207q0 124 -97.5 205t-267.5 106z" />
    <glyph glyph-name="nine.oprop" unicode="&#xe039;" horiz-adv-x="1191" 
d="M1042 463q0 -376 -140.5 -579t-403.5 -203q-168 0 -316 77l35 76q147 -72 279 -72q222 0 338.5 176t113.5 513q-38 -113 -147 -180.5t-250 -67.5q-194 0 -313 118.5t-119 311.5q0 190 127.5 318t316.5 128q224 0 351.5 -159t127.5 -457zM932 600q0 175 -103 286t-264 111
q-150 0 -252 -103.5t-102 -256.5q0 -160 97 -257t257 -97q155 0 261 90.5t106 226.5z" />
    <glyph glyph-name="dollar.oprop" unicode="&#xe03a;" horiz-adv-x="980" 
d="M449 -328v305q-156 10 -322 80l25 78q191 -80 333 -80q123 0 199 56.5t76 150.5q0 63 -34.5 107t-89.5 69t-122 45t-133.5 42.5t-121.5 53.5t-89.5 86.5t-34.5 133.5q0 116 85.5 190.5t228.5 85.5v307h86v-305q136 -6 286 -73l-24 -76q-161 71 -297 71q-121 0 -195 -55
t-74 -145q0 -61 34.5 -104t89.5 -67t122 -43.5t133.5 -42.5t121.5 -54.5t89.5 -88.5t34.5 -137q0 -120 -88 -196.5t-233 -85.5v-308h-86z" />
    <glyph glyph-name="cent.oprop" unicode="&#xe03b;" horiz-adv-x="1028" 
d="M119 526q0 211 115.5 352.5t302.5 161.5v306h86v-304q162 -3 309 -106l-45 -72q-138 99 -277 99q-173 0 -282 -122.5t-109 -314.5t109 -314t282 -122q140 0 277 98l45 -71q-147 -103 -309 -109v-301h-86v305q-187 20 -302.5 161.5t-115.5 352.5z" />
    <glyph glyph-name="Euro.oprop" unicode="&#xe03c;" horiz-adv-x="1054" 
d="M78 387v62h139q-4 50 -4 77q0 48 6 97h-141v61h153q40 178 164.5 286.5t294.5 108.5q160 0 307 -84l-36 -63q-129 74 -261 74q-135 0 -233.5 -88t-134.5 -234h459v-61h-478q-8 -44 -8 -97q0 -52 4 -77h482v-62h-463q31 -154 131 -246.5t241 -91.5q132 0 261 74l36 -64
q-147 -84 -307 -84q-176 0 -300.5 113t-160.5 299h-151z" />
    <glyph glyph-name="sterling.oprop" unicode="&#xe03d;" horiz-adv-x="962" 
d="M100 0v78h193v424h-168v76h168v227q0 132 93.5 216.5t240.5 84.5q103 0 241 -51l-24 -72q-120 45 -203 45q-112 0 -181 -64t-69 -165v-221h344v-76h-344v-424h496v-78h-787z" />
    <glyph glyph-name="yen.oprop" unicode="&#xe03e;" horiz-adv-x="1001" 
d="M451 0v233h-310v68h310v172h-310v70h281l-365 512h113l330 -475l329 475h113l-364 -512h280v-70h-309v-172h309v-68h-309v-233h-98z" />
    <glyph glyph-name="zero.num" unicode="&#xe040;" horiz-adv-x="862" 
d="M113 950q0 201 86.5 321t232.5 120q145 0 231.5 -120t86.5 -321t-86.5 -320.5t-231.5 -119.5q-146 0 -232.5 119.5t-86.5 320.5zM190 950q0 -172 65 -273.5t177 -101.5q110 0 175 101.5t65 273.5t-65 273.5t-175 101.5q-112 0 -177 -101.5t-65 -273.5z" />
    <glyph glyph-name="one.num" unicode="&#xe041;" horiz-adv-x="544" 
d="M379 1376v-852h-78v770l-227 -131l-31 56l270 157h66z" />
    <glyph glyph-name="two.num" unicode="&#xe042;" horiz-adv-x="696" 
d="M53 524v51l346 349q105 102 105 211q0 85 -51.5 136.5t-137.5 51.5q-102 0 -219 -74l-35 60q137 84 265 84q114 0 185 -69.5t71 -178.5q0 -138 -119 -254l-297 -299h428v-68h-541z" />
    <glyph glyph-name="three.num" unicode="&#xe043;" horiz-adv-x="696" 
d="M231 930v61h52q95 0 155 47.5t60 122.5q0 74 -50 120t-131 46q-105 0 -215 -55l-28 61q126 60 254 60q110 0 178.5 -63.5t68.5 -162.5q0 -73 -42.5 -128.5t-114.5 -75.5q80 -23 129 -83t49 -137q0 -104 -74 -169.5t-194 -65.5q-136 0 -269 65l31 62q118 -62 227 -62
q89 0 144 49.5t55 127.5q0 80 -64.5 130t-168.5 50h-52z" />
    </font>
</defs>
</svg>
