<?xml version="1.0" standalone="no"?>
<!DOCTYPE svg PUBLIC "-//W3C//DTD SVG 1.1//EN" "http://www.w3.org/Graphics/SVG/1.1/DTD/svg11.dtd" >
<svg xmlns="http://www.w3.org/2000/svg" xmlns:xlink="http://www.w3.org/1999/xlink" version="1.1">
<metadata>
Created by FontForge 20170731 at Thu Aug  6 08:49:43 2020
 By Aleksey,,,
Copyright (c) 2012 by Fontsmith Ltd. All rights reserved.
</metadata>
<defs>
<font id="FSElliotPro-BoldItalic" horiz-adv-x="1179" >
  <font-face 
    font-family="FS Elliot Pro"
    font-weight="700"
    font-style="italic"
    font-stretch="normal"
    units-per-em="2048"
    panose-1="2 0 8 3 5 0 0 9 0 4"
    ascent="1536"
    descent="-512"
    x-height="1004"
    cap-height="1376"
    bbox="-469 -631 2560 2064"
    underline-thickness="102"
    underline-position="-307"
    slope="-12"
    unicode-range="U+000D-FB04"
  />
<missing-glyph horiz-adv-x="1024" 
d="M57 0v1376h975v-1376h-975zM213 1278l332 -500l332 500h-664zM156 1188v-1000l331 500zM934 1188l-332 -500l332 -500v1000zM877 98l-332 500l-332 -500h664z" />
    <glyph glyph-name="f_b" unicode="fb" horiz-adv-x="1935" 
d="M143 0l142 805h-189l37 199h189l22 124q29 159 146.5 248.5t302.5 89.5q177 0 495 -86l-84 -477q113 125 289 125q174 0 276.5 -109t102.5 -296q0 -184 -67.5 -332.5t-188 -232t-270.5 -83.5q-94 0 -170 42.5t-117 117.5l-55 -135h-220l217 1229q-125 33 -202 33
q-78 0 -131.5 -42.5t-65.5 -111.5l-18 -104h243l-36 -199h-244l-141 -805h-263zM1604 592q0 98 -57 159.5t-148 61.5q-95 0 -166 -63t-90 -168l-23 -131q-6 -30 -6 -64q0 -88 53 -142.5t138 -54.5q130 0 214.5 113.5t84.5 288.5z" />
    <glyph glyph-name="f_f_b" unicode="ffb" horiz-adv-x="2609" 
d="M143 0l142 805h-189l37 199h189l28 167q25 135 124 215t243 80q103 0 246 -47l-78 -194q-87 32 -137 32q-54 0 -93.5 -33t-48.5 -87l-22 -133h409l25 124q30 160 146 249t302 89q174 0 496 -86l-84 -477q113 125 289 125q174 0 275.5 -109t101.5 -296q0 -184 -67 -332.5
t-187.5 -232t-270.5 -83.5q-94 0 -170 42.5t-116 117.5l-58 -135h-217l217 1229q-125 33 -202 33q-79 0 -132 -42t-65 -112l-21 -104h246l-37 -199h-243l-142 -805h-262l141 805h-411l-141 -805h-263zM2277 592q0 98 -56.5 159.5t-147.5 61.5q-95 0 -166 -63t-90 -168
l-23 -131q-6 -30 -6 -64q0 -88 52.5 -142.5t135.5 -54.5q132 0 216.5 113.5t84.5 288.5z" />
    <glyph glyph-name="f_h" unicode="fh" horiz-adv-x="1935" 
d="M143 0l142 805h-189l37 199h189l22 124q29 159 146.5 248.5t302.5 89.5q177 0 495 -86l-84 -487q126 135 307 135q148 0 241 -88t93 -229q0 -51 -10 -113l-104 -598h-263l103 584q6 30 6 67q0 75 -46 118.5t-124 43.5q-98 0 -169.5 -68t-90.5 -176l-100 -569h-263
l217 1229q-125 33 -202 33q-78 0 -131.5 -42.5t-65.5 -111.5l-18 -104h243l-36 -199h-244l-141 -805h-263z" />
    <glyph glyph-name="f_f_h" unicode="ffh" horiz-adv-x="2609" 
d="M143 0l142 805h-189l37 199h189l28 167q25 135 124 215t243 80q103 0 246 -47l-78 -194q-87 32 -137 32q-54 0 -93.5 -33t-48.5 -87l-22 -133h409l25 124q30 160 146 249t302 89q174 0 496 -86l-86 -487q60 65 140.5 100t168.5 35q148 0 241 -88t93 -229q0 -51 -10 -113
l-107 -598h-262l105 584q6 30 6 67q0 75 -46.5 118.5t-123.5 43.5q-98 0 -169.5 -68t-90.5 -176l-101 -569h-262l217 1229q-125 33 -202 33q-79 0 -132 -42t-65 -112l-21 -104h246l-37 -199h-243l-142 -805h-262l141 805h-411l-141 -805h-263z" />
    <glyph glyph-name="f_j" unicode="fj" horiz-adv-x="1269" 
d="M143 0l144 805h-189l35 199h189l22 124q29 157 146 247.5t292 90.5q158 0 375 -90l-86 -188q-170 74 -268 74q-77 0 -133 -42.5t-68 -111.5l-18 -104h639l-205 -1160q-23 -135 -121.5 -215t-243.5 -80q-99 0 -245 48l77 192q91 -31 138 -31q54 0 92 33.5t47 87.5l164 926
h-377l-143 -805h-263z" />
    <glyph glyph-name="f_f_j" unicode="ffj" horiz-adv-x="1941" 
d="M143 0l142 805h-189l37 199h189l28 167q25 135 124 215t243 80q103 0 246 -47l-78 -194q-87 32 -137 32q-54 0 -93.5 -33t-48.5 -87l-22 -133h409l25 124q29 157 146 247.5t292 90.5q159 0 373 -90l-84 -188q-170 74 -268 74q-77 0 -133 -42.5t-68 -111.5l-21 -104h641
l-204 -1160q-25 -135 -124 -215t-241 -80q-104 0 -246 48l76 192q95 -31 137 -31q54 0 93.5 33.5t48.5 87.5l163 926h-378l-142 -805h-262l141 805h-411l-141 -805h-263z" />
    <glyph glyph-name="f_k" unicode="fk" horiz-adv-x="1810" 
d="M143 0l142 805h-189l37 199h189l22 124q29 159 146.5 248.5t302.5 89.5q178 0 485 -86l-139 -790l448 414h301l-512 -469l340 -535h-284l-242 391l-103 -92l-51 -299h-252l217 1229q-125 33 -202 33q-78 0 -131.5 -42.5t-65.5 -111.5l-18 -104h243l-36 -199h-244
l-141 -805h-263z" />
    <glyph glyph-name="f_f_k" unicode="ffk" horiz-adv-x="2482" 
d="M143 0l142 805h-189l37 199h189l28 167q25 135 124 215t243 80q103 0 246 -47l-78 -194q-87 32 -137 32q-54 0 -93.5 -33t-48.5 -87l-22 -133h409l25 124q30 160 146 249t302 89q179 0 486 -86l-140 -790l449 414h299l-510 -469l340 -535h-287l-239 391l-103 -92
l-53 -299h-250l217 1229q-125 33 -202 33q-79 0 -132 -42t-65 -112l-21 -104h246l-37 -199h-243l-142 -805h-262l141 805h-411l-141 -805h-263z" />
    <glyph glyph-name="f_f" unicode="ff" horiz-adv-x="1456" 
d="M143 0l142 805h-189l37 199h189l28 167q25 135 124 215t243 80q103 0 246 -47l-78 -194q-87 32 -137 32q-54 0 -93.5 -33t-48.5 -87l-22 -133h409l31 167q25 135 124 215t243 80q104 0 243 -47l-75 -194q-87 32 -138 32q-54 0 -93 -33t-48 -87l-25 -133h246l-37 -199
h-243l-142 -805h-262l141 805h-411l-141 -805h-263z" />
    <glyph glyph-name="fi" unicode="fi" horiz-adv-x="1269" 
d="M143 0l144 805h-189l35 199h189l22 124q29 157 146 247.5t292 90.5q158 0 375 -90l-86 -188q-170 74 -268 74q-77 0 -133 -42.5t-68 -111.5l-18 -104h639l-176 -1004h-263l142 805h-377l-143 -805h-263z" />
    <glyph glyph-name="fl" unicode="fl" horiz-adv-x="1368" 
d="M143 0l142 805h-189l37 199h189l22 124q29 159 146.5 248.5t302.5 89.5q177 0 495 -86l-190 -1081q-4 -28 -4 -41q0 -35 22 -54.5t58 -19.5q10 0 79 11l13 -201q-116 -19 -179 -19q-118 0 -189 65t-71 171q0 29 7 76l167 942q-125 33 -202 33q-78 0 -131.5 -42.5
t-65.5 -111.5l-18 -104h243l-36 -199h-244l-141 -805h-263z" />
    <glyph glyph-name="f_f_i" unicode="ffi" horiz-adv-x="1941" 
d="M143 0l142 805h-189l37 199h189l28 167q25 135 124 215t243 80q103 0 246 -47l-78 -194q-87 32 -137 32q-54 0 -93.5 -33t-48.5 -87l-22 -133h409l25 124q29 157 146 247.5t292 90.5q159 0 373 -90l-84 -188q-170 74 -268 74q-77 0 -133 -42.5t-68 -111.5l-21 -104h641
l-176 -1004h-262l141 805h-378l-142 -805h-262l141 805h-411l-141 -805h-263z" />
    <glyph glyph-name="f_f_l" unicode="ffl" horiz-adv-x="2039" 
d="M143 0l142 805h-189l37 199h189l28 167q25 135 124 215t243 80q103 0 246 -47l-78 -194q-87 32 -137 32q-54 0 -93.5 -33t-48.5 -87l-22 -133h409l25 124q30 160 146 249t302 89q174 0 496 -86l-190 -1081q-7 -25 -7 -41q0 -35 22.5 -54.5t59.5 -19.5q11 0 80 11l12 -201
q-116 -19 -178 -19q-119 0 -189.5 64.5t-70.5 171.5q0 36 6 76l168 942q-125 33 -202 33q-79 0 -132 -42t-65 -112l-21 -104h246l-37 -199h-243l-142 -805h-262l141 805h-411l-141 -805h-263z" />
    <glyph glyph-name=".notdef" horiz-adv-x="1024" 
d="M57 0v1376h975v-1376h-975zM213 1278l332 -500l332 500h-664zM156 1188v-1000l331 500zM934 1188l-332 -500l332 -500v1000zM877 98l-332 500l-332 -500h664z" />
    <glyph glyph-name=".null" horiz-adv-x="0" 
 />
    <glyph glyph-name=".null" horiz-adv-x="0" 
 />
    <glyph glyph-name="nonmarkingreturn" horiz-adv-x="682" 
 />
    <glyph glyph-name="CR" unicode="&#xd;" horiz-adv-x="491" 
 />
    <glyph glyph-name="space" unicode=" " horiz-adv-x="491" 
 />
    <glyph glyph-name="exclam" unicode="!" horiz-adv-x="575" 
d="M164 457l139 919h264l-184 -919h-219zM57 119q0 78 54.5 132t132.5 54q63 0 102 -38.5t39 -100.5q0 -79 -54 -134t-132 -55q-63 0 -102.5 40t-39.5 102z" />
    <glyph glyph-name="quotedbl" unicode="&#x22;" horiz-adv-x="909" 
d="M205 879l65 497h242l-109 -497h-198zM637 879l65 497h242l-108 -497h-199z" />
    <glyph glyph-name="numbersign" unicode="#" horiz-adv-x="1351" 
d="M0 322l35 200h244l122 332h-206l34 201h244l127 340l191 -29l-113 -311h330l125 340l192 -29l-115 -311h205l-35 -201h-243l-121 -332h205l-35 -200h-244l-125 -340l-192 28l114 312h-331l-125 -340l-193 28l115 312h-205zM604 854l-123 -332h332l121 332h-330z" />
    <glyph glyph-name="dollar" unicode="$" 
d="M344 -262l62 348q-181 28 -320 100l88 195q206 -98 379 -98q91 0 149 44.5t58 112.5q0 32 -18 57.5t-49 43t-71 33.5t-84.5 31.5t-88.5 33.5t-84 44t-71 58.5t-49 80t-18 106.5q0 149 108 248t283 120l62 342h221l-63 -350q151 -19 297 -86l-88 -196q-205 88 -355 88
q-89 0 -142.5 -42.5t-53.5 -107.5q0 -34 23 -60.5t60 -43t84.5 -35t97.5 -34.5t97.5 -43.5t84.5 -61t60 -87.5t23 -122q0 -158 -110 -258.5t-291 -118.5l-60 -342h-221z" />
    <glyph glyph-name="percent" unicode="%" horiz-adv-x="1769" 
d="M936 270q0 192 117.5 317.5t302.5 125.5q146 0 232.5 -80.5t86.5 -214.5q0 -192 -117.5 -317.5t-302.5 -125.5q-144 0 -231.5 81.5t-87.5 213.5zM1130 285q0 -71 39 -113.5t103 -42.5q90 0 149.5 78t59.5 196q0 70 -38.5 113t-101.5 43q-91 0 -151 -78t-60 -196zM219 55
l1276 1381l121 -115l-1276 -1380zM160 958q0 192 117.5 317.5t302.5 125.5q144 0 230.5 -80.5t86.5 -214.5q0 -192 -117.5 -317t-302.5 -125q-144 0 -230.5 80.5t-86.5 213.5zM354 973q0 -71 38 -113.5t102 -42.5q89 0 148.5 78.5t59.5 196.5q0 70 -38 112.5t-101 42.5
q-91 0 -150 -77.5t-59 -196.5z" />
    <glyph glyph-name="ampersand" unicode="&#x26;" horiz-adv-x="1308" 
d="M963 0l-99 133q-96 -76 -206 -117t-216 -41q-182 0 -293.5 97t-111.5 250q0 137 96 255t268 191q-106 134 -106 256q0 169 118 273t310 104q151 0 243.5 -78t92.5 -207q0 -237 -350 -393l209 -287q80 109 104 240h215q-46 -233 -199 -406l201 -270h-276zM283 362
q0 -83 56.5 -135.5t149.5 -52.5q63 0 133 30.5t130 84.5l-244 334q-106 -46 -165.5 -115t-59.5 -146zM530 1034q0 -81 78 -176q221 103 221 225q0 54 -34.5 86.5t-94.5 32.5q-73 0 -121.5 -48t-48.5 -120z" />
    <glyph glyph-name="quotesingle" unicode="'" horiz-adv-x="477" 
d="M205 879l65 497h242l-109 -497h-198z" />
    <glyph glyph-name="parenleft" unicode="(" horiz-adv-x="718" 
d="M137 416q5 314 136.5 600.5t375.5 515.5l170 -129q-206 -202 -320.5 -459t-119.5 -524q-6 -352 166 -639l-189 -117q-222 331 -219 752z" />
    <glyph glyph-name="parenright" unicode=")" horiz-adv-x="718" 
d="M614 780q-3 -313 -135 -600.5t-375 -515.5l-170 129q205 202 319.5 458.5t119.5 522.5q6 355 -166 641l190 117q220 -332 217 -752z" />
    <glyph glyph-name="asterisk" unicode="*" horiz-adv-x="1024" 
d="M1026 852h-313l96 -297l-168 -55l-98 299l-252 -185l-107 144l260 184l-260 184l107 142l252 -183l98 297l168 -55l-96 -297h313v-178z" />
    <glyph glyph-name="plus" unicode="+" 
d="M92 479v221h402v402h221v-402h401v-221h-401v-401h-221v401h-402z" />
    <glyph glyph-name="comma" unicode="," horiz-adv-x="542" 
d="M41 119q0 79 53.5 132.5t132.5 53.5q67 0 105.5 -45.5t38.5 -122.5q0 -133 -90 -257.5t-248 -207.5l-68 103q149 98 193 215q-53 5 -85 39t-32 90z" />
    <glyph glyph-name="hyphen" unicode="-" horiz-adv-x="655" 
d="M29 414l37 200h565l-35 -200h-567z" />
    <glyph glyph-name="period" unicode="." horiz-adv-x="542" 
d="M41 119q0 78 54 132t132 54q63 0 102.5 -38.5t39.5 -100.5q0 -79 -54.5 -134t-132.5 -55q-63 0 -102 40t-39 102z" />
    <glyph glyph-name="slash" unicode="/" horiz-adv-x="786" 
d="M-150 -236l918 1727l190 -76l-917 -1726z" />
    <glyph glyph-name="zero" unicode="0" 
d="M78 494q0 190 49 358t134 288.5t205 190.5t257 70q211 0 326.5 -136t115.5 -382q0 -254 -83 -462t-231 -327t-331 -119q-211 0 -326.5 136.5t-115.5 382.5zM324 508q0 -151 57 -234.5t162 -83.5t191.5 91t136 246.5t49.5 340.5q0 149 -57.5 233.5t-162.5 84.5
q-104 0 -190.5 -90.5t-136 -246.5t-49.5 -341z" />
    <glyph glyph-name="one" unicode="1" 
d="M475 0l195 1112l-336 -176l-82 182l498 258h229l-242 -1376h-262z" />
    <glyph glyph-name="two" unicode="2" 
d="M10 0l33 176l571 483q211 182 211 314q0 96 -57 151.5t-158 55.5q-125 0 -311 -97l-80 193q247 125 469 125q184 0 293 -104.5t109 -278.5q0 -233 -279 -467l-405 -342h561l-37 -209h-920z" />
    <glyph glyph-name="three" unicode="3" 
d="M391 610l35 189h98q131 0 216 62t85 157q0 78 -55 126t-145 48q-134 0 -326 -66l-59 191q242 84 458 84q179 0 284 -92t105 -248q0 -128 -79 -224t-209 -135q99 -31 152 -110.5t53 -194.5q0 -117 -66 -214t-182 -152.5t-256 -55.5q-243 0 -484 125l101 189
q202 -105 364 -105q108 0 182 65t74 159q0 92 -71 147t-191 55h-84z" />
    <glyph glyph-name="four" unicode="4" 
d="M604 0l53 297h-643l33 188l799 891h241l-153 -878h182l-35 -201h-182l-53 -297h-242zM299 498h393l99 549z" />
    <glyph glyph-name="five" unicode="5" 
d="M1145 1376l-37 -209h-567l-56 -325q70 4 107 4q199 0 316.5 -105t117.5 -284q0 -205 -160.5 -343.5t-398.5 -138.5q-219 0 -432 142l115 188q163 -115 317 -115q129 0 216 72.5t87 179.5q0 103 -78 162.5t-215 59.5q-119 0 -260 -21l129 733h799z" />
    <glyph glyph-name="six" unicode="6" 
d="M102 473q0 158 34 301.5t98 257t150.5 196.5t196.5 128t232 45q193 0 373 -107l-105 -182q-135 84 -278 84q-152 0 -267.5 -122t-152.5 -324q127 149 332 149q174 0 283 -108t108 -285q0 -146 -72.5 -268t-199 -192.5t-277.5 -70.5q-214 0 -334.5 132.5t-120.5 365.5z
M348 430q-1 -110 61 -180t162 -70q121 0 204 85t83 210q0 105 -59.5 164t-161.5 59q-121 0 -205 -77.5t-84 -190.5z" />
    <glyph glyph-name="seven" unicode="7" 
d="M145 0l711 1167h-629l37 209h918l-33 -188l-717 -1188h-287z" />
    <glyph glyph-name="eight" unicode="8" 
d="M643 799q124 20 195 80t71 147q0 79 -57 127.5t-150 48.5q-108 0 -182 -60.5t-74 -148.5q0 -146 197 -194zM49 334q0 131 86.5 229.5t247.5 149.5q-87 36 -135.5 111t-48.5 169q0 179 147 293.5t377 114.5q201 0 320.5 -93.5t119.5 -248.5q0 -126 -79 -222.5t-220 -140.5
q103 -41 160 -119.5t57 -177.5q0 -185 -157.5 -304.5t-401.5 -119.5q-219 0 -346 96.5t-127 262.5zM604 610q-134 -25 -212 -89t-79 -154q0 -88 63 -140.5t167 -52.5q120 0 199 64t79 161q0 155 -217 211z" />
    <glyph glyph-name="nine" unicode="9" 
d="M1143 903q0 -158 -34 -301.5t-98 -257t-150.5 -196.5t-196.5 -128t-232 -45q-190 0 -373 107l105 182q138 -84 280 -84q151 0 267 122.5t153 324.5q-131 -150 -334 -150q-174 0 -283 108t-108 285q2 223 161 377t390 154q212 0 332.5 -132.5t120.5 -365.5zM899 946
q0 110 -62.5 180t-162.5 70q-120 0 -202.5 -85.5t-82.5 -209.5q0 -105 59 -164t160 -59q122 0 205.5 77.5t85.5 190.5z" />
    <glyph glyph-name="colon" unicode=":" horiz-adv-x="575" 
d="M57 119q0 78 54.5 132t132.5 54q63 0 102 -38.5t39 -100.5q0 -79 -54 -134t-132 -55q-63 0 -102.5 40t-39.5 102zM190 838q0 78 54.5 132t132.5 54q63 0 102 -38.5t39 -100.5q0 -79 -54 -134t-132 -55q-63 0 -102.5 40t-39.5 102z" />
    <glyph glyph-name="semicolon" unicode=";" horiz-adv-x="575" 
d="M57 119q0 79 53.5 132.5t133.5 53.5q67 0 105 -45.5t38 -122.5q0 -133 -90 -257.5t-248 -207.5l-67 103q147 97 192 215q-53 5 -85 39t-32 90zM190 838q0 78 54.5 132t132.5 54q63 0 102 -38.5t39 -100.5q0 -79 -54 -134t-132 -55q-63 0 -102.5 40t-39.5 102z" />
    <glyph glyph-name="less" unicode="&#x3c;" 
d="M92 479v221l959 433l88 -209l-750 -334l750 -334l-88 -209z" />
    <glyph glyph-name="equal" unicode="=" 
d="M92 719v219h1024v-219h-1024zM92 242v219h1024v-219h-1024z" />
    <glyph glyph-name="greater" unicode="&#x3e;" 
d="M1116 700v-221l-958 -432l-88 209l749 334l-749 334l88 209z" />
    <glyph glyph-name="question" unicode="?" horiz-adv-x="958" 
d="M545 457h-226l7 45q9 59 41 113.5t73 92.5t86.5 78t83.5 73t63 74.5t25 84.5q0 73 -45.5 117.5t-120.5 44.5q-114 0 -268 -82l-90 190q206 113 416 113q175 0 276 -93.5t101 -246.5q0 -66 -21 -124.5t-55 -102t-76 -83t-85.5 -73.5t-80.5 -65.5t-64.5 -67.5t-35.5 -72z
M231 113q0 75 52.5 127.5t128.5 52.5q60 0 97.5 -37t37.5 -98q0 -75 -52.5 -128t-127.5 -53q-61 0 -98.5 38t-37.5 98z" />
    <glyph glyph-name="at" unicode="@" horiz-adv-x="1974" 
d="M68 342q0 228 79.5 428t219 343t339.5 225.5t431 82.5q175 0 321.5 -52t248 -144.5t158 -224.5t56.5 -289q0 -176 -66 -326.5t-183.5 -240t-258.5 -89.5q-89 0 -157.5 37.5t-98.5 97.5q-119 -135 -305 -135q-153 0 -243.5 93.5t-90.5 252.5q0 238 127.5 392.5
t323.5 154.5q74 0 135 -31t98 -88l51 99h215l-96 -557q-4 -24 -4 -41q0 -40 25.5 -63t66.5 -23q66 0 123 58t90 158.5t33 219.5q0 250 -160 398.5t-430 148.5q-238 0 -428 -111t-296.5 -308.5t-106.5 -445.5q0 -270 167 -427.5t455 -157.5q244 0 492 127l78 -172
q-298 -150 -592 -150q-183 0 -335.5 55t-258.5 154t-164.5 240.5t-58.5 310.5zM784 434q0 -79 42 -127.5t110 -48.5q74 0 125.5 46.5t64.5 129.5l21 115q6 48 6 51q0 65 -39.5 105t-103.5 40q-98 0 -162 -88t-64 -223z" />
    <glyph glyph-name="A" unicode="A" horiz-adv-x="1378" 
d="M-84 0l803 1376h252l315 -1376h-258l-70 328h-579l-184 -328h-279zM805 1087l-318 -561h435z" />
    <glyph glyph-name="B" unicode="B" horiz-adv-x="1335" 
d="M84 0l242 1376h567q184 0 285.5 -87t101.5 -242q0 -115 -59.5 -206t-163.5 -130q74 -33 118 -110.5t44 -182.5q0 -118 -64 -214t-176 -150t-250 -54h-645zM455 614l-72 -415h315q111 0 182.5 66.5t71.5 170.5q0 81 -51.5 129.5t-144.5 48.5h-301zM553 1178l-68 -383h297
q101 0 167.5 60.5t66.5 154.5q0 77 -48.5 122.5t-133.5 45.5h-281z" />
    <glyph glyph-name="C" unicode="C" horiz-adv-x="1314" 
d="M100 535q0 184 60 345t165 275.5t254.5 180t321.5 65.5q256 0 475 -150l-127 -186q-171 119 -342 119q-116 0 -215 -47t-167.5 -129.5t-107 -196.5t-38.5 -246q0 -168 107 -270t276 -102q173 0 356 108l86 -186q-229 -140 -495 -140q-268 0 -438.5 154.5t-170.5 405.5z
" />
    <glyph glyph-name="D" unicode="D" horiz-adv-x="1460" 
d="M84 0l242 1376h477q287 0 454.5 -152t167.5 -413q0 -239 -101 -423.5t-283.5 -286t-417.5 -101.5h-539zM1147 791q0 174 -107.5 275t-294.5 101h-184l-168 -958h225q232 0 380.5 163t148.5 419z" />
    <glyph glyph-name="E" unicode="E" horiz-adv-x="1216" 
d="M84 0l242 1376h921l-35 -205h-649l-65 -366h583l-34 -201h-584l-70 -399h682l-37 -205h-954z" />
    <glyph glyph-name="F" unicode="F" horiz-adv-x="1183" 
d="M84 0l242 1376h921l-37 -209h-649l-72 -411h584l-37 -211h-583l-97 -545h-272z" />
    <glyph glyph-name="G" unicode="G" horiz-adv-x="1427" 
d="M1352 760l-121 -682q-239 -103 -494 -103q-289 0 -463 155t-174 411q0 244 103.5 440.5t288.5 308t417 111.5q255 0 498 -135l-115 -187q-204 113 -377 113q-160 0 -285 -80.5t-193 -222t-68 -320.5q0 -175 113 -281t298 -106q118 0 226 43l59 334h-293l35 201h545z" />
    <glyph glyph-name="H" unicode="H" horiz-adv-x="1542" 
d="M84 0l242 1376h272l-98 -567h651l100 567h273l-242 -1376h-272l104 600h-651l-107 -600h-272z" />
    <glyph glyph-name="I" unicode="I" horiz-adv-x="618" 
d="M84 0l242 1376h272l-242 -1376h-272z" />
    <glyph glyph-name="J" unicode="J" horiz-adv-x="925" 
d="M907 1376l-180 -1024q-31 -173 -153 -275t-304 -102q-140 0 -313 64l78 201q118 -43 205 -43t147.5 51.5t75.5 138.5l172 989h272z" />
    <glyph glyph-name="K" unicode="K" horiz-adv-x="1378" 
d="M84 0l242 1376h262l-111 -626l705 626h319l-715 -639l492 -737h-301l-385 586l-166 -146l-78 -440h-264z" />
    <glyph glyph-name="L" unicode="L" horiz-adv-x="1085" 
d="M84 0l242 1376h272l-205 -1167h596l-37 -209h-868z" />
    <glyph glyph-name="M" unicode="M" horiz-adv-x="1722" 
d="M84 0l242 1376h247l316 -618l532 618h283l-242 -1376h-252l179 1008l-465 -535h-146l-268 524l-174 -997h-252z" />
    <glyph glyph-name="N" unicode="N" horiz-adv-x="1542" 
d="M84 0l242 1376h258l514 -991l174 991h252l-242 -1376h-258l-514 991l-174 -991h-252z" />
    <glyph glyph-name="O" unicode="O" horiz-adv-x="1542" 
d="M100 535q0 186 60.5 347t166 275t254.5 179t320 65q273 0 439.5 -152.5t166.5 -406.5q0 -248 -103 -446t-286.5 -309.5t-412.5 -111.5q-271 0 -438 153t-167 407zM379 561q0 -171 96.5 -271t255.5 -100q140 0 254 81t179 224.5t65 319.5q0 171 -96.5 271t-255.5 100
q-140 0 -254 -81t-179 -224.5t-65 -319.5z" />
    <glyph glyph-name="P" unicode="P" horiz-adv-x="1269" 
d="M84 0l242 1376h526q194 0 311 -110t117 -291q0 -143 -71 -258.5t-196.5 -181.5t-279.5 -66h-305l-82 -469h-262zM551 1167l-86 -487h248q134 0 217.5 75.5t83.5 196.5q0 98 -63.5 156.5t-172.5 58.5h-227z" />
    <glyph glyph-name="Q" unicode="Q" horiz-adv-x="1542" 
d="M100 535q0 186 60.5 347t166 275t254.5 179t320 65q273 0 439.5 -152.5t166.5 -406.5q0 -245 -101 -441t-276 -305l273 -219l-143 -160l-340 291q-112 -33 -215 -33q-271 0 -438 153t-167 407zM379 561q0 -171 96.5 -271t255.5 -100q140 0 254 81t179 224.5t65 319.5
q0 171 -96.5 271t-255.5 100q-140 0 -254 -81t-179 -224.5t-65 -319.5z" />
    <glyph glyph-name="R" unicode="R" horiz-adv-x="1335" 
d="M84 0l242 1376h557q184 0 296.5 -106t112.5 -279t-105 -299.5t-274 -163.5l267 -528h-275l-243 502h-228l-88 -502h-262zM551 1167l-80 -454h272q125 0 203 71t78 185q0 91 -57 144.5t-158 53.5h-258z" />
    <glyph glyph-name="S" unicode="S" horiz-adv-x="1187" 
d="M186 981q0 182 144 301t366 119q254 0 510 -113l-88 -205q-233 103 -411 103q-115 0 -186.5 -52.5t-71.5 -136.5q0 -44 27 -79t71.5 -57.5t101 -46t115.5 -44t115.5 -53t101 -72t71.5 -102t27 -140.5q0 -190 -144.5 -309t-373.5 -119q-131 0 -274 32.5t-271 96.5l90 203
q240 -117 445 -117q121 0 193.5 54.5t72.5 142.5q0 52 -35 91t-90.5 65.5t-123 51t-134.5 55.5t-122.5 71.5t-90.5 106.5t-35 153z" />
    <glyph glyph-name="T" unicode="T" horiz-adv-x="1216" 
d="M383 0l205 1167h-428l39 209h1126l-37 -209h-428l-205 -1167h-272z" />
    <glyph glyph-name="U" unicode="U" horiz-adv-x="1542" 
d="M1540 1376l-156 -874q-42 -245 -225.5 -386t-451.5 -141q-242 0 -396.5 129.5t-154.5 335.5q0 50 10 115l143 821h273l-144 -821q-8 -39 -8 -86q0 -126 82 -202.5t217 -76.5q151 0 256 90t131 242l152 854h272z" />
    <glyph glyph-name="V" unicode="V" horiz-adv-x="1378" 
d="M1532 1376l-805 -1376h-252l-313 1376h266l219 -1057l594 1057h291z" />
    <glyph glyph-name="W" unicode="W" horiz-adv-x="2050" 
d="M2179 1376l-678 -1376h-254l-127 1044l-483 -1044h-252l-199 1376h254l125 -1044l484 1044h245l127 -1044l484 1044h274z" />
    <glyph glyph-name="X" unicode="X" horiz-adv-x="1378" 
d="M-74 0l637 717l-364 659h290l265 -502l436 502h309l-606 -684l385 -692h-293l-283 535l-462 -535h-314z" />
    <glyph glyph-name="Y" unicode="Y" horiz-adv-x="1247" 
d="M399 0l99 569l-367 807h285l254 -573l415 573h308l-625 -825l-96 -551h-273z" />
    <glyph glyph-name="Z" unicode="Z" horiz-adv-x="1286" 
d="M-4 0l29 162l909 1005h-709l37 209h1069l-28 -162l-912 -1005h760l-37 -209h-1118z" />
    <glyph glyph-name="bracketleft" unicode="[" horiz-adv-x="718" 
d="M41 -283l307 1745h483l-36 -209h-242l-234 -1327h242l-37 -209h-483z" />
    <glyph glyph-name="backslash" unicode="\" horiz-adv-x="786" 
d="M455 -289l-308 1725l213 32l306 -1724z" />
    <glyph glyph-name="bracketright" unicode="]" horiz-adv-x="718" 
d="M709 1462l-308 -1745h-483l37 209h242l233 1327h-242l37 209h484z" />
    <glyph glyph-name="asciicircum" unicode="^" 
d="M547 1376h221l426 -956l-209 -78l-328 737l-327 -737l-209 78z" />
    <glyph glyph-name="underscore" unicode="_" horiz-adv-x="983" 
d="M-154 -362l37 200h983l-37 -200h-983z" />
    <glyph glyph-name="grave" unicode="`" horiz-adv-x="491" 
d="M190 1497l361 -258l-105 -143l-372 239z" />
    <glyph glyph-name="a" unicode="a" horiz-adv-x="1112" 
d="M35 266q0 165 131.5 262t355.5 97q103 0 211 -21l8 49q4 24 4 37q0 64 -49 104t-133 40q-141 0 -315 -58l-45 185q223 67 411 67q170 0 273.5 -86t103.5 -227q0 -43 -6 -78l-70 -381q-4 -20 -4 -31q0 -23 16 -37t44 -14q17 0 41 4l4 -188q-81 -15 -133 -15
q-78 0 -132 33.5t-73 93.5q-130 -127 -318 -127q-142 0 -233.5 83t-91.5 208zM287 301q0 -65 42.5 -103t116.5 -38q94 0 162.5 61.5t85.5 161.5l13 70q-81 20 -172 20q-113 0 -180.5 -47.5t-67.5 -124.5z" />
    <glyph glyph-name="b" unicode="b" horiz-adv-x="1198" 
d="M45 0l254 1442h262l-94 -539q113 125 287 125t276.5 -109t102.5 -296q0 -280 -149.5 -464t-377.5 -184q-94 0 -169 42.5t-115 117.5l-58 -135h-219zM866 592q0 98 -56.5 159.5t-147.5 61.5q-95 0 -168 -63.5t-91 -167.5l-22 -131q-6 -60 -6 -64q0 -87 53 -142t137 -55
q131 0 216 113.5t85 288.5z" />
    <glyph glyph-name="c" unicode="c" horiz-adv-x="1007" 
d="M66 397q0 178 77.5 322.5t215.5 226.5t309 82q190 0 364 -108l-121 -183q-125 82 -237 82q-149 0 -245.5 -112.5t-96.5 -282.5q0 -107 68.5 -173.5t177.5 -66.5q116 0 249 78l80 -180q-188 -107 -385 -107q-201 0 -328.5 117.5t-127.5 304.5z" />
    <glyph glyph-name="d" unicode="d" horiz-adv-x="1198" 
d="M1229 1442l-254 -1442h-199l-10 121q-137 -146 -324 -146q-172 0 -274 110t-102 296q0 184 67 332t187 231.5t270 83.5q92 0 165 -39t113 -110l99 563h262zM332 412q0 -98 57 -160t148 -62q95 0 166 64t90 170l22 129q6 30 6 63q0 88 -52.5 142.5t-135.5 54.5
q-131 0 -216 -113t-85 -288z" />
    <glyph glyph-name="e" unicode="e" horiz-adv-x="1112" 
d="M1036 432h-714q-2 -19 2 -61q12 -90 82 -145.5t172 -55.5q131 0 278 86l80 -172q-204 -109 -399 -109q-213 0 -342 116t-129 306q0 275 165 453t420 178q180 0 296 -113.5t116 -291.5q0 -92 -27 -191zM625 834q-97 0 -175 -67.5t-106 -176.5h471q4 38 2 57
q-5 84 -56.5 135.5t-135.5 51.5z" />
    <glyph glyph-name="f" unicode="f" horiz-adv-x="784" 
d="M143 0l142 805h-189l37 199h189l28 167q25 135 124 215t243 80q103 0 246 -47l-78 -194q-87 32 -137 32q-54 0 -93.5 -33t-48.5 -87l-22 -133h243l-36 -199h-244l-141 -805h-263z" />
    <glyph glyph-name="g" unicode="g" horiz-adv-x="1198" 
d="M332 412q0 -98 57 -160t148 -62q96 0 166.5 64t89.5 170l22 129q6 30 6 63q0 88 -52.5 142.5t-135.5 54.5q-131 0 -216 -113t-85 -288zM1153 1004l-180 -1018q-37 -204 -184 -320.5t-367 -116.5q-99 0 -215 26.5t-223 74.5l88 194q188 -90 340 -90q119 0 200 61.5
t101 172.5l18 112q-113 -125 -289 -125q-172 0 -274 110t-102 296q0 184 67 332t187 231.5t270 83.5q94 0 170.5 -42.5t116.5 -117.5l57 136h219z" />
    <glyph glyph-name="h" unicode="h" horiz-adv-x="1198" 
d="M45 0l254 1442h262l-96 -549q60 64 140.5 99.5t166.5 35.5q149 0 242.5 -88t93.5 -229q0 -51 -10 -113l-107 -598h-262l102 584q9 45 9 67q0 75 -46.5 118.5t-123.5 43.5q-98 0 -170.5 -68t-91.5 -176l-101 -569h-262z" />
    <glyph glyph-name="i" unicode="i" horiz-adv-x="530" 
d="M45 0l178 1004h262l-178 -1004h-262zM242 1268q0 75 52.5 127.5t127.5 52.5q60 0 97.5 -37.5t37.5 -97.5q0 -76 -52.5 -128t-127.5 -52q-60 0 -97.5 37.5t-37.5 97.5z" />
    <glyph glyph-name="j" unicode="j" horiz-adv-x="546" 
d="M502 1004l-207 -1160q-23 -135 -121.5 -215t-243.5 -80q-99 0 -245 48l77 192q95 -31 138 -31q54 0 93 33.5t48 87.5l199 1125h262zM258 1268q0 75 52.5 127.5t127.5 52.5q60 0 97.5 -37.5t37.5 -97.5q0 -76 -52.5 -128t-127.5 -52q-60 0 -97.5 37.5t-37.5 97.5z" />
    <glyph glyph-name="k" unicode="k" horiz-adv-x="1071" 
d="M45 0l254 1442h252l-150 -852l447 414h301l-512 -469l340 -535h-285l-241 391l-101 -92l-53 -299h-252z" />
    <glyph glyph-name="l" unicode="l" horiz-adv-x="628" 
d="M561 1442l-203 -1143q-4 -28 -4 -41q0 -35 22.5 -54.5t59.5 -19.5q9 0 78 11l12 -201q-112 -19 -176 -19q-119 0 -190.5 65t-71.5 171q0 36 6 76l205 1155h262z" />
    <glyph glyph-name="m" unicode="m" horiz-adv-x="1816" 
d="M45 0l178 1004h197l10 -132q131 156 326 156q104 0 179.5 -48t106.5 -132q63 83 161.5 131.5t203.5 48.5q141 0 231.5 -86t90.5 -221q0 -43 -9 -98l-110 -623h-262l106 608q6 27 6 60q0 67 -42.5 106t-112.5 39q-91 0 -158 -64t-86 -167l-103 -582h-262l107 608
q6 27 6 60q0 67 -42.5 106t-113.5 39q-90 0 -156.5 -63.5t-86.5 -167.5l-103 -582h-262z" />
    <glyph glyph-name="n" unicode="n" horiz-adv-x="1198" 
d="M45 0l178 1004h197l10 -140q64 77 153.5 120.5t188.5 43.5q149 0 242.5 -88t93.5 -229q0 -51 -10 -113l-107 -598h-262l102 584q9 45 9 67q0 75 -46.5 118.5t-123.5 43.5q-98 0 -170.5 -68t-91.5 -176l-101 -569h-262z" />
    <glyph glyph-name="o" unicode="o" horiz-adv-x="1198" 
d="M66 397q0 179 77 323t216 226t313 82q207 0 334 -116t127 -306q0 -179 -77.5 -323t-217 -226t-314.5 -82q-207 0 -332.5 116.5t-125.5 305.5zM332 418q0 -108 60 -173t159 -65q135 0 225 116.5t90 289.5q0 107 -59.5 172t-159.5 65q-135 0 -225 -116t-90 -289z" />
    <glyph glyph-name="p" unicode="p" horiz-adv-x="1198" 
d="M-29 -426l252 1430h197l12 -121q136 145 322 145q174 0 276.5 -109t102.5 -296q0 -280 -149.5 -464t-377.5 -184q-91 0 -164.5 40t-111.5 110l-97 -551h-262zM866 592q0 98 -56.5 159.5t-147.5 61.5q-95 0 -168 -63.5t-91 -167.5l-22 -131q-6 -60 -6 -64q0 -87 53 -142
t137 -55q131 0 216 113.5t85 288.5z" />
    <glyph glyph-name="q" unicode="q" horiz-adv-x="1198" 
d="M1153 1004l-252 -1430h-262l92 526q-113 -125 -289 -125q-172 0 -274 110t-102 296q0 184 67 332t187 231.5t270 83.5q94 0 170.5 -42.5t116.5 -117.5l57 136h219zM332 412q0 -98 57 -160t148 -62q96 0 166.5 64t89.5 170l22 129q6 30 6 63q0 88 -52.5 142.5t-135.5 54.5
q-131 0 -216 -113t-85 -288z" />
    <glyph glyph-name="r" unicode="r" horiz-adv-x="821" 
d="M45 0l178 1004h197l8 -144q57 77 137 118.5t172 41.5q68 0 142 -23l-68 -206q-65 20 -125 20q-107 0 -184 -69t-96 -183l-99 -559h-262z" />
    <glyph glyph-name="s" unicode="s" horiz-adv-x="931" 
d="M121 705q0 139 112 231t283 92q178 0 377 -86l-88 -190q-163 77 -281 77q-66 0 -106.5 -30.5t-40.5 -79.5q0 -31 24 -54t62.5 -38.5t85 -31t93 -38t85 -52t62.5 -80t24 -116.5q0 -147 -112.5 -240.5t-290.5 -93.5q-215 0 -410 97l88 188q193 -86 313 -86q70 0 113 33
t43 86q0 33 -24 57.5t-62.5 41t-85 32.5t-93 38t-85 51t-62.5 78.5t-24 113.5z" />
    <glyph glyph-name="t" unicode="t" horiz-adv-x="849" 
d="M633 1298l-49 -294h276l-37 -199h-276l-82 -465q-6 -24 -6 -47q0 -48 31.5 -78.5t82.5 -30.5q28 0 121 13l19 -199q-112 -23 -224 -23q-132 0 -214 76t-82 199q0 22 8 76l84 479h-189l37 199h189l49 294h262z" />
    <glyph glyph-name="u" unicode="u" horiz-adv-x="1198" 
d="M1153 1004l-178 -1004h-199l-8 139q-64 -77 -154 -120.5t-190 -43.5q-147 0 -240.5 89t-93.5 229q0 51 10 113l107 598h262l-104 -584q-7 -35 -7 -66q0 -75 46.5 -119.5t123.5 -44.5q98 0 169.5 68t90.5 176l103 570h262z" />
    <glyph glyph-name="v" unicode="v" horiz-adv-x="1083" 
d="M1157 1004l-584 -1004h-241l-230 1004h258l138 -695l381 695h278z" />
    <glyph glyph-name="w" unicode="w" horiz-adv-x="1607" 
d="M1665 1004l-510 -1004h-244l-80 682l-313 -682h-237l-162 1004h248l82 -682l313 682h235l80 -682l318 682h270z" />
    <glyph glyph-name="x" unicode="x" horiz-adv-x="1083" 
d="M-80 0l467 524l-264 480h276l168 -326l285 326h293l-443 -498l277 -506h-281l-176 350l-303 -350h-299z" />
    <glyph glyph-name="y" unicode="y" horiz-adv-x="1083" 
d="M1157 1004l-663 -1154q-88 -155 -187.5 -228t-222.5 -73q-81 0 -160 23l49 203q59 -17 105 -17q60 0 106.5 36t91.5 114l60 106l-234 990h258l140 -695l379 695h278z" />
    <glyph glyph-name="z" unicode="z" horiz-adv-x="997" 
d="M-16 0l26 156l606 649h-475l37 199h817l-26 -154l-607 -651h508l-34 -199h-852z" />
    <glyph glyph-name="braceleft" unicode="{" horiz-adv-x="718" 
d="M33 485l37 209h24q73 0 124 37.5t61 99.5q10 54 16.5 175.5t15.5 173.5q23 128 135.5 205t280.5 77h102l-36 -209h-52q-76 0 -129.5 -42t-68.5 -115q-9 -44 -13.5 -151t-9.5 -144q-26 -167 -198 -217q120 -46 120 -189q0 -57 -34.5 -168t-34.5 -166q0 -62 41.5 -98.5
t111.5 -36.5h33l-37 -209h-67q-155 0 -248.5 76t-93.5 197q0 69 42 183.5t42 182.5q0 58 -33.5 93.5t-91.5 35.5h-39z" />
    <glyph glyph-name="bar" unicode="|" horiz-adv-x="491" 
d="M135 -459v1966h221v-1966h-221z" />
    <glyph glyph-name="braceright" unicode="}" horiz-adv-x="718" 
d="M715 694l-37 -209h-25q-72 0 -123 -37t-63 -100q-10 -54 -16 -175t-15 -173q-23 -128 -135.5 -205.5t-280.5 -77.5h-102l37 209h51q76 0 130 42.5t69 115.5q9 44 13 151t9 144q26 166 199 217q-121 47 -121 188q0 57 35 168t35 166q0 62 -42 98.5t-112 36.5h-33l37 209
h68q155 0 248.5 -75.5t93.5 -196.5q0 -68 -42 -183t-42 -184q0 -58 33.5 -93.5t91.5 -35.5h39z" />
    <glyph glyph-name="asciitilde" unicode="~" 
d="M178 442l-117 187q151 121 326 121q62 0 123 -15.5t102.5 -34t98 -34t110.5 -15.5q108 0 207 86l117 -186q-151 -121 -324 -121q-78 0 -153 24.5t-145 49t-136 24.5q-58 0 -106.5 -20t-102.5 -66z" />
    <glyph glyph-name="nbspace" unicode="&#xa0;" horiz-adv-x="491" 
 />
    <glyph glyph-name="exclamdown" unicode="&#xa1;" horiz-adv-x="575" 
d="M397 549l-139 -922h-264l184 922h219zM504 885q0 -78 -54.5 -132.5t-132.5 -54.5q-63 0 -102 38.5t-39 101.5q0 79 54.5 133.5t134.5 54.5q63 0 101 -39t38 -102z" />
    <glyph glyph-name="cent" unicode="&#xa2;" 
d="M178 584q0 241 136 411.5t352 204.5l55 307h221l-53 -303q133 -24 252 -100l-117 -180q-125 82 -238 82q-148 0 -245 -113.5t-97 -282.5q0 -107 68.5 -173t177.5 -66q120 0 250 73l80 -176q-151 -87 -315 -102l-52 -297h-221l55 315q-141 34 -225 141.5t-84 258.5z" />
    <glyph glyph-name="sterling" unicode="&#xa3;" 
d="M33 0l37 205h188l70 399h-154l35 201h153l39 219q29 173 156.5 275t314.5 102q162 0 359 -88l-103 -193q-143 66 -235 66q-89 0 -148.5 -51.5t-74.5 -141.5l-35 -188h352l-35 -201h-352l-70 -399h508l-37 -205h-968z" />
    <glyph glyph-name="currency" unicode="&#xa4;" 
d="M252 164l-156 155l160 160q-53 89 -53 209q0 121 53 207l-160 162l156 155l160 -161q90 55 209 55q113 0 206 -55l162 161l156 -155l-162 -162q53 -86 53 -207q0 -120 -53 -209l162 -160l-156 -155l-162 160q-93 -52 -206 -52q-119 0 -209 52zM403 688q0 -96 60.5 -156.5
t157.5 -60.5q95 0 156 61t61 156t-61 156t-156 61q-97 0 -157.5 -60.5t-60.5 -156.5z" />
    <glyph glyph-name="yen" unicode="&#xa5;" 
d="M1038 578h-299l-24 -138h299l-31 -178h-299l-47 -262h-272l47 262h-299l32 178h297l25 138h-299l31 178h243l-297 620h281l217 -528l383 528h301l-498 -620h240z" />
    <glyph glyph-name="brokenbar" unicode="&#xa6;" horiz-adv-x="491" 
d="M135 1409h221v-786h-221v786zM356 -360h-221v786h221v-786z" />
    <glyph glyph-name="section" unicode="&#xa7;" horiz-adv-x="1095" 
d="M-51 -240l88 201q206 -98 377 -98q95 0 152 43t57 112q0 40 -29.5 71t-76.5 52.5t-104 42.5t-113.5 48t-103.5 62.5t-76.5 93t-29.5 132.5q0 103 54.5 183.5t150.5 125.5q-80 77 -80 193q0 164 128.5 271.5t326.5 107.5q229 0 452 -101l-88 -202q-198 88 -354 88
q-90 0 -143.5 -41.5t-53.5 -106.5q0 -39 29.5 -68t76.5 -49t103.5 -40t113.5 -47.5t104 -63t76.5 -95.5t29.5 -138q0 -103 -53.5 -185t-145.5 -129q72 -75 72 -188q0 -171 -129.5 -279t-333.5 -108q-253 0 -477 112zM358 549q0 -30 12 -55t28.5 -41.5t47.5 -33.5t54 -26.5
t63.5 -25.5t61.5 -25q56 22 88 65.5t32 100.5q0 30 -12 55t-27 41.5t-46 34.5t-51 27t-62 26t-60 25q-59 -20 -94 -65.5t-35 -102.5z" />
    <glyph glyph-name="dieresis" unicode="&#xa8;" horiz-adv-x="491" 
d="M467 1270q0 68 46.5 115t115.5 47q54 0 87.5 -33.5t33.5 -87.5q0 -69 -47 -115.5t-115 -46.5q-54 0 -87.5 33.5t-33.5 87.5zM10 1270q0 68 47 115t115 47q54 0 87.5 -33.5t33.5 -87.5q0 -69 -46.5 -115.5t-115.5 -46.5q-54 0 -87.5 33.5t-33.5 87.5z" />
    <glyph glyph-name="copyright" unicode="&#xa9;" horiz-adv-x="1703" 
d="M131 688q0 218 96 390t268 268t390 96t390 -96t267.5 -268t95.5 -390t-95.5 -390t-267.5 -268t-390 -96t-390 96t-268 268t-96 390zM268 688q0 -271 172.5 -443.5t444.5 -172.5q271 0 443.5 172t172.5 444t-172.5 444.5t-443.5 172.5t-444 -172.5t-173 -444.5zM467 688
q0 195 122.5 318.5t319.5 123.5q170 0 316 -98l-82 -135q-101 70 -207 70q-119 0 -193.5 -77.5t-74.5 -201.5t74.5 -201t193.5 -77q107 0 207 69l82 -135q-146 -98 -316 -98q-197 0 -319.5 123.5t-122.5 318.5z" />
    <glyph glyph-name="ordfeminine" unicode="&#xaa;" horiz-adv-x="780" 
d="M41 444l25 138h694l-25 -138h-694zM150 899q0 108 88 172t237 64q67 0 135 -15l6 25q5 25 5 31q0 38 -33.5 63t-87.5 25q-95 0 -207 -37l-33 129q140 47 279 47q117 0 189.5 -57t72.5 -148q0 -24 -6 -51l-43 -238q-4 -20 -4 -28q0 -29 32 -29q19 0 29 2l2 -141
q-62 -8 -94 -8q-109 0 -137 83q-80 -83 -213 -83q-94 0 -155.5 55.5t-61.5 138.5zM332 920q0 -38 27 -61t71 -23q63 0 104 39t52 104l6 35q-55 10 -100 10q-72 0 -116 -28.5t-44 -75.5z" />
    <glyph glyph-name="guillemotleft" unicode="&#xab;" horiz-adv-x="1191" 
d="M45 451l23 129l481 452l135 -137l-381 -399l242 -383l-168 -113zM563 451l23 129l481 452l135 -137l-381 -399l242 -383l-168 -113z" />
    <glyph glyph-name="logicalnot" unicode="&#xac;" 
d="M92 479v221h1024v-622h-221v401h-803z" />
    <glyph glyph-name="uni00AD" unicode="&#xad;" horiz-adv-x="655" 
d="M29 414l37 200h565l-35 -200h-567z" />
    <glyph glyph-name="registered" unicode="&#xae;" horiz-adv-x="1703" 
d="M131 688q0 218 96 390t268 268t390 96t390 -96t267.5 -268t95.5 -390t-95.5 -390t-267.5 -268t-390 -96t-390 96t-268 268t-96 390zM268 688q0 -271 172.5 -443.5t444.5 -172.5q271 0 443.5 172t172.5 444t-172.5 444.5t-443.5 172.5t-444 -172.5t-173 -444.5zM565 262
v852h371q131 0 215 -75.5t84 -196.5q0 -95 -50 -162.5t-134 -87.5l213 -330h-209l-183 301h-122v-301h-185zM750 965v-256h161q62 0 100 34.5t38 92.5t-38 93.5t-100 35.5h-161z" />
    <glyph glyph-name="macron" unicode="&#xaf;" horiz-adv-x="491" 
d="M45 1200l31 178h641l-33 -178h-639z" />
    <glyph glyph-name="degree" unicode="&#xb0;" horiz-adv-x="696" 
d="M188 1090q0 132 88.5 220.5t221.5 88.5q103 0 167 -65t64 -169q0 -132 -88.5 -219.5t-220.5 -87.5q-103 0 -167.5 64.5t-64.5 167.5zM330 1110q0 -49 31 -80t79 -31q63 0 104.5 42t41.5 104q0 51 -30 80.5t-81 29.5q-61 0 -103 -41.5t-42 -103.5z" />
    <glyph glyph-name="plusminus" unicode="&#xb1;" 
d="M715 322h-221v401h-402v221h402v402h221v-402h401v-221h-401v-401zM92 0v221h1024v-221h-1024z" />
    <glyph glyph-name="twosuperior" unicode="&#xb2;" horiz-adv-x="704" 
d="M92 786l23 129l338 285q64 57 94.5 98t30.5 82q0 52 -31.5 81.5t-87.5 29.5q-77 0 -185 -57l-59 143q162 78 301 78q115 0 184.5 -66.5t69.5 -175.5q0 -74 -42.5 -144.5t-131.5 -148.5l-213 -180h317l-26 -154h-582z" />
    <glyph glyph-name="threesuperior" unicode="&#xb3;" horiz-adv-x="704" 
d="M328 1157l22 131h66q74 0 121 33.5t47 87.5q0 43 -31.5 69.5t-81.5 26.5q-82 0 -197 -39l-43 136q175 53 293 53q115 0 182.5 -58t67.5 -157q0 -75 -47 -133.5t-123 -83.5q57 -22 88 -70.5t31 -116.5q0 -112 -92.5 -189t-227.5 -77q-150 0 -307 80l70 133
q129 -63 221 -63q60 0 99.5 34.5t39.5 87.5q0 52 -39 83.5t-104 31.5h-55z" />
    <glyph glyph-name="acute" unicode="&#xb4;" horiz-adv-x="491" 
d="M713 1325l-416 -229l-86 143l395 260z" />
    <glyph glyph-name="uni00B5" unicode="&#xb5;" horiz-adv-x="1247" 
d="M-29 -426l252 1430h262l-104 -584q-6 -30 -6 -66q0 -75 46.5 -119.5t123.5 -44.5q98 0 169.5 68t90.5 176l102 570h262l-129 -732q-4 -20 -4 -32q0 -26 15 -41t43 -15q13 0 41 4v-198q-77 -15 -134 -15q-86 0 -143.5 39t-71.5 107q-56 -67 -130.5 -103t-151.5 -36
q-127 0 -187 69l-84 -477h-262z" />
    <glyph glyph-name="paragraph" unicode="&#xb6;" horiz-adv-x="1214" 
d="M608 485h-41q-203 0 -318.5 106t-115.5 292q0 138 73 251.5t198.5 177.5t277.5 64h512l-299 -1704h-221l262 1483h-209z" />
    <glyph glyph-name="periodcentered" unicode="&#xb7;" horiz-adv-x="542" 
d="M106 492q0 78 54.5 132t132.5 54q63 0 102 -38.5t39 -100.5q0 -79 -54 -134t-132 -55q-63 0 -102.5 40t-39.5 102z" />
    <glyph glyph-name="cedilla" unicode="&#xb8;" horiz-adv-x="491" 
d="M262 0l-29 -90q53 -17 84 -59.5t31 -100.5q0 -94 -79.5 -158.5t-200.5 -64.5q-107 0 -220 49l60 141q78 -32 139 -32q41 0 66.5 19.5t25.5 49.5q0 29 -26.5 47.5t-69.5 18.5h-20l61 180h178z" />
    <glyph glyph-name="onesuperior" unicode="&#xb9;" horiz-adv-x="573" 
d="M305 786l115 660l-193 -103l-59 134l311 161h166l-149 -852h-191z" />
    <glyph glyph-name="ordmasculine" unicode="&#xba;" horiz-adv-x="839" 
d="M74 444l24 138h686l-24 -138h-686zM156 985q0 181 115 299.5t294 118.5q141 0 227.5 -77t86.5 -204q0 -181 -115.5 -299t-294.5 -118q-141 0 -227 76.5t-86 203.5zM487 856q83 0 137 71.5t54 178.5q0 66 -35.5 105.5t-95.5 39.5q-83 0 -137 -71.5t-54 -178.5
q0 -67 35 -106t96 -39z" />
    <glyph glyph-name="guillemotright" unicode="&#xbb;" horiz-adv-x="1191" 
d="M631 578l-23 -129l-479 -453l-135 137l381 399l-244 383l168 113zM1149 578l-23 -129l-479 -453l-135 137l381 399l-244 383l168 113z" />
    <glyph glyph-name="onequarter" unicode="&#xbc;" horiz-adv-x="1966" 
d="M365 524l114 660l-192 -103l-60 133l312 162h166l-150 -852h-190zM317 55l1276 1381l121 -115l-1276 -1380zM1544 0l31 176h-399l26 137l484 539h178l-95 -537h103l-23 -139h-104l-31 -176h-170zM1374 315h223l62 324z" />
    <glyph glyph-name="onehalf" unicode="&#xbd;" horiz-adv-x="1966" 
d="M365 524l114 660l-192 -103l-60 133l312 162h166l-150 -852h-190zM317 55l1276 1381l121 -115l-1276 -1380zM1174 0l22 129l338 285q64 57 94.5 98t30.5 82q0 52 -31.5 81.5t-87.5 29.5q-74 0 -184 -58l-60 144q160 77 301 77q115 0 184.5 -66t69.5 -175
q0 -74 -42.5 -144.5t-131.5 -148.5l-213 -180h318l-27 -154h-581z" />
    <glyph glyph-name="threequarters" unicode="&#xbe;" horiz-adv-x="1966" 
d="M322 895l22 131h66q74 0 121 33.5t47 87.5q0 43 -31.5 69.5t-81.5 26.5q-82 0 -197 -39l-43 135q178 54 293 54t182.5 -58t67.5 -157q0 -75 -47 -133.5t-123 -83.5q57 -22 88 -70.5t31 -116.5q0 -112 -92.5 -189t-227.5 -77q-150 0 -307 80l70 133q131 -64 221 -64
q60 0 99.5 35t39.5 88q0 52 -39 83.5t-104 31.5h-55zM317 55l1276 1381l121 -115l-1276 -1380zM1544 0l31 176h-399l26 137l484 539h178l-95 -537h103l-23 -139h-104l-31 -176h-170zM1374 315h223l62 324z" />
    <glyph glyph-name="questiondown" unicode="&#xbf;" horiz-adv-x="827" 
d="M397 549h226l-9 -47q-9 -59 -40.5 -113.5t-72.5 -92.5t-87 -78t-84 -73t-63 -74.5t-25 -84.5q0 -72 45.5 -117t120.5 -45q117 0 268 82l92 -191q-204 -112 -418 -112q-173 0 -275 94t-102 246q0 66 21 124t55.5 102t76 83t85 73t81 65.5t65.5 67.5t36 72zM711 891
q0 -75 -53 -127.5t-128 -52.5q-62 0 -98.5 36.5t-36.5 98.5q0 75 52.5 127.5t127.5 52.5q62 0 99 -37t37 -98z" />
    <glyph glyph-name="Agrave" unicode="&#xc0;" horiz-adv-x="1378" 
d="M-84 0l803 1376h252l315 -1376h-258l-70 328h-579l-184 -328h-279zM805 1087l-318 -561h435zM690 1870l361 -258l-105 -144l-373 240z" />
    <glyph glyph-name="Aacute" unicode="&#xc1;" horiz-adv-x="1378" 
d="M-84 0l803 1376h252l315 -1376h-258l-70 328h-579l-184 -328h-279zM805 1087l-318 -561h435zM1212 1698l-415 -230l-86 144l395 260z" />
    <glyph glyph-name="Acircumflex" unicode="&#xc2;" horiz-adv-x="1378" 
d="M-84 0l803 1376h252l315 -1376h-258l-70 328h-579l-184 -328h-279zM805 1087l-318 -561h435zM526 1602l295 233h158l213 -250l-123 -112l-186 184l-260 -191z" />
    <glyph glyph-name="Atilde" unicode="&#xc3;" horiz-adv-x="1378" 
d="M-84 0l803 1376h252l315 -1376h-258l-70 328h-579l-184 -328h-279zM805 1087l-318 -561h435zM764 1788q47 0 90 -18t79 -36t66 -18q29 0 54 20t37 52l149 -49q-31 -93 -95.5 -147t-148.5 -54q-59 0 -130.5 36t-104.5 36q-29 0 -52.5 -19.5t-37.5 -52.5l-148 49
q30 93 94 147t148 54z" />
    <glyph glyph-name="Adieresis" unicode="&#xc4;" horiz-adv-x="1378" 
d="M-84 0l803 1376h252l315 -1376h-258l-70 328h-579l-184 -328h-279zM805 1087l-318 -561h435zM967 1642q0 68 46 115t115 47q54 0 87.5 -33.5t33.5 -87.5q0 -69 -47 -115t-115 -46q-54 0 -87 33t-33 87zM510 1642q0 68 47 115t115 47q54 0 87.5 -33.5t33.5 -87.5
q0 -69 -46.5 -115t-115.5 -46q-54 0 -87.5 33t-33.5 87z" />
    <glyph glyph-name="Aring" unicode="&#xc5;" horiz-adv-x="1378" 
d="M-84 0l803 1376h252l315 -1376h-258l-70 328h-579l-184 -328h-279zM805 1087l-318 -561h435zM784 1649q0 -37 22.5 -59.5t57.5 -22.5q47 0 79 32t32 78q0 36 -22 58t-58 22q-47 0 -79 -31t-32 -77zM657 1632q0 101 73.5 171.5t180.5 70.5q85 0 138 -50t53 -130
q0 -103 -73.5 -172.5t-180.5 -69.5q-86 0 -138.5 50t-52.5 130z" />
    <glyph glyph-name="AE" unicode="&#xc6;" horiz-adv-x="1974" 
d="M852 0l57 328h-475l-256 -328h-328l1104 1376h1051l-35 -205h-649l-66 -366h584l-35 -201h-583l-70 -399h682l-37 -205h-944zM1053 1135l-475 -609h366z" />
    <glyph glyph-name="Ccedilla" unicode="&#xc7;" horiz-adv-x="1314" 
d="M100 535q0 184 60 345t165 275.5t254.5 180t321.5 65.5q256 0 475 -150l-127 -186q-171 119 -342 119q-116 0 -215 -47t-167.5 -129.5t-107 -196.5t-38.5 -246q0 -168 107 -270t276 -102q173 0 356 108l86 -186q-207 -129 -438 -138l-23 -67q54 -17 84.5 -59.5
t30.5 -100.5q0 -94 -79.5 -158.5t-200.5 -64.5q-107 0 -220 49l60 141q78 -32 139 -32q41 0 66.5 19.5t25.5 49.5q0 29 -26.5 47.5t-69.5 18.5h-21l56 166q-220 31 -354 178.5t-134 370.5z" />
    <glyph glyph-name="Egrave" unicode="&#xc8;" horiz-adv-x="1216" 
d="M84 0l242 1376h921l-35 -205h-649l-65 -366h583l-34 -201h-584l-70 -399h682l-37 -205h-954zM635 1870l360 -258l-104 -144l-373 240z" />
    <glyph glyph-name="Eacute" unicode="&#xc9;" horiz-adv-x="1216" 
d="M84 0l242 1376h921l-35 -205h-649l-65 -366h583l-34 -201h-584l-70 -399h682l-37 -205h-954zM1157 1698l-416 -230l-86 144l396 260z" />
    <glyph glyph-name="Ecircumflex" unicode="&#xca;" horiz-adv-x="1216" 
d="M84 0l242 1376h921l-35 -205h-649l-65 -366h583l-34 -201h-584l-70 -399h682l-37 -205h-954zM471 1602l295 233h158l213 -250l-123 -112l-187 184l-260 -191z" />
    <glyph glyph-name="Edieresis" unicode="&#xcb;" horiz-adv-x="1216" 
d="M84 0l242 1376h921l-35 -205h-649l-65 -366h583l-34 -201h-584l-70 -399h682l-37 -205h-954zM911 1642q0 68 46.5 115t115.5 47q54 0 87.5 -33.5t33.5 -87.5q0 -69 -47 -115t-115 -46q-54 0 -87.5 33t-33.5 87zM455 1642q0 68 47 115t114 47q54 0 87.5 -33.5t33.5 -87.5
q0 -69 -46.5 -115t-115.5 -46q-54 0 -87 33t-33 87z" />
    <glyph glyph-name="Igrave" unicode="&#xcc;" horiz-adv-x="618" 
d="M84 0l242 1376h272l-242 -1376h-272zM317 1870l361 -258l-105 -144l-372 240z" />
    <glyph glyph-name="Iacute" unicode="&#xcd;" horiz-adv-x="618" 
d="M84 0l242 1376h272l-242 -1376h-272zM840 1698l-416 -230l-86 144l395 260z" />
    <glyph glyph-name="Icircumflex" unicode="&#xce;" horiz-adv-x="618" 
d="M84 0l242 1376h272l-242 -1376h-272zM154 1602l295 233h157l213 -250l-123 -112l-186 184l-260 -191z" />
    <glyph glyph-name="Idieresis" unicode="&#xcf;" horiz-adv-x="618" 
d="M84 0l242 1376h272l-242 -1376h-272zM594 1642q0 68 46.5 115t115.5 47q54 0 87.5 -33.5t33.5 -87.5q0 -69 -47 -115t-115 -46q-54 0 -87.5 33t-33.5 87zM137 1642q0 68 47.5 115t114.5 47q54 0 87.5 -33.5t33.5 -87.5q0 -69 -46.5 -115t-115.5 -46q-54 0 -87.5 33
t-33.5 87z" />
    <glyph glyph-name="Eth" unicode="&#xd0;" horiz-adv-x="1492" 
d="M117 0l104 604h-160l37 201h160l100 571h461q295 0 467 -150.5t172 -408.5q0 -177 -60.5 -329.5t-167 -259.5t-257 -167.5t-324.5 -60.5h-532zM1180 791q0 177 -107.5 276.5t-300.5 99.5h-178l-64 -362h289l-35 -201h-288l-72 -395h221q235 0 385 163t150 419z" />
    <glyph glyph-name="Ntilde" unicode="&#xd1;" horiz-adv-x="1542" 
d="M84 0l242 1376h258l514 -991l174 991h252l-242 -1376h-258l-514 991l-174 -991h-252zM854 1788q47 0 90.5 -18t79.5 -36t66 -18q29 0 53.5 19.5t36.5 52.5l149 -49q-31 -93 -95.5 -147t-148.5 -54q-59 0 -130.5 36t-104.5 36q-29 0 -52.5 -19.5t-37.5 -52.5l-148 49
q30 93 94 147t148 54z" />
    <glyph glyph-name="Ograve" unicode="&#xd2;" horiz-adv-x="1542" 
d="M100 535q0 186 60.5 347t166 275t254.5 179t320 65q273 0 439.5 -152.5t166.5 -406.5q0 -248 -103 -446t-286.5 -309.5t-412.5 -111.5q-271 0 -438 153t-167 407zM379 561q0 -171 96.5 -271t255.5 -100q140 0 254 81t179 224.5t65 319.5q0 171 -96.5 271t-255.5 100
q-140 0 -254 -81t-179 -224.5t-65 -319.5zM780 1870l361 -258l-105 -144l-372 240z" />
    <glyph glyph-name="Oacute" unicode="&#xd3;" horiz-adv-x="1542" 
d="M100 535q0 186 60.5 347t166 275t254.5 179t320 65q273 0 439.5 -152.5t166.5 -406.5q0 -248 -103 -446t-286.5 -309.5t-412.5 -111.5q-271 0 -438 153t-167 407zM379 561q0 -171 96.5 -271t255.5 -100q140 0 254 81t179 224.5t65 319.5q0 171 -96.5 271t-255.5 100
q-140 0 -254 -81t-179 -224.5t-65 -319.5zM1303 1698l-416 -230l-86 144l395 260z" />
    <glyph glyph-name="Ocircumflex" unicode="&#xd4;" horiz-adv-x="1542" 
d="M100 535q0 186 60.5 347t166 275t254.5 179t320 65q273 0 439.5 -152.5t166.5 -406.5q0 -248 -103 -446t-286.5 -309.5t-412.5 -111.5q-271 0 -438 153t-167 407zM379 561q0 -171 96.5 -271t255.5 -100q140 0 254 81t179 224.5t65 319.5q0 171 -96.5 271t-255.5 100
q-140 0 -254 -81t-179 -224.5t-65 -319.5zM616 1602l295 233h158l213 -250l-123 -112l-186 184l-260 -191z" />
    <glyph glyph-name="Otilde" unicode="&#xd5;" horiz-adv-x="1542" 
d="M100 535q0 186 60.5 347t166 275t254.5 179t320 65q273 0 439.5 -152.5t166.5 -406.5q0 -248 -103 -446t-286.5 -309.5t-412.5 -111.5q-271 0 -438 153t-167 407zM379 561q0 -171 96.5 -271t255.5 -100q140 0 254 81t179 224.5t65 319.5q0 171 -96.5 271t-255.5 100
q-140 0 -254 -81t-179 -224.5t-65 -319.5zM854 1788q47 0 90.5 -18t79.5 -36t66 -18q29 0 53.5 19.5t36.5 52.5l149 -49q-31 -93 -95.5 -147t-148.5 -54q-59 0 -130.5 36t-104.5 36q-29 0 -52.5 -19.5t-37.5 -52.5l-148 49q30 93 94 147t148 54z" />
    <glyph glyph-name="Odieresis" unicode="&#xd6;" horiz-adv-x="1542" 
d="M100 535q0 186 60.5 347t166 275t254.5 179t320 65q273 0 439.5 -152.5t166.5 -406.5q0 -248 -103 -446t-286.5 -309.5t-412.5 -111.5q-271 0 -438 153t-167 407zM379 561q0 -171 96.5 -271t255.5 -100q140 0 254 81t179 224.5t65 319.5q0 171 -96.5 271t-255.5 100
q-140 0 -254 -81t-179 -224.5t-65 -319.5zM1057 1642q0 68 46.5 115t115.5 47q54 0 87 -33.5t33 -87.5q0 -69 -46.5 -115t-114.5 -46q-54 0 -87.5 33t-33.5 87zM600 1642q0 68 47 115t115 47q54 0 87.5 -33.5t33.5 -87.5q0 -69 -46.5 -115t-115.5 -46q-54 0 -87.5 33
t-33.5 87z" />
    <glyph glyph-name="multiply" unicode="&#xd7;" 
d="M264 96l-155 154l340 340l-340 340l155 153l340 -338l338 338l156 -153l-338 -340l338 -340l-156 -154l-338 338z" />
    <glyph glyph-name="Oslash" unicode="&#xd8;" horiz-adv-x="1542" 
d="M100 535q0 186 60 347t165.5 275t254.5 179t321 65q212 0 359 -103l129 140l120 -103l-125 -133q123 -148 123 -360q0 -248 -102.5 -446t-286 -309.5t-413.5 -111.5q-208 0 -359 101l-127 -137l-123 102l125 133q-121 143 -121 361zM358 561q0 -109 45 -188l697 749
q-93 74 -223 74q-148 0 -267 -82t-185.5 -227.5t-66.5 -325.5zM731 182q225 0 371.5 179.5t146.5 453.5q0 112 -47 189l-694 -750q87 -72 223 -72z" />
    <glyph glyph-name="Ugrave" unicode="&#xd9;" horiz-adv-x="1542" 
d="M1540 1376l-156 -874q-42 -245 -225.5 -386t-451.5 -141q-242 0 -396.5 129.5t-154.5 335.5q0 50 10 115l143 821h273l-144 -821q-8 -39 -8 -86q0 -126 82 -202.5t217 -76.5q151 0 256 90t131 242l152 854h272zM780 1870l361 -258l-105 -144l-372 240z" />
    <glyph glyph-name="Uacute" unicode="&#xda;" horiz-adv-x="1542" 
d="M1540 1376l-156 -874q-42 -245 -225.5 -386t-451.5 -141q-242 0 -396.5 129.5t-154.5 335.5q0 50 10 115l143 821h273l-144 -821q-8 -39 -8 -86q0 -126 82 -202.5t217 -76.5q151 0 256 90t131 242l152 854h272zM1303 1698l-416 -230l-86 144l395 260z" />
    <glyph glyph-name="Ucircumflex" unicode="&#xdb;" horiz-adv-x="1542" 
d="M1540 1376l-156 -874q-42 -245 -225.5 -386t-451.5 -141q-242 0 -396.5 129.5t-154.5 335.5q0 50 10 115l143 821h273l-144 -821q-8 -39 -8 -86q0 -126 82 -202.5t217 -76.5q151 0 256 90t131 242l152 854h272zM616 1602l295 233h158l213 -250l-123 -112l-186 184
l-260 -191z" />
    <glyph glyph-name="Udieresis" unicode="&#xdc;" horiz-adv-x="1542" 
d="M1540 1376l-156 -874q-42 -245 -225.5 -386t-451.5 -141q-242 0 -396.5 129.5t-154.5 335.5q0 50 10 115l143 821h273l-144 -821q-8 -39 -8 -86q0 -126 82 -202.5t217 -76.5q151 0 256 90t131 242l152 854h272zM1057 1642q0 68 46.5 115t115.5 47q54 0 87 -33.5t33 -87.5
q0 -69 -46.5 -115t-114.5 -46q-54 0 -87.5 33t-33.5 87zM600 1642q0 68 47 115t115 47q54 0 87.5 -33.5t33.5 -87.5q0 -69 -46.5 -115t-115.5 -46q-54 0 -87.5 33t-33.5 87z" />
    <glyph glyph-name="Yacute" unicode="&#xdd;" horiz-adv-x="1247" 
d="M399 0l99 569l-367 807h285l254 -573l415 573h308l-625 -825l-96 -551h-273zM1139 1698l-416 -230l-86 144l395 260z" />
    <glyph glyph-name="Thorn" unicode="&#xde;" horiz-adv-x="1269" 
d="M84 0l242 1376h262l-39 -219h264q197 0 313.5 -108.5t116.5 -292.5q0 -216 -157 -360t-392 -144h-303l-45 -252h-262zM975 735q0 98 -63.5 155.5t-170.5 57.5h-229l-84 -487h246q135 0 218 76t83 198z" />
    <glyph glyph-name="germandbls" unicode="&#xdf;" horiz-adv-x="1280" 
d="M633 688q0 50 23.5 98.5t56.5 87.5t66.5 77.5t57 82.5t23.5 88q0 67 -43.5 106.5t-120.5 39.5q-85 0 -140.5 -51.5t-72.5 -149.5l-186 -1067h-252l195 1104q28 167 154.5 264.5t318.5 97.5q187 0 298 -87.5t111 -233.5q0 -58 -22.5 -110.5t-54 -91t-63.5 -73t-54.5 -71
t-22.5 -70.5q0 -33 15.5 -60.5t40 -48t54 -41t59.5 -45.5t54.5 -55t40 -75t15.5 -101q0 -142 -115 -235t-297 -93q-167 0 -334 84l86 189q135 -74 250 -74q70 0 114 33t44 86q0 31 -16.5 56t-43 43.5t-58 37t-63.5 41.5t-58.5 50.5t-43 70.5t-16.5 96z" />
    <glyph glyph-name="agrave" unicode="&#xe0;" horiz-adv-x="1144" 
d="M35 266q0 165 131.5 262t355.5 97q103 0 211 -21l8 49q4 24 4 37q0 64 -49 104t-133 40q-141 0 -315 -58l-45 185q223 67 411 67q170 0 273.5 -86t103.5 -227q0 -43 -6 -78l-70 -381q-4 -20 -4 -31q0 -23 16 -37t44 -14q17 0 41 4l4 -188q-81 -15 -133 -15
q-78 0 -132 33.5t-73 93.5q-130 -127 -318 -127q-142 0 -233.5 83t-91.5 208zM287 301q0 -65 42.5 -103t116.5 -38q94 0 162.5 61.5t85.5 161.5l13 70q-81 20 -172 20q-113 0 -180.5 -47.5t-67.5 -124.5zM492 1497l360 -258l-104 -143l-373 239z" />
    <glyph glyph-name="aacute" unicode="&#xe1;" horiz-adv-x="1144" 
d="M35 266q0 165 131.5 262t355.5 97q103 0 211 -21l8 49q4 24 4 37q0 64 -49 104t-133 40q-141 0 -315 -58l-45 185q223 67 411 67q170 0 273.5 -86t103.5 -227q0 -43 -6 -78l-70 -381q-4 -20 -4 -31q0 -23 16 -37t44 -14q17 0 41 4l4 -188q-81 -15 -133 -15
q-78 0 -132 33.5t-73 93.5q-130 -127 -318 -127q-142 0 -233.5 83t-91.5 208zM287 301q0 -65 42.5 -103t116.5 -38q94 0 162.5 61.5t85.5 161.5l13 70q-81 20 -172 20q-113 0 -180.5 -47.5t-67.5 -124.5zM1014 1325l-416 -229l-86 143l395 260z" />
    <glyph glyph-name="acircumflex" unicode="&#xe2;" horiz-adv-x="1144" 
d="M35 266q0 165 131.5 262t355.5 97q103 0 211 -21l8 49q4 24 4 37q0 64 -49 104t-133 40q-141 0 -315 -58l-45 185q223 67 411 67q170 0 273.5 -86t103.5 -227q0 -43 -6 -78l-70 -381q-4 -20 -4 -31q0 -23 16 -37t44 -14q17 0 41 4l4 -188q-81 -15 -133 -15
q-78 0 -132 33.5t-73 93.5q-130 -127 -318 -127q-142 0 -233.5 83t-91.5 208zM287 301q0 -65 42.5 -103t116.5 -38q94 0 162.5 61.5t85.5 161.5l13 70q-81 20 -172 20q-113 0 -180.5 -47.5t-67.5 -124.5zM328 1229l295 233h157l213 -250l-123 -112l-186 184l-260 -190z" />
    <glyph glyph-name="atilde" unicode="&#xe3;" horiz-adv-x="1144" 
d="M35 266q0 165 131.5 262t355.5 97q103 0 211 -21l8 49q4 24 4 37q0 64 -49 104t-133 40q-141 0 -315 -58l-45 185q223 67 411 67q170 0 273.5 -86t103.5 -227q0 -43 -6 -78l-70 -381q-4 -20 -4 -31q0 -23 16 -37t44 -14q17 0 41 4l4 -188q-81 -15 -133 -15
q-78 0 -132 33.5t-73 93.5q-130 -127 -318 -127q-142 0 -233.5 83t-91.5 208zM287 301q0 -65 42.5 -103t116.5 -38q94 0 162.5 61.5t85.5 161.5l13 70q-81 20 -172 20q-113 0 -180.5 -47.5t-67.5 -124.5zM565 1415q47 0 90.5 -18t79.5 -36t66 -18q29 0 53.5 19.5t36.5 52.5
l149 -49q-31 -93 -95 -147t-148 -54q-59 0 -131 36t-105 36q-29 0 -52.5 -19.5t-37.5 -52.5l-147 49q30 93 93.5 147t147.5 54z" />
    <glyph glyph-name="adieresis" unicode="&#xe4;" horiz-adv-x="1144" 
d="M35 266q0 165 131.5 262t355.5 97q103 0 211 -21l8 49q4 24 4 37q0 64 -49 104t-133 40q-141 0 -315 -58l-45 185q223 67 411 67q170 0 273.5 -86t103.5 -227q0 -43 -6 -78l-70 -381q-4 -20 -4 -31q0 -23 16 -37t44 -14q17 0 41 4l4 -188q-81 -15 -133 -15
q-78 0 -132 33.5t-73 93.5q-130 -127 -318 -127q-142 0 -233.5 83t-91.5 208zM287 301q0 -65 42.5 -103t116.5 -38q94 0 162.5 61.5t85.5 161.5l13 70q-81 20 -172 20q-113 0 -180.5 -47.5t-67.5 -124.5zM768 1270q0 68 46.5 115t115.5 47q54 0 87.5 -33.5t33.5 -87.5
q0 -69 -47 -115.5t-115 -46.5q-54 0 -87.5 33.5t-33.5 87.5zM311 1270q0 68 47.5 115t114.5 47q54 0 87.5 -33.5t33.5 -87.5q0 -69 -46.5 -115.5t-115.5 -46.5q-54 0 -87.5 33.5t-33.5 87.5z" />
    <glyph glyph-name="aring" unicode="&#xe5;" horiz-adv-x="1144" 
d="M35 266q0 165 131.5 262t355.5 97q103 0 211 -21l8 49q4 24 4 37q0 64 -49 104t-133 40q-141 0 -315 -58l-45 185q223 67 411 67q170 0 273.5 -86t103.5 -227q0 -43 -6 -78l-70 -381q-4 -20 -4 -31q0 -23 16 -37t44 -14q17 0 41 4l4 -188q-81 -15 -133 -15
q-78 0 -132 33.5t-73 93.5q-130 -127 -318 -127q-142 0 -233.5 83t-91.5 208zM287 301q0 -65 42.5 -103t116.5 -38q94 0 162.5 61.5t85.5 161.5l13 70q-81 20 -172 20q-113 0 -180.5 -47.5t-67.5 -124.5zM586 1276q0 -37 22.5 -59.5t57.5 -22.5q47 0 78.5 32.5t31.5 78.5
q0 36 -22 57.5t-58 21.5q-47 0 -78.5 -31t-31.5 -77zM459 1260q0 101 73.5 171t180.5 70q85 0 137.5 -50t52.5 -130q0 -103 -73.5 -172.5t-180.5 -69.5q-86 0 -138 50.5t-52 130.5z" />
    <glyph glyph-name="ae" unicode="&#xe6;" horiz-adv-x="1736" 
d="M35 266q0 165 131.5 262t355.5 97q103 0 211 -21l8 49q4 20 4 37q0 64 -49 104t-133 40q-141 0 -315 -58l-45 185q223 67 411 67q108 0 187 -34.5t119 -100.5q144 135 356 135q180 0 296 -113.5t116 -291.5q0 -88 -25 -191h-715q-2 -19 2 -61q11 -89 81 -145t173 -56
q130 0 277 86l82 -172q-207 -109 -402 -109q-131 0 -231.5 52.5t-153.5 146.5q-63 -94 -167 -146.5t-228 -52.5q-150 0 -248 83t-98 208zM1251 834q-98 0 -175 -67.5t-105 -176.5h471q2 18 2 57q-5 84 -57.5 135.5t-135.5 51.5zM287 301q0 -65 42.5 -103t116.5 -38
q94 0 162.5 61.5t85.5 161.5l13 70q-81 20 -172 20q-113 0 -180.5 -47.5t-67.5 -124.5z" />
    <glyph glyph-name="ccedilla" unicode="&#xe7;" horiz-adv-x="1007" 
d="M66 397q0 178 77.5 322.5t215.5 226.5t309 82q190 0 364 -108l-121 -183q-125 82 -237 82q-149 0 -245.5 -112.5t-96.5 -282.5q0 -108 67.5 -174t178.5 -66q116 0 249 78l80 -180q-169 -96 -327 -102l-23 -70q54 -17 84.5 -59.5t30.5 -100.5q0 -94 -80.5 -158.5
t-200.5 -64.5q-106 0 -219 49l59 141q78 -32 140 -32q41 0 67.5 20t26.5 49t-27.5 47.5t-70.5 18.5h-21l57 170q-153 29 -245 138.5t-92 268.5z" />
    <glyph glyph-name="egrave" unicode="&#xe8;" horiz-adv-x="1112" 
d="M1036 432h-714q-2 -19 2 -61q12 -90 82 -145.5t172 -55.5q131 0 278 86l80 -172q-204 -109 -399 -109q-213 0 -342 116t-129 306q0 275 165 453t420 178q180 0 296 -113.5t116 -291.5q0 -92 -27 -191zM625 834q-97 0 -175 -67.5t-106 -176.5h471q4 38 2 57
q-5 84 -56.5 135.5t-135.5 51.5zM524 1497l361 -258l-105 -143l-372 239z" />
    <glyph glyph-name="eacute" unicode="&#xe9;" horiz-adv-x="1112" 
d="M1036 432h-714q-2 -19 2 -61q12 -90 82 -145.5t172 -55.5q131 0 278 86l80 -172q-204 -109 -399 -109q-213 0 -342 116t-129 306q0 275 165 453t420 178q180 0 296 -113.5t116 -291.5q0 -92 -27 -191zM625 834q-97 0 -175 -67.5t-106 -176.5h471q4 38 2 57
q-5 84 -56.5 135.5t-135.5 51.5zM1047 1325l-416 -229l-86 143l395 260z" />
    <glyph glyph-name="ecircumflex" unicode="&#xea;" horiz-adv-x="1112" 
d="M1036 432h-714q-2 -19 2 -61q12 -90 82 -145.5t172 -55.5q131 0 278 86l80 -172q-204 -109 -399 -109q-213 0 -342 116t-129 306q0 275 165 453t420 178q180 0 296 -113.5t116 -291.5q0 -92 -27 -191zM625 834q-97 0 -175 -67.5t-106 -176.5h471q4 38 2 57
q-5 84 -56.5 135.5t-135.5 51.5zM360 1229l295 233h158l213 -250l-123 -112l-186 184l-260 -190z" />
    <glyph glyph-name="edieresis" unicode="&#xeb;" horiz-adv-x="1112" 
d="M1036 432h-714q-2 -19 2 -61q12 -90 82 -145.5t172 -55.5q131 0 278 86l80 -172q-204 -109 -399 -109q-213 0 -342 116t-129 306q0 275 165 453t420 178q180 0 296 -113.5t116 -291.5q0 -92 -27 -191zM625 834q-97 0 -175 -67.5t-106 -176.5h471q4 38 2 57
q-5 84 -56.5 135.5t-135.5 51.5zM801 1270q0 68 46.5 115t115.5 47q54 0 87 -33.5t33 -87.5q0 -69 -46.5 -115.5t-114.5 -46.5q-54 0 -87.5 33.5t-33.5 87.5zM344 1270q0 68 47 115t115 47q54 0 87.5 -33.5t33.5 -87.5q0 -69 -46.5 -115.5t-115.5 -46.5q-54 0 -87.5 33.5
t-33.5 87.5z" />
    <glyph glyph-name="igrave" unicode="&#xec;" horiz-adv-x="530" 
d="M45 0l178 1004h262l-178 -1004h-262zM209 1497l360 -258l-104 -143l-373 239z" />
    <glyph glyph-name="iacute" unicode="&#xed;" horiz-adv-x="530" 
d="M45 0l178 1004h262l-178 -1004h-262zM731 1325l-416 -229l-86 143l396 260z" />
    <glyph glyph-name="icircumflex" unicode="&#xee;" horiz-adv-x="530" 
d="M45 0l178 1004h262l-178 -1004h-262zM45 1229l295 233h158l213 -250l-123 -112l-187 184l-260 -190z" />
    <glyph glyph-name="idieresis" unicode="&#xef;" horiz-adv-x="530" 
d="M45 0l178 1004h262l-178 -1004h-262zM485 1270q0 68 46.5 115t115.5 47q54 0 87.5 -33.5t33.5 -87.5q0 -69 -47 -115.5t-115 -46.5q-54 0 -87.5 33.5t-33.5 87.5zM29 1270q0 68 47 115t114 47q54 0 87.5 -33.5t33.5 -87.5q0 -69 -46 -115.5t-115 -46.5q-54 0 -87.5 33.5
t-33.5 87.5z" />
    <glyph glyph-name="eth" unicode="&#xf0;" horiz-adv-x="1198" 
d="M434 1061l-53 137l180 78q-73 42 -112 57l67 166q160 -45 277 -125l237 105l53 -138l-170 -73q217 -234 217 -609q0 -148 -47 -275.5t-130 -217t-199 -140.5t-250 -51q-196 0 -317 117t-121 291q0 268 157 441t402 173q144 0 237 -90q-34 168 -147 275zM315 403
q0 -105 60.5 -169t159.5 -64q136 0 225.5 114t89.5 285q0 105 -60 169.5t-159 64.5q-135 0 -225.5 -115.5t-90.5 -284.5z" />
    <glyph glyph-name="ntilde" unicode="&#xf1;" horiz-adv-x="1198" 
d="M45 0l178 1004h197l10 -140q64 77 153.5 120.5t188.5 43.5q149 0 242.5 -88t93.5 -229q0 -51 -10 -113l-107 -598h-262l102 584q9 45 9 67q0 75 -46.5 118.5t-123.5 43.5q-98 0 -170.5 -68t-91.5 -176l-101 -569h-262zM616 1415q47 0 90.5 -18t79.5 -36t66 -18
q29 0 53.5 19.5t36.5 52.5l150 -49q-31 -93 -95.5 -147t-148.5 -54q-59 0 -131 36t-105 36q-29 0 -52.5 -19.5t-37.5 -52.5l-147 49q30 93 93.5 147t147.5 54z" />
    <glyph glyph-name="ograve" unicode="&#xf2;" horiz-adv-x="1198" 
d="M66 397q0 179 77 323t216 226t313 82q207 0 334 -116t127 -306q0 -179 -77.5 -323t-217 -226t-314.5 -82q-207 0 -332.5 116.5t-125.5 305.5zM332 418q0 -108 60 -173t159 -65q135 0 225 116.5t90 289.5q0 107 -59.5 172t-159.5 65q-135 0 -225 -116t-90 -289zM543 1497
l360 -258l-104 -143l-373 239z" />
    <glyph glyph-name="oacute" unicode="&#xf3;" horiz-adv-x="1198" 
d="M66 397q0 179 77 323t216 226t313 82q207 0 334 -116t127 -306q0 -179 -77.5 -323t-217 -226t-314.5 -82q-207 0 -332.5 116.5t-125.5 305.5zM332 418q0 -108 60 -173t159 -65q135 0 225 116.5t90 289.5q0 107 -59.5 172t-159.5 65q-135 0 -225 -116t-90 -289zM1065 1325
l-416 -229l-86 143l395 260z" />
    <glyph glyph-name="ocircumflex" unicode="&#xf4;" horiz-adv-x="1198" 
d="M66 397q0 179 77 323t216 226t313 82q207 0 334 -116t127 -306q0 -179 -77.5 -323t-217 -226t-314.5 -82q-207 0 -332.5 116.5t-125.5 305.5zM332 418q0 -108 60 -173t159 -65q135 0 225 116.5t90 289.5q0 107 -59.5 172t-159.5 65q-135 0 -225 -116t-90 -289zM379 1229
l295 233h157l213 -250l-122 -112l-187 184l-260 -190z" />
    <glyph glyph-name="otilde" unicode="&#xf5;" horiz-adv-x="1198" 
d="M66 397q0 179 77 323t216 226t313 82q207 0 334 -116t127 -306q0 -179 -77.5 -323t-217 -226t-314.5 -82q-207 0 -332.5 116.5t-125.5 305.5zM332 418q0 -108 60 -173t159 -65q135 0 225 116.5t90 289.5q0 107 -59.5 172t-159.5 65q-135 0 -225 -116t-90 -289zM616 1415
q47 0 90.5 -18t79.5 -36t66 -18q29 0 53.5 19.5t36.5 52.5l150 -49q-31 -93 -95.5 -147t-148.5 -54q-59 0 -131 36t-105 36q-29 0 -52.5 -19.5t-37.5 -52.5l-147 49q30 93 93.5 147t147.5 54z" />
    <glyph glyph-name="odieresis" unicode="&#xf6;" horiz-adv-x="1198" 
d="M66 397q0 179 77 323t216 226t313 82q207 0 334 -116t127 -306q0 -179 -77.5 -323t-217 -226t-314.5 -82q-207 0 -332.5 116.5t-125.5 305.5zM332 418q0 -108 60 -173t159 -65q135 0 225 116.5t90 289.5q0 107 -59.5 172t-159.5 65q-135 0 -225 -116t-90 -289zM819 1270
q0 68 46.5 115t115.5 47q54 0 87.5 -33.5t33.5 -87.5q0 -69 -47 -115.5t-115 -46.5q-54 0 -87.5 33.5t-33.5 87.5zM362 1270q0 68 47 115t115 47q54 0 87.5 -33.5t33.5 -87.5q0 -69 -46.5 -115.5t-115.5 -46.5q-54 0 -87.5 33.5t-33.5 87.5z" />
    <glyph glyph-name="divide" unicode="&#xf7;" 
d="M102 489v201h1002v-201h-1002zM465 983q0 61 38.5 100t100.5 39q61 0 99 -37t38 -102q0 -61 -38.5 -100t-98.5 -39q-62 0 -100.5 39t-38.5 100zM465 197q0 61 38.5 100t100.5 39q60 0 98.5 -39t38.5 -100t-38.5 -100.5t-98.5 -39.5q-61 0 -100 39t-39 101z" />
    <glyph glyph-name="oslash" unicode="&#xf8;" horiz-adv-x="1198" 
d="M66 397q0 179 77 323t216 226t313 82q142 0 256 -70l106 115l96 -90l-94 -102q97 -114 97 -275q0 -179 -77.5 -323t-217 -226t-314.5 -82q-150 0 -256 70l-104 -113l-101 88l97 103q-94 111 -94 274zM551 170q146 0 241 118.5t95 297.5q0 55 -29 102l-438 -477
q53 -41 131 -41zM311 418q0 -58 25 -103l438 476q-53 43 -127 43q-146 0 -241 -118.5t-95 -297.5z" />
    <glyph glyph-name="ugrave" unicode="&#xf9;" horiz-adv-x="1198" 
d="M1153 1004l-178 -1004h-199l-8 139q-64 -77 -154 -120.5t-190 -43.5q-147 0 -240.5 89t-93.5 229q0 51 10 113l107 598h262l-104 -584q-7 -35 -7 -66q0 -75 46.5 -119.5t123.5 -44.5q98 0 169.5 68t90.5 176l103 570h262zM543 1497l360 -258l-104 -143l-373 239z" />
    <glyph glyph-name="uacute" unicode="&#xfa;" horiz-adv-x="1198" 
d="M1153 1004l-178 -1004h-199l-8 139q-64 -77 -154 -120.5t-190 -43.5q-147 0 -240.5 89t-93.5 229q0 51 10 113l107 598h262l-104 -584q-7 -35 -7 -66q0 -75 46.5 -119.5t123.5 -44.5q98 0 169.5 68t90.5 176l103 570h262zM1065 1325l-416 -229l-86 143l395 260z" />
    <glyph glyph-name="ucircumflex" unicode="&#xfb;" horiz-adv-x="1198" 
d="M1153 1004l-178 -1004h-199l-8 139q-64 -77 -154 -120.5t-190 -43.5q-147 0 -240.5 89t-93.5 229q0 51 10 113l107 598h262l-104 -584q-7 -35 -7 -66q0 -75 46.5 -119.5t123.5 -44.5q98 0 169.5 68t90.5 176l103 570h262zM379 1229l295 233h157l213 -250l-122 -112
l-187 184l-260 -190z" />
    <glyph glyph-name="udieresis" unicode="&#xfc;" horiz-adv-x="1198" 
d="M1153 1004l-178 -1004h-199l-8 139q-64 -77 -154 -120.5t-190 -43.5q-147 0 -240.5 89t-93.5 229q0 51 10 113l107 598h262l-104 -584q-7 -35 -7 -66q0 -75 46.5 -119.5t123.5 -44.5q98 0 169.5 68t90.5 176l103 570h262zM819 1270q0 68 46.5 115t115.5 47
q54 0 87.5 -33.5t33.5 -87.5q0 -69 -47 -115.5t-115 -46.5q-54 0 -87.5 33.5t-33.5 87.5zM362 1270q0 68 47 115t115 47q54 0 87.5 -33.5t33.5 -87.5q0 -69 -46.5 -115.5t-115.5 -46.5q-54 0 -87.5 33.5t-33.5 87.5z" />
    <glyph glyph-name="yacute" unicode="&#xfd;" horiz-adv-x="1083" 
d="M1157 1004l-663 -1154q-88 -155 -187.5 -228t-222.5 -73q-81 0 -160 23l49 203q59 -17 105 -17q60 0 106.5 36t91.5 114l60 106l-234 990h258l140 -695l379 695h278zM991 1325l-416 -229l-86 143l396 260z" />
    <glyph glyph-name="thorn" unicode="&#xfe;" horiz-adv-x="1198" 
d="M-29 -426l328 1868h260l-92 -539q113 125 287 125t276.5 -109t102.5 -296q0 -280 -149.5 -464t-377.5 -184q-91 0 -164.5 40t-111.5 110l-97 -551h-262zM866 592q0 98 -56.5 159.5t-147.5 61.5q-95 0 -168 -63.5t-91 -167.5l-22 -131q-6 -60 -6 -64q0 -87 53 -142
t137 -55q131 0 216 113.5t85 288.5z" />
    <glyph glyph-name="ydieresis" unicode="&#xff;" horiz-adv-x="1083" 
d="M1157 1004l-663 -1154q-88 -155 -187.5 -228t-222.5 -73q-81 0 -160 23l49 203q59 -17 105 -17q60 0 106.5 36t91.5 114l60 106l-234 990h258l140 -695l379 695h278zM745 1270q0 68 46.5 115t115.5 47q54 0 87.5 -33.5t33.5 -87.5q0 -69 -47 -115.5t-115 -46.5
q-54 0 -87.5 33.5t-33.5 87.5zM289 1270q0 68 47.5 115t114.5 47q54 0 87 -33.5t33 -87.5q0 -69 -46 -115.5t-115 -46.5q-54 0 -87.5 33.5t-33.5 87.5z" />
    <glyph glyph-name="Amacron" unicode="&#x100;" horiz-adv-x="1378" 
d="M-84 0l803 1376h252l315 -1376h-258l-70 328h-579l-184 -328h-279zM805 1087l-318 -561h435zM545 1573l30 178h642l-33 -178h-639z" />
    <glyph glyph-name="amacron" unicode="&#x101;" horiz-adv-x="1144" 
d="M35 266q0 165 131.5 262t355.5 97q103 0 211 -21l8 49q4 24 4 37q0 64 -49 104t-133 40q-141 0 -315 -58l-45 185q223 67 411 67q170 0 273.5 -86t103.5 -227q0 -43 -6 -78l-70 -381q-4 -20 -4 -31q0 -23 16 -37t44 -14q17 0 41 4l4 -188q-81 -15 -133 -15
q-78 0 -132 33.5t-73 93.5q-130 -127 -318 -127q-142 0 -233.5 83t-91.5 208zM287 301q0 -65 42.5 -103t116.5 -38q94 0 162.5 61.5t85.5 161.5l13 70q-81 20 -172 20q-113 0 -180.5 -47.5t-67.5 -124.5zM346 1200l31 178h641l-33 -178h-639z" />
    <glyph glyph-name="Abreve" unicode="&#x102;" horiz-adv-x="1378" 
d="M-84 0l803 1376h252l315 -1376h-258l-70 328h-579l-184 -328h-279zM805 1087l-318 -561h435zM573 1802h164q-10 -67 27.5 -108t109.5 -41q74 0 128 40.5t67 108.5h174q-26 -153 -130 -241t-253 -88q-129 0 -210 74t-81 196q0 27 4 59z" />
    <glyph glyph-name="abreve" unicode="&#x103;" horiz-adv-x="1144" 
d="M35 266q0 165 131.5 262t355.5 97q103 0 211 -21l8 49q4 24 4 37q0 64 -49 104t-133 40q-141 0 -315 -58l-45 185q223 67 411 67q170 0 273.5 -86t103.5 -227q0 -43 -6 -78l-70 -381q-4 -20 -4 -31q0 -23 16 -37t44 -14q17 0 41 4l4 -188q-81 -15 -133 -15
q-78 0 -132 33.5t-73 93.5q-130 -127 -318 -127q-142 0 -233.5 83t-91.5 208zM287 301q0 -65 42.5 -103t116.5 -38q94 0 162.5 61.5t85.5 161.5l13 70q-81 20 -172 20q-113 0 -180.5 -47.5t-67.5 -124.5zM375 1430h164q-10 -67 27.5 -108.5t109.5 -41.5q74 0 127.5 40.5
t66.5 109.5h174q-26 -153 -129.5 -241.5t-252.5 -88.5q-129 0 -210 74t-81 196q0 28 4 60z" />
    <glyph glyph-name="Aogonek" unicode="&#x104;" horiz-adv-x="1378" 
d="M-84 0l803 1376h252l315 -1376q-98 -63 -152.5 -127t-54.5 -117q0 -32 21.5 -51.5t54.5 -19.5q30 0 66 8l26 -144q-83 -22 -168 -22q-92 0 -147 49t-55 129q0 76 55.5 153t157.5 142h-62l-70 328h-579l-184 -328h-279zM805 1087l-318 -561h435z" />
    <glyph glyph-name="aogonek" unicode="&#x105;" horiz-adv-x="1144" 
d="M35 266q0 165 131.5 262t355.5 97q103 0 211 -21l8 49q4 24 4 37q0 64 -49 104t-133 40q-141 0 -315 -58l-45 185q223 67 411 67q170 0 273.5 -86t103.5 -227q0 -43 -6 -78l-70 -381q-4 -20 -4 -31q0 -23 16 -37t44 -14q17 0 41 4l4 -188q-99 -62 -153 -122.5t-54 -111.5
q0 -32 21.5 -51.5t54.5 -19.5q34 0 67 10l25 -146q-83 -22 -168 -22q-91 0 -147 49t-56 129q0 72 52.5 145t148.5 136q-101 25 -129 116q-130 -127 -318 -127q-142 0 -233.5 83t-91.5 208zM287 301q0 -65 42.5 -103t116.5 -38q94 0 162.5 61.5t85.5 161.5l13 70
q-81 20 -172 20q-113 0 -180.5 -47.5t-67.5 -124.5z" />
    <glyph glyph-name="Cacute" unicode="&#x106;" horiz-adv-x="1314" 
d="M100 535q0 184 60 345t165 275.5t254.5 180t321.5 65.5q256 0 475 -150l-127 -186q-171 119 -342 119q-116 0 -215 -47t-167.5 -129.5t-107 -196.5t-38.5 -246q0 -168 107 -270t276 -102q173 0 356 108l86 -186q-229 -140 -495 -140q-268 0 -438.5 154.5t-170.5 405.5z
M1288 1698l-416 -230l-86 144l396 260z" />
    <glyph glyph-name="cacute" unicode="&#x107;" horiz-adv-x="1007" 
d="M66 397q0 178 77.5 322.5t215.5 226.5t309 82q190 0 364 -108l-121 -183q-125 82 -237 82q-149 0 -245.5 -112.5t-96.5 -282.5q0 -107 68.5 -173.5t177.5 -66.5q116 0 249 78l80 -180q-188 -107 -385 -107q-201 0 -328.5 117.5t-127.5 304.5zM1036 1325l-415 -229
l-86 143l395 260z" />
    <glyph glyph-name="Ccircumflex" unicode="&#x108;" horiz-adv-x="1314" 
d="M100 535q0 184 60 345t165 275.5t254.5 180t321.5 65.5q256 0 475 -150l-127 -186q-171 119 -342 119q-116 0 -215 -47t-167.5 -129.5t-107 -196.5t-38.5 -246q0 -168 107 -270t276 -102q173 0 356 108l86 -186q-229 -140 -495 -140q-268 0 -438.5 154.5t-170.5 405.5z
M602 1602l295 233h158l213 -250l-123 -112l-187 184l-260 -191z" />
    <glyph glyph-name="ccircumflex" unicode="&#x109;" horiz-adv-x="1007" 
d="M66 397q0 178 77.5 322.5t215.5 226.5t309 82q190 0 364 -108l-121 -183q-125 82 -237 82q-149 0 -245.5 -112.5t-96.5 -282.5q0 -107 68.5 -173.5t177.5 -66.5q116 0 249 78l80 -180q-188 -107 -385 -107q-201 0 -328.5 117.5t-127.5 304.5zM350 1229l295 233h158
l213 -250l-123 -112l-186 184l-261 -190z" />
    <glyph glyph-name="Cdotaccent" unicode="&#x10a;" horiz-adv-x="1314" 
d="M100 535q0 184 60 345t165 275.5t254.5 180t321.5 65.5q256 0 475 -150l-127 -186q-171 119 -342 119q-116 0 -215 -47t-167.5 -129.5t-107 -196.5t-38.5 -246q0 -168 107 -270t276 -102q173 0 356 108l86 -186q-229 -140 -495 -140q-268 0 -438.5 154.5t-170.5 405.5z
M803 1640q0 74 50.5 124.5t123.5 50.5q58 0 94.5 -36.5t36.5 -95.5q0 -72 -50.5 -122t-123.5 -50q-59 0 -95 35.5t-36 93.5z" />
    <glyph glyph-name="cdotaccent" unicode="&#x10b;" horiz-adv-x="1007" 
d="M66 397q0 178 77.5 322.5t215.5 226.5t309 82q190 0 364 -108l-121 -183q-125 82 -237 82q-149 0 -245.5 -112.5t-96.5 -282.5q0 -107 68.5 -173.5t177.5 -66.5q116 0 249 78l80 -180q-188 -107 -385 -107q-201 0 -328.5 117.5t-127.5 304.5zM551 1268q0 74 50.5 124
t123.5 50q59 0 95 -36t36 -95q0 -72 -50.5 -122t-123.5 -50q-59 0 -95 35.5t-36 93.5z" />
    <glyph glyph-name="Ccaron" unicode="&#x10c;" horiz-adv-x="1314" 
d="M100 535q0 184 60 345t165 275.5t254.5 180t321.5 65.5q256 0 475 -150l-127 -186q-171 119 -342 119q-116 0 -215 -47t-167.5 -129.5t-107 -196.5t-38.5 -246q0 -168 107 -270t276 -102q173 0 356 108l86 -186q-229 -140 -495 -140q-268 0 -438.5 154.5t-170.5 405.5z
M1307 1722l-293 -233h-158l-213 252l123 112l184 -184l262 191z" />
    <glyph glyph-name="ccaron" unicode="&#x10d;" horiz-adv-x="1007" 
d="M66 397q0 178 77.5 322.5t215.5 226.5t309 82q190 0 364 -108l-121 -183q-125 82 -237 82q-149 0 -245.5 -112.5t-96.5 -282.5q0 -107 68.5 -173.5t177.5 -66.5q116 0 249 78l80 -180q-188 -107 -385 -107q-201 0 -328.5 117.5t-127.5 304.5zM1055 1350l-293 -234h-158
l-213 252l123 113l184 -185l263 191z" />
    <glyph glyph-name="Dcaron" unicode="&#x10e;" horiz-adv-x="1460" 
d="M84 0l242 1376h477q287 0 454.5 -152t167.5 -413q0 -239 -101 -423.5t-283.5 -286t-417.5 -101.5h-539zM1147 791q0 174 -107.5 275t-294.5 101h-184l-168 -958h225q232 0 380.5 163t148.5 419zM1184 1722l-293 -233h-158l-213 252l123 112l184 -184l263 191z" />
    <glyph glyph-name="dcaron" unicode="&#x10f;" horiz-adv-x="1390" 
d="M1229 1442l-254 -1442h-199l-10 121q-137 -146 -324 -146q-172 0 -274 110t-102 296q0 184 67 332t187 231.5t270 83.5q92 0 165 -39t113 -110l99 563h262zM332 412q0 -98 57 -160t148 -62q95 0 166 64t90 170l22 129q6 30 6 63q0 88 -52.5 142.5t-135.5 54.5
q-131 0 -216 -113t-85 -288zM1624 1448l-207 -358l-157 71l182 367z" />
    <glyph glyph-name="Dcroat" unicode="&#x110;" horiz-adv-x="1492" 
d="M117 0l104 604h-160l37 201h160l100 571h461q295 0 467 -150.5t172 -408.5q0 -177 -60.5 -329.5t-167 -259.5t-257 -167.5t-324.5 -60.5h-532zM1180 791q0 177 -107.5 276.5t-300.5 99.5h-178l-64 -362h289l-35 -201h-288l-72 -395h221q235 0 385 163t150 419z" />
    <glyph glyph-name="dcroat" unicode="&#x111;" horiz-adv-x="1202" 
d="M1229 1442l-25 -133h123l-31 -181h-122l-199 -1128h-199l-10 121q-137 -146 -324 -146q-172 0 -274 110t-102 296q0 184 67 332t187 231.5t270 83.5q92 0 165 -39t113 -110l43 249h-329l30 181h330l25 133h262zM332 412q0 -98 57 -160t148 -62q95 0 166 64t90 170l22 129
q6 30 6 63q0 88 -52.5 142.5t-135.5 54.5q-131 0 -216 -113t-85 -288z" />
    <glyph glyph-name="Emacron" unicode="&#x112;" horiz-adv-x="1216" 
d="M84 0l242 1376h921l-35 -205h-649l-65 -366h583l-34 -201h-584l-70 -399h682l-37 -205h-954zM489 1573l31 178h641l-33 -178h-639z" />
    <glyph glyph-name="emacron" unicode="&#x113;" horiz-adv-x="1112" 
d="M1036 432h-714q-2 -19 2 -61q12 -90 82 -145.5t172 -55.5q131 0 278 86l80 -172q-204 -109 -399 -109q-213 0 -342 116t-129 306q0 275 165 453t420 178q180 0 296 -113.5t116 -291.5q0 -92 -27 -191zM625 834q-97 0 -175 -67.5t-106 -176.5h471q4 38 2 57
q-5 84 -56.5 135.5t-135.5 51.5zM379 1200l31 178h641l-33 -178h-639z" />
    <glyph glyph-name="Ebreve" unicode="&#x114;" horiz-adv-x="1216" 
d="M84 0l242 1376h921l-35 -205h-649l-65 -366h583l-34 -201h-584l-70 -399h682l-37 -205h-954zM518 1802h164q-10 -67 27.5 -108t109.5 -41q74 0 128 40.5t67 108.5h174q-26 -153 -130 -241t-253 -88q-129 0 -210 74t-81 196q0 27 4 59z" />
    <glyph glyph-name="ebreve" unicode="&#x115;" horiz-adv-x="1112" 
d="M1036 432h-714q-2 -19 2 -61q12 -90 82 -145.5t172 -55.5q131 0 278 86l80 -172q-204 -109 -399 -109q-213 0 -342 116t-129 306q0 275 165 453t420 178q180 0 296 -113.5t116 -291.5q0 -92 -27 -191zM625 834q-97 0 -175 -67.5t-106 -176.5h471q4 38 2 57
q-5 84 -56.5 135.5t-135.5 51.5zM408 1430h163q-10 -67 28 -108.5t110 -41.5q74 0 127.5 40.5t66.5 109.5h174q-26 -153 -130 -241.5t-253 -88.5q-129 0 -210 74t-81 196q0 20 5 60z" />
    <glyph glyph-name="Edotaccent" unicode="&#x116;" horiz-adv-x="1216" 
d="M84 0l242 1376h921l-35 -205h-649l-65 -366h583l-34 -201h-584l-70 -399h682l-37 -205h-954zM672 1640q0 74 50.5 124.5t123.5 50.5q58 0 94.5 -36.5t36.5 -95.5q0 -72 -50.5 -122t-123.5 -50q-59 0 -95 35.5t-36 93.5z" />
    <glyph glyph-name="edotaccent" unicode="&#x117;" horiz-adv-x="1112" 
d="M1036 432h-714q-2 -19 2 -61q12 -90 82 -145.5t172 -55.5q131 0 278 86l80 -172q-204 -109 -399 -109q-213 0 -342 116t-129 306q0 275 165 453t420 178q180 0 296 -113.5t116 -291.5q0 -92 -27 -191zM625 834q-97 0 -175 -67.5t-106 -176.5h471q4 38 2 57
q-5 84 -56.5 135.5t-135.5 51.5zM561 1268q0 74 50.5 124t123.5 50q59 0 95 -36t36 -95q0 -72 -50.5 -122t-123.5 -50q-59 0 -95 35.5t-36 93.5z" />
    <glyph glyph-name="Eogonek" unicode="&#x118;" horiz-adv-x="1216" 
d="M84 0l242 1376h921l-35 -205h-649l-65 -366h583l-34 -201h-584l-70 -399h682l-37 -205q-98 -63 -152.5 -127t-54.5 -117q0 -32 21.5 -51.5t54.5 -19.5q30 0 66 8l26 -144q-83 -22 -168 -22q-92 0 -147 49t-55 129q0 76 55.5 153t157.5 142h-758z" />
    <glyph glyph-name="eogonek" unicode="&#x119;" horiz-adv-x="1112" 
d="M1036 432h-714q-2 -19 2 -61q12 -90 82 -145.5t172 -55.5q131 0 278 86l80 -172q-106 -75 -170 -161t-64 -152q0 -40 21.5 -63t56.5 -23q28 0 64 8l26 -144q-83 -22 -163 -22q-94 0 -151.5 51.5t-57.5 134.5q0 69 45 141t125 134q-73 -13 -131 -13q-213 0 -342 116
t-129 306q0 275 165 453t420 178q180 0 296 -113.5t116 -291.5q0 -92 -27 -191zM625 834q-97 0 -175 -67.5t-106 -176.5h471q4 38 2 57q-5 84 -56.5 135.5t-135.5 51.5z" />
    <glyph glyph-name="Ecaron" unicode="&#x11a;" horiz-adv-x="1216" 
d="M84 0l242 1376h921l-35 -205h-649l-65 -366h583l-34 -201h-584l-70 -399h682l-37 -205h-954zM1176 1722l-293 -233h-158l-213 252l123 112l184 -184l262 191z" />
    <glyph glyph-name="ecaron" unicode="&#x11b;" horiz-adv-x="1112" 
d="M1036 432h-714q-2 -19 2 -61q12 -90 82 -145.5t172 -55.5q131 0 278 86l80 -172q-204 -109 -399 -109q-213 0 -342 116t-129 306q0 275 165 453t420 178q180 0 296 -113.5t116 -291.5q0 -92 -27 -191zM625 834q-97 0 -175 -67.5t-106 -176.5h471q4 38 2 57
q-5 84 -56.5 135.5t-135.5 51.5zM1065 1350l-293 -234h-158l-213 252l123 113l185 -185l262 191z" />
    <glyph glyph-name="Gcircumflex" unicode="&#x11c;" horiz-adv-x="1443" 
d="M1352 760l-121 -682q-239 -103 -494 -103q-289 0 -463 155t-174 411q0 244 103.5 440.5t288.5 308t417 111.5q255 0 498 -135l-115 -187q-204 113 -377 113q-160 0 -285 -80.5t-193 -222t-68 -320.5q0 -175 113 -281t298 -106q118 0 226 43l59 334h-293l35 201h545z
M621 1602l294 233h158l213 -250l-123 -112l-186 184l-260 -191z" />
    <glyph glyph-name="gcircumflex" unicode="&#x11d;" horiz-adv-x="1198" 
d="M332 412q0 -98 57 -160t148 -62q96 0 166.5 64t89.5 170l22 129q6 30 6 63q0 88 -52.5 142.5t-135.5 54.5q-131 0 -216 -113t-85 -288zM1153 1004l-180 -1018q-37 -204 -184 -320.5t-367 -116.5q-99 0 -215 26.5t-223 74.5l88 194q188 -90 340 -90q119 0 200 61.5
t101 172.5l18 112q-113 -125 -289 -125q-172 0 -274 110t-102 296q0 184 67 332t187 231.5t270 83.5q94 0 170.5 -42.5t116.5 -117.5l57 136h219zM379 1229l295 233h157l213 -250l-122 -112l-187 184l-260 -190z" />
    <glyph glyph-name="Gbreve" unicode="&#x11e;" horiz-adv-x="1443" 
d="M1352 760l-121 -682q-239 -103 -494 -103q-289 0 -463 155t-174 411q0 244 103.5 440.5t288.5 308t417 111.5q255 0 498 -135l-115 -187q-204 113 -377 113q-160 0 -285 -80.5t-193 -222t-68 -320.5q0 -175 113 -281t298 -106q118 0 226 43l59 334h-293l35 201h545z
M668 1802h163q-10 -67 28 -108t110 -41q74 0 127.5 40.5t66.5 108.5h174q-26 -153 -130 -241t-253 -88q-129 0 -209.5 74t-80.5 196q0 27 4 59z" />
    <glyph glyph-name="gbreve" unicode="&#x11f;" horiz-adv-x="1198" 
d="M332 412q0 -98 57 -160t148 -62q96 0 166.5 64t89.5 170l22 129q6 30 6 63q0 88 -52.5 142.5t-135.5 54.5q-131 0 -216 -113t-85 -288zM1153 1004l-180 -1018q-37 -204 -184 -320.5t-367 -116.5q-99 0 -215 26.5t-223 74.5l88 194q188 -90 340 -90q119 0 200 61.5
t101 172.5l18 112q-113 -125 -289 -125q-172 0 -274 110t-102 296q0 184 67 332t187 231.5t270 83.5q94 0 170.5 -42.5t116.5 -117.5l57 136h219zM426 1430h164q-10 -67 27.5 -108.5t109.5 -41.5q74 0 128 41t67 109h174q-26 -153 -130 -241.5t-253 -88.5q-129 0 -210 74
t-81 196q0 28 4 60z" />
    <glyph glyph-name="Gdotaccent" unicode="&#x120;" horiz-adv-x="1443" 
d="M1352 760l-121 -682q-239 -103 -494 -103q-289 0 -463 155t-174 411q0 244 103.5 440.5t288.5 308t417 111.5q255 0 498 -135l-115 -187q-204 113 -377 113q-160 0 -285 -80.5t-193 -222t-68 -320.5q0 -175 113 -281t298 -106q118 0 226 43l59 334h-293l35 201h545z
M821 1640q0 74 50.5 124.5t123.5 50.5q58 0 94.5 -36.5t36.5 -95.5q0 -72 -50.5 -122t-123.5 -50q-59 0 -95 35.5t-36 93.5z" />
    <glyph glyph-name="gdotaccent" unicode="&#x121;" horiz-adv-x="1198" 
d="M332 412q0 -98 57 -160t148 -62q96 0 166.5 64t89.5 170l22 129q6 30 6 63q0 88 -52.5 142.5t-135.5 54.5q-131 0 -216 -113t-85 -288zM1153 1004l-180 -1018q-37 -204 -184 -320.5t-367 -116.5q-99 0 -215 26.5t-223 74.5l88 194q188 -90 340 -90q119 0 200 61.5
t101 172.5l18 112q-113 -125 -289 -125q-172 0 -274 110t-102 296q0 184 67 332t187 231.5t270 83.5q94 0 170.5 -42.5t116.5 -117.5l57 136h219zM580 1268q0 74 50 124t124 50q58 0 94.5 -36t36.5 -95q0 -72 -50.5 -122t-123.5 -50q-59 0 -95 35.5t-36 93.5z" />
    <glyph glyph-name="Gcommaaccent" unicode="&#x122;" horiz-adv-x="1443" 
d="M1352 760l-121 -682q-239 -103 -494 -103q-289 0 -463 155t-174 411q0 244 103.5 440.5t288.5 308t417 111.5q255 0 498 -135l-115 -187q-204 113 -377 113q-160 0 -285 -80.5t-193 -222t-68 -320.5q0 -175 113 -281t298 -106q118 0 226 43l59 334h-293l35 201h545z
M504 -266q0 69 46.5 115.5t115.5 46.5q57 0 91 -40t34 -106q0 -100 -76 -203.5t-207 -177.5l-59 92q114 78 151 172q-43 0 -69.5 28.5t-26.5 72.5z" />
    <glyph glyph-name="gcommaaccent" unicode="&#x123;" horiz-adv-x="1198" 
d="M332 412q0 -98 57 -160t148 -62q96 0 166.5 64t89.5 170l22 129q6 30 6 63q0 88 -52.5 142.5t-135.5 54.5q-131 0 -216 -113t-85 -288zM1153 1004l-180 -1018q-37 -204 -184 -320.5t-367 -116.5q-99 0 -215 26.5t-223 74.5l88 194q188 -90 340 -90q119 0 200 61.5
t101 172.5l18 112q-113 -125 -289 -125q-172 0 -274 110t-102 296q0 184 67 332t187 231.5t270 83.5q94 0 170.5 -42.5t116.5 -117.5l57 136h219zM868 1270q0 -69 -46 -115.5t-115 -46.5q-57 0 -92 39.5t-35 105.5q0 101 76 203.5t206 177.5l62 -92q-118 -79 -152 -172
q42 0 69 -28t27 -72z" />
    <glyph glyph-name="Hcircumflex" unicode="&#x124;" horiz-adv-x="1542" 
d="M84 0l242 1376h272l-98 -567h651l100 567h273l-242 -1376h-272l104 600h-651l-107 -600h-272zM616 1602l295 233h158l213 -250l-123 -112l-186 184l-260 -191z" />
    <glyph glyph-name="hcircumflex" unicode="&#x125;" horiz-adv-x="1230" 
d="M45 0l254 1442h262l-96 -549q60 64 140.5 99.5t166.5 35.5q149 0 242.5 -88t93.5 -229q0 -51 -10 -113l-107 -598h-262l102 584q9 45 9 67q0 75 -46.5 118.5t-123.5 43.5q-98 0 -170.5 -68t-91.5 -176l-101 -569h-262zM123 1667l295 234h157l213 -250l-122 -113l-187 184
l-260 -190z" />
    <glyph glyph-name="Hbar" unicode="&#x126;" horiz-adv-x="1542" 
d="M1589 1030h-127l-180 -1030h-272l104 600h-651l-107 -600h-272l180 1030h-127l31 180h129l29 166h272l-29 -166h652l30 166h273l-29 -166h127zM500 809h651l39 221h-653z" />
    <glyph glyph-name="hbar" unicode="&#x127;" horiz-adv-x="1198" 
d="M45 0l199 1128h-121l31 181h120l25 133h262l-24 -133h331l-30 -181h-332l-41 -235q60 64 140.5 99.5t166.5 35.5q149 0 242.5 -88t93.5 -229q0 -51 -10 -113l-107 -598h-262l102 584q9 45 9 67q0 75 -46.5 118.5t-123.5 43.5q-98 0 -170.5 -68t-91.5 -176l-101 -569h-262
z" />
    <glyph glyph-name="Itilde" unicode="&#x128;" horiz-adv-x="618" 
d="M84 0l242 1376h272l-242 -1376h-272zM391 1788q47 0 90.5 -18t79.5 -36t66 -18q29 0 53.5 19.5t36.5 52.5l149 -49q-31 -93 -95 -147t-148 -54q-59 0 -131 36t-105 36q-29 0 -52.5 -19.5t-37.5 -52.5l-147 49q30 93 93.5 147t147.5 54z" />
    <glyph glyph-name="itilde" unicode="&#x129;" horiz-adv-x="530" 
d="M45 0l178 1004h262l-178 -1004h-262zM283 1415q47 0 90 -18t79 -36t66 -18q29 0 53.5 19.5t36.5 52.5l150 -49q-31 -93 -95.5 -147t-148.5 -54q-59 0 -130.5 36t-104.5 36q-29 0 -53 -19.5t-38 -52.5l-147 49q30 93 94 147t148 54z" />
    <glyph glyph-name="Imacron" unicode="&#x12a;" horiz-adv-x="618" 
d="M84 0l242 1376h272l-242 -1376h-272zM172 1573l31 178h641l-33 -178h-639z" />
    <glyph glyph-name="imacron" unicode="&#x12b;" horiz-adv-x="530" 
d="M45 0l178 1004h262l-178 -1004h-262zM63 1200l31 178h641l-33 -178h-639z" />
    <glyph glyph-name="Ibreve" unicode="&#x12c;" horiz-adv-x="618" 
d="M84 0l242 1376h272l-242 -1376h-272zM201 1802h164q-10 -67 27.5 -108t109.5 -41q74 0 127.5 40.5t66.5 108.5h174q-26 -153 -130 -241t-253 -88q-129 0 -209.5 74t-80.5 196q0 27 4 59z" />
    <glyph glyph-name="ibreve" unicode="&#x12d;" horiz-adv-x="530" 
d="M45 0l178 1004h262l-178 -1004h-262zM92 1430h164q-10 -67 27.5 -108.5t109.5 -41.5q74 0 128 41t67 109h174q-26 -153 -130 -241.5t-253 -88.5q-129 0 -210 74t-81 196q0 28 4 60z" />
    <glyph glyph-name="Iogonek" unicode="&#x12e;" horiz-adv-x="618" 
d="M598 1376l-242 -1376q-98 -63 -152 -127t-54 -117q0 -32 21 -51.5t54 -19.5q30 0 66 8l26 -144q-83 -22 -167 -22q-92 0 -147.5 49t-55.5 129q0 76 55.5 153t157.5 142h-76l242 1376h272z" />
    <glyph glyph-name="iogonek" unicode="&#x12f;" horiz-adv-x="530" 
d="M485 1004l-178 -1004q-98 -63 -152.5 -127t-54.5 -117q0 -32 21.5 -51.5t54.5 -19.5q30 0 66 8l26 -144q-83 -22 -168 -22q-92 0 -147 49t-55 129q0 76 56 153t157 142h-66l178 1004h262zM242 1268q0 75 52.5 127.5t127.5 52.5q60 0 97.5 -37.5t37.5 -97.5
q0 -76 -52.5 -128t-127.5 -52q-60 0 -97.5 37.5t-37.5 97.5z" />
    <glyph glyph-name="Idotaccent" unicode="&#x130;" horiz-adv-x="618" 
d="M84 0l242 1376h272l-242 -1376h-272zM354 1640q0 74 50.5 124.5t123.5 50.5q58 0 94.5 -36.5t36.5 -95.5q0 -72 -50.5 -122t-123.5 -50q-59 0 -95 35.5t-36 93.5z" />
    <glyph glyph-name="dotlessi" unicode="&#x131;" horiz-adv-x="530" 
d="M45 0l178 1004h262l-178 -1004h-262z" />
    <glyph glyph-name="IJ" unicode="&#x132;" horiz-adv-x="1544" 
d="M84 0l242 1376h272l-242 -1376h-272zM1526 1376l-180 -1024q-31 -173 -153 -275t-304 -102q-141 0 -314 64l78 201q118 -43 205 -43t147.5 51.5t75.5 138.5l172 989h273z" />
    <glyph glyph-name="ij" unicode="&#x133;" horiz-adv-x="1077" 
d="M45 0l178 1004h262l-178 -1004h-262zM242 1268q0 75 52.5 127.5t127.5 52.5q60 0 97.5 -37.5t37.5 -97.5q0 -76 -52.5 -128t-127.5 -52q-60 0 -97.5 37.5t-37.5 97.5zM1032 1004l-207 -1160q-23 -135 -121.5 -215t-242.5 -80q-100 0 -246 48l78 192q95 -31 137 -31
q54 0 93 33.5t48 87.5l199 1125h262zM788 1268q0 75 53 127.5t128 52.5q60 0 97.5 -37.5t37.5 -97.5q0 -76 -52.5 -128t-127.5 -52q-60 0 -98 37.5t-38 97.5z" />
    <glyph glyph-name="Jcircumflex" unicode="&#x134;" horiz-adv-x="925" 
d="M907 1376l-180 -1024q-31 -173 -153 -275t-304 -102q-140 0 -313 64l78 201q118 -43 205 -43t147.5 51.5t75.5 138.5l172 989h272zM463 1602l295 233h157l213 -250l-122 -112l-187 184l-260 -191z" />
    <glyph glyph-name="jcircumflex" unicode="&#x135;" horiz-adv-x="546" 
d="M502 1004l-207 -1160q-23 -135 -121.5 -215t-243.5 -80q-99 0 -245 48l77 192q95 -31 138 -31q54 0 93 33.5t48 87.5l199 1125h262zM61 1229l295 233h158l213 -250l-123 -112l-186 184l-260 -190z" />
    <glyph glyph-name="Kcommaaccent" unicode="&#x136;" horiz-adv-x="1378" 
d="M84 0l242 1376h262l-111 -626l705 626h319l-715 -639l492 -737h-301l-385 586l-166 -146l-78 -440h-264zM434 -266q0 69 46.5 115.5t115.5 46.5q57 0 91 -40t34 -106q0 -100 -76 -203.5t-207 -177.5l-59 92q114 78 151 172q-43 0 -69.5 28.5t-26.5 72.5z" />
    <glyph glyph-name="kcommaaccent" unicode="&#x137;" horiz-adv-x="1071" 
d="M45 0l254 1442h252l-150 -852l447 414h301l-512 -469l340 -535h-285l-241 391l-101 -92l-53 -299h-252zM264 -266q0 69 46.5 115.5t115.5 46.5q57 0 91 -40t34 -106q0 -100 -76 -203.5t-207 -177.5l-59 92q114 78 151 172q-43 0 -69.5 28.5t-26.5 72.5z" />
    <glyph glyph-name="kgreenlandic" unicode="&#x138;" horiz-adv-x="1071" 
d="M45 0l178 1004h252l-74 -414l447 414h299l-510 -469l340 -535h-285l-241 391l-101 -92l-53 -299h-252z" />
    <glyph glyph-name="Lacute" unicode="&#x139;" horiz-adv-x="1085" 
d="M84 0l242 1376h272l-205 -1167h596l-37 -209h-868zM840 1698l-416 -230l-86 144l395 260z" />
    <glyph glyph-name="lacute" unicode="&#x13a;" horiz-adv-x="628" 
d="M561 1442l-203 -1143q-4 -28 -4 -41q0 -35 22.5 -54.5t59.5 -19.5q9 0 78 11l12 -201q-112 -19 -176 -19q-119 0 -190.5 65t-71.5 171q0 36 6 76l205 1155h262zM809 1763l-416 -229l-86 143l395 260z" />
    <glyph glyph-name="Lcommaaccent" unicode="&#x13b;" horiz-adv-x="1085" 
d="M84 0l242 1376h272l-205 -1167h596l-37 -209h-868zM338 -266q0 69 46.5 115.5t115.5 46.5q57 0 91 -40t34 -106q0 -100 -76 -203.5t-207 -177.5l-59 92q114 78 151 172q-43 0 -69.5 28.5t-26.5 72.5z" />
    <glyph glyph-name="lcommaaccent" unicode="&#x13c;" horiz-adv-x="628" 
d="M561 1442l-203 -1143q-4 -28 -4 -41q0 -35 22.5 -54.5t59.5 -19.5q9 0 78 11l12 -201q-112 -19 -176 -19q-119 0 -190.5 65t-71.5 171q0 36 6 76l205 1155h262zM88 -266q0 69 46.5 115.5t115.5 46.5q57 0 91 -40t34 -106q0 -100 -76 -203.5t-207 -177.5l-59 92
q114 78 151 172q-43 0 -69.5 28.5t-26.5 72.5z" />
    <glyph glyph-name="Lcaron" unicode="&#x13d;" horiz-adv-x="1085" 
d="M84 0l242 1376h272l-205 -1167h596l-37 -209h-868zM1042 1382l-206 -358l-158 72l182 366z" />
    <glyph glyph-name="lcaron" unicode="&#x13e;" horiz-adv-x="608" 
d="M561 1442l-203 -1143q-4 -28 -4 -41q0 -35 22.5 -54.5t59.5 -19.5q9 0 78 11l12 -201q-112 -19 -176 -19q-119 0 -190.5 65t-71.5 171q0 36 6 76l205 1155h262zM973 1448l-207 -358l-158 71l183 367z" />
    <glyph glyph-name="Ldot" unicode="&#x13f;" horiz-adv-x="1118" 
d="M84 0l242 1376h272l-205 -1167h596l-37 -209h-868zM758 709q0 73 50 123.5t124 50.5q58 0 94.5 -36.5t36.5 -94.5q0 -72 -50.5 -122t-123.5 -50q-59 0 -95 35.5t-36 93.5z" />
    <glyph glyph-name="ldot" unicode="&#x140;" horiz-adv-x="798" 
d="M547 682q0 74 50.5 124t123.5 50q59 0 95 -36t36 -95q0 -72 -50.5 -122t-123.5 -50q-59 0 -95 35.5t-36 93.5zM561 1442l-203 -1143q-4 -28 -4 -41q0 -35 22.5 -54.5t59.5 -19.5q9 0 78 11l12 -201q-112 -19 -176 -19q-119 0 -190.5 65t-71.5 171q0 36 6 76l205 1155h262
z" />
    <glyph glyph-name="Lslash" unicode="&#x141;" horiz-adv-x="1118" 
d="M117 0l92 520l-119 -51l-61 168l215 96l114 643h273l-90 -512l243 109l62 -168l-342 -154l-78 -442h596l-37 -209h-868z" />
    <glyph glyph-name="lslash" unicode="&#x142;" horiz-adv-x="694" 
d="M578 1442l-97 -545l174 80l62 -168l-273 -123l-69 -387q-4 -28 -4 -41q0 -35 22.5 -54.5t59.5 -19.5q8 0 77 11l13 -201q-112 -19 -176 -19q-119 0 -191 65t-72 171q0 29 7 76l49 274l-137 -63l-62 168l236 106l118 670h263z" />
    <glyph glyph-name="Nacute" unicode="&#x143;" horiz-adv-x="1542" 
d="M84 0l242 1376h258l514 -991l174 991h252l-242 -1376h-258l-514 991l-174 -991h-252zM1303 1698l-416 -230l-86 144l395 260z" />
    <glyph glyph-name="nacute" unicode="&#x144;" horiz-adv-x="1198" 
d="M45 0l178 1004h197l10 -140q64 77 153.5 120.5t188.5 43.5q149 0 242.5 -88t93.5 -229q0 -51 -10 -113l-107 -598h-262l102 584q9 45 9 67q0 75 -46.5 118.5t-123.5 43.5q-98 0 -170.5 -68t-91.5 -176l-101 -569h-262zM1065 1325l-416 -229l-86 143l395 260z" />
    <glyph glyph-name="Ncommaaccent" unicode="&#x145;" horiz-adv-x="1542" 
d="M84 0l242 1376h258l514 -991l174 991h252l-242 -1376h-258l-514 991l-174 -991h-252zM502 -266q0 69 46.5 115.5t115.5 46.5q57 0 90.5 -40t33.5 -106q0 -101 -75.5 -204t-206.5 -177l-60 92q115 79 152 172q-43 0 -69.5 28.5t-26.5 72.5z" />
    <glyph glyph-name="ncommaaccent" unicode="&#x146;" horiz-adv-x="1198" 
d="M45 0l178 1004h197l10 -140q64 77 153.5 120.5t188.5 43.5q149 0 242.5 -88t93.5 -229q0 -51 -10 -113l-107 -598h-262l102 584q9 45 9 67q0 75 -46.5 118.5t-123.5 43.5q-98 0 -170.5 -68t-91.5 -176l-101 -569h-262zM336 -266q0 69 46.5 115.5t115.5 46.5q57 0 91 -40
t34 -106q0 -100 -76 -203.5t-207 -177.5l-59 92q114 78 151 172q-43 0 -69.5 28.5t-26.5 72.5z" />
    <glyph glyph-name="Ncaron" unicode="&#x147;" horiz-adv-x="1542" 
d="M84 0l242 1376h258l514 -991l174 991h252l-242 -1376h-258l-514 991l-174 -991h-252zM1321 1722l-293 -233h-158l-213 252l123 112l185 -184l262 191z" />
    <glyph glyph-name="ncaron" unicode="&#x148;" horiz-adv-x="1198" 
d="M45 0l178 1004h197l10 -140q64 77 153.5 120.5t188.5 43.5q149 0 242.5 -88t93.5 -229q0 -51 -10 -113l-107 -598h-262l102 584q9 45 9 67q0 75 -46.5 118.5t-123.5 43.5q-98 0 -170.5 -68t-91.5 -176l-101 -569h-262zM1083 1350l-292 -234h-158l-213 252l123 113
l184 -185l262 191z" />
    <glyph glyph-name="napostrophe" unicode="&#x149;" horiz-adv-x="1542" 
d="M391 0l178 1004h197l10 -140q64 77 153.5 120.5t188.5 43.5q149 0 242.5 -88t93.5 -229q0 -51 -10 -113l-107 -598h-262l103 584q8 40 8 67q0 75 -46.5 118.5t-123.5 43.5q-98 0 -170.5 -68t-91.5 -176l-101 -569h-262zM207 1235q0 69 46.5 115.5t115.5 46.5q57 0 91 -40
t34 -106q0 -100 -76 -203.5t-207 -177.5l-59 93q114 78 151 172q-43 0 -69.5 28t-26.5 72z" />
    <glyph glyph-name="Eng" unicode="&#x14a;" horiz-adv-x="1542" 
d="M84 0l242 1376h258l514 -991l174 991h252l-242 -1376l-14 -74q-31 -173 -153 -275t-304 -102q-140 0 -313 64l77 201q118 -43 211 -43q88 0 147 46t77 124l12 63l-512 987l-174 -991h-252z" />
    <glyph glyph-name="eng" unicode="&#x14b;" horiz-adv-x="1198" 
d="M1098 598l-135 -754q-23 -135 -121.5 -215t-243.5 -80q-100 0 -246 48l78 192q95 -31 137 -31q54 0 92.5 33.5t49.5 89.5l122 703q9 45 9 67q0 75 -46.5 118.5t-123.5 43.5q-98 0 -170.5 -68t-91.5 -176l-101 -569h-262l178 1004h197l10 -140q64 77 153.5 120.5
t188.5 43.5q149 0 242.5 -88t93.5 -229q0 -51 -10 -113z" />
    <glyph glyph-name="Omacron" unicode="&#x14c;" horiz-adv-x="1542" 
d="M100 535q0 186 60.5 347t166 275t254.5 179t320 65q273 0 439.5 -152.5t166.5 -406.5q0 -248 -103 -446t-286.5 -309.5t-412.5 -111.5q-271 0 -438 153t-167 407zM379 561q0 -171 96.5 -271t255.5 -100q140 0 254 81t179 224.5t65 319.5q0 171 -96.5 271t-255.5 100
q-140 0 -254 -81t-179 -224.5t-65 -319.5zM635 1573l31 178h641l-33 -178h-639z" />
    <glyph glyph-name="omacron" unicode="&#x14d;" horiz-adv-x="1198" 
d="M66 397q0 179 77 323t216 226t313 82q207 0 334 -116t127 -306q0 -179 -77.5 -323t-217 -226t-314.5 -82q-207 0 -332.5 116.5t-125.5 305.5zM332 418q0 -108 60 -173t159 -65q135 0 225 116.5t90 289.5q0 107 -59.5 172t-159.5 65q-135 0 -225 -116t-90 -289zM397 1200
l31 178h641l-33 -178h-639z" />
    <glyph glyph-name="Obreve" unicode="&#x14e;" horiz-adv-x="1542" 
d="M100 535q0 186 60.5 347t166 275t254.5 179t320 65q273 0 439.5 -152.5t166.5 -406.5q0 -248 -103 -446t-286.5 -309.5t-412.5 -111.5q-271 0 -438 153t-167 407zM379 561q0 -171 96.5 -271t255.5 -100q140 0 254 81t179 224.5t65 319.5q0 171 -96.5 271t-255.5 100
q-140 0 -254 -81t-179 -224.5t-65 -319.5zM664 1802h163q-10 -67 28 -108t110 -41q74 0 127.5 40.5t66.5 108.5h174q-26 -153 -130 -241t-253 -88q-129 0 -210 74t-81 196q0 19 5 59z" />
    <glyph glyph-name="obreve" unicode="&#x14f;" horiz-adv-x="1198" 
d="M66 397q0 179 77 323t216 226t313 82q207 0 334 -116t127 -306q0 -179 -77.5 -323t-217 -226t-314.5 -82q-207 0 -332.5 116.5t-125.5 305.5zM332 418q0 -108 60 -173t159 -65q135 0 225 116.5t90 289.5q0 107 -59.5 172t-159.5 65q-135 0 -225 -116t-90 -289zM426 1430
h164q-10 -67 27.5 -108.5t109.5 -41.5q74 0 128 41t67 109h174q-26 -153 -130 -241.5t-253 -88.5q-129 0 -210 74t-81 196q0 28 4 60z" />
    <glyph glyph-name="Ohungarumlaut" unicode="&#x150;" horiz-adv-x="1542" 
d="M100 535q0 186 60.5 347t166 275t254.5 179t320 65q273 0 439.5 -152.5t166.5 -406.5q0 -248 -103 -446t-286.5 -309.5t-412.5 -111.5q-271 0 -438 153t-167 407zM379 561q0 -171 96.5 -271t255.5 -100q140 0 254 81t179 224.5t65 319.5q0 171 -96.5 271t-255.5 100
q-140 0 -254 -81t-179 -224.5t-65 -319.5zM1522 1767l-371 -297l-113 138l353 315zM1069 1767l-371 -297l-112 138l352 315z" />
    <glyph glyph-name="ohungarumlaut" unicode="&#x151;" horiz-adv-x="1198" 
d="M66 397q0 179 77 323t216 226t313 82q207 0 334 -116t127 -306q0 -179 -77.5 -323t-217 -226t-314.5 -82q-207 0 -332.5 116.5t-125.5 305.5zM332 418q0 -108 60 -173t159 -65q135 0 225 116.5t90 289.5q0 107 -59.5 172t-159.5 65q-135 0 -225 -116t-90 -289zM1284 1395
l-371 -297l-112 137l352 315zM831 1395l-370 -297l-113 137l352 315z" />
    <glyph glyph-name="OE" unicode="&#x152;" horiz-adv-x="2031" 
d="M104 565q0 179 58.5 330t163.5 257t254 165t325 59h1157l-37 -205h-649l-63 -366h583l-34 -201h-584l-70 -399h682l-37 -205h-1128q-287 0 -454 152t-167 413zM381 586q0 -174 107 -275.5t294 -101.5h154l168 958h-195q-232 0 -380 -162.5t-148 -418.5z" />
    <glyph glyph-name="oe" unicode="&#x153;" horiz-adv-x="1900" 
d="M1827 432h-715q-2 -19 2 -61q11 -89 81 -145t173 -56q130 0 277 86l81 -172q-207 -109 -401 -109q-131 0 -230 54t-147 149q-74 -96 -184 -149.5t-240 -53.5q-207 0 -332.5 116.5t-125.5 305.5q0 179 77 323t216 226t313 82q126 0 222 -54t142 -147q72 94 177 147.5
t227 53.5q180 0 295.5 -114t115.5 -291q0 -92 -24 -191zM551 180q135 0 225 116.5t90 289.5q0 107 -59.5 172t-159.5 65q-135 0 -225 -116t-90 -289q0 -108 60 -173t159 -65zM1415 834q-98 0 -175 -67.5t-105 -176.5h471q2 18 2 57q-5 84 -57.5 135.5t-135.5 51.5z" />
    <glyph glyph-name="Racute" unicode="&#x154;" horiz-adv-x="1335" 
d="M84 0l242 1376h557q184 0 296.5 -106t112.5 -279t-105 -299.5t-274 -163.5l267 -528h-275l-243 502h-228l-88 -502h-262zM551 1167l-80 -454h272q125 0 203 71t78 185q0 91 -57 144.5t-158 53.5h-258zM1151 1698l-416 -230l-86 144l395 260z" />
    <glyph glyph-name="racute" unicode="&#x155;" horiz-adv-x="821" 
d="M45 0l178 1004h197l8 -144q57 77 137 118.5t172 41.5q68 0 142 -23l-68 -206q-65 20 -125 20q-107 0 -184 -69t-96 -183l-99 -559h-262zM907 1325l-415 -229l-86 143l395 260z" />
    <glyph glyph-name="Rcommaaccent" unicode="&#x156;" horiz-adv-x="1335" 
d="M84 0l242 1376h557q184 0 296.5 -106t112.5 -279t-105 -299.5t-274 -163.5l267 -528h-275l-243 502h-228l-88 -502h-262zM551 1167l-80 -454h272q125 0 203 71t78 185q0 91 -57 144.5t-158 53.5h-258zM414 -266q0 69 46 115.5t115 46.5q57 0 91 -40t34 -106
q0 -101 -75.5 -204t-206.5 -177l-60 92q115 79 152 172q-43 0 -69.5 28.5t-26.5 72.5z" />
    <glyph glyph-name="rcommaaccent" unicode="&#x157;" horiz-adv-x="821" 
d="M45 0l178 1004h197l8 -144q57 77 137 118.5t172 41.5q68 0 142 -23l-68 -206q-65 20 -125 20q-107 0 -184 -69t-96 -183l-99 -559h-262zM-6 -266q0 69 46.5 115.5t115.5 46.5q57 0 91 -40t34 -106q0 -100 -76 -203.5t-207 -177.5l-59 92q114 78 151 172q-43 0 -69.5 28.5
t-26.5 72.5z" />
    <glyph glyph-name="Rcaron" unicode="&#x158;" horiz-adv-x="1335" 
d="M84 0l242 1376h557q184 0 296.5 -106t112.5 -279t-105 -299.5t-274 -163.5l267 -528h-275l-243 502h-228l-88 -502h-262zM551 1167l-80 -454h272q125 0 203 71t78 185q0 91 -57 144.5t-158 53.5h-258zM1169 1722l-292 -233h-158l-213 252l123 112l184 -184l262 191z" />
    <glyph glyph-name="rcaron" unicode="&#x159;" horiz-adv-x="821" 
d="M45 0l178 1004h197l8 -144q57 77 137 118.5t172 41.5q68 0 142 -23l-68 -206q-65 20 -125 20q-107 0 -184 -69t-96 -183l-99 -559h-262zM926 1350l-293 -234h-158l-213 252l123 113l184 -185l262 191z" />
    <glyph glyph-name="Sacute" unicode="&#x15a;" horiz-adv-x="1187" 
d="M186 981q0 182 144 301t366 119q254 0 510 -113l-88 -205q-233 103 -411 103q-115 0 -186.5 -52.5t-71.5 -136.5q0 -44 27 -79t71.5 -57.5t101 -46t115.5 -44t115.5 -53t101 -72t71.5 -102t27 -140.5q0 -190 -144.5 -309t-373.5 -119q-131 0 -274 32.5t-271 96.5l90 203
q240 -117 445 -117q121 0 193.5 54.5t72.5 142.5q0 52 -35 91t-90.5 65.5t-123 51t-134.5 55.5t-122.5 71.5t-90.5 106.5t-35 153zM1126 1698l-415 -230l-86 144l395 260z" />
    <glyph glyph-name="sacute" unicode="&#x15b;" horiz-adv-x="931" 
d="M121 705q0 139 112 231t283 92q178 0 377 -86l-88 -190q-163 77 -281 77q-66 0 -106.5 -30.5t-40.5 -79.5q0 -31 24 -54t62.5 -38.5t85 -31t93 -38t85 -52t62.5 -80t24 -116.5q0 -147 -112.5 -240.5t-290.5 -93.5q-215 0 -410 97l88 188q193 -86 313 -86q70 0 113 33
t43 86q0 33 -24 57.5t-62.5 41t-85 32.5t-93 38t-85 51t-62.5 78.5t-24 113.5zM915 1325l-415 -229l-86 143l395 260z" />
    <glyph glyph-name="Scircumflex" unicode="&#x15c;" horiz-adv-x="1187" 
d="M186 981q0 182 144 301t366 119q254 0 510 -113l-88 -205q-233 103 -411 103q-115 0 -186.5 -52.5t-71.5 -136.5q0 -44 27 -79t71.5 -57.5t101 -46t115.5 -44t115.5 -53t101 -72t71.5 -102t27 -140.5q0 -190 -144.5 -309t-373.5 -119q-131 0 -274 32.5t-271 96.5l90 203
q240 -117 445 -117q121 0 193.5 54.5t72.5 142.5q0 52 -35 91t-90.5 65.5t-123 51t-134.5 55.5t-122.5 71.5t-90.5 106.5t-35 153zM440 1602l295 233h158l213 -250l-123 -112l-186 184l-260 -191z" />
    <glyph glyph-name="scircumflex" unicode="&#x15d;" horiz-adv-x="931" 
d="M121 705q0 139 112 231t283 92q178 0 377 -86l-88 -190q-163 77 -281 77q-66 0 -106.5 -30.5t-40.5 -79.5q0 -31 24 -54t62.5 -38.5t85 -31t93 -38t85 -52t62.5 -80t24 -116.5q0 -147 -112.5 -240.5t-290.5 -93.5q-215 0 -410 97l88 188q193 -86 313 -86q70 0 113 33
t43 86q0 33 -24 57.5t-62.5 41t-85 32.5t-93 38t-85 51t-62.5 78.5t-24 113.5zM229 1229l295 233h158l213 -250l-123 -112l-186 184l-260 -190z" />
    <glyph glyph-name="Scedilla" unicode="&#x15e;" horiz-adv-x="1187" 
d="M186 981q0 182 144 301t366 119q254 0 510 -113l-88 -205q-233 103 -411 103q-115 0 -186.5 -52.5t-71.5 -136.5q0 -44 27 -79t71.5 -57.5t101 -46t115.5 -44t115.5 -53t101 -72t71.5 -102t27 -140.5q0 -184 -130 -298t-345 -128l-22 -67q54 -17 84 -59t30 -101
q0 -94 -79.5 -158.5t-200.5 -64.5q-106 0 -219 49l59 141q78 -32 139 -32q41 0 67.5 20t26.5 49t-27.5 47.5t-70.5 18.5h-20l57 166q-223 20 -412 118l90 203q240 -117 445 -117q121 0 193.5 54.5t72.5 142.5q0 52 -35 91t-90.5 65.5t-123 51t-134.5 55.5t-122.5 71.5
t-90.5 106.5t-35 153z" />
    <glyph glyph-name="scedilla" unicode="&#x15f;" horiz-adv-x="931" 
d="M121 705q0 139 112 231t283 92q178 0 377 -86l-88 -190q-163 77 -281 77q-67 0 -107 -29.5t-40 -80.5q0 -31 24 -54t62.5 -38.5t85 -31t93 -38t85 -52t62.5 -80t24 -116.5q0 -133 -91.5 -220.5t-244.5 -106.5l-24 -72q54 -17 84 -59t30 -101q0 -94 -79.5 -158.5
t-200.5 -64.5q-106 0 -219 49l59 141q78 -32 139 -32q41 0 67.5 20t26.5 49t-27.5 47.5t-70.5 18.5h-20l55 164q-148 15 -297 88l88 188q193 -86 313 -86q69 0 112.5 32.5t43.5 86.5q0 33 -24 57.5t-62.5 41t-85 32.5t-93 38t-85 51t-62.5 78.5t-24 113.5z" />
    <glyph glyph-name="Scaron" unicode="&#x160;" horiz-adv-x="1187" 
d="M186 981q0 182 144 301t366 119q254 0 510 -113l-88 -205q-233 103 -411 103q-115 0 -186.5 -52.5t-71.5 -136.5q0 -44 27 -79t71.5 -57.5t101 -46t115.5 -44t115.5 -53t101 -72t71.5 -102t27 -140.5q0 -190 -144.5 -309t-373.5 -119q-131 0 -274 32.5t-271 96.5l90 203
q240 -117 445 -117q121 0 193.5 54.5t72.5 142.5q0 52 -35 91t-90.5 65.5t-123 51t-134.5 55.5t-122.5 71.5t-90.5 106.5t-35 153zM1145 1722l-293 -233h-158l-213 252l123 112l184 -184l263 191z" />
    <glyph glyph-name="scaron" unicode="&#x161;" horiz-adv-x="931" 
d="M121 705q0 139 112 231t283 92q178 0 377 -86l-88 -190q-163 77 -281 77q-66 0 -106.5 -30.5t-40.5 -79.5q0 -31 24 -54t62.5 -38.5t85 -31t93 -38t85 -52t62.5 -80t24 -116.5q0 -147 -112.5 -240.5t-290.5 -93.5q-215 0 -410 97l88 188q193 -86 313 -86q70 0 113 33
t43 86q0 33 -24 57.5t-62.5 41t-85 32.5t-93 38t-85 51t-62.5 78.5t-24 113.5zM934 1350l-293 -234h-158l-213 252l123 113l185 -185l262 191z" />
    <glyph glyph-name="Tcommaaccent" unicode="&#x162;" horiz-adv-x="1216" 
d="M383 0l205 1167h-428l39 209h1126l-37 -209h-428l-205 -1167h-272zM338 -266q0 69 46.5 115.5t115.5 46.5q57 0 91 -40t34 -106q0 -100 -76 -203.5t-207 -177.5l-59 92q114 78 151 172q-43 0 -69.5 28.5t-26.5 72.5z" />
    <glyph glyph-name="tcommaaccent" unicode="&#x163;" horiz-adv-x="849" 
d="M633 1298l-49 -294h276l-37 -199h-276l-82 -465q-6 -24 -6 -47q0 -48 31.5 -78.5t82.5 -30.5q28 0 121 13l19 -199q-112 -23 -224 -23q-132 0 -214 76t-82 199q0 22 8 76l84 479h-189l37 199h189l49 294h262zM225 -266q0 69 46.5 115.5t115.5 46.5q57 0 91 -40t34 -106
q0 -100 -76 -203.5t-207 -177.5l-59 92q115 79 152 172q-43 0 -70 28.5t-27 72.5z" />
    <glyph glyph-name="Tcaron" unicode="&#x164;" horiz-adv-x="1216" 
d="M383 0l205 1167h-428l39 209h1126l-37 -209h-428l-205 -1167h-272zM1159 1722l-293 -233h-157l-213 252l122 112l185 -184l262 191z" />
    <glyph glyph-name="tcaron" unicode="&#x165;" horiz-adv-x="849" 
d="M633 1298l-49 -294h276l-37 -199h-276l-82 -465q-6 -24 -6 -47q0 -48 31.5 -78.5t82.5 -30.5q28 0 121 13l19 -199q-112 -23 -224 -23q-132 0 -214 76t-82 199q0 22 8 76l84 479h-189l37 199h189l49 294h262zM1055 1448l-207 -358l-158 71l182 367z" />
    <glyph glyph-name="Tbar" unicode="&#x166;" horiz-adv-x="1216" 
d="M383 0l96 551h-250l35 199h250l74 417h-428l39 209h1126l-37 -209h-428l-74 -417h254l-34 -199h-254l-97 -551h-272z" />
    <glyph glyph-name="tbar" unicode="&#x167;" horiz-adv-x="849" 
d="M633 1298l-49 -294h276l-37 -199h-276l-39 -207h246l-31 -178h-246l-16 -94q0 -6 -2 -18.5t-2 -18.5q0 -47 32.5 -76t83.5 -29q28 0 121 13l19 -199q-112 -23 -224 -23q-132 0 -214 76t-82 199q0 22 8 76l14 94h-172l33 178h172l37 207h-189l37 199h189l49 294h262z" />
    <glyph glyph-name="Utilde" unicode="&#x168;" horiz-adv-x="1542" 
d="M1540 1376l-156 -874q-42 -245 -225.5 -386t-451.5 -141q-242 0 -396.5 129.5t-154.5 335.5q0 50 10 115l143 821h273l-144 -821q-8 -39 -8 -86q0 -126 82 -202.5t217 -76.5q151 0 256 90t131 242l152 854h272zM854 1788q47 0 90.5 -18t79.5 -36t66 -18q29 0 53.5 19.5
t36.5 52.5l149 -49q-31 -93 -95.5 -147t-148.5 -54q-59 0 -130.5 36t-104.5 36q-29 0 -52.5 -19.5t-37.5 -52.5l-148 49q30 93 94 147t148 54z" />
    <glyph glyph-name="utilde" unicode="&#x169;" horiz-adv-x="1198" 
d="M1153 1004l-178 -1004h-199l-8 139q-64 -77 -154 -120.5t-190 -43.5q-147 0 -240.5 89t-93.5 229q0 51 10 113l107 598h262l-104 -584q-7 -35 -7 -66q0 -75 46.5 -119.5t123.5 -44.5q98 0 169.5 68t90.5 176l103 570h262zM616 1415q47 0 90.5 -18t79.5 -36t66 -18
q29 0 53.5 19.5t36.5 52.5l150 -49q-31 -93 -95.5 -147t-148.5 -54q-59 0 -131 36t-105 36q-29 0 -52.5 -19.5t-37.5 -52.5l-147 49q30 93 93.5 147t147.5 54z" />
    <glyph glyph-name="Umacron" unicode="&#x16a;" horiz-adv-x="1542" 
d="M1540 1376l-156 -874q-42 -245 -225.5 -386t-451.5 -141q-242 0 -396.5 129.5t-154.5 335.5q0 50 10 115l143 821h273l-144 -821q-8 -39 -8 -86q0 -126 82 -202.5t217 -76.5q151 0 256 90t131 242l152 854h272zM635 1573l31 178h641l-33 -178h-639z" />
    <glyph glyph-name="umacron" unicode="&#x16b;" horiz-adv-x="1198" 
d="M1153 1004l-178 -1004h-199l-8 139q-64 -77 -154 -120.5t-190 -43.5q-147 0 -240.5 89t-93.5 229q0 51 10 113l107 598h262l-104 -584q-7 -35 -7 -66q0 -75 46.5 -119.5t123.5 -44.5q98 0 169.5 68t90.5 176l103 570h262zM397 1200l31 178h641l-33 -178h-639z" />
    <glyph glyph-name="Ubreve" unicode="&#x16c;" horiz-adv-x="1542" 
d="M1540 1376l-156 -874q-42 -245 -225.5 -386t-451.5 -141q-242 0 -396.5 129.5t-154.5 335.5q0 50 10 115l143 821h273l-144 -821q-8 -39 -8 -86q0 -126 82 -202.5t217 -76.5q151 0 256 90t131 242l152 854h272zM664 1802h163q-10 -67 28 -108t110 -41q74 0 127.5 40.5
t66.5 108.5h174q-26 -153 -130 -241t-253 -88q-129 0 -210 74t-81 196q0 19 5 59z" />
    <glyph glyph-name="ubreve" unicode="&#x16d;" horiz-adv-x="1198" 
d="M1153 1004l-178 -1004h-199l-8 139q-64 -77 -154 -120.5t-190 -43.5q-147 0 -240.5 89t-93.5 229q0 51 10 113l107 598h262l-104 -584q-7 -35 -7 -66q0 -75 46.5 -119.5t123.5 -44.5q98 0 169.5 68t90.5 176l103 570h262zM426 1430h164q-10 -67 27.5 -108.5t109.5 -41.5
q74 0 128 41t67 109h174q-26 -153 -130 -241.5t-253 -88.5q-129 0 -210 74t-81 196q0 28 4 60z" />
    <glyph glyph-name="Uring" unicode="&#x16e;" horiz-adv-x="1542" 
d="M1540 1376l-156 -874q-42 -245 -225.5 -386t-451.5 -141q-242 0 -396.5 129.5t-154.5 335.5q0 50 10 115l143 821h273l-144 -821q-8 -39 -8 -86q0 -126 82 -202.5t217 -76.5q151 0 256 90t131 242l152 854h272zM874 1649q0 -37 22.5 -59.5t57.5 -22.5q47 0 79 32t32 78
q0 36 -22 58t-58 22q-47 0 -79 -31t-32 -77zM748 1632q0 102 73 172t180 70q85 0 138 -50t53 -130q0 -103 -73.5 -172.5t-180.5 -69.5q-86 0 -138 50t-52 130z" />
    <glyph glyph-name="uring" unicode="&#x16f;" horiz-adv-x="1198" 
d="M1153 1004l-178 -1004h-199l-8 139q-64 -77 -154 -120.5t-190 -43.5q-147 0 -240.5 89t-93.5 229q0 51 10 113l107 598h262l-104 -584q-7 -35 -7 -66q0 -75 46.5 -119.5t123.5 -44.5q98 0 169.5 68t90.5 176l103 570h262zM637 1276q0 -37 22.5 -59.5t57.5 -22.5
q47 0 78.5 32.5t31.5 78.5q0 36 -21.5 57.5t-57.5 21.5q-47 0 -79 -31t-32 -77zM510 1260q0 101 73.5 171t180.5 70q85 0 137.5 -50t52.5 -130q0 -103 -73.5 -172.5t-180.5 -69.5q-86 0 -138 50.5t-52 130.5z" />
    <glyph glyph-name="Uhungarumlaut" unicode="&#x170;" horiz-adv-x="1542" 
d="M1540 1376l-156 -874q-42 -245 -225.5 -386t-451.5 -141q-242 0 -396.5 129.5t-154.5 335.5q0 50 10 115l143 821h273l-144 -821q-8 -39 -8 -86q0 -126 82 -202.5t217 -76.5q151 0 256 90t131 242l152 854h272zM1522 1767l-371 -297l-113 138l353 315zM1069 1767
l-371 -297l-112 138l352 315z" />
    <glyph glyph-name="uhungarumlaut" unicode="&#x171;" horiz-adv-x="1198" 
d="M1153 1004l-178 -1004h-199l-8 139q-64 -77 -154 -120.5t-190 -43.5q-147 0 -240.5 89t-93.5 229q0 51 10 113l107 598h262l-104 -584q-7 -35 -7 -66q0 -75 46.5 -119.5t123.5 -44.5q98 0 169.5 68t90.5 176l103 570h262zM1284 1395l-371 -297l-112 137l352 315z
M831 1395l-370 -297l-113 137l352 315z" />
    <glyph glyph-name="Uogonek" unicode="&#x172;" horiz-adv-x="1542" 
d="M1540 1376l-156 -874q-30 -171 -131 -289.5t-280 -198.5q-152 -71 -228.5 -139t-76.5 -119q0 -32 21 -51.5t54 -19.5q28 0 68 8l25 -144q-83 -22 -168 -22q-91 0 -147 47t-56 125q0 71 61 148t158 135q-42 -3 -92 6q-196 28 -316 149.5t-120 302.5q0 50 10 115l143 821
h273l-144 -821q-8 -39 -8 -86q0 -126 82 -202.5t217 -76.5q151 0 256 90t131 242l152 854h272z" />
    <glyph glyph-name="uogonek" unicode="&#x173;" horiz-adv-x="1230" 
d="M1153 1004l-178 -1004q-98 -63 -152.5 -127t-54.5 -117q0 -32 21.5 -51.5t54.5 -19.5q29 0 65 8l27 -144q-83 -22 -168 -22q-92 0 -147.5 49t-55.5 129q0 76 55.5 153t157.5 142l-10 139q-64 -77 -154 -120.5t-190 -43.5q-147 0 -240.5 89t-93.5 229q0 51 10 113l107 598
h262l-104 -584q-7 -35 -7 -66q0 -75 46.5 -119.5t123.5 -44.5q98 0 169.5 68t90.5 176l103 570h262z" />
    <glyph glyph-name="Wcircumflex" unicode="&#x174;" horiz-adv-x="2050" 
d="M2179 1376l-678 -1376h-254l-127 1044l-483 -1044h-252l-199 1376h254l125 -1044l484 1044h245l127 -1044l484 1044h274zM870 1602l295 233h158l213 -250l-123 -112l-186 184l-260 -191z" />
    <glyph glyph-name="wcircumflex" unicode="&#x175;" horiz-adv-x="1607" 
d="M1665 1004l-510 -1004h-244l-80 682l-313 -682h-237l-162 1004h248l82 -682l313 682h235l80 -682l318 682h270zM567 1229l295 233h158l213 -250l-123 -112l-186 184l-260 -190z" />
    <glyph glyph-name="Ycircumflex" unicode="&#x176;" horiz-adv-x="1247" 
d="M399 0l99 569l-367 807h285l254 -573l415 573h308l-625 -825l-96 -551h-273zM453 1602l295 233h157l213 -250l-123 -112l-186 184l-260 -191z" />
    <glyph glyph-name="ycircumflex" unicode="&#x177;" horiz-adv-x="1083" 
d="M1157 1004l-663 -1154q-88 -155 -187.5 -228t-222.5 -73q-81 0 -160 23l49 203q59 -17 105 -17q60 0 106.5 36t91.5 114l60 106l-234 990h258l140 -695l379 695h278zM305 1229l295 233h158l213 -250l-123 -112l-186 184l-261 -190z" />
    <glyph glyph-name="Ydieresis" unicode="&#x178;" horiz-adv-x="1247" 
d="M399 0l99 569l-367 807h285l254 -573l415 573h308l-625 -825l-96 -551h-273zM893 1642q0 68 46.5 115t115.5 47q54 0 87.5 -33.5t33.5 -87.5q0 -69 -47 -115t-115 -46q-54 0 -87.5 33t-33.5 87zM436 1642q0 68 47 115t115 47q54 0 87.5 -33.5t33.5 -87.5
q0 -69 -46.5 -115t-115.5 -46q-54 0 -87.5 33t-33.5 87z" />
    <glyph glyph-name="Zacute" unicode="&#x179;" horiz-adv-x="1286" 
d="M-4 0l29 162l909 1005h-709l37 209h1069l-28 -162l-912 -1005h760l-37 -209h-1118zM1176 1698l-416 -230l-86 144l395 260z" />
    <glyph glyph-name="zacute" unicode="&#x17a;" horiz-adv-x="997" 
d="M-16 0l26 156l606 649h-475l37 199h817l-26 -154l-607 -651h508l-34 -199h-852zM965 1325l-416 -229l-86 143l395 260z" />
    <glyph glyph-name="Zdotaccent" unicode="&#x17b;" horiz-adv-x="1286" 
d="M-4 0l29 162l909 1005h-709l37 209h1069l-28 -162l-912 -1005h760l-37 -209h-1118zM690 1640q0 74 50.5 124.5t123.5 50.5q58 0 94.5 -36.5t36.5 -95.5q0 -72 -50.5 -122t-123.5 -50q-59 0 -95 35.5t-36 93.5z" />
    <glyph glyph-name="zdotaccent" unicode="&#x17c;" horiz-adv-x="997" 
d="M-16 0l26 156l606 649h-475l37 199h817l-26 -154l-607 -651h508l-34 -199h-852zM479 1268q0 74 50.5 124t123.5 50q59 0 95 -36t36 -95q0 -72 -50.5 -122t-123.5 -50q-59 0 -95 35.5t-36 93.5z" />
    <glyph glyph-name="Zcaron" unicode="&#x17d;" horiz-adv-x="1286" 
d="M-4 0l29 162l909 1005h-709l37 209h1069l-28 -162l-912 -1005h760l-37 -209h-1118zM1194 1722l-293 -233h-158l-213 252l123 112l185 -184l262 191z" />
    <glyph glyph-name="zcaron" unicode="&#x17e;" horiz-adv-x="997" 
d="M-16 0l26 156l606 649h-475l37 199h817l-26 -154l-607 -651h508l-34 -199h-852zM983 1350l-293 -234h-158l-213 252l123 113l185 -185l262 191z" />
    <glyph glyph-name="florin" unicode="&#x192;" 
d="M297 694l37 199h178l37 225q25 130 120 206.5t228 76.5q107 0 240 -45l-74 -193q-71 23 -117 23q-51 0 -86.5 -29t-44.5 -76l-31 -188h211l-37 -199h-210l-76 -436q-23 -130 -118.5 -206.5t-229.5 -76.5q-108 0 -238 45l72 193q71 -23 116 -23q52 0 88 29t44 76l69 399
h-178z" />
    <glyph glyph-name="Acaron" unicode="&#x1cd;" horiz-adv-x="1378" 
d="M-84 0l803 1376h252l315 -1376h-258l-70 328h-579l-184 -328h-279zM805 1087l-318 -561h435zM1239 1722l-293 -233h-158l-213 252l123 112l185 -184l262 191z" />
    <glyph glyph-name="acaron" unicode="&#x1ce;" horiz-adv-x="1112" 
d="M35 266q0 165 131.5 262t355.5 97q103 0 211 -21l8 49q4 24 4 37q0 64 -49 104t-133 40q-141 0 -315 -58l-45 185q223 67 411 67q170 0 273.5 -86t103.5 -227q0 -43 -6 -78l-70 -381q-4 -20 -4 -31q0 -23 16 -37t44 -14q17 0 41 4l4 -188q-81 -15 -133 -15
q-78 0 -132 33.5t-73 93.5q-130 -127 -318 -127q-142 0 -233.5 83t-91.5 208zM287 301q0 -65 42.5 -103t116.5 -38q94 0 162.5 61.5t85.5 161.5l13 70q-81 20 -172 20q-113 0 -180.5 -47.5t-67.5 -124.5zM1034 1350l-293 -234h-157l-213 252l123 113l184 -185l262 191z" />
    <glyph glyph-name="Aringacute" unicode="&#x1fa;" horiz-adv-x="1378" 
d="M-84 0l803 1376h252l315 -1376h-258l-70 328h-579l-184 -328h-279zM805 1087l-318 -561h435zM657 1632q0 133 131 209l377 223l88 -155l-194 -103q43 -46 43 -112q0 -100 -72.5 -166t-181.5 -66q-86 0 -138.5 47.5t-52.5 122.5zM784 1649q0 -37 22.5 -59.5t57.5 -22.5
q47 0 79 32t32 78q0 36 -22 58t-58 22q-47 0 -79 -31t-32 -77z" />
    <glyph glyph-name="aringacute" unicode="&#x1fb;" horiz-adv-x="1112" 
d="M35 266q0 165 131.5 262t355.5 97q103 0 211 -21l8 49q4 24 4 37q0 64 -49 104t-133 40q-141 0 -315 -58l-45 185q223 67 411 67q170 0 273.5 -86t103.5 -227q0 -43 -6 -78l-70 -381q-4 -20 -4 -31q0 -23 16 -37t44 -14q17 0 41 4l4 -188q-81 -15 -133 -15
q-78 0 -132 33.5t-73 93.5q-130 -127 -318 -127q-142 0 -233.5 83t-91.5 208zM287 301q0 -65 42.5 -103t116.5 -38q94 0 162.5 61.5t85.5 161.5l13 70q-81 20 -172 20q-113 0 -180.5 -47.5t-67.5 -124.5zM459 1260q0 132 131 208l377 224l88 -156l-195 -102q43 -46 43 -113
q0 -100 -72.5 -165.5t-181.5 -65.5q-86 0 -138 47t-52 123zM586 1276q0 -37 22.5 -59.5t57.5 -22.5q47 0 78.5 32.5t31.5 78.5q0 36 -22 57.5t-58 21.5q-47 0 -78.5 -31t-31.5 -77z" />
    <glyph glyph-name="AEacute" unicode="&#x1fc;" horiz-adv-x="1974" 
d="M852 0l57 328h-475l-256 -328h-328l1104 1376h1051l-35 -205h-649l-66 -366h584l-35 -201h-583l-70 -399h682l-37 -205h-944zM1053 1135l-475 -609h366zM1700 1698l-416 -230l-86 144l395 260z" />
    <glyph glyph-name="aeacute" unicode="&#x1fd;" horiz-adv-x="1736" 
d="M35 266q0 165 131.5 262t355.5 97q103 0 211 -21l8 49q4 20 4 37q0 64 -49 104t-133 40q-141 0 -315 -58l-45 185q223 67 411 67q108 0 187 -34.5t119 -100.5q144 135 356 135q180 0 296 -113.5t116 -291.5q0 -88 -25 -191h-715q-2 -19 2 -61q11 -89 81 -145t173 -56
q130 0 277 86l82 -172q-207 -109 -402 -109q-131 0 -231.5 52.5t-153.5 146.5q-63 -94 -167 -146.5t-228 -52.5q-150 0 -248 83t-98 208zM1251 834q-98 0 -175 -67.5t-105 -176.5h471q2 18 2 57q-5 84 -57.5 135.5t-135.5 51.5zM287 301q0 -65 42.5 -103t116.5 -38
q94 0 162.5 61.5t85.5 161.5l13 70q-81 20 -172 20q-113 0 -180.5 -47.5t-67.5 -124.5zM1335 1325l-415 -229l-86 143l395 260z" />
    <glyph glyph-name="Oslashacute" unicode="&#x1fe;" horiz-adv-x="1542" 
d="M100 535q0 186 60 347t165.5 275t254.5 179t321 65q212 0 359 -103l129 140l120 -103l-125 -133q123 -148 123 -360q0 -248 -102.5 -446t-286 -309.5t-413.5 -111.5q-208 0 -359 101l-127 -137l-123 102l125 133q-121 143 -121 361zM358 561q0 -109 45 -188l697 749
q-93 74 -223 74q-148 0 -267 -82t-185.5 -227.5t-66.5 -325.5zM731 182q225 0 371.5 179.5t146.5 453.5q0 112 -47 189l-694 -750q87 -72 223 -72zM1303 1698l-416 -230l-86 144l395 260z" />
    <glyph glyph-name="oslashacute" unicode="&#x1ff;" horiz-adv-x="1198" 
d="M66 397q0 179 77 323t216 226t313 82q142 0 256 -70l106 115l96 -90l-94 -102q97 -114 97 -275q0 -179 -77.5 -323t-217 -226t-314.5 -82q-150 0 -256 70l-104 -113l-101 88l97 103q-94 111 -94 274zM551 170q146 0 241 118.5t95 297.5q0 55 -29 102l-438 -477
q53 -41 131 -41zM311 418q0 -58 25 -103l438 476q-53 43 -127 43q-146 0 -241 -118.5t-95 -297.5zM1065 1325l-416 -229l-86 143l395 260z" />
    <glyph glyph-name="Scommaaccent" unicode="&#x218;" horiz-adv-x="1187" 
d="M186 981q0 182 144 301t366 119q254 0 510 -113l-88 -205q-233 103 -411 103q-115 0 -186.5 -52.5t-71.5 -136.5q0 -44 27 -79t71.5 -57.5t101 -46t115.5 -44t115.5 -53t101 -72t71.5 -102t27 -140.5q0 -190 -144.5 -309t-373.5 -119q-131 0 -274 32.5t-271 96.5l90 203
q240 -117 445 -117q121 0 193.5 54.5t72.5 142.5q0 52 -35 91t-90.5 65.5t-123 51t-134.5 55.5t-122.5 71.5t-90.5 106.5t-35 153zM324 -266q0 69 46 115.5t115 46.5q57 0 91 -40t34 -106q0 -101 -75.5 -204t-206.5 -177l-60 92q115 79 152 172q-43 0 -69.5 28.5t-26.5 72.5
z" />
    <glyph glyph-name="scommaaccent" unicode="&#x219;" horiz-adv-x="931" 
d="M121 705q0 139 112 231t283 92q178 0 377 -86l-88 -190q-163 77 -281 77q-66 0 -106.5 -30.5t-40.5 -79.5q0 -31 24 -54t62.5 -38.5t85 -31t93 -38t85 -52t62.5 -80t24 -116.5q0 -147 -112.5 -240.5t-290.5 -93.5q-215 0 -410 97l88 188q193 -86 313 -86q70 0 113 33
t43 86q0 33 -24 57.5t-62.5 41t-85 32.5t-93 38t-85 51t-62.5 78.5t-24 113.5zM195 -266q0 69 46 115.5t115 46.5q57 0 91 -40t34 -106q0 -101 -75.5 -204t-206.5 -177l-60 92q115 79 152 172q-43 0 -69.5 28.5t-26.5 72.5z" />
    <glyph glyph-name="uni021A" unicode="&#x21a;" horiz-adv-x="1216" 
d="M383 0l205 1167h-428l39 209h1126l-37 -209h-428l-205 -1167h-272zM338 -266q0 69 46.5 115.5t115.5 46.5q57 0 91 -40t34 -106q0 -100 -76 -203.5t-207 -177.5l-59 92q114 78 151 172q-43 0 -69.5 28.5t-26.5 72.5z" />
    <glyph glyph-name="uni021B" unicode="&#x21b;" horiz-adv-x="849" 
d="M633 1298l-49 -294h276l-37 -199h-276l-82 -465q-6 -24 -6 -47q0 -48 31.5 -78.5t82.5 -30.5q28 0 121 13l19 -199q-112 -23 -224 -23q-132 0 -214 76t-82 199q0 22 8 76l84 479h-189l37 199h189l49 294h262zM225 -266q0 69 46.5 115.5t115.5 46.5q57 0 91 -40t34 -106
q0 -100 -76 -203.5t-207 -177.5l-59 92q115 79 152 172q-43 0 -70 28.5t-27 72.5z" />
    <glyph glyph-name="circumflex" unicode="&#x2c6;" horiz-adv-x="491" 
d="M27 1229l295 233h157l213 -250l-123 -112l-186 184l-260 -190z" />
    <glyph glyph-name="caron" unicode="&#x2c7;" horiz-adv-x="491" 
d="M731 1350l-293 -234h-157l-213 252l122 113l185 -185l262 191z" />
    <glyph glyph-name="breve" unicode="&#x2d8;" horiz-adv-x="491" 
d="M74 1430h164q-10 -67 27.5 -108.5t109.5 -41.5q74 0 127.5 40.5t66.5 109.5h174q-26 -153 -130 -241.5t-253 -88.5q-129 0 -209.5 74t-80.5 196q0 28 4 60z" />
    <glyph glyph-name="dotaccent" unicode="&#x2d9;" horiz-adv-x="491" 
d="M227 1268q0 74 50.5 124t123.5 50q59 0 95 -36t36 -95q0 -72 -50.5 -122t-123.5 -50q-59 0 -95 35.5t-36 93.5z" />
    <glyph glyph-name="ring" unicode="&#x2da;" horiz-adv-x="491" 
d="M285 1276q0 -37 22.5 -59.5t57.5 -22.5q47 0 78.5 32.5t31.5 78.5q0 36 -22 57.5t-58 21.5q-47 0 -78.5 -31t-31.5 -77zM158 1260q0 101 73.5 171t180.5 70q85 0 137.5 -50t52.5 -130q0 -103 -73.5 -172.5t-180.5 -69.5q-86 0 -138 50.5t-52 130.5z" />
    <glyph glyph-name="ogonek" unicode="&#x2db;" horiz-adv-x="491" 
d="M143 29l146 -29q-98 -63 -152.5 -127t-54.5 -117q0 -32 21.5 -51.5t54.5 -19.5q29 0 65 8l27 -144q-83 -22 -168 -22q-92 0 -147.5 49t-55.5 129q0 85 70 171t194 153z" />
    <glyph glyph-name="tilde" unicode="&#x2dc;" horiz-adv-x="491" 
d="M264 1415q47 0 90.5 -18t79.5 -36t66 -18q29 0 53.5 19.5t36.5 52.5l149 -49q-31 -93 -95 -147t-148 -54q-59 0 -131 36t-105 36q-29 0 -52.5 -19.5t-37.5 -52.5l-147 49q30 93 93.5 147t147.5 54z" />
    <glyph glyph-name="hungarumlaut" unicode="&#x2dd;" horiz-adv-x="491" 
d="M932 1395l-371 -297l-112 137l352 315zM479 1395l-370 -297l-113 137l352 315z" />
    <glyph glyph-name="commaaccent" unicode="&#x326;" horiz-adv-x="491" 
d="M-25 -266q0 69 46.5 115.5t115.5 46.5q57 0 91 -40t34 -106q0 -101 -75.5 -204t-206.5 -177l-60 92q115 79 152 172q-43 0 -70 28.5t-27 72.5z" />
    <glyph glyph-name="uni0374" unicode="&#x374;" horiz-adv-x="491" 
d="M635 1305l-305 -471l-174 84l264 487z" />
    <glyph glyph-name="uni0375" unicode="&#x375;" horiz-adv-x="491" 
d="M-164 -223l303 471l176 -82l-264 -490z" />
    <glyph glyph-name="uni037E" unicode="&#x37e;" horiz-adv-x="575" 
d="M57 119q0 79 53.5 132.5t133.5 53.5q67 0 105 -45.5t38 -122.5q0 -133 -90 -257.5t-248 -207.5l-67 103q147 97 192 215q-53 5 -85 39t-32 90zM190 838q0 78 54.5 132t132.5 54q63 0 102 -38.5t39 -100.5q0 -79 -54 -134t-132 -55q-63 0 -102.5 40t-39.5 102z" />
    <glyph glyph-name="tonos" unicode="&#x384;" horiz-adv-x="491" 
d="M641 1487l-223 -395l-166 71l194 408z" />
    <glyph glyph-name="dieresistonos" unicode="&#x385;" horiz-adv-x="491" 
d="M571 1505l-213 -403l-116 47l186 414zM537 1270q0 64 43 107.5t106 43.5q51 0 82 -30.5t31 -81.5q0 -63 -44 -106.5t-108 -43.5q-49 0 -79.5 30.5t-30.5 80.5zM-39 1270q0 64 43.5 107.5t106.5 43.5q51 0 81.5 -30.5t30.5 -81.5q0 -63 -43 -106.5t-106 -43.5
q-51 0 -82 30.5t-31 80.5z" />
    <glyph glyph-name="Alphatonos" unicode="&#x386;" horiz-adv-x="1433" 
d="M-31 0l803 1376h252l315 -1376h-258l-69 328h-580l-184 -328h-279zM858 1087l-317 -561h434zM543 1368l-224 -395l-165 71l194 408z" />
    <glyph glyph-name="anoteleia" unicode="&#x387;" horiz-adv-x="526" 
d="M106 492q0 78 54.5 132t132.5 54q63 0 102 -38.5t39 -100.5q0 -79 -54 -134t-132 -55q-63 0 -102.5 40t-39.5 102z" />
    <glyph glyph-name="Epsilontonos" unicode="&#x388;" horiz-adv-x="1521" 
d="M387 0l242 1376h921l-34 -205h-650l-65 -366h583l-34 -201h-584l-70 -399h682l-37 -205h-954zM489 1368l-223 -395l-166 71l195 408z" />
    <glyph glyph-name="Etatonos" unicode="&#x389;" horiz-adv-x="1847" 
d="M387 0l242 1376h272l-98 -567h651l100 567h273l-242 -1376h-272l104 600h-651l-107 -600h-272zM489 1368l-223 -395l-166 71l195 408z" />
    <glyph glyph-name="Iotatonos" unicode="&#x38a;" horiz-adv-x="921" 
d="M489 1368l-223 -395l-166 71l195 408zM387 0l242 1376h272l-242 -1376h-272z" />
    <glyph glyph-name="Omicrontonos" unicode="&#x38c;" horiz-adv-x="1794" 
d="M350 535q0 186 60.5 347t166 275t254.5 179t320 65q273 0 439.5 -152.5t166.5 -406.5q0 -248 -103 -446t-287 -309.5t-413 -111.5q-271 0 -437.5 153t-166.5 407zM629 561q0 -171 96.5 -271t255.5 -100q140 0 254 81t179 224.5t65 319.5q0 170 -97 270.5t-256 100.5
q-140 0 -253.5 -81t-178.5 -224.5t-65 -319.5zM489 1368l-223 -395l-166 71l195 408z" />
    <glyph glyph-name="Upsilontonos" unicode="&#x38e;" horiz-adv-x="1669" 
d="M823 0l99 569l-367 807h285l254 -573l415 573h308l-625 -825l-96 -551h-273zM489 1368l-223 -395l-166 71l195 408z" />
    <glyph glyph-name="Omegatonos" unicode="&#x38f;" horiz-adv-x="1816" 
d="M227 0l37 209h303q-80 89 -125 206t-45 242q0 163 55 301.5t152 236t234.5 152t298.5 54.5q172 0 308 -66t214 -190.5t78 -286.5q0 -192 -94.5 -357.5t-274.5 -291.5h303l-37 -209h-604l31 178q195 123 299 288.5t104 350.5q0 166 -97 267.5t-251 101.5
q-194 0 -321.5 -147.5t-130.5 -381.5q-1 -130 47 -255.5t135 -223.5l-31 -178h-588zM489 1368l-223 -395l-166 71l195 408z" />
    <glyph glyph-name="iotadieresistonos" unicode="&#x390;" horiz-adv-x="628" 
d="M485 1004l-127 -705q-4 -28 -4 -41q0 -35 22.5 -54.5t59.5 -19.5q9 0 78 11l12 -201q-112 -19 -176 -19q-119 0 -190.5 65t-71.5 171q0 36 6 76l129 717h262zM590 1505l-213 -403l-117 47l186 414zM555 1270q0 64 43.5 107.5t106.5 43.5q51 0 81.5 -30.5t30.5 -81.5
q0 -63 -43.5 -106.5t-107.5 -43.5q-50 0 -80.5 30.5t-30.5 80.5zM-20 1270q0 64 43 107.5t106 43.5q51 0 82 -30.5t31 -81.5q0 -63 -43.5 -106.5t-106.5 -43.5q-51 0 -81.5 30.5t-30.5 80.5z" />
    <glyph glyph-name="Alpha" unicode="&#x391;" horiz-adv-x="1378" 
d="M-84 0l803 1376h252l315 -1376h-258l-70 328h-579l-184 -328h-279zM805 1087l-318 -561h435z" />
    <glyph glyph-name="Beta" unicode="&#x392;" horiz-adv-x="1335" 
d="M84 0l242 1376h567q184 0 285.5 -87t101.5 -242q0 -115 -59.5 -206t-163.5 -130q74 -33 118 -110.5t44 -182.5q0 -118 -64 -214t-176 -150t-250 -54h-645zM455 614l-72 -415h315q111 0 182.5 66.5t71.5 170.5q0 81 -51.5 129.5t-144.5 48.5h-301zM553 1178l-68 -383h297
q101 0 167.5 60.5t66.5 154.5q0 77 -48.5 122.5t-133.5 45.5h-281z" />
    <glyph glyph-name="Gamma" unicode="&#x393;" horiz-adv-x="1085" 
d="M84 0l242 1376h868l-37 -209h-596l-205 -1167h-272z" />
    <glyph glyph-name="Delta" unicode="&#x394;" horiz-adv-x="1378" 
d="M-35 0l27 160l727 1216h252l293 -1226l-27 -150h-1272zM805 1087l-520 -878h721z" />
    <glyph glyph-name="Epsilon" unicode="&#x395;" horiz-adv-x="1216" 
d="M84 0l242 1376h921l-35 -205h-649l-65 -366h583l-34 -201h-584l-70 -399h682l-37 -205h-954z" />
    <glyph glyph-name="Zeta" unicode="&#x396;" horiz-adv-x="1286" 
d="M-4 0l29 162l909 1005h-709l37 209h1069l-28 -162l-912 -1005h760l-37 -209h-1118z" />
    <glyph glyph-name="Eta" unicode="&#x397;" horiz-adv-x="1542" 
d="M84 0l242 1376h272l-98 -567h651l100 567h273l-242 -1376h-272l104 600h-651l-107 -600h-272z" />
    <glyph glyph-name="Theta" unicode="&#x398;" horiz-adv-x="1542" 
d="M100 535q0 186 60.5 347t166 275t254.5 179t320 65q273 0 439.5 -152.5t166.5 -406.5q0 -248 -103 -446t-286.5 -309.5t-412.5 -111.5q-271 0 -438 153t-167 407zM369 561q0 -173 99 -274t263 -101q145 0 261.5 81.5t181.5 225t65 322.5q0 173 -99 275t-263 102
q-145 0 -261.5 -82t-181.5 -226t-65 -323zM504 596l35 201h567l-35 -201h-567z" />
    <glyph glyph-name="Iota" unicode="&#x399;" horiz-adv-x="618" 
d="M84 0l242 1376h272l-242 -1376h-272z" />
    <glyph glyph-name="Kappa" unicode="&#x39a;" horiz-adv-x="1378" 
d="M84 0l242 1376h262l-111 -626l705 626h319l-715 -639l492 -737h-301l-385 586l-166 -146l-78 -440h-264z" />
    <glyph glyph-name="Lambda" unicode="&#x39b;" horiz-adv-x="1378" 
d="M-84 0l803 1376h252l315 -1376h-268l-219 1057l-594 -1057h-289z" />
    <glyph glyph-name="Mu" unicode="&#x39c;" horiz-adv-x="1722" 
d="M84 0l242 1376h247l316 -618l532 618h283l-242 -1376h-252l179 1008l-465 -535h-146l-268 524l-174 -997h-252z" />
    <glyph glyph-name="Nu" unicode="&#x39d;" horiz-adv-x="1542" 
d="M84 0l242 1376h258l514 -991l174 991h252l-242 -1376h-258l-514 991l-174 -991h-252z" />
    <glyph glyph-name="Xi" unicode="&#x39e;" horiz-adv-x="1286" 
d="M0 0l39 221h1108l-39 -221h-1108zM205 596l37 217h911l-37 -217h-911zM236 1155l38 221h1043l-37 -221h-1044z" />
    <glyph glyph-name="Omicron" unicode="&#x39f;" horiz-adv-x="1542" 
d="M100 535q0 186 60.5 347t166 275t254.5 179t320 65q273 0 439.5 -152.5t166.5 -406.5q0 -248 -103 -446t-286.5 -309.5t-412.5 -111.5q-271 0 -438 153t-167 407zM379 561q0 -171 96.5 -271t255.5 -100q140 0 254 81t179 224.5t65 319.5q0 171 -96.5 271t-255.5 100
q-140 0 -254 -81t-179 -224.5t-65 -319.5z" />
    <glyph glyph-name="Pi" unicode="&#x3a0;" horiz-adv-x="1542" 
d="M84 0l242 1376h1198l-242 -1376h-272l202 1167h-651l-205 -1167h-272z" />
    <glyph glyph-name="Rho" unicode="&#x3a1;" horiz-adv-x="1269" 
d="M84 0l242 1376h526q194 0 311 -110t117 -291q0 -143 -71 -258.5t-196.5 -181.5t-279.5 -66h-305l-82 -469h-262zM551 1167l-86 -487h248q134 0 217.5 75.5t83.5 196.5q0 98 -63.5 156.5t-172.5 58.5h-227z" />
    <glyph glyph-name="Sigma" unicode="&#x3a3;" horiz-adv-x="1236" 
d="M2 0l29 162l565 555l-358 485l30 174h1037l-37 -209h-703l295 -403l-22 -141l-426 -414h712l-37 -209h-1085z" />
    <glyph glyph-name="Tau" unicode="&#x3a4;" horiz-adv-x="1216" 
d="M383 0l205 1167h-428l39 209h1126l-37 -209h-428l-205 -1167h-272z" />
    <glyph glyph-name="Upsilon" unicode="&#x3a5;" horiz-adv-x="1247" 
d="M399 0l99 569l-367 807h285l254 -573l415 573h308l-625 -825l-96 -551h-273z" />
    <glyph glyph-name="Phi" unicode="&#x3a6;" horiz-adv-x="1591" 
d="M569 -66l33 191q-237 22 -371.5 156t-134.5 344q0 177 90.5 325t253 238.5t367.5 101.5l29 152h251l-30 -158q237 -22 372.5 -156t135.5 -344q0 -177 -90.5 -325t-253.5 -238.5t-369 -101.5l-31 -185h-252zM352 647q0 -132 74.5 -212t212.5 -99l133 745
q-185 -19 -302.5 -141t-117.5 -293zM1307 762q0 132 -74.5 212t-212.5 99l-131 -745q185 19 301.5 141t116.5 293z" />
    <glyph glyph-name="Chi" unicode="&#x3a7;" horiz-adv-x="1378" 
d="M-74 0l637 717l-364 659h290l265 -502l436 502h309l-606 -684l385 -692h-293l-283 535l-462 -535h-314z" />
    <glyph glyph-name="Psi" unicode="&#x3a8;" horiz-adv-x="1652" 
d="M606 0l64 369q-223 26 -356.5 168.5t-133.5 347.5q0 72 10 121l64 370h252l-62 -350q-14 -72 -14 -115q0 -131 74.5 -218.5t204.5 -102.5l139 786h252l-142 -792q168 5 277.5 97.5t138.5 256.5l78 438h252l-80 -448q-45 -255 -234.5 -405t-467.5 -158l-64 -365h-252z" />
    <glyph glyph-name="Omega" unicode="&#x3a9;" horiz-adv-x="1587" 
d="M-2 0l37 209h303q-80 89 -125 206t-45 242q0 217 94 387t262 263.5t383 93.5q172 0 308 -66t214 -190.5t78 -286.5q0 -192 -94 -357.5t-274 -291.5h303l-37 -209h-604l30 178q195 123 299.5 288.5t104.5 350.5q0 166 -97 267.5t-251 101.5q-195 0 -322.5 -148
t-130.5 -381q-1 -130 47 -255.5t135 -223.5l-30 -178h-588z" />
    <glyph glyph-name="Iotadieresis" unicode="&#x3aa;" horiz-adv-x="618" 
d="M84 0l242 1376h272l-242 -1376h-272zM594 1642q0 68 46.5 115t115.5 47q54 0 87.5 -33.5t33.5 -87.5q0 -69 -47 -115t-115 -46q-54 0 -87.5 33t-33.5 87zM137 1642q0 68 47.5 115t114.5 47q54 0 87.5 -33.5t33.5 -87.5q0 -69 -46.5 -115t-115.5 -46q-54 0 -87.5 33
t-33.5 87z" />
    <glyph glyph-name="Upsilondieresis" unicode="&#x3ab;" horiz-adv-x="1247" 
d="M399 0l99 569l-367 807h285l254 -573l415 573h308l-625 -825l-96 -551h-273zM893 1642q0 68 46.5 115t115.5 47q54 0 87.5 -33.5t33.5 -87.5q0 -69 -47 -115t-115 -46q-54 0 -87.5 33t-33.5 87zM436 1642q0 68 47 115t115 47q54 0 87.5 -33.5t33.5 -87.5
q0 -69 -46.5 -115t-115.5 -46q-54 0 -87.5 33t-33.5 87z" />
    <glyph glyph-name="alphatonos" unicode="&#x3ac;" horiz-adv-x="1325" 
d="M82 381q0 287 143.5 467t370.5 180q121 0 207 -64.5t127 -189.5l119 230h258l-271 -498q25 -190 54 -256t88 -66q19 0 47 4l12 -202q-68 -11 -113 -11q-98 0 -156.5 61t-86.5 210q-168 -271 -418 -271q-167 0 -274 114t-107 292zM332 412q0 -99 50.5 -160.5t131.5 -61.5
q82 0 148 74.5t139 243.5q-21 156 -68 230.5t-133 74.5q-118 0 -193 -111.5t-75 -289.5zM1073 1487l-223 -395l-166 71l195 408z" />
    <glyph glyph-name="epsilontonos" unicode="&#x3ad;" horiz-adv-x="899" 
d="M629 594l-29 -158h-98q-96 0 -155.5 -41.5t-59.5 -105.5q0 -51 42.5 -83t110.5 -32q118 0 285 66l59 -181q-216 -84 -399 -84q-159 0 -256.5 75.5t-97.5 197.5q0 94 62 169t161 105q-55 31 -87 85t-32 116q0 133 109.5 219t279.5 86q171 0 375 -92l-88 -180
q-160 73 -260 73q-74 0 -119 -35.5t-45 -93.5q0 -47 41 -76.5t107 -29.5h94zM877 1487l-224 -395l-166 71l195 408z" />
    <glyph glyph-name="etatonos" unicode="&#x3ae;" horiz-adv-x="1230" 
d="M78 0l129 731q4 20 4 33q0 55 -57 55q-13 0 -41 -4v199q72 14 133 14q86 0 144 -39t71 -106q133 145 346 145q148 0 241 -88t93 -229q0 -45 -11 -113l-180 -1024h-262l176 1010q8 40 8 67q0 75 -46.5 118.5t-123.5 43.5q-97 0 -169.5 -68t-92.5 -176l-100 -569h-262z
M1010 1487l-224 -395l-165 71l194 408z" />
    <glyph glyph-name="iotatonos" unicode="&#x3af;" horiz-adv-x="628" 
d="M485 1004l-127 -705q-4 -28 -4 -41q0 -35 22.5 -54.5t59.5 -19.5q9 0 78 11l12 -201q-112 -19 -176 -19q-119 0 -190.5 65t-71.5 171q0 36 6 76l129 717h262zM659 1487l-223 -395l-166 71l195 408z" />
    <glyph glyph-name="upsilondieresistonos" unicode="&#x3b0;" horiz-adv-x="1198" 
d="M850 1004h262q16 -164 16 -242q0 -359 -164.5 -573t-445.5 -214q-189 0 -305.5 104.5t-116.5 268.5q0 91 23.5 184.5t47 182t23.5 168.5q0 69 -8 121h262q9 -62 9 -132t-15 -142.5t-32.5 -123t-32.5 -110t-15 -105.5q0 -91 52.5 -146t140.5 -55q142 0 228.5 152t86.5 397
q0 115 -16 265zM891 1505l-213 -403l-117 47l187 414zM856 1270q0 64 43.5 107.5t106.5 43.5q51 0 81.5 -30.5t30.5 -81.5q0 -63 -43.5 -106.5t-107.5 -43.5q-49 0 -80 30.5t-31 80.5zM281 1270q0 64 43 107.5t106 43.5q51 0 82 -30.5t31 -81.5q0 -63 -43.5 -106.5
t-106.5 -43.5q-51 0 -81.5 30.5t-30.5 80.5z" />
    <glyph glyph-name="alpha" unicode="&#x3b1;" horiz-adv-x="1325" 
d="M82 381q0 287 143.5 467t370.5 180q121 0 207 -64.5t127 -189.5l119 230h258l-271 -498q25 -190 54 -256t88 -66q19 0 47 4l12 -202q-68 -11 -113 -11q-98 0 -156.5 61t-86.5 210q-168 -271 -418 -271q-167 0 -274 114t-107 292zM332 412q0 -99 50.5 -160.5t131.5 -61.5
q82 0 148 74.5t139 243.5q-21 156 -68 230.5t-133 74.5q-118 0 -193 -111.5t-75 -289.5z" />
    <glyph glyph-name="beta" unicode="&#x3b2;" horiz-adv-x="1181" 
d="M-29 -426l256 1456q35 204 178.5 320t358.5 116q181 0 296.5 -99.5t115.5 -256.5q0 -120 -72 -218t-180 -136q89 -36 138.5 -116.5t49.5 -182.5q0 -131 -63.5 -242t-174 -175.5t-243.5 -64.5q-96 0 -179 43t-128 119l-103 -563h-250zM567 653l35 201h74q101 0 172.5 67
t71.5 162q0 82 -51 130.5t-136 48.5q-96 0 -165.5 -60t-86.5 -162l-100 -563q-8 -54 -8 -80q2 -93 63 -153t158 -60q112 0 187 78.5t75 190.5q0 89 -60 144.5t-157 55.5h-72z" />
    <glyph glyph-name="gamma" unicode="&#x3b3;" horiz-adv-x="1083" 
d="M854 1004h258q-68 -285 -196 -523t-328 -450l-82 -457h-262l78 426l-203 1004h252l131 -709q268 316 352 709z" />
    <glyph glyph-name="delta" unicode="&#x3b4;" horiz-adv-x="1099" 
d="M37 371q0 155 96 290.5t266 225.5q-102 102 -102 235q0 149 116.5 246.5t291.5 97.5q170 0 370 -96l-78 -184q-152 82 -276 82q-75 0 -123.5 -38.5t-48.5 -99.5q0 -36 27 -71.5t70 -67t94.5 -66t103.5 -77t95 -91t70 -116t27 -145.5q0 -145 -74 -265t-202.5 -188
t-282.5 -68q-198 0 -319 112t-121 284zM293 401q0 -94 60.5 -157.5t150.5 -63.5q116 0 195.5 84t80.5 211q0 160 -200 287q-137 -66 -212 -160.5t-75 -200.5z" />
    <glyph glyph-name="epsilon" unicode="&#x3b5;" horiz-adv-x="899" 
d="M629 594l-29 -158h-98q-96 0 -155.5 -41.5t-59.5 -105.5q0 -51 42.5 -83t110.5 -32q118 0 285 66l59 -181q-216 -84 -399 -84q-159 0 -256.5 75.5t-97.5 197.5q0 94 62 169t161 105q-55 31 -87 85t-32 116q0 133 109.5 219t279.5 86q171 0 375 -92l-88 -180
q-160 73 -260 73q-74 0 -119 -35.5t-45 -93.5q0 -47 41 -76.5t107 -29.5h94z" />
    <glyph glyph-name="zeta" unicode="&#x3b6;" horiz-adv-x="931" 
d="M1067 1442l-29 -166q-364 -297 -539 -493t-175 -326q0 -95 66.5 -158t211.5 -104q115 -32 167 -90t52 -152q0 -147 -102 -315l-199 65q60 114 60 176q0 90 -127 127q-199 59 -297.5 161t-98.5 253q0 169 162 370t486 453h-469l34 199h797z" />
    <glyph glyph-name="eta" unicode="&#x3b7;" horiz-adv-x="1230" 
d="M78 0l129 731q4 20 4 33q0 55 -57 55q-13 0 -41 -4v199q72 14 133 14q86 0 144 -39t71 -106q133 145 346 145q148 0 241 -88t93 -229q0 -45 -11 -113l-180 -1024h-262l176 1010q8 40 8 67q0 75 -46.5 118.5t-123.5 43.5q-97 0 -169.5 -68t-92.5 -176l-100 -569h-262z" />
    <glyph glyph-name="theta" unicode="&#x3b8;" horiz-adv-x="1198" 
d="M111 489q0 277 79 500t223 350t326 127q197 0 310.5 -137.5t113.5 -376.5q0 -275 -79 -498t-223 -351t-326 -128q-197 0 -310.5 137.5t-113.5 376.5zM358 504q0 -158 50 -241t145 -83q116 0 204 125.5t126 331.5h-518q-7 -50 -7 -133zM717 1262q-112 0 -198.5 -117
t-125.5 -307h514q3 80 0 153q-8 132 -56 201.5t-134 69.5z" />
    <glyph glyph-name="iota" unicode="&#x3b9;" horiz-adv-x="628" 
d="M485 1004l-127 -705q-4 -28 -4 -41q0 -35 22.5 -54.5t59.5 -19.5q9 0 78 11l12 -201q-112 -19 -176 -19q-119 0 -190.5 65t-71.5 171q0 36 6 76l129 717h262z" />
    <glyph glyph-name="kappa" unicode="&#x3ba;" horiz-adv-x="1103" 
d="M45 0l178 1004h252l-74 -410l177 156q244 210 456 297l72 -209q-183 -71 -377 -232l-90 -78l344 -528h-281l-258 389l-94 -86l-53 -303h-252z" />
    <glyph glyph-name="lambda" unicode="&#x3bb;" horiz-adv-x="1083" 
d="M-80 0l588 997l-27 113q-18 78 -54 112.5t-95 34.5q-44 0 -92 -10l-23 201q86 18 166 18q266 0 336 -311l256 -1155h-256l-144 694l-376 -694h-279z" />
    <glyph glyph-name="mu" unicode="&#x3bc;" horiz-adv-x="1247" 
d="M-29 -426l252 1430h262l-104 -584q-6 -30 -6 -66q0 -75 46.5 -119.5t123.5 -44.5q98 0 169.5 68t90.5 176l102 570h262l-129 -732q-4 -20 -4 -32q0 -26 15 -41t43 -15q13 0 41 4v-198q-77 -15 -134 -15q-86 0 -143.5 39t-71.5 107q-56 -67 -130.5 -103t-151.5 -36
q-127 0 -187 69l-84 -477h-262z" />
    <glyph glyph-name="nu" unicode="&#x3bd;" horiz-adv-x="1083" 
d="M852 1004h260q-143 -603 -561 -1004h-229l-203 1004h252l131 -709q270 318 350 709z" />
    <glyph glyph-name="xi" unicode="&#x3be;" horiz-adv-x="931" 
d="M1018 1442l-33 -189h-182q-142 0 -231 -63t-89 -160q0 -72 56 -119t147 -47h123l-35 -188h-115q-153 0 -244 -67.5t-91 -178.5q0 -159 278 -235q115 -32 167 -90t52 -152q0 -139 -102 -315l-199 65q60 110 60 176q0 90 -127 127q-201 58 -298.5 154t-97.5 233
q0 127 82.5 227.5t227.5 151.5q-140 72 -140 225q0 79 53.5 152.5t141.5 114.5h-182l30 178h748z" />
    <glyph glyph-name="omicron" unicode="&#x3bf;" horiz-adv-x="1198" 
d="M66 397q0 179 77 323t216 226t313 82q207 0 334 -116t127 -306q0 -179 -77.5 -323t-217 -226t-314.5 -82q-207 0 -332.5 116.5t-125.5 305.5zM332 418q0 -108 60 -173t159 -65q135 0 225 116.5t90 289.5q0 107 -59.5 172t-159.5 65q-135 0 -225 -116t-90 -289z" />
    <glyph glyph-name="pi" unicode="&#x3c0;" horiz-adv-x="1329" 
d="M1339 1004l-34 -199h-181l-94 -529q-4 -28 -4 -36q0 -26 15.5 -41t41.5 -15q18 0 54 9l6 -203q-99 -15 -150 -15q-101 0 -163 59.5t-62 155.5q0 34 6 64l98 551h-344l-141 -805h-252l141 805h-180l35 199h1208z" />
    <glyph glyph-name="rho" unicode="&#x3c1;" horiz-adv-x="1198" 
d="M-47 -426l168 963q40 229 191 360t374 131q197 0 322 -118t125 -304q0 -130 -43 -247t-116.5 -201t-174.5 -133.5t-213 -49.5q-93 0 -165 36.5t-110 103.5l-96 -541h-262zM866 580q0 110 -58 176.5t-153 66.5q-104 0 -177 -68.5t-95 -187.5l-21 -116q-6 -60 -6 -66
q0 -88 58.5 -144.5t144.5 -56.5q131 0 219 113.5t88 282.5z" />
    <glyph glyph-name="sigma1" unicode="&#x3c2;" horiz-adv-x="974" 
d="M66 426q0 167 76.5 305t211 217.5t297.5 79.5q179 0 350 -92l-116 -186q-112 69 -223 69q-141 0 -234.5 -104t-93.5 -258q0 -93 62.5 -162t172.5 -100q115 -32 167 -90t52 -152q0 -137 -102 -315l-199 65q60 110 60 176q0 90 -127 127q-166 47 -260 159t-94 261z" />
    <glyph glyph-name="sigma" unicode="&#x3c3;" horiz-adv-x="1263" 
d="M66 387q0 283 165 450t449 167h643l-35 -199h-211q31 -109 31 -215q0 -175 -77 -315.5t-213.5 -220t-307.5 -79.5q-198 0 -321 114.5t-123 297.5zM332 408q0 -100 60 -164t155 -64q127 0 213 115.5t86 284.5q0 106 -33 225h-143q-153 0 -245.5 -109t-92.5 -288z" />
    <glyph glyph-name="tau" unicode="&#x3c4;" horiz-adv-x="958" 
d="M985 1004l-35 -199h-311l-90 -506q-4 -28 -4 -41q0 -35 22 -54.5t58 -19.5q11 0 80 11l12 -201q-112 -19 -178 -19q-118 0 -189 65t-71 171q0 36 6 76l92 518h-281l35 199h854z" />
    <glyph glyph-name="upsilon" unicode="&#x3c5;" horiz-adv-x="1198" 
d="M850 1004h262q16 -164 16 -242q0 -359 -164.5 -573t-445.5 -214q-189 0 -305.5 104.5t-116.5 268.5q0 91 23.5 184.5t47 182t23.5 168.5q0 69 -8 121h262q9 -62 9 -132t-15 -142.5t-32.5 -123t-32.5 -110t-15 -105.5q0 -91 52.5 -146t140.5 -55q142 0 228.5 152t86.5 397
q0 115 -16 265z" />
    <glyph glyph-name="phi" unicode="&#x3c6;" horiz-adv-x="1431" 
d="M434 -426l74 416q-200 29 -319 150t-119 296q0 247 171.5 408.5t446.5 175.5l74 422h231l-75 -428q200 -26 322 -149t122 -298q0 -245 -175 -407t-450 -176l-71 -410h-232zM305 461q0 -104 65 -176.5t175 -89.5l106 626q-157 -15 -251.5 -113.5t-94.5 -246.5zM1124 543
q0 104 -66.5 176.5t-176.5 89.5l-107 -627q156 15 253 114.5t97 246.5z" />
    <glyph glyph-name="chi" unicode="&#x3c7;" horiz-adv-x="1095" 
d="M1196 1004l-539 -717l76 -310q30 -118 64.5 -168.5t87.5 -50.5q23 0 69 11l27 -201q-74 -19 -139 -19q-112 0 -186.5 66t-104.5 197l-62 262l-372 -500h-277l568 750l-70 276q-28 116 -62.5 167.5t-87.5 51.5q-19 0 -69 -8l-29 201q63 16 139 16q228 0 293 -260l53 -231
l349 467h272z" />
    <glyph glyph-name="psi" unicode="&#x3c8;" horiz-adv-x="1488" 
d="M463 -426l72 412q-200 22 -316.5 132.5t-116.5 274.5q0 104 44 254.5t44 235.5q0 64 -8 121h236q8 -60 8 -132q0 -81 -22 -161.5t-44 -150.5t-22 -126q0 -100 61.5 -162.5t173.5 -74.5l195 1101h231l-194 -1108q175 29 279 185.5t104 392.5q0 93 -17 236h234
q18 -151 18 -216q0 -344 -174.5 -559t-482.5 -247l-72 -408h-231z" />
    <glyph glyph-name="omega" unicode="&#x3c9;" horiz-adv-x="1603" 
d="M967 762l-45 -252q-11 -75 -11 -141q0 -83 38.5 -131t101.5 -48q95 0 160 106t65 273q0 199 -62 435h254q66 -224 66 -414q0 -264 -140 -439.5t-343 -175.5q-120 0 -197 68t-94 188q-106 -256 -352 -256q-152 0 -241 111t-89 283q0 159 57.5 322.5t165.5 312.5h264
q-233 -309 -233 -613q0 -89 37 -145t96 -56q161 0 219 345l41 227h242z" />
    <glyph glyph-name="iotadieresis" unicode="&#x3ca;" horiz-adv-x="628" 
d="M485 1004l-127 -705q-4 -28 -4 -41q0 -35 22.5 -54.5t59.5 -19.5q9 0 78 11l12 -201q-112 -19 -176 -19q-119 0 -190.5 65t-71.5 171q0 36 6 76l129 717h262zM485 1270q0 68 46.5 115t115.5 47q54 0 87.5 -33.5t33.5 -87.5q0 -69 -47 -115.5t-115 -46.5q-54 0 -87.5 33.5
t-33.5 87.5zM29 1270q0 68 47 115t114 47q54 0 87.5 -33.5t33.5 -87.5q0 -69 -46 -115.5t-115 -46.5q-54 0 -87.5 33.5t-33.5 87.5z" />
    <glyph glyph-name="upsilondieresis" unicode="&#x3cb;" horiz-adv-x="1198" 
d="M850 1004h262q16 -164 16 -242q0 -359 -164.5 -573t-445.5 -214q-189 0 -305.5 104.5t-116.5 268.5q0 91 23.5 184.5t47 182t23.5 168.5q0 69 -8 121h262q9 -62 9 -132t-15 -142.5t-32.5 -123t-32.5 -110t-15 -105.5q0 -91 52.5 -146t140.5 -55q142 0 228.5 152t86.5 397
q0 115 -16 265zM786 1270q0 68 46.5 115t115.5 47q54 0 87.5 -33.5t33.5 -87.5q0 -69 -47 -115.5t-115 -46.5q-54 0 -87.5 33.5t-33.5 87.5zM330 1270q0 68 47 115t115 47q54 0 87 -33.5t33 -87.5q0 -69 -46 -115.5t-115 -46.5q-54 0 -87.5 33.5t-33.5 87.5z" />
    <glyph glyph-name="omicrontonos" unicode="&#x3cc;" horiz-adv-x="1198" 
d="M66 397q0 179 77 323t216 226t313 82q207 0 334 -116t127 -306q0 -179 -77.5 -323t-217 -226t-314.5 -82q-207 0 -332.5 116.5t-125.5 305.5zM332 418q0 -108 60 -173t159 -65q135 0 225 116.5t90 289.5q0 107 -59.5 172t-159.5 65q-135 0 -225 -116t-90 -289zM993 1487
l-223 -395l-166 71l195 408z" />
    <glyph glyph-name="upsilontonos" unicode="&#x3cd;" horiz-adv-x="1198" 
d="M850 1004h262q16 -164 16 -242q0 -359 -164.5 -573t-445.5 -214q-189 0 -305.5 104.5t-116.5 268.5q0 91 23.5 184.5t47 182t23.5 168.5q0 69 -8 121h262q9 -62 9 -132t-15 -142.5t-32.5 -123t-32.5 -110t-15 -105.5q0 -91 52.5 -146t140.5 -55q142 0 228.5 152t86.5 397
q0 115 -16 265zM961 1487l-224 -395l-166 71l195 408z" />
    <glyph glyph-name="omegatonos" unicode="&#x3ce;" horiz-adv-x="1603" 
d="M967 762l-45 -252q-11 -75 -11 -141q0 -83 38.5 -131t101.5 -48q95 0 160 106t65 273q0 199 -62 435h254q66 -224 66 -414q0 -264 -140 -439.5t-343 -175.5q-120 0 -197 68t-94 188q-106 -256 -352 -256q-152 0 -241 111t-89 283q0 159 57.5 322.5t165.5 312.5h264
q-233 -309 -233 -613q0 -89 37 -145t96 -56q161 0 219 345l41 227h242zM1196 1487l-223 -395l-166 71l194 408z" />
    <glyph glyph-name="uni03D0" unicode="&#x3d0;" horiz-adv-x="1099" 
d="M98 535q0 254 87.5 467.5t242.5 338.5t344 125q151 0 242.5 -84.5t91.5 -222.5q0 -98 -41 -185t-115 -149q94 -113 94 -282q0 -153 -66.5 -283t-185.5 -207.5t-262 -77.5q-200 0 -316 148.5t-116 411.5zM858 1122q1 64 -37 105t-98 41q-117 0 -210.5 -123.5
t-129.5 -315.5q43 -6 84 -6q174 0 282.5 86.5t108.5 212.5zM793 518q0 97 -50 174q-130 -57 -297 -57q-46 0 -90 6q-10 -65 -10 -127q0 -158 54.5 -249t144.5 -91q105 0 176.5 101.5t71.5 242.5z" />
    <glyph glyph-name="theta1" unicode="&#x3d1;" horiz-adv-x="1329" 
d="M1374 838l-35 -201h-172q-58 -308 -209.5 -485t-351.5 -177q-87 0 -151 21t-99 55.5t-60 78.5t-36 90t-24 90t-26 78.5t-41.5 55.5t-70.5 21q-36 0 -69 -8l-23 192q89 21 144 21q79 0 133.5 -27t82 -70t44.5 -95.5t30 -105t30.5 -95.5t53.5 -70t92 -27q98 0 179 122.5
t120 334.5h-59q-226 0 -364 116.5t-138 303.5q0 169 121.5 289t302.5 120q196 0 316 -133.5t120 -349.5q0 -47 -12 -145h172zM600 1073q0 -108 81 -171.5t222 -63.5h47q13 98 13 135q0 130 -52 209.5t-139 79.5q-75 0 -123.5 -55t-48.5 -134z" />
    <glyph glyph-name="phi1" unicode="&#x3d5;" horiz-adv-x="1497" 
d="M299 461q0 -104 68.5 -177t177.5 -87l84 467q29 163 142.5 263.5t268.5 100.5q163 0 265 -105t102 -272q0 -180 -86 -329t-239 -238t-343 -98l-71 -412h-232l74 418q-197 22 -319.5 146t-122.5 302q0 172 87 321t253 259l116 -176q-109 -71 -167 -169t-58 -214zM1178 631
q0 84 -42 136t-110 52q-62 0 -110.5 -48.5t-61.5 -129.5l-80 -457q179 23 291.5 147.5t112.5 299.5z" />
    <glyph glyph-name="uni0400" unicode="&#x400;" horiz-adv-x="1216" 
d="M84 0l242 1376h921l-35 -205h-649l-65 -366h583l-34 -201h-584l-70 -399h682l-37 -205h-954zM635 1870l360 -258l-104 -144l-373 240z" />
    <glyph glyph-name="afii10023" unicode="&#x401;" horiz-adv-x="1216" 
d="M84 0l242 1376h921l-35 -205h-649l-65 -366h583l-34 -201h-584l-70 -399h682l-37 -205h-954zM911 1642q0 68 46.5 115t115.5 47q54 0 87.5 -33.5t33.5 -87.5q0 -69 -47 -115t-115 -46q-54 0 -87.5 33t-33.5 87zM455 1642q0 68 47 115t114 47q54 0 87.5 -33.5t33.5 -87.5
q0 -69 -46.5 -115t-115.5 -46q-54 0 -87 33t-33 87z" />
    <glyph glyph-name="afii10051" unicode="&#x402;" horiz-adv-x="1708" 
d="M350 0l205 1167h-395l39 209h1126l-37 -209h-461l-65 -376q235 36 405 36q215 0 340 -102t125 -276q0 -131 -73 -240t-198.5 -171.5t-273.5 -62.5q-126 0 -303 56l72 205q119 -39 225 -39q116 0 194.5 64.5t78.5 162.5q0 89 -65.5 138.5t-184.5 49.5q-179 0 -379 -34
l-102 -578h-273z" />
    <glyph glyph-name="afii10052" unicode="&#x403;" horiz-adv-x="1085" 
d="M84 0l242 1376h868l-37 -209h-596l-205 -1167h-272zM1141 1698l-416 -230l-86 144l395 260z" />
    <glyph glyph-name="afii10053" unicode="&#x404;" horiz-adv-x="1331" 
d="M100 535q0 184 60 345t165 275.5t254.5 180t321.5 65.5q255 0 471 -150l-123 -176q-168 117 -342 117q-181 0 -311.5 -105t-185.5 -282h677l-34 -201h-678q-4 -51 -2 -80q10 -151 119 -245.5t270 -94.5q175 0 356 107l86 -176q-229 -140 -495 -140q-268 0 -438.5 154.5
t-170.5 405.5z" />
    <glyph glyph-name="afii10054" unicode="&#x405;" horiz-adv-x="1187" 
d="M186 981q0 182 144 301t366 119q254 0 510 -113l-88 -205q-233 103 -411 103q-115 0 -186.5 -52.5t-71.5 -136.5q0 -44 27 -79t71.5 -57.5t101 -46t115.5 -44t115.5 -53t101 -72t71.5 -102t27 -140.5q0 -190 -144.5 -309t-373.5 -119q-131 0 -274 32.5t-271 96.5l90 203
q240 -117 445 -117q121 0 193.5 54.5t72.5 142.5q0 52 -35 91t-90.5 65.5t-123 51t-134.5 55.5t-122.5 71.5t-90.5 106.5t-35 153z" />
    <glyph glyph-name="afii10055" unicode="&#x406;" horiz-adv-x="618" 
d="M84 0l242 1376h272l-242 -1376h-272z" />
    <glyph glyph-name="afii10056" unicode="&#x407;" horiz-adv-x="618" 
d="M84 0l242 1376h272l-242 -1376h-272zM594 1642q0 68 46.5 115t115.5 47q54 0 87.5 -33.5t33.5 -87.5q0 -69 -47 -115t-115 -46q-54 0 -87.5 33t-33.5 87zM137 1642q0 68 47.5 115t114.5 47q54 0 87.5 -33.5t33.5 -87.5q0 -69 -46.5 -115t-115.5 -46q-54 0 -87.5 33
t-33.5 87z" />
    <glyph glyph-name="afii10057" unicode="&#x408;" horiz-adv-x="925" 
d="M907 1376l-180 -1024q-31 -173 -153 -275t-304 -102q-140 0 -313 64l78 201q118 -43 205 -43t147.5 51.5t75.5 138.5l172 989h272z" />
    <glyph glyph-name="afii10058" unicode="&#x409;" horiz-adv-x="2281" 
d="M1079 0l205 1167h-559l-137 -780q-34 -195 -156 -303.5t-307 -108.5q-100 0 -203 29l53 209q72 -16 123 -16q93 0 154.5 56.5t79.5 168.5l170 954h1071l-92 -522h323q183 0 293.5 -103.5t110.5 -273.5q0 -203 -148.5 -340t-369.5 -137h-611zM1444 643l-78 -434h315
q120 0 195.5 68.5t75.5 177.5q0 89 -55.5 138.5t-153.5 49.5h-299z" />
    <glyph glyph-name="afii10059" unicode="&#x40a;" horiz-adv-x="2232" 
d="M1137 616h-684l-107 -616h-262l242 1376h262l-99 -555h685l98 555h252l-94 -555h339q176 0 280.5 -98.5t104.5 -261.5q0 -196 -143 -328.5t-356 -132.5h-625zM1391 621l-74 -422h315q117 0 189.5 66.5t72.5 172.5q0 86 -52.5 134.5t-147.5 48.5h-303z" />
    <glyph glyph-name="afii10060" unicode="&#x40b;" horiz-adv-x="1708" 
d="M350 0l205 1167h-395l39 209h1126l-37 -209h-461l-65 -374q211 34 401 34q192 0 310 -112t118 -295q0 -39 -12 -101l-55 -319h-273l54 303q6 43 6 74q0 106 -68 170.5t-180 64.5q-144 0 -338 -32l-102 -580h-273z" />
    <glyph glyph-name="afii10061" unicode="&#x40c;" horiz-adv-x="1378" 
d="M84 0l242 1376h262l-101 -567h136l546 567h308l-641 -659l434 -717h-295l-367 600h-157l-105 -600h-262zM1237 1698l-416 -230l-86 144l395 260z" />
    <glyph glyph-name="uni040D" unicode="&#x40d;" horiz-adv-x="1542" 
d="M84 0l242 1376h252l-172 -973l864 973h254l-242 -1376h-252l170 973l-862 -973h-254zM780 1870l361 -258l-105 -144l-372 240z" />
    <glyph glyph-name="afii10062" unicode="&#x40e;" horiz-adv-x="1302" 
d="M1448 1376l-717 -1128q-91 -140 -195 -206.5t-235 -66.5q-108 0 -233 39l67 209q86 -26 154 -26q61 0 109.5 30.5t95.5 100.5l20 30l-317 1018h262l223 -794l473 794h293zM545 1802h164q-10 -67 27.5 -108t109.5 -41q74 0 127.5 40.5t66.5 108.5h174q-26 -153 -130 -241
t-253 -88q-129 0 -209.5 74t-80.5 196q0 27 4 59z" />
    <glyph glyph-name="afii10145" unicode="&#x40f;" horiz-adv-x="1542" 
d="M84 0l242 1376h272l-205 -1167h654l204 1167h273l-242 -1376h-473l-64 -360h-251l63 360h-473z" />
    <glyph glyph-name="afii10017" unicode="&#x410;" horiz-adv-x="1378" 
d="M-84 0l803 1376h252l315 -1376h-258l-70 328h-579l-184 -328h-279zM805 1087l-318 -561h435z" />
    <glyph glyph-name="afii10018" unicode="&#x411;" horiz-adv-x="1312" 
d="M84 0l242 1376h948l-35 -198h-688l-62 -361h349q183 0 286 -95.5t103 -264.5q0 -195 -143 -326t-355 -131h-645zM455 616l-74 -417h315q114 0 186 66.5t72 170.5q0 82 -54 131t-146 49h-299z" />
    <glyph glyph-name="afii10019" unicode="&#x412;" horiz-adv-x="1335" 
d="M84 0l242 1376h567q184 0 285.5 -87t101.5 -242q0 -115 -59.5 -206t-163.5 -130q74 -33 118 -110.5t44 -182.5q0 -118 -64 -214t-176 -150t-250 -54h-645zM455 614l-72 -415h315q111 0 182.5 66.5t71.5 170.5q0 81 -51.5 129.5t-144.5 48.5h-301zM553 1178l-68 -383h297
q101 0 167.5 60.5t66.5 154.5q0 77 -48.5 122.5t-133.5 45.5h-281z" />
    <glyph glyph-name="afii10020" unicode="&#x413;" horiz-adv-x="1085" 
d="M84 0l242 1376h868l-37 -209h-596l-205 -1167h-272z" />
    <glyph glyph-name="afii10021" unicode="&#x414;" horiz-adv-x="1574" 
d="M-113 -360l101 569h114q180 239 244 579l105 588h1019l-206 -1167h196l-100 -569h-252l66 360h-971l-66 -360h-250zM1001 209l168 958h-493l-72 -399q-63 -333 -209 -559h606z" />
    <glyph glyph-name="afii10022" unicode="&#x415;" horiz-adv-x="1216" 
d="M84 0l242 1376h921l-35 -205h-649l-65 -366h583l-34 -201h-584l-70 -399h682l-37 -205h-954z" />
    <glyph glyph-name="afii10024" unicode="&#x416;" horiz-adv-x="2048" 
d="M807 0l106 600h-143l-534 -600h-297l641 727l-359 649h273l303 -567h151l103 567h252l-101 -567h135l508 567h293l-598 -667l381 -709h-276l-320 600h-160l-104 -600h-254z" />
    <glyph glyph-name="afii10025" unicode="&#x417;" horiz-adv-x="1105" 
d="M354 610l33 189h121q137 0 224 60.5t87 156.5q0 75 -57 122.5t-150 47.5q-160 0 -364 -66l-60 197q271 84 498 84q184 0 292.5 -92t108.5 -248q0 -128 -83.5 -224t-219.5 -135q106 -30 161.5 -110t55.5 -195q0 -179 -148.5 -300.5t-367.5 -121.5q-258 0 -520 125l101 199
q226 -109 401 -109q115 0 191.5 64t76.5 158q0 91 -70 144.5t-194 53.5h-117z" />
    <glyph glyph-name="afii10026" unicode="&#x418;" horiz-adv-x="1542" 
d="M84 0l242 1376h252l-172 -973l864 973h254l-242 -1376h-252l170 973l-862 -973h-254z" />
    <glyph glyph-name="afii10027" unicode="&#x419;" horiz-adv-x="1542" 
d="M84 0l242 1376h252l-172 -973l864 973h254l-242 -1376h-252l170 973l-862 -973h-254zM664 1802h163q-10 -67 28 -108t110 -41q74 0 127.5 40.5t66.5 108.5h174q-26 -153 -130 -241t-253 -88q-129 0 -210 74t-81 196q0 19 5 59z" />
    <glyph glyph-name="afii10028" unicode="&#x41a;" horiz-adv-x="1378" 
d="M84 0l242 1376h262l-101 -567h136l546 567h308l-641 -659l434 -717h-295l-367 600h-157l-105 -600h-262z" />
    <glyph glyph-name="afii10029" unicode="&#x41b;" horiz-adv-x="1640" 
d="M1606 1376l-242 -1376h-262l205 1167h-582l-137 -780q-34 -195 -156 -303.5t-307 -108.5q-100 0 -203 29l53 209q72 -16 123 -16q93 0 154.5 56.5t79.5 168.5l170 954h1104z" />
    <glyph glyph-name="afii10030" unicode="&#x41c;" horiz-adv-x="1722" 
d="M84 0l242 1376h247l316 -618l532 618h283l-242 -1376h-252l179 1008l-465 -535h-146l-268 524l-174 -997h-252z" />
    <glyph glyph-name="afii10031" unicode="&#x41d;" horiz-adv-x="1542" 
d="M84 0l242 1376h272l-98 -567h651l100 567h273l-242 -1376h-272l104 600h-651l-107 -600h-272z" />
    <glyph glyph-name="afii10032" unicode="&#x41e;" horiz-adv-x="1542" 
d="M100 535q0 186 60.5 347t166 275t254.5 179t320 65q273 0 439.5 -152.5t166.5 -406.5q0 -248 -103 -446t-286.5 -309.5t-412.5 -111.5q-271 0 -438 153t-167 407zM379 561q0 -171 96.5 -271t255.5 -100q140 0 254 81t179 224.5t65 319.5q0 171 -96.5 271t-255.5 100
q-140 0 -254 -81t-179 -224.5t-65 -319.5z" />
    <glyph glyph-name="afii10033" unicode="&#x41f;" horiz-adv-x="1542" 
d="M84 0l242 1376h1198l-242 -1376h-272l202 1167h-651l-205 -1167h-272z" />
    <glyph glyph-name="afii10034" unicode="&#x420;" horiz-adv-x="1269" 
d="M84 0l242 1376h526q194 0 311 -110t117 -291q0 -143 -71 -258.5t-196.5 -181.5t-279.5 -66h-305l-82 -469h-262zM551 1167l-86 -487h248q134 0 217.5 75.5t83.5 196.5q0 98 -63.5 156.5t-172.5 58.5h-227z" />
    <glyph glyph-name="afii10035" unicode="&#x421;" horiz-adv-x="1314" 
d="M100 535q0 184 60 345t165 275.5t254.5 180t321.5 65.5q256 0 475 -150l-127 -186q-171 119 -342 119q-116 0 -215 -47t-167.5 -129.5t-107 -196.5t-38.5 -246q0 -168 107 -270t276 -102q173 0 356 108l86 -186q-229 -140 -495 -140q-268 0 -438.5 154.5t-170.5 405.5z
" />
    <glyph glyph-name="afii10036" unicode="&#x422;" horiz-adv-x="1216" 
d="M383 0l205 1167h-428l39 209h1126l-37 -209h-428l-205 -1167h-272z" />
    <glyph glyph-name="afii10037" unicode="&#x423;" horiz-adv-x="1302" 
d="M1448 1376l-717 -1128q-91 -140 -195 -206.5t-235 -66.5q-108 0 -233 39l67 209q86 -26 154 -26q61 0 109.5 30.5t95.5 100.5l20 30l-317 1018h262l223 -794l473 794h293z" />
    <glyph glyph-name="afii10038" unicode="&#x424;" horiz-adv-x="1591" 
d="M569 -66l33 191q-237 22 -371.5 156t-134.5 344q0 177 90.5 325t253 238.5t367.5 101.5l29 152h251l-30 -158q237 -22 372.5 -156t135.5 -344q0 -177 -90.5 -325t-253.5 -238.5t-369 -101.5l-31 -185h-252zM352 647q0 -132 74.5 -212t212.5 -99l133 745
q-185 -19 -302.5 -141t-117.5 -293zM1307 762q0 132 -74.5 212t-212.5 99l-131 -745q185 19 301.5 141t116.5 293z" />
    <glyph glyph-name="afii10039" unicode="&#x425;" horiz-adv-x="1378" 
d="M-74 0l637 717l-364 659h290l265 -502l436 502h309l-606 -684l385 -692h-293l-283 535l-462 -535h-314z" />
    <glyph glyph-name="afii10040" unicode="&#x426;" horiz-adv-x="1630" 
d="M84 0l242 1376h272l-205 -1167h654l204 1167h273l-205 -1167h197l-101 -569h-252l64 360h-1143z" />
    <glyph glyph-name="afii10041" unicode="&#x427;" horiz-adv-x="1439" 
d="M905 0l96 551q-208 -35 -387 -35q-195 0 -314.5 116t-119.5 302q0 51 10 106l58 336h272l-55 -321q-6 -40 -6 -80q0 -109 71 -176.5t185 -67.5q155 0 323 33l109 612h272l-241 -1376h-273z" />
    <glyph glyph-name="afii10042" unicode="&#x428;" horiz-adv-x="2215" 
d="M84 0l242 1376h272l-205 -1167h529l202 1167h273l-203 -1167h526l203 1167h275l-242 -1376h-1872z" />
    <glyph glyph-name="afii10043" unicode="&#x429;" horiz-adv-x="2301" 
d="M84 0l242 1376h272l-205 -1167h529l202 1167h273l-203 -1167h526l203 1167h275l-205 -1167h190l-100 -569h-252l63 360h-1810z" />
    <glyph glyph-name="afii10044" unicode="&#x42a;" horiz-adv-x="1564" 
d="M160 1167l39 209h651l-92 -522h329q184 0 294 -103t110 -274q0 -203 -148.5 -340t-369.5 -137h-627l205 1167h-391zM721 643l-76 -434h309q120 0 195.5 68.5t75.5 177.5q0 89 -55.5 138.5t-153.5 49.5h-295z" />
    <glyph glyph-name="afii10045" unicode="&#x42b;" horiz-adv-x="1921" 
d="M84 0l242 1376h262l-92 -522h329q184 0 294 -103t110 -274q0 -203 -148.5 -340t-369.5 -137h-627zM459 643l-76 -434h309q120 0 195.5 68.5t75.5 177.5q0 89 -55.5 138.5t-153.5 49.5h-295zM1386 0l242 1376h273l-242 -1376h-273z" />
    <glyph glyph-name="afii10046" unicode="&#x42c;" horiz-adv-x="1318" 
d="M84 0l242 1376h262l-92 -522h329q184 0 294 -103t110 -274q0 -203 -148.5 -340t-369.5 -137h-627zM459 643l-76 -434h309q120 0 195.5 68.5t75.5 177.5q0 89 -55.5 138.5t-153.5 49.5h-295z" />
    <glyph glyph-name="afii10047" unicode="&#x42d;" horiz-adv-x="1331" 
d="M1294 842q0 -246 -102 -444t-284.5 -310.5t-411.5 -112.5q-255 0 -471 150l120 176q172 -117 344 -117q185 0 319.5 111t186.5 297h-684l37 201h672q3 45 -2 81q-19 144 -124 231t-261 87q-176 0 -357 -107l-83 177q225 139 495 139q268 0 437 -154t169 -405z" />
    <glyph glyph-name="afii10048" unicode="&#x42e;" horiz-adv-x="2144" 
d="M84 0l242 1376h272l-98 -561h260q74 265 276.5 425.5t474.5 160.5q268 0 432 -152.5t164 -406.5q0 -186 -59.5 -347t-163.5 -275t-251.5 -179.5t-317.5 -65.5q-230 0 -385.5 118t-192.5 321q-17 81 -14 180h-262l-105 -594h-272zM991 561q0 -170 96 -270.5t254 -100.5
q139 0 252 81t177.5 224.5t64.5 319.5q0 171 -95 271t-253 100q-212 0 -354 -178.5t-142 -446.5z" />
    <glyph glyph-name="afii10049" unicode="&#x42f;" horiz-adv-x="1335" 
d="M813 0l88 502h-194l-410 -502h-307l456 543q-110 37 -173.5 127.5t-63.5 216.5q0 137 70 249.5t191.5 176t270.5 63.5h576l-242 -1376h-262zM938 713l80 454h-258q-127 0 -205 -71.5t-78 -186.5q0 -91 57.5 -143.5t159.5 -52.5h244z" />
    <glyph glyph-name="afii10065" unicode="&#x430;" horiz-adv-x="1112" 
d="M35 266q0 165 131.5 262t355.5 97q103 0 211 -21l8 49q4 24 4 37q0 64 -49 104t-133 40q-141 0 -315 -58l-45 185q223 67 411 67q170 0 273.5 -86t103.5 -227q0 -43 -6 -78l-70 -381q-4 -20 -4 -31q0 -23 16 -37t44 -14q17 0 41 4l4 -188q-81 -15 -133 -15
q-78 0 -132 33.5t-73 93.5q-130 -127 -318 -127q-142 0 -233.5 83t-91.5 208zM287 301q0 -65 42.5 -103t116.5 -38q94 0 162.5 61.5t85.5 161.5l13 70q-81 20 -172 20q-113 0 -180.5 -47.5t-67.5 -124.5z" />
    <glyph glyph-name="afii10066" unicode="&#x431;" horiz-adv-x="1198" 
d="M1133 633q0 -183 -79 -334.5t-214 -237.5t-295 -86q-208 0 -330.5 139.5t-122.5 379.5q0 228 81.5 419.5t236 322t360.5 173.5l336 72l31 -201l-324 -70q-134 -32 -234.5 -116t-150.5 -203q131 137 324 137q172 0 276.5 -109t104.5 -286zM881 596q0 101 -58 162t-155 61
q-140 0 -232 -108.5t-92 -274.5q0 -106 63.5 -179t157.5 -73q137 0 226.5 117t89.5 295z" />
    <glyph glyph-name="afii10067" unicode="&#x432;" horiz-adv-x="1030" 
d="M45 0l176 1004h451q138 0 212 -65.5t74 -182.5q0 -78 -40.5 -143.5t-108.5 -96.5q53 -29 81 -82.5t28 -120.5q0 -132 -108.5 -222.5t-268.5 -90.5h-496zM365 438l-48 -260h193q72 0 117 41.5t45 106.5q-2 51 -35 81.5t-90 30.5h-182zM432 825l-43 -239h182
q63 0 104.5 37.5t41.5 97.5q0 49 -30.5 76.5t-82.5 27.5h-172z" />
    <glyph glyph-name="afii10068" unicode="&#x433;" horiz-adv-x="882" 
d="M45 0l178 1004h688l-34 -199h-426l-144 -805h-262z" />
    <glyph glyph-name="afii10069" unicode="&#x434;" horiz-adv-x="1214" 
d="M-106 -328l92 527h82q116 161 155 389l74 416h815l-141 -805h131l-92 -527h-242l59 328h-634l-60 -328h-239zM741 199l105 606h-352l-43 -240q-39 -209 -125 -366h415z" />
    <glyph glyph-name="afii10070" unicode="&#x435;" horiz-adv-x="1112" 
d="M1036 432h-714q-2 -19 2 -61q12 -90 82 -145.5t172 -55.5q131 0 278 86l80 -172q-204 -109 -399 -109q-213 0 -342 116t-129 306q0 275 165 453t420 178q180 0 296 -113.5t116 -291.5q0 -92 -27 -191zM625 834q-97 0 -175 -67.5t-106 -176.5h471q4 38 2 57
q-5 84 -56.5 135.5t-135.5 51.5z" />
    <glyph glyph-name="afii10072" unicode="&#x436;" horiz-adv-x="1566" 
d="M573 0l74 414h-84l-352 -414h-285l461 528l-246 476h254l197 -390h90l68 390h241l-69 -390h75l338 390h279l-426 -488l264 -516h-258l-209 414h-98l-72 -414h-242z" />
    <glyph glyph-name="afii10073" unicode="&#x437;" horiz-adv-x="899" 
d="M270 436l27 158h106q82 0 135.5 36t53.5 93q0 48 -35.5 77t-95.5 29q-100 0 -275 -59l-57 182q210 76 389 76q150 0 238 -70.5t88 -189.5q0 -84 -53.5 -152.5t-143.5 -99.5q66 -29 104 -88t37 -131q-5 -139 -121.5 -230.5t-295.5 -91.5q-201 0 -402 101l88 182
q171 -84 297 -84q78 0 127 39.5t49 99.5q0 54 -45.5 88.5t-117.5 34.5h-97z" />
    <glyph glyph-name="afii10074" unicode="&#x438;" horiz-adv-x="1198" 
d="M45 0l178 1004h242l-111 -619l576 619h223l-178 -1004h-242l109 621l-574 -621h-223z" />
    <glyph glyph-name="afii10075" unicode="&#x439;" horiz-adv-x="1198" 
d="M45 0l178 1004h242l-111 -619l576 619h223l-178 -1004h-242l109 621l-574 -621h-223zM426 1430h164q-10 -67 27.5 -108.5t109.5 -41.5q74 0 128 41t67 109h174q-26 -153 -130 -241.5t-253 -88.5q-129 0 -210 74t-81 196q0 28 4 60z" />
    <glyph glyph-name="afii10076" unicode="&#x43a;" horiz-adv-x="1071" 
d="M45 0l176 1004h252l-70 -390h74l357 390h294l-448 -492l287 -512h-271l-233 414h-94l-72 -414h-252z" />
    <glyph glyph-name="afii10077" unicode="&#x43b;" horiz-adv-x="1247" 
d="M1202 1004l-178 -1004h-252l143 805h-354l-92 -512q-26 -149 -123.5 -233.5t-245.5 -84.5q-67 0 -161 23l51 201q58 -15 84 -15q58 2 98 38.5t53 105.5l119 676h858z" />
    <glyph glyph-name="afii10078" unicode="&#x43c;" horiz-adv-x="1329" 
d="M45 0l178 1004h238l205 -412l354 412h264l-176 -1004h-242l115 649l-281 -321h-141l-160 315l-112 -643h-242z" />
    <glyph glyph-name="afii10079" unicode="&#x43d;" horiz-adv-x="1198" 
d="M45 0l178 1004h262l-71 -396h405l72 396h262l-178 -1004h-262l71 410h-405l-72 -410h-262z" />
    <glyph glyph-name="afii10080" unicode="&#x43e;" horiz-adv-x="1198" 
d="M66 397q0 179 77 323t216 226t313 82q207 0 334 -116t127 -306q0 -179 -77.5 -323t-217 -226t-314.5 -82q-207 0 -332.5 116.5t-125.5 305.5zM332 418q0 -108 60 -173t159 -65q135 0 225 116.5t90 289.5q0 107 -59.5 172t-159.5 65q-135 0 -225 -116t-90 -289z" />
    <glyph glyph-name="afii10081" unicode="&#x43f;" horiz-adv-x="1198" 
d="M975 0h-262l143 805h-405l-144 -805h-262l178 1004h930z" />
    <glyph glyph-name="afii10082" unicode="&#x440;" horiz-adv-x="1198" 
d="M-29 -426l252 1430h197l12 -121q136 145 322 145q174 0 276.5 -109t102.5 -296q0 -280 -149.5 -464t-377.5 -184q-91 0 -164.5 40t-111.5 110l-97 -551h-262zM866 592q0 98 -56.5 159.5t-147.5 61.5q-95 0 -168 -63.5t-91 -167.5l-22 -131q-6 -60 -6 -64q0 -87 53 -142
t137 -55q131 0 216 113.5t85 288.5z" />
    <glyph glyph-name="afii10083" unicode="&#x441;" horiz-adv-x="1007" 
d="M66 397q0 178 77.5 322.5t215.5 226.5t309 82q190 0 364 -108l-121 -183q-125 82 -237 82q-149 0 -245.5 -112.5t-96.5 -282.5q0 -107 68.5 -173.5t177.5 -66.5q116 0 249 78l80 -180q-188 -107 -385 -107q-201 0 -328.5 117.5t-127.5 304.5z" />
    <glyph glyph-name="afii10084" unicode="&#x442;" horiz-adv-x="942" 
d="M987 1004l-37 -199h-295l-141 -805h-262l141 805h-297l37 199h854z" />
    <glyph glyph-name="afii10085" unicode="&#x443;" horiz-adv-x="1083" 
d="M1157 1004l-663 -1154q-88 -155 -187.5 -228t-222.5 -73q-81 0 -160 23l49 203q59 -17 105 -17q60 0 106.5 36t91.5 114l60 106l-234 990h258l140 -695l379 695h278z" />
    <glyph glyph-name="afii10086" unicode="&#x444;" horiz-adv-x="1431" 
d="M434 -426l74 416q-200 29 -319 150t-119 296q0 247 171.5 408.5t446.5 175.5l74 422h231l-75 -428q200 -26 322 -149t122 -298q0 -245 -175 -407t-450 -176l-71 -410h-232zM305 461q0 -104 65 -176.5t175 -89.5l106 626q-157 -15 -251.5 -113.5t-94.5 -246.5zM1124 543
q0 104 -66.5 176.5t-176.5 89.5l-107 -627q156 15 253 114.5t97 246.5z" />
    <glyph glyph-name="afii10087" unicode="&#x445;" horiz-adv-x="1083" 
d="M-80 0l467 524l-264 480h276l168 -326l285 326h293l-443 -498l277 -506h-281l-176 350l-303 -350h-299z" />
    <glyph glyph-name="afii10088" unicode="&#x446;" horiz-adv-x="1251" 
d="M45 0l178 1004h262l-141 -805h406l141 805h262l-141 -805h131l-94 -527h-242l57 328h-819z" />
    <glyph glyph-name="afii10089" unicode="&#x447;" horiz-adv-x="1116" 
d="M631 0l67 383q-151 -23 -262 -23q-145 0 -234 86t-89 224q0 28 8 78l47 256h262l-45 -242q-6 -48 -6 -49q0 -65 45 -106.5t113 -41.5q91 0 196 15l76 424h262l-178 -1004h-262z" />
    <glyph glyph-name="afii10090" unicode="&#x448;" horiz-adv-x="1734" 
d="M45 0l178 1004h262l-141 -805h340l141 805h262l-141 -805h338l141 805h263l-177 -1004h-1466z" />
    <glyph glyph-name="afii10091" unicode="&#x449;" horiz-adv-x="1787" 
d="M45 0l178 1004h262l-141 -805h340l141 805h262l-141 -805h338l141 805h263l-142 -805h131l-92 -527h-242l58 328h-1356z" />
    <glyph glyph-name="afii10092" unicode="&#x44a;" horiz-adv-x="1214" 
d="M229 0l142 805h-275l37 199h516l-63 -353h235q139 0 223 -77t84 -205q0 -157 -113 -263t-280 -106h-506zM553 459l-47 -266h217q69 0 114.5 41.5t45.5 107.5q0 53 -33 85t-90 32h-207z" />
    <glyph glyph-name="afii10093" unicode="&#x44b;" horiz-adv-x="1558" 
d="M45 0l178 1004h242l-64 -353h236q139 0 223 -77t84 -205q0 -157 -113 -263t-280 -106h-506zM369 459l-47 -266h217q69 0 113 41.5t44 107.5q0 53 -32.5 85t-88.5 32h-206zM1075 0l176 1004h262l-176 -1004h-262z" />
    <glyph glyph-name="afii10094" unicode="&#x44c;" horiz-adv-x="1030" 
d="M45 0l178 1004h242l-64 -353h236q139 0 223 -77t84 -205q0 -157 -113 -263t-280 -106h-506zM369 459l-47 -266h217q69 0 113 41.5t44 107.5q0 53 -32.5 85t-88.5 32h-206z" />
    <glyph glyph-name="afii10095" unicode="&#x44d;" horiz-adv-x="1034" 
d="M971 606q0 -178 -78 -322.5t-216.5 -226.5t-309.5 -82q-188 0 -365 113l113 168q122 -86 245 -86q114 0 201.5 70.5t124.5 187.5h-455l33 168h443q0 7 -5 47q-14 83 -80.5 137t-160.5 54q-129 0 -258 -74l-74 164q188 104 383 104q202 0 330.5 -117.5t128.5 -304.5z" />
    <glyph glyph-name="afii10096" unicode="&#x44e;" horiz-adv-x="1695" 
d="M45 0l178 1004h262l-71 -396h215q59 190 208 305t349 115t322 -114.5t122 -303.5q0 -181 -75.5 -326t-211 -227t-305.5 -82q-164 0 -276.5 84t-145.5 226q-18 70 -18 125h-219l-72 -410h-262zM846 418q0 -108 57 -173t152 -65q130 0 216.5 117t86.5 291q0 106 -57 170.5
t-152 64.5q-130 0 -216.5 -115.5t-86.5 -289.5z" />
    <glyph glyph-name="afii10097" unicode="&#x44f;" horiz-adv-x="1071" 
d="M1026 1004l-178 -1004h-242l60 338h-140l-270 -338h-289l324 379q-72 35 -113 101.5t-41 150.5q0 158 116 265.5t286 107.5h487zM700 526l52 289h-191q-78 0 -127 -45.5t-49 -116.5q0 -57 36 -92t97 -35h182z" />
    <glyph glyph-name="uni0450" unicode="&#x450;" horiz-adv-x="1112" 
d="M1036 432h-714q-2 -19 2 -61q12 -90 82 -145.5t172 -55.5q131 0 278 86l80 -172q-204 -109 -399 -109q-213 0 -342 116t-129 306q0 275 165 453t420 178q180 0 296 -113.5t116 -291.5q0 -92 -27 -191zM625 834q-97 0 -175 -67.5t-106 -176.5h471q4 38 2 57
q-5 84 -56.5 135.5t-135.5 51.5zM524 1497l361 -258l-105 -143l-372 239z" />
    <glyph glyph-name="afii10071" unicode="&#x451;" horiz-adv-x="1112" 
d="M1036 432h-714q-2 -19 2 -61q12 -90 82 -145.5t172 -55.5q131 0 278 86l80 -172q-204 -109 -399 -109q-213 0 -342 116t-129 306q0 275 165 453t420 178q180 0 296 -113.5t116 -291.5q0 -92 -27 -191zM625 834q-97 0 -175 -67.5t-106 -176.5h471q4 38 2 57
q-5 84 -56.5 135.5t-135.5 51.5zM801 1270q0 68 46.5 115t115.5 47q54 0 87 -33.5t33 -87.5q0 -69 -46.5 -115.5t-114.5 -46.5q-54 0 -87.5 33.5t-33.5 87.5zM344 1270q0 68 47 115t115 47q54 0 87.5 -33.5t33.5 -87.5q0 -69 -46.5 -115.5t-115.5 -46.5q-54 0 -87.5 33.5
t-33.5 87.5z" />
    <glyph glyph-name="afii10099" unicode="&#x452;" horiz-adv-x="1198" 
d="M45 0l199 1128h-121l31 181h120l25 133h262l-24 -133h331l-30 -181h-332l-41 -235q60 64 140.5 99.5t166.5 35.5q149 0 242.5 -88t93.5 -229q0 -51 -10 -113l-135 -754q-23 -135 -121.5 -215t-243.5 -80q-100 0 -246 48l78 192q95 -31 137 -31q54 0 92.5 33.5t49.5 89.5
l122 703q9 45 9 67q0 75 -46.5 118.5t-123.5 43.5q-98 0 -170.5 -68t-91.5 -176l-101 -569h-262z" />
    <glyph glyph-name="afii10100" unicode="&#x453;" horiz-adv-x="882" 
d="M45 0l178 1004h688l-34 -199h-426l-144 -805h-262zM922 1325l-416 -229l-86 143l395 260z" />
    <glyph glyph-name="afii10101" unicode="&#x454;" horiz-adv-x="1034" 
d="M66 397q0 178 77.5 322.5t215.5 226.5t309 82q190 0 364 -108l-110 -170q-122 84 -246 84q-112 0 -198 -66t-122 -172h449l-31 -168h-448q0 -7 6 -61q12 -87 79.5 -142t163.5 -55q121 0 259 74l73 -162q-188 -107 -385 -107q-201 0 -328.5 117.5t-127.5 304.5z" />
    <glyph glyph-name="afii10102" unicode="&#x455;" horiz-adv-x="931" 
d="M121 705q0 139 112 231t283 92q178 0 377 -86l-88 -190q-163 77 -281 77q-66 0 -106.5 -30.5t-40.5 -79.5q0 -31 24 -54t62.5 -38.5t85 -31t93 -38t85 -52t62.5 -80t24 -116.5q0 -147 -112.5 -240.5t-290.5 -93.5q-215 0 -410 97l88 188q193 -86 313 -86q70 0 113 33
t43 86q0 33 -24 57.5t-62.5 41t-85 32.5t-93 38t-85 51t-62.5 78.5t-24 113.5z" />
    <glyph glyph-name="afii10103" unicode="&#x456;" horiz-adv-x="530" 
d="M45 0l178 1004h262l-178 -1004h-262zM242 1268q0 75 52.5 127.5t127.5 52.5q60 0 97.5 -37.5t37.5 -97.5q0 -76 -52.5 -128t-127.5 -52q-60 0 -97.5 37.5t-37.5 97.5z" />
    <glyph glyph-name="afii10104" unicode="&#x457;" horiz-adv-x="530" 
d="M45 0l178 1004h262l-178 -1004h-262zM485 1270q0 68 46.5 115t115.5 47q54 0 87.5 -33.5t33.5 -87.5q0 -69 -47 -115.5t-115 -46.5q-54 0 -87.5 33.5t-33.5 87.5zM29 1270q0 68 47 115t114 47q54 0 87.5 -33.5t33.5 -87.5q0 -69 -46 -115.5t-115 -46.5q-54 0 -87.5 33.5
t-33.5 87.5z" />
    <glyph glyph-name="afii10105" unicode="&#x458;" horiz-adv-x="546" 
d="M502 1004l-207 -1160q-23 -135 -121.5 -215t-243.5 -80q-99 0 -245 48l77 192q95 -31 138 -31q54 0 93 33.5t48 87.5l199 1125h262zM258 1268q0 75 52.5 127.5t127.5 52.5q60 0 97.5 -37.5t37.5 -97.5q0 -76 -52.5 -128t-127.5 -52q-60 0 -97.5 37.5t-37.5 97.5z" />
    <glyph glyph-name="afii10106" unicode="&#x459;" horiz-adv-x="1722" 
d="M756 0l143 805h-338l-92 -512q-26 -149 -123.5 -233.5t-245.5 -84.5q-67 0 -161 23l51 201q58 -15 84 -15q58 2 98 38.5t53 105.5l119 676h830l-60 -353h217q137 0 222 -77.5t85 -204.5q0 -157 -113 -263t-280 -106h-489zM1079 459l-47 -266h199q71 0 115.5 41.5
t44.5 107.5q0 53 -32.5 85t-90.5 32h-189z" />
    <glyph glyph-name="afii10107" unicode="&#x45a;" horiz-adv-x="1689" 
d="M713 0l75 434h-415l-76 -434h-252l178 1004h252l-67 -379h415l68 379h239l-63 -379h242q131 0 213 -75.5t82 -195.5q0 -149 -110 -251.5t-271 -102.5h-510zM1032 442l-45 -260h211q69 0 113.5 41t44.5 107q0 50 -33 81t-88 31h-203z" />
    <glyph glyph-name="afii10108" unicode="&#x45b;" horiz-adv-x="1198" 
d="M45 0l199 1128h-121l31 181h120l25 133h262l-24 -133h331l-30 -181h-332l-41 -235q60 64 140.5 99.5t166.5 35.5q149 0 242.5 -88t93.5 -229q0 -51 -10 -113l-107 -598h-262l102 584q9 45 9 67q0 75 -46.5 118.5t-123.5 43.5q-98 0 -170.5 -68t-91.5 -176l-101 -569h-262
z" />
    <glyph glyph-name="afii10109" unicode="&#x45c;" horiz-adv-x="1071" 
d="M45 0l176 1004h252l-70 -390h74l357 390h294l-448 -492l287 -512h-271l-233 414h-94l-72 -414h-252zM1001 1325l-415 -229l-86 143l395 260z" />
    <glyph glyph-name="uni045D" unicode="&#x45d;" horiz-adv-x="1198" 
d="M45 0l178 1004h242l-111 -619l576 619h223l-178 -1004h-242l109 621l-574 -621h-223zM543 1497l360 -258l-104 -143l-373 239z" />
    <glyph glyph-name="afii10110" unicode="&#x45e;" horiz-adv-x="1083" 
d="M1157 1004l-663 -1154q-88 -155 -187.5 -228t-222.5 -73q-81 0 -160 23l49 203q59 -17 105 -17q60 0 106.5 36t91.5 114l60 106l-234 990h258l140 -695l379 695h278zM352 1430h164q-10 -67 27.5 -108.5t109.5 -41.5q74 0 128 41t67 109h174q-26 -153 -130 -241.5
t-253 -88.5q-129 0 -210 74t-81 196q0 28 4 60z" />
    <glyph glyph-name="afii10193" unicode="&#x45f;" horiz-adv-x="1198" 
d="M45 0l178 1004h262l-143 -805h406l143 805h262l-178 -1004h-344l-60 -328h-241l59 328h-344z" />
    <glyph glyph-name="afii10050" unicode="&#x490;" horiz-adv-x="1085" 
d="M84 0l242 1376h616l57 328h252l-94 -537h-596l-205 -1167h-272z" />
    <glyph glyph-name="afii10098" unicode="&#x491;" horiz-adv-x="882" 
d="M45 0l178 1004h453l57 327h242l-94 -526h-432l-142 -805h-262z" />
    <glyph glyph-name="uni0492" unicode="&#x492;" horiz-adv-x="1118" 
d="M117 0l96 551h-160l35 199h160l110 626h869l-37 -209h-596l-74 -417h359l-33 -199h-359l-98 -551h-272z" />
    <glyph glyph-name="uni0493" unicode="&#x493;" horiz-adv-x="899" 
d="M61 0l66 377h-129l35 190h129l78 437h688l-37 -199h-426l-41 -238h238l-35 -190h-238l-65 -377h-263z" />
    <glyph glyph-name="uni049A" unicode="&#x49a;" horiz-adv-x="1470" 
d="M84 0l242 1376h262l-101 -567h136l546 567h310l-643 -659l317 -508h205l-101 -569h-251l63 360h-94l-367 600h-157l-105 -600h-262z" />
    <glyph glyph-name="uni049B" unicode="&#x49b;" horiz-adv-x="1146" 
d="M45 0l176 1004h252l-70 -390h74l357 390h294l-446 -486l190 -319h160l-92 -527h-242l58 328h-60l-231 414h-96l-72 -414h-252z" />
    <glyph glyph-name="uni04A2" unicode="&#x4a2;" horiz-adv-x="1630" 
d="M1227 0h-217l104 600h-651l-107 -600h-272l242 1376h272l-98 -567h651l100 567h273l-205 -1167h197l-101 -569h-252z" />
    <glyph glyph-name="uni04A3" unicode="&#x4a3;" horiz-adv-x="1241" 
d="M45 0l178 1004h262l-71 -396h405l72 396h262l-143 -805h131l-92 -527h-242l57 328h-151l71 410h-405l-72 -410h-262z" />
    <glyph glyph-name="uni04AE" unicode="&#x4ae;" horiz-adv-x="1247" 
d="M399 0l99 569l-367 807h285l254 -573l415 573h308l-625 -825l-96 -551h-273z" />
    <glyph glyph-name="uni04AF" unicode="&#x4af;" horiz-adv-x="1083" 
d="M1157 1004l-569 -979l-80 -451h-262l80 453l-224 977h258l138 -695l381 695h278z" />
    <glyph glyph-name="uni04B0" unicode="&#x4b0;" horiz-adv-x="1263" 
d="M399 0l82 471h-286l36 209h220l-320 696h285l252 -573l417 573h308l-531 -696h215l-37 -209h-286l-82 -471h-273z" />
    <glyph glyph-name="uni04B1" unicode="&#x4b1;" horiz-adv-x="1083" 
d="M1157 1004l-506 -871h215l-32 -178h-259l-67 -381h-262l67 381h-260l31 178h217l-199 871h258l138 -695l381 695h278z" />
    <glyph glyph-name="uni04BA" unicode="&#x4ba;" horiz-adv-x="1439" 
d="M598 1376l-96 -551q208 35 387 35q195 0 314.5 -116t119.5 -302q0 -51 -10 -106l-58 -336h-272l53 322q8 36 8 79q0 109 -71 176.5t-185 67.5q-155 0 -323 -33l-109 -612h-272l242 1376h272z" />
    <glyph glyph-name="uni04BB" unicode="&#x4bb;" horiz-adv-x="1198" 
d="M45 0l254 1442h262l-96 -549q60 64 140.5 99.5t166.5 35.5q149 0 242.5 -88t93.5 -229q0 -51 -10 -113l-107 -598h-262l102 584q9 45 9 67q0 75 -46.5 118.5t-123.5 43.5q-98 0 -170.5 -68t-91.5 -176l-101 -569h-262z" />
    <glyph glyph-name="uni04D8" unicode="&#x4d8;" horiz-adv-x="1433" 
d="M102 762h1024q8 46 2 106q-12 147 -118 235.5t-269 88.5q-197 0 -401 -115l-88 183q264 141 530 141q278 0 447.5 -152t169.5 -407q0 -185 -59 -346t-161.5 -275.5t-247 -180t-310.5 -65.5q-242 0 -394.5 151.5t-152.5 393.5q0 127 28 242zM647 184q163 0 289.5 108.5
t167.5 289.5h-770q-6 -44 -6 -93q4 -138 92.5 -221.5t226.5 -83.5z" />
    <glyph glyph-name="afii10846" unicode="&#x4d9;" horiz-adv-x="1112" 
d="M74 571h714q2 21 -2 62q-11 89 -81 145t-173 56q-134 0 -276 -86l-82 172q200 108 401 108q212 0 342 -116t130 -306q0 -275 -165.5 -453t-420.5 -178q-180 0 -296 114.5t-116 291.5q0 87 25 190zM485 170q98 0 175.5 67.5t105.5 176.5h-471q-2 -18 -2 -58q5 -84 57 -135
t135 -51z" />
    <glyph glyph-name="uni04E8" unicode="&#x4e8;" horiz-adv-x="1542" 
d="M100 535q0 186 60 347t165.5 275t254.5 179t321 65q274 0 440 -152.5t166 -406.5q0 -248 -102.5 -446t-286 -309.5t-413.5 -111.5q-272 0 -438.5 153t-166.5 407zM731 182q178 0 310 117t180 311h-861q0 -67 13 -137q22 -136 117.5 -213.5t240.5 -77.5zM877 1196
q-171 0 -300 -108t-182 -289h848q0 57 -16 116q-22 130 -116.5 205.5t-233.5 75.5z" />
    <glyph glyph-name="uni04E9" unicode="&#x4e9;" horiz-adv-x="1198" 
d="M66 397q0 179 77 323t216 226t313 82q207 0 334 -116t127 -306q0 -179 -77.5 -323t-217 -226t-314.5 -82q-207 0 -332.5 116.5t-125.5 305.5zM551 170q109 0 191.5 71.5t115.5 190.5h-543q0 -32 11 -78q14 -85 74 -134.5t151 -49.5zM647 834q-106 0 -187.5 -67
t-115.5 -177h535q0 22 -13 65q-14 81 -72.5 130t-146.5 49z" />
    <glyph glyph-name="Wgrave" unicode="&#x1e80;" horiz-adv-x="2050" 
d="M2179 1376l-678 -1376h-254l-127 1044l-483 -1044h-252l-199 1376h254l125 -1044l484 1044h245l127 -1044l484 1044h274zM1034 1870l361 -258l-105 -144l-372 240z" />
    <glyph glyph-name="wgrave" unicode="&#x1e81;" horiz-adv-x="1607" 
d="M1665 1004l-510 -1004h-244l-80 682l-313 -682h-237l-162 1004h248l82 -682l313 682h235l80 -682l318 682h270zM731 1497l361 -258l-105 -143l-373 239z" />
    <glyph glyph-name="Wacute" unicode="&#x1e82;" horiz-adv-x="2050" 
d="M2179 1376l-678 -1376h-254l-127 1044l-483 -1044h-252l-199 1376h254l125 -1044l484 1044h245l127 -1044l484 1044h274zM1556 1698l-415 -230l-86 144l395 260z" />
    <glyph glyph-name="wacute" unicode="&#x1e83;" horiz-adv-x="1607" 
d="M1665 1004l-510 -1004h-244l-80 682l-313 -682h-237l-162 1004h248l82 -682l313 682h235l80 -682l318 682h270zM1253 1325l-415 -229l-86 143l395 260z" />
    <glyph glyph-name="Wdieresis" unicode="&#x1e84;" horiz-adv-x="2050" 
d="M2179 1376l-678 -1376h-254l-127 1044l-483 -1044h-252l-199 1376h254l125 -1044l484 1044h245l127 -1044l484 1044h274zM1311 1642q0 68 46.5 115t115.5 47q54 0 87 -33.5t33 -87.5q0 -69 -46.5 -115t-114.5 -46q-54 0 -87.5 33t-33.5 87zM854 1642q0 68 47 115t115 47
q54 0 87.5 -33.5t33.5 -87.5q0 -69 -46.5 -115t-115.5 -46q-54 0 -87.5 33t-33.5 87z" />
    <glyph glyph-name="wdieresis" unicode="&#x1e85;" horiz-adv-x="1607" 
d="M1665 1004l-510 -1004h-244l-80 682l-313 -682h-237l-162 1004h248l82 -682l313 682h235l80 -682l318 682h270zM1008 1270q0 68 46 115t115 47q54 0 87.5 -33.5t33.5 -87.5q0 -69 -47 -115.5t-115 -46.5q-54 0 -87 33.5t-33 87.5zM551 1270q0 68 47.5 115t114.5 47
q54 0 87.5 -33.5t33.5 -87.5q0 -69 -46.5 -115.5t-115.5 -46.5q-54 0 -87.5 33.5t-33.5 87.5z" />
    <glyph glyph-name="uni1E9E" unicode="&#x1e9e;" horiz-adv-x="1607" 
d="M84 0l242 1376h1243l-29 -166l-350 -387q118 -34 188 -131.5t70 -230.5t-71.5 -244.5t-197.5 -176.5t-280 -65q-204 0 -395 125l117 189q153 -99 282 -99q119 0 199 72.5t80 177.5q0 96 -65.5 157.5t-178.5 61.5h-37l-22 136l338 372h-666l-205 -1167h-262z" />
    <glyph glyph-name="Ygrave" unicode="&#x1ef2;" horiz-adv-x="1247" 
d="M399 0l99 569l-367 807h285l254 -573l415 573h308l-625 -825l-96 -551h-273zM616 1870l361 -258l-105 -144l-372 240z" />
    <glyph glyph-name="ygrave" unicode="&#x1ef3;" horiz-adv-x="1083" 
d="M1157 1004l-663 -1154q-88 -155 -187.5 -228t-222.5 -73q-81 0 -160 23l49 203q59 -17 105 -17q60 0 106.5 36t91.5 114l60 106l-234 990h258l140 -695l379 695h278zM469 1497l360 -258l-104 -143l-373 239z" />
    <glyph glyph-name="uni2010" unicode="&#x2010;" horiz-adv-x="655" 
d="M29 414l37 200h565l-35 -200h-567z" />
    <glyph glyph-name="uni2011" unicode="&#x2011;" horiz-adv-x="655" 
d="M29 414l37 200h565l-35 -200h-567z" />
    <glyph glyph-name="figuredash" unicode="&#x2012;" 
d="M94 604l29 168h1026l-31 -168h-1024z" />
    <glyph glyph-name="endash" unicode="&#x2013;" horiz-adv-x="983" 
d="M29 414l37 200h892l-34 -200h-895z" />
    <glyph glyph-name="emdash" unicode="&#x2014;" horiz-adv-x="1966" 
d="M29 414l37 200h1876l-35 -200h-1878z" />
    <glyph glyph-name="afii00208" unicode="&#x2015;" horiz-adv-x="1966" 
d="M29 414l37 200h1876l-35 -200h-1878z" />
    <glyph glyph-name="quoteleft" unicode="&#x2018;" horiz-adv-x="542" 
d="M514 961q0 -78 -54 -132.5t-132 -54.5q-67 0 -106.5 46.5t-39.5 123.5q0 132 91 257t249 208l68 -104q-147 -93 -193 -215q54 -5 85.5 -38.5t31.5 -90.5z" />
    <glyph glyph-name="quoteright" unicode="&#x2019;" horiz-adv-x="542" 
d="M233 1210q0 80 53.5 133.5t133.5 53.5q67 0 105 -45.5t38 -122.5q0 -133 -90 -257.5t-248 -207.5l-67 102q147 97 192 215q-53 5 -85 39t-32 90z" />
    <glyph glyph-name="quotesinglbase" unicode="&#x201a;" horiz-adv-x="542" 
d="M41 119q0 79 53.5 132.5t132.5 53.5q67 0 105.5 -45.5t38.5 -122.5q0 -133 -90 -257.5t-248 -207.5l-68 103q149 98 193 215q-53 5 -85 39t-32 90z" />
    <glyph glyph-name="quotedblleft" unicode="&#x201c;" horiz-adv-x="995" 
d="M514 961q0 -78 -54 -132.5t-132 -54.5q-67 0 -106.5 46.5t-39.5 123.5q0 132 91 257t249 208l68 -104q-147 -93 -193 -215q54 -5 85.5 -38.5t31.5 -90.5zM967 961q0 -78 -54.5 -132.5t-132.5 -54.5q-67 0 -106 46.5t-39 123.5q0 132 91 257t249 208l67 -104
q-146 -93 -192 -215q54 -5 85.5 -38.5t31.5 -90.5z" />
    <glyph glyph-name="quotedblright" unicode="&#x201d;" horiz-adv-x="995" 
d="M233 1210q0 80 53.5 133.5t133.5 53.5q67 0 105 -45.5t38 -122.5q0 -133 -90 -257.5t-248 -207.5l-67 102q147 97 192 215q-53 5 -85 39t-32 90zM686 1210q0 80 53.5 133.5t132.5 53.5q67 0 105.5 -45.5t38.5 -122.5q0 -133 -90 -257.5t-248 -207.5l-68 102
q149 98 193 215q-53 5 -85 39t-32 90z" />
    <glyph glyph-name="quotedblbase" unicode="&#x201e;" horiz-adv-x="995" 
d="M41 119q0 79 53.5 132.5t132.5 53.5q67 0 105.5 -45.5t38.5 -122.5q0 -133 -90 -257.5t-248 -207.5l-68 103q149 98 193 215q-53 5 -85 39t-32 90zM494 119q0 79 53 132.5t133 53.5q67 0 105 -45.5t38 -122.5q0 -133 -90 -257.5t-248 -207.5l-67 103q147 97 192 215
q-53 5 -84.5 39t-31.5 90z" />
    <glyph glyph-name="dagger" unicode="&#x2020;" horiz-adv-x="1024" 
d="M324 0l147 842h-334l35 198h334l59 336h201l-59 -336h333l-34 -198h-334l-148 -842h-200z" />
    <glyph glyph-name="daggerdbl" unicode="&#x2021;" horiz-adv-x="1024" 
d="M324 0l59 336h-336l35 199h336l53 307h-334l35 198h334l59 336h201l-59 -336h333l-34 -198h-334l-56 -307h336l-34 -199h-336l-58 -336h-200z" />
    <glyph glyph-name="bullet" unicode="&#x2022;" horiz-adv-x="983" 
d="M213 590q0 123 86 209t209 86t209 -86t86 -209t-86 -209t-209 -86t-209 86t-86 209z" />
    <glyph glyph-name="ellipsis" unicode="&#x2026;" horiz-adv-x="1966" 
d="M100 119q0 78 54.5 132t132.5 54q63 0 102 -38.5t39 -100.5q0 -79 -54 -134t-132 -55q-63 0 -102.5 40t-39.5 102zM756 119q0 78 54 132t132 54q63 0 102 -38.5t39 -100.5q0 -79 -54 -134t-132 -55q-63 0 -102 40t-39 102zM1411 119q0 78 54 132t132 54q63 0 102.5 -38.5
t39.5 -100.5q0 -79 -54.5 -134t-132.5 -55q-63 0 -102 40t-39 102z" />
    <glyph glyph-name="perthousand" unicode="&#x2030;" horiz-adv-x="2586" 
d="M1753 270q0 192 117.5 317.5t302.5 125.5q144 0 230.5 -80.5t86.5 -214.5q0 -192 -117 -317.5t-302 -125.5q-144 0 -231 81t-87 214zM2087 129q91 0 150 77.5t59 196.5q0 71 -37.5 113.5t-101.5 42.5q-90 0 -149.5 -78t-59.5 -196q0 -71 38 -113.5t101 -42.5zM936 270
q0 192 117.5 317.5t302.5 125.5q146 0 232.5 -80.5t86.5 -214.5q0 -192 -117.5 -317.5t-302.5 -125.5q-144 0 -231.5 81.5t-87.5 213.5zM1272 129q90 0 149.5 78t59.5 196q0 70 -38.5 113t-101.5 43q-91 0 -151 -78t-60 -196q0 -71 39 -113.5t103 -42.5zM219 55l1276 1381
l121 -115l-1276 -1380zM160 958q0 192 117.5 317.5t302.5 125.5q144 0 230.5 -80.5t86.5 -214.5q0 -192 -117.5 -317t-302.5 -125q-144 0 -230.5 80.5t-86.5 213.5zM494 817q89 0 148.5 78.5t59.5 196.5q0 70 -38 112.5t-101 42.5q-91 0 -150 -77.5t-59 -196.5
q0 -71 38 -113.5t102 -42.5z" />
    <glyph glyph-name="guilsinglleft" unicode="&#x2039;" horiz-adv-x="673" 
d="M45 451l23 129l481 452l135 -137l-381 -399l242 -383l-168 -113z" />
    <glyph glyph-name="guilsinglright" unicode="&#x203a;" horiz-adv-x="673" 
d="M631 578l-23 -129l-479 -453l-135 137l381 399l-244 383l168 113z" />
    <glyph glyph-name="fraction" unicode="&#x2044;" horiz-adv-x="393" 
d="M-469 55l1276 1381l121 -115l-1276 -1380z" />
    <glyph glyph-name="zero.sup" unicode="&#x2070;" horiz-adv-x="888" 
d="M201 1096q0 239 122.5 399t307.5 160q146 0 226.5 -86.5t80.5 -239.5q0 -239 -122.5 -399t-307.5 -160q-146 0 -226.5 86.5t-80.5 239.5zM395 1112q0 -91 33.5 -141.5t93.5 -50.5q92 0 156.5 115t64.5 278q0 91 -33 141.5t-94 50.5q-92 0 -156.5 -115t-64.5 -278z" />
    <glyph glyph-name="four.sup" unicode="&#x2074;" horiz-adv-x="782" 
d="M502 786l30 177h-399l27 137l483 538h178l-94 -536h102l-22 -139h-105l-30 -177h-170zM332 1102h223l61 323z" />
    <glyph glyph-name="five.sup" unicode="&#x2075;" horiz-adv-x="704" 
d="M807 1638l-27 -147h-336l-30 -176q36 4 55 4q123 0 194.5 -66.5t71.5 -179.5q0 -128 -103.5 -215.5t-252.5 -87.5q-137 0 -273 90l84 131q98 -67 189 -67q71 0 119.5 39t48.5 98t-44.5 92t-121.5 33q-57 0 -164 -15l84 467h506z" />
    <glyph glyph-name="six.sup" unicode="&#x2076;" horiz-adv-x="802" 
d="M197 1083q0 249 126.5 410.5t321.5 161.5q122 0 238 -70l-76 -129q-86 51 -170 51t-150.5 -63t-89.5 -168q77 74 193 74q108 0 176.5 -68.5t67.5 -177.5q0 -140 -101 -237t-248 -97q-134 0 -211 83.5t-77 229.5zM367 1057q0 -60 37 -99.5t94 -39.5q69 0 116.5 46
t47.5 115q0 59 -35.5 93t-94.5 34q-70 0 -117.5 -43t-47.5 -106z" />
    <glyph glyph-name="seven.sup" unicode="&#x2077;" horiz-adv-x="661" 
d="M150 786l425 699h-372l26 153h582l-25 -137l-428 -715h-208z" />
    <glyph glyph-name="eight.sup" unicode="&#x2078;" horiz-adv-x="802" 
d="M539 1282q72 12 114.5 48t42.5 89q0 45 -35 72t-90 27q-65 0 -106 -33.5t-41 -85.5q0 -42 31 -72.5t84 -44.5zM164 995q0 79 50.5 140.5t143.5 95.5q-48 24 -76 67.5t-28 98.5q0 114 93 186t243 72q129 0 205.5 -59.5t76.5 -157.5q0 -74 -46 -134t-128 -90
q59 -26 91 -72.5t32 -105.5q0 -117 -99.5 -191.5t-256.5 -74.5q-139 0 -220 60.5t-81 164.5zM518 1163q-80 -18 -126 -55t-46 -90q0 -52 37 -81.5t98 -29.5q72 0 117 37t45 94q0 86 -125 125z" />
    <glyph glyph-name="nine.sup" unicode="&#x2079;" horiz-adv-x="802" 
d="M856 1341q0 -249 -126 -410t-322 -161q-122 0 -238 70l78 129q86 -51 168 -51q85 0 150.5 63t88.5 168q-77 -74 -190 -74q-109 0 -177.5 68t-68.5 178q0 140 101 237t247 97q135 0 212 -84t77 -230zM688 1368q0 60 -37 99.5t-94 39.5q-69 0 -116.5 -46t-47.5 -115
q0 -59 35 -93t94 -34q70 0 118 43t48 106z" />
    <glyph glyph-name="plus.sup" unicode="&#x207a;" horiz-adv-x="770" 
d="M199 1133v159h233v234h158v-234h233v-159h-233v-234h-158v234h-233z" />
    <glyph glyph-name="minus.sup" unicode="&#x207b;" horiz-adv-x="770" 
d="M199 1133v159h624v-159h-624z" />
    <glyph glyph-name="equal.sup" unicode="&#x207c;" horiz-adv-x="770" 
d="M199 1296v158h624v-158h-624zM199 971v157h624v-157h-624z" />
    <glyph glyph-name="parenleft.sup" unicode="&#x207d;" horiz-adv-x="491" 
d="M489 717l-139 -84q-140 216 -137 471q3 195 85 375.5t234 326.5l123 -94q-125 -127 -193.5 -285t-70.5 -319q-6 -212 98 -391z" />
    <glyph glyph-name="parenright.sup" unicode="&#x207e;" horiz-adv-x="491" 
d="M256 1720l139 86q137 -207 137 -471q-1 -196 -83 -376.5t-234 -325.5l-125 92q126 129 196 287t70 319q0 219 -100 389z" />
    <glyph glyph-name="zero.sub" unicode="&#x2080;" horiz-adv-x="888" 
d="M16 47q0 239 122.5 399t307.5 160q146 0 227 -86t81 -239q0 -157 -55.5 -285t-154 -201.5t-220.5 -73.5q-146 0 -227 86.5t-81 239.5zM211 63q0 -91 33.5 -141.5t93.5 -50.5q92 0 156.5 115t64.5 278q0 91 -33 142t-94 51q-92 0 -156.5 -115.5t-64.5 -278.5z" />
    <glyph glyph-name="one.sub" unicode="&#x2081;" horiz-adv-x="573" 
d="M121 -262l115 659l-193 -102l-59 133l311 162h166l-150 -852h-190z" />
    <glyph glyph-name="two.sub" unicode="&#x2082;" horiz-adv-x="704" 
d="M-92 -262l22 129l338 285q64 57 94.5 98t30.5 82q0 52 -31.5 81t-87.5 29q-76 0 -184 -57l-59 143q162 78 301 78q115 0 184.5 -66t69.5 -175q0 -74 -42.5 -144.5t-131.5 -148.5l-213 -181h317l-27 -153h-581z" />
    <glyph glyph-name="three.sub" unicode="&#x2083;" horiz-adv-x="704" 
d="M143 109l23 131h65q74 0 121 33t47 87q0 43 -31.5 70t-80.5 27q-82 0 -197 -39l-43 135q175 53 293 53q115 0 182.5 -58t67.5 -157q0 -75 -47 -133.5t-123 -83.5q57 -22 88 -70.5t31 -115.5q0 -113 -92.5 -190t-227.5 -77q-150 0 -307 80l70 133q129 -63 221 -63
q60 0 99.5 35t39.5 88q0 52 -39 83.5t-104 31.5h-56z" />
    <glyph glyph-name="four.sub" unicode="&#x2084;" horiz-adv-x="782" 
d="M317 -262l31 176h-399l26 137l484 539h178l-94 -537h102l-22 -139h-105l-31 -176h-170zM147 53h224l61 324z" />
    <glyph glyph-name="five.sub" unicode="&#x2085;" horiz-adv-x="704" 
d="M623 590l-27 -148h-336l-31 -176q36 4 56 4q123 0 194.5 -66t71.5 -179q0 -128 -103.5 -216t-252.5 -88q-136 0 -273 91l84 131q100 -68 189 -68q71 0 119 39t48 98q0 60 -44 92.5t-121 32.5q-64 0 -164 -14l84 467h506z" />
    <glyph glyph-name="six.sub" unicode="&#x2086;" horiz-adv-x="802" 
d="M12 35q0 249 127 410t322 161q122 0 237 -69l-75 -129q-86 51 -170 51t-150.5 -63.5t-89.5 -168.5q77 74 193 74q108 0 176 -68t67 -178q0 -140 -100.5 -237t-247.5 -97q-134 0 -211.5 84t-77.5 230zM182 8q0 -60 37 -99.5t94 -39.5q69 0 116.5 46.5t47.5 115.5
q0 59 -35 93t-94 34q-70 0 -118 -43.5t-48 -106.5z" />
    <glyph glyph-name="seven.sub" unicode="&#x2087;" horiz-adv-x="661" 
d="M-35 -262l426 698h-373l27 154h582l-25 -137l-428 -715h-209z" />
    <glyph glyph-name="eight.sub" unicode="&#x2088;" horiz-adv-x="802" 
d="M354 233q72 12 115 48.5t43 89.5q0 45 -35 71.5t-90 26.5q-65 0 -106 -33.5t-41 -85.5q0 -42 30.5 -72.5t83.5 -44.5zM-20 -53q0 78 50.5 139.5t143.5 95.5q-48 24 -76 67.5t-28 98.5q0 114 93 186t243 72q129 0 205.5 -59.5t76.5 -157.5q0 -74 -45.5 -133t-128.5 -90
q59 -26 91 -72.5t32 -105.5q0 -117 -99.5 -192t-256.5 -75q-139 0 -220 61t-81 165zM334 115q-80 -18 -126 -55.5t-46 -90.5q0 -52 37 -81t98 -29q72 0 117 37t45 94q0 86 -125 125z" />
    <glyph glyph-name="nine.sub" unicode="&#x2089;" horiz-adv-x="802" 
d="M672 293q0 -249 -126.5 -410.5t-322.5 -161.5q-121 0 -237 70l77 129q86 -51 168 -51q85 0 151 63t89 168q-76 -73 -190 -73q-109 0 -177.5 67.5t-68.5 177.5q0 140 101 237t247 97q135 0 212 -83.5t77 -229.5zM504 319q0 60 -37 100t-94 40q-69 0 -116.5 -46.5
t-47.5 -115.5q0 -59 35 -93t94 -34q70 0 118 43t48 106z" />
    <glyph glyph-name="plus.sub" unicode="&#x208a;" horiz-adv-x="770" 
d="M14 84v160h234v233h158v-233h233v-160h-233v-234h-158v234h-234z" />
    <glyph glyph-name="minus.sub" unicode="&#x208b;" horiz-adv-x="770" 
d="M14 84v160h625v-160h-625z" />
    <glyph glyph-name="equal.sub" unicode="&#x208c;" horiz-adv-x="770" 
d="M14 248v158h625v-158h-625zM14 -78v158h625v-158h-625z" />
    <glyph glyph-name="parenleft.sub" unicode="&#x208d;" horiz-adv-x="491" 
d="M305 -332l-139 -84q-140 216 -137 471q3 195 85 376t234 327l123 -94q-125 -127 -193.5 -285.5t-70.5 -319.5q-6 -212 98 -391z" />
    <glyph glyph-name="parenright.sub" unicode="&#x208e;" horiz-adv-x="491" 
d="M72 672l139 86q137 -207 137 -471q-1 -196 -83 -377t-234 -326l-125 92q126 129 196 287.5t70 319.5q0 219 -100 389z" />
    <glyph glyph-name="Euro" unicode="&#x20ac;" 
d="M55 477l29 160h119q7 77 20 135h-117l29 160h137q86 216 255 342.5t384 126.5q209 0 385 -117l-110 -178q-134 90 -271 90q-123 0 -219 -70.5t-153 -193.5h463l-29 -160h-502q-17 -60 -20 -135h497l-26 -160h-463q19 -138 100 -217.5t203 -79.5q132 0 258 60l74 -181
q-175 -84 -383 -84q-216 0 -355.5 136.5t-158.5 365.5h-146z" />
    <glyph glyph-name="afii61248" unicode="&#x2105;" horiz-adv-x="1728" 
d="M154 977q0 178 116 297t289 119q129 0 244 -76l-86 -133q-75 53 -154 53q-90 0 -149.5 -68.5t-59.5 -167.5q0 -68 41.5 -109.5t110.5 -41.5q81 0 158 47l59 -133q-122 -70 -260 -70q-139 0 -224 77.5t-85 205.5zM199 55l1276 1381l120 -115l-1276 -1380zM918 264
q0 181 115 299.5t294 118.5q141 0 226 -77t85 -204q0 -181 -114.5 -299t-294.5 -118q-140 0 -225.5 76.5t-85.5 203.5zM1249 135q82 0 136.5 72t54.5 178q0 66 -36 105.5t-97 39.5q-82 0 -136.5 -71.5t-54.5 -177.5q0 -66 36 -106t97 -40z" />
    <glyph glyph-name="litre" unicode="&#x2113;" horiz-adv-x="825" 
d="M893 1194q0 -186 -137.5 -368t-380.5 -320l-29 -166q-6 -24 -6 -51q0 -49 32 -77t87 -28q34 0 127 13l18 -199q-109 -23 -217 -23q-131 0 -212 76t-81 199q0 24 8 74l144 813q28 153 122.5 241t233.5 88q128 0 209.5 -76.5t81.5 -195.5zM692 1147q0 49 -23.5 77.5
t-62.5 28.5q-47 0 -78.5 -36t-42.5 -101l-67 -366q129 84 201.5 188t72.5 209z" />
    <glyph glyph-name="numero" unicode="&#x2116;" horiz-adv-x="2383" 
d="M1618 444l24 138h685l-25 -138h-684zM1700 985q0 181 114.5 299.5t294.5 118.5q140 0 226 -77t86 -204q0 -181 -115.5 -299t-294.5 -118q-141 0 -226 76.5t-85 203.5zM2030 856q83 0 137.5 72t54.5 178q0 66 -36 105.5t-97 39.5q-82 0 -136.5 -72t-54.5 -178
q0 -66 36 -105.5t96 -39.5zM84 0l242 1376h258l514 -991l174 991h252l-242 -1376h-258l-514 991l-174 -991h-252z" />
    <glyph glyph-name="uni2117" unicode="&#x2117;" horiz-adv-x="1703" 
d="M131 688q0 218 96 390t268 268t390 96t390 -96t267.5 -268t95.5 -390t-95.5 -390t-267.5 -268t-390 -96t-390 96t-268 268t-96 390zM268 688q0 -271 172.5 -443.5t444.5 -172.5q271 0 443.5 172t172.5 444t-172.5 444.5t-443.5 172.5t-444 -172.5t-173 -444.5zM592 262
v852h362q137 0 223.5 -81t86.5 -208q0 -126 -86.5 -206t-223.5 -80h-178v-277h-184zM776 963v-275h154q66 0 106.5 37.5t40.5 99.5q0 63 -40.5 100.5t-106.5 37.5h-154z" />
    <glyph glyph-name="uni2120" unicode="&#x2120;" horiz-adv-x="1933" 
d="M989 524v852h193l260 -358l258 358h194v-852h-182v584l-215 -299h-113l-217 299v-584h-178zM154 1141q0 113 88.5 182.5t232.5 69.5q143 0 303 -62l-49 -145q-136 49 -240 49q-64 0 -101.5 -26t-37.5 -68q0 -31 25 -52t65 -33t88.5 -23.5t96.5 -30t88 -45t65 -75.5
t25 -116q0 -116 -90 -187t-238 -71q-166 0 -330 70l52 145q150 -59 264 -59q68 0 106.5 28t38.5 74q0 37 -33.5 62t-83.5 36.5t-109 30.5t-109 43t-83.5 76t-33.5 127z" />
    <glyph glyph-name="trademark" unicode="&#x2122;" horiz-adv-x="1949" 
d="M383 524v699h-260v153h719v-153h-258v-699h-201zM1006 524v852h192l260 -358l260 358h193v-852h-180v584l-215 -299h-115l-217 299v-584h-178z" />
    <glyph glyph-name="uni2126" unicode="&#x2126;" horiz-adv-x="1587" 
d="M-2 0l37 209h303q-80 89 -125 206t-45 242q0 217 94 387t262 263.5t383 93.5q172 0 308 -66t214 -190.5t78 -286.5q0 -192 -94 -357.5t-274 -291.5h303l-37 -209h-604l30 178q195 123 299.5 288.5t104.5 350.5q0 166 -97 267.5t-251 101.5q-195 0 -322.5 -148
t-130.5 -381q-1 -130 47 -255.5t135 -223.5l-30 -178h-588z" />
    <glyph glyph-name="estimated" unicode="&#x212e;" horiz-adv-x="1966" 
d="M1016 33q147 0 276 60.5t221 168.5h136q-110 -136 -276 -215.5t-357 -79.5q-160 0 -305.5 57.5t-251 154t-168 230t-62.5 279.5t62.5 279.5t168 230t251 154t305.5 57.5t305.5 -57.5t250.5 -154t167.5 -230t62.5 -279.5q0 -23 -2 -33h-1276v-401q91 -104 218.5 -162.5
t273.5 -58.5zM524 1122v-401h983v401q-93 104 -220.5 162.5t-270.5 58.5q-145 0 -273 -59t-219 -162z" />
    <glyph glyph-name="onethird" unicode="&#x2153;" horiz-adv-x="1966" 
d="M365 524l114 660l-192 -103l-60 133l312 162h166l-150 -852h-190zM317 55l1276 1381l121 -115l-1276 -1380zM1409 371l23 131h65q74 0 121 33.5t47 87.5q0 43 -31.5 69.5t-81.5 26.5q-81 0 -196 -39l-43 135q175 53 293 53q115 0 182 -58t67 -157q0 -75 -46.5 -133.5
t-122.5 -83.5q57 -22 87.5 -70t30.5 -116q0 -113 -92 -189.5t-227 -76.5q-152 0 -307 79l69 134q131 -64 221 -64q60 0 100 35t40 88q0 52 -39.5 83.5t-104.5 31.5h-55z" />
    <glyph glyph-name="twothirds" unicode="&#x2154;" horiz-adv-x="1966" 
d="M86 524l23 129l337 285q64 57 94.5 98t30.5 82q0 52 -31 81.5t-87 29.5q-75 0 -185 -58l-59 144q162 78 301 78q115 0 184.5 -66.5t69.5 -175.5q0 -74 -42.5 -144.5t-131.5 -148.5l-213 -180h317l-26 -154h-582zM317 55l1276 1381l121 -115l-1276 -1380zM1409 371l23 131
h65q74 0 121 33.5t47 87.5q0 43 -31.5 69.5t-81.5 26.5q-81 0 -196 -39l-43 135q175 53 293 53q115 0 182 -58t67 -157q0 -75 -46.5 -133.5t-122.5 -83.5q57 -22 87.5 -70t30.5 -116q0 -113 -92 -189.5t-227 -76.5q-152 0 -307 79l69 134q131 -64 221 -64q60 0 100 35t40 88
q0 52 -39.5 83.5t-104.5 31.5h-55z" />
    <glyph glyph-name="uni2155" unicode="&#x2155;" horiz-adv-x="1966" 
d="M365 524l114 660l-192 -103l-60 133l312 162h166l-150 -852h-190zM317 55l1276 1381l121 -115l-1276 -1380zM1888 852l-26 -147h-336l-31 -177q36 4 55 4q123 0 195 -66t72 -179q0 -128 -104 -215.5t-253 -87.5q-136 0 -272 90l84 131q100 -68 188 -68q71 0 119.5 39
t48.5 98t-44.5 92t-121.5 33q-64 0 -164 -14l84 467h506z" />
    <glyph glyph-name="uni2156" unicode="&#x2156;" horiz-adv-x="1966" 
d="M86 524l23 129l337 285q64 57 94.5 98t30.5 82q0 52 -31 81.5t-87 29.5q-75 0 -185 -58l-59 144q162 78 301 78q115 0 184.5 -66.5t69.5 -175.5q0 -74 -42.5 -144.5t-131.5 -148.5l-213 -180h317l-26 -154h-582zM317 55l1276 1381l121 -115l-1276 -1380zM1888 852
l-26 -147h-336l-31 -177q36 4 55 4q123 0 195 -66t72 -179q0 -128 -104 -215.5t-253 -87.5q-136 0 -272 90l84 131q100 -68 188 -68q71 0 119.5 39t48.5 98t-44.5 92t-121.5 33q-64 0 -164 -14l84 467h506z" />
    <glyph glyph-name="uni2157" unicode="&#x2157;" horiz-adv-x="1966" 
d="M322 895l22 131h66q74 0 121 33.5t47 87.5q0 43 -31.5 69.5t-81.5 26.5q-82 0 -197 -39l-43 135q178 54 293 54t182.5 -58t67.5 -157q0 -75 -47 -133.5t-123 -83.5q57 -22 88 -70.5t31 -116.5q0 -112 -92.5 -189t-227.5 -77q-150 0 -307 80l70 133q131 -64 221 -64
q60 0 99.5 35t39.5 88q0 52 -39 83.5t-104 31.5h-55zM317 55l1276 1381l121 -115l-1276 -1380zM1888 852l-26 -147h-336l-31 -177q36 4 55 4q123 0 195 -66t72 -179q0 -128 -104 -215.5t-253 -87.5q-136 0 -272 90l84 131q100 -68 188 -68q71 0 119.5 39t48.5 98t-44.5 92
t-121.5 33q-64 0 -164 -14l84 467h506z" />
    <glyph glyph-name="uni2158" unicode="&#x2158;" horiz-adv-x="1966" 
d="M457 524l30 176h-399l27 138l483 538h178l-94 -536h102l-22 -140h-105l-30 -176h-170zM287 840h223l61 323zM317 55l1276 1381l121 -115l-1276 -1380zM1888 852l-26 -147h-336l-31 -177q36 4 55 4q123 0 195 -66t72 -179q0 -128 -104 -215.5t-253 -87.5q-136 0 -272 90
l84 131q100 -68 188 -68q71 0 119.5 39t48.5 98t-44.5 92t-121.5 33q-64 0 -164 -14l84 467h506z" />
    <glyph glyph-name="uni2159" unicode="&#x2159;" horiz-adv-x="1966" 
d="M365 524l114 660l-192 -103l-60 133l312 162h166l-150 -852h-190zM317 55l1276 1381l121 -115l-1276 -1380zM1229 297q0 249 126.5 410t321.5 161q123 0 238 -69l-76 -129q-86 51 -170 51t-150 -63.5t-89 -168.5q77 74 192 74q108 0 176.5 -68.5t67.5 -177.5
q0 -140 -100.5 -236.5t-247.5 -96.5q-134 0 -211.5 83.5t-77.5 229.5zM1399 270q0 -60 37 -99.5t94 -39.5q69 0 116.5 46.5t47.5 115.5q0 59 -35 93t-94 34q-70 0 -118 -43.5t-48 -106.5z" />
    <glyph glyph-name="uni215A" unicode="&#x215a;" horiz-adv-x="1966" 
d="M801 1376l-27 -147h-336l-30 -176q36 4 55 4q123 0 194.5 -66.5t71.5 -179.5q0 -128 -103.5 -215.5t-252.5 -87.5q-137 0 -273 90l84 131q98 -67 189 -67q71 0 119.5 39t48.5 98t-44.5 92t-121.5 33q-57 0 -164 -15l84 467h506zM317 55l1276 1381l121 -115l-1276 -1380z
M1229 297q0 249 126.5 410t321.5 161q123 0 238 -69l-76 -129q-86 51 -170 51t-150 -63.5t-89 -168.5q77 74 192 74q108 0 176.5 -68.5t67.5 -177.5q0 -140 -100.5 -236.5t-247.5 -96.5q-134 0 -211.5 83.5t-77.5 229.5zM1399 270q0 -60 37 -99.5t94 -39.5q69 0 116.5 46.5
t47.5 115.5q0 59 -35 93t-94 34q-70 0 -118 -43.5t-48 -106.5z" />
    <glyph glyph-name="oneeighth" unicode="&#x215b;" horiz-adv-x="1966" 
d="M365 524l114 660l-192 -103l-60 133l312 162h166l-150 -852h-190zM317 55l1276 1381l121 -115l-1276 -1380zM1571 496q72 12 115 48t43 89q0 45 -35 71.5t-90 26.5q-65 0 -106.5 -34t-41.5 -85q0 -42 30.5 -72t84.5 -44zM1196 209q0 78 51 139.5t144 95.5
q-48 24 -76.5 67.5t-28.5 98.5q0 114 93 186t243 72q129 0 206 -59.5t77 -157.5q0 -74 -45.5 -133t-128.5 -90q59 -26 90.5 -72.5t31.5 -105.5q0 -117 -99.5 -191.5t-256.5 -74.5q-139 0 -220 60.5t-81 164.5zM1550 377q-80 -18 -126 -55.5t-46 -90.5q0 -52 37 -81t98 -29
q72 0 117 37t45 94q0 86 -125 125z" />
    <glyph glyph-name="threeeighths" unicode="&#x215c;" horiz-adv-x="1966" 
d="M322 895l22 131h66q74 0 121 33.5t47 87.5q0 43 -31.5 69.5t-81.5 26.5q-82 0 -197 -39l-43 135q178 54 293 54t182.5 -58t67.5 -157q0 -75 -47 -133.5t-123 -83.5q57 -22 88 -70.5t31 -116.5q0 -112 -92.5 -189t-227.5 -77q-150 0 -307 80l70 133q131 -64 221 -64
q60 0 99.5 35t39.5 88q0 52 -39 83.5t-104 31.5h-55zM317 55l1276 1381l121 -115l-1276 -1380zM1571 496q72 12 115 48t43 89q0 45 -35 71.5t-90 26.5q-65 0 -106.5 -34t-41.5 -85q0 -42 30.5 -72t84.5 -44zM1196 209q0 78 51 139.5t144 95.5q-48 24 -76.5 67.5t-28.5 98.5
q0 114 93 186t243 72q129 0 206 -59.5t77 -157.5q0 -74 -45.5 -133t-128.5 -90q59 -26 90.5 -72.5t31.5 -105.5q0 -117 -99.5 -191.5t-256.5 -74.5q-139 0 -220 60.5t-81 164.5zM1550 377q-80 -18 -126 -55.5t-46 -90.5q0 -52 37 -81t98 -29q72 0 117 37t45 94
q0 86 -125 125z" />
    <glyph glyph-name="fiveeighths" unicode="&#x215d;" horiz-adv-x="1966" 
d="M801 1376l-27 -147h-336l-30 -176q36 4 55 4q123 0 194.5 -66.5t71.5 -179.5q0 -128 -103.5 -215.5t-252.5 -87.5q-137 0 -273 90l84 131q98 -67 189 -67q71 0 119.5 39t48.5 98t-44.5 92t-121.5 33q-57 0 -164 -15l84 467h506zM317 55l1276 1381l121 -115l-1276 -1380z
M1571 496q72 12 115 48t43 89q0 45 -35 71.5t-90 26.5q-65 0 -106.5 -34t-41.5 -85q0 -42 30.5 -72t84.5 -44zM1196 209q0 78 51 139.5t144 95.5q-48 24 -76.5 67.5t-28.5 98.5q0 114 93 186t243 72q129 0 206 -59.5t77 -157.5q0 -74 -45.5 -133t-128.5 -90
q59 -26 90.5 -72.5t31.5 -105.5q0 -117 -99.5 -191.5t-256.5 -74.5q-139 0 -220 60.5t-81 164.5zM1550 377q-80 -18 -126 -55.5t-46 -90.5q0 -52 37 -81t98 -29q72 0 117 37t45 94q0 86 -125 125z" />
    <glyph glyph-name="seveneighths" unicode="&#x215e;" horiz-adv-x="1966" 
d="M164 524l426 699h-373l27 153h581l-24 -137l-428 -715h-209zM317 55l1276 1381l121 -115l-1276 -1380zM1571 496q72 12 115 48t43 89q0 45 -35 71.5t-90 26.5q-65 0 -106.5 -34t-41.5 -85q0 -42 30.5 -72t84.5 -44zM1196 209q0 78 51 139.5t144 95.5q-48 24 -76.5 67.5
t-28.5 98.5q0 114 93 186t243 72q129 0 206 -59.5t77 -157.5q0 -74 -45.5 -133t-128.5 -90q59 -26 90.5 -72.5t31.5 -105.5q0 -117 -99.5 -191.5t-256.5 -74.5q-139 0 -220 60.5t-81 164.5zM1550 377q-80 -18 -126 -55.5t-46 -90.5q0 -52 37 -81t98 -29q72 0 117 37t45 94
q0 86 -125 125z" />
    <glyph glyph-name="uni215F" unicode="&#x215f;" 
d="M365 524l114 660l-192 -103l-60 133l312 162h166l-150 -852h-190zM317 55l1276 1381l121 -115l-1276 -1380z" />
    <glyph glyph-name="arrowleft" unicode="&#x2190;" horiz-adv-x="1966" 
d="M1911 469h-1387l414 -399l-176 -166l-686 686l686 686l176 -166l-414 -399h1387v-242z" />
    <glyph glyph-name="arrowup" unicode="&#x2191;" horiz-adv-x="1966" 
d="M879 -328v1387l-400 -412l-166 174l686 686l687 -686l-166 -174l-400 412v-1387h-241z" />
    <glyph glyph-name="arrowright" unicode="&#x2192;" horiz-adv-x="1966" 
d="M82 711h1386l-411 399l174 166l686 -686l-686 -686l-174 166l411 399h-1386v242z" />
    <glyph glyph-name="arrowdown" unicode="&#x2193;" horiz-adv-x="1966" 
d="M1120 1507v-1386l400 411l166 -174l-687 -686l-686 686l166 174l400 -411v1386h241z" />
    <glyph glyph-name="uni2196" unicode="&#x2196;" horiz-adv-x="1966" 
d="M1563 -143l-979 981l8 -576l-242 8v969h969l8 -242l-575 9l981 -979z" />
    <glyph glyph-name="uni2197" unicode="&#x2197;" horiz-adv-x="1966" 
d="M266 27l981 981l-575 -11l8 242h969v-969l-242 -8l10 576l-981 -981z" />
    <glyph glyph-name="uni2198" unicode="&#x2198;" horiz-adv-x="1966" 
d="M436 1323l981 -981l-10 576l242 -9v-968h-969l-8 241l575 -10l-981 981z" />
    <glyph glyph-name="uni2199" unicode="&#x2199;" horiz-adv-x="1966" 
d="M1733 1153l-981 -981l575 10l-8 -241h-969v968l242 9l-10 -576l981 981z" />
    <glyph glyph-name="partialdiff" unicode="&#x2202;" horiz-adv-x="1198" 
d="M68 418q0 128 41 241t111.5 194t168 128t207.5 47q106 0 187 -45t124 -125q6 51 2 123q-12 116 -78 198.5t-182 82.5q-121 0 -250 -60l-71 189q188 75 352 75q116 0 209.5 -42t153 -115t91 -169t31.5 -206q0 -289 -86.5 -508.5t-236.5 -335t-340 -115.5
q-198 0 -316 120.5t-118 322.5zM319 440q0 -115 61.5 -182.5t162.5 -67.5q86 0 157 54t110.5 145t39.5 199q0 102 -61 163.5t-160 61.5q-132 0 -221 -108t-89 -265z" />
    <glyph glyph-name="uni2206" unicode="&#x2206;" horiz-adv-x="1378" 
d="M-35 0l27 160l727 1216h252l293 -1226l-27 -150h-1272zM805 1087l-520 -878h721z" />
    <glyph glyph-name="product" unicode="&#x220f;" horiz-adv-x="1636" 
d="M8 -426l330 1868h1290l-330 -1868h-272l293 1659h-746l-292 -1659h-273z" />
    <glyph glyph-name="summation" unicode="&#x2211;" horiz-adv-x="1298" 
d="M-100 -426l26 156l768 805l-465 735l31 172h1137l-37 -209h-803l410 -647l-25 -133l-639 -670h834l-37 -209h-1200z" />
    <glyph glyph-name="minus" unicode="&#x2212;" 
d="M92 479v221h1024v-221h-1024z" />
    <glyph glyph-name="uni2215" unicode="&#x2215;" horiz-adv-x="393" 
d="M-469 55l1276 1381l121 -115l-1276 -1380z" />
    <glyph glyph-name="radical" unicode="&#x221a;" horiz-adv-x="1394" 
d="M1370 1419l-514 -1845h-268l-217 627l-308 -101l-67 207l518 170l199 -594l442 1592z" />
    <glyph glyph-name="infinity" unicode="&#x221e;" horiz-adv-x="1603" 
d="M68 524q0 130 54.5 240t155 177t226.5 67q111 0 191 -57t141 -181q97 125 189 181.5t206 56.5q143 0 237.5 -99.5t94.5 -253.5q0 -130 -54.5 -240t-155.5 -176.5t-227 -66.5q-111 0 -190.5 57t-140.5 181q-97 -125 -189.5 -181.5t-206.5 -56.5q-143 0 -237 99t-94 253z
M309 551q0 -80 41 -127t107 -47q65 0 122.5 53t122.5 166q-37 110 -79 158.5t-109 48.5q-84 0 -144.5 -72.5t-60.5 -179.5zM1321 629q0 80 -40.5 127t-106.5 47q-65 0 -123.5 -53t-122.5 -166q37 -110 79 -158.5t109 -48.5q84 0 144.5 72.5t60.5 179.5z" />
    <glyph glyph-name="integral" unicode="&#x222b;" horiz-adv-x="849" 
d="M508 1008q0 -123 27 -299.5t54 -362t27 -328.5q0 -207 -121 -338t-305 -131q-108 0 -206 37l61 201q61 -23 113 -23q83 0 134.5 67t51.5 177q0 123 -27 299.5t-54 361.5t-27 328q0 207 121 338t305 131q111 0 206 -36l-61 -201q-58 22 -113 22q-84 0 -135 -66.5
t-51 -176.5z" />
    <glyph glyph-name="approxequal" unicode="&#x2248;" 
d="M178 205l-117 186q153 119 326 119q77 0 151.5 -24.5t145 -49t137.5 -24.5q106 0 207 88l117 -187q-150 -120 -324 -120q-78 0 -153 24.5t-145 49t-136 24.5q-57 0 -105.5 -20.5t-103.5 -65.5zM178 680l-117 186q151 121 326 121q77 0 151.5 -24.5t145 -49t137.5 -24.5
q105 0 207 86l117 -187q-151 -118 -324 -118q-78 0 -153 24.5t-145 49t-136 24.5q-58 0 -106 -20.5t-103 -67.5z" />
    <glyph glyph-name="notequal" unicode="&#x2260;" 
d="M102 707v221h547l139 278l197 -96l-90 -182h209v-221h-320l-116 -234h436v-221h-547l-137 -275l-199 97l90 178h-209v221h318l119 234h-437z" />
    <glyph glyph-name="lessequal" unicode="&#x2264;" 
d="M102 0v221h1002v-221h-1002zM102 723v221l936 426l88 -209l-725 -327l725 -326l-88 -211z" />
    <glyph glyph-name="greaterequal" unicode="&#x2265;" 
d="M1104 944v-221l-934 -426l-90 211l727 326l-727 327l90 209zM102 0v221h1002v-221h-1002z" />
    <glyph glyph-name="uni22C5" unicode="&#x22c5;" horiz-adv-x="542" 
d="M106 492q0 78 54.5 132t132.5 54q63 0 102 -38.5t39 -100.5q0 -79 -54 -134t-132 -55q-63 0 -102.5 40t-39.5 102z" />
    <glyph glyph-name="lozenge" unicode="&#x25ca;" 
d="M512 0l-432 688l432 688h221l430 -688l-430 -688h-221zM623 1135l-279 -447l279 -448l276 448z" />
    <glyph glyph-name="zero.lprop" unicode="&#xe010;" horiz-adv-x="1351" 
d="M127 496q0 254 88 461t245 325.5t351 118.5q228 0 353.5 -137.5t125.5 -382.5q0 -254 -88 -461.5t-245 -326t-351 -118.5q-228 0 -353.5 137.5t-125.5 383.5zM393 516q0 -159 61 -247.5t173 -88.5q110 0 200.5 91t142.5 247t52 342q0 157 -60.5 246.5t-173.5 89.5
q-110 0 -200.5 -91t-142.5 -247t-52 -342z" />
    <glyph glyph-name="one.lprop" unicode="&#xe011;" horiz-adv-x="849" 
d="M309 0l195 1112l-336 -176l-82 182l498 258h229l-242 -1376h-262z" />
    <glyph glyph-name="two.lprop" unicode="&#xe012;" horiz-adv-x="1069" 
d="M-45 0l33 176l571 483q211 182 211 314q0 96 -57 151.5t-158 55.5q-125 0 -311 -97l-80 193q247 125 469 125q184 0 292.5 -104.5t108.5 -278.5q0 -234 -278 -467l-406 -342h561l-37 -209h-919z" />
    <glyph glyph-name="three.lprop" unicode="&#xe013;" horiz-adv-x="1069" 
d="M336 610l35 189h98q131 0 216 62t85 157q0 78 -55 126t-146 48q-133 0 -325 -66l-60 191q242 84 459 84q179 0 284 -92t105 -248q0 -128 -79.5 -224t-209.5 -135q99 -31 152 -110.5t53 -194.5q0 -117 -66 -214t-182 -152.5t-256 -55.5q-242 0 -483 125l100 189
q202 -105 365 -105q108 0 182 65t74 159q0 92 -71 147t-191 55h-84z" />
    <glyph glyph-name="four.lprop" unicode="&#xe014;" horiz-adv-x="1187" 
d="M608 0l54 297h-644l33 188l799 891h242l-154 -878h182l-35 -201h-182l-53 -297h-242zM303 498h393l99 549z" />
    </font>
</defs>
</svg>
